<svg width="16" height="16" viewBox="0 0 16 16" fill="none" xmlns="http://www.w3.org/2000/svg">
<path opacity="0.8" fill-rule="evenodd" clip-rule="evenodd" d="M1 4.2V9C1 10.4001 1 11.1002 1.27248 11.635C1.51217 12.1054 1.89462 12.4878 2.36502 12.7275C2.8998 13 3.59987 13 5 13H7.16476C7.07288 12.9315 6.96579 12.8813 6.84823 12.8552L5.73212 12.6071C4.39283 12.3095 3.74401 10.7825 4.45942 9.61186L6.81255 5.76128C7.58783 4.49265 9.42713 4.48341 10.2151 5.74418L10.425 6.07996C10.7827 6.65231 11.41 7 12.085 7C12.7806 7 13.4339 7.18143 14 7.49955V7C14 5.59987 14 4.8998 13.7275 4.36502C13.4878 3.89462 13.1054 3.51217 12.635 3.27248C12.1002 3 11.4001 3 10 3H8.33137C8.20908 3 8.14793 3 8.09038 2.98618C8.03937 2.97394 7.99059 2.95373 7.94586 2.92632C7.8954 2.8954 7.85216 2.85216 7.76569 2.76569L7.76569 2.76569L7.76569 2.76569L7.17157 2.17157C6.73919 1.73919 6.523 1.523 6.27071 1.3684C6.04703 1.23133 5.80317 1.13032 5.54808 1.06908C5.26036 1 4.95462 1 4.34315 1H4.2C3.0799 1 2.51984 1 2.09202 1.21799C1.71569 1.40973 1.40973 1.71569 1.21799 2.09202C1 2.51984 1 3.0799 1 4.2Z" fill="#FFAF66"/>
<path d="M7.63622 6.98076L5.87726 9.99613C5.48838 10.6628 5.96925 11.5 6.74104 11.5H10.259C11.0308 11.5 11.5116 10.6628 11.1227 9.99613L9.36378 6.98076C8.9779 6.31926 8.0221 6.31926 7.63622 6.98076Z" fill="#FFAF66"/>
<path d="M7.63622 6.98076L5.87726 9.99613C5.48838 10.6628 5.96925 11.5 6.74104 11.5H10.259C11.0308 11.5 11.5116 10.6628 11.1227 9.99613L9.36378 6.98076C8.9779 6.31926 8.0221 6.31926 7.63622 6.98076Z" fill="white" fill-opacity="0.3"/>
<path fill-rule="evenodd" clip-rule="evenodd" d="M9.40132 13C9.92003 13.8967 10.8895 14.5 12 14.5C13.6568 14.5 15 13.1569 15 11.5C15 9.84315 13.6568 8.5 12 8.5C11.9955 8.5 11.991 8.50001 11.9866 8.50003L12.4184 9.24033C13.3906 10.907 12.1884 13 10.259 13H9.40132ZM8.99997 11.5H10.259C11.0308 11.5 11.5116 10.6628 11.1227 9.99613L10.4881 8.90823C9.59796 9.42861 8.99997 10.3945 8.99997 11.5" fill="#FFAF66"/>
<path fill-rule="evenodd" clip-rule="evenodd" d="M9.40132 13C9.92003 13.8967 10.8895 14.5 12 14.5C13.6568 14.5 15 13.1569 15 11.5C15 9.84315 13.6568 8.5 12 8.5C11.9955 8.5 11.991 8.50001 11.9866 8.50003L12.4184 9.24033C13.3906 10.907 12.1884 13 10.259 13H9.40132ZM8.99997 11.5H10.259C11.0308 11.5 11.5116 10.6628 11.1227 9.99613L10.4881 8.90823C9.59796 9.42861 8.99997 10.3945 8.99997 11.5" fill="white" fill-opacity="0.3"/>
</svg>
