<svg width="16" height="16" viewBox="0 0 16 16" fill="none" xmlns="http://www.w3.org/2000/svg">
<path opacity="0.8" fill-rule="evenodd" clip-rule="evenodd" d="M1 4.2V9C1 10.4001 1 11.1002 1.27248 11.635C1.51217 12.1054 1.89462 12.4878 2.36502 12.7275C2.8998 13 3.59987 13 5 13H7.16476C7.07288 12.9315 6.96579 12.8813 6.84823 12.8552L5.86035 12.6356C5.74583 12.6102 5.68857 12.5975 5.64549 12.5858C4.39262 12.2482 3.78803 10.8253 4.41461 9.689C4.43615 9.64993 4.46674 9.59988 4.52792 9.49978L6.6679 5.99798C6.79467 5.79054 6.85805 5.68683 6.90986 5.61662C7.70427 4.54012 9.31117 4.53205 10.1164 5.60051C10.1689 5.67019 10.2333 5.77326 10.3621 5.97941L10.3621 5.97942L10.425 6.07996C10.7827 6.65231 11.41 7 12.085 7C12.7806 7 13.4339 7.18143 14 7.49955V7C14 5.59987 14 4.8998 13.7275 4.36502C13.4878 3.89462 13.1054 3.51217 12.635 3.27248C12.1002 3 11.4001 3 10 3H8.33137C8.20908 3 8.14793 3 8.09038 2.98618C8.03937 2.97394 7.99059 2.95373 7.94586 2.92632C7.8954 2.8954 7.85216 2.85216 7.76569 2.76569L7.76569 2.76569L7.76569 2.76569L7.17157 2.17157C6.73919 1.73919 6.523 1.523 6.27071 1.3684C6.04703 1.23133 5.80317 1.13032 5.54808 1.06908C5.26036 1 4.95462 1 4.34315 1H4.2C3.0799 1 2.51984 1 2.09202 1.21799C1.71569 1.40973 1.40973 1.71569 1.21799 2.09202C1 2.51984 1 3.0799 1 4.2Z" fill="#FFAB5D"/>
<path d="M7.11795 7.86922L6.40361 9.09381C5.94332 9.88289 5.71317 10.2774 5.74619 10.6014C5.775 10.884 5.9226 11.141 6.15217 11.3082C6.41537 11.5 6.87214 11.5 7.78566 11.5H9.21434C10.1279 11.5 10.5846 11.5 10.8478 11.3082C11.0774 11.141 11.225 10.884 11.2538 10.6014C11.2868 10.2774 11.0567 9.88289 10.5964 9.09381L9.88205 7.86922C9.42789 7.09067 9.20081 6.70139 8.9051 6.57036C8.64713 6.45606 8.35287 6.45606 8.0949 6.57036C7.79919 6.70139 7.57211 7.09066 7.11795 7.86922Z" fill="#FFAB5D"/>
<path d="M7.11795 7.86922L6.40361 9.09381C5.94332 9.88289 5.71317 10.2774 5.74619 10.6014C5.775 10.884 5.9226 11.141 6.15217 11.3082C6.41537 11.5 6.87214 11.5 7.78566 11.5H9.21434C10.1279 11.5 10.5846 11.5 10.8478 11.3082C11.0774 11.141 11.225 10.884 11.2538 10.6014C11.2868 10.2774 11.0567 9.88289 10.5964 9.09381L9.88205 7.86922C9.42789 7.09067 9.20081 6.70139 8.9051 6.57036C8.64713 6.45606 8.35287 6.45606 8.0949 6.57036C7.79919 6.70139 7.57211 7.09066 7.11795 7.86922Z" fill="white" fill-opacity="0.2" style="mix-blend-mode:plus-lighter"/>
<path fill-rule="evenodd" clip-rule="evenodd" d="M9.40131 13C9.92003 13.8967 10.8895 14.5 12 14.5C13.6568 14.5 15 13.1569 15 11.5C15 9.84315 13.6568 8.5 12 8.5C11.9955 8.5 11.991 8.50001 11.9866 8.50003C12.1689 8.81322 12.344 9.11901 12.4694 9.38775C12.6128 9.69519 12.8046 10.179 12.7461 10.7535L11.2538 10.6014C11.2868 10.2774 11.0567 9.88289 10.5964 9.09381L10.4881 8.90823C9.59796 9.42861 8.99997 10.3945 8.99997 11.5M9.40131 13C9.76395 12.9997 10.1165 12.9969 10.412 12.9698C10.7498 12.9388 11.2644 12.8606 11.7311 12.5206L10.8478 11.3082L11.7311 12.5206C12.305 12.1024 12.6741 11.46 12.7461 10.7535L11.2538 10.6014C11.225 10.884 11.0774 11.141 10.8478 11.3082C10.5846 11.5 10.1279 11.5 9.21434 11.5H8.99997" fill="#FFAB5D"/>
<path fill-rule="evenodd" clip-rule="evenodd" d="M9.40131 13C9.92003 13.8967 10.8895 14.5 12 14.5C13.6568 14.5 15 13.1569 15 11.5C15 9.84315 13.6568 8.5 12 8.5C11.9955 8.5 11.991 8.50001 11.9866 8.50003C12.1689 8.81322 12.344 9.11901 12.4694 9.38775C12.6128 9.69519 12.8046 10.179 12.7461 10.7535L11.2538 10.6014C11.2868 10.2774 11.0567 9.88289 10.5964 9.09381L10.4881 8.90823C9.59796 9.42861 8.99997 10.3945 8.99997 11.5M9.40131 13C9.76395 12.9997 10.1165 12.9969 10.412 12.9698C10.7498 12.9388 11.2644 12.8606 11.7311 12.5206L10.8478 11.3082L11.7311 12.5206C12.305 12.1024 12.6741 11.46 12.7461 10.7535L11.2538 10.6014C11.225 10.884 11.0774 11.141 10.8478 11.3082C10.5846 11.5 10.1279 11.5 9.21434 11.5H8.99997" fill="white" fill-opacity="0.2" style="mix-blend-mode:plus-lighter"/>
</svg>
