<svg width="16" height="16" viewBox="0 0 16 16" fill="none" xmlns="http://www.w3.org/2000/svg">
<path opacity="0.9" d="M4.34277 1C4.95414 1 5.26018 1.0003 5.54785 1.06934C5.80285 1.13055 6.0469 1.23117 6.27051 1.36816C6.5228 1.52277 6.7395 1.7395 7.17188 2.17188L7.76562 2.76562L7.86914 2.86719C7.89702 2.89262 7.92109 2.91132 7.94629 2.92676C7.99089 2.95401 8.04 2.97413 8.09082 2.98633C8.14819 3.00002 8.20928 3 8.33105 3H10C11.4 3 12.1 3.00007 12.6348 3.27246C13.1052 3.51214 13.4879 3.89483 13.7275 4.36523C13.83 4.5664 13.8937 4.79097 13.9336 5.06738C13.4537 4.87278 12.9077 4.82419 12.3613 4.96973L12.209 5.01562L8.20898 6.34961C7.25295 6.6686 6.58722 7.52729 6.50781 8.52051L6.5 8.7207V10C6.5 10.0526 6.46256 10.2215 6.10742 10.7715C5.85543 11.1617 5.2894 11.9438 5.08398 12.7949C5.06769 12.8625 5.05463 12.931 5.04297 13H5C3.60002 13 2.89999 12.9999 2.36523 12.7275C1.89483 12.4879 1.51214 12.1052 1.27246 11.6348C1.00007 11.1 1 10.4 1 9V4.2002C1 3.08009 0.999786 2.51962 1.21777 2.0918C1.40951 1.71554 1.71554 1.40951 2.0918 1.21777C2.51962 0.999786 3.08009 1 4.2002 1H4.34277Z" fill="#F15F79"/>
<path d="M12.6836 6.43881C13.331 6.223 13.9998 6.70469 14 7.38705V12.5003L13.9922 12.6537C13.9152 13.4099 13.2765 14.0003 12.5 14.0003C11.6717 14.0003 11.0002 13.3286 11 12.5003C11 11.6719 11.6716 11.0003 12.5 11.0003V9.00033L9.5 10.0003V13.5003L9.49219 13.6537C9.41524 14.4099 8.77655 15.0003 8 15.0003C7.17169 15.0003 6.50018 14.3286 6.5 13.5003C6.5 12.6719 7.17157 12.0003 8 12.0003V8.72103C8 8.29063 8.2753 7.90795 8.68359 7.77182L12.6836 6.43881Z" fill="#F15F79"/>
<path d="M12.6836 6.43881C13.331 6.223 13.9998 6.70469 14 7.38705V12.5003L13.9922 12.6537C13.9152 13.4099 13.2765 14.0003 12.5 14.0003C11.6717 14.0003 11.0002 13.3286 11 12.5003C11 11.6719 11.6716 11.0003 12.5 11.0003V9.00033L9.5 10.0003V13.5003L9.49219 13.6537C9.41524 14.4099 8.77655 15.0003 8 15.0003C7.17169 15.0003 6.50018 14.3286 6.5 13.5003C6.5 12.6719 7.17157 12.0003 8 12.0003V8.72103C8 8.29063 8.2753 7.90795 8.68359 7.77182L12.6836 6.43881Z" fill="white" fill-opacity="0.35"/>
</svg>
