<svg width="16" height="16" viewBox="0 0 16 16" fill="none" xmlns="http://www.w3.org/2000/svg">
<path opacity="0.8" fill-rule="evenodd" clip-rule="evenodd" d="M1 4.2V9C1 10.4001 1 11.1002 1.27248 11.635C1.51217 12.1054 1.89462 12.4878 2.36502 12.7275C2.83198 12.9654 3.42496 12.9956 4.5 12.9994V9.3C4.5 7.61984 4.5 6.77976 4.82698 6.13803C5.1146 5.57354 5.57354 5.1146 6.13803 4.82698C6.77976 4.5 7.61984 4.5 9.3 4.5H10.2322C10.7486 4.5 11.0069 4.5 11.2529 4.54121C11.7021 4.61645 12.1283 4.79297 12.4991 5.0574C12.7023 5.20226 12.8848 5.38484 13.25 5.75C13.6152 6.11516 13.7977 6.29774 13.9426 6.50088C13.9621 6.52825 13.9811 6.55591 13.9997 6.58386C13.997 5.45553 13.9716 4.84399 13.7275 4.36502C13.4878 3.89462 13.1054 3.51217 12.635 3.27248C12.1002 3 11.4001 3 10 3H8.33137C8.20908 3 8.14793 3 8.09038 2.98618C8.03937 2.97394 7.99059 2.95373 7.94586 2.92632C7.8954 2.8954 7.85216 2.85216 7.76569 2.76569L7.76569 2.76569L7.76569 2.76569L7.17157 2.17157C6.73919 1.73919 6.523 1.523 6.27071 1.3684C6.04703 1.23133 5.80317 1.13032 5.54808 1.06908C5.26036 1 4.95462 1 4.34315 1H4.2C3.0799 1 2.51984 1 2.09202 1.21799C1.71569 1.40973 1.40973 1.71569 1.21799 2.09202C1 2.51984 1 3.0799 1 4.2Z" fill="#A67CF8"/>
<path fill-rule="evenodd" clip-rule="evenodd" d="M6.16349 6.81901C6 7.13988 6 7.55992 6 8.4V12.6C6 13.4401 6 13.8601 6.16349 14.181C6.3073 14.4632 6.53677 14.6927 6.81901 14.8365C7.13988 15 7.55992 15 8.4 15H11.6C12.4401 15 12.8601 15 13.181 14.8365C13.4632 14.6927 13.6927 14.4632 13.8365 14.181C14 13.8601 14 13.4401 14 12.6V9.82548C14 9.3363 14 9.09171 13.9447 8.86154C13.8957 8.65746 13.8149 8.46237 13.7053 8.28343C13.5816 8.0816 13.4086 7.90865 13.0627 7.56275L13.0627 7.56274L12.4373 6.93726C12.0914 6.59135 11.9184 6.4184 11.7166 6.29472C11.5376 6.18506 11.3425 6.10425 11.1385 6.05526C10.9083 6 10.6637 6 10.1745 6H8.4C7.55992 6 7.13988 6 6.81901 6.16349C6.53677 6.3073 6.3073 6.53677 6.16349 6.81901ZM7.47997 10.3467C7.2885 10.0595 7.36611 9.67144 7.65331 9.47997C7.94052 9.2885 8.32856 9.36611 8.52003 9.65331L9.52003 11.1533C9.65999 11.3632 9.65999 11.6368 9.52003 11.8467L8.52003 13.3467C8.32856 13.6339 7.94052 13.7115 7.65331 13.52C7.36611 13.3286 7.2885 12.9405 7.47997 12.6533L8.24884 11.5L7.47997 10.3467ZM12 12.375C12.3452 12.375 12.625 12.6548 12.625 13C12.625 13.3452 12.3452 13.625 12 13.625H10.5C10.1548 13.625 9.875 13.3452 9.875 13C9.875 12.6548 10.1548 12.375 10.5 12.375H12Z" fill="#A67CF8"/>
<path fill-rule="evenodd" clip-rule="evenodd" d="M6.16349 6.81901C6 7.13988 6 7.55992 6 8.4V12.6C6 13.4401 6 13.8601 6.16349 14.181C6.3073 14.4632 6.53677 14.6927 6.81901 14.8365C7.13988 15 7.55992 15 8.4 15H11.6C12.4401 15 12.8601 15 13.181 14.8365C13.4632 14.6927 13.6927 14.4632 13.8365 14.181C14 13.8601 14 13.4401 14 12.6V9.82548C14 9.3363 14 9.09171 13.9447 8.86154C13.8957 8.65746 13.8149 8.46237 13.7053 8.28343C13.5816 8.0816 13.4086 7.90865 13.0627 7.56275L13.0627 7.56274L12.4373 6.93726C12.0914 6.59135 11.9184 6.4184 11.7166 6.29472C11.5376 6.18506 11.3425 6.10425 11.1385 6.05526C10.9083 6 10.6637 6 10.1745 6H8.4C7.55992 6 7.13988 6 6.81901 6.16349C6.53677 6.3073 6.3073 6.53677 6.16349 6.81901ZM7.47997 10.3467C7.2885 10.0595 7.36611 9.67144 7.65331 9.47997C7.94052 9.2885 8.32856 9.36611 8.52003 9.65331L9.52003 11.1533C9.65999 11.3632 9.65999 11.6368 9.52003 11.8467L8.52003 13.3467C8.32856 13.6339 7.94052 13.7115 7.65331 13.52C7.36611 13.3286 7.2885 12.9405 7.47997 12.6533L8.24884 11.5L7.47997 10.3467ZM12 12.375C12.3452 12.375 12.625 12.6548 12.625 13C12.625 13.3452 12.3452 13.625 12 13.625H10.5C10.1548 13.625 9.875 13.3452 9.875 13C9.875 12.6548 10.1548 12.375 10.5 12.375H12Z" fill="white" fill-opacity="0.3"/>
</svg>
