<svg width="16" height="16" viewBox="0 0 16 16" fill="none" xmlns="http://www.w3.org/2000/svg">
<path opacity="0.8" fill-rule="evenodd" clip-rule="evenodd" d="M1 4.2V9C1 10.4001 1 11.1002 1.27248 11.635C1.51217 12.1054 1.89462 12.4878 2.36502 12.7275C2.83198 12.9654 3.42496 12.9956 4.5 12.9994V12.4727C4.5 11.2309 5.08468 10.0615 6.07815 9.31639C6.35453 9.1091 6.57163 8.83287 6.70772 8.51532L7.21216 7.33829C7.69011 6.22308 8.78668 5.5 10 5.5C11.2133 5.5 12.3099 6.22308 12.7878 7.33829L13.2472 8.41014C13.2891 8.50787 13.31 8.55673 13.3331 8.60371C13.4565 8.85449 13.6311 9.07663 13.8456 9.2558C13.8836 9.28752 13.9237 9.31775 13.9998 9.37483C14 9.25572 14 9.13092 14 9V7C14 5.59987 14 4.8998 13.7275 4.36502C13.4878 3.89462 13.1054 3.51217 12.635 3.27248C12.1002 3 11.4001 3 10 3H8.33137C8.20908 3 8.14793 3 8.09038 2.98618C8.03937 2.97394 7.99059 2.95373 7.94586 2.92632C7.8954 2.8954 7.85216 2.85216 7.76569 2.76569L7.76569 2.76569L7.76569 2.76569L7.17157 2.17157C6.73919 1.73919 6.523 1.523 6.27071 1.3684C6.04703 1.23133 5.80317 1.13032 5.54808 1.06908C5.26036 1 4.95462 1 4.34315 1H4.2C3.0799 1 2.51984 1 2.09202 1.21799C1.71569 1.40973 1.40973 1.71569 1.21799 2.09202C1 2.51984 1 3.0799 1 4.2Z" fill="#5BAFD4"/>
<circle cx="7.5" cy="12.5" r="1.5" fill="#5BAFD4"/>
<circle cx="7.5" cy="12.5" r="1.5" fill="white" fill-opacity="0.2" style="mix-blend-mode:plus-lighter"/>
<circle cx="12.5" cy="12.5" r="1.5" fill="#5BAFD4"/>
<circle cx="12.5" cy="12.5" r="1.5" fill="white" fill-opacity="0.2" style="mix-blend-mode:plus-lighter"/>
<circle cx="10" cy="8.5" r="1.5" fill="#5BAFD4"/>
<circle cx="10" cy="8.5" r="1.5" fill="white" fill-opacity="0.2" style="mix-blend-mode:plus-lighter"/>
</svg>
