<svg width="16" height="16" viewBox="0 0 16 16" fill="none" xmlns="http://www.w3.org/2000/svg">
<path opacity="0.9" fill-rule="evenodd" clip-rule="evenodd" d="M1 9V4.2C1 3.0799 1 2.51984 1.21799 2.09202C1.40973 1.71569 1.71569 1.40973 2.09202 1.21799C2.51984 1 3.0799 1 4.2 1H4.34315C4.95462 1 5.26036 1 5.54808 1.06908C5.80317 1.13032 6.04703 1.23133 6.27071 1.3684C6.523 1.523 6.73919 1.73919 7.17157 2.17157L7.76569 2.76569L7.76569 2.76569L7.76569 2.76569C7.85216 2.85216 7.8954 2.8954 7.94586 2.92632C7.99059 2.95373 8.03937 2.97394 8.09038 2.98618C8.14793 3 8.20908 3 8.33137 3H10C11.4001 3 12.1002 3 12.635 3.27248C13.1054 3.51217 13.4878 3.89462 13.7275 4.36502C13.7724 4.45309 13.8099 4.54563 13.8412 4.64505C13.5783 4.55114 13.2951 4.5 13 4.5H8C6.067 4.5 4.5 6.067 4.5 8V12.9994C3.42496 12.9956 2.83198 12.9654 2.36502 12.7275C1.89462 12.4878 1.51217 12.1054 1.27248 11.635C1 11.1002 1 10.4001 1 9Z" fill="#7380F9"/>
<path d="M10.7998 6C11.9199 6 12.4804 5.99979 12.9082 6.21777C13.2845 6.40951 13.5905 6.71554 13.7822 7.0918C14.0002 7.51962 14 8.08009 14 9.2002V10.4004C14 10.9602 13.9996 11.2402 13.8906 11.4541C13.7948 11.6421 13.6421 11.7948 13.4541 11.8906C13.2402 11.9996 12.9602 12 12.4004 12H8.25C7.83579 12 7.5 12.3358 7.5 12.75C7.5 13.1642 7.83579 13.5 8.25 13.5H13.5C13.7761 13.5 14.0082 13.73 13.9178 13.9909C13.7145 14.5783 13.1565 15 12.5 15H9.2002C8.08009 15 7.51962 15.0002 7.0918 14.7822C6.71554 14.5905 6.40951 14.2845 6.21777 13.9082C5.99979 13.4804 6 12.9199 6 11.7998V9.2002C6 8.08009 5.99979 7.51962 6.21777 7.0918C6.40951 6.71554 6.71554 6.40951 7.0918 6.21777C7.51962 5.99979 8.08009 6 9.2002 6H10.7998Z" fill="#7380F9"/>
<path d="M10.7998 6C11.9199 6 12.4804 5.99979 12.9082 6.21777C13.2845 6.40951 13.5905 6.71554 13.7822 7.0918C14.0002 7.51962 14 8.08009 14 9.2002V10.4004C14 10.9602 13.9996 11.2402 13.8906 11.4541C13.7948 11.6421 13.6421 11.7948 13.4541 11.8906C13.2402 11.9996 12.9602 12 12.4004 12H8.25C7.83579 12 7.5 12.3358 7.5 12.75C7.5 13.1642 7.83579 13.5 8.25 13.5H13.5C13.7761 13.5 14.0082 13.73 13.9178 13.9909C13.7145 14.5783 13.1565 15 12.5 15H9.2002C8.08009 15 7.51962 15.0002 7.0918 14.7822C6.71554 14.5905 6.40951 14.2845 6.21777 13.9082C5.99979 13.4804 6 12.9199 6 11.7998V9.2002C6 8.08009 5.99979 7.51962 6.21777 7.0918C6.40951 6.71554 6.71554 6.40951 7.0918 6.21777C7.51962 5.99979 8.08009 6 9.2002 6H10.7998Z" fill="white" fill-opacity="0.35"/>
</svg>
