<svg width="16" height="16" viewBox="0 0 16 16" fill="none" xmlns="http://www.w3.org/2000/svg">
<path opacity="0.8" fill-rule="evenodd" clip-rule="evenodd" d="M1 9V4.2C1 3.0799 1 2.51984 1.21799 2.09202C1.40973 1.71569 1.71569 1.40973 2.09202 1.21799C2.51984 1 3.0799 1 4.2 1H4.34315C4.95462 1 5.26036 1 5.54808 1.06908C5.80317 1.13032 6.04703 1.23133 6.27071 1.3684C6.523 1.523 6.73919 1.73919 7.17157 2.17157L7.76569 2.76569L7.76569 2.76569L7.76569 2.76569C7.85216 2.85216 7.8954 2.8954 7.94586 2.92632C7.99059 2.95373 8.03937 2.97394 8.09038 2.98618C8.14793 3 8.20908 3 8.33137 3H10C11.4001 3 12.1002 3 12.635 3.27248C13.1054 3.51217 13.4878 3.89462 13.7275 4.36502C13.7724 4.45309 13.8099 4.54563 13.8412 4.64505C13.5783 4.55114 13.2951 4.5 13 4.5H8C6.067 4.5 4.5 6.067 4.5 8V12.9994C3.42496 12.9956 2.83198 12.9654 2.36502 12.7275C1.89462 12.4878 1.51217 12.1054 1.27248 11.635C1 11.1002 1 10.4001 1 9Z" fill="#7380F9"/>
<path d="M14 7.6C14 7.03995 14 6.75992 13.891 6.54601C13.7951 6.35785 13.6422 6.20487 13.454 6.10899C13.2401 6 12.9601 6 12.4 6H9.2C8.0799 6 7.51984 6 7.09202 6.21799C6.71569 6.40973 6.40973 6.71569 6.21799 7.09202C6 7.51984 6 8.0799 6 9.2V11.8C6 12.9201 6 13.4802 6.21799 13.908C6.40973 14.2843 6.71569 14.5903 7.09202 14.782C7.51984 15 8.0799 15 9.2 15H13C13.5523 15 14 14.5523 14 14C14 13.7239 13.7761 13.5 13.5 13.5H8.25C7.83579 13.5 7.5 13.1642 7.5 12.75C7.5 12.3358 7.83579 12 8.25 12H13.2C13.48 12 13.62 12 13.727 11.9455C13.8211 11.8976 13.8976 11.8211 13.9455 11.727C14 11.62 14 11.48 14 11.2V7.6Z" fill="#7380F9"/>
<path d="M14 7.6C14 7.03995 14 6.75992 13.891 6.54601C13.7951 6.35785 13.6422 6.20487 13.454 6.10899C13.2401 6 12.9601 6 12.4 6H9.2C8.0799 6 7.51984 6 7.09202 6.21799C6.71569 6.40973 6.40973 6.71569 6.21799 7.09202C6 7.51984 6 8.0799 6 9.2V11.8C6 12.9201 6 13.4802 6.21799 13.908C6.40973 14.2843 6.71569 14.5903 7.09202 14.782C7.51984 15 8.0799 15 9.2 15H13C13.5523 15 14 14.5523 14 14C14 13.7239 13.7761 13.5 13.5 13.5H8.25C7.83579 13.5 7.5 13.1642 7.5 12.75C7.5 12.3358 7.83579 12 8.25 12H13.2C13.48 12 13.62 12 13.727 11.9455C13.8211 11.8976 13.8976 11.8211 13.9455 11.727C14 11.62 14 11.48 14 11.2V7.6Z" fill="white" fill-opacity="0.2" style="mix-blend-mode:plus-lighter"/>
</svg>
