<svg width="16" height="16" viewBox="0 0 16 16" fill="none" xmlns="http://www.w3.org/2000/svg">
<path opacity="0.8" fill-rule="evenodd" clip-rule="evenodd" d="M1 4.2V9C1 10.4001 1 11.1002 1.27248 11.635C1.51217 12.1054 1.89462 12.4878 2.36502 12.7275C2.8998 13 3.59987 13 5 13H8V12.9463C8 12.5489 7.75197 12.2028 7.44135 11.9548C6.86761 11.4967 6.5 10.7913 6.5 10V7C6.5 5.61929 7.61929 4.5 9 4.5H12.2981C12.935 4.5 13.5056 4.73445 13.9404 5.1145C13.9011 4.81619 13.8358 4.57755 13.7275 4.36502C13.4878 3.89462 13.1054 3.51217 12.635 3.27248C12.1002 3 11.4001 3 10 3H8.33137C8.20908 3 8.14793 3 8.09038 2.98618C8.03937 2.97394 7.99059 2.95373 7.94586 2.92632C7.8954 2.8954 7.85216 2.85216 7.76569 2.76569L7.76569 2.76569L7.76569 2.76569L7.17157 2.17157C6.73919 1.73919 6.523 1.523 6.27071 1.3684C6.04703 1.23133 5.80317 1.13032 5.54808 1.06908C5.26036 1 4.95462 1 4.34315 1H4.2C3.0799 1 2.51984 1 2.09202 1.21799C1.71569 1.40973 1.40973 1.71569 1.21799 2.09202C1 2.51984 1 3.0799 1 4.2Z" fill="#FFAB5D"/>
<path d="M8 10V7C8 6.44772 8.44772 6 9 6H11.7192C12.3698 6 12.8472 6.61139 12.6894 7.24254L12 10H13.4325C13.8564 10 14.088 10.4944 13.8166 10.8201L10.3841 14.9391C10.0847 15.2983 9.5 15.0866 9.5 14.619V11H9C8.44772 11 8 10.5523 8 10Z" fill="#FFAB5D"/>
<path d="M8 10V7C8 6.44772 8.44772 6 9 6H11.7192C12.3698 6 12.8472 6.61139 12.6894 7.24254L12 10H13.4325C13.8564 10 14.088 10.4944 13.8166 10.8201L10.3841 14.9391C10.0847 15.2983 9.5 15.0866 9.5 14.619V11H9C8.44772 11 8 10.5523 8 10Z" fill="white" fill-opacity="0.2" style="mix-blend-mode:plus-lighter"/>
</svg>
