<svg width="16" height="16" viewBox="0 0 16 16" fill="none" xmlns="http://www.w3.org/2000/svg">
<path opacity="0.9" d="M4.34277 1C4.95414 1 5.26018 1.0003 5.54785 1.06934C5.80285 1.13055 6.0469 1.23117 6.27051 1.36816C6.5228 1.52277 6.7395 1.7395 7.17188 2.17188L7.76562 2.76562L7.86914 2.86719C7.89702 2.89262 7.92109 2.91132 7.94629 2.92676C7.99089 2.95401 8.04 2.97413 8.09082 2.98633C8.14819 3.00002 8.20928 3 8.33105 3H10C11.4 3 12.1 3.00007 12.6348 3.27246C13.1052 3.51214 13.4879 3.89483 13.7275 4.36523C13.9999 4.89999 14 5.60002 14 7V8.5C13.2578 8.5 12.5566 8.68071 11.9395 8.99902C11.8206 9.06012 11.6803 9.06031 11.5615 8.99902C11.2892 8.85846 11.2155 8.43183 11.3496 8.15625C11.4461 7.9581 11.5 7.73522 11.5 7.5V6C11.5 5.17157 10.8284 4.5 10 4.5C7.92907 4.5 6.15757 5.84856 5.5459 7.73535C5.40281 8.17662 5.01109 8.50785 4.63281 8.77637C4.24999 9.04816 4 9.49476 4 10V11.5C4 12.1642 4.43209 12.7276 5.03027 12.9248C5.06291 12.9357 5.08393 12.966 5.08398 13H5C3.60002 13 2.89999 12.9999 2.36523 12.7275C1.89483 12.4879 1.51214 12.1052 1.27246 11.6348C1.00007 11.1 1 10.4 1 9V4.2002C1 3.08009 0.999786 2.51962 1.21777 2.0918C1.40951 1.71554 1.71554 1.40951 2.0918 1.21777C2.51962 0.999786 3.08009 1 4.2002 1H4.34277Z" fill="#A67CF8"/>
<path d="M10 7.5C9.15781 7.5 8.46174 8.15639 8.41211 8.99707L8.35254 10H10C10.6817 10 11.299 10.2734 11.75 10.7158C12.201 10.2734 12.8183 10 13.5 10H14V11.5H13.5C12.9477 11.5 12.5 11.9477 12.5 12.5C12.5 13.0523 12.9477 13.5 13.5 13.5H14V15H13.5C12.8181 15 12.201 14.7259 11.75 14.2832C11.299 14.7259 10.6819 15 10 15H9.5V13.5H10C10.5523 13.5 11 13.0523 11 12.5C11 11.9477 10.5523 11.5 10 11.5H8.26465L8.14648 13.5039C8.06405 14.9053 6.90384 16 5.5 16V14.5C6.06146 14.5 6.5255 14.0624 6.55859 13.502L6.67676 11.5H5.5V10H6.76465L6.82422 8.99512C6.92314 7.31341 8.31539 6 10 6V7.5Z" fill="#A67CF8"/>
<path d="M10 7.5C9.15781 7.5 8.46174 8.15639 8.41211 8.99707L8.35254 10H10C10.6817 10 11.299 10.2734 11.75 10.7158C12.201 10.2734 12.8183 10 13.5 10H14V11.5H13.5C12.9477 11.5 12.5 11.9477 12.5 12.5C12.5 13.0523 12.9477 13.5 13.5 13.5H14V15H13.5C12.8181 15 12.201 14.7259 11.75 14.2832C11.299 14.7259 10.6819 15 10 15H9.5V13.5H10C10.5523 13.5 11 13.0523 11 12.5C11 11.9477 10.5523 11.5 10 11.5H8.26465L8.14648 13.5039C8.06405 14.9053 6.90384 16 5.5 16V14.5C6.06146 14.5 6.5255 14.0624 6.55859 13.502L6.67676 11.5H5.5V10H6.76465L6.82422 8.99512C6.92314 7.31341 8.31539 6 10 6V7.5Z" fill="white" fill-opacity="0.35"/>
</svg>
