<svg width="16" height="16" viewBox="0 0 16 16" fill="none" xmlns="http://www.w3.org/2000/svg">
<path opacity="0.8" fill-rule="evenodd" clip-rule="evenodd" d="M1 4.2V9C1 10.4001 1 11.1002 1.27248 11.635C1.51217 12.1054 1.89462 12.4878 2.36502 12.7275C2.68018 12.8881 3.05275 12.954 3.59217 12.9811C3.74969 12.5539 4.09615 12.2181 4.5302 12.075C4.56116 12.0648 4.58345 12.0372 4.58537 12.0047C4.58749 11.9686 4.56421 11.9362 4.52994 11.9249C3.93176 11.7276 3.5 11.1642 3.5 10.5V9C3.5 8.49472 3.74984 8.04778 4.13272 7.776C4.51102 7.50746 4.90329 7.17671 5.04635 6.7354C5.65802 4.84861 7.42907 3.5 9.5 3.5C10.3284 3.5 11 4.17157 11 5V6.5C11 6.73522 10.9459 6.95779 10.8494 7.15594C10.7151 7.43152 10.789 7.85863 11.0613 7.99922C11.1803 8.06064 11.3209 8.05997 11.4399 7.99859C12.0571 7.68027 12.7578 7.5 13.5 7.5H14V7C14 5.59987 14 4.8998 13.7275 4.36502C13.4878 3.89462 13.1054 3.51217 12.635 3.27248C12.1002 3 11.4001 3 10 3H8.33137C8.20908 3 8.14793 3 8.09038 2.98618C8.03937 2.97394 7.99059 2.95373 7.94586 2.92632C7.8954 2.8954 7.85216 2.85216 7.76569 2.76569L7.76569 2.76569L7.76569 2.76569L7.17157 2.17157C6.73919 1.73919 6.523 1.523 6.27071 1.3684C6.04703 1.23133 5.80317 1.13032 5.54808 1.06908C5.26036 1 4.95462 1 4.34315 1H4.2C3.0799 1 2.51984 1 2.09202 1.21799C1.71569 1.40973 1.40973 1.71569 1.21799 2.09202C1 2.51984 1 3.0799 1 4.2Z" fill="#A67CF8"/>
<path fill-rule="evenodd" clip-rule="evenodd" d="M5 15V13.5C5.56154 13.5 6.02575 13.0623 6.05872 12.5017L6.17647 10.5H5V9H6.26471L6.32383 7.99482C6.42276 6.31312 7.81539 5 9.5 5V6.5C8.65769 6.5 7.96138 7.15656 7.91192 7.99741L7.85294 9H9C9.89602 9 10.7003 9.39282 11.25 10.0156C11.7997 9.39282 12.604 9 13.5 9H14V10.5H13.5C12.6716 10.5 12 11.1716 12 12C12 12.8284 12.6716 13.5 13.5 13.5H14V15H13.5C12.604 15 11.7997 14.6072 11.25 13.9844C10.7003 14.6072 9.89602 15 9 15H8.5V13.5H9C9.82843 13.5 10.5 12.8284 10.5 12C10.5 11.1716 9.82843 10.5 9 10.5H7.76471L7.64681 12.5043C7.56437 13.9057 6.40384 15 5 15Z" fill="#A67CF8"/>
<path fill-rule="evenodd" clip-rule="evenodd" d="M5 15V13.5C5.56154 13.5 6.02575 13.0623 6.05872 12.5017L6.17647 10.5H5V9H6.26471L6.32383 7.99482C6.42276 6.31312 7.81539 5 9.5 5V6.5C8.65769 6.5 7.96138 7.15656 7.91192 7.99741L7.85294 9H9C9.89602 9 10.7003 9.39282 11.25 10.0156C11.7997 9.39282 12.604 9 13.5 9H14V10.5H13.5C12.6716 10.5 12 11.1716 12 12C12 12.8284 12.6716 13.5 13.5 13.5H14V15H13.5C12.604 15 11.7997 14.6072 11.25 13.9844C10.7003 14.6072 9.89602 15 9 15H8.5V13.5H9C9.82843 13.5 10.5 12.8284 10.5 12C10.5 11.1716 9.82843 10.5 9 10.5H7.76471L7.64681 12.5043C7.56437 13.9057 6.40384 15 5 15Z" fill="white" fill-opacity="0.2" style="mix-blend-mode:plus-lighter"/>
</svg>
