<svg width="16" height="16" viewBox="0 0 16 16" fill="none" xmlns="http://www.w3.org/2000/svg">
<path opacity="0.8" fill-rule="evenodd" clip-rule="evenodd" d="M1 9V4.2C1 3.0799 1 2.51984 1.21799 2.09202C1.40973 1.71569 1.71569 1.40973 2.09202 1.21799C2.51984 1 3.0799 1 4.2 1H4.34315C4.95462 1 5.26036 1 5.54808 1.06908C5.80317 1.13032 6.04703 1.23133 6.27071 1.3684C6.523 1.523 6.73919 1.73919 7.17157 2.17157L7.76569 2.76569L7.76569 2.76569L7.76569 2.76569C7.85216 2.85216 7.8954 2.8954 7.94586 2.92632C7.99059 2.95373 8.03937 2.97394 8.09038 2.98618C8.14793 3 8.20908 3 8.33137 3H10C11.4001 3 12.1002 3 12.635 3.27248C13.1054 3.51217 13.4878 3.89462 13.7275 4.36502C13.9677 4.83642 13.9962 5.43624 13.9995 6.53075C12.9001 5.28542 11.2918 4.5 9.5 4.5C6.18629 4.5 3.5 7.18629 3.5 10.5C3.5 11.3904 3.69393 12.2354 4.04186 12.9952C3.24757 12.9816 2.76099 12.9293 2.36502 12.7275C1.89462 12.4878 1.51217 12.1054 1.27248 11.635C1 11.1002 1 10.4001 1 9Z" fill="#5BAFD4"/>
<path fill-rule="evenodd" clip-rule="evenodd" d="M8.63733 10H10.3627C10.3208 9.15882 10.1757 8.4249 9.97545 7.89103C9.86244 7.58966 9.74249 7.38056 9.63664 7.25282C9.59132 7.25095 9.54577 7.25 9.5 7.25C9.45423 7.25 9.40868 7.25095 9.36336 7.25282C9.25751 7.38056 9.13756 7.58966 9.02455 7.89103C8.82434 8.4249 8.67916 9.15882 8.63733 10ZM10.3627 11C10.3208 11.8412 10.1757 12.5751 9.97545 13.109C9.86244 13.4103 9.74249 13.6194 9.63664 13.7472C9.59132 13.7491 9.54577 13.75 9.5 13.75C9.45423 13.75 9.40868 13.7491 9.36336 13.7472C9.25751 13.6194 9.13756 13.4103 9.02455 13.109C8.82434 12.5751 8.67916 11.8412 8.63733 11H10.3627ZM11.614 11H12.7118C12.5668 11.9392 12.0196 12.7456 11.2518 13.2379C11.4506 12.5987 11.5775 11.8285 11.614 11ZM12.7118 10H11.614C11.5775 9.17146 11.4506 8.40126 11.2518 7.76207C12.0196 8.25436 12.5668 9.06081 12.7118 10ZM7.38597 10H6.28822C6.43325 9.06081 6.98037 8.25436 7.7482 7.76207C7.54935 8.40126 7.42253 9.17146 7.38597 10ZM7.38597 11H6.28822C6.43325 11.9392 6.98037 12.7456 7.7482 13.2379C7.54935 12.5987 7.42253 11.8285 7.38597 11ZM5 10.5C5 12.7753 6.68869 14.6562 8.88114 14.9578C9.06086 15.0596 9.26761 15.125 9.5 15.125C9.73239 15.125 9.93914 15.0596 10.1189 14.9578C12.3113 14.6562 14 12.7753 14 10.5C14 8.22467 12.3113 6.34377 10.1189 6.04221C9.93914 5.94045 9.73239 5.875 9.5 5.875C9.26761 5.875 9.06086 5.94045 8.88114 6.04221C6.68869 6.34376 5 8.22467 5 10.5Z" fill="#5BAFD4"/>
<path fill-rule="evenodd" clip-rule="evenodd" d="M8.63733 10H10.3627C10.3208 9.15882 10.1757 8.4249 9.97545 7.89103C9.86244 7.58966 9.74249 7.38056 9.63664 7.25282C9.59132 7.25095 9.54577 7.25 9.5 7.25C9.45423 7.25 9.40868 7.25095 9.36336 7.25282C9.25751 7.38056 9.13756 7.58966 9.02455 7.89103C8.82434 8.4249 8.67916 9.15882 8.63733 10ZM10.3627 11C10.3208 11.8412 10.1757 12.5751 9.97545 13.109C9.86244 13.4103 9.74249 13.6194 9.63664 13.7472C9.59132 13.7491 9.54577 13.75 9.5 13.75C9.45423 13.75 9.40868 13.7491 9.36336 13.7472C9.25751 13.6194 9.13756 13.4103 9.02455 13.109C8.82434 12.5751 8.67916 11.8412 8.63733 11H10.3627ZM11.614 11H12.7118C12.5668 11.9392 12.0196 12.7456 11.2518 13.2379C11.4506 12.5987 11.5775 11.8285 11.614 11ZM12.7118 10H11.614C11.5775 9.17146 11.4506 8.40126 11.2518 7.76207C12.0196 8.25436 12.5668 9.06081 12.7118 10ZM7.38597 10H6.28822C6.43325 9.06081 6.98037 8.25436 7.7482 7.76207C7.54935 8.40126 7.42253 9.17146 7.38597 10ZM7.38597 11H6.28822C6.43325 11.9392 6.98037 12.7456 7.7482 13.2379C7.54935 12.5987 7.42253 11.8285 7.38597 11ZM5 10.5C5 12.7753 6.68869 14.6562 8.88114 14.9578C9.06086 15.0596 9.26761 15.125 9.5 15.125C9.73239 15.125 9.93914 15.0596 10.1189 14.9578C12.3113 14.6562 14 12.7753 14 10.5C14 8.22467 12.3113 6.34377 10.1189 6.04221C9.93914 5.94045 9.73239 5.875 9.5 5.875C9.26761 5.875 9.06086 5.94045 8.88114 6.04221C6.68869 6.34376 5 8.22467 5 10.5Z" fill="white" fill-opacity="0.2" style="mix-blend-mode:plus-lighter"/>
</svg>
