<svg width="16" height="16" viewBox="0 0 16 16" fill="none" xmlns="http://www.w3.org/2000/svg">
<path opacity="0.8" fill-rule="evenodd" clip-rule="evenodd" d="M1 9V4.2C1 3.0799 1 2.51984 1.21799 2.09202C1.40973 1.71569 1.71569 1.40973 2.09202 1.21799C2.51984 1 3.0799 1 4.2 1H4.34315C4.95462 1 5.26036 1 5.54808 1.06908C5.80317 1.13032 6.04703 1.23133 6.27071 1.3684C6.523 1.523 6.73919 1.73919 7.17157 2.17157L7.76569 2.76569L7.76569 2.76569L7.76569 2.76569C7.85216 2.85216 7.8954 2.8954 7.94586 2.92632C7.99059 2.95373 8.03937 2.97394 8.09038 2.98618C8.14793 3 8.20908 3 8.33137 3H10C11.4001 3 12.1002 3 12.635 3.27248C13.1054 3.51217 13.4878 3.89462 13.7275 4.36502C13.9677 4.83642 13.9962 5.43624 13.9995 6.53075C12.9001 5.28542 11.2918 4.5 9.5 4.5C6.18629 4.5 3.5 7.18629 3.5 10.5C3.5 11.3904 3.69393 12.2354 4.04186 12.9952C3.24757 12.9816 2.76099 12.9293 2.36502 12.7275C1.89462 12.4878 1.51217 12.1054 1.27248 11.635C1 11.1002 1 10.4001 1 9Z" fill="#5BAFD4"/>
<path fill-rule="evenodd" clip-rule="evenodd" d="M7.75699 12.9245C7.78866 13.0512 7.82572 13.1819 7.86969 13.3121C7.03834 12.8291 6.44078 11.988 6.28822 11H7.50938C7.5364 11.714 7.62126 12.3816 7.75699 12.9245ZM8.76037 11C8.77711 11.3991 8.81355 11.7715 8.86556 12.1006C8.8834 12.2136 8.90307 12.3214 8.92441 12.4234C9.06199 13.0815 9.26878 13.5 9.5 13.5C9.73122 13.5 9.93801 13.0815 10.0756 12.4234C10.0969 12.3214 10.1166 12.2136 10.1344 12.1006C10.1864 11.7715 10.2229 11.3991 10.2396 11H8.76037ZM10.2396 10H8.76037C8.77711 9.60088 8.81355 9.22848 8.86556 8.89936C8.8834 8.78644 8.90307 8.67862 8.92441 8.57655C9.06199 7.91854 9.26878 7.5 9.5 7.5C9.73122 7.5 9.93801 7.91854 10.0756 8.57655C10.0969 8.67862 10.1166 8.78644 10.1344 8.89936C10.1864 9.22848 10.2229 9.60088 10.2396 10ZM11.4906 11C11.4636 11.714 11.3787 12.3816 11.243 12.9245C11.2113 13.0512 11.1743 13.1819 11.1303 13.3121C11.9617 12.8291 12.5592 11.988 12.7118 11H11.4906ZM12.7118 10H11.4906C11.4636 9.28595 11.3787 8.61844 11.243 8.07551C11.2113 7.94884 11.1743 7.81808 11.1303 7.68787C11.9617 8.17088 12.5592 9.01199 12.7118 10ZM7.50938 10H6.28822C6.44078 9.01199 7.03834 8.17088 7.86969 7.68787C7.82572 7.81808 7.78866 7.94884 7.75699 8.07551C7.62126 8.61844 7.5364 9.28595 7.50938 10ZM9.5 15C11.9853 15 14 12.9853 14 10.5C14 8.01472 11.9853 6 9.5 6C7.01472 6 5 8.01472 5 10.5C5 12.9853 7.01472 15 9.5 15Z" fill="#5BAFD4"/>
<path fill-rule="evenodd" clip-rule="evenodd" d="M7.75699 12.9245C7.78866 13.0512 7.82572 13.1819 7.86969 13.3121C7.03834 12.8291 6.44078 11.988 6.28822 11H7.50938C7.5364 11.714 7.62126 12.3816 7.75699 12.9245ZM8.76037 11C8.77711 11.3991 8.81355 11.7715 8.86556 12.1006C8.8834 12.2136 8.90307 12.3214 8.92441 12.4234C9.06199 13.0815 9.26878 13.5 9.5 13.5C9.73122 13.5 9.93801 13.0815 10.0756 12.4234C10.0969 12.3214 10.1166 12.2136 10.1344 12.1006C10.1864 11.7715 10.2229 11.3991 10.2396 11H8.76037ZM10.2396 10H8.76037C8.77711 9.60088 8.81355 9.22848 8.86556 8.89936C8.8834 8.78644 8.90307 8.67862 8.92441 8.57655C9.06199 7.91854 9.26878 7.5 9.5 7.5C9.73122 7.5 9.93801 7.91854 10.0756 8.57655C10.0969 8.67862 10.1166 8.78644 10.1344 8.89936C10.1864 9.22848 10.2229 9.60088 10.2396 10ZM11.4906 11C11.4636 11.714 11.3787 12.3816 11.243 12.9245C11.2113 13.0512 11.1743 13.1819 11.1303 13.3121C11.9617 12.8291 12.5592 11.988 12.7118 11H11.4906ZM12.7118 10H11.4906C11.4636 9.28595 11.3787 8.61844 11.243 8.07551C11.2113 7.94884 11.1743 7.81808 11.1303 7.68787C11.9617 8.17088 12.5592 9.01199 12.7118 10ZM7.50938 10H6.28822C6.44078 9.01199 7.03834 8.17088 7.86969 7.68787C7.82572 7.81808 7.78866 7.94884 7.75699 8.07551C7.62126 8.61844 7.5364 9.28595 7.50938 10ZM9.5 15C11.9853 15 14 12.9853 14 10.5C14 8.01472 11.9853 6 9.5 6C7.01472 6 5 8.01472 5 10.5C5 12.9853 7.01472 15 9.5 15Z" fill="white" fill-opacity="0.2" style="mix-blend-mode:plus-lighter"/>
</svg>
