<svg width="16" height="16" viewBox="0 0 16 16" fill="none" xmlns="http://www.w3.org/2000/svg">
<path opacity="0.9" d="M4.34277 1C4.95414 1 5.26018 1.0003 5.54785 1.06934C5.80285 1.13055 6.0469 1.23117 6.27051 1.36816C6.5228 1.52277 6.7395 1.7395 7.17188 2.17188L7.76562 2.76562L7.86914 2.86719C7.89702 2.89262 7.92109 2.91132 7.94629 2.92676C7.99089 2.95401 8.04 2.97413 8.09082 2.98633C8.14819 3.00002 8.20928 3 8.33105 3H10C11.4 3 12.1 3.00007 12.6348 3.27246C13.1052 3.51214 13.4879 3.89483 13.7275 4.36523C13.7496 4.40853 13.7665 4.45426 13.7852 4.5H10.7217C9.58462 4.5 9.016 4.50019 8.55664 4.65234C7.65656 4.95052 6.95052 5.65656 6.65234 6.55664C6.50019 7.016 6.5 7.58462 6.5 8.72168V9.09863C6.5 9.61281 6.36685 10.1169 6.11523 10.5625L5.88477 10.9375C5.63315 11.3831 5.5 11.8872 5.5 12.4014V13H5C3.60002 13 2.89999 12.9999 2.36523 12.7275C1.89483 12.4879 1.51214 12.1052 1.27246 11.6348C1.00007 11.1 1 10.4 1 9V4.2002C1 3.08009 0.999786 2.51962 1.21777 2.0918C1.40951 1.71554 1.71554 1.40951 2.0918 1.21777C2.51962 0.999786 3.08009 1 4.2002 1H4.34277Z" fill="#FFAB5D"/>
<path d="M11.6 14H9C8.53501 14 8.30252 14 8.11177 13.9489C7.59413 13.8102 7.18981 13.4059 7.05111 12.8882C7 12.6975 7 12.465 7 12H13V11H8V8.4C8 7.55992 8 7.13988 8.16349 6.81901C8.3073 6.53677 8.53677 6.3073 8.81901 6.16349C9.13988 6 9.55992 6 10.4 6H13C13.465 6 13.6975 6 13.8882 6.05111C14.4059 6.18981 14.8102 6.59413 14.9489 7.11177C15 7.30252 15 7.53501 15 8H14V11.6C14 12.4401 14 12.8601 13.8365 13.181C13.6927 13.4632 13.4632 13.6927 13.181 13.8365C12.8601 14 12.4401 14 11.6 14Z" fill="#FFAB5D"/>
<path d="M11.6 14H9C8.53501 14 8.30252 14 8.11177 13.9489C7.59413 13.8102 7.18981 13.4059 7.05111 12.8882C7 12.6975 7 12.465 7 12H13V11H8V8.4C8 7.55992 8 7.13988 8.16349 6.81901C8.3073 6.53677 8.53677 6.3073 8.81901 6.16349C9.13988 6 9.55992 6 10.4 6H13C13.465 6 13.6975 6 13.8882 6.05111C14.4059 6.18981 14.8102 6.59413 14.9489 7.11177C15 7.30252 15 7.53501 15 8H14V11.6C14 12.4401 14 12.8601 13.8365 13.181C13.6927 13.4632 13.4632 13.6927 13.181 13.8365C12.8601 14 12.4401 14 11.6 14Z" fill="white" fill-opacity="0.35"/>
</svg>
