<svg width="16" height="16" viewBox="0 0 16 16" fill="none" xmlns="http://www.w3.org/2000/svg">
<path opacity="0.8" fill-rule="evenodd" clip-rule="evenodd" d="M1 9V4.2C1 3.0799 1 2.51984 1.21799 2.09202C1.40973 1.71569 1.71569 1.40973 2.09202 1.21799C2.51984 1 3.0799 1 4.2 1H4.34315C4.95462 1 5.26036 1 5.54808 1.06908C5.80317 1.13032 6.04703 1.23133 6.27071 1.3684C6.523 1.523 6.73919 1.73919 7.17157 2.17157L7.76569 2.76569L7.76569 2.76569L7.76569 2.76569C7.85216 2.85216 7.8954 2.8954 7.94586 2.92632C7.99059 2.95373 8.03937 2.97394 8.09038 2.98618C8.14793 3 8.20908 3 8.33137 3H10C11.4001 3 12.1002 3 12.635 3.27248C13.1054 3.51217 13.4878 3.89462 13.7275 4.36502C13.9442 4.79021 13.9886 5.31987 13.9977 6.22277C13.2651 5.44809 12.3098 4.88629 11.2343 4.63939C10.7308 4.5238 10.2033 4.67542 9.83803 5.04069C9.47276 5.40596 9.32114 5.93349 9.43672 6.43697C9.47793 6.61652 9.50003 6.80475 9.50003 7C9.50003 8.38072 8.38075 9.5 7.00003 9.5C6.80477 9.5 6.61653 9.4779 6.43698 9.43668C5.9335 9.3211 5.40597 9.47271 5.04069 9.83799C4.67542 10.2033 4.5238 10.7308 4.63938 11.2343C4.78584 11.8723 5.04311 12.468 5.38991 13H5C3.59987 13 2.8998 13 2.36502 12.7275C1.89462 12.4878 1.51217 12.1054 1.27248 11.635C1 11.1002 1 10.4001 1 9Z" fill="#A67CF8"/>
<path fill-rule="evenodd" clip-rule="evenodd" d="M7.00003 11C9.20917 11 11 9.20914 11 7C11 6.69102 10.965 6.39022 10.8987 6.10136C12.6751 6.50917 14 8.09986 14 10C14 12.2091 12.2091 14 10 14C8.09985 14 6.50915 12.6751 6.10135 10.8987C6.39022 10.965 6.69104 11 7.00003 11Z" fill="#A67CF8"/>
<path fill-rule="evenodd" clip-rule="evenodd" d="M7.00003 11C9.20917 11 11 9.20914 11 7C11 6.69102 10.965 6.39022 10.8987 6.10136C12.6751 6.50917 14 8.09986 14 10C14 12.2091 12.2091 14 10 14C8.09985 14 6.50915 12.6751 6.10135 10.8987C6.39022 10.965 6.69104 11 7.00003 11Z" fill="white" fill-opacity="0.2" style="mix-blend-mode:plus-lighter"/>
</svg>
