<svg width="16" height="16" viewBox="0 0 16 16" fill="none" xmlns="http://www.w3.org/2000/svg">
<path opacity="0.8" fill-rule="evenodd" clip-rule="evenodd" d="M1 4.2V9C1 10.4001 1 11.1002 1.27248 11.635C1.51217 12.1054 1.89462 12.4878 2.36502 12.7275C2.83337 12.9661 3.42848 12.9958 4.50956 12.9995C4.5 12.8424 4.5 12.6489 4.5 12.4V10.3C4.5 8.61984 4.5 7.77976 4.82698 7.13803C5.1146 6.57354 5.57354 6.1146 6.13803 5.82698C6.17652 5.80737 6.21571 5.78894 6.25577 5.77161C6.70642 5.57663 6.93175 5.47915 6.98257 5.44966C7.04505 5.41341 7.04919 5.41399 7.05173 5.41223C7.05427 5.41048 7.05521 5.4064 7.11126 5.36087C7.15687 5.32382 7.34029 5.13511 7.70714 4.75769C8.16139 4.29034 8.79679 4 9.5 4C10.2032 4 10.8386 4.29034 11.2929 4.75769C11.6597 5.13511 11.8431 5.32382 11.8887 5.36087C11.9448 5.4064 11.9457 5.41048 11.9483 5.41223C11.9508 5.41399 11.955 5.41342 12.0174 5.44966C12.0683 5.47915 12.2936 5.57663 12.7442 5.77161C12.7843 5.78894 12.8235 5.80737 12.862 5.82698C13.3241 6.06243 13.7154 6.41269 14 6.84166C13.9996 5.54631 13.9895 4.87925 13.7275 4.36502C13.4878 3.89462 13.1054 3.51217 12.635 3.27248C12.1002 3 11.4001 3 10 3H8.33137C8.20908 3 8.14793 3 8.09038 2.98618C8.03937 2.97394 7.99059 2.95373 7.94586 2.92632C7.8954 2.8954 7.85216 2.85216 7.76569 2.76569L7.76569 2.76569L7.76569 2.76569L7.17157 2.17157C6.73919 1.73919 6.523 1.523 6.27071 1.3684C6.04703 1.23133 5.80317 1.13032 5.54808 1.06908C5.26036 1 4.95462 1 4.34315 1H4.2C3.0799 1 2.51984 1 2.09202 1.21799C1.71569 1.40973 1.40973 1.71569 1.21799 2.09202C1 2.51984 1 3.0799 1 4.2Z" fill="#8080A0"/>
<path fill-rule="evenodd" clip-rule="evenodd" d="M8.5 6.5C8.5 5.94772 8.94772 5.5 9.5 5.5C10.0523 5.5 10.5 5.94772 10.5 6.5V7H10.6C11.4401 7 11.8601 7 12.181 7.16349C12.4632 7.3073 12.6927 7.53677 12.8365 7.81901C13 8.13988 13 8.55992 13 9.4V9.5H13.5C14.0523 9.5 14.5 9.94772 14.5 10.5C14.5 11.0523 14.0523 11.5 13.5 11.5H13V11.6C13 12.4401 13 12.8601 12.8365 13.181C12.6927 13.4632 12.4632 13.6927 12.181 13.8365C11.8601 14 11.4401 14 10.6 14H10.5V13.5C10.5 12.9477 10.0523 12.5 9.5 12.5C8.94772 12.5 8.5 12.9477 8.5 13.5V14H8.4C7.55992 14 7.13988 14 6.81901 13.8365C6.53677 13.6927 6.3073 13.4632 6.16349 13.181C6 12.8601 6 12.4401 6 11.6V11.5H6.5C7.05228 11.5 7.5 11.0523 7.5 10.5C7.5 9.94772 7.05228 9.5 6.5 9.5H6V9.4C6 8.55992 6 8.13988 6.16349 7.81901C6.3073 7.53677 6.53677 7.3073 6.81901 7.16349C7.13988 7 7.55992 7 8.4 7H8.5V6.5Z" fill="#8080A0"/>
<path fill-rule="evenodd" clip-rule="evenodd" d="M8.5 6.5C8.5 5.94772 8.94772 5.5 9.5 5.5C10.0523 5.5 10.5 5.94772 10.5 6.5V7H10.6C11.4401 7 11.8601 7 12.181 7.16349C12.4632 7.3073 12.6927 7.53677 12.8365 7.81901C13 8.13988 13 8.55992 13 9.4V9.5H13.5C14.0523 9.5 14.5 9.94772 14.5 10.5C14.5 11.0523 14.0523 11.5 13.5 11.5H13V11.6C13 12.4401 13 12.8601 12.8365 13.181C12.6927 13.4632 12.4632 13.6927 12.181 13.8365C11.8601 14 11.4401 14 10.6 14H10.5V13.5C10.5 12.9477 10.0523 12.5 9.5 12.5C8.94772 12.5 8.5 12.9477 8.5 13.5V14H8.4C7.55992 14 7.13988 14 6.81901 13.8365C6.53677 13.6927 6.3073 13.4632 6.16349 13.181C6 12.8601 6 12.4401 6 11.6V11.5H6.5C7.05228 11.5 7.5 11.0523 7.5 10.5C7.5 9.94772 7.05228 9.5 6.5 9.5H6V9.4C6 8.55992 6 8.13988 6.16349 7.81901C6.3073 7.53677 6.53677 7.3073 6.81901 7.16349C7.13988 7 7.55992 7 8.4 7H8.5V6.5Z" fill="white" fill-opacity="0.2" style="mix-blend-mode:plus-lighter"/>
</svg>
