<svg width="16" height="16" viewBox="0 0 16 16" fill="none" xmlns="http://www.w3.org/2000/svg">
<path opacity="0.8" fill-rule="evenodd" clip-rule="evenodd" d="M1 9V4.2C1 3.0799 1 2.51984 1.21799 2.09202C1.40973 1.71569 1.71569 1.40973 2.09202 1.21799C2.51984 1 3.0799 1 4.2 1H4.34315C4.95462 1 5.26036 1 5.54808 1.06908C5.80317 1.13032 6.04703 1.23133 6.27071 1.3684C6.523 1.523 6.73919 1.73919 7.17157 2.17157L7.76569 2.76569L7.76569 2.76569L7.76569 2.76569C7.85216 2.85216 7.8954 2.8954 7.94586 2.92632C7.99059 2.95373 8.03937 2.97394 8.09038 2.98618C8.14793 3 8.20908 3 8.33137 3H10C11.4001 3 12.1002 3 12.635 3.27248C13.1054 3.51217 13.4878 3.89462 13.7275 4.36502C13.8902 4.68427 13.9557 5.06243 13.9822 5.61327C13.0003 4.91237 11.7983 4.5 10.5 4.5C7.18629 4.5 4.5 7.18629 4.5 10.5C4.5 11.3922 4.69474 12.2389 5.04404 13H5C3.59987 13 2.8998 13 2.36502 12.7275C1.89462 12.4878 1.51217 12.1054 1.27248 11.635C1 11.1002 1 10.4001 1 9Z" fill="#FFAB5D"/>
<circle cx="10.5" cy="10.5" r="1.5" fill="#FFAB5D"/>
<circle cx="10.5" cy="10.5" r="1.5" fill="white" fill-opacity="0.2" style="mix-blend-mode:plus-lighter"/>
<path d="M12.75 6.60289C12.0659 6.20793 11.2899 6 10.5 6C9.71009 6 8.93409 6.20793 8.25 6.60289L8.925 7.77202C9.40386 7.49555 9.94706 7.35 10.5 7.35C11.0529 7.35 11.5961 7.49555 12.075 7.77202L12.75 6.60289Z" fill="#FFAB5D"/>
<path d="M12.75 6.60289C12.0659 6.20793 11.2899 6 10.5 6C9.71009 6 8.93409 6.20793 8.25 6.60289L8.925 7.77202C9.40386 7.49555 9.94706 7.35 10.5 7.35C11.0529 7.35 11.5961 7.49555 12.075 7.77202L12.75 6.60289Z" fill="white" fill-opacity="0.2" style="mix-blend-mode:plus-lighter"/>
<path d="M6.60289 8.25C6.20793 8.93409 6 9.71008 6 10.5C6 11.2899 6.20793 12.0659 6.60289 12.75L7.77202 12.075C7.49555 11.5961 7.35 11.0529 7.35 10.5C7.35 9.94706 7.49555 9.40386 7.77202 8.925L6.60289 8.25Z" fill="#FFAB5D"/>
<path d="M6.60289 8.25C6.20793 8.93409 6 9.71008 6 10.5C6 11.2899 6.20793 12.0659 6.60289 12.75L7.77202 12.075C7.49555 11.5961 7.35 11.0529 7.35 10.5C7.35 9.94706 7.49555 9.40386 7.77202 8.925L6.60289 8.25Z" fill="white" fill-opacity="0.2" style="mix-blend-mode:plus-lighter"/>
<path d="M8.25 14.3971C8.93409 14.7921 9.71008 15 10.5 15C11.2899 15 12.0659 14.7921 12.75 14.3971L12.075 13.228C11.5961 13.5045 11.0529 13.65 10.5 13.65C9.94706 13.65 9.40386 13.5044 8.925 13.228L8.25 14.3971Z" fill="#FFAB5D"/>
<path d="M8.25 14.3971C8.93409 14.7921 9.71008 15 10.5 15C11.2899 15 12.0659 14.7921 12.75 14.3971L12.075 13.228C11.5961 13.5045 11.0529 13.65 10.5 13.65C9.94706 13.65 9.40386 13.5044 8.925 13.228L8.25 14.3971Z" fill="white" fill-opacity="0.2" style="mix-blend-mode:plus-lighter"/>
<path d="M14.3971 12.75C14.7921 12.0659 15 11.2899 15 10.5C15 9.71009 14.7921 8.93409 14.3971 8.25L13.228 8.925C13.5045 9.40386 13.65 9.94706 13.65 10.5C13.65 11.0529 13.5044 11.5961 13.228 12.075L14.3971 12.75Z" fill="#FFAB5D"/>
<path d="M14.3971 12.75C14.7921 12.0659 15 11.2899 15 10.5C15 9.71009 14.7921 8.93409 14.3971 8.25L13.228 8.925C13.5045 9.40386 13.65 9.94706 13.65 10.5C13.65 11.0529 13.5044 11.5961 13.228 12.075L14.3971 12.75Z" fill="white" fill-opacity="0.2" style="mix-blend-mode:plus-lighter"/>
</svg>
