<svg width="16" height="16" viewBox="0 0 16 16" fill="none" xmlns="http://www.w3.org/2000/svg">
<path opacity="0.9" fill-rule="evenodd" clip-rule="evenodd" d="M1 9V4.2C1 3.0799 1 2.51984 1.21799 2.09202C1.40973 1.71569 1.71569 1.40973 2.09202 1.21799C2.51984 1 3.0799 1 4.2 1H4.34315C4.95462 1 5.26036 1 5.54808 1.06908C5.80317 1.13032 6.04703 1.23133 6.27071 1.3684C6.523 1.523 6.73919 1.73919 7.17157 2.17157L7.76569 2.76569L7.76569 2.76569L7.76569 2.76569C7.85216 2.85216 7.8954 2.8954 7.94586 2.92632C7.99059 2.95373 8.03937 2.97394 8.09038 2.98618C8.14793 3 8.20908 3 8.33137 3H10C11.4001 3 12.1002 3 12.635 3.27248C13.1054 3.51217 13.4878 3.89462 13.7275 4.36502C13.8902 4.68427 13.9557 5.06243 13.9822 5.61327C13.0003 4.91237 11.7983 4.5 10.5 4.5C7.18629 4.5 4.5 7.18629 4.5 10.5C4.5 11.3922 4.69474 12.2389 5.04404 13H5C3.59987 13 2.8998 13 2.36502 12.7275C1.89462 12.4878 1.51217 12.1054 1.27248 11.635C1 11.1002 1 10.4001 1 9Z" fill="#FFAB5D"/>
<circle cx="10.5" cy="10.5" r="1.5" fill="#FFAB5D"/>
<circle cx="10.5" cy="10.5" r="1.5" fill="white" fill-opacity="0.35"/>
<path d="M12.4125 7.18745C12.5989 6.86461 12.4894 6.44646 12.1423 6.31041C11.6209 6.106 11.064 6 10.5 6C9.93599 6 9.37908 6.106 8.85765 6.31041C8.51057 6.44646 8.4011 6.86461 8.5875 7.18745C8.7739 7.5103 9.18603 7.61296 9.54113 7.49949C9.84984 7.40084 10.1732 7.35 10.5 7.35C10.8268 7.35 11.1502 7.40084 11.4589 7.49949C11.814 7.61296 12.2261 7.5103 12.4125 7.18745Z" fill="#FFAB5D"/>
<path d="M12.4125 7.18745C12.5989 6.86461 12.4894 6.44646 12.1423 6.31041C11.6209 6.106 11.064 6 10.5 6C9.93599 6 9.37908 6.106 8.85765 6.31041C8.51057 6.44646 8.4011 6.86461 8.5875 7.18745C8.7739 7.5103 9.18603 7.61296 9.54113 7.49949C9.84984 7.40084 10.1732 7.35 10.5 7.35C10.8268 7.35 11.1502 7.40084 11.4589 7.49949C11.814 7.61296 12.2261 7.5103 12.4125 7.18745Z" fill="white" fill-opacity="0.35"/>
<path d="M7.18745 8.5875C6.86461 8.4011 6.44646 8.51057 6.31041 8.85765C6.106 9.37908 6 9.93599 6 10.5C6 11.064 6.106 11.6209 6.31041 12.1423C6.44646 12.4894 6.86461 12.5989 7.18745 12.4125C7.5103 12.2261 7.61296 11.814 7.49949 11.4589C7.40084 11.1502 7.35 10.8268 7.35 10.5C7.35 10.1732 7.40084 9.84984 7.49949 9.54113C7.61296 9.18603 7.5103 8.7739 7.18745 8.5875Z" fill="#FFAB5D"/>
<path d="M7.18745 8.5875C6.86461 8.4011 6.44646 8.51057 6.31041 8.85765C6.106 9.37908 6 9.93599 6 10.5C6 11.064 6.106 11.6209 6.31041 12.1423C6.44646 12.4894 6.86461 12.5989 7.18745 12.4125C7.5103 12.2261 7.61296 11.814 7.49949 11.4589C7.40084 11.1502 7.35 10.8268 7.35 10.5C7.35 10.1732 7.40084 9.84984 7.49949 9.54113C7.61296 9.18603 7.5103 8.7739 7.18745 8.5875Z" fill="white" fill-opacity="0.35"/>
<path d="M8.5875 13.8125C8.4011 14.1354 8.51057 14.5535 8.85765 14.6896C9.37908 14.894 9.93599 15 10.5 15C11.064 15 11.6209 14.894 12.1423 14.6896C12.4894 14.5535 12.5989 14.1354 12.4125 13.8125C12.2261 13.4897 11.814 13.387 11.4589 13.5005C11.1502 13.5992 10.8268 13.65 10.5 13.65C10.1732 13.65 9.84984 13.5992 9.54113 13.5005C9.18603 13.387 8.7739 13.4897 8.5875 13.8125Z" fill="#FFAB5D"/>
<path d="M8.5875 13.8125C8.4011 14.1354 8.51057 14.5535 8.85765 14.6896C9.37908 14.894 9.93599 15 10.5 15C11.064 15 11.6209 14.894 12.1423 14.6896C12.4894 14.5535 12.5989 14.1354 12.4125 13.8125C12.2261 13.4897 11.814 13.387 11.4589 13.5005C11.1502 13.5992 10.8268 13.65 10.5 13.65C10.1732 13.65 9.84984 13.5992 9.54113 13.5005C9.18603 13.387 8.7739 13.4897 8.5875 13.8125Z" fill="white" fill-opacity="0.35"/>
<path d="M13.8125 12.4125C14.1354 12.5989 14.5535 12.4894 14.6896 12.1423C14.894 11.6209 15 11.064 15 10.5C15 9.93599 14.894 9.37908 14.6896 8.85765C14.5535 8.51057 14.1354 8.4011 13.8125 8.5875C13.4897 8.7739 13.387 9.18603 13.5005 9.54113C13.5992 9.84984 13.65 10.1732 13.65 10.5C13.65 10.8268 13.5992 11.1502 13.5005 11.4589C13.387 11.814 13.4897 12.2261 13.8125 12.4125Z" fill="#FFAB5D"/>
<path d="M13.8125 12.4125C14.1354 12.5989 14.5535 12.4894 14.6896 12.1423C14.894 11.6209 15 11.064 15 10.5C15 9.93599 14.894 9.37908 14.6896 8.85765C14.5535 8.51057 14.1354 8.4011 13.8125 8.5875C13.4897 8.7739 13.387 9.18603 13.5005 9.54113C13.5992 9.84984 13.65 10.1732 13.65 10.5C13.65 10.8268 13.5992 11.1502 13.5005 11.4589C13.387 11.814 13.4897 12.2261 13.8125 12.4125Z" fill="white" fill-opacity="0.35"/>
</svg>
