<svg width="16" height="16" viewBox="0 0 16 16" fill="none" xmlns="http://www.w3.org/2000/svg">
<path opacity="0.8" fill-rule="evenodd" clip-rule="evenodd" d="M1 9V4.2C1 3.0799 1 2.51984 1.21799 2.09202C1.40973 1.71569 1.71569 1.40973 2.09202 1.21799C2.51984 1 3.0799 1 4.2 1H4.34315C4.95462 1 5.26036 1 5.54808 1.06908C5.80317 1.13032 6.04703 1.23133 6.27071 1.3684C6.523 1.523 6.73919 1.73919 7.17157 2.17157L7.76569 2.76569L7.76569 2.76569L7.76569 2.76569C7.85216 2.85216 7.8954 2.8954 7.94586 2.92632C7.99059 2.95373 8.03937 2.97394 8.09038 2.98618C8.14793 3 8.20908 3 8.33137 3H10C11.4001 3 12.1002 3 12.635 3.27248C13.1054 3.51217 13.4878 3.89462 13.7275 4.36502C13.8951 4.69384 13.9596 5.08513 13.9844 5.66322C13.7168 5.46302 13.4552 5.31118 13.2394 5.20327C12.2812 4.72418 11.1324 4.5 10 4.5C8.86762 4.5 7.71884 4.72418 6.76065 5.20327C5.95199 5.6076 4.5 6.62872 4.5 8.5V12.5C4.5 12.6738 4.51253 12.8403 4.5359 12.9996C3.43812 12.9963 2.83716 12.9681 2.36502 12.7275C1.89462 12.4878 1.51217 12.1054 1.27248 11.635C1 11.1002 1 10.4001 1 9Z" fill="#7380F9"/>
<path fill-rule="evenodd" clip-rule="evenodd" d="M14 11.6268V12.5C14 13.497 13.2177 14.1305 12.5685 14.4551C11.8595 14.8096 10.95 15 10 15C9.04999 15 8.14048 14.8096 7.43147 14.4551C6.78227 14.1305 6 13.497 6 12.5V11.6268C6.19805 11.8109 6.41521 11.9743 6.64157 12.1158C7.548 12.6823 8.73799 13 10 13C11.262 13 12.452 12.6823 13.3584 12.1158C13.5848 11.9743 13.8019 11.8109 14 11.6268ZM14 9.5V8.5C14 7.50296 13.2177 6.86951 12.5685 6.54491C11.8595 6.19041 10.95 6 10 6C9.04999 6 8.14048 6.19041 7.43147 6.54491C6.78227 6.86951 6 7.50296 6 8.5V9.5C6 10.8807 7.79086 12 10 12C12.2091 12 14 10.8807 14 9.5ZM7 8.5C7 7.67157 8.34315 7 10 7C11.6569 7 13 7.67157 13 8.5C13 9.32843 11.6569 10 10 10C8.34315 10 7 9.32843 7 8.5Z" fill="#7380F9"/>
<path fill-rule="evenodd" clip-rule="evenodd" d="M14 11.6268V12.5C14 13.497 13.2177 14.1305 12.5685 14.4551C11.8595 14.8096 10.95 15 10 15C9.04999 15 8.14048 14.8096 7.43147 14.4551C6.78227 14.1305 6 13.497 6 12.5V11.6268C6.19805 11.8109 6.41521 11.9743 6.64157 12.1158C7.548 12.6823 8.73799 13 10 13C11.262 13 12.452 12.6823 13.3584 12.1158C13.5848 11.9743 13.8019 11.8109 14 11.6268ZM14 9.5V8.5C14 7.50296 13.2177 6.86951 12.5685 6.54491C11.8595 6.19041 10.95 6 10 6C9.04999 6 8.14048 6.19041 7.43147 6.54491C6.78227 6.86951 6 7.50296 6 8.5V9.5C6 10.8807 7.79086 12 10 12C12.2091 12 14 10.8807 14 9.5ZM7 8.5C7 7.67157 8.34315 7 10 7C11.6569 7 13 7.67157 13 8.5C13 9.32843 11.6569 10 10 10C8.34315 10 7 9.32843 7 8.5Z" fill="white" fill-opacity="0.2" style="mix-blend-mode:plus-lighter"/>
</svg>
