<svg width="16" height="16" viewBox="0 0 16 16" fill="none" xmlns="http://www.w3.org/2000/svg">
<path opacity="0.8" fill-rule="evenodd" clip-rule="evenodd" d="M1 9V4.2C1 3.0799 1 2.51984 1.21799 2.09202C1.40973 1.71569 1.71569 1.40973 2.09202 1.21799C2.51984 1 3.0799 1 4.2 1H4.34315C4.95462 1 5.26036 1 5.54808 1.06908C5.80317 1.13032 6.04703 1.23133 6.27071 1.3684C6.523 1.523 6.73919 1.73919 7.17157 2.17157L7.76569 2.76569L7.76569 2.76569L7.76569 2.76569C7.85216 2.85216 7.8954 2.8954 7.94586 2.92632C7.99059 2.95373 8.03937 2.97394 8.09038 2.98618C8.14793 3 8.20908 3 8.33137 3H10C11.4001 3 12.1002 3 12.635 3.27248C13.1054 3.51217 13.4878 3.89462 13.7275 4.36502C13.8622 4.62928 13.9303 4.9339 13.9647 5.34341L13.7678 5.14645C12.7695 4.14822 11.2927 4.24526 10.353 4.9278C9.9479 5.22206 9.46635 5.50631 9.00284 5.71122C8.51219 5.92811 8.16769 6 8 6H7.83458C6.62636 6 5.59103 6.86406 5.3749 8.05279L4.66736 11.9443C4.59611 12.3362 4.65206 12.6951 4.79518 13C3.53028 12.9993 2.87307 12.9864 2.36502 12.7275C1.89462 12.4878 1.51217 12.1054 1.27248 11.635C1 11.1002 1 10.4001 1 9Z" fill="#5BAFD4"/>
<path d="M11.2345 6.14144C11.6814 5.81688 12.3166 5.81658 12.7071 6.20711L13.7929 7.29289C14.1834 7.68342 14.1831 8.31861 13.8586 8.76546C13.1588 9.7289 12.5 11.0578 12.5 12V12.1654C12.5 12.6487 12.1544 13.0628 11.6789 13.1493L7.78741 13.8568C7.54627 13.9007 7.3926 13.6074 7.56591 13.4341L9.5 11.5C10.064 11.5 10.5 11.064 10.5 10.5C10.5 9.93596 10.064 9.5 9.5 9.5C8.93596 9.5 8.5 9.93596 8.5 10.5L6.56591 12.4341C6.3926 12.6074 6.09932 12.4537 6.14317 12.2126L6.85071 8.32111C6.93716 7.84562 7.35129 7.5 7.83458 7.5H8C8.94224 7.5 10.2711 6.84123 11.2345 6.14144Z" fill="#5BAFD4"/>
<path d="M11.2345 6.14144C11.6814 5.81688 12.3166 5.81658 12.7071 6.20711L13.7929 7.29289C14.1834 7.68342 14.1831 8.31861 13.8586 8.76546C13.1588 9.7289 12.5 11.0578 12.5 12V12.1654C12.5 12.6487 12.1544 13.0628 11.6789 13.1493L7.78741 13.8568C7.54627 13.9007 7.3926 13.6074 7.56591 13.4341L9.5 11.5C10.064 11.5 10.5 11.064 10.5 10.5C10.5 9.93596 10.064 9.5 9.5 9.5C8.93596 9.5 8.5 9.93596 8.5 10.5L6.56591 12.4341C6.3926 12.6074 6.09932 12.4537 6.14317 12.2126L6.85071 8.32111C6.93716 7.84562 7.35129 7.5 7.83458 7.5H8C8.94224 7.5 10.2711 6.84123 11.2345 6.14144Z" fill="white" fill-opacity="0.2" style="mix-blend-mode:plus-lighter"/>
</svg>
