<svg width="16" height="16" viewBox="0 0 16 16" fill="none" xmlns="http://www.w3.org/2000/svg">
<path opacity="0.8" fill-rule="evenodd" clip-rule="evenodd" d="M1 4.2V9C1 10.4001 1 11.1002 1.27248 11.635C1.51217 12.1054 1.89462 12.4878 2.36502 12.7275C2.8998 13 3.59987 13 5 13H5.38947C4.82692 12.1372 4.5 11.1068 4.5 10C4.5 6.96243 6.96243 4.5 10 4.5C11.5748 4.5 12.995 5.16186 13.9977 6.22258C13.9885 5.31979 13.9441 4.79017 13.7275 4.36502C13.4878 3.89462 13.1054 3.51217 12.635 3.27248C12.1002 3 11.4001 3 10 3H8.33137C8.20908 3 8.14793 3 8.09038 2.98618C8.03937 2.97394 7.99059 2.95373 7.94586 2.92632C7.8954 2.8954 7.85216 2.85216 7.76569 2.76569L7.76569 2.76569L7.76569 2.76569L7.17157 2.17157C6.73919 1.73919 6.523 1.523 6.27071 1.3684C6.04703 1.23133 5.80317 1.13032 5.54808 1.06908C5.26036 1 4.95462 1 4.34315 1H4.2C3.0799 1 2.51984 1 2.09202 1.21799C1.71569 1.40973 1.40973 1.71569 1.21799 2.09202C1 2.51984 1 3.0799 1 4.2Z" fill="#8080A0"/>
<path d="M6.1161 9.03938C6.1356 8.96026 6.08684 9.15805 6.08719 9.15669C6.17221 8.81992 6.67657 8.67933 6.92354 8.92355C6.92454 8.92454 6.82937 8.82937 6.86744 8.86744L8 10C8.55228 10.5523 9.44772 10.5523 10 10C10.5523 9.44772 10.5523 8.55228 10 8L8.86744 6.86744C8.82937 6.82937 8.92454 6.92454 8.92355 6.92354C8.67933 6.67657 8.81992 6.17221 9.15669 6.08719C9.15805 6.08684 8.96026 6.1356 9.03938 6.1161C9.3471 6.04024 9.66885 6 10 6C12.2091 6 14 7.79086 14 10C14 10.0588 13.9987 10.1172 13.9962 10.1754C13.9701 10.7809 13.957 11.0837 13.957 11.1251C13.9557 11.8697 13.9811 11.9352 14.4854 12.483C14.5135 12.5135 14.5831 12.5831 14.7223 12.7223C14.7878 12.7878 14.8206 12.8206 14.8461 12.8505C15.1657 13.2246 15.1657 13.7754 14.8461 14.1495C14.8206 14.1794 14.7878 14.2122 14.7223 14.2777L14.2777 14.7223C14.2122 14.7878 14.1794 14.8206 14.1495 14.8461C13.7754 15.1657 13.2246 15.1657 12.8505 14.8461C12.8206 14.8206 12.7878 14.7878 12.7223 14.7223C12.5831 14.5831 12.5135 14.5135 12.483 14.4854C11.9352 13.9811 11.8697 13.9557 11.1251 13.957C11.0837 13.957 10.7809 13.9701 10.1754 13.9962C10.1172 13.9987 10.0588 14 10 14C7.79086 14 6 12.2091 6 10C6 9.66885 6.04024 9.3471 6.1161 9.03938Z" fill="#8080A0"/>
<path d="M6.1161 9.03938C6.1356 8.96026 6.08684 9.15805 6.08719 9.15669C6.17221 8.81992 6.67657 8.67933 6.92354 8.92355C6.92454 8.92454 6.82937 8.82937 6.86744 8.86744L8 10C8.55228 10.5523 9.44772 10.5523 10 10C10.5523 9.44772 10.5523 8.55228 10 8L8.86744 6.86744C8.82937 6.82937 8.92454 6.92454 8.92355 6.92354C8.67933 6.67657 8.81992 6.17221 9.15669 6.08719C9.15805 6.08684 8.96026 6.1356 9.03938 6.1161C9.3471 6.04024 9.66885 6 10 6C12.2091 6 14 7.79086 14 10C14 10.0588 13.9987 10.1172 13.9962 10.1754C13.9701 10.7809 13.957 11.0837 13.957 11.1251C13.9557 11.8697 13.9811 11.9352 14.4854 12.483C14.5135 12.5135 14.5831 12.5831 14.7223 12.7223C14.7878 12.7878 14.8206 12.8206 14.8461 12.8505C15.1657 13.2246 15.1657 13.7754 14.8461 14.1495C14.8206 14.1794 14.7878 14.2122 14.7223 14.2777L14.2777 14.7223C14.2122 14.7878 14.1794 14.8206 14.1495 14.8461C13.7754 15.1657 13.2246 15.1657 12.8505 14.8461C12.8206 14.8206 12.7878 14.7878 12.7223 14.7223C12.5831 14.5831 12.5135 14.5135 12.483 14.4854C11.9352 13.9811 11.8697 13.9557 11.1251 13.957C11.0837 13.957 10.7809 13.9701 10.1754 13.9962C10.1172 13.9987 10.0588 14 10 14C7.79086 14 6 12.2091 6 10C6 9.66885 6.04024 9.3471 6.1161 9.03938Z" fill="white" fill-opacity="0.2" style="mix-blend-mode:plus-lighter"/>
</svg>
