<svg width="16" height="16" viewBox="0 0 16 16" fill="none" xmlns="http://www.w3.org/2000/svg">
<path opacity="0.9" d="M4.34277 1C4.95414 1 5.26018 1.0003 5.54785 1.06934C5.80285 1.13055 6.0469 1.23117 6.27051 1.36816C6.5228 1.52277 6.7395 1.7395 7.17188 2.17188L7.76562 2.76562L7.86914 2.86719C7.89702 2.89262 7.92109 2.91132 7.94629 2.92676C7.99089 2.95401 8.04 2.97413 8.09082 2.98633C8.14819 3.00002 8.20928 3 8.33105 3H10C11.4 3 12.1 3.00007 12.6348 3.27246C13.1052 3.51214 13.4879 3.89483 13.7275 4.36523C13.9999 4.89999 14 5.60002 14 7V8.43945C13.9235 8.39553 13.8438 8.35114 13.7617 8.30664L13.2021 8.01172L11.0293 6.88281C10.6694 6.69584 10.3081 6.50694 9.99707 6.37988C9.72779 6.2699 9.33066 6.13317 8.86523 6.15137L8.66113 6.16895C8.06044 6.25111 7.51344 6.54886 7.11816 7.00098L6.95801 7.2041C6.63595 7.66009 6.55963 8.15523 6.5293 8.48633C6.49869 8.82077 6.5 9.22832 6.5 9.63379V12.1172C6.5 12.4228 6.50028 12.7254 6.51074 13H5C3.60002 13 2.89999 12.9999 2.36523 12.7275C1.89483 12.4879 1.51214 12.1052 1.27246 11.6348C1.00007 11.1 1 10.4 1 9V4.2002C1 3.08009 0.999786 2.51962 1.21777 2.0918C1.40951 1.71554 1.71554 1.40951 2.0918 1.21777C2.51962 0.999786 3.08009 1 4.2002 1H4.34277Z" fill="#A67CF8"/>
<path d="M8 9.63418V12.1172C8 13.0582 8 13.5288 8.19699 13.7942C8.3687 14.0256 8.63187 14.1716 8.91905 14.195C9.24851 14.2217 9.64781 13.9728 10.4464 13.475L12.619 12.1206C13.3991 11.6343 13.7891 11.3912 13.9109 11.088C14.017 10.8237 14.0054 10.5266 13.8789 10.2713C13.7338 9.97859 13.3259 9.76671 12.5102 9.34297L10.3376 8.21433C9.56532 7.81315 9.17919 7.61256 8.86456 7.65558C8.5899 7.69312 8.34315 7.843 8.18321 8.06943C8 8.3288 8 8.76393 8 9.63418Z" fill="#A67CF8"/>
<path d="M8 9.63418V12.1172C8 13.0582 8 13.5288 8.19699 13.7942C8.3687 14.0256 8.63187 14.1716 8.91905 14.195C9.24851 14.2217 9.64781 13.9728 10.4464 13.475L12.619 12.1206C13.3991 11.6343 13.7891 11.3912 13.9109 11.088C14.017 10.8237 14.0054 10.5266 13.8789 10.2713C13.7338 9.97859 13.3259 9.76671 12.5102 9.34297L10.3376 8.21433C9.56532 7.81315 9.17919 7.61256 8.86456 7.65558C8.5899 7.69312 8.34315 7.843 8.18321 8.06943C8 8.3288 8 8.76393 8 9.63418Z" fill="white" fill-opacity="0.35"/>
</svg>
