<svg width="16" height="16" viewBox="0 0 16 16" fill="none" xmlns="http://www.w3.org/2000/svg">
<g opacity="0.7">
<path d="M3 5C3 3.59987 3 2.8998 3.27248 2.36502C3.51217 1.89462 3.89462 1.51217 4.36502 1.27248C4.8998 1 5.59987 1 7 1H8.67452C9.1637 1 9.40829 1 9.63846 1.05526C9.84254 1.10425 10.0376 1.18506 10.2166 1.29472C10.4184 1.4184 10.5914 1.59135 10.9373 1.93726L13.0627 4.06274C13.4086 4.40865 13.5816 4.5816 13.7053 4.78343C13.8149 4.96237 13.8957 5.15746 13.9447 5.36154C14 5.59171 14 5.8363 14 6.32548V10C14 11.4001 14 12.1002 13.7275 12.635C13.4878 13.1054 13.1054 13.4878 12.635 13.7275C12.1002 14 11.4001 14 10 14H7C5.59987 14 4.8998 14 4.36502 13.7275C3.89462 13.4878 3.51217 13.1054 3.27248 12.635C3 12.1002 3 11.4001 3 10V5Z" fill="#9595AC"/>
</g>
</svg>
