<svg width="16" height="16" viewBox="0 0 16 16" fill="none" xmlns="http://www.w3.org/2000/svg">
<path opacity="0.7" d="M1 9V4.2C1 3.0799 1 2.51984 1.21799 2.09202C1.40973 1.71569 1.71569 1.40973 2.09202 1.21799C2.51984 1 3.0799 1 4.2 1H7L9 3H11C12.4001 3 13.1002 3 13.635 3.27248C14.1054 3.51217 14.4878 3.89462 14.7275 4.36502C15 4.8998 15 5.59987 15 7V9C15 10.4001 15 11.1002 14.7275 11.635C14.4878 12.1054 14.1054 12.4878 13.635 12.7275C13.1002 13 12.4001 13 11 13H5C3.59987 13 2.8998 13 2.36502 12.7275C1.89462 12.4878 1.51217 12.1054 1.27248 11.635C1 11.1002 1 10.4001 1 9Z" fill="#7E7E92"/>
</svg>
