<svg width="16" height="16" viewBox="0 0 16 16" fill="none" xmlns="http://www.w3.org/2000/svg">
<path opacity="0.7" d="M4.2002 1.75H6.68945L8.68945 3.75H11C11.7124 3.75 12.2018 3.75026 12.5811 3.78125C12.8593 3.80399 13.0407 3.84156 13.1748 3.88965L13.2949 3.94043C13.583 4.08727 13.8241 4.31082 13.9922 4.58496L14.0596 4.70508C14.133 4.8491 14.1885 5.04851 14.2188 5.41895C14.2497 5.7982 14.25 6.28756 14.25 7V9C14.25 9.71244 14.2497 10.2018 14.2188 10.5811C14.196 10.8593 14.1584 11.0407 14.1104 11.1748L14.0596 11.2949C13.9127 11.583 13.6892 11.8241 13.415 11.9922L13.2949 12.0596C13.1509 12.133 12.9515 12.1885 12.5811 12.2188C12.2018 12.2497 11.7124 12.25 11 12.25H5C4.28756 12.25 3.7982 12.2497 3.41895 12.2188C3.14073 12.196 2.95934 12.1584 2.8252 12.1104L2.70508 12.0596C2.41699 11.9127 2.17592 11.6892 2.00781 11.415L1.94043 11.2949C1.86705 11.1509 1.81152 10.9515 1.78125 10.5811C1.75026 10.2018 1.75 9.71244 1.75 9V4.2002C1.75 3.62777 1.75024 3.24314 1.77441 2.94727C1.79201 2.73202 1.8202 2.60099 1.85254 2.51074L1.88672 2.43262C1.99161 2.22681 2.15084 2.05465 2.34668 1.93457L2.43262 1.88672C2.52316 1.84059 2.66027 1.79788 2.94727 1.77441C3.24314 1.75024 3.62777 1.75 4.2002 1.75Z" stroke="#7E7E92" stroke-width="1.5"/>
</svg>
