<svg width="16" height="16" viewBox="0 0 16 16" fill="none" xmlns="http://www.w3.org/2000/svg">
<path opacity="0.7" d="M4.2002 2.75H6.68945L8.68945 4.75H11C11.7124 4.75 12.2018 4.75026 12.5811 4.78125C12.8593 4.80399 13.0407 4.84156 13.1748 4.88965L13.2949 4.94043C13.583 5.08727 13.8241 5.31082 13.9922 5.58496L14.0596 5.70508C14.133 5.8491 14.1885 6.04851 14.2188 6.41895C14.2497 6.7982 14.25 7.28756 14.25 8V10C14.25 10.7124 14.2497 11.2018 14.2188 11.5811C14.196 11.8593 14.1584 12.0407 14.1104 12.1748L14.0596 12.2949C13.9127 12.583 13.6892 12.8241 13.415 12.9922L13.2949 13.0596C13.1509 13.133 12.9515 13.1885 12.5811 13.2188C12.2018 13.2497 11.7124 13.25 11 13.25H5C4.28756 13.25 3.7982 13.2497 3.41895 13.2188C3.14073 13.196 2.95934 13.1584 2.8252 13.1104L2.70508 13.0596C2.41699 12.9127 2.17592 12.6892 2.00781 12.415L1.94043 12.2949C1.86705 12.1509 1.81152 11.9515 1.78125 11.5811C1.75026 11.2018 1.75 10.7124 1.75 10V5.2002C1.75 4.62777 1.75024 4.24314 1.77441 3.94727C1.79201 3.73202 1.8202 3.60099 1.85254 3.51074L1.88672 3.43262C1.99161 3.22681 2.15084 3.05465 2.34668 2.93457L2.43262 2.88672C2.52316 2.84059 2.66027 2.79788 2.94727 2.77441C3.24314 2.75024 3.62777 2.75 4.2002 2.75Z" stroke="#7E7E92" stroke-width="1.5"/>
</svg>
