<svg width="16" height="16" viewBox="0 0 16 16" fill="none" xmlns="http://www.w3.org/2000/svg">
<path d="M12 2C12.5523 2 13 2.44772 13 3V3.02051C13.3922 3.04446 13.6707 3.09677 13.9082 3.21777C14.2845 3.40951 14.5905 3.71554 14.7822 4.0918C15.0002 4.51962 15 5.08009 15 6.2002V9.7998C15 10.9199 15.0002 11.4804 14.7822 11.9082C14.5905 12.2845 14.2845 12.5905 13.9082 12.7822C13.6707 12.9032 13.3921 12.9546 13 12.9785V13C13 13.5523 12.5523 14 12 14C11.4823 14 11.0562 13.6067 11.0049 13.1025L11 13H9L8.99512 13.1025C8.94379 13.6067 8.51768 14 8 14C7.48232 14 7.05621 13.6067 7.00488 13.1025L7 13H5L4.99512 13.1025C4.94379 13.6067 4.51768 14 4 14C3.44772 14 3 13.5523 3 13V12.9785C2.60786 12.9546 2.32928 12.9032 2.0918 12.7822C1.71554 12.5905 1.40951 12.2845 1.21777 11.9082C0.999786 11.4804 1 10.9199 1 9.7998V6.2002C1 5.08009 0.999786 4.51962 1.21777 4.0918C1.40951 3.71554 1.71554 3.40951 2.0918 3.21777C2.32929 3.09677 2.60783 3.04446 3 3.02051V3C3 2.44772 3.44772 2 4 2C4.55228 2 5 2.44772 5 3H7C7 2.44772 7.44772 2 8 2C8.55228 2 9 2.44772 9 3H11C11 2.44772 11.4477 2 12 2ZM8 5.5C7.17157 5.5 6.5 6.17157 6.5 7C6.5 7.82843 7.17157 8.5 8 8.5C8.27614 8.5 8.5 8.72386 8.5 9C8.5 9.27614 8.27614 9.5 8 9.5H7.90234C7.809 9.49778 7.71886 9.46921 7.6416 9.41895L7.56934 9.3623L7.35352 9.14648L7.27539 9.08203C7.08131 8.95387 6.81735 8.97562 6.64648 9.14648C6.47562 9.31735 6.45387 9.58131 6.58203 9.77539L6.64648 9.85352L6.87891 10.0859L6.98438 10.1768C7.23859 10.3776 7.5525 10.4922 7.87891 10.5H8C8.82843 10.5 9.5 9.82843 9.5 9C9.5 8.17157 8.82843 7.5 8 7.5C7.72386 7.5 7.5 7.27614 7.5 7C7.5 6.72386 7.72386 6.5 8 6.5H8.09766C8.22186 6.50296 8.34068 6.55204 8.43066 6.6377L8.64648 6.85352L8.72461 6.91797C8.91869 7.04613 9.18265 7.02438 9.35352 6.85352C9.52438 6.68265 9.54613 6.41869 9.41797 6.22461L9.35352 6.14648L9.12109 5.91406C8.85106 5.65661 8.49409 5.50889 8.12109 5.5H8ZM13.1377 5.51953C12.95 5.46575 12.751 5.52614 12.625 5.66895L12.5762 5.73535L11.75 7.05664L10.9238 5.73535C10.8056 5.54623 10.5767 5.45809 10.3623 5.51953C10.1747 5.57335 10.038 5.73011 10.0068 5.91797L10 6V10C10 10.2761 10.2239 10.5 10.5 10.5C10.7761 10.5 11 10.2761 11 10V7.74219L11.3262 8.26465C11.4175 8.41084 11.5776 8.5 11.75 8.5C11.9224 8.5 12.0825 8.41084 12.1738 8.26465L12.5 7.74219V10C12.5 10.2761 12.7239 10.5 13 10.5C13.2761 10.5 13.5 10.2761 13.5 10V6C13.5 5.77695 13.3521 5.58102 13.1377 5.51953ZM4.25 5.5C3.61193 5.5 3.06777 5.94548 2.93262 6.55762L2.91113 6.68262L2.69141 8.4375L2.50391 9.9375C2.46968 10.2113 2.66374 10.4616 2.9375 10.4961C3.21135 10.5303 3.46161 10.3363 3.49609 10.0625L3.62891 9H4.87109L5.00391 10.0625L5.02637 10.1611C5.101 10.3813 5.32286 10.526 5.5625 10.4961C5.80209 10.4659 5.98112 10.2709 5.99902 10.0391L5.99609 9.9375L5.80859 8.4375L5.58887 6.68262C5.50445 6.00725 4.93063 5.5 4.25 5.5ZM4.25 6.5C4.4263 6.5 4.57481 6.6317 4.59668 6.80664L4.74609 8H3.75391L3.90332 6.80664L3.91699 6.74316C3.96242 6.60067 4.09562 6.5 4.25 6.5Z" fill="#BEBED1"/>
</svg>
