<svg width="16" height="16" viewBox="0 0 16 16" fill="none" xmlns="http://www.w3.org/2000/svg">
<path d="M13.0111 9.74223C13.1753 10.1645 12.7186 10.6136 12.2811 10.496C11.6289 10.3206 10.8615 10.1849 10.0182 10.1003C9.81904 10.0804 9.64841 9.94714 9.58513 9.75723L8.47422 6.42322C8.32232 5.96734 7.67751 5.96728 7.52553 6.42313L6.41392 9.75733C6.35062 9.94718 6.18002 10.0804 5.98089 10.1004C5.13779 10.1849 4.37045 10.3205 3.71837 10.4958C3.2808 10.6134 2.82395 10.1641 2.98822 9.74178L5.87601 2.31872C5.95076 2.12656 6.1358 2 6.34199 2H9.65797C9.86418 2 10.0492 2.12659 10.124 2.31876L13.0111 9.74223Z" fill="#BEBED1"/>
<path d="M10.4154 11.2549C10.5369 11.3708 10.6292 11.5185 10.6722 11.6904C10.8666 12.4684 10.5298 13.2817 9.84212 13.6943L9.47103 13.917C8.86862 14.2784 8.50033 14.9303 8.50033 15.6328V16L8.31087 15.9365C7.55186 15.6835 7.08249 14.9238 7.19564 14.1318C7.2759 13.5668 6.54988 13.2669 6.20736 13.7236L6.00033 14L5.80111 13.8008C5.30435 13.304 5.10435 12.5829 5.27474 11.9013L5.31087 11.7578C5.3586 11.5669 5.46122 11.4023 5.59701 11.2744C5.89583 11.6928 6.85823 12 8.00033 12C9.15959 11.9999 10.1326 11.683 10.4154 11.2549Z" fill="#AB7AFF"/>
</svg>
