<svg width="16" height="16" viewBox="0 0 16 16" fill="none" xmlns="http://www.w3.org/2000/svg">
<path d="M9.65814 2C9.86416 2 10.0491 2.12646 10.124 2.31836L12.7265 9.00977C11.7551 9.07536 10.8791 9.4876 10.2206 10.124C10.1537 10.1166 10.0864 10.1074 10.0185 10.1006C9.81937 10.0806 9.64913 9.9467 9.58587 9.75684L8.47454 6.42285C8.32246 5.96745 7.67846 5.96748 7.5263 6.42285L6.414 9.75684C6.3507 9.94668 6.18049 10.0806 5.98138 10.1006C5.13857 10.1852 4.37152 10.3207 3.71966 10.4961C3.28235 10.6138 2.82626 10.1653 2.99017 9.74316L5.87689 2.31836C5.95175 2.12645 6.13668 2 6.34271 2H9.65814Z" fill="#BEBED1"/>
<path d="M13.791 10.1084C14.2953 10.246 14.7462 10.5103 15.1074 10.8672C14.9927 11.1445 15.0034 11.47 15.165 11.75C15.3264 12.0295 15.6025 12.2005 15.8994 12.2402C15.9629 12.4831 16 12.7372 16 13C16 13.2625 15.9627 13.5162 15.8994 13.7588C15.6024 13.7985 15.3264 13.9705 15.165 14.25C15.0036 14.5297 14.9931 14.8547 15.1074 15.1318C14.7462 15.4889 14.2954 15.7529 13.791 15.8906C13.6082 15.6536 13.3225 15.5 13 15.5C12.6773 15.5 12.3909 15.6533 12.208 15.8906C11.7037 15.7528 11.2527 15.489 10.8916 15.1318C11.0061 14.8546 10.9965 14.5298 10.835 14.25C10.6734 13.9702 10.3969 13.7982 10.0996 13.7588C10.0363 13.5162 10 13.2624 10 13C10 12.7373 10.0362 12.4831 10.0996 12.2402C10.3969 12.2008 10.6734 12.0298 10.835 11.75C10.9967 11.4699 11.0064 11.1446 10.8916 10.8672C11.2527 10.5102 11.7039 10.2462 12.208 10.1084C12.3908 10.346 12.677 10.5 13 10.5C13.3228 10.5 13.6082 10.3458 13.791 10.1084ZM13 12C12.4477 12 12 12.4477 12 13C12 13.5523 12.4477 14 13 14C13.5523 14 14 13.5523 14 13C14 12.4477 13.5523 12 13 12Z" fill="#9595AC"/>
<path d="M5.59747 11.2734C5.89589 11.6921 6.85825 12 8.00079 12C8.41878 12 8.8121 11.9566 9.15801 11.8838C9.05524 12.2381 8.99981 12.6126 8.99981 13C8.99981 13.3967 9.05825 13.7798 9.16583 14.1416C8.74648 14.5172 8.50079 15.0582 8.50079 15.6328V16L8.31133 15.9365C7.55239 15.6835 7.08296 14.9238 7.1961 14.1318C7.27634 13.567 6.55039 13.2672 6.20782 13.7236L6.00079 14L5.80157 13.8008C5.30481 13.304 5.10481 12.5829 5.2752 11.9014L5.31133 11.7578C5.35912 11.5667 5.46149 11.4014 5.59747 11.2734Z" fill="#AB7AFF"/>
</svg>
