<svg width="16" height="16" viewBox="0 0 16 16" fill="none" xmlns="http://www.w3.org/2000/svg">
<path d="M13.0103 9.74272C13.1745 10.1649 12.718 10.6138 12.2806 10.4962C11.6285 10.3207 10.8612 10.1849 10.0181 10.1004C9.81892 10.0804 9.64829 9.94714 9.58501 9.75723L8.4741 6.42322C8.3222 5.96734 7.67739 5.96728 7.52541 6.42313L6.4138 9.75733C6.3505 9.94718 6.1799 10.0804 5.98078 10.1004C5.13785 10.1849 4.37072 10.3206 3.71877 10.4959C3.28128 10.6136 2.82458 10.1644 2.98879 9.74219L5.87591 2.31876C5.95065 2.12659 6.1357 2 6.3419 2H9.65782C9.86404 2 10.0491 2.12661 10.1238 2.31881L13.0103 9.74272Z" fill="#BEBED1"/>
<path d="M10.4154 11.2549C10.5369 11.3708 10.6292 11.5185 10.6722 11.6904C10.8666 12.4684 10.5298 13.2817 9.84213 13.6943L9.47103 13.917C8.86862 14.2784 8.50033 14.9303 8.50033 15.6328V16L8.31088 15.9365C7.55186 15.6835 7.08249 14.9238 7.19564 14.1318C7.2759 13.5668 6.54988 13.2669 6.20736 13.7236L6.00033 14L5.80111 13.8008C5.30435 13.304 5.10436 12.5829 5.27474 11.9013L5.31088 11.7578C5.3586 11.5669 5.46122 11.4023 5.59701 11.2744C5.89583 11.6928 6.85823 12 8.00033 12C9.15959 11.9999 10.1326 11.683 10.4154 11.2549Z" fill="#AB7AFF"/>
</svg>
