<svg width="16" height="16" viewBox="0 0 16 16" fill="none" xmlns="http://www.w3.org/2000/svg">
<path d="M10 2C11.4 2 12.1 2.00007 12.6348 2.27246C13.1052 2.51214 13.4879 2.89483 13.7275 3.36523C13.9999 3.89999 14 4.60002 14 6V10C14 11.4 13.9999 12.1 13.7275 12.6348C13.4879 13.1052 13.1052 13.4879 12.6348 13.7275C12.1 13.9999 11.4 14 10 14H6C4.60002 14 3.89999 13.9999 3.36523 13.7275C2.89483 13.4879 2.51214 13.1052 2.27246 12.6348C2.00007 12.1 2 11.4 2 10V6C2 4.60002 2.00007 3.89999 2.27246 3.36523C2.51214 2.89483 2.89483 2.51214 3.36523 2.27246C3.89999 2.00007 4.60002 2 6 2H10ZM11.5 4.8877C11.5 4.20514 10.8311 3.72263 10.1836 3.93848L6.18359 5.27246C5.77542 5.40865 5.50002 5.79039 5.5 6.2207V9.5C4.67157 9.5 4 10.1716 4 11C4 11.8284 4.67157 12.5 5.5 12.5C6.32843 12.5 7 11.8284 7 11V7.5L10 6.5V8.5C9.17157 8.5 8.5 9.17157 8.5 10C8.5 10.8284 9.17157 11.5 10 11.5C10.8284 11.5 11.5 10.8284 11.5 10V4.8877Z" fill="#FF5B78"/>
</svg>
