<svg width="16" height="16" viewBox="0 0 16 16" fill="none" xmlns="http://www.w3.org/2000/svg">
<path d="M10 2C11.4 2 12.1 2.00007 12.6348 2.27246C13.1052 2.51214 13.4879 2.89483 13.7275 3.36523C13.9999 3.89999 14 4.60002 14 6V10C14 11.4 13.9999 12.1 13.7275 12.6348C13.4879 13.1052 13.1052 13.4879 12.6348 13.7275C12.1 13.9999 11.4 14 10 14H6C4.60002 14 3.89999 13.9999 3.36523 13.7275C2.89483 13.4879 2.51214 13.1052 2.27246 12.6348C2.00007 12.1 2 11.4 2 10V6C2 4.60002 2.00007 3.89999 2.27246 3.36523C2.51214 2.89483 2.89483 2.51214 3.36523 2.27246C3.89999 2.00007 4.60002 2 6 2H10ZM7.5 9C7.34967 9 7.20057 8.99799 7.06152 9.0166L6.92676 9.04297C6.54922 9.14413 6.24348 9.41436 6.0957 9.76953L6.04297 9.92676C5.99613 10.1017 6 10.2998 6 10.5V11.5C6 11.7002 5.99613 11.8983 6.04297 12.0732L6.0957 12.2305C6.24348 12.5856 6.54922 12.8559 6.92676 12.957L7.06152 12.9834C7.20057 13.002 7.34967 13 7.5 13C7.70024 13 7.8983 13.0039 8.07324 12.957L8.23047 12.9043C8.58564 12.7565 8.85587 12.4508 8.95703 12.0732L8.9834 11.9385C9.00201 11.7994 9 11.6503 9 11.5V10.5C9 10.3497 9.00201 10.2006 8.9834 10.0615L8.95703 9.92676C8.85587 9.54922 8.58564 9.24348 8.23047 9.0957L8.07324 9.04297C7.8983 8.99613 7.70024 9 7.5 9ZM10.5 9C10.2239 9 10 9.22386 10 9.5C10 9.77614 10.2239 10 10.5 10C10.6208 10 10.695 10.0004 10.751 10.0029C10.7963 10.005 10.812 10.0082 10.8145 10.0088L10.875 10.0342C10.9315 10.0669 10.9739 10.1208 10.9912 10.1855L10.9971 10.249C10.9996 10.305 11 10.3792 11 10.5V12.5C11 12.7761 11.2239 13 11.5 13C11.7761 13 12 12.7761 12 12.5V10.5C12 10.3497 12.002 10.2006 11.9834 10.0615L11.957 9.92676C11.8559 9.54922 11.5856 9.24348 11.2305 9.0957L11.0732 9.04297C10.8983 8.99613 10.7002 9 10.5 9ZM7.75098 10.0029C7.79633 10.005 7.812 10.0082 7.81445 10.0088L7.875 10.0342C7.93152 10.0669 7.97386 10.1208 7.99121 10.1855L7.99707 10.249C7.99962 10.305 8 10.3792 8 10.5V11.5C8 11.6208 7.99962 11.695 7.99707 11.751L7.99121 11.8145C7.97386 11.8792 7.93152 11.9331 7.875 11.9658L7.81445 11.9912C7.812 11.9918 7.79633 11.995 7.75098 11.9971C7.69496 11.9996 7.62078 12 7.5 12C7.37922 12 7.30504 11.9996 7.24902 11.9971L7.18555 11.9912C7.12078 11.9739 7.06692 11.9315 7.03418 11.875L7.00879 11.8145C7.00823 11.812 7.00501 11.7963 7.00293 11.751C7.00038 11.695 7 11.6208 7 11.5V10.5C7 10.3792 7.00038 10.305 7.00293 10.249C7.00501 10.2037 7.00823 10.188 7.00879 10.1855L7.03418 10.125C7.06692 10.0685 7.12078 10.0261 7.18555 10.0088L7.24902 10.0029C7.30504 10.0004 7.37922 10 7.5 10C7.62078 10 7.69496 10.0004 7.75098 10.0029ZM6.5 4C6.22386 4 6 4.22386 6 4.5C6 4.77614 6.22386 5 6.5 5C6.62078 5 6.69496 5.00038 6.75098 5.00293C6.79633 5.00501 6.812 5.00823 6.81445 5.00879L6.875 5.03418C6.93152 5.06692 6.97386 5.12078 6.99121 5.18555L6.99707 5.24902C6.99962 5.30504 7 5.37922 7 5.5V7.5C7 7.77614 7.22386 8 7.5 8C7.77614 8 8 7.77614 8 7.5V5.5C8 5.34967 8.00201 5.20057 7.9834 5.06152L7.95703 4.92676C7.85587 4.54922 7.58564 4.24349 7.23047 4.0957L7.07324 4.04297C6.8983 3.99613 6.70024 4 6.5 4ZM10.5 4C10.3497 4 10.2006 3.99799 10.0615 4.0166L9.92676 4.04297C9.54922 4.14413 9.24348 4.41436 9.0957 4.76953L9.04297 4.92676C8.99613 5.1017 9 5.29976 9 5.5V6.5C9 6.70024 8.99613 6.8983 9.04297 7.07324L9.0957 7.23047C9.24348 7.58564 9.54922 7.85587 9.92676 7.95703L10.0615 7.9834C10.2006 8.00201 10.3497 8 10.5 8C10.7002 8 10.8983 8.00387 11.0732 7.95703L11.2305 7.9043C11.5856 7.75652 11.8559 7.45078 11.957 7.07324L11.9834 6.93848C12.002 6.79943 12 6.65033 12 6.5V5.5C12 5.34967 12.002 5.20057 11.9834 5.06152L11.957 4.92676C11.8559 4.54922 11.5856 4.24349 11.2305 4.0957L11.0732 4.04297C10.8983 3.99613 10.7002 4 10.5 4ZM10.751 5.00293C10.7963 5.00501 10.812 5.00823 10.8145 5.00879L10.875 5.03418C10.9315 5.06692 10.9739 5.12078 10.9912 5.18555L10.9971 5.24902C10.9996 5.30504 11 5.37922 11 5.5V6.5C11 6.62078 10.9996 6.69496 10.9971 6.75098L10.9912 6.81445C10.9739 6.87922 10.9315 6.93308 10.875 6.96582L10.8145 6.99121C10.812 6.99177 10.7963 6.99499 10.751 6.99707C10.695 6.99962 10.6208 7 10.5 7C10.3792 7 10.305 6.99962 10.249 6.99707L10.1855 6.99121C10.1208 6.97386 10.0669 6.93152 10.0342 6.875L10.0088 6.81445C10.0082 6.812 10.005 6.79633 10.0029 6.75098C10.0004 6.69496 10 6.62078 10 6.5V5.5C10 5.37922 10.0004 5.30504 10.0029 5.24902C10.005 5.20367 10.0082 5.188 10.0088 5.18555L10.0342 5.125C10.0669 5.06848 10.1208 5.02614 10.1855 5.00879L10.249 5.00293C10.305 5.00038 10.3792 5 10.5 5C10.6208 5 10.695 5.00038 10.751 5.00293Z" fill="#BEBED1"/>
</svg>
