<svg width="16" height="16" viewBox="0 0 16 16" fill="none" xmlns="http://www.w3.org/2000/svg">
<path d="M6.49902 1.29497C6.80918 1.11158 7.19082 1.11158 7.50098 1.29497C8.49935 1.88585 10.7216 3.21668 11.667 3.91509C13.0368 4.92705 13.9179 6.37826 13.9922 8.00005H12.8545C11.7182 8.00005 10.6791 8.64191 10.1709 9.65825L9.31641 11.3663C9.10813 11.7828 9 12.2423 9 12.7081V13.7588C8.36617 13.9146 7.69512 14 7 14C3.13401 14 0 11.4127 0 8.22173C0.000120397 6.51069 0.901031 4.97297 2.33301 3.91509C3.2784 3.21668 5.50065 1.88585 6.49902 1.29497Z" fill="#FFDDC8"/>
<circle cx="4.5" cy="8" r="1" fill="black"/>
<circle cx="9.5" cy="8" r="1" fill="black"/>
<path d="M8.5 9.9V10C8.5 10.8284 7.82843 11.5 7 11.5C6.17157 11.5 5.5 10.8284 5.5 10V9.9C5.5 9.67909 5.67909 9.5 5.9 9.5H8.1C8.32091 9.5 8.5 9.67909 8.5 9.9Z" fill="#762F35"/>
<path d="M13.25 9C14.2165 9 15 9.7835 15 10.75V11.5L15.1025 11.5049C15.6067 11.5562 16 11.9823 16 12.5V14.5C16 15.3284 15.3284 16 14.5 16H11.5C10.6716 16 10 15.3284 10 14.5V12.5C10 11.9823 10.3933 11.5562 10.8975 11.5049L11 11.5V10.75C11 9.7835 11.7835 9 12.75 9H13.25ZM13 12.75C12.5858 12.75 12.25 13.0858 12.25 13.5C12.25 13.9142 12.5858 14.25 13 14.25C13.4142 14.25 13.75 13.9142 13.75 13.5C13.75 13.0858 13.4142 12.75 13 12.75ZM12.75 10C12.3358 10 12 10.3358 12 10.75V11.5H14V10.75C14 10.3358 13.6642 10 13.25 10H12.75Z" fill="#9595AC"/>
</svg>
