<svg width="16" height="16" viewBox="0 0 16 16" fill="none" xmlns="http://www.w3.org/2000/svg">
<path d="M15 9.22222C15 12.4132 11.866 15 8 15C4.13401 15 1 12.4132 1 9.22222C1 7.51104 1.90125 5.9736 3.33333 4.91565C4.27872 4.21724 6.50021 2.88605 7.49859 2.29517C7.80892 2.11151 8.19108 2.11151 8.50141 2.29517C9.49979 2.88605 11.7213 4.21724 12.6667 4.91565C14.0987 5.9736 15 7.51104 15 9.22222Z" fill="#FFDDC8"/>
<circle cx="5.5" cy="9" r="1" fill="black"/>
<circle cx="10.5" cy="9" r="1" fill="black"/>
<path d="M9.5 10.9V11C9.5 11.8284 8.82843 12.5 8 12.5C7.17157 12.5 6.5 11.8284 6.5 11V10.9C6.5 10.6791 6.67909 10.5 6.9 10.5H9.1C9.32091 10.5 9.5 10.6791 9.5 10.9Z" fill="#762F35"/>
</svg>
