<svg width="16" height="16" viewBox="0 0 16 16" fill="none" xmlns="http://www.w3.org/2000/svg">
<path d="M8.01396 1.44404C8.35696 1.37022 8.71164 1.36981 9.05497 1.44209C9.44297 1.52378 9.8081 1.73381 10.5384 2.15401L12.9847 3.56123C13.7185 3.9835 14.0855 4.19495 14.3518 4.49092C14.5875 4.75283 14.7653 5.06179 14.8733 5.39717C14.9953 5.7762 14.9933 6.19993 14.9895 7.04658L14.9768 9.93135C14.9731 10.7655 14.9711 11.1828 14.8489 11.5563C14.7407 11.8868 14.5648 12.1913 14.3323 12.4499C14.0695 12.7422 13.7089 12.9524 12.9876 13.3718L10.4671 14.8376C9.73864 15.2611 9.37422 15.4729 8.98661 15.5563C8.64369 15.6302 8.28886 15.6305 7.9456 15.5583C7.55754 15.4766 7.1917 15.2667 6.46122 14.8464L4.01591 13.4392C3.28196 13.0168 2.91412 12.8055 2.64775 12.5095C2.41215 12.2476 2.2352 11.9385 2.12724 11.6032C2.00519 11.2242 2.00629 10.8006 2.01005 9.95381L2.02372 7.06904C2.02743 6.23461 2.02838 5.81665 2.15068 5.44307C2.25889 5.11258 2.43576 4.80813 2.66825 4.54951C2.93102 4.25737 3.2919 4.04785 4.01298 3.62861L6.53349 2.16279C7.26196 1.73926 7.6263 1.52748 8.01396 1.44404ZM10.5003 5.49971C10.2243 5.49971 10.0005 5.72375 10.0003 5.99971V7.99971H7.00029V5.99971C7.00007 5.7238 6.77623 5.49979 6.50029 5.49971C6.22428 5.49971 6.0005 5.72375 6.00029 5.99971V10.9997C6.00029 11.2759 6.22414 11.4997 6.50029 11.4997C6.77636 11.4996 7.00029 11.2758 7.00029 10.9997V8.99971H10.0003V10.9997C10.0003 11.2759 10.2241 11.4997 10.5003 11.4997C10.7764 11.4996 11.0003 11.2758 11.0003 10.9997V5.99971C11.0001 5.7238 10.7762 5.49979 10.5003 5.49971Z" fill="#AB7AFF"/>
</svg>
