<svg width="16" height="16" viewBox="0 0 16 16" fill="none" xmlns="http://www.w3.org/2000/svg">
<path d="M7.01395 1.44404C7.35696 1.37022 7.71163 1.36981 8.05497 1.44209C8.44296 1.52378 8.8081 1.73381 9.53836 2.15401L11.9847 3.56123C12.7185 3.9835 13.0855 4.19495 13.3518 4.49092C13.5875 4.75283 13.7653 5.06179 13.8733 5.39717C13.9953 5.7762 13.9933 6.19993 13.9895 7.04658L13.9768 9.93135C13.9731 10.7655 13.9711 11.1828 13.8489 11.5563C13.7407 11.8868 13.5647 12.1913 13.3323 12.4499C13.0695 12.7422 12.7089 12.9524 11.9876 13.3718L9.46707 14.8376C8.73863 15.2611 8.37422 15.4729 7.98661 15.5563C7.64368 15.6302 7.28885 15.6305 6.94559 15.5583C6.55753 15.4766 6.19169 15.2667 5.46122 14.8464L3.0159 13.4392C2.28195 13.0168 1.91412 12.8055 1.64774 12.5095C1.41214 12.2476 1.2352 11.9385 1.12723 11.6032C1.00518 11.2242 1.00628 10.8006 1.01004 9.95381L1.02372 7.06904C1.02742 6.23462 1.02837 5.81665 1.15067 5.44307C1.25889 5.11258 1.43575 4.80813 1.66825 4.54951C1.93102 4.25737 2.29189 4.04785 3.01297 3.62861L5.53348 2.16279C6.26196 1.73926 6.62629 1.52748 7.01395 1.44404ZM9.50028 5.49971C9.22427 5.49971 9.00049 5.72375 9.00028 5.99971V7.99971H6.00028V5.99971C6.00006 5.7238 5.77622 5.49979 5.50028 5.49971C5.22427 5.49971 5.00049 5.72375 5.00028 5.99971V10.9997C5.00028 11.2759 5.22414 11.4997 5.50028 11.4997C5.77635 11.4996 6.00028 11.2758 6.00028 10.9997V8.99971H9.00028V10.9997C9.00028 11.2759 9.22414 11.4997 9.50028 11.4997C9.77635 11.4996 10.0003 11.2758 10.0003 10.9997V5.99971C10.0001 5.7238 9.77622 5.49979 9.50028 5.49971Z" fill="#AB7AFF"/>
</svg>
