<svg width="16" height="16" viewBox="0 0 16 16" fill="none" xmlns="http://www.w3.org/2000/svg">
<path d="M7.01395 0.945769C7.35696 0.871949 7.71163 0.871531 8.05497 0.943816C8.44296 1.02551 8.8081 1.23553 9.53836 1.65573L11.9847 3.06296C12.7185 3.48522 13.0855 3.69667 13.3518 3.99264C13.5875 4.25456 13.7653 4.56351 13.8733 4.89889C13.9953 5.27792 13.9933 5.70165 13.9895 6.54831L13.9768 9.43307C13.9731 10.2673 13.9711 10.6846 13.8489 11.0581C13.7407 11.3885 13.5647 11.693 13.3323 11.9516C13.0695 12.2439 12.7089 12.4541 11.9876 12.8735L9.46707 14.3393C8.73863 14.7628 8.37422 14.9746 7.98661 15.0581C7.64368 15.1319 7.28885 15.1323 6.94559 15.06C6.55753 14.9783 6.19169 14.7684 5.46122 14.3481L3.0159 12.9409C2.28195 12.5186 1.91412 12.3072 1.64774 12.0112C1.41214 11.7493 1.2352 11.4402 1.12723 11.1049C1.00518 10.7259 1.00628 10.3023 1.01004 9.45553L1.02372 6.57077C1.02742 5.73634 1.02837 5.31837 1.15067 4.94479C1.25889 4.6143 1.43575 4.30986 1.66825 4.05124C1.93102 3.7591 2.29189 3.54957 3.01297 3.13034L5.53348 1.66452C6.26196 1.24099 6.62629 1.0292 7.01395 0.945769ZM7.66336 5.00143C6.19272 5.00145 5.00051 6.19393 5.00028 7.66452V8.33835C5.0003 9.80912 6.19259 11.0014 7.66336 11.0014H7.88211C8.75664 11.0014 9.55644 10.5073 9.94754 9.72507C10.0707 9.47815 9.97077 9.1776 9.72391 9.05417C9.47706 8.93077 9.17662 9.0311 9.05301 9.2778C8.8313 9.72123 8.37787 10.0014 7.88211 10.0014H7.66336C6.74488 10.0014 6.0003 9.25683 6.00028 8.33835V7.66452C6.00051 6.74621 6.74501 6.00145 7.66336 6.00143H7.88211C8.31585 6.00148 8.7172 6.21626 8.95926 6.56686L9.05301 6.72507L9.1077 6.811C9.25137 6.99358 9.50798 7.05666 9.72391 6.9487C9.93981 6.84058 10.0438 6.59705 9.98368 6.37253L9.94754 6.2778L9.86942 6.13425C9.45606 5.43573 8.70179 5.00149 7.88211 5.00143H7.66336Z" fill="#5D80FF"/>
</svg>
