<svg width="16" height="16" viewBox="0 0 16 16" fill="none" xmlns="http://www.w3.org/2000/svg">
<path d="M8.01395 1.44404C8.35695 1.37022 8.71163 1.36981 9.05496 1.44209C9.44296 1.52378 9.80809 1.73381 10.5384 2.15401L12.9847 3.56123C13.7185 3.9835 14.0855 4.19495 14.3518 4.49092C14.5875 4.75283 14.7653 5.06179 14.8733 5.39717C14.9953 5.7762 14.9933 6.19993 14.9895 7.04658L14.9768 9.93135C14.9731 10.7655 14.9711 11.1828 14.8489 11.5563C14.7407 11.8868 14.5647 12.1913 14.3323 12.4499C14.0695 12.7422 13.7089 12.9524 12.9876 13.3718L10.4671 14.8376C9.73863 15.2611 9.37421 15.4729 8.9866 15.5563C8.64368 15.6302 8.28885 15.6305 7.94559 15.5583C7.55753 15.4766 7.19169 15.2667 6.46121 14.8464L4.0159 13.4392C3.28195 13.0168 2.91411 12.8055 2.64774 12.5095C2.41214 12.2476 2.23519 11.9385 2.12723 11.6032C2.00518 11.2242 2.00628 10.8006 2.01004 9.95381L2.02371 7.06904C2.02742 6.23461 2.02837 5.81665 2.15067 5.44307C2.25889 5.11258 2.43575 4.80813 2.66824 4.54951C2.93102 4.25737 3.29189 4.04785 4.01297 3.62861L6.53348 2.16279C7.26195 1.73926 7.62629 1.52748 8.01395 1.44404ZM8.50028 5.99971C7.1197 5.99971 6.00049 7.11918 6.00028 8.49971C6.00028 9.88042 7.11956 10.9997 8.50028 10.9997H8.79324C9.37853 10.9997 9.93993 10.7671 10.3538 10.3532C10.5488 10.1579 10.549 9.84136 10.3538 9.64619C10.1586 9.45115 9.842 9.45124 9.64676 9.64619C9.42044 9.87252 9.11331 9.99965 8.79324 9.99971H8.50028C7.67185 9.99971 7.00028 9.32814 7.00028 8.49971C7.00049 7.67146 7.67198 6.99971 8.50028 6.99971H8.79324C9.07319 6.99976 9.34319 7.09732 9.55789 7.27315L9.64676 7.35322L9.72488 7.41768C9.91896 7.54584 10.1829 7.52409 10.3538 7.35322C10.5244 7.18235 10.5463 6.91829 10.4182 6.72432L10.3538 6.64619L10.1917 6.49971C9.79902 6.17805 9.30528 5.99976 8.79324 5.99971H8.50028Z" fill="#5D80FF"/>
</svg>
