<svg width="16" height="16" viewBox="0 0 16 16" fill="none" xmlns="http://www.w3.org/2000/svg">
<path d="M8.01382 0.945663C8.35683 0.871844 8.71151 0.871426 9.05484 0.94371C9.44284 1.0254 9.80797 1.23543 10.5382 1.65562L12.9845 3.06285C13.7184 3.48512 14.0853 3.69657 14.3517 3.99254C14.5874 4.25445 14.7652 4.56341 14.8732 4.89879C14.9952 5.27782 14.9932 5.70155 14.9894 6.5482L14.9767 9.43297C14.973 10.2672 14.971 10.6845 14.8488 11.058C14.7406 11.3884 14.5646 11.6929 14.3322 11.9515C14.0694 12.2438 13.7088 12.454 12.9875 12.8734L10.4669 14.3392C9.7385 14.7627 9.37409 14.9745 8.98648 15.058C8.64356 15.1318 8.28872 15.1321 7.94547 15.0599C7.55741 14.9782 7.19157 14.7683 6.46109 14.348L4.01578 12.9408C3.28182 12.5185 2.91399 12.3071 2.64761 12.0111C2.41201 11.7492 2.23507 11.4401 2.12711 11.1048C2.00506 10.7258 2.00615 10.3022 2.00992 9.45543L2.02359 6.57066C2.0273 5.73623 2.02825 5.31827 2.15054 4.94469C2.25876 4.6142 2.43563 4.30975 2.66812 4.05113C2.93089 3.75899 3.29177 3.54947 4.01285 3.13023L6.53336 1.66441C7.26183 1.24088 7.62617 1.0291 8.01382 0.945663ZM8.66324 5.00133C7.1926 5.00135 6.00038 6.19382 6.00015 7.66441V8.33824C6.00017 9.80901 7.19247 11.0013 8.66324 11.0013H8.88199C9.75652 11.0013 10.5563 10.5072 10.9474 9.72496C11.0706 9.47804 10.9706 9.17749 10.7238 9.05406C10.4769 8.93066 10.1765 9.031 10.0529 9.27769C9.83117 9.72112 9.37775 10.0013 8.88199 10.0013H8.66324C7.74475 10.0013 7.00017 9.25673 7.00015 8.33824V7.66441C7.00038 6.74611 7.74488 6.00135 8.66324 6.00133H8.88199C9.31573 6.00138 9.71707 6.21615 9.95914 6.56676L10.0529 6.72496L10.1076 6.8109C10.2512 6.99347 10.5079 7.05656 10.7238 6.94859C10.9397 6.84048 11.0437 6.59694 10.9836 6.37242L10.9474 6.27769L10.8693 6.13414C10.4559 5.43562 9.70167 5.00138 8.88199 5.00133H8.66324Z" fill="#5D80FF"/>
</svg>
