<svg width="16" height="16" viewBox="0 0 16 16" fill="none" xmlns="http://www.w3.org/2000/svg">
<path d="M4.14645 6.14645L1.35355 3.35355C1.03857 3.03857 0.5 3.26165 0.5 3.70711V6.5C0.5 6.77614 0.723858 7 1 7H3.79289C4.23835 7 4.46143 6.46143 4.14645 6.14645Z" fill="#5CBAFD"/>
<path d="M8 1C11.866 1 15 4.13401 15 8C15 11.866 11.866 15 8 15C5.20018 15 2.7851 13.356 1.66571 10.9808C1.44223 10.5067 1.81763 10 2.34182 10C2.66454 10 2.94956 10.2005 3.09576 10.4882C4.00384 12.2752 5.85821 13.5 8 13.5C11.0376 13.5 13.5 11.0376 13.5 8C13.5 4.96243 11.0376 2.5 8 2.5C5.52592 2.5 3.43429 4.13374 2.74322 6.38115C2.63471 6.73404 2.32372 7 1.95452 7C1.48891 7 1.12847 6.58553 1.25211 6.13663C2.06777 3.17524 4.77931 1 8 1Z" fill="#5CBAFD"/>
<path d="M7.75 5V8L9.75 10" stroke="#5CBAFD" stroke-width="1.5" stroke-linecap="round" stroke-linejoin="round"/>
</svg>
