<?xml version="1.0" encoding="UTF-8" standalone="no"?>
<svg
   viewBox="0 0 16 16"
   version="1.1"
   id="svg4"
   width="16"
   height="16"
   xmlns="http://www.w3.org/2000/svg"
   xmlns:svg="http://www.w3.org/2000/svg">
  <defs
     id="defs4" />
  <path
     id="polygon1"
     fill="#5D80FF"
     transform="matrix(0.14618102,0,0,0.14609204,2,2)"
     d="M 36.455452,6.1133184 3.074548,72.486682 C 1.376522,75.862974 2.3344698,76.61597 5.2141843,74.168545 L 38.085816,46.231455 C 40.96553,43.78403 43.0248,38.748707 42.685323,34.984747 L 40.144677,6.8152534 C 39.8052,3.0512929 38.153478,2.7370259 36.455452,6.1133184 Z" />
  <path
     id="polygon2"
     fill="#84D877"
     transform="matrix(0.14618102,0,0,0.14609204,2,2)"
     d="M 72.632758,79.583043 31.907242,63.176957 C 28.401757,61.764789 23.224799,62.60317 20.344183,65.049533 L 5.4358166,77.710467 C 2.5552006,80.15683 3.2836781,82.14 7.0629166,82.14 H 72.137083 c 3.779239,0 4.00116,-1.144789 0.495675,-2.556957 z" />
  <path
     id="polygon3"
     fill="#FF5B78"
     transform="matrix(0.14618102,0,0,0.14609204,2,2)"
     d="M 79.016753,74.186027 45.473247,7.4539726 C 43.775939,4.0773188 42.675056,4.3913059 43.014356,8.1552824 l 4.661288,51.7094356 c 0.3393,3.763976 3.456001,7.960347 6.961349,9.372857 l 21.106014,8.50485 c 3.505348,1.41251 4.971054,-0.179744 3.273746,-3.556398 z" />
  <path
     id="polygon4"
     fill="#BEBED1"
     transform="matrix(0.14618102,0,0,0.14609204,2,2)"
     d="m 38.561967,49.456922 -5.393934,4.576156 c -2.88184,2.444921 -2.375706,5.570294 1.130482,6.980716 l 4.95297,1.992412 c 3.506188,1.410422 6.077979,-0.497916 5.744255,-4.262391 l -0.61148,-6.89763 C 44.050536,48.08171 41.443807,47.012001 38.561967,49.456922 Z" />
</svg>
