<svg width="16" height="16" viewBox="0 0 16 16" fill="none" xmlns="http://www.w3.org/2000/svg">
<path d="M6.8457 1.48045C7.58416 1.17276 8.41584 1.17276 9.1543 1.48045L12.7695 2.98728C13.5146 3.29785 13.9999 4.02583 14 4.83299V7.40525C13.9999 10.2504 12.4888 12.8817 10.0312 14.3154L9.00781 14.9121C8.38509 15.2753 7.61491 15.2753 6.99219 14.9121L5.96875 14.3154C3.51116 12.8817 2.00008 10.2505 2 7.40525V4.83299C2.00014 4.02583 2.48545 3.29785 3.23047 2.98728L6.8457 1.48045ZM8 5.49998C6.89545 5.49998 6.00003 6.39544 6 7.49998C6 8.23972 6.40292 8.88348 7 9.22947V10.5C7.00002 11.0522 7.44773 11.5 8 11.5C8.55227 11.5 8.99998 11.0522 9 10.5V9.22947C9.59708 8.88348 10 8.23972 10 7.49998C9.99997 6.39544 9.10455 5.49998 8 5.49998Z" fill="#FF845B"/>
</svg>
