<svg width="16" height="16" viewBox="0 0 16 16" fill="none" xmlns="http://www.w3.org/2000/svg">
<path d="M4.88867 2C5.47784 2 6.05339 2.134 6.57447 2.38464C6.68405 2.43734 6.75 2.55028 6.75 2.67188C6.74993 2.9619 6.64905 3.24149 6.4668 3.46387L6.38379 3.55566L5.21973 4.71973C4.23648 5.70298 4.23648 7.29702 5.21973 8.28027C6.20298 9.26352 7.79702 9.26352 8.78027 8.28027L9.61621 7.44434C10.1043 6.95638 10.8957 6.95638 11.3838 7.44434L13.1162 9.17672C13.3114 9.37198 13.3114 9.68856 13.1162 9.88383L12.8838 10.1162C12.6886 10.3114 12.372 10.3114 12.1767 10.1162L11.5303 9.46973L11.4736 9.41797C11.1791 9.17766 10.7443 9.19512 10.4697 9.46973C10.1951 9.74433 10.1777 10.1791 10.418 10.4736L10.4697 10.5303L11.1162 11.1767C11.3114 11.372 11.3114 11.6886 11.1162 11.8838L10.8838 12.1162C10.6886 12.3114 10.372 12.3114 10.1767 12.1162L9.53027 11.4697L9.47363 11.418C9.17905 11.1777 8.74433 11.1951 8.46973 11.4697C8.19512 11.7443 8.17766 12.1791 8.41797 12.4736L8.46973 12.5303L9.41406 13.4746C9.44481 13.5054 9.44481 13.5552 9.41406 13.5859C8.63305 14.3668 7.36695 14.3668 6.58594 13.5859L2.17188 9.17188C1.42173 8.42173 1 7.40364 1 6.34277V5.88867C1.00023 3.74112 2.74112 2.00023 4.88867 2ZM11.1113 2C13.2589 2.00022 14.9998 3.74112 15 5.88867V6.34277C15 6.84718 14.9045 7.34181 14.7238 7.80254C14.6045 8.10648 14.2167 8.15616 13.9858 7.9253L12.4443 6.38379C11.3704 5.31005 9.62957 5.31005 8.55566 6.38379L7.71973 7.21973C7.32226 7.61719 6.67774 7.61719 6.28027 7.21973C5.88281 6.82226 5.88281 6.17774 6.28027 5.78027L7.44434 4.61621C7.76717 4.29338 7.99847 3.89774 8.12805 3.46847C8.15442 3.38111 8.19924 3.29996 8.26392 3.23559L8.36133 3.13867C9.09063 2.40958 10.0801 2 11.1113 2Z" fill="#FF5B78"/>
</svg>
