<svg width="16" height="16" viewBox="0 0 16 16" fill="none" xmlns="http://www.w3.org/2000/svg">
<path d="M6.8457 1.48114C7.58416 1.17344 8.41584 1.17344 9.1543 1.48114L12.7695 2.98699C13.5147 3.29758 14 4.02634 14 4.83367V7.40496C14 10.2502 12.4888 12.8814 10.0312 14.3151L9.00781 14.9118C8.38509 15.2751 7.61491 15.2751 6.99219 14.9118L5.96875 14.3151C3.51117 12.8814 2 10.2502 2 7.40496V4.83367C2 4.02634 2.48528 3.29758 3.23047 2.98699L6.8457 1.48114ZM8 5.49969C6.89555 5.49969 6.00019 6.39529 6 7.49969C6 8.23956 6.40275 8.88421 7 9.23016V10.4997C7.00002 11.052 7.44773 11.4997 8 11.4997C8.55227 11.4997 8.99998 11.052 9 10.4997V9.23016C9.59725 8.88421 10 8.23956 10 7.49969C9.99981 6.39529 9.10445 5.49969 8 5.49969Z" fill="#FF845B"/>
</svg>
