<svg width="16" height="16" viewBox="0 0 16 16" fill="none" xmlns="http://www.w3.org/2000/svg">
<path d="M9.35988 1.68266C9.59132 1.47848 9.70704 1.37639 9.78076 1.3448C9.8603 1.31072 9.90082 1.30281 9.98735 1.30448C10.0675 1.30604 10.1509 1.33528 10.3176 1.39378C11.1482 1.68519 11.9068 2.12885 12.5607 2.69126C12.6948 2.80664 12.7619 2.86433 12.8033 2.93289C12.848 3.00698 12.8613 3.04573 12.8716 3.13163C12.8811 3.21114 12.8508 3.36245 12.79 3.66507C12.5922 4.64985 13.1971 5.69675 14.1491 6.01764C14.4418 6.11628 14.5881 6.16559 14.6522 6.21359C14.7215 6.26547 14.7483 6.29634 14.7902 6.37211C14.8289 6.44222 14.8453 6.52924 14.8783 6.70328C14.9577 7.1233 15 7.55644 15 7.99951C15 8.44244 14.9577 8.87563 14.8782 9.29565C14.8453 9.46972 14.8289 9.55676 14.7902 9.62686C14.7483 9.70264 14.7215 9.73347 14.6522 9.78537C14.5881 9.83337 14.4418 9.88272 14.1491 9.98143C13.1973 10.3024 12.5926 11.3494 12.7902 12.3342C12.8509 12.6366 12.8813 12.7879 12.8717 12.8673C12.8614 12.9532 12.8481 12.9919 12.8035 13.066C12.7621 13.1345 12.6951 13.1922 12.561 13.3076C11.9071 13.8704 11.1484 14.3145 10.3176 14.6062C10.1509 14.6647 10.0676 14.6939 9.9874 14.6955C9.90087 14.6972 9.86032 14.6893 9.78077 14.6552C9.70703 14.6236 9.59132 14.5215 9.35989 14.3173C8.60541 13.6516 7.39364 13.6514 6.63923 14.317C6.40767 14.5213 6.29189 14.6235 6.21815 14.6551C6.13858 14.6892 6.09806 14.6971 6.0115 14.6954C5.93129 14.6938 5.84792 14.6646 5.68118 14.606C4.8506 14.3144 4.09192 13.8704 3.43809 13.3077C3.30399 13.1923 3.23693 13.1346 3.19559 13.066C3.15092 12.992 3.1376 12.9532 3.12731 12.8673C3.11779 12.7878 3.1482 12.6366 3.209 12.3341C3.40701 11.3491 2.80241 10.302 1.85032 9.98122C1.5575 9.88258 1.41109 9.83326 1.34693 9.78521C1.27762 9.7333 1.25069 9.70234 1.20886 9.62651C1.17014 9.55633 1.15375 9.46931 1.12097 9.29526C1.04188 8.87535 1 8.44224 1 7.99951C1.00003 7.55665 1.04185 7.12359 1.12095 6.70367C1.15373 6.52966 1.17012 6.44265 1.20884 6.37246C1.25067 6.29664 1.27764 6.26565 1.34695 6.21375C1.41112 6.1657 1.5575 6.11642 1.85026 6.01785C2.80259 5.69722 3.40745 4.6501 3.20926 3.66509C3.14837 3.3625 3.11793 3.2112 3.12745 3.13167C3.13774 3.04575 3.15107 3.00695 3.19576 2.93285C3.23714 2.86426 3.30421 2.80657 3.43837 2.69118C4.09214 2.12888 4.85082 1.68536 5.6812 1.39391C5.84797 1.33538 5.93136 1.30612 6.01155 1.30456C6.0981 1.30288 6.13859 1.31078 6.21816 1.34487C6.29189 1.37646 6.40767 1.47861 6.63923 1.6829C7.39365 2.34847 8.60539 2.34829 9.35988 1.68266ZM8 5.49951C6.61943 5.49951 5.50022 6.61898 5.5 7.99951C5.5 9.38022 6.61929 10.4995 8 10.4995C9.38071 10.4995 10.5 9.38022 10.5 7.99951C10.4998 6.61898 9.38057 5.49951 8 5.49951Z" fill="#9595AC"/>
</svg>
