<svg width="16" height="16" viewBox="0 0 16 16" fill="none" xmlns="http://www.w3.org/2000/svg">
<path d="M9.48678 1.73637C9.718 1.52728 9.8336 1.42274 9.90967 1.38996C9.99078 1.355 10.0347 1.34665 10.123 1.34938C10.2058 1.35194 10.2915 1.38414 10.463 1.44853C11.1869 1.72035 11.8538 2.10803 12.4408 2.58997C12.5826 2.70632 12.6534 2.76449 12.6971 2.83488C12.7436 2.91 12.7583 2.95205 12.7687 3.03984C12.7784 3.12209 12.7457 3.27475 12.6803 3.58008C12.5792 4.05231 12.6511 4.55623 12.9028 4.9922L13.0561 5.25782C13.308 5.69409 13.7089 6.00755 14.1689 6.15544C14.4663 6.25107 14.615 6.29888 14.6816 6.34846C14.7526 6.40133 14.7818 6.43528 14.8236 6.5133C14.8628 6.58646 14.8777 6.67707 14.9075 6.8583C14.9686 7.22984 15.0005 7.61123 15.0005 8.00001C15.0005 8.38844 14.9686 8.76946 14.9075 9.14066C14.8777 9.32191 14.8628 9.41253 14.8236 9.48566C14.7818 9.56368 14.7527 9.59754 14.6817 9.65044C14.6152 9.70002 14.4664 9.74795 14.1688 9.84383C13.7089 9.99201 13.308 10.3059 13.0561 10.7422L12.9028 11.0078C12.6512 11.4436 12.5795 11.9472 12.6805 12.4192C12.7459 12.7243 12.7785 12.8769 12.7689 12.9591C12.7585 13.0469 12.7438 13.0889 12.6973 13.164C12.6537 13.2344 12.5828 13.2926 12.4412 13.409C11.8541 13.8913 11.1871 14.2794 10.463 14.5514C10.2915 14.6158 10.2058 14.6481 10.123 14.6506C10.0347 14.6534 9.9908 14.645 9.90968 14.6101C9.8336 14.5773 9.71799 14.4727 9.48678 14.2636C9.12879 13.9399 8.65713 13.75 8.15379 13.75H7.84617C7.34274 13.75 6.87064 13.9398 6.5124 14.2635C6.28091 14.4727 6.16516 14.5773 6.08909 14.61C6.00794 14.645 5.96411 14.6533 5.87579 14.6505C5.79302 14.648 5.70727 14.6157 5.53577 14.5513C4.8118 14.2793 4.14485 13.8912 3.55787 13.409C3.41619 13.2926 3.34535 13.2344 3.30171 13.164C3.25517 13.0889 3.24045 13.0467 3.23016 12.959C3.2205 12.8767 3.25326 12.7242 3.31878 12.4192C3.42017 11.9473 3.34883 11.4437 3.09715 11.0078L2.94383 10.7422C2.69184 10.3057 2.29073 9.99172 1.83055 9.84363C1.53288 9.74783 1.38405 9.69993 1.31743 9.65025C1.24644 9.59731 1.2171 9.5632 1.17536 9.4851C1.13619 9.4118 1.12145 9.32127 1.09197 9.1402C1.03156 8.76913 1.00047 8.38822 1.00047 8.00001C1.00047 7.61145 1.03152 7.23017 1.09197 6.85876C1.12144 6.67771 1.13617 6.58719 1.17537 6.51386C1.21712 6.43577 1.24657 6.40155 1.31757 6.34865C1.38425 6.29896 1.533 6.25119 1.83051 6.15564C2.29071 6.00784 2.69183 5.69429 2.94383 5.25782L3.09715 4.9922C3.34892 4.55612 3.42043 4.05227 3.31899 3.58007C3.25343 3.27488 3.22065 3.12229 3.23032 3.03999C3.24063 2.95218 3.25535 2.91002 3.30193 2.83487C3.34559 2.76444 3.41646 2.70625 3.5582 2.58989C4.14509 2.10806 4.81201 1.72051 5.53576 1.44867C5.7073 1.38425 5.79307 1.35203 5.87584 1.34946C5.96415 1.34672 6.00795 1.35504 6.0891 1.38998C6.16515 1.42273 6.2809 1.52732 6.5124 1.73652C6.87064 2.06024 7.34275 2.24998 7.84617 2.25001H8.15379C8.65713 2.24999 9.12879 2.0601 9.48678 1.73637ZM8.00047 5.50001C6.61976 5.50001 5.50047 6.6193 5.50047 8.00001C5.50047 9.38072 6.61976 10.5 8.00047 10.5C9.38096 10.4998 10.5005 9.38056 10.5005 8.00001C10.5005 6.61945 9.38097 5.50026 8.00047 5.50001Z" fill="#9595AC"/>
</svg>
