<svg width="16" height="16" viewBox="0 0 16 16" fill="none" xmlns="http://www.w3.org/2000/svg">
<path d="M9.26106 2.62084C9.48399 2.45228 9.59546 2.368 9.66793 2.34219C9.74404 2.31509 9.7875 2.30903 9.86812 2.31427C9.94488 2.31927 10.0201 2.34846 10.1704 2.40683C10.7481 2.63107 11.2822 2.94206 11.7571 3.32408C11.8829 3.42534 11.9458 3.47597 11.9885 3.53987C12.0333 3.60708 12.0497 3.64749 12.0643 3.72696C12.0782 3.80251 12.0611 3.94127 12.0267 4.21879C11.9143 5.12782 12.4452 6.04569 13.2892 6.40215C13.5472 6.5111 13.6762 6.56558 13.7348 6.61548C13.7965 6.66794 13.8234 6.7025 13.8592 6.77508C13.8933 6.84414 13.9055 6.92409 13.9301 7.08398C13.9761 7.38264 14 7.68855 14 8.00004C14 8.31117 13.976 8.6167 13.9301 8.91501C13.9055 9.07496 13.8932 9.15493 13.8592 9.22398C13.8234 9.29657 13.7965 9.33108 13.7349 9.38355C13.6763 9.43345 13.5472 9.48797 13.2891 9.59701C12.4453 9.95355 11.9147 10.8716 12.027 11.7806C12.0612 12.0579 12.0784 12.1966 12.0645 12.2721C12.0499 12.3515 12.0335 12.3919 11.9887 12.4591C11.9461 12.523 11.8832 12.5736 11.7574 12.6749C11.2824 13.0573 10.7483 13.3687 10.1704 13.5932C10.0201 13.6516 9.94496 13.6808 9.86818 13.6858C9.78756 13.691 9.74405 13.685 9.66793 13.6579C9.59545 13.6321 9.48399 13.5478 9.26106 13.3792C8.52999 12.8264 7.46909 12.8262 6.73809 13.379C6.51501 13.5476 6.40347 13.632 6.33098 13.6578C6.25484 13.6849 6.21137 13.691 6.13072 13.6857C6.05393 13.6807 5.97873 13.6515 5.82834 13.593C5.25063 13.3686 4.71652 13.0573 4.24168 12.675C4.11587 12.5737 4.05296 12.523 4.01035 12.4591C3.96554 12.3919 3.94916 12.3515 3.93457 12.2721C3.9207 12.1965 3.93787 12.0579 3.97221 11.7805C4.08479 10.8713 3.55434 9.95319 2.71023 9.59687C2.45205 9.48788 2.32295 9.43338 2.26426 9.38341C2.20261 9.33091 2.17562 9.29624 2.13985 9.22359C2.1058 9.15444 2.09358 9.07451 2.06916 8.91464C2.0236 8.61643 2 8.31099 2 8.00004C2 7.68874 2.02357 7.38291 2.06917 7.08435C2.09358 6.92454 2.10578 6.84464 2.13984 6.77547C2.17561 6.70283 2.20265 6.6681 2.26429 6.61562C2.323 6.56564 2.45205 6.5112 2.71014 6.4023C3.55447 6.04605 4.08519 5.12805 3.97244 4.2188C3.93804 3.94132 3.92083 3.80259 3.93471 3.727C3.94931 3.64753 3.96571 3.60706 4.01055 3.53984C4.0532 3.47591 4.11613 3.42529 4.24199 3.32404C4.71675 2.94211 5.25082 2.63122 5.82834 2.40698C5.97879 2.34856 6.05401 2.31936 6.13078 2.31436C6.21143 2.3091 6.25485 2.31516 6.33099 2.34227C6.40346 2.36807 6.515 2.45241 6.73809 2.62108C7.46909 3.1738 8.52998 3.1736 9.26106 2.62084ZM8 6.00004C6.89543 6.00004 6 6.89547 6 8.00004C6.00003 9.10459 6.89545 10 8 10C9.10455 10 9.99997 9.10459 10 8.00004C10 6.89547 9.10457 6.00004 8 6.00004Z" fill="#9595AC"/>
</svg>
