<svg width="16" height="16" viewBox="0 0 16 16" fill="none" xmlns="http://www.w3.org/2000/svg">
<path d="M7.01395 1.44404C7.35695 1.37022 7.71163 1.36981 8.05496 1.44209C8.44296 1.52378 8.80809 1.73381 9.53836 2.15401L11.9847 3.56123C12.7185 3.9835 13.0855 4.19495 13.3518 4.49092C13.5875 4.75283 13.7653 5.06179 13.8733 5.39717C13.9953 5.7762 13.9933 6.19993 13.9895 7.04658L13.9768 9.93135C13.9731 10.7655 13.9711 11.1829 13.8489 11.5563C13.7407 11.8868 13.5647 12.1913 13.3323 12.4499C13.0695 12.7422 12.7089 12.9524 11.9876 13.3718L9.46707 14.8376C8.73863 15.2611 8.37421 15.4729 7.9866 15.5563C7.64368 15.6302 7.28885 15.6305 6.94559 15.5583C6.55753 15.4766 6.19169 15.2667 5.46121 14.8464L3.0159 13.4392C2.28195 13.0168 1.91411 12.8055 1.64774 12.5095C1.41214 12.2476 1.23519 11.9385 1.12723 11.6032C1.00518 11.2242 1.00628 10.8006 1.01004 9.95381L1.02371 7.06904C1.02742 6.23462 1.02837 5.81665 1.15067 5.44307C1.25889 5.11258 1.43575 4.80813 1.66824 4.54951C1.93102 4.25737 2.29189 4.04785 3.01297 3.62861L5.53348 2.16279C6.26195 1.73926 6.62629 1.52748 7.01395 1.44404ZM4.91434 5.99971C3.8574 5.99979 3.00057 6.85688 3.00028 7.91377V9.08565C3.00036 10.1427 3.85727 10.9996 4.91434 10.9997C5.4219 10.9997 5.90892 10.798 6.26785 10.4392L6.35379 10.3532C6.54878 10.1579 6.54896 9.84136 6.35379 9.64619C6.15861 9.45115 5.842 9.45124 5.64676 9.64619L5.56082 9.73213C5.38942 9.90345 5.15668 9.99967 4.91434 9.99971C4.40955 9.99963 4.00036 9.59043 4.00028 9.08565V7.91377C4.00057 7.40917 4.40968 6.99979 4.91434 6.99971C5.15662 6.99975 5.38943 7.09604 5.56082 7.26729L5.64676 7.35322L5.72489 7.41768C5.91896 7.54584 6.18293 7.52409 6.35379 7.35322C6.52441 7.18235 6.54634 6.91829 6.41824 6.72432L6.35379 6.64619L6.26785 6.56026C5.90893 6.20148 5.42184 5.99975 4.91434 5.99971ZM10.5003 6.99971C10.2243 6.99971 10.0005 7.22375 10.0003 7.49971V7.99971H9.00028V7.49971C9.00006 7.2238 8.77622 6.99978 8.50028 6.99971C8.22427 6.99971 8.00049 7.22375 8.00028 7.49971V7.99971H7.50028C7.22427 7.99971 7.00049 8.22375 7.00028 8.49971C7.00028 8.77585 7.22413 8.99971 7.50028 8.99971H8.00028V9.49971C8.00028 9.77585 8.22413 9.99971 8.50028 9.99971C8.77635 9.99963 9.00028 9.7758 9.00028 9.49971V8.99971H10.0003V9.49971C10.0003 9.77585 10.2241 9.99971 10.5003 9.99971C10.7764 9.99963 11.0003 9.7758 11.0003 9.49971V8.99971H11.5003C11.7764 8.99963 12.0003 8.7758 12.0003 8.49971C12.0001 8.2238 11.7762 7.99978 11.5003 7.99971H11.0003V7.49971C11.0001 7.2238 10.7762 6.99978 10.5003 6.99971Z" fill="#5D80FF"/>
</svg>
