<svg width="16" height="16" viewBox="0 0 16 16" fill="none" xmlns="http://www.w3.org/2000/svg">
<path d="M8.01395 1.44404C8.35696 1.37022 8.71163 1.36981 9.05497 1.44209C9.44296 1.52378 9.8081 1.73381 10.5384 2.15401L12.9847 3.56123C13.7185 3.9835 14.0855 4.19495 14.3518 4.49092C14.5875 4.75283 14.7653 5.06179 14.8733 5.39717C14.9953 5.7762 14.9933 6.19993 14.9895 7.04658L14.9768 9.93135C14.9731 10.7655 14.9711 11.1828 14.8489 11.5563C14.7407 11.8868 14.5647 12.1913 14.3323 12.4499C14.0695 12.7422 13.7089 12.9524 12.9876 13.3718L10.4671 14.8376C9.73863 15.2611 9.37422 15.4729 8.98661 15.5563C8.64368 15.6302 8.28885 15.6305 7.94559 15.5583C7.55753 15.4766 7.19169 15.2667 6.46122 14.8464L4.0159 13.4392C3.28195 13.0168 2.91412 12.8055 2.64774 12.5095C2.41214 12.2476 2.2352 11.9385 2.12723 11.6032C2.00518 11.2242 2.00628 10.8006 2.01004 9.95381L2.02372 7.06904C2.02742 6.23461 2.02837 5.81665 2.15067 5.44307C2.25889 5.11258 2.43575 4.80813 2.66825 4.54951C2.93102 4.25737 3.29189 4.04785 4.01297 3.62861L6.53348 2.16279C7.26196 1.73926 7.62629 1.52748 8.01395 1.44404ZM5.91434 5.99971C4.8574 5.99979 4.00057 6.85688 4.00028 7.91377V9.08565C4.00036 10.1427 4.85727 10.9996 5.91434 10.9997C6.4219 10.9997 6.90892 10.798 7.26786 10.4392L7.35379 10.3532C7.54878 10.1579 7.54896 9.84136 7.35379 9.64619C7.15861 9.45115 6.842 9.45124 6.64676 9.64619L6.56082 9.73213C6.38942 9.90345 6.15668 9.99967 5.91434 9.99971C5.40955 9.99963 5.00036 9.59043 5.00028 9.08565V7.91377C5.00057 7.40917 5.40969 6.99979 5.91434 6.99971C6.15662 6.99975 6.38944 7.09605 6.56082 7.26729L6.64676 7.35322L6.72489 7.41768C6.91896 7.54584 7.18293 7.52409 7.35379 7.35322C7.52441 7.18235 7.54634 6.91829 7.41825 6.72432L7.35379 6.64619L7.26786 6.56026C6.90893 6.20148 6.42184 5.99975 5.91434 5.99971ZM11.5003 6.99971C11.2243 6.99971 11.0005 7.22375 11.0003 7.49971V7.99971H10.0003V7.49971C10.0001 7.2238 9.77622 6.99978 9.50028 6.99971C9.22427 6.99971 9.00049 7.22375 9.00028 7.49971V7.99971H8.50028C8.22427 7.99971 8.00049 8.22375 8.00028 8.49971C8.00028 8.77585 8.22414 8.99971 8.50028 8.99971H9.00028V9.49971C9.00028 9.77585 9.22414 9.99971 9.50028 9.99971C9.77636 9.99963 10.0003 9.7758 10.0003 9.49971V8.99971H11.0003V9.49971C11.0003 9.77585 11.2241 9.99971 11.5003 9.99971C11.7764 9.99963 12.0003 9.7758 12.0003 9.49971V8.99971H12.5003C12.7764 8.99963 13.0003 8.7758 13.0003 8.49971C13.0001 8.2238 12.7762 7.99978 12.5003 7.99971H12.0003V7.49971C12.0001 7.2238 11.7762 6.99978 11.5003 6.99971Z" fill="#5D80FF"/>
</svg>
