<svg width="16" height="16" viewBox="0 0 16 16" fill="none" xmlns="http://www.w3.org/2000/svg">
<path d="M7.01395 1.44404C7.35695 1.37022 7.71163 1.36981 8.05496 1.44209C8.44296 1.52378 8.80809 1.73381 9.53836 2.15401L11.9847 3.56123C12.7185 3.9835 13.0855 4.19495 13.3518 4.49092C13.5875 4.75283 13.7653 5.06179 13.8733 5.39717C13.9953 5.7762 13.9933 6.19993 13.9895 7.04658L13.9768 9.93135C13.9731 10.7655 13.9711 11.1828 13.8489 11.5563C13.7407 11.8868 13.5647 12.1913 13.3323 12.4499C13.0695 12.7422 12.7089 12.9524 11.9876 13.3718L9.46707 14.8376C8.73863 15.2611 8.37421 15.4729 7.9866 15.5563C7.64368 15.6302 7.28885 15.6305 6.94559 15.5583C6.55753 15.4766 6.19169 15.2667 5.46121 14.8464L3.0159 13.4392C2.28195 13.0168 1.91411 12.8055 1.64774 12.5095C1.41214 12.2476 1.23519 11.9385 1.12723 11.6032C1.00518 11.2242 1.00628 10.8006 1.01004 9.95381L1.02371 7.06904C1.02742 6.23461 1.02837 5.81665 1.15067 5.44307C1.25889 5.11258 1.43575 4.80813 1.66824 4.54951C1.93102 4.25737 2.29189 4.04785 3.01297 3.62861L5.53348 2.16279C6.26195 1.73926 6.62629 1.52748 7.01395 1.44404ZM4.50028 5.99971C3.67198 5.99971 3.00049 6.67147 3.00028 7.49971V9.49971C3.00028 10.3281 3.67185 10.9997 4.50028 10.9997C5.32864 10.9996 6.00028 10.3281 6.00028 9.49971C6.00006 9.2238 5.77622 8.99979 5.50028 8.99971C5.25871 8.99971 5.05673 9.17136 5.01004 9.39912L4.99051 9.60029C4.94399 9.82822 4.74192 9.99964 4.50028 9.99971C4.22413 9.99971 4.00028 9.77585 4.00028 9.49971V7.49971C4.00049 7.22375 4.22427 6.99971 4.50028 6.99971C4.7418 6.99978 4.94386 7.17138 4.99051 7.39912L5.01004 7.60029C5.05657 7.82826 5.25856 7.99971 5.50028 7.99971C5.77635 7.99963 6.00028 7.7758 6.00028 7.49971C6.00006 6.67151 5.3285 5.99979 4.50028 5.99971ZM10.5003 5.99971C10.2243 5.99971 10.0005 6.22375 10.0003 6.49971V6.99971H9.00028V6.49971C9.00006 6.2238 8.77622 5.99978 8.50028 5.99971C8.22427 5.99971 8.00049 6.22375 8.00028 6.49971V6.99971H7.50028C7.22427 6.99971 7.00049 7.22375 7.00028 7.49971C7.00028 7.77585 7.22413 7.99971 7.50028 7.99971H8.00028V8.99971H7.50028C7.22427 8.99971 7.00049 9.22375 7.00028 9.49971C7.00028 9.77585 7.22413 9.99971 7.50028 9.99971H8.00028V10.4997C8.00028 10.7759 8.22413 10.9997 8.50028 10.9997C8.77635 10.9996 9.00028 10.7758 9.00028 10.4997V9.99971H10.0003V10.4997C10.0003 10.7759 10.2241 10.9997 10.5003 10.9997C10.7764 10.9996 11.0003 10.7758 11.0003 10.4997V9.99971H11.5003C11.7764 9.99963 12.0003 9.7758 12.0003 9.49971C12.0001 9.2238 11.7762 8.99978 11.5003 8.99971H11.0003V7.99971H11.5003C11.7764 7.99963 12.0003 7.7758 12.0003 7.49971C12.0001 7.2238 11.7762 6.99978 11.5003 6.99971H11.0003V6.49971C11.0001 6.2238 10.7762 5.99978 10.5003 5.99971ZM10.0003 7.99971V8.99971H9.00028V7.99971H10.0003Z" fill="#AB7AFF"/>
</svg>
