<svg width="16" height="16" viewBox="0 0 16 16" fill="none" xmlns="http://www.w3.org/2000/svg">
<path d="M8.01395 1.44404C8.35696 1.37022 8.71163 1.36981 9.05497 1.44209C9.44296 1.52378 9.8081 1.73381 10.5384 2.15401L12.9847 3.56123C13.7185 3.9835 14.0855 4.19495 14.3518 4.49092C14.5875 4.75283 14.7653 5.06179 14.8733 5.39717C14.9953 5.7762 14.9933 6.19993 14.9895 7.04658L14.9768 9.93135C14.9731 10.7655 14.9711 11.1828 14.8489 11.5563C14.7407 11.8868 14.5647 12.1913 14.3323 12.4499C14.0695 12.7422 13.7089 12.9524 12.9876 13.3718L10.4671 14.8376C9.73863 15.2611 9.37422 15.4729 8.98661 15.5563C8.64368 15.6302 8.28885 15.6305 7.94559 15.5583C7.55753 15.4766 7.19169 15.2667 6.46122 14.8464L4.0159 13.4392C3.28195 13.0168 2.91412 12.8055 2.64774 12.5095C2.41214 12.2476 2.2352 11.9385 2.12723 11.6032C2.00518 11.2242 2.00628 10.8006 2.01004 9.95381L2.02372 7.06904C2.02742 6.23461 2.02837 5.81665 2.15067 5.44307C2.25889 5.11258 2.43575 4.80813 2.66825 4.54951C2.93102 4.25737 3.29189 4.04785 4.01297 3.62861L6.53348 2.16279C7.26196 1.73926 7.62629 1.52748 8.01395 1.44404ZM5.50028 5.99971C4.67198 5.99971 4.00049 6.67147 4.00028 7.49971V9.49971C4.00028 10.3281 4.67185 10.9997 5.50028 10.9997C6.32864 10.9996 7.00028 10.3281 7.00028 9.49971C7.00006 9.2238 6.77622 8.99979 6.50028 8.99971C6.25871 8.99971 6.05673 9.17136 6.01004 9.39912L5.99051 9.60029C5.94399 9.82822 5.74193 9.99964 5.50028 9.99971C5.22414 9.99971 5.00028 9.77585 5.00028 9.49971V7.49971C5.00049 7.22375 5.22427 6.99971 5.50028 6.99971C5.7418 6.99978 5.94386 7.17138 5.99051 7.39912L6.01004 7.60029C6.05657 7.82826 6.25856 7.99971 6.50028 7.99971C6.77635 7.99963 7.00028 7.7758 7.00028 7.49971C7.00006 6.67151 6.3285 5.99979 5.50028 5.99971ZM11.5003 5.99971C11.2243 5.99971 11.0005 6.22375 11.0003 6.49971V6.99971H10.0003V6.49971C10.0001 6.2238 9.77622 5.99978 9.50028 5.99971C9.22427 5.99971 9.00049 6.22375 9.00028 6.49971V6.99971H8.50028C8.22427 6.99971 8.00049 7.22375 8.00028 7.49971C8.00028 7.77585 8.22414 7.99971 8.50028 7.99971H9.00028V8.99971H8.50028C8.22427 8.99971 8.00049 9.22375 8.00028 9.49971C8.00028 9.77585 8.22414 9.99971 8.50028 9.99971H9.00028V10.4997C9.00028 10.7759 9.22414 10.9997 9.50028 10.9997C9.77635 10.9996 10.0003 10.7758 10.0003 10.4997V9.99971H11.0003V10.4997C11.0003 10.7759 11.2241 10.9997 11.5003 10.9997C11.7764 10.9996 12.0003 10.7758 12.0003 10.4997V9.99971H12.5003C12.7764 9.99963 13.0003 9.7758 13.0003 9.49971C13.0001 9.2238 12.7762 8.99978 12.5003 8.99971H12.0003V7.99971H12.5003C12.7764 7.99963 13.0003 7.7758 13.0003 7.49971C13.0001 7.2238 12.7762 6.99978 12.5003 6.99971H12.0003V6.49971C12.0001 6.2238 11.7762 5.99978 11.5003 5.99971ZM11.0003 7.99971V8.99971H10.0003V7.99971H11.0003Z" fill="#AB7AFF"/>
</svg>
