<svg width="16" height="16" viewBox="0 0 16 16" fill="none" xmlns="http://www.w3.org/2000/svg">
<path d="M10 2C11.4 2 12.1 2.00007 12.6348 2.27246C13.1052 2.51214 13.4879 2.89483 13.7275 3.36523C13.9999 3.89999 14 4.60002 14 6V10C14 11.4 13.9999 12.1 13.7275 12.6348C13.4879 13.1052 13.1052 13.4879 12.6348 13.7275C12.1 13.9999 11.4 14 10 14H6C4.60002 14 3.89999 13.9999 3.36523 13.7275C2.89483 13.4879 2.51214 13.1052 2.27246 12.6348C2.00007 12.1 2 11.4 2 10V6C2 4.60002 2.00007 3.89999 2.27246 3.36523C2.51214 2.89483 2.89483 2.51214 3.36523 2.27246C3.89999 2.00007 4.60002 2 6 2H10ZM4.5 8C3.67157 8 3 8.67157 3 9.5V11.5C3 12.3284 3.67157 13 4.5 13C5.32843 13 6 12.3284 6 11.5C6 11.2239 5.77614 11 5.5 11C5.25829 11 5.05629 11.1714 5.00977 11.3994L4.99023 11.6006C4.94371 11.8286 4.74171 12 4.5 12C4.22386 12 4 11.7761 4 11.5V9.5C4 9.22386 4.22386 9 4.5 9C4.74171 9 4.94371 9.17145 4.99023 9.39941L5.00977 9.60059C5.05629 9.82855 5.25829 10 5.5 10C5.77614 10 6 9.77614 6 9.5C6 8.67157 5.32843 8 4.5 8ZM8 8C7.17157 8 6.5 8.67157 6.5 9.5C6.5 10.3284 7.17157 11 8 11C8.27614 11 8.5 11.2239 8.5 11.5C8.5 11.7761 8.27614 12 8 12H7.90234C7.809 11.9978 7.71886 11.9692 7.6416 11.9189L7.56934 11.8623L7.35352 11.6465L7.27539 11.582C7.08131 11.4539 6.81735 11.4756 6.64648 11.6465C6.47562 11.8173 6.45387 12.0813 6.58203 12.2754L6.64648 12.3535L6.87891 12.5859L6.98438 12.6768C7.23859 12.8776 7.5525 12.9922 7.87891 13H8C8.82843 13 9.5 12.3284 9.5 11.5C9.5 10.6716 8.82843 10 8 10C7.72386 10 7.5 9.77614 7.5 9.5C7.5 9.22386 7.72386 9 8 9H8.09766C8.22186 9.00296 8.34068 9.05204 8.43066 9.1377L8.64648 9.35352L8.72461 9.41797C8.91869 9.54613 9.18265 9.52438 9.35352 9.35352C9.52438 9.18265 9.54613 8.91869 9.41797 8.72461L9.35352 8.64648L9.12109 8.41406C8.85106 8.15661 8.49409 8.00889 8.12109 8H8ZM11.5 8C10.6716 8 10 8.67157 10 9.5C10 10.3284 10.6716 11 11.5 11C11.7761 11 12 11.2239 12 11.5C12 11.7761 11.7761 12 11.5 12H11.4023C11.309 11.9978 11.2189 11.9692 11.1416 11.9189L11.0693 11.8623L10.8535 11.6465L10.7754 11.582C10.5813 11.4539 10.3173 11.4756 10.1465 11.6465C9.97562 11.8173 9.95387 12.0813 10.082 12.2754L10.1465 12.3535L10.3789 12.5859L10.4844 12.6768C10.7386 12.8776 11.0525 12.9922 11.3789 13H11.5C12.3284 13 13 12.3284 13 11.5C13 10.6716 12.3284 10 11.5 10C11.2239 10 11 9.77614 11 9.5C11 9.22386 11.2239 9 11.5 9H11.5977C11.7219 9.00296 11.8407 9.05204 11.9307 9.1377L12.1465 9.35352L12.2246 9.41797C12.4187 9.54613 12.6827 9.52438 12.8535 9.35352C13.0244 9.18265 13.0461 8.91869 12.918 8.72461L12.8535 8.64648L12.6211 8.41406C12.3511 8.15661 11.9941 8.00889 11.6211 8H11.5Z" fill="#AB7AFF"/>
</svg>
