<svg width="16" height="16" viewBox="0 0 16 16" fill="none" xmlns="http://www.w3.org/2000/svg">
<path d="M10.4958 2C11.7111 2 12.3192 1.99983 12.7663 2.24316C13.1589 2.45695 13.4689 2.7966 13.6462 3.20703C13.8479 3.67422 13.7923 4.27941 13.6823 5.48926L13.1774 11.0469C13.1129 11.7562 13.0809 12.1111 12.945 12.415C12.8248 12.6837 12.6466 12.9223 12.4235 13.1143C12.1712 13.3313 11.8405 13.4641 11.1794 13.7285L9.18816 14.5244L8.6657 14.7266C8.52785 14.7747 8.41655 14.8059 8.3034 14.8232C8.10255 14.8541 7.8978 14.854 7.69695 14.8232C7.4703 14.7885 7.25025 14.7 6.81121 14.5244L4.82097 13.7285C4.15982 13.4641 3.8292 13.3313 3.57683 13.1143C3.35373 12.9223 3.17555 12.6837 3.05535 12.415C2.91943 12.1111 2.88643 11.7562 2.82195 11.0469L2.31707 5.48926C2.20706 4.27922 2.15236 3.67425 2.35418 3.20703C2.53151 2.79652 2.84129 2.45694 3.23406 2.24316C3.68108 2 4.2887 2 5.50359 2H10.4958ZM4.19011 4L4.32683 5.5H10.1677L10.0309 7H4.46257L4.59929 8.5H9.89422L9.70769 10.5459L7.99968 11.2295L6.2907 10.5459L6.195 9.5H4.69011L4.88054 11.5977L7.99968 12.8447L11.1178 11.5977L11.8093 4H4.19011Z" fill="#5CBAFD"/>
</svg>
