<svg width="16" height="16" viewBox="0 0 16 16" fill="none" xmlns="http://www.w3.org/2000/svg">
<path d="M9.7998 3C10.9199 3 11.4804 2.99979 11.9082 3.21777C12.2845 3.40951 12.5905 3.71554 12.7822 4.0918C13.0002 4.51962 13 5.08009 13 6.2002V9.7998C13 10.9199 13.0002 11.4804 12.7822 11.9082C12.5905 12.2845 12.2845 12.5905 11.9082 12.7822C11.4804 13.0002 10.9199 13 9.7998 13H6.2002C5.08009 13 4.51962 13.0002 4.0918 12.7822C3.71554 12.5905 3.40951 12.2845 3.21777 11.9082C2.99979 11.4804 3 10.9199 3 9.7998V6.2002C3 5.08009 2.99979 4.51962 3.21777 4.0918C3.40951 3.71554 3.71554 3.40951 4.0918 3.21777C4.51962 2.99979 5.08009 3 6.2002 3H9.7998ZM10.0068 5.07129C9.79979 4.94725 9.53899 4.99004 9.38184 5.16113L9.32129 5.24316L8 7.44531L6.67871 5.24316L6.61816 5.16113C6.46101 4.99004 6.20021 4.94725 5.99316 5.07129C5.78584 5.19568 5.70082 5.44656 5.77832 5.66602L5.82129 5.75684L7.1709 8.00488L5.81738 10.3477L5.77539 10.4404C5.70185 10.6611 5.79075 10.9104 6 11.0312C6.20919 11.152 6.46973 11.1045 6.62402 10.9307L6.68262 10.8477L8 8.56543L9.31738 10.8477L9.37598 10.9307C9.53027 11.1045 9.79081 11.152 10 11.0312C10.2092 10.9104 10.2981 10.6611 10.2246 10.4404L10.1826 10.3477L8.8291 8.00488L10.1787 5.75684L10.2217 5.66602C10.2992 5.44656 10.2142 5.19568 10.0068 5.07129Z" fill="#41C09C"/>
</svg>
