<svg width="16" height="16" viewBox="0 0 16 16" fill="none" xmlns="http://www.w3.org/2000/svg">
<path d="M2 10.0479C2.31196 10.3236 2.65156 10.5661 3.00195 10.7705C4.3551 11.5598 6.12544 12 8 12C9.87456 12 11.6449 11.5598 12.998 10.7705C13.3483 10.5662 13.6882 10.3244 14 10.0488V11.5C14 12.2641 13.6456 12.8793 13.2334 13.3125C12.8284 13.738 12.3128 14.0533 11.791 14.2852C10.7438 14.7505 9.40218 15 8 15C6.59782 15 5.25621 14.7505 4.20898 14.2852C3.68725 14.0533 3.17155 13.738 2.7666 13.3125C2.3544 12.8793 2 12.2641 2 11.5V10.0479ZM8 2C9.40218 2 10.7438 2.24946 11.791 2.71484C12.3128 2.94673 12.8284 3.26198 13.2334 3.6875C13.6456 4.12073 14 4.73593 14 5.5V7L13.9922 7.17969C13.8319 9.02918 11.2104 10.5 8 10.5C4.68629 10.5 2 8.933 2 7V5.5C2 4.73593 2.3544 4.12073 2.7666 3.6875C3.17155 3.26198 3.68725 2.94673 4.20898 2.71484C5.25621 2.24946 6.59782 2 8 2ZM8 3.5C5.51472 3.5 3.5 4.39543 3.5 5.5C3.5 6.60457 5.51472 7.5 8 7.5C10.4853 7.5 12.5 6.60457 12.5 5.5C12.5 4.39543 10.4853 3.5 8 3.5Z" fill="#FF845B"/>
</svg>
