<svg width="16" height="16" viewBox="0 0 16 16" fill="none" xmlns="http://www.w3.org/2000/svg">
<path d="M12 4.5L12.5 4L12.7929 4.29289C13.2456 4.74565 13.5 5.35971 13.5 6C14.1403 6 14.7544 6.25435 15.2071 6.70711L15.5 7L15 7.5C14.1716 8.32843 12.8284 8.32843 12 7.5C11.1716 6.67157 11.1716 5.32843 12 4.5Z" fill="#5CBAFD"/>
<path d="M9 8V9L13 8V7L12 6.5C12 7.32843 11.3284 8 10.5 8H9Z" fill="#5CBAFD"/>
<rect x="8" y="5" width="2" height="2" rx="0.5" fill="#5CBAFD"/>
<rect x="5" y="5" width="2" height="2" rx="0.5" fill="#5CBAFD"/>
<rect x="2" y="5" width="2" height="2" rx="0.5" fill="#5CBAFD"/>
<rect x="3.5" y="2" width="2" height="2" rx="0.5" fill="#5CBAFD"/>
<rect x="6.5" y="2" width="2" height="2" rx="0.5" fill="#5CBAFD"/>
<path d="M13 8C13 11.1642 10.6909 13.8548 7.56348 14.3359L6.5 14.5H5C2.23858 14.5 0 12.2614 0 9.5V9C0 8.44772 0.447715 8 1 8H13ZM4 10C3.44772 10 3 10.4477 3 11C3 11.5523 3.44772 12 4 12C4.55228 12 5 11.5523 5 11C5 10.4477 4.55228 10 4 10Z" fill="#5CBAFD"/>
</svg>
