<svg width="16" height="16" viewBox="0 0 16 16" fill="none" xmlns="http://www.w3.org/2000/svg">
<path d="M9.66164 2C10.331 2 10.6664 1.99978 10.9663 2.09668C11.2319 2.18256 11.4771 2.32368 11.6851 2.50977C11.92 2.72005 12.0889 3.00956 12.4263 3.58789L14.0591 6.3877C14.4016 6.97479 14.5732 7.26863 14.6402 7.58105C14.6993 7.85723 14.6993 8.14277 14.6402 8.41895C14.5732 8.73137 14.4016 9.02521 14.0591 9.6123L12.4263 12.4121C12.0889 12.9904 11.92 13.2799 11.6851 13.4902C11.4771 13.6763 11.2319 13.8174 10.9663 13.9033C10.6664 14.0002 10.331 14 9.66164 14H6.3384C5.66902 14 5.33366 14.0002 5.03371 13.9033C4.76818 13.8174 4.52293 13.6763 4.31496 13.4902C4.08003 13.2799 3.91111 12.9904 3.57375 12.4121L1.94093 9.6123C1.59846 9.02521 1.42687 8.73137 1.35988 8.41895C1.30071 8.14277 1.30071 7.85723 1.35988 7.58105C1.42687 7.26863 1.59846 6.97479 1.94093 6.3877L3.57375 3.58789C3.91111 3.00955 4.08003 2.72005 4.31496 2.50977C4.52293 2.32368 4.76818 2.18256 5.03371 2.09668C5.33366 1.99979 5.66902 2 6.3384 2H9.66164ZM8.31496 3.26953C8.10765 3.22508 7.89238 3.22508 7.68507 3.26953C7.45089 3.31982 7.23064 3.44836 6.79054 3.70508L4.9048 4.80566C4.47107 5.05867 4.25391 5.18508 4.09621 5.36133C3.95669 5.51729 3.85104 5.70128 3.78664 5.90039C3.71401 6.12532 3.71437 6.37698 3.71437 6.87891V9.12109C3.71437 9.62302 3.71401 9.87468 3.78664 10.0996C3.85104 10.2987 3.95668 10.4827 4.09621 10.6387C4.25391 10.8149 4.47107 10.9413 4.9048 11.1943L6.79054 12.2949C7.23064 12.5516 7.45089 12.6802 7.68507 12.7305C7.89238 12.7749 8.10765 12.7749 8.31496 12.7305C8.54913 12.6802 8.7694 12.5516 9.20949 12.2949L11.0952 11.1943C11.5289 10.9413 11.7461 10.8149 11.9038 10.6387C12.0433 10.4827 12.149 10.2987 12.2134 10.0996C12.286 9.87468 12.2857 9.62301 12.2857 9.12109V6.87891C12.2857 6.37699 12.286 6.12532 12.2134 5.90039C12.149 5.70129 12.0433 5.51728 11.9038 5.36133C11.7461 5.18508 11.5289 5.05866 11.0952 4.80566L9.20949 3.70508C8.7694 3.44836 8.54913 3.31983 8.31496 3.26953Z" fill="#5D80FF"/>
<path d="M7.19381 5.47028C7.48736 5.29904 7.63413 5.21343 7.79034 5.17993C7.92854 5.15029 8.07146 5.15029 8.20966 5.17993C8.36588 5.21343 8.51265 5.29904 8.8062 5.47028L9.77762 6.03695C10.0669 6.20568 10.2115 6.29005 10.3167 6.40757C10.4097 6.51156 10.48 6.63387 10.5229 6.76663C10.5714 6.91667 10.5714 7.08411 10.5714 7.41899V8.58101C10.5714 8.91589 10.5714 9.08333 10.5229 9.23337C10.48 9.36613 10.4097 9.48844 10.3167 9.59243C10.2115 9.70995 10.0669 9.79432 9.77762 9.96305L8.8062 10.5297C8.51265 10.701 8.36588 10.7866 8.20966 10.8201C8.07146 10.8497 7.92854 10.8497 7.79034 10.8201C7.63413 10.7866 7.48736 10.701 7.19381 10.5297L6.22238 9.96305C5.93312 9.79432 5.78849 9.70995 5.68334 9.59243C5.59029 9.48844 5.52004 9.36613 5.4771 9.23337C5.42857 9.08333 5.42857 8.91589 5.42857 8.58101L5.42857 7.41899C5.42857 7.08411 5.42857 6.91667 5.4771 6.76663C5.52004 6.63387 5.59029 6.51156 5.68334 6.40757C5.78849 6.29005 5.93312 6.20568 6.22238 6.03695L7.19381 5.47028Z" fill="#5D80FF"/>
<path d="M7.19381 5.47028C7.48736 5.29904 7.63413 5.21343 7.79034 5.17993C7.92854 5.15029 8.07146 5.15029 8.20966 5.17993C8.36588 5.21343 8.51265 5.29904 8.8062 5.47028L9.77762 6.03695C10.0669 6.20568 10.2115 6.29005 10.3167 6.40757C10.4097 6.51156 10.48 6.63387 10.5229 6.76663C10.5714 6.91667 10.5714 7.08411 10.5714 7.41899V8.58101C10.5714 8.91589 10.5714 9.08333 10.5229 9.23337C10.48 9.36613 10.4097 9.48844 10.3167 9.59243C10.2115 9.70995 10.0669 9.79432 9.77762 9.96305L8.8062 10.5297C8.51265 10.701 8.36588 10.7866 8.20966 10.8201C8.07146 10.8497 7.92854 10.8497 7.79034 10.8201C7.63413 10.7866 7.48736 10.701 7.19381 10.5297L6.22238 9.96305C5.93312 9.79432 5.78849 9.70995 5.68334 9.59243C5.59029 9.48844 5.52004 9.36613 5.4771 9.23337C5.42857 9.08333 5.42857 8.91589 5.42857 8.58101L5.42857 7.41899C5.42857 7.08411 5.42857 6.91667 5.4771 6.76663C5.52004 6.63387 5.59029 6.51156 5.68334 6.40757C5.78849 6.29005 5.93312 6.20568 6.22238 6.03695L7.19381 5.47028Z" fill="white" fill-opacity="0.15" style="mix-blend-mode:plus-lighter"/>
</svg>
