<svg width="16" height="16" viewBox="0 0 16 16" fill="none" xmlns="http://www.w3.org/2000/svg">
<path d="M9.66209 2C10.3317 2 10.6667 1.99965 10.9668 2.09668C11.2323 2.18255 11.4766 2.3237 11.6845 2.50977C11.9196 2.72007 12.0883 3.00937 12.4258 3.58789L14.0595 6.3877C14.402 6.97472 14.5736 7.26865 14.6406 7.58105C14.6997 7.85717 14.6997 8.14283 14.6406 8.41895C14.5736 8.73135 14.402 9.02528 14.0595 9.6123L12.4258 12.4121C12.0883 12.9906 11.9196 13.2799 11.6845 13.4902C11.4766 13.6763 11.2323 13.8174 10.9668 13.9033C10.6667 14.0003 10.3317 14 9.66209 14H6.33787C5.66822 14 5.33324 14.0004 5.03318 13.9033C4.76766 13.8174 4.52338 13.6763 4.31541 13.4902C4.08036 13.2799 3.91167 12.9906 3.5742 12.4121L1.94041 9.6123C1.59798 9.0253 1.42732 8.73134 1.36033 8.41895C1.30113 8.14271 1.30113 7.85729 1.36033 7.58105C1.42732 7.26866 1.59798 6.9747 1.94041 6.3877L3.5742 3.58789C3.91167 3.00937 4.08036 2.72007 4.31541 2.50977C4.52338 2.32369 4.76766 2.18256 5.03318 2.09668C5.33324 1.99964 5.66822 2 6.33787 2H9.66209ZM8.31443 3.26953C8.1072 3.22511 7.89276 3.22511 7.68552 3.26953C7.45127 3.31976 7.23107 3.44837 6.79099 3.70508L4.90525 4.80566C4.47147 5.0587 4.25437 5.18512 4.09666 5.36133C3.95709 5.51731 3.8515 5.70124 3.78709 5.90039C3.71442 6.12535 3.71384 6.37688 3.71384 6.87891V9.12109C3.71384 9.62312 3.71442 9.87465 3.78709 10.0996C3.8515 10.2988 3.95709 10.4827 4.09666 10.6387C4.25437 10.8149 4.47147 10.9413 4.90525 11.1943L6.79099 12.2949C7.23107 12.5516 7.45127 12.6802 7.68552 12.7305C7.89276 12.7749 8.1072 12.7749 8.31443 12.7305C8.54868 12.6802 8.7689 12.5516 9.20896 12.2949L11.0947 11.1943C11.5285 10.9413 11.7456 10.8149 11.9033 10.6387C12.0429 10.4827 12.1485 10.2988 12.2129 10.0996C12.2855 9.87464 12.2861 9.62312 12.2861 9.12109V6.87891C12.2861 6.37688 12.2855 6.12536 12.2129 5.90039C12.1485 5.70124 12.0429 5.51731 11.9033 5.36133C11.7456 5.18512 11.5285 5.0587 11.0947 4.80566L9.20896 3.70508C8.7689 3.44838 8.54868 3.31976 8.31443 3.26953Z" fill="#5D80FF"/>
<path d="M7.19381 5.47028C7.48736 5.29904 7.63413 5.21343 7.79034 5.17993C7.92854 5.15029 8.07146 5.15029 8.20966 5.17993C8.36588 5.21343 8.51265 5.29904 8.8062 5.47028L9.77762 6.03695C10.0669 6.20568 10.2115 6.29005 10.3167 6.40757C10.4097 6.51156 10.48 6.63387 10.5229 6.76663C10.5714 6.91667 10.5714 7.08411 10.5714 7.41899V8.58101C10.5714 8.91589 10.5714 9.08333 10.5229 9.23337C10.48 9.36613 10.4097 9.48844 10.3167 9.59243C10.2115 9.70995 10.0669 9.79432 9.77762 9.96305L8.8062 10.5297C8.51265 10.701 8.36588 10.7866 8.20966 10.8201C8.07146 10.8497 7.92854 10.8497 7.79034 10.8201C7.63413 10.7866 7.48736 10.701 7.19381 10.5297L6.22238 9.96305C5.93312 9.79432 5.78849 9.70995 5.68334 9.59243C5.59029 9.48844 5.52004 9.36613 5.4771 9.23337C5.42857 9.08333 5.42857 8.91589 5.42857 8.58101L5.42857 7.41899C5.42857 7.08411 5.42857 6.91667 5.4771 6.76663C5.52004 6.63387 5.59029 6.51156 5.68334 6.40757C5.78849 6.29005 5.93312 6.20568 6.22238 6.03695L7.19381 5.47028Z" fill="#5D80FF"/>
<path d="M7.19381 5.47028C7.48736 5.29904 7.63413 5.21343 7.79034 5.17993C7.92854 5.15029 8.07146 5.15029 8.20966 5.17993C8.36588 5.21343 8.51265 5.29904 8.8062 5.47028L9.77762 6.03695C10.0669 6.20568 10.2115 6.29005 10.3167 6.40757C10.4097 6.51156 10.48 6.63387 10.5229 6.76663C10.5714 6.91667 10.5714 7.08411 10.5714 7.41899V8.58101C10.5714 8.91589 10.5714 9.08333 10.5229 9.23337C10.48 9.36613 10.4097 9.48844 10.3167 9.59243C10.2115 9.70995 10.0669 9.79432 9.77762 9.96305L8.8062 10.5297C8.51265 10.701 8.36588 10.7866 8.20966 10.8201C8.07146 10.8497 7.92854 10.8497 7.79034 10.8201C7.63413 10.7866 7.48736 10.701 7.19381 10.5297L6.22238 9.96305C5.93312 9.79432 5.78849 9.70995 5.68334 9.59243C5.59029 9.48844 5.52004 9.36613 5.4771 9.23337C5.42857 9.08333 5.42857 8.91589 5.42857 8.58101L5.42857 7.41899C5.42857 7.08411 5.42857 6.91667 5.4771 6.76663C5.52004 6.63387 5.59029 6.51156 5.68334 6.40757C5.78849 6.29005 5.93312 6.20568 6.22238 6.03695L7.19381 5.47028Z" fill="white" fill-opacity="0.15" style="mix-blend-mode:plus-lighter"/>
</svg>
