<svg width="16" height="16" viewBox="0 0 16 16" fill="none" xmlns="http://www.w3.org/2000/svg">
<path opacity="0.8" d="M9 2.99999H11C12.4 2.99999 13.1 3.00006 13.6348 3.27245C14.1052 3.51214 14.4879 3.89482 14.7275 4.36523C14.8007 4.5089 14.8525 4.66487 14.8916 4.84277C14.8818 4.83763 14.8722 4.83217 14.8623 4.82714C14.4552 4.6197 14.0499 4.5534 13.707 4.52538C13.3817 4.49883 12.9948 4.49999 12.5996 4.49999H9.40039C9.00523 4.49999 8.61828 4.49883 8.29297 4.52538C7.95008 4.5534 7.54483 4.6197 7.1377 4.82714C6.57347 5.11471 6.11472 5.57347 5.82715 6.13769C5.6197 6.54482 5.55341 6.95007 5.52539 7.29296C5.49883 7.61827 5.5 8.00522 5.5 8.40038V11.5996C5.5 11.9948 5.49883 12.3817 5.52539 12.707C5.53303 12.8005 5.54513 12.8984 5.56055 13H5C3.60002 13 2.89999 12.9999 2.36523 12.7275C1.89483 12.4878 1.51214 12.1052 1.27246 11.6348C1.00007 11.1 1 10.4 1 8.99999V4.20019C1 3.08008 0.999786 2.51961 1.21777 2.09179C1.40951 1.71554 1.71555 1.4095 2.0918 1.21777C2.51962 0.999779 3.08009 0.999992 4.2002 0.999992H7L9 2.99999Z" fill="#4D74FF"/>
<path d="M8.5 9C8.77614 9 9 9.22386 9 9.5V13.5C9 13.7761 8.77614 14 8.5 14C7.67157 14 7 13.3284 7 12.5V9.5C7 9.22386 7.22386 9 7.5 9H8.5ZM14.5 9C14.7761 9 15 9.22386 15 9.5V12.5C15 13.3284 14.3284 14 13.5 14H10.5C10.2239 14 10 13.7761 10 13.5V9.5C10 9.22386 10.2239 9 10.5 9H14.5ZM13.5 6C14.3284 6 15 6.67157 15 7.5C15 7.77614 14.7761 8 14.5 8H7.5C7.22386 8 7 7.77614 7 7.5C7 6.67157 7.67157 6 8.5 6H13.5Z" fill="#94BAFF"/>
</svg>
