<svg width="16" height="16" viewBox="0 0 16 16" fill="none" xmlns="http://www.w3.org/2000/svg">
<path opacity="0.8" d="M9 2.99999H11C12.4 2.99999 13.1 3.00006 13.6348 3.27245C14.1052 3.51214 14.4879 3.89482 14.7275 4.36523C14.8007 4.5089 14.8525 4.66487 14.8916 4.84277C14.8818 4.83763 14.8722 4.83217 14.8623 4.82714C14.4552 4.6197 14.0499 4.5534 13.707 4.52538C13.3817 4.49883 12.9948 4.49999 12.5996 4.49999H10.9004C10.5052 4.49999 10.1183 4.49883 9.79297 4.52538C9.45008 4.5534 9.04483 4.6197 8.6377 4.82714C8.07347 5.11471 7.61472 5.57347 7.32715 6.13769C7.1197 6.54482 7.05341 6.95007 7.02539 7.29296C6.99883 7.61827 7 8.00522 7 8.40038V13H5C3.60002 13 2.89999 12.9999 2.36523 12.7275C1.89483 12.4878 1.51214 12.1052 1.27246 11.6348C1.00007 11.1 1 10.4 1 8.99999V4.20019C1 3.08008 0.999786 2.51961 1.21777 2.09179C1.40951 1.71554 1.71555 1.4095 2.0918 1.21777C2.51962 0.999779 3.08009 0.999992 4.2002 0.999992H7L9 2.99999Z" fill="#30A6F9"/>
<path d="M8.5 8.4C8.5 7.55992 8.5 7.13988 8.66349 6.81901C8.8073 6.53677 9.03677 6.3073 9.31901 6.16349C9.63988 6 10.0599 6 10.9 6H12.6C13.4401 6 13.8601 6 14.181 6.16349C14.4632 6.3073 14.6927 6.53677 14.8365 6.81901C15 7.13988 15 7.55992 15 8.4V13.0683C15 13.5361 15 13.77 14.902 13.9025C14.8166 14.018 14.6856 14.0912 14.5425 14.1034C14.3783 14.1174 14.1791 13.9948 13.7807 13.7497L12.1693 12.758C12.017 12.6643 11.9409 12.6175 11.8594 12.5992C11.7874 12.583 11.7126 12.583 11.6406 12.5992C11.5591 12.6175 11.483 12.6643 11.3307 12.758L9.71928 13.7497C9.3209 13.9948 9.1217 14.1174 8.95751 14.1034C8.81437 14.0912 8.6834 14.018 8.59798 13.9025C8.5 13.77 8.5 13.5361 8.5 13.0683V8.4Z" fill="#83C2FE"/>
</svg>
