<svg width="16" height="16" viewBox="0 0 16 16" fill="none" xmlns="http://www.w3.org/2000/svg">
<path opacity="0.8" d="M9 3H11C12.4 3 13.1 3.00007 13.6348 3.27246C14.1052 3.51214 14.4879 3.89483 14.7275 4.36523C14.9746 4.85023 14.9959 5.47118 14.998 6.62695L14.3535 5.98242L14.1699 5.81641C13.9571 5.64204 13.7178 5.50581 13.4629 5.41016C13.4507 5.28774 13.4378 5.20482 13.4248 5.14941L13.3906 5.0459C13.3187 4.90484 13.2148 4.78366 13.0879 4.69141L12.9541 4.60938C12.9334 4.59883 12.8436 4.55578 12.5195 4.5293C12.1779 4.50141 11.7246 4.5 11 4.5H8.37891L6.37891 2.5H4.2002C3.61556 2.5 3.26702 2.50138 3.00879 2.52246C2.88835 2.5323 2.82096 2.54407 2.78809 2.55176L2.77344 2.55469C2.70286 2.59065 2.64185 2.64258 2.5957 2.70605L2.55469 2.77344C2.57139 2.74065 2.54213 2.76805 2.52246 3.00879C2.50138 3.26702 2.5 3.61556 2.5 4.2002V9C2.5 9.72461 2.50141 10.1779 2.5293 10.5195C2.55578 10.8437 2.59883 10.9334 2.60938 10.9541L2.69141 11.0879C2.78366 11.2148 2.90484 11.3187 3.0459 11.3906L3.14941 11.4248C3.21485 11.4402 3.31847 11.4575 3.48047 11.4707C3.78748 11.4958 4.18474 11.4985 4.78809 11.499C4.90414 11.7197 5.05291 11.924 5.23242 12.1035L6.12891 13H5C3.77477 13 3.08563 13 2.57422 12.8174L2.36523 12.7275C1.95378 12.5179 1.60933 12.199 1.36914 11.8076L1.27246 11.6348C1.00007 11.1 1 10.4 1 9V4.2002C1 3.22019 1.00049 2.66887 1.14648 2.25977L1.21777 2.0918C1.38555 1.76256 1.64085 1.48707 1.9541 1.29492L2.0918 1.21777C2.41263 1.0543 2.80803 1.01315 3.45801 1.00293L4.2002 1H7L9 3Z" fill="#0CB081"/>
<path d="M9.29528 6.75C9.68566 6.75014 10.0023 7.06663 10.0023 7.45703C10.0023 7.64449 9.92779 7.82444 9.79528 7.95703L7.50232 10.25L9.79528 12.543C9.92779 12.6756 10.0023 12.8555 10.0023 13.043C10.0023 13.4334 9.68566 13.7499 9.29528 13.75C9.10783 13.75 8.92788 13.6755 8.79528 13.543L6.38611 11.1338C5.89795 10.6456 5.89795 9.85437 6.38611 9.36621L8.79528 6.95703C8.92788 6.82453 9.10783 6.75 9.29528 6.75ZM12.7093 6.75C12.8968 6.75003 13.0768 6.82445 13.2093 6.95703L15.6185 9.36621C16.1064 9.85432 16.1064 10.6457 15.6185 11.1338L13.2093 13.543C13.0768 13.6755 12.8968 13.75 12.7093 13.75C12.3188 13.75 12.0024 13.4335 12.0023 13.043C12.0023 12.8554 12.0767 12.6756 12.2093 12.543L14.5023 10.25L12.2093 7.95703C12.0767 7.82442 12.0023 7.64457 12.0023 7.45703C12.0024 7.06654 12.3188 6.75 12.7093 6.75Z" fill="#7FD2BB"/>
</svg>
