<svg width="16" height="16" viewBox="0 0 16 16" fill="none" xmlns="http://www.w3.org/2000/svg">
<path opacity="0.8" d="M9.00043 2.99985H11.0004C12.4003 2.99985 13.1005 2.99985 13.6352 3.27231C14.1056 3.512 14.4883 3.89471 14.728 4.36508C14.9503 4.80155 14.989 5.34834 14.9965 6.29575C14.9704 6.28593 14.9449 6.27558 14.9194 6.26645C14.612 6.1566 14.2376 6.0572 13.8559 5.95493L11.7319 5.38559C11.3502 5.28333 10.9768 5.18241 10.6557 5.12387C10.3172 5.06219 9.90832 5.02106 9.46136 5.11606C8.84212 5.24783 8.2806 5.5724 7.85687 6.04282C7.55112 6.38239 7.38186 6.75695 7.26605 7.0809C7.15626 7.38815 7.05676 7.76189 6.95453 8.1434L6.38617 10.2684C6.28392 10.65 6.18201 11.0235 6.12347 11.3446C6.06184 11.6829 6.02081 12.0913 6.11566 12.5379L6.17426 12.7674C6.19765 12.8463 6.22565 12.9235 6.25531 12.9998H5.00043C3.6003 12.9998 2.89946 12.9999 2.36469 12.7274C1.89443 12.4877 1.51252 12.1049 1.27289 11.6346C1.00047 11.0998 1.00043 10.3999 1.00043 8.99985V4.20004C1.00043 3.07994 1.00021 2.51947 1.2182 2.09164C1.40996 1.71549 1.71603 1.4093 2.09222 1.21762C2.51996 0.999814 3.08005 0.999847 4.19965 0.999847H7.00043L9.00043 2.99985Z" fill="#30A6F9"/>
<path d="M13.468 7.40386C14.2791 7.62119 14.6853 7.72985 14.953 7.9706C15.1884 8.18256 15.3511 8.46449 15.417 8.77434C15.4917 9.12648 15.3827 9.53263 15.1653 10.3437L14.5961 12.468C14.3788 13.2791 14.2701 13.6854 14.0294 13.953C13.8174 14.1884 13.5355 14.3512 13.2257 14.417C12.8735 14.4917 12.4674 14.3827 11.6563 14.1653L9.53198 13.5961C8.72088 13.3788 8.31463 13.2702 8.04701 13.0294C7.81161 12.8174 7.64883 12.5355 7.58297 12.2257C7.50829 11.8735 7.61732 11.4674 7.83465 10.6563L8.40385 8.53199C8.62118 7.72089 8.72984 7.31465 8.97059 7.04702C9.18254 6.81162 9.46448 6.64884 9.77432 6.58298C10.1265 6.5083 10.5326 6.61733 11.3437 6.83466L13.468 7.40386ZM13.4026 8.4216C13.1324 8.34922 12.9973 8.31336 12.88 8.33819C12.7767 8.36014 12.6827 8.4144 12.6121 8.49287C12.5319 8.58206 12.4954 8.71701 12.423 8.98715L12.3194 9.3739C12.247 9.64403 12.2111 9.77916 12.236 9.89648C12.2579 9.99976 12.3122 10.0937 12.3906 10.1644C12.4798 10.2446 12.6148 10.2811 12.8849 10.3535L13.2717 10.4571C13.5418 10.5295 13.6769 10.5653 13.7942 10.5405C13.8975 10.5185 13.9915 10.4643 14.0622 10.3858C14.1423 10.2966 14.1788 10.1617 14.2512 9.89153L14.3548 9.50479C14.4272 9.23465 14.4631 9.09952 14.4383 8.9822C14.4163 8.87892 14.362 8.78494 14.2836 8.71429C14.1944 8.63412 14.0594 8.59761 13.7893 8.52523L13.4026 8.4216Z" fill="#83C2FE"/>
</svg>
