<svg width="16" height="16" viewBox="0 0 16 16" fill="none" xmlns="http://www.w3.org/2000/svg">
<path opacity="0.8" d="M9 3.00034H11C12.4 3.00034 13.1 3.0004 13.6348 3.2728C14.1051 3.51248 14.4879 3.89521 14.7275 4.36557C14.8671 4.63962 14.9336 4.95715 14.9668 5.38998L14.8779 5.35287L13.0449 4.66537L12.9541 4.60971C12.9398 4.60243 12.8924 4.58008 12.7578 4.55795L11.8779 4.22787L11.6631 4.15756C11.2292 4.03821 10.7708 4.03821 10.3369 4.15756L10.1221 4.22787L9.39551 4.50034H8.37891L6.37891 2.50034H4.2002C3.61556 2.50034 3.26702 2.50171 3.00879 2.5228C2.88837 2.53264 2.82096 2.54441 2.78809 2.55209L2.77344 2.55502C2.70291 2.59098 2.64183 2.64295 2.5957 2.70639L2.55469 2.77377C2.57139 2.74098 2.54213 2.76838 2.52246 3.00912C2.5014 3.26732 2.5 3.61614 2.5 4.20053V9.00034C2.5 9.72475 2.50141 10.1783 2.5293 10.5199C2.55578 10.8437 2.59884 10.9338 2.60938 10.9544L2.69141 11.0882C2.78364 11.215 2.90492 11.3191 3.0459 11.391L3.14941 11.4251C3.21486 11.4405 3.31853 11.4578 3.48047 11.471C3.82206 11.4989 4.27541 11.5003 5 11.5003H5.74902C5.89825 12.0269 6.11289 12.5303 6.38672 13.0003H5C3.77485 13.0003 3.08562 13.0003 2.57422 12.8177L2.36523 12.7279C1.95386 12.5183 1.60933 12.1993 1.36914 11.808L1.27246 11.6351C1.00009 11.1004 1 10.4001 1 9.00034V4.20053C1 3.22076 1.00059 2.66918 1.14648 2.2601L1.21777 2.09213C1.38552 1.76295 1.64092 1.4874 1.9541 1.29526L2.0918 1.21811C2.41263 1.05464 2.80803 1.01349 3.45801 1.00327L4.2002 1.00034H7L9 3.00034Z" fill="#0CB081"/>
<path d="M10.4736 5.69708C10.813 5.56995 11.187 5.56995 11.5264 5.69708L14.3516 6.75665C14.7417 6.90311 15 7.27646 15 7.69317V9.72833C15 11.4521 14.1121 13.0548 12.6504 13.9686L11.5303 14.6688C11.206 14.8714 10.794 14.8714 10.4697 14.6688L9.34961 13.9686C7.88793 13.0548 7 11.4521 7 9.72833V7.69317C7 7.27646 7.25834 6.90311 7.64844 6.75665L10.4736 5.69708ZM12.8906 8.51153C12.6211 8.29601 12.2273 8.33978 12.0117 8.60919L10.4482 10.5633L9.94238 10.0574L9.84375 9.97735C9.60123 9.81748 9.27108 9.84406 9.05762 10.0574C8.84417 10.2709 8.81768 10.601 8.97754 10.8436L9.05762 10.9422L10.0576 11.9422C10.1832 12.0678 10.3568 12.1336 10.5342 12.1238C10.7117 12.114 10.8772 12.0293 10.9883 11.8904L12.9883 9.39044C13.2038 9.1209 13.1601 8.72713 12.8906 8.51153Z" fill="#7FD2BB"/>
</svg>
