<svg width="16" height="16" viewBox="0 0 16 16" fill="none" xmlns="http://www.w3.org/2000/svg">
<g clip-path="url(#clip0_203_881)">
<path opacity="0.7" d="M9 2.99971H11C12.3999 2.99971 13.1 2.99984 13.6348 3.27217C14.1051 3.51182 14.4878 3.89465 14.7275 4.36494C14.8688 4.64221 14.935 4.96433 14.9678 5.40498C14.8099 5.40655 14.6505 5.42637 14.4941 5.47041C14.1596 5.56465 13.8278 5.69362 13.4854 5.73604C13.4814 5.64364 13.4771 5.55879 13.4707 5.48018C13.4575 5.31834 13.4401 5.21452 13.4248 5.14912L13.3906 5.04561C13.3187 4.90465 13.2147 4.78332 13.0879 4.69112L12.9541 4.60909C12.9332 4.59844 12.843 4.55544 12.5195 4.52901C12.1779 4.50112 11.7246 4.49971 11 4.49971H8.37891L6.37891 2.49971H4.2002C3.61557 2.49971 3.26702 2.50109 3.00879 2.52217C2.88842 2.53201 2.82098 2.54378 2.78809 2.55147L2.77344 2.5544C2.70292 2.59033 2.64184 2.64237 2.5957 2.70576L2.55469 2.77315C2.57114 2.74073 2.54208 2.76858 2.52246 3.0085C2.50138 3.26669 2.5 3.61544 2.5 4.19991V8.99971C2.5 9.72411 2.50143 10.1777 2.5293 10.5192C2.55568 10.8422 2.59863 10.9327 2.60938 10.9538L2.69141 11.0876C2.78363 11.2144 2.90489 11.3184 3.0459 11.3903L3.14941 11.4245C3.21485 11.4399 3.31849 11.4572 3.48047 11.4704C3.82206 11.4983 4.2754 11.4997 5 11.4997H7.14258C7.13811 11.5102 7.13493 11.5214 7.12988 11.5319L6.99414 11.7917L6.79785 12.1325L6.7959 12.1384C6.6398 12.4123 6.54784 12.7051 6.51465 12.9997H5C3.77477 12.9997 3.08563 12.9997 2.57422 12.8171L2.36523 12.7272C1.95383 12.5176 1.60931 12.1987 1.36914 11.8073L1.27246 11.6345C1.00019 11.0997 1 10.3995 1 8.99971V4.19991C1 3.22008 1.0005 2.66854 1.14648 2.25948L1.21777 2.09151C1.38555 1.76237 1.64092 1.48673 1.9541 1.29463L2.0918 1.21748C2.41261 1.05406 2.80811 1.01286 3.45801 1.00264L4.2002 0.99971H7L9 2.99971Z" fill="#7E7E92"/>
<path d="M14.8617 7.14078C15.1279 6.8746 15.5771 7.1154 15.5033 7.48453L15.4154 7.923C15.3188 8.40486 14.8961 8.7519 14.4046 8.75211H13.5003V12.0158C13.5004 12.2842 13.7183 12.5021 13.9867 12.5021C14.1705 12.5019 14.339 12.398 14.4212 12.2336L14.5794 11.9171C14.7646 11.5468 15.2149 11.3963 15.5853 11.5812C15.9554 11.7665 16.1061 12.2168 15.9212 12.5871L15.763 12.9044C15.4267 13.5771 14.7387 14.0019 13.9867 14.0021C12.8898 14.0021 12.0004 13.1126 12.0003 12.0158V8.75211H10.5003V9.90836C10.5003 10.9362 10.2659 11.9491 9.81675 12.8693L9.6107 13.258L9.40171 13.6242C9.19628 13.9837 8.73785 14.1087 8.37828 13.9035C8.01867 13.698 7.89356 13.2397 8.09898 12.88L8.30894 12.5138L8.46812 12.2111C8.76755 11.5975 8.9452 10.9314 8.9896 10.2502L9.00035 9.90836V8.75211H7.90757C7.80678 8.75211 7.71034 8.79223 7.63902 8.86343C7.37283 9.12962 6.92261 8.88882 6.99644 8.51968L7.08433 8.08121C7.18084 7.59906 7.60432 7.25211 8.09605 7.25211H14.5921C14.6931 7.25211 14.7903 7.21213 14.8617 7.14078Z" fill="#BEBED1"/>
</g>
<defs>
<clipPath id="clip0_203_881">
<rect width="16" height="16" fill="white"/>
</clipPath>
</defs>
</svg>
