<svg width="16" height="16" viewBox="0 0 16 16" fill="none" xmlns="http://www.w3.org/2000/svg">
<path opacity="0.8" d="M9 3H11C12.4 3 13.1 3.00007 13.6348 3.27246C14.1052 3.51214 14.4879 3.89483 14.7275 4.36523C14.9999 4.89999 15 5.60002 15 7V7.5H13.5V7C13.5 6.27539 13.4986 5.82206 13.4707 5.48047C13.4575 5.31847 13.4402 5.21485 13.4248 5.14941L13.3906 5.0459C13.3187 4.90484 13.2148 4.78366 13.0879 4.69141L12.9541 4.60938C12.9334 4.59883 12.8436 4.55578 12.5195 4.5293C12.1779 4.50141 11.7246 4.5 11 4.5H8.37891L6.37891 2.5H4.2002C3.61556 2.5 3.26702 2.50138 3.00879 2.52246C2.88835 2.5323 2.82096 2.54407 2.78809 2.55176L2.77344 2.55469C2.70286 2.59065 2.64185 2.64258 2.5957 2.70605L2.55469 2.77344C2.57139 2.74065 2.54213 2.76805 2.52246 3.00879C2.50138 3.26702 2.5 3.61556 2.5 4.2002V9C2.5 9.72461 2.50141 10.1779 2.5293 10.5195C2.55578 10.8437 2.59883 10.9334 2.60938 10.9541L2.69141 11.0879C2.78366 11.2148 2.90484 11.3187 3.0459 11.3906L3.14941 11.4248C3.21485 11.4402 3.31847 11.4575 3.48047 11.4707C3.73573 11.4915 4.05339 11.4953 4.5 11.4971V12C4.5 12.3468 4.55059 12.6818 4.64453 12.998C3.63727 12.9964 3.03394 12.9815 2.57422 12.8174L2.36523 12.7275C1.95378 12.5179 1.60933 12.199 1.36914 11.8076L1.27246 11.6348C1.00007 11.1 1 10.4 1 9V4.2002C1 3.22019 1.00049 2.66887 1.14648 2.25977L1.21777 2.0918C1.38555 1.76256 1.64085 1.48707 1.9541 1.29492L2.0918 1.21777C2.41263 1.0543 2.80803 1.01315 3.45801 1.00293L4.2002 1H7L9 3Z" fill="#9B61FF"/>
<path d="M8.25 7C8.48217 7 8.59851 7.00014 8.69629 7.00977C9.64563 7.10339 10.3966 7.85437 10.4902 8.80371C10.4999 8.90149 10.5 9.01783 10.5 9.25V11.75C10.5 11.9822 10.4999 12.0985 10.4902 12.1963C10.3966 13.1456 9.64563 13.8966 8.69629 13.9902C8.59851 13.9999 8.48217 14 8.25 14C8.01783 14 7.90149 13.9999 7.80371 13.9902C6.85437 13.8966 6.10339 13.1456 6.00977 12.1963C6.00014 12.0985 6 11.9822 6 11.75V9.25C6 9.01783 6.00014 8.90149 6.00977 8.80371C6.10339 7.85437 6.85437 7.10339 7.80371 7.00977C7.90149 7.00014 8.01783 7 8.25 7ZM12 9C12.6817 9 13.299 9.27342 13.75 9.71582C14.201 9.27342 14.8183 9 15.5 9H15.5713C15.808 9 16 9.19202 16 9.42871V10C16 10.2761 15.7761 10.5 15.5 10.5C14.9477 10.5 14.5 10.9477 14.5 11.5C14.5 12.0523 14.9477 12.5 15.5 12.5C15.7761 12.5 16 12.7239 16 13V13.5713C16 13.808 15.808 14 15.5713 14H15.5C14.8181 14 14.201 13.7259 13.75 13.2832C13.299 13.7259 12.6819 14 12 14H11.9287C11.692 14 11.5 13.808 11.5 13.5713V13C11.5 12.7239 11.7239 12.5 12 12.5C12.5523 12.5 13 12.0523 13 11.5C13 10.9477 12.5523 10.5 12 10.5C11.7239 10.5 11.5 10.2761 11.5 10V9.42871C11.5 9.19202 11.692 9 11.9287 9H12ZM8.25 8.5C8.01703 8.5 7.90048 8.50003 7.80859 8.53809C7.68613 8.58883 7.58883 8.68613 7.53809 8.80859C7.50003 8.90048 7.5 9.01703 7.5 9.25V11.75C7.5 11.983 7.50003 12.0995 7.53809 12.1914C7.58883 12.3139 7.68613 12.4112 7.80859 12.4619C7.90048 12.5 8.01703 12.5 8.25 12.5C8.48297 12.5 8.59952 12.5 8.69141 12.4619C8.81387 12.4112 8.91117 12.3139 8.96191 12.1914C8.99997 12.0995 9 11.983 9 11.75V9.25C9 9.01703 8.99997 8.90048 8.96191 8.80859C8.91117 8.68613 8.81387 8.58883 8.69141 8.53809C8.59952 8.50003 8.48297 8.5 8.25 8.5Z" fill="#BDA1FF"/>
</svg>
