<svg width="16" height="16" viewBox="0 0 16 16" fill="none" xmlns="http://www.w3.org/2000/svg">
<path opacity="0.8" d="M9.00031 2.99987H11.0003C12.4002 2.99987 13.1003 2.99987 13.6351 3.27233C14.1055 3.51202 14.4882 3.8947 14.7278 4.3651C15.0002 4.89984 15.0003 5.6 15.0003 6.99987V7.37878L13.2679 5.64635L13.0784 5.47448C12.162 4.72703 10.8387 4.72716 9.92218 5.47448L9.73273 5.64635L6.64679 8.73229C5.67058 9.70858 5.67058 11.2912 6.64679 12.2674L7.37921 12.9999H5.00031C3.60017 12.9999 2.89934 12.9999 2.36456 12.7274C1.89434 12.4877 1.51238 12.1049 1.27277 11.6346C1.00036 11.0999 1.00031 10.3999 1.00031 8.99987V4.20007C1.00031 3.07996 1.00009 2.51949 1.21808 2.09167C1.40984 1.71549 1.71589 1.40934 2.0921 1.21764C2.51984 0.999795 3.07992 0.99987 4.19952 0.99987H7.00031L9.00031 2.99987Z" fill="#FF9B20"/>
<path d="M12.3184 12.9541C12.6095 12.7601 13 12.9685 13 13.3184C13 13.4346 12.9533 13.5458 12.8711 13.628L12.2071 14.293C11.8166 14.6834 11.1835 14.6833 10.793 14.293L10.128 13.628C10.046 13.5458 10 13.4345 10 13.3184C10.0001 12.9686 10.3896 12.7602 10.6807 12.9541L11.5 13.5L12.3184 12.9541ZM8.68168 9.00004C9.03127 9.00029 9.2397 9.3897 9.04594 9.6807L8.50004 10.5L9.04594 11.3184C9.23996 11.6094 9.03136 11.9998 8.68168 12C8.5655 12 8.45329 11.9533 8.37113 11.8711L7.70707 11.2071C7.31657 10.8166 7.31662 10.1835 7.70707 9.79301L8.37113 9.12797C8.45329 9.04581 8.5655 9.00004 8.68168 9.00004ZM11.5 9.00004C12.3284 9.00012 13 9.67166 13 10.5C13 11.3283 12.3283 12 11.5 12C10.6717 12 10.0001 11.3284 10 10.5C10 9.67161 10.6716 9.00004 11.5 9.00004ZM14.3184 9.00004C14.4345 9.00004 14.5458 9.04596 14.628 9.12797L15.293 9.79301C15.6833 10.1835 15.6834 10.8166 15.293 11.2071L14.628 11.8711C14.5458 11.9533 14.4346 12 14.3184 12C13.9685 12 13.7601 11.6095 13.9541 11.3184L14.5 10.5L13.9541 9.6807C13.7602 9.3896 13.9686 9.00006 14.3184 9.00004ZM10.793 6.70707C11.1835 6.31662 11.8166 6.31657 12.2071 6.70707L12.8711 7.37113C12.9533 7.45329 13 7.5655 13 7.68168C12.9998 8.03136 12.6094 8.23996 12.3184 8.04594L11.5 7.50004L10.6807 8.04594C10.3897 8.2397 10.0003 8.03127 10 7.68168C10 7.5655 10.0458 7.45329 10.128 7.37113L10.793 6.70707Z" fill="#FFC076"/>
</svg>
