<svg width="16" height="16" viewBox="0 0 16 16" fill="none" xmlns="http://www.w3.org/2000/svg">
<path opacity="0.8" d="M9.00015 3.0003H11.0002C12.4 3.0003 13.1002 3.00037 13.6349 3.27276C14.1052 3.51245 14.4881 3.89521 14.7277 4.36553C14.8621 4.62959 14.9296 4.93403 14.964 5.34307L14.7677 5.14678L14.5753 4.97198C13.8733 4.39712 12.9872 4.2942 12.2169 4.51202C11.9148 4.5007 11.53 4.5003 11.0002 4.5003H8.37906L6.37906 2.5003H4.20035C3.61581 2.5003 3.26716 2.50169 3.00894 2.52276C2.88861 2.53259 2.82114 2.54437 2.78824 2.55206L2.77359 2.55499C2.70301 2.59095 2.64201 2.64288 2.59586 2.70635L2.55484 2.77374C2.57155 2.74094 2.54228 2.76834 2.52261 3.00909C2.50155 3.26729 2.50015 3.61607 2.50015 4.20049V9.0003C2.50015 9.72473 2.50156 10.1783 2.52945 10.5198C2.55593 10.8437 2.59899 10.9337 2.60953 10.9544L2.69156 11.0882C2.78379 11.2149 2.90509 11.3191 3.04605 11.3909L3.14957 11.4251C3.21502 11.4404 3.3188 11.4578 3.48062 11.471C3.8222 11.4989 4.27567 11.5003 5.00015 11.5003H5.7482L5.548 12.6028C5.52393 12.7353 5.51721 12.8686 5.52359 13.0003H5.00015C3.77511 13.0003 3.08576 13.0002 2.57437 12.8177L2.36539 12.7278C1.95403 12.5182 1.60948 12.1992 1.36929 11.8079L1.27261 11.6351C1.00024 11.1003 1.00015 10.4001 1.00015 9.0003V4.20049C1.00015 3.22065 1.00072 2.66915 1.14664 2.26006L1.21793 2.09209C1.3857 1.76286 1.64101 1.48736 1.95425 1.29522L2.09195 1.21807C2.41278 1.0546 2.80819 1.01345 3.45816 1.00323L4.20035 1.0003H7.00015L9.00015 3.0003Z" fill="#FD7334"/>
<path d="M12.2345 6.14144C12.6814 5.81688 13.3166 5.81658 13.7071 6.20711L14.7929 7.29289C15.1834 7.68342 15.1831 8.31861 14.8586 8.76546C14.1588 9.7289 13.5 11.0578 13.5 12V12.1654C13.5 12.6487 13.1544 13.0628 12.6789 13.1493L8.78741 13.8568C8.54627 13.9007 8.3926 13.6074 8.56591 13.4341L10.5 11.5C11.064 11.5 11.5 11.064 11.5 10.5C11.5 9.93596 11.064 9.5 10.5 9.5C9.93596 9.5 9.5 9.93596 9.5 10.5L7.56591 12.4341C7.3926 12.6074 7.09932 12.4537 7.14317 12.2126L7.85071 8.32111C7.93716 7.84562 8.35129 7.5 8.83458 7.5H9C9.94224 7.5 11.2711 6.84123 12.2345 6.14144Z" fill="#FFA366"/>
</svg>
