<svg width="16" height="16" viewBox="0 0 16 16" fill="none" xmlns="http://www.w3.org/2000/svg">
<path opacity="0.8" d="M9.00015 2.99957H11.0002C12.4 2.99957 13.1002 2.99967 13.6349 3.27203C14.1053 3.51169 14.488 3.89444 14.7277 4.3648C15.0001 4.89952 15.0002 5.59972 15.0002 6.99957V8.08257L13.9464 6.43414C12.7273 4.52672 9.98981 4.4671 8.67593 6.25542L8.55386 6.43414L5.90738 10.5767C5.41193 11.3522 5.30118 12.2151 5.48062 12.9996H5.00015C3.60013 12.9996 2.90015 12.9995 2.36539 12.7271C1.89509 12.4875 1.51231 12.1056 1.27261 11.6353C1.00013 11.1005 1.00015 10.3997 1.00015 8.99957V4.19976C1.00015 3.08006 1.0001 2.5201 1.21793 2.09234C1.40964 1.71608 1.71571 1.41007 2.09195 1.21832C2.51977 1.00033 3.08024 0.999565 4.20035 0.999565H7.00015L9.00015 2.99957Z" fill="#7E7E92"/>
<path d="M8.75 10.5C9.7165 10.5 10.5 11.2835 10.5 12.25C10.5 13.2165 9.7165 14 8.75 14C7.7835 14 7 13.2165 7 12.25C7 11.2835 7.7835 10.5 8.75 10.5ZM13.75 10.5C14.7165 10.5 15.5 11.2835 15.5 12.25C15.5 13.2165 14.7165 14 13.75 14C12.7835 14 12 13.2165 12 12.25C12 11.2835 12.7835 10.5 13.75 10.5ZM11.25 6.5C12.2165 6.5 13 7.2835 13 8.25C13 9.2165 12.2165 10 11.25 10C10.2835 10 9.5 9.2165 9.5 8.25C9.5 7.2835 10.2835 6.5 11.25 6.5Z" fill="#BEBED1"/>
</svg>
