<svg width="16" height="16" viewBox="0 0 16 16" fill="none" xmlns="http://www.w3.org/2000/svg">
<g clip-path="url(#clip0_203_881)">
<path opacity="0.7" d="M9.0004 2.99982H11.0004C12.4001 2.99982 13.1005 2.99991 13.6352 3.27228C14.1055 3.51197 14.4883 3.89472 14.7279 4.36505C14.8692 4.64234 14.9354 4.96437 14.9682 5.40509C14.8102 5.40662 14.651 5.42644 14.4945 5.47052C14.1597 5.56482 13.8275 5.69379 13.4848 5.73615C13.4809 5.64372 13.4775 5.55892 13.4711 5.48029C13.4579 5.31837 13.4405 5.21465 13.4252 5.14923L13.391 5.04572C13.3191 4.90472 13.2151 4.78346 13.0883 4.69122L12.9545 4.60919C12.9338 4.59865 12.8437 4.5556 12.5199 4.52911C12.1784 4.50123 11.7248 4.49982 11.0004 4.49982H8.3793L6.3793 2.49982H4.20059C3.61625 2.49982 3.26738 2.50123 3.00919 2.52228C2.88924 2.53208 2.8215 2.54389 2.78848 2.55157L2.77383 2.5545C2.70336 2.59041 2.64222 2.64253 2.5961 2.70587L2.55508 2.77325C2.57145 2.74095 2.54247 2.7688 2.52286 3.00861C2.50178 3.26681 2.5004 3.61548 2.5004 4.20001V8.99982C2.5004 9.72432 2.50182 10.1778 2.52969 10.5193C2.55618 10.8435 2.59923 10.9332 2.60977 10.9539L2.6918 11.0877C2.78405 11.2146 2.90526 11.3185 3.0463 11.3904L3.14981 11.4246C3.21527 11.4399 3.31913 11.4573 3.48087 11.4705C3.82242 11.4984 4.27605 11.4998 5.0004 11.4998H7.142C7.13752 11.5103 7.13435 11.5215 7.1293 11.532L6.99356 11.7918L6.79825 12.1326L6.79727 12.1356L6.79532 12.1385C6.63933 12.4123 6.54822 12.7053 6.51505 12.9998H5.0004C3.77539 12.9998 3.086 12.9997 2.57462 12.8172L2.36563 12.7274C1.95419 12.5177 1.60973 12.1988 1.36954 11.8074L1.27286 11.6346C1.00046 11.0998 1.0004 10.3998 1.0004 8.99982V4.20001C1.0004 3.22012 1.00089 2.66867 1.14688 2.25958L1.21817 2.09161C1.38595 1.76251 1.64134 1.48683 1.9545 1.29474L2.09219 1.21759C2.41296 1.05428 2.80869 1.01297 3.4584 1.00275L4.20059 0.999817H7.0004L9.0004 2.99982Z" fill="#7E7E92"/>
<path d="M14.8617 7.14078C15.1279 6.8746 15.5771 7.1154 15.5033 7.48453L15.4154 7.923C15.3188 8.40486 14.8961 8.7519 14.4046 8.75211H13.5003V12.0158C13.5004 12.2842 13.7183 12.5021 13.9867 12.5021C14.1705 12.5019 14.339 12.398 14.4212 12.2336L14.5794 11.9171C14.7646 11.5468 15.2149 11.3963 15.5853 11.5812C15.9554 11.7665 16.1061 12.2168 15.9212 12.5871L15.763 12.9044C15.4267 13.5771 14.7387 14.0019 13.9867 14.0021C12.8898 14.0021 12.0004 13.1126 12.0003 12.0158V8.75211H10.5003V9.90836C10.5003 10.9362 10.2659 11.9491 9.81675 12.8693L9.6107 13.258L9.40171 13.6242C9.19628 13.9837 8.73785 14.1087 8.37828 13.9035C8.01867 13.698 7.89356 13.2397 8.09898 12.88L8.30894 12.5138L8.46812 12.2111C8.76755 11.5975 8.9452 10.9314 8.9896 10.2502L9.00035 9.90836V8.75211H7.90757C7.80678 8.75211 7.71034 8.79223 7.63902 8.86343C7.37283 9.12962 6.92261 8.88882 6.99644 8.51968L7.08433 8.08121C7.18084 7.59906 7.60432 7.25211 8.09605 7.25211H14.5921C14.6931 7.25211 14.7903 7.21213 14.8617 7.14078Z" fill="#BEBED1"/>
</g>
<defs>
<clipPath id="clip0_203_881">
<rect width="16" height="16" fill="white"/>
</clipPath>
</defs>
</svg>
