<svg width="16" height="16" viewBox="0 0 16 16" fill="none" xmlns="http://www.w3.org/2000/svg">
<path opacity="0.8" d="M9.00015 3.00007H11.0002C12.4002 3.00007 13.1002 3.00007 13.6349 3.27253C14.1053 3.51221 14.488 3.8949 14.7277 4.3653C15 4.90005 15.0002 5.60019 15.0002 7.00007V7.88679C14.6688 7.71841 14.3125 7.58869 13.9357 7.50495L13.1759 7.33601C12.7734 7.24655 12.4179 7.01551 12.173 6.68855L12.0753 6.54206L11.923 6.28913L11.838 6.1573C10.9491 4.8789 9.03856 4.89085 8.16519 6.17976L8.08121 6.31355L5.86246 10.1163C5.26602 11.1387 5.57919 12.3391 6.38882 13.0001H5.00015C3.60031 13.0001 2.90012 12.9999 2.36539 12.7276C1.89498 12.4879 1.5123 12.1052 1.27261 11.6348C1.00016 11.1001 1.00015 10.4001 1.00015 9.00007V4.20026C1.00015 3.08016 0.999939 2.51969 1.21793 2.09187C1.40968 1.71558 1.71566 1.40957 2.09195 1.21784C2.51977 0.999856 3.08024 1.00007 4.20035 1.00007H7.00015L9.00015 3.00007Z" fill="#FF9B20"/>
<path d="M9.35048 7.125C9.63916 6.625 10.3608 6.625 10.6495 7.125L12.8146 10.875C13.1033 11.375 12.7424 12 12.1651 12H7.83494C7.25759 12 6.89674 11.375 7.18542 10.875L9.35048 7.125Z" fill="#FFC076"/>
<path d="M13.1787 9.00586C14.7524 9.09833 16 10.4032 16 12C16 13.6569 14.6569 15 13 15C11.7898 15 10.7497 14.2821 10.2754 13.25H12.165C13.6566 13.25 14.6059 11.686 13.9639 10.376L13.8975 10.25L13.1787 9.00586ZM12.8525 11.5508L12.8145 11.625C12.8295 11.5989 12.8429 11.5718 12.8545 11.5439L12.8525 11.5508Z" fill="#FFC076"/>
</svg>
