<svg width="16" height="16" viewBox="0 0 16 16" fill="none" xmlns="http://www.w3.org/2000/svg">
<path opacity="0.8" d="M8.99994 2.99994H10.9999C12.3999 2.99994 13.1 3.00004 13.6347 3.2724C14.1051 3.51209 14.4878 3.89477 14.7275 4.36518C14.9961 4.89255 14.9989 5.58064 14.999 6.94233L13.8935 6.15229C13.3 5.72837 12.5887 5.50001 11.8593 5.49994H7.49994C6.39541 5.49997 5.49997 6.39542 5.49994 7.49994V7.99994C5.49994 8.82808 6.00319 9.53892 6.72064 9.84272C7.09101 9.99949 7.27693 10.0781 7.34174 10.1386C7.41854 10.2104 7.43341 10.233 7.46967 10.332C7.50002 10.4152 7.49994 10.5436 7.49994 10.7997V12.9999H4.99994C3.59994 12.9999 2.89993 12.9999 2.36517 12.7275C1.89477 12.4878 1.51208 12.1051 1.2724 11.6347C1.00004 11.1 0.999939 10.3999 0.999939 8.99994V4.20014C0.999939 3.08003 0.999725 2.51956 1.21771 2.09174C1.40944 1.7155 1.7155 1.40945 2.09174 1.21772C2.51956 0.999729 3.08003 0.999943 4.20013 0.999943H6.99994L8.99994 2.99994Z" fill="#FD7334"/>
<path d="M9 8.5H7.75C7.51703 8.5 7.40054 8.5 7.30866 8.46194C7.18614 8.41119 7.08881 8.31386 7.03806 8.19134C7 8.09946 7 7.98297 7 7.75C7 7.51703 7 7.40054 7.03806 7.30866C7.08881 7.18614 7.18614 7.08881 7.30866 7.03806C7.40054 7 7.51703 7 7.75 7H11.75C11.983 7 12.0995 7 12.1913 7.03806C12.3139 7.08881 12.4112 7.18614 12.4619 7.30866C12.5 7.40054 12.5 7.51703 12.5 7.75C12.5 7.98297 12.5 8.09946 12.4619 8.19134C12.4112 8.31386 12.3139 8.41119 12.1913 8.46194C12.0995 8.5 11.983 8.5 11.75 8.5H10.5V13.25C10.5 13.483 10.5 13.5995 10.4619 13.6913C10.4112 13.8139 10.3139 13.9112 10.1913 13.9619C10.0995 14 9.98297 14 9.75 14C9.51703 14 9.40054 14 9.30866 13.9619C9.18614 13.9112 9.08881 13.8139 9.03806 13.6913C9 13.5995 9 13.483 9 13.25V8.5Z" fill="#FFA366"/>
<path d="M13 11H12.25C12.017 11 11.9005 11 11.8087 10.9619C11.6861 10.9112 11.5888 10.8139 11.5381 10.6913C11.5 10.5995 11.5 10.483 11.5 10.25C11.5 10.017 11.5 9.90054 11.5381 9.80866C11.5888 9.68614 11.6861 9.58881 11.8087 9.53806C11.9005 9.5 12.017 9.5 12.25 9.5H15.25C15.483 9.5 15.5995 9.5 15.6913 9.53806C15.8139 9.58881 15.9112 9.68614 15.9619 9.80866C16 9.90054 16 10.017 16 10.25C16 10.483 16 10.5995 15.9619 10.6913C15.9112 10.8139 15.8139 10.9112 15.6913 10.9619C15.5995 11 15.483 11 15.25 11H14.5V13.25C14.5 13.483 14.5 13.5995 14.4619 13.6913C14.4112 13.8139 14.3139 13.9112 14.1913 13.9619C14.0995 14 13.983 14 13.75 14C13.517 14 13.4005 14 13.3087 13.9619C13.1861 13.9112 13.0888 13.8139 13.0381 13.6913C13 13.5995 13 13.483 13 13.25V11Z" fill="#FFA366"/>
</svg>
