<svg width="16" height="16" viewBox="0 0 16 16" fill="none" xmlns="http://www.w3.org/2000/svg">
<path opacity="0.8" d="M8.99997 2.99998H11C12.3999 2.99998 13.1 3.00006 13.6347 3.27245C14.1051 3.51213 14.4878 3.89481 14.7275 4.36522C14.8958 4.69562 14.9588 5.08915 14.9834 5.67186C14.7986 5.37739 14.5551 5.1231 14.2656 4.92772L14.0849 4.81639L13.9424 4.74413C13.6119 4.59052 13.2928 4.54236 13.0488 4.52147C12.785 4.49892 12.4744 4.49998 12.1875 4.49998H10.5996C10.3445 4.49998 10.0631 4.4988 9.82126 4.51854C9.59418 4.53709 9.30313 4.57987 8.99704 4.71092L8.8652 4.77245C8.45376 4.98209 8.1093 5.30095 7.86911 5.69237L7.77243 5.86522C7.59231 6.2188 7.53973 6.56181 7.51852 6.82127C7.49878 7.06309 7.49997 7.34451 7.49997 7.59959V9.49998C7.49997 9.71242 7.49886 9.94705 7.51266 10.1494C7.5274 10.3652 7.56405 10.652 7.6904 10.957L7.79587 11.1806C7.82203 11.2295 7.84964 11.2774 7.87888 11.3242C8.43756 12.2173 8.71695 12.6645 8.73727 12.7002C8.82342 12.8513 8.88101 12.9399 8.91891 13H4.99997C3.59999 13 2.89996 12.9999 2.3652 12.7275C1.8948 12.4878 1.51211 12.1052 1.27243 11.6348C1.00005 11.1 0.999969 10.3999 0.999969 8.99998V4.20018C0.999969 3.08007 0.999756 2.51961 1.21774 2.09178C1.40948 1.71553 1.71552 1.40949 2.09177 1.21776C2.51959 0.999771 3.08006 0.999985 4.20016 0.999985H6.99997L8.99997 2.99998Z" fill="#FF9B20"/>
<path d="M9 9.5V7.6C9 7.03995 9 6.75992 9.10899 6.54601C9.20487 6.35785 9.35785 6.20487 9.54601 6.10899C9.75992 6 10.0399 6 10.6 6H12.1875C12.8139 6 13.1271 6 13.3541 6.12655C13.5535 6.23766 13.7088 6.41362 13.7943 6.62519C13.8917 6.86614 13.8529 7.17691 13.7752 7.79845V7.79846L13.5 10H13.792C14.3368 10 14.6093 10 14.7467 10.1111C14.8663 10.2077 14.9347 10.3539 14.9324 10.5075C14.9298 10.6843 14.7554 10.8936 14.4065 11.3121L11.9146 14.3025C11.4789 14.8253 11.2611 15.0867 11.0708 15.1139C10.906 15.1375 10.7403 15.0775 10.6288 14.9539C10.5 14.8112 10.5 14.4709 10.5 13.7904V11C10.0341 11 9.80109 11 9.61732 10.9239C9.37229 10.8224 9.17761 10.6277 9.07612 10.3827C9 10.1989 9 9.96594 9 9.5Z" fill="#FFC076"/>
</svg>
