<svg width="16" height="16" viewBox="0 0 16 16" fill="none" xmlns="http://www.w3.org/2000/svg">
<g clip-path="url(#clip0_203_600)">
<path opacity="0.8" d="M9.0004 3.0001H11.0004C12.4003 3.0001 13.1004 3.0001 13.6352 3.27256C14.1055 3.51225 14.4883 3.89498 14.7279 4.36533C15.0002 4.90006 15.0004 5.60033 15.0004 7.0001V9.0001C15.0004 9.62301 14.998 10.1072 14.974 10.5001H14.7162C14.5602 10.5001 14.4073 10.4523 14.2797 10.3624C14.0024 10.167 13.8891 9.81012 14.0023 9.49033L14.6 7.80283L14.6625 7.60459C15.2134 5.62627 13.5525 3.71059 11.516 3.9747L11.3109 4.00791C11.1453 4.04106 10.9838 4.09323 10.8305 4.16318L10.6801 4.23935L8.74747 5.30771C7.84723 5.80553 7.21456 6.67247 7.01114 7.67392L6.97598 7.87607L6.85977 8.6876C6.73485 9.562 6.5096 10.4192 6.18887 11.2413L6.0463 11.5919L5.44278 13.0001H5.0004C3.60027 13.0001 2.89943 13.0001 2.36465 12.7276C1.89438 12.488 1.5125 12.1052 1.27286 11.6349C1.00038 11.1001 1.0004 10.4002 1.0004 9.0001V4.20029C1.0004 3.08019 1.00018 2.51972 1.21817 2.09189C1.40992 1.71565 1.71593 1.40959 2.09219 1.21787C2.51994 1 3.07993 1.0001 4.19962 1.0001H7.0004L9.0004 3.0001Z" fill="#9B61FF"/>
<path d="M7.86296 11.762L7.92474 11.6667V11.1244C7.92474 10.3047 8.32876 9.5377 9.00474 9.07406C8.56183 8.6184 8.40728 7.95513 8.60314 7.35061L8.64474 7.22221L9.36474 6.85184C9.58496 6.39873 10.0445 6.1111 10.5483 6.1111H10.8047L11.3149 5.32376C11.4135 5.1717 11.636 5.1717 11.7345 5.32376L12.2447 6.1111L12.9936 5.85428C13.1559 5.79863 13.3247 5.91921 13.3247 6.09076V6.48458C13.3247 7.44951 13.0455 8.39384 12.5208 9.20362L11.8847 10.1852C12.7675 10.8663 13.1904 11.9872 12.9777 13.0817L12.9647 13.1481L15.3791 12.1862C15.5902 12.1021 15.8305 12.1952 15.9299 12.3996C16.0323 12.6104 15.9489 12.8643 15.7415 12.9733L13.2825 14.2655C12.3644 14.7479 11.3429 15 10.3058 15H10.0079C9.82182 15 9.63842 14.9556 9.47293 14.8705C9.24005 14.7507 9.18917 14.4399 9.37172 14.2521L9.72474 13.8889L9.00474 13.5185L8.8572 13.9739C8.73054 14.3648 8.36639 14.6296 7.95544 14.6296C7.72855 14.6296 7.53348 14.4688 7.49019 14.2461L7.43572 13.9659C7.28754 13.2037 7.44068 12.4137 7.86296 11.762Z" fill="#BDA1FF"/>
</g>
<defs>
<clipPath id="clip0_203_600">
<rect width="16" height="16" fill="white"/>
</clipPath>
</defs>
</svg>
