<svg width="16" height="16" viewBox="0 0 16 16" fill="none" xmlns="http://www.w3.org/2000/svg">
<path opacity="0.7" d="M9 3H11C12.4 3 13.1 3.00007 13.6348 3.27246C14.1052 3.51214 14.4879 3.89483 14.7275 4.36523C14.9111 4.72557 14.9697 5.16096 14.9893 5.83496C14.5611 5.63712 14.1311 5.56456 13.7354 5.53223C13.3267 5.49886 12.8349 5.5 12.2998 5.5H8.7002C8.16507 5.5 7.67332 5.49886 7.26465 5.53223C6.83838 5.56705 6.37174 5.64714 5.91113 5.88184C5.25262 6.21738 4.71738 6.75262 4.38184 7.41113C4.14714 7.87174 4.06705 8.33838 4.03223 8.76465C3.99886 9.17332 4 9.66507 4 10.2002V10.7998C4 11.3349 3.99886 11.8267 4.03223 12.2354C4.05211 12.4787 4.08749 12.735 4.15723 12.9961C3.29416 12.9855 2.77999 12.9388 2.36523 12.7275C1.89483 12.4879 1.51214 12.1052 1.27246 11.6348C1.00007 11.1 1 10.4 1 9V4.2002C1 3.08009 0.999786 2.51962 1.21777 2.0918C1.40951 1.71555 1.71555 1.40951 2.0918 1.21777C2.51962 0.999786 3.08009 1 4.2002 1H7L9 3Z" fill="#7E7E92"/>
<path d="M12.2998 7C13.4199 7 13.9804 6.99979 14.4082 7.21777C14.7845 7.40951 15.0905 7.71554 15.2822 8.0918C15.5002 8.51962 15.5 9.08009 15.5 10.2002V10.7998C15.5 11.9199 15.5002 12.4804 15.2822 12.9082C15.0905 13.2845 14.7845 13.5905 14.4082 13.7822C13.9804 14.0002 13.4199 14 12.2998 14H8.7002C7.58009 14 7.01962 14.0002 6.5918 13.7822C6.21554 13.5905 5.90951 13.2845 5.71777 12.9082C5.49979 12.4804 5.5 11.9199 5.5 10.7998V10.2002C5.5 9.08009 5.49979 8.51962 5.71777 8.0918C5.90951 7.71554 6.21554 7.40951 6.5918 7.21777C7.01962 6.99979 7.58009 7 8.7002 7H12.2998ZM7.5 10.9004C7.16863 10.9004 6.90039 11.1686 6.90039 11.5C6.90039 11.8314 7.16863 12.0996 7.5 12.0996C7.83137 12.0996 8.09961 11.8314 8.09961 11.5C8.09961 11.1686 7.83137 10.9004 7.5 10.9004ZM13.5 10.9004C13.1686 10.9004 12.9004 11.1686 12.9004 11.5C12.9004 11.8314 13.1686 12.0996 13.5 12.0996C13.8314 12.0996 14.0996 11.8314 14.0996 11.5C14.0996 11.1686 13.8314 10.9004 13.5 10.9004ZM9.5 11C9.22386 11 9 11.2239 9 11.5C9 11.7761 9.22386 12 9.5 12H11.5C11.7761 12 12 11.7761 12 11.5C12 11.2239 11.7761 11 11.5 11H9.5ZM7.5 8.90039C7.16863 8.90039 6.90039 9.16863 6.90039 9.5C6.90039 9.83137 7.16863 10.0996 7.5 10.0996C7.83137 10.0996 8.09961 9.83137 8.09961 9.5C8.09961 9.16863 7.83137 8.90039 7.5 8.90039ZM9.5 8.90039C9.16863 8.90039 8.90039 9.16863 8.90039 9.5C8.90039 9.83137 9.16863 10.0996 9.5 10.0996C9.83137 10.0996 10.0996 9.83137 10.0996 9.5C10.0996 9.16863 9.83137 8.90039 9.5 8.90039ZM11.5 8.90039C11.1686 8.90039 10.9004 9.16863 10.9004 9.5C10.9004 9.83137 11.1686 10.0996 11.5 10.0996C11.8314 10.0996 12.0996 9.83137 12.0996 9.5C12.0996 9.16863 11.8314 8.90039 11.5 8.90039ZM13.5 8.90039C13.1686 8.90039 12.9004 9.16863 12.9004 9.5C12.9004 9.83137 13.1686 10.0996 13.5 10.0996C13.8314 10.0996 14.0996 9.83137 14.0996 9.5C14.0996 9.16863 13.8314 8.90039 13.5 8.90039Z" fill="#BEBED1"/>
</svg>
