<svg width="16" height="16" viewBox="0 0 16 16" fill="none" xmlns="http://www.w3.org/2000/svg">
<path opacity="0.8" d="M8.99997 2.99998H11C12.3999 2.99998 13.1 3.00006 13.6347 3.27245C14.1051 3.51213 14.4878 3.89482 14.7275 4.36522C14.8958 4.69562 14.9588 5.08918 14.9834 5.67186C14.7986 5.37739 14.5551 5.1231 14.2656 4.92772L14.0849 4.81639L13.9424 4.74413C13.6119 4.59052 13.2928 4.54236 13.0488 4.52147C12.785 4.49892 12.4744 4.49998 12.1875 4.49998H8.37888L6.37888 2.49998H4.20016C3.61554 2.49998 3.26699 2.50136 3.00876 2.52245C2.88834 2.53229 2.82093 2.54406 2.78806 2.55174L2.77341 2.55467C2.70283 2.59064 2.64182 2.64257 2.59567 2.70604L2.55466 2.77342C2.57136 2.74064 2.5421 2.76805 2.52243 3.00877C2.50135 3.267 2.49997 3.61555 2.49997 4.20018V8.99998C2.49997 9.72458 2.50138 10.1779 2.52927 10.5195C2.55574 10.8435 2.59879 10.9334 2.60934 10.9541L2.69138 11.0879C2.78362 11.2148 2.90482 11.3187 3.04587 11.3906L3.14938 11.4248C3.21482 11.4401 3.31845 11.4575 3.48044 11.4707C3.82203 11.4986 4.27537 11.5 4.99997 11.5H7.98825C8.47401 12.2765 8.71833 12.6669 8.73727 12.7002C8.82342 12.8513 8.88101 12.9399 8.91891 13H4.99997C3.77475 13 3.0856 13 2.57419 12.8174L2.3652 12.7275C1.95376 12.5179 1.6093 12.199 1.36911 11.8076L1.27243 11.6348C1.00005 11.1 0.999969 10.3999 0.999969 8.99998V4.20018C0.999969 3.22018 1.00046 2.66886 1.14645 2.25975L1.21774 2.09178C1.38552 1.76255 1.64082 1.48705 1.95407 1.29491L2.09177 1.21776C2.41259 1.05429 2.80801 1.01314 3.45798 1.00291L4.20016 0.999985H6.99997L8.99997 2.99998Z" fill="#FF9B20"/>
<path d="M9 9.5V7.6C9 7.03995 9 6.75992 9.10899 6.54601C9.20487 6.35785 9.35785 6.20487 9.54601 6.10899C9.75992 6 10.0399 6 10.6 6H12.1875C12.8139 6 13.1271 6 13.3541 6.12655C13.5535 6.23766 13.7088 6.41362 13.7943 6.62519C13.8917 6.86614 13.8529 7.17691 13.7752 7.79845V7.79846L13.5 10H13.792C14.3368 10 14.6093 10 14.7467 10.1111C14.8663 10.2077 14.9347 10.3539 14.9324 10.5075C14.9298 10.6843 14.7554 10.8936 14.4065 11.3121L11.9146 14.3025C11.4789 14.8253 11.2611 15.0867 11.0708 15.1139C10.906 15.1375 10.7403 15.0775 10.6288 14.9539C10.5 14.8112 10.5 14.4709 10.5 13.7904V11C10.0341 11 9.80109 11 9.61732 10.9239C9.37229 10.8224 9.17761 10.6277 9.07612 10.3827C9 10.1989 9 9.96594 9 9.5Z" fill="#FFC076"/>
</svg>
