<svg width="16" height="16" viewBox="0 0 16 16" fill="none" xmlns="http://www.w3.org/2000/svg">
<g clip-path="url(#clip0_203_881)">
<path opacity="0.7" d="M8.99979 2.99965H10.9998C12.3995 2.99965 13.0998 2.99987 13.6346 3.27211C14.1048 3.51173 14.4876 3.89464 14.7273 4.36488C14.8686 4.64213 14.9348 4.96431 14.9676 5.40492C14.8099 5.4065 14.6511 5.4264 14.4949 5.47035C14.1602 5.56462 13.8277 5.69357 13.4851 5.73598C13.4812 5.64361 13.4769 5.55871 13.4705 5.48012C13.4573 5.31833 13.4399 5.21445 13.4246 5.14906L13.3904 5.04555C13.3185 4.90464 13.2144 4.78323 13.0877 4.69106L12.9539 4.60902C12.9326 4.59822 12.8419 4.5553 12.5193 4.52895C12.1777 4.50108 11.7242 4.49965 10.9998 4.49965H8.37869L6.37869 2.49965H4.19998C3.61547 2.49965 3.26678 2.50103 3.00858 2.52211C2.88825 2.53195 2.82073 2.54372 2.78787 2.55141L2.77322 2.55434C2.7027 2.59027 2.64163 2.64229 2.59549 2.7057L2.55447 2.77309C2.57095 2.74062 2.54188 2.76849 2.52225 3.00844C2.50117 3.26662 2.49979 3.61542 2.49979 4.19984V8.99965C2.49979 9.724 2.50122 10.1776 2.52908 10.5192C2.55541 10.8414 2.59831 10.9324 2.60916 10.9538L2.69119 11.0875C2.78338 11.2143 2.90475 11.3184 3.04568 11.3903L3.1492 11.4245C3.21461 11.4398 3.31839 11.4571 3.48026 11.4704C3.82182 11.4982 4.2753 11.4996 4.99979 11.4996H7.14236C7.13789 11.5102 7.13472 11.5214 7.12967 11.5319L6.99393 11.7916L6.79861 12.1325C6.7981 12.1334 6.79699 12.1344 6.79666 12.1354L6.79568 12.1383C6.63961 12.4122 6.54763 12.705 6.51443 12.9996H4.99979C3.77468 12.9996 3.08539 12.9996 2.57401 12.817L2.36502 12.7272C1.9537 12.5175 1.60906 12.1986 1.36893 11.8073L1.27225 11.6344C1.00004 11.0997 0.999786 10.3993 0.999786 8.99965V4.19984C0.999786 3.22006 1.00029 2.66847 1.14627 2.25941L1.21756 2.09145C1.38534 1.7623 1.6407 1.48668 1.95389 1.29457L2.09158 1.21742C2.41238 1.05397 2.80794 1.01281 3.45779 1.00258L4.19998 0.999649H6.99979L8.99979 2.99965Z" fill="#7E7E92"/>
<path d="M14.8617 7.14078C15.1279 6.8746 15.5771 7.1154 15.5033 7.48453L15.4154 7.923C15.3188 8.40486 14.8961 8.7519 14.4046 8.75211H13.5003V12.0158C13.5004 12.2842 13.7183 12.5021 13.9867 12.5021C14.1705 12.5019 14.339 12.398 14.4212 12.2336L14.5794 11.9171C14.7646 11.5468 15.2149 11.3963 15.5853 11.5812C15.9554 11.7665 16.1061 12.2168 15.9212 12.5871L15.763 12.9044C15.4267 13.5771 14.7387 14.0019 13.9867 14.0021C12.8898 14.0021 12.0004 13.1126 12.0003 12.0158V8.75211H10.5003V9.90836C10.5003 10.9362 10.2659 11.9491 9.81675 12.8693L9.6107 13.258L9.40171 13.6242C9.19628 13.9837 8.73785 14.1087 8.37828 13.9035C8.01867 13.698 7.89356 13.2397 8.09898 12.88L8.30894 12.5138L8.46812 12.2111C8.76755 11.5975 8.9452 10.9314 8.9896 10.2502L9.00035 9.90836V8.75211H7.90757C7.80678 8.75211 7.71034 8.79223 7.63902 8.86343C7.37283 9.12962 6.92261 8.88882 6.99644 8.51968L7.08433 8.08121C7.18084 7.59906 7.60432 7.25211 8.09605 7.25211H14.5921C14.6931 7.25211 14.7903 7.21213 14.8617 7.14078Z" fill="#BEBED1"/>
</g>
<defs>
<clipPath id="clip0_203_881">
<rect width="16" height="16" fill="white"/>
</clipPath>
</defs>
</svg>
