<svg width="16" height="16" viewBox="0 0 16 16" fill="none" xmlns="http://www.w3.org/2000/svg">
<path opacity="0.8" d="M9 3.00031H11C12.4 3.00031 13.1 3.00038 13.6348 3.27277C14.1051 3.51246 14.4879 3.89518 14.7275 4.36555C14.9998 4.90027 15 5.60055 15 7.00031V8.43977C14.9235 8.39584 14.8438 8.35145 14.7617 8.30695L14.2021 8.01203L13.5 7.6468V7.00031C13.5 6.27592 13.4986 5.82234 13.4707 5.48078C13.4575 5.31902 13.4401 5.21518 13.4248 5.14973L13.3906 5.04621C13.3187 4.9052 13.2147 4.78396 13.0879 4.69172L12.9541 4.60969C12.9334 4.59915 12.8436 4.55609 12.5195 4.52961C12.1779 4.50172 11.7246 4.50031 11 4.50031H8.37891L6.37891 2.50031H4.2002C3.61556 2.50031 3.26702 2.50169 3.00879 2.52277C2.88837 2.53261 2.82096 2.54438 2.78809 2.55207L2.77344 2.555C2.70291 2.59096 2.64183 2.64293 2.5957 2.70637L2.55469 2.77375C2.57139 2.74096 2.54213 2.76836 2.52246 3.0091C2.5014 3.2673 2.5 3.6161 2.5 4.20051V9.00031C2.5 9.72474 2.50141 10.1783 2.5293 10.5198C2.55578 10.8437 2.59884 10.9337 2.60938 10.9544L2.69141 11.0882C2.78364 11.215 2.90491 11.3191 3.0459 11.3909L3.14941 11.4251C3.21486 11.4405 3.31852 11.4578 3.48047 11.471C3.82206 11.4989 4.27541 11.5003 5 11.5003H7.5V12.1175C7.5 12.423 7.50028 12.7257 7.51074 13.0003H5C3.77485 13.0003 3.08562 13.0003 2.57422 12.8177L2.36523 12.7279C1.95386 12.5182 1.60933 12.1992 1.36914 11.8079L1.27246 11.6351C1.00009 11.1004 1 10.4001 1 9.00031V4.20051C1 3.22072 1.00059 2.66916 1.14648 2.26008L1.21777 2.09211C1.38552 1.76293 1.64092 1.48738 1.9541 1.29523L2.0918 1.21809C2.41262 1.05462 2.80804 1.01347 3.45801 1.00324L4.2002 1.00031H7L9 3.00031Z" fill="#9B61FF"/>
<path d="M9 9.63418V12.1172C9 13.0582 9 13.5288 9.19699 13.7942C9.3687 14.0256 9.63187 14.1716 9.91905 14.195C10.2485 14.2217 10.6478 13.9728 11.4464 13.475L13.619 12.1206C14.3991 11.6343 14.7891 11.3912 14.9109 11.088C15.017 10.8237 15.0054 10.5266 14.8789 10.2713C14.7338 9.97859 14.3259 9.76671 13.5102 9.34297L11.3376 8.21433C10.5653 7.81315 10.1792 7.61256 9.86456 7.65558C9.5899 7.69312 9.34315 7.843 9.18321 8.06943C9 8.3288 9 8.76393 9 9.63418Z" fill="#BDA1FF"/>
</svg>
