<svg width="16" height="16" viewBox="0 0 16 16" fill="none" xmlns="http://www.w3.org/2000/svg">
<path opacity="0.7" d="M8.99988 3.0002H10.9999C12.3999 3.0002 13.0999 3.00027 13.6346 3.27266C14.105 3.51234 14.4877 3.89503 14.7274 4.36543C14.9933 4.88749 14.9988 5.56701 14.9989 6.90157C14.8314 6.8049 14.6539 6.72282 14.4677 6.65938L14.2762 6.60176C14.179 6.57573 14.0788 6.55659 13.9784 6.54219C13.7551 6.5101 13.5412 6.42137 13.3817 6.26192L13.3387 6.21895C13.3366 6.21683 13.3347 6.2145 13.3329 6.21211C13.3308 6.20939 13.3285 6.20667 13.326 6.2043L13.2948 6.17305L13.1415 6.02461C13.1015 5.98863 13.0548 5.94881 13.0038 5.90938L12.8378 5.79414L12.701 5.717C12.6078 5.6695 12.5105 5.62922 12.411 5.59688L12.2596 5.55489L12.0604 5.51875C11.8687 5.49417 11.7076 5.49919 11.6688 5.49922H10.3309C10.292 5.49918 10.131 5.49417 9.93933 5.51875L9.74011 5.55489C9.58708 5.59163 9.43861 5.64572 9.29871 5.717L9.16199 5.79414C9.04367 5.86666 8.93836 5.95262 8.85828 6.02461L8.70496 6.17305C8.4887 6.38931 8.19782 6.50475 7.89734 6.56172C7.89382 6.56239 7.89011 6.56299 7.8866 6.56367L7.72351 6.60176C6.75313 6.86178 5.98134 7.58881 5.66003 8.53145L5.60242 8.72285C5.5162 9.04461 5.50168 9.39448 5.49988 9.7043V11.5988C5.49988 11.9937 5.49878 12.3811 5.52527 12.7063C5.53292 12.7999 5.54495 12.8984 5.56042 13.0002H4.99988C3.59997 13.0002 2.89986 13.0001 2.36511 12.7277C1.89471 12.4881 1.51202 12.1054 1.27234 11.635C0.999899 11.1002 0.999878 10.4001 0.999878 9.0002V4.20039C0.999878 3.08039 0.999722 2.5198 1.21765 2.092C1.40935 1.71576 1.71547 1.40973 2.09167 1.21797C2.5195 0.999985 3.07997 1.0002 4.20007 1.0002H6.99988L8.99988 3.0002Z" fill="#7E7E92"/>
<path d="M11.3369 7C11.5815 7 11.7042 6.99971 11.8193 7.02734C11.9214 7.05184 12.0189 7.09264 12.1084 7.14746C12.2093 7.2093 12.2959 7.29588 12.4688 7.46875L12.8281 7.82813C12.8528 7.85282 12.8652 7.86587 12.8779 7.87695C12.9603 7.9489 13.0647 7.99166 13.1738 7.99902C13.1904 8.00013 13.2078 8 13.2422 8C13.481 8 13.6009 8.00012 13.7012 8.01367C14.3697 8.1043 14.8957 8.63033 14.9863 9.29883C14.9999 9.39906 15 9.51902 15 9.75781V11.5996C15 12.4393 15.0002 12.8598 14.8369 13.1807C14.6931 13.4629 14.4629 13.6931 14.1807 13.8369C13.8598 14.0002 13.4393 14 12.5996 14H9.40039C8.56068 14 8.14015 14.0002 7.81934 13.8369C7.53709 13.6931 7.3069 13.4629 7.16309 13.1807C6.99981 12.8598 7 12.4393 7 11.5996V9.75781C7 9.51902 7.00012 9.39906 7.01367 9.29883C7.1043 8.63033 7.63033 8.1043 8.29883 8.01367C8.39906 8.00012 8.51902 8 8.75781 8C8.79216 8 8.80955 8.00013 8.82617 7.99902C8.9353 7.99166 9.03969 7.9489 9.12207 7.87695C9.13476 7.86587 9.14719 7.85281 9.17188 7.82813L9.53125 7.46875L9.73828 7.2666C9.79421 7.21554 9.84111 7.17842 9.8916 7.14746C9.98106 7.09264 10.0786 7.05184 10.1807 7.02734C10.2958 6.99971 10.4185 7 10.6631 7H11.3369ZM11 9.5C10.1716 9.5 9.5 10.1716 9.5 11C9.5 11.8284 10.1716 12.5 11 12.5C11.8284 12.5 12.5 11.8284 12.5 11C12.5 10.1716 11.8284 9.5 11 9.5Z" fill="#BEBED1"/>
</svg>
