<svg width="16" height="16" viewBox="0 0 16 16" fill="none" xmlns="http://www.w3.org/2000/svg">
<path opacity="0.8" d="M9 3H11C12.4 3 13.1 3.00007 13.6348 3.27246C14.1052 3.51214 14.4879 3.89483 14.7275 4.36523C14.9962 4.8926 14.999 5.58071 14.999 6.94238L13.8936 6.15234C13.3001 5.72844 12.5887 5.50008 11.8594 5.5H7.5C6.39548 5.50003 5.50003 6.39548 5.5 7.5V8C5.50002 8.82814 6.00323 9.539 6.7207 9.84277C7.09107 9.99955 7.277 10.0781 7.3418 10.1387C7.41855 10.2104 7.43348 10.2331 7.46973 10.332C7.50006 10.4153 7.5 10.5437 7.5 10.7998V13H5C3.60002 13 2.89999 12.9999 2.36523 12.7275C1.89483 12.4879 1.51214 12.1052 1.27246 11.6348C1.00007 11.1 1 10.4 1 9V4.2002C1 3.08009 0.999786 2.51962 1.21777 2.0918C1.40951 1.71554 1.71554 1.40951 2.0918 1.21777C2.51962 0.999786 3.08009 1 4.2002 1H7L9 3Z" fill="#FD7334"/>
<path d="M9 8.5H7.75C7.51703 8.5 7.40054 8.5 7.30866 8.46194C7.18614 8.41119 7.08881 8.31386 7.03806 8.19134C7 8.09946 7 7.98297 7 7.75C7 7.51703 7 7.40054 7.03806 7.30866C7.08881 7.18614 7.18614 7.08881 7.30866 7.03806C7.40054 7 7.51703 7 7.75 7H11.75C11.983 7 12.0995 7 12.1913 7.03806C12.3139 7.08881 12.4112 7.18614 12.4619 7.30866C12.5 7.40054 12.5 7.51703 12.5 7.75C12.5 7.98297 12.5 8.09946 12.4619 8.19134C12.4112 8.31386 12.3139 8.41119 12.1913 8.46194C12.0995 8.5 11.983 8.5 11.75 8.5H10.5V13.25C10.5 13.483 10.5 13.5995 10.4619 13.6913C10.4112 13.8139 10.3139 13.9112 10.1913 13.9619C10.0995 14 9.98297 14 9.75 14C9.51703 14 9.40054 14 9.30866 13.9619C9.18614 13.9112 9.08881 13.8139 9.03806 13.6913C9 13.5995 9 13.483 9 13.25V8.5Z" fill="#FFA366"/>
<path d="M13 11H12.25C12.017 11 11.9005 11 11.8087 10.9619C11.6861 10.9112 11.5888 10.8139 11.5381 10.6913C11.5 10.5995 11.5 10.483 11.5 10.25C11.5 10.017 11.5 9.90054 11.5381 9.80866C11.5888 9.68614 11.6861 9.58881 11.8087 9.53806C11.9005 9.5 12.017 9.5 12.25 9.5H15.25C15.483 9.5 15.5995 9.5 15.6913 9.53806C15.8139 9.58881 15.9112 9.68614 15.9619 9.80866C16 9.90054 16 10.017 16 10.25C16 10.483 16 10.5995 15.9619 10.6913C15.9112 10.8139 15.8139 10.9112 15.6913 10.9619C15.5995 11 15.483 11 15.25 11H14.5V13.25C14.5 13.483 14.5 13.5995 14.4619 13.6913C14.4112 13.8139 14.3139 13.9112 14.1913 13.9619C14.0995 14 13.983 14 13.75 14C13.517 14 13.4005 14 13.3087 13.9619C13.1861 13.9112 13.0888 13.8139 13.0381 13.6913C13 13.5995 13 13.483 13 13.25V11Z" fill="#FFA366"/>
</svg>
