<svg width="16" height="16" viewBox="0 0 16 16" fill="none" xmlns="http://www.w3.org/2000/svg">
<path opacity="0.8" d="M9 2.99999H11C12.4 2.99999 13.1 3.00006 13.6348 3.27245C14.1052 3.51214 14.4879 3.89483 14.7275 4.36523C14.8007 4.50889 14.8525 4.66488 14.8916 4.84277C14.8818 4.83763 14.8722 4.83217 14.8623 4.82714C14.4552 4.6197 14.0499 4.5534 13.707 4.52538C13.3817 4.49883 12.9948 4.49999 12.5996 4.49999H8.37891L6.37891 2.49999H4.2002C3.61556 2.49999 3.26702 2.50137 3.00879 2.52245C2.88836 2.53229 2.82096 2.54406 2.78809 2.55175L2.77344 2.55468C2.70286 2.59064 2.64185 2.64257 2.5957 2.70605L2.55469 2.77343C2.57139 2.74064 2.54213 2.76805 2.52246 3.00878C2.50138 3.26701 2.5 3.61555 2.5 4.20019V8.99999C2.5 9.72459 2.50141 10.1779 2.5293 10.5195C2.55577 10.8436 2.59883 10.9334 2.60938 10.9541L2.69141 11.0879C2.78365 11.2148 2.90484 11.3187 3.0459 11.3906L3.14941 11.4248C3.21485 11.4401 3.31847 11.4575 3.48047 11.4707C3.82206 11.4986 4.2754 11.5 5 11.5H5.5V11.5996C5.5 11.9948 5.49883 12.3817 5.52539 12.707C5.53303 12.8005 5.54513 12.8984 5.56055 13H5C3.77477 13 3.08563 13 2.57422 12.8174L2.36523 12.7275C1.95378 12.5179 1.60933 12.199 1.36914 11.8076L1.27246 11.6348C1.00007 11.1 1 10.4 1 8.99999V4.20019C1 3.22018 1.00049 2.66887 1.14648 2.25976L1.21777 2.09179C1.38555 1.76256 1.64085 1.48706 1.9541 1.29491L2.0918 1.21777C2.41263 1.0543 2.80804 1.01315 3.45801 1.00292L4.2002 0.999992H7L9 2.99999Z" fill="#30A6F9"/>
<path d="M12.5996 6C13.4393 6 13.8598 5.99981 14.1807 6.16309C14.4629 6.3069 14.6931 6.53709 14.8369 6.81934C15.0002 7.14015 15 7.56068 15 8.40039V11.5996C15 12.4393 15.0002 12.8598 14.8369 13.1807C14.6931 13.4629 14.4629 13.6931 14.1807 13.8369C13.8598 14.0002 13.4393 14 12.5996 14H9.40039C8.56068 14 8.14015 14.0002 7.81934 13.8369C7.53709 13.6931 7.3069 13.4629 7.16309 13.1807C6.99981 12.8598 7 12.4393 7 11.5996V8.40039C7 7.56068 6.99981 7.14015 7.16309 6.81934C7.3069 6.53709 7.53709 6.3069 7.81934 6.16309C8.14015 5.99981 8.56068 6 9.40039 6H12.5996ZM8.5 10.5V11.7002C8.5 11.9799 8.50034 12.1197 8.55469 12.2266C8.60262 12.3206 8.67936 12.3974 8.77344 12.4453C8.88033 12.4997 9.02014 12.5 9.2998 12.5H12.7002C12.9799 12.5 13.1197 12.4997 13.2266 12.4453C13.3206 12.3974 13.3974 12.3206 13.4453 12.2266C13.4997 12.1197 13.5 11.9799 13.5 11.7002V11.5L12.5 10.5L11.5 11.5L9.5 9.5L8.5 10.5ZM12.5 7.5C11.9477 7.5 11.5 7.94772 11.5 8.5C11.5 9.05228 11.9477 9.5 12.5 9.5C13.0523 9.5 13.5 9.05228 13.5 8.5C13.5 7.94772 13.0523 7.5 12.5 7.5Z" fill="#83C2FE"/>
</svg>
