<svg width="16" height="16" viewBox="0 0 16 16" fill="none" xmlns="http://www.w3.org/2000/svg">
<path opacity="0.8" d="M9 2.99998H11C12.4 2.99998 13.1 3.00006 13.6348 3.27245C14.1052 3.51213 14.4879 3.89482 14.7275 4.36522C14.8007 4.50888 14.8525 4.66488 14.8916 4.84276C14.8818 4.83763 14.8722 4.83216 14.8623 4.82713C14.4552 4.61969 14.0499 4.55339 13.707 4.52538C13.3817 4.49882 12.9948 4.49998 12.5996 4.49998H8.37891L6.37891 2.49998H4.2002C3.61557 2.49998 3.26702 2.50136 3.00879 2.52245C2.88836 2.53229 2.82096 2.54406 2.78809 2.55174L2.77344 2.55467C2.70286 2.59064 2.64185 2.64257 2.5957 2.70604L2.55469 2.77342C2.57139 2.74064 2.54213 2.76806 2.52246 3.00877C2.50138 3.267 2.5 3.61555 2.5 4.20018V8.99998C2.5 9.72458 2.50141 10.1779 2.5293 10.5195C2.55577 10.8435 2.59882 10.9334 2.60938 10.9541L2.69141 11.0879C2.78365 11.2148 2.90485 11.3187 3.0459 11.3906L3.14941 11.4248C3.21485 11.4401 3.31848 11.4575 3.48047 11.4707C3.82206 11.4986 4.2754 11.5 5 11.5H5.5V11.5996C5.5 11.9947 5.49883 12.3817 5.52539 12.707C5.53303 12.8005 5.54513 12.8984 5.56055 13H5C3.77478 13 3.08563 13 2.57422 12.8174L2.36523 12.7275C1.95379 12.5179 1.60933 12.199 1.36914 11.8076L1.27246 11.6348C1.00008 11.1 1 10.3999 1 8.99998V4.20018C1 3.22018 1.00049 2.66886 1.14648 2.25975L1.21777 2.09178C1.38555 1.76255 1.64085 1.48705 1.9541 1.29491L2.0918 1.21776C2.41262 1.05429 2.80804 1.01314 3.45801 1.00291L4.2002 0.999985H7L9 2.99998Z" fill="#30A6F9"/>
<path d="M12.5996 6C13.4393 6 13.8598 5.99981 14.1807 6.16309C14.4629 6.3069 14.6931 6.53709 14.8369 6.81934C15.0002 7.14015 15 7.56068 15 8.40039V11.5996C15 12.4393 15.0002 12.8598 14.8369 13.1807C14.6931 13.4629 14.4629 13.6931 14.1807 13.8369C13.8598 14.0002 13.4393 14 12.5996 14H9.40039C8.56068 14 8.14015 14.0002 7.81934 13.8369C7.53709 13.6931 7.3069 13.4629 7.16309 13.1807C6.99981 12.8598 7 12.4393 7 11.5996V8.40039C7 7.56068 6.99981 7.14015 7.16309 6.81934C7.3069 6.53709 7.53709 6.3069 7.81934 6.16309C8.14015 5.99981 8.56068 6 9.40039 6H12.5996ZM8 11V12.2002C8 12.4799 8.00034 12.6197 8.05469 12.7266C8.10262 12.8206 8.17936 12.8974 8.27344 12.9453C8.38033 12.9997 8.52014 13 8.7998 13H13.2002C13.4799 13 13.6197 12.9997 13.7266 12.9453C13.8206 12.8974 13.8974 12.8206 13.9453 12.7266C13.9997 12.6197 14 12.4799 14 12.2002V12L12.5 10.5L11.5 11.5L9.5 9.5L8 11ZM12.5 7.5C11.9477 7.5 11.5 7.94772 11.5 8.5C11.5 9.05228 11.9477 9.5 12.5 9.5C13.0523 9.5 13.5 9.05228 13.5 8.5C13.5 7.94772 13.0523 7.5 12.5 7.5Z" fill="#83C2FE"/>
</svg>
