<svg width="16" height="16" viewBox="0 0 16 16" fill="none" xmlns="http://www.w3.org/2000/svg">
<path opacity="0.8" d="M9 2.99999H11C12.4 2.99999 13.1 3.00006 13.6348 3.27245C14.1052 3.51214 14.4879 3.89482 14.7275 4.36523C14.8007 4.5089 14.8525 4.66487 14.8916 4.84277C14.8818 4.83763 14.8722 4.83217 14.8623 4.82714C14.4552 4.6197 14.0499 4.5534 13.707 4.52538C13.3817 4.49883 12.9948 4.49999 12.5996 4.49999H8.40039C8.00523 4.49999 7.61828 4.49883 7.29297 4.52538C6.95008 4.5534 6.54483 4.6197 6.1377 4.82714C5.57347 5.11471 5.11472 5.57347 4.82715 6.13769C4.6197 6.54482 4.55341 6.95007 4.52539 7.29296C4.49883 7.61827 4.5 8.00522 4.5 8.40038V11.5996C4.5 11.9948 4.49883 12.3817 4.52539 12.707C4.53298 12.7999 4.54432 12.8972 4.55957 12.998C3.44687 12.9951 2.84072 12.9697 2.36523 12.7275C1.89483 12.4878 1.51214 12.1052 1.27246 11.6348C1.00007 11.1 1 10.4 1 8.99999V4.20019C1 3.08008 0.999786 2.51961 1.21777 2.09179C1.40951 1.71554 1.71555 1.4095 2.0918 1.21777C2.51962 0.999779 3.08009 0.999992 4.2002 0.999992H7L9 2.99999Z" fill="#FF4466"/>
<path d="M6 7.5C6 6.67157 6.67157 6 7.5 6H9.2C9.48003 6 9.62004 6 9.727 6.0545C9.82108 6.10243 9.89757 6.17892 9.9455 6.273C10 6.37996 10 6.51997 10 6.8V7.2C10 7.48003 10 7.62004 9.9455 7.727C9.89757 7.82108 9.82108 7.89757 9.727 7.9455C9.62004 8 9.48003 8 9.2 8H6.5C6.22386 8 6 7.77614 6 7.5Z" fill="#FF8197"/>
<path d="M11 6.8C11 6.51997 11 6.37996 11.0545 6.273C11.1024 6.17892 11.1789 6.10243 11.273 6.0545C11.38 6 11.52 6 11.8 6H13.5C14.3284 6 15 6.67157 15 7.5C15 7.77614 14.7761 8 14.5 8H11.8C11.52 8 11.38 8 11.273 7.9455C11.1789 7.89757 11.1024 7.82108 11.0545 7.727C11 7.62004 11 7.48003 11 7.2V6.8Z" fill="#FF8197"/>
<path d="M13 9.8C13 9.51997 13 9.37996 13.0545 9.273C13.1024 9.17892 13.1789 9.10243 13.273 9.0545C13.38 9 13.52 9 13.8 9H14.2C14.48 9 14.62 9 14.727 9.0545C14.8211 9.10243 14.8976 9.17892 14.9455 9.273C15 9.37996 15 9.51997 15 9.8V10.2C15 10.48 15 10.62 14.9455 10.727C14.8976 10.8211 14.8211 10.8976 14.727 10.9455C14.62 11 14.48 11 14.2 11H13.8C13.52 11 13.38 11 13.273 10.9455C13.1789 10.8976 13.1024 10.8211 13.0545 10.727C13 10.62 13 10.48 13 10.2V9.8Z" fill="#FF8197"/>
<path d="M6 9.8C6 9.51997 6 9.37996 6.0545 9.273C6.10243 9.17892 6.17892 9.10243 6.273 9.0545C6.37996 9 6.51997 9 6.8 9H7.2C7.48003 9 7.62004 9 7.727 9.0545C7.82108 9.10243 7.89757 9.17892 7.9455 9.273C8 9.37996 8 9.51997 8 9.8V10.2C8 10.48 8 10.62 7.9455 10.727C7.89757 10.8211 7.82108 10.8976 7.727 10.9455C7.62004 11 7.48003 11 7.2 11H6.8C6.51997 11 6.37996 11 6.273 10.9455C6.17892 10.8976 6.10243 10.8211 6.0545 10.727C6 10.62 6 10.48 6 10.2V9.8Z" fill="#FF8197"/>
<path d="M9 9.8C9 9.51997 9 9.37996 9.0545 9.273C9.10243 9.17892 9.17892 9.10243 9.273 9.0545C9.37996 9 9.51997 9 9.8 9H11.2C11.48 9 11.62 9 11.727 9.0545C11.8211 9.10243 11.8976 9.17892 11.9455 9.273C12 9.37996 12 9.51997 12 9.8V10.2C12 10.48 12 10.62 11.9455 10.727C11.8976 10.8211 11.8211 10.8976 11.727 10.9455C11.62 11 11.48 11 11.2 11H9.8C9.51997 11 9.37996 11 9.273 10.9455C9.17892 10.8976 9.10243 10.8211 9.0545 10.727C9 10.62 9 10.48 9 10.2V9.8Z" fill="#FF8197"/>
<path d="M6 12.5C6 12.2239 6.22386 12 6.5 12H9.2C9.48003 12 9.62004 12 9.727 12.0545C9.82108 12.1024 9.89757 12.1789 9.9455 12.273C10 12.38 10 12.52 10 12.8V13.2C10 13.48 10 13.62 9.9455 13.727C9.89757 13.8211 9.82108 13.8976 9.727 13.9455C9.62004 14 9.48003 14 9.2 14H7.5C6.67157 14 6 13.3284 6 12.5Z" fill="#FF8197"/>
<path d="M11 12.8C11 12.52 11 12.38 11.0545 12.273C11.1024 12.1789 11.1789 12.1024 11.273 12.0545C11.38 12 11.52 12 11.8 12H14.5C14.7761 12 15 12.2239 15 12.5C15 13.3284 14.3284 14 13.5 14H11.8C11.52 14 11.38 14 11.273 13.9455C11.1789 13.8976 11.1024 13.8211 11.0545 13.727C11 13.62 11 13.48 11 13.2V12.8Z" fill="#FF8197"/>
</svg>
