<svg width="16" height="16" viewBox="0 0 16 16" fill="none" xmlns="http://www.w3.org/2000/svg">
<g clip-path="url(#clip0_203_695)">
<path opacity="0.8" d="M8.99973 2.99966H10.9997C12.3994 2.99966 13.0998 2.99991 13.6345 3.27212C14.1048 3.51177 14.4876 3.89458 14.7273 4.36489C14.7831 4.47457 14.8248 4.59217 14.8601 4.72036C13.2741 3.83379 11.2491 4.02173 9.85031 5.28579L9.68918 5.43911L6.18918 8.93911C5.08782 10.0405 4.70486 11.5876 5.03879 12.9997H4.99973C3.59978 12.9997 2.8997 12.9997 2.36496 12.7272C1.89471 12.4875 1.51185 12.1056 1.27219 11.6354C0.999703 11.1006 0.999725 10.3998 0.999725 8.99966V4.19985C0.999725 3.07996 1.00056 2.52022 1.21848 2.09243C1.41022 1.71611 1.71617 1.41015 2.0925 1.21841C2.52029 1.00053 3.08005 0.999657 4.19992 0.999657H6.99973L8.99973 2.99966Z" fill="#30A6F9"/>
<path d="M11.75 13.5L11.25 14C10.1454 15.1046 8.35457 15.1046 7.25 14C6.14543 12.8954 6.14543 11.1046 7.25 10L7.75 9.5C8.02614 9.22386 8.47386 9.22386 8.75 9.5C9.02614 9.77614 9.02614 10.2239 8.75 10.5L8.25 11C7.69772 11.5523 7.69772 12.4477 8.25 13C8.80228 13.5523 9.69771 13.5523 10.25 13L10.75 12.5C11.0261 12.2239 11.4739 12.2239 11.75 12.5C12.0261 12.7761 12.0261 13.2239 11.75 13.5Z" fill="#83C2FE"/>
<path d="M10.25 7L10.75 6.5C11.8546 5.39543 13.6454 5.39543 14.75 6.5C15.8546 7.60457 15.8546 9.39543 14.75 10.5L14.25 11C13.9739 11.2761 13.5261 11.2761 13.25 11C12.9739 10.7239 12.9739 10.2761 13.25 10L13.75 9.5C14.3023 8.94772 14.3023 8.05228 13.75 7.5C13.1977 6.94772 12.3023 6.94771 11.75 7.5L11.25 8C10.9739 8.27614 10.5261 8.27614 10.25 8C9.97386 7.72386 9.97386 7.27614 10.25 7Z" fill="#83C2FE"/>
<path d="M12.25 10L10.75 11.5C10.4739 11.7761 10.0261 11.7761 9.75 11.5C9.47386 11.2239 9.47386 10.7761 9.75 10.5L11.25 9C11.5261 8.72386 11.9739 8.72386 12.25 9C12.5261 9.27614 12.5261 9.72386 12.25 10Z" fill="#83C2FE"/>
</g>
<defs>
<clipPath id="clip0_203_695">
<rect width="16" height="16" fill="white"/>
</clipPath>
</defs>
</svg>
