<svg width="16" height="16" viewBox="0 0 16 16" fill="none" xmlns="http://www.w3.org/2000/svg">
<path opacity="0.8" d="M9.00031 3H11.0003C12.4001 3 13.1004 3.00009 13.6351 3.27246C14.1054 3.51215 14.4882 3.89491 14.7278 4.36523C15.0002 4.89998 15.0003 5.60013 15.0003 7V8.31738L14.889 8.125C14.6759 7.75611 14.3634 7.45604 13.9886 7.25879L13.8235 7.18066L13.5003 7.04199V7C13.5003 6.27541 13.4989 5.82206 13.471 5.48047C13.4578 5.31852 13.4405 5.21486 13.4251 5.14941L13.3909 5.0459C13.319 4.90491 13.215 4.78364 13.0882 4.69141L12.9544 4.60938C12.9337 4.59884 12.8437 4.55578 12.5198 4.5293C12.1783 4.50141 11.7247 4.5 11.0003 4.5H8.37921L6.37921 2.5H4.2005C3.61609 2.5 3.2673 2.5014 3.00909 2.52246C2.88901 2.53227 2.82137 2.54407 2.78839 2.55176L2.77374 2.55469C2.70321 2.59062 2.64215 2.64264 2.59601 2.70605L2.55499 2.77344C2.57156 2.74084 2.54241 2.76837 2.52277 3.00879C2.50168 3.26702 2.50031 3.61556 2.50031 4.2002V9C2.50031 9.72461 2.50171 10.1779 2.5296 10.5195C2.55608 10.8436 2.59914 10.9334 2.60968 10.9541L2.69171 11.0879C2.78395 11.2147 2.9052 11.3187 3.0462 11.3906L3.14972 11.4248C3.21517 11.4401 3.31901 11.4575 3.48077 11.4707C3.7659 11.494 4.12887 11.4971 4.66241 11.498L4.51788 11.75C4.28519 12.1531 4.1798 12.5806 4.17999 12.9971C3.44324 12.9886 2.95874 12.9545 2.57452 12.8174L2.36554 12.7275C1.95413 12.5179 1.60963 12.199 1.36945 11.8076L1.27277 11.6348C1.00037 11.1 1.00031 10.4 1.00031 9V4.2002C1.00031 3.22019 1.00079 2.66887 1.14679 2.25977L1.21808 2.0918C1.38585 1.76262 1.64119 1.48704 1.95441 1.29492L2.0921 1.21777C2.41289 1.0544 2.8085 1.01315 3.45831 1.00293L4.2005 1H7.00031L9.00031 3Z" fill="#0CB081"/>
<path d="M13.25 13.25H15.25L12.9406 9.25L11.616 11.5442M11.616 11.5442L11.0642 12.5C10.7963 12.9641 10.3011 13.25 9.76517 13.25H6.25L9.42543 7.75L11.616 11.5442Z" stroke="#7FD2BB" stroke-width="1.5" stroke-linecap="round" stroke-linejoin="round"/>
</svg>
