<svg width="16" height="16" viewBox="0 0 16 16" fill="none" xmlns="http://www.w3.org/2000/svg">
<path opacity="0.8" d="M8.99979 2.99962H10.9998C12.3995 2.99962 13.0998 2.99985 13.6346 3.27208C14.1048 3.5117 14.4876 3.89462 14.7273 4.36485C14.9439 4.79008 14.9868 5.3202 14.9959 6.22325C14.5389 5.74004 13.9956 5.34009 13.3904 5.04747V5.04552C13.3185 4.90462 13.2144 4.78319 13.0877 4.69102L12.9539 4.60899C12.9326 4.59818 12.8418 4.55526 12.5193 4.52892C12.1777 4.50105 11.7242 4.49962 10.9998 4.49962H8.37869L6.37869 2.49962H4.19998C3.61547 2.49962 3.26678 2.501 3.00858 2.52208C2.88825 2.53192 2.82073 2.54369 2.78787 2.55138L2.77322 2.55431C2.7027 2.59024 2.64162 2.64227 2.59549 2.70567L2.55447 2.77306C2.57094 2.74062 2.54187 2.76852 2.52225 3.00841C2.50117 3.26658 2.49979 3.6154 2.49979 4.19981V8.99962C2.49979 9.72395 2.50123 10.1776 2.52908 10.5191C2.5554 10.8413 2.59829 10.9323 2.60916 10.9537L2.69119 11.0875C2.78337 11.2143 2.90476 11.3183 3.04568 11.3902L3.1492 11.4244C3.21461 11.4398 3.3184 11.4571 3.48026 11.4703C3.82182 11.4982 4.2753 11.4996 4.99979 11.4996H5.71561C5.73194 11.5742 5.75171 11.6502 5.77713 11.7272L5.84842 11.9313C5.99006 12.3087 6.17235 12.6667 6.38943 12.9996H4.99979C3.77469 12.9996 3.08539 12.9996 2.57401 12.817L2.36502 12.7272C1.95371 12.5175 1.60906 12.1986 1.36893 11.8072L1.27225 11.6344C1.00005 11.0997 0.999786 10.3993 0.999786 8.99962V4.19981C0.999787 3.22004 1.00029 2.66844 1.14627 2.25938L1.21756 2.09142C1.38534 1.76227 1.6407 1.48664 1.95389 1.29454L2.09158 1.21739C2.41238 1.05394 2.80794 1.01278 3.45779 1.00255L4.19998 0.999619H6.99979L8.99979 2.99962Z" fill="#9B61FF"/>
<path d="M11.8318 6.87268C11.6655 6.49902 11.9695 6.09892 12.3544 6.2373C13.8968 6.79185 14.9996 8.26615 14.9998 9.99963C14.9998 12.2088 13.2089 13.9996 10.9998 13.9996C9.26615 13.9995 7.79116 12.8967 7.23648 11.3542C7.09808 10.9694 7.4982 10.6653 7.87187 10.8317C10.3822 11.9474 12.9473 9.38303 11.8318 6.87268Z" fill="#BDA1FF"/>
</svg>
