<svg width="16" height="16" viewBox="0 0 16 16" fill="none" xmlns="http://www.w3.org/2000/svg">
<g clip-path="url(#clip0_269_901)">
<path opacity="0.8" d="M9.00043 3.00014H11.0004C12.4003 3.00014 13.1005 3.00014 13.6352 3.2726C14.1055 3.51229 14.4883 3.89504 14.728 4.36537C14.9748 4.85021 14.9953 5.4711 14.9975 6.62611L14.1039 5.73256L13.9203 5.56654C13.4756 5.20218 12.9163 5.00027 12.3364 5.00014H9.16449C8.58448 5.00017 8.02529 5.20219 7.58051 5.56654L7.39691 5.73256L5.25043 7.87904C4.07901 9.05059 4.079 10.9497 5.25043 12.1212L6.12933 13.0001H5.00043C3.6003 13.0001 2.89946 13.0002 2.36469 12.7277C1.89441 12.488 1.51254 12.1052 1.27289 11.6349C1.00041 11.1001 1.00043 10.4002 1.00043 9.00014V4.20033C1.00043 3.08023 1.00021 2.51976 1.2182 2.09193C1.40995 1.71568 1.71595 1.40963 2.09222 1.21791C2.51998 1.00004 3.07994 1.00014 4.19965 1.00014H7.00043L9.00043 3.00014Z" fill="#4D72F7"/>
<path d="M11.5429 6.70711L8.95711 9.29289C8.56658 9.68342 8.56658 10.3166 8.95711 10.7071L11.5429 13.2929C11.9334 13.6834 12.5666 13.6834 12.9571 13.2929L15.5429 10.7071C15.9334 10.3166 15.9334 9.68342 15.5429 9.29289L12.9571 6.70711C12.5666 6.31658 11.9334 6.31658 11.5429 6.70711Z" fill="#94BAFF"/>
<path d="M9 7L6.70711 9.29289C6.31658 9.68342 6.31658 10.3166 6.70711 10.7071L9 13" stroke="#94BAFF" stroke-linecap="round"/>
</g>
<defs>
<clipPath id="clip0_269_901">
<rect width="16" height="16" fill="white"/>
</clipPath>
</defs>
</svg>
