<svg width="16" height="16" viewBox="0 0 16 16" fill="none" xmlns="http://www.w3.org/2000/svg">
<path opacity="0.8" d="M9 3H11C12.4 3 13.1 3.00007 13.6348 3.27246C14.1052 3.51214 14.4879 3.89483 14.7275 4.36523C14.9189 4.74099 14.9743 5.19838 14.9912 5.92285C14.09 5.04317 12.8588 4.5 11.5 4.5C8.73858 4.5 6.5 6.73858 6.5 9.5C6.5 10.8688 6.90978 12.0391 7.46777 13H5C3.60002 13 2.89999 12.9999 2.36523 12.7275C1.89483 12.4879 1.51214 12.1052 1.27246 11.6348C1.00007 11.1 1 10.4 1 9V4.2002C1 3.08009 0.999786 2.51962 1.21777 2.0918C1.40951 1.71554 1.71554 1.40951 2.0918 1.21777C2.51962 0.999786 3.08009 1 4.2002 1H7L9 3Z" fill="#0CB081"/>
<path d="M11.5 6C13.433 6 15 7.567 15 9.5C15 12.1909 12.9311 13.9951 11.9746 14.6855C11.6875 14.8927 11.3125 14.8927 11.0254 14.6855C10.0689 13.9951 8 12.1909 8 9.5C8 7.567 9.567 6 11.5 6ZM11.5 8C10.6716 8 10 8.67157 10 9.5C10 10.3284 10.6716 11 11.5 11C12.3284 11 13 10.3284 13 9.5C13 8.67157 12.3284 8 11.5 8Z" fill="#7FD2BB"/>
</svg>
