<svg width="16" height="16" viewBox="0 0 16 16" fill="none" xmlns="http://www.w3.org/2000/svg">
<path opacity="0.8" d="M9 3H11C12.4 3 13.1 3.00007 13.6348 3.27246C14.1052 3.51214 14.4879 3.89483 14.7275 4.36523C14.895 4.69398 14.9585 5.0852 14.9834 5.66309C14.8395 5.55552 14.6979 5.46178 14.5645 5.38184L14.2393 5.20312C13.2811 4.72408 12.1323 4.5 11 4.5C10.0094 4.5 9.00608 4.6714 8.12891 5.03516L7.76074 5.20312C6.96625 5.60037 5.5 6.61915 5.5 8.5V12.5C5.5 12.674 5.51273 12.8406 5.53613 13H5C3.60002 13 2.89999 12.9999 2.36523 12.7275C1.89483 12.4879 1.51214 12.1052 1.27246 11.6348C1.00007 11.1 1 10.4 1 9V4.2002C1 3.08009 0.999786 2.51962 1.21777 2.0918C1.40951 1.71554 1.71554 1.40951 2.0918 1.21777C2.51962 0.999786 3.08009 1 4.2002 1H7L9 3Z" fill="#FD7334"/>
<path d="M15 12.5C15 13.497 14.2176 14.1305 13.5684 14.4551C12.8594 14.8095 11.9499 15 11 15C10.0501 15 9.14063 14.8095 8.43164 14.4551C7.78244 14.1305 7 13.497 7 12.5V11.626C7.19823 11.8103 7.415 11.9746 7.6416 12.1162C8.548 12.6826 9.7381 13 11 13C12.2619 13 13.452 12.6826 14.3584 12.1162C14.585 11.9746 14.8018 11.8103 15 11.626V12.5ZM11 6C11.9499 6 12.8594 6.19046 13.5684 6.54492C14.2176 6.86952 15 7.50296 15 8.5V9.5C15 10.8807 13.2091 12 11 12C8.79086 12 7 10.8807 7 9.5V8.5C7 7.50296 7.78244 6.86952 8.43164 6.54492C9.14063 6.19046 10.0501 6 11 6ZM11 7C9.34315 7 8 7.67157 8 8.5C8 9.32843 9.34315 10 11 10C12.6569 10 14 9.32843 14 8.5C14 7.67157 12.6569 7 11 7Z" fill="#FFA366"/>
</svg>
