<svg width="16" height="16" viewBox="0 0 16 16" fill="none" xmlns="http://www.w3.org/2000/svg">
<g clip-path="url(#clip0_203_600)">
<path opacity="0.8" d="M9.00021 2.9999H11.0002C12.4002 2.9999 13.1002 2.99991 13.635 3.27236C14.1054 3.51205 14.4881 3.89473 14.7278 4.36514C15.0001 4.89988 15.0002 5.6 15.0002 6.9999V8.9999C15.0002 9.62273 14.9988 10.1071 14.9748 10.4999H14.716C14.5599 10.4999 14.4071 10.4522 14.2795 10.3622C14.0023 10.1668 13.8892 9.81079 14.0022 9.49111L14.5998 7.80264L14.6623 7.60439C15.2131 5.62609 13.5524 3.71032 11.5158 3.97451L11.3108 4.00771C11.1452 4.04087 10.9836 4.09305 10.8303 4.16299L10.6799 4.23916L8.74728 5.30752C7.84718 5.80532 7.2144 6.67241 7.01096 7.67373L6.9758 7.87588L6.85959 8.6874C6.73467 9.56172 6.50937 10.4191 6.18869 11.2411L6.04611 11.5917L5.4426 12.9999H5.00021C3.60036 12.9999 2.90019 12.9998 2.36545 12.7274C1.89504 12.4878 1.51236 12.1051 1.27267 11.6347C1.00027 11.0999 1.00021 10.3999 1.00021 8.9999V4.2001C1.00021 3.07999 1 2.51952 1.21799 2.0917C1.40974 1.71549 1.71577 1.40938 2.09201 1.21767C2.51982 0.999752 3.08041 0.999901 4.20041 0.999901H7.00021L9.00021 2.9999Z" fill="#9B61FF"/>
<path d="M7.86296 11.762L7.92474 11.6667V11.1244C7.92474 10.3047 8.32876 9.5377 9.00474 9.07406C8.56183 8.6184 8.40728 7.95513 8.60314 7.35061L8.64474 7.22221L9.36474 6.85184C9.58496 6.39873 10.0445 6.1111 10.5483 6.1111H10.8047L11.3149 5.32376C11.4135 5.1717 11.636 5.1717 11.7345 5.32376L12.2447 6.1111L12.9936 5.85428C13.1559 5.79863 13.3247 5.91921 13.3247 6.09076V6.48458C13.3247 7.44951 13.0455 8.39384 12.5208 9.20362L11.8847 10.1852C12.7675 10.8663 13.1904 11.9872 12.9777 13.0817L12.9647 13.1481L15.3791 12.1862C15.5902 12.1021 15.8305 12.1952 15.9299 12.3996C16.0323 12.6104 15.9489 12.8643 15.7415 12.9733L13.2825 14.2655C12.3644 14.7479 11.3429 15 10.3058 15H10.0079C9.82182 15 9.63842 14.9556 9.47293 14.8705C9.24005 14.7507 9.18917 14.4399 9.37172 14.2521L9.72474 13.8889L9.00474 13.5185L8.8572 13.9739C8.73054 14.3648 8.36639 14.6296 7.95544 14.6296C7.72855 14.6296 7.53348 14.4688 7.49019 14.2461L7.43572 13.9659C7.28754 13.2037 7.44068 12.4137 7.86296 11.762Z" fill="#BDA1FF"/>
</g>
<defs>
<clipPath id="clip0_203_600">
<rect width="16" height="16" fill="white"/>
</clipPath>
</defs>
</svg>
