<svg width="16" height="16" viewBox="0 0 16 16" fill="none" xmlns="http://www.w3.org/2000/svg">
<path opacity="0.8" d="M9.00015 3.00007H11.0002C12.4 3.00007 13.1002 3.00015 13.6349 3.27253C14.1053 3.51222 14.488 3.89495 14.7277 4.3653C15 4.90005 15.0002 5.60019 15.0002 7.00007V7.88679C14.6688 7.71841 14.3125 7.58869 13.9357 7.50495L13.5002 7.4073V7.00007C13.5002 6.27552 13.4987 5.82212 13.4709 5.48054C13.4576 5.31862 13.4403 5.21493 13.425 5.14948L13.3908 5.04597C13.3189 4.90496 13.2149 4.78371 13.088 4.69147L12.9543 4.60944C12.9336 4.5989 12.8437 4.55585 12.5197 4.52937C12.1781 4.50148 11.7247 4.50007 11.0002 4.50007H8.37906L6.37906 2.50007H4.20035C3.61582 2.50007 3.26716 2.50146 3.00894 2.52253C2.88866 2.53236 2.82116 2.54414 2.78824 2.55183L2.77359 2.55476C2.70302 2.59071 2.642 2.64266 2.59586 2.70612L2.55484 2.77351C2.57154 2.74072 2.54228 2.76813 2.52261 3.00886C2.50154 3.26708 2.50015 3.61567 2.50015 4.20026V9.00007C2.50015 9.72463 2.50156 10.178 2.52945 10.5196C2.55593 10.8437 2.59899 10.9335 2.60953 10.9542L2.69156 11.088C2.7838 11.2148 2.90503 11.3188 3.04605 11.3907L3.14957 11.4249C3.21501 11.4402 3.31875 11.4575 3.48062 11.4708C3.8222 11.4986 4.27566 11.5001 5.00015 11.5001H5.56851C5.63607 12.0858 5.93333 12.6282 6.38882 13.0001H5.00015C3.77505 13.0001 3.08577 13 2.57437 12.8175L2.36539 12.7276C1.95397 12.518 1.60948 12.1991 1.36929 11.8077L1.27261 11.6348C1.00022 11.1001 1.00015 10.4 1.00015 9.00007V4.20026C1.00015 3.22027 1.00065 2.66894 1.14664 2.25983L1.21793 2.09187C1.3857 1.76263 1.641 1.48713 1.95425 1.29499L2.09195 1.21784C2.41276 1.05441 2.80825 1.01322 3.45816 1.003L4.20035 1.00007H7.00015L9.00015 3.00007Z" fill="#FF9B20"/>
<path d="M9.35048 7.125C9.63916 6.625 10.3608 6.625 10.6495 7.125L12.8146 10.875C13.1033 11.375 12.7424 12 12.1651 12H7.83494C7.25759 12 6.89674 11.375 7.18542 10.875L9.35048 7.125Z" fill="#FFC076"/>
<path d="M13.1787 9.00586C14.7524 9.09833 16 10.4032 16 12C16 13.6569 14.6569 15 13 15C11.7898 15 10.7497 14.2821 10.2754 13.25H12.165C13.6566 13.25 14.6059 11.686 13.9639 10.376L13.8975 10.25L13.1787 9.00586ZM12.8525 11.5508L12.8145 11.625C12.8295 11.5989 12.8429 11.5718 12.8545 11.5439L12.8525 11.5508Z" fill="#FFC076"/>
</svg>
