<svg width="16" height="16" viewBox="0 0 16 16" fill="none" xmlns="http://www.w3.org/2000/svg">
<path opacity="0.8" d="M8.99997 2.99997H11C12.3999 2.99997 13.1 3.00006 13.6347 3.27243C14.1051 3.51211 14.4878 3.89482 14.7275 4.3652C14.8324 4.57105 14.8958 4.80157 14.9355 5.08688C14.824 5.01278 14.7091 4.94306 14.5888 4.88181C14.1282 4.64712 13.6616 4.56702 13.2353 4.5322C12.8267 4.49884 12.3349 4.49997 11.7998 4.49997H8.37888L6.37888 2.49997H4.20016C3.61555 2.49997 3.26698 2.50135 3.00876 2.52243C2.88834 2.53227 2.82093 2.54404 2.78806 2.55173L2.77341 2.55466C2.70283 2.59062 2.64182 2.64255 2.59567 2.70602L2.55466 2.77341C2.57135 2.74064 2.5421 2.76808 2.52243 3.00876C2.50135 3.26698 2.49997 3.61555 2.49997 4.20016V8.99997C2.49997 9.72455 2.50138 10.1779 2.52927 10.5195C2.55573 10.8434 2.59876 10.9333 2.60934 10.9541L2.69138 11.0879C2.78362 11.2147 2.90483 11.3187 3.04587 11.3906L3.14938 11.4248C3.21482 11.4401 3.31846 11.4574 3.48044 11.4707C3.82203 11.4986 4.27538 11.5 4.99997 11.5H6.49997V11.5996C6.49997 11.9947 6.49881 12.3817 6.52536 12.707C6.533 12.8005 6.54509 12.8984 6.56052 13H4.99997C3.77476 13 3.0856 12.9999 2.57419 12.8174L2.3652 12.7275C1.95377 12.5179 1.60929 12.199 1.36911 11.8076L1.27243 11.6347C1.00006 11.1 0.999969 10.3999 0.999969 8.99997V4.20016C0.999969 3.22018 1.00046 2.66884 1.14645 2.25974L1.21774 2.09177C1.38552 1.76254 1.64083 1.48703 1.95407 1.29489L2.09177 1.21774C2.41259 1.05428 2.80802 1.01312 3.45798 1.0029L4.20016 0.999969H6.99997L8.99997 2.99997Z" fill="#FF519C"/>
<path d="M11.5 15.5L10.75 15L10 15.5V13H11.5V15.5ZM12.542 6.00293C13.192 6.01315 13.5874 6.0543 13.9082 6.21777C14.2845 6.40951 14.5905 6.71554 14.7822 7.0918C15.0002 7.51962 15 8.08009 15 9.2002V10.7998L14.9971 11.542C14.9868 12.192 14.9457 12.5874 14.7822 12.9082L14.7051 13.0459C14.5129 13.3592 14.2374 13.6145 13.9082 13.7822L13.7402 13.8535C13.4481 13.9578 13.0836 13.9886 12.542 13.9971H12.5V12.9961C12.7125 12.993 12.8845 12.9877 13.0322 12.9756C13.3038 12.9534 13.4047 12.9158 13.4541 12.8906L13.5879 12.8086C13.7148 12.7163 13.8187 12.5952 13.8906 12.4541L13.9121 12.4053C13.9344 12.3433 13.959 12.2357 13.9756 12.0322C13.9829 11.9433 13.9866 11.8455 13.9902 11.7354C13.8065 11.8402 13.6055 11.9191 13.3906 11.9619C13.1974 12.0003 12.9647 12 12.5 12H10V12.0107C9.80393 12.0227 9.66464 12.0489 9.5459 12.1094C9.35793 12.2052 9.20521 12.3579 9.10938 12.5459C9.00041 12.7598 9 13.0398 9 13.5996V13.9053C8.9814 13.8996 8.96218 13.897 8.94434 13.8906L8.81934 13.8369C8.57239 13.7111 8.3658 13.5191 8.22168 13.2842L8.16309 13.1807C8.04064 12.9401 8.01059 12.6436 8.00293 12.1562L8 11.5996V8.40039C8 7.66516 7.99978 7.2512 8.10938 6.94434L8.16309 6.81934C8.28891 6.57239 8.48088 6.3658 8.71582 6.22168L8.81934 6.16309C9.05992 6.04064 9.35641 6.01059 9.84375 6.00293L10.4004 6H11.7998L12.542 6.00293Z" fill="#FF8CC7"/>
</svg>
