<svg width="16" height="16" viewBox="0 0 16 16" fill="none" xmlns="http://www.w3.org/2000/svg">
<path opacity="0.8" d="M9 2.99998H11C12.4 2.99998 13.1 3.00006 13.6348 3.27245C14.1052 3.51213 14.4879 3.89481 14.7275 4.36522C14.8007 4.50889 14.8525 4.66486 14.8916 4.84276C14.8818 4.83763 14.8722 4.83216 14.8623 4.82713C14.4552 4.61969 14.0499 4.55339 13.707 4.52538C13.3817 4.49882 12.9948 4.49998 12.5996 4.49998H9.40039C9.00523 4.49998 8.61828 4.49882 8.29297 4.52538C7.95008 4.55339 7.54483 4.61969 7.1377 4.82713C6.57348 5.11471 6.11472 5.57346 5.82715 6.13768C5.61971 6.54481 5.55341 6.95007 5.52539 7.29295C5.49883 7.61826 5.5 8.00522 5.5 8.40038V11.5996C5.5 11.9947 5.49883 12.3817 5.52539 12.707C5.53303 12.8005 5.54513 12.8984 5.56055 13H5C3.60002 13 2.89999 12.9999 2.36523 12.7275C1.89483 12.4878 1.51214 12.1052 1.27246 11.6348C1.00008 11.1 1 10.3999 1 8.99998V4.20018C1 3.08007 0.999786 2.51961 1.21777 2.09178C1.40951 1.71553 1.71555 1.40949 2.0918 1.21776C2.51962 0.999771 3.08009 0.999985 4.2002 0.999985H7L9 2.99998Z" fill="#4D72F7"/>
<path d="M8.5 9C8.77614 9 9 9.22386 9 9.5V13.5C9 13.7761 8.77614 14 8.5 14C7.67157 14 7 13.3284 7 12.5V9.5C7 9.22386 7.22386 9 7.5 9H8.5ZM14.5 9C14.7761 9 15 9.22386 15 9.5V12.5C15 13.3284 14.3284 14 13.5 14H10.5C10.2239 14 10 13.7761 10 13.5V9.5C10 9.22386 10.2239 9 10.5 9H14.5ZM13.5 6C14.3284 6 15 6.67157 15 7.5C15 7.77614 14.7761 8 14.5 8H7.5C7.22386 8 7 7.77614 7 7.5C7 6.67157 7.67157 6 8.5 6H13.5Z" fill="#94BAFF"/>
</svg>
