<svg width="16" height="16" viewBox="0 0 16 16" fill="none" xmlns="http://www.w3.org/2000/svg">
<path opacity="0.8" d="M9.00046 3H11.0005C12.4001 3 13.1005 3.0001 13.6352 3.27246C14.1055 3.51216 14.4884 3.89495 14.728 4.36523C15.0003 4.89997 15.0005 5.60018 15.0005 7V7.25195C14.7248 6.81135 14.4643 6.34699 14.2378 5.88965C14.0179 5.44599 13.6699 5.078 13.2426 4.83203C13.196 4.78021 13.1449 4.73254 13.0883 4.69141L12.9546 4.60938C12.9339 4.59884 12.8437 4.55578 12.52 4.5293C12.4332 4.52221 12.3387 4.5158 12.2348 4.51172C12.1577 4.50452 12.0795 4.50001 12.0005 4.5H8.37936L6.37936 2.5H4.20065C3.61636 2.5 3.26743 2.50141 3.00925 2.52246C2.88934 2.53226 2.82157 2.54407 2.78854 2.55176L2.7739 2.55469C2.70339 2.59061 2.64229 2.64268 2.59616 2.70605L2.55515 2.77344C2.57165 2.74094 2.54255 2.76853 2.52292 3.00879C2.50184 3.26702 2.50046 3.61556 2.50046 4.2002V9C2.50046 9.72461 2.50187 10.1779 2.52975 10.5195C2.55624 10.8436 2.59929 10.9334 2.60983 10.9541L2.69186 11.0879C2.78409 11.2147 2.90538 11.3187 3.04636 11.3906L3.14987 11.4248C3.21533 11.4401 3.31928 11.4575 3.48093 11.4707C3.82247 11.4986 4.27617 11.5 5.00046 11.5H5.89597L5.81198 12.0068C5.75532 12.3468 5.75826 12.681 5.81198 13H5.00046C3.77555 13 3.08605 12.9998 2.57468 12.8174L2.36569 12.7275C1.95431 12.5179 1.60979 12.1989 1.3696 11.8076L1.27292 11.6348C1.00052 11.1 1.00046 10.4 1.00046 9V4.2002C1.00046 3.22019 1.00095 2.66887 1.14694 2.25977L1.21823 2.0918C1.38601 1.76264 1.64137 1.48703 1.95456 1.29492L2.09225 1.21777C2.41302 1.05446 2.80873 1.01315 3.45847 1.00293L4.20065 1H7.00046L9.00046 3Z" fill="#0CB081"/>
<path d="M10.9997 6C11.2257 6 11.4204 5.99982 11.5808 6.01074C11.7456 6.02199 11.911 6.04683 12.0739 6.11426C12.4413 6.26648 12.7332 6.55844 12.8855 6.92578L12.9284 7.04883C12.9644 7.17163 12.9805 7.29534 12.989 7.41895C12.9999 7.57934 12.9997 7.77393 12.9997 8V8.00195C13.2586 8.00698 13.4222 8.02506 13.5622 8.08789C13.7342 8.16508 13.8806 8.28933 13.9851 8.44629C14.1036 8.62449 14.1432 8.86201 14.2224 9.33691L14.5339 11.2051C14.6941 12.1665 14.7746 12.6478 14.6355 13.0225C14.5133 13.3512 14.2795 13.6263 13.9753 13.8008C13.6286 13.9996 13.1413 14 12.1667 14H9.83273C8.85826 14 8.37077 13.9996 8.02413 13.8008C7.72015 13.6263 7.48706 13.351 7.36495 13.0225C7.2258 12.6478 7.3053 12.1665 7.46554 11.2051L7.77706 9.33691C7.85622 8.86199 7.89588 8.6245 8.01437 8.44629C8.11884 8.28919 8.26606 8.16511 8.4382 8.08789C8.57811 8.02518 8.74124 8.00699 8.99972 8.00195V8C8.99972 7.77394 8.99953 7.57934 9.01046 7.41895C9.02171 7.25406 9.04651 7.08871 9.11398 6.92578L9.17745 6.79199C9.34028 6.48787 9.60405 6.24752 9.9255 6.11426L10.0485 6.07129C10.1713 6.03539 10.2951 6.01918 10.4187 6.01074C10.579 5.99981 10.7738 6 10.9997 6ZM10.9997 7C10.7603 7 10.6054 7.00073 10.487 7.00879C10.4305 7.01265 10.3906 7.01713 10.363 7.02246L10.3083 7.03809C10.2167 7.07611 10.1391 7.14047 10.0847 7.22168L10.0378 7.30859C10.0292 7.32944 10.0163 7.37348 10.0085 7.4873C10.0005 7.60574 9.99972 7.76047 9.99972 8H11.9997C11.9997 7.76045 11.999 7.60574 11.9909 7.4873C11.9871 7.43067 11.9826 7.39095 11.9773 7.36328L11.9616 7.30859C11.9109 7.18618 11.8136 7.08882 11.6911 7.03809C11.6702 7.02947 11.626 7.01654 11.5124 7.00879C11.394 7.00075 11.2391 7 10.9997 7Z" fill="#7FD2BB"/>
</svg>
