<svg width="16" height="16" viewBox="0 0 16 16" fill="none" xmlns="http://www.w3.org/2000/svg">
<path opacity="0.8" d="M9 3H11C12.4 3 13.1 3.00007 13.6348 3.27246C14.1052 3.51214 14.4879 3.89483 14.7275 4.36523C14.9895 4.87946 14.9986 5.54651 14.999 6.8418C14.7578 6.47849 14.4407 6.17083 14.0684 5.94238L13.8613 5.82617C13.8164 5.80329 13.7714 5.78222 13.7266 5.7627C13.635 5.7228 13.5534 5.68612 13.4805 5.6543C13.4773 5.59307 13.4752 5.53528 13.4707 5.48047C13.4575 5.31847 13.4402 5.21485 13.4248 5.14941L13.3906 5.0459C13.3187 4.90484 13.2148 4.78366 13.0879 4.69141L12.9541 4.60938C12.9334 4.59883 12.8436 4.55578 12.5195 4.5293C12.3728 4.51732 12.2055 4.51005 12.0049 4.50586C11.6501 4.23741 11.2226 4.06013 10.7559 4.0127L10.5 4C9.9383 4 9.42136 4.18729 9.00391 4.5H8.37891L6.37891 2.5H4.2002C3.61556 2.5 3.26702 2.50138 3.00879 2.52246C2.88836 2.5323 2.82096 2.54407 2.78809 2.55176L2.77344 2.55469C2.70286 2.59065 2.64185 2.64258 2.5957 2.70605L2.55469 2.77344C2.57139 2.74065 2.54213 2.76805 2.52246 3.00879C2.50138 3.26702 2.5 3.61556 2.5 4.2002V9C2.5 9.72461 2.50141 10.1779 2.5293 10.5195C2.55578 10.8436 2.59883 10.9334 2.60938 10.9541L2.69141 11.0879C2.78366 11.2148 2.90484 11.3187 3.0459 11.3906L3.14941 11.4248C3.21485 11.4402 3.31847 11.4575 3.48047 11.4707C3.82206 11.4986 4.2754 11.5 5 11.5H5.5V11.5996C5.5 11.9945 5.49895 12.3809 5.52539 12.7061C5.53302 12.7998 5.54416 12.8981 5.55957 13H5C3.77477 13 3.08563 13 2.57422 12.8174L2.36523 12.7275C1.95378 12.5179 1.60933 12.199 1.36914 11.8076L1.27246 11.6348C1.00007 11.1 1 10.4 1 9V4.2002C1 3.22019 1.00049 2.66887 1.14648 2.25977L1.21777 2.0918C1.38555 1.76256 1.64085 1.48707 1.9541 1.29492L2.0918 1.21777C2.41263 1.0543 2.80804 1.01315 3.45801 1.00293L4.2002 1H7L9 3Z" fill="#0CB081"/>
<path d="M11.5996 7C12.4393 7 12.8598 6.99981 13.1807 7.16309C13.4629 7.3069 13.6931 7.53709 13.8369 7.81934C14.0002 8.14015 14 8.56068 14 9.40039V9.5H14.5C15.0523 9.5 15.5 9.94772 15.5 10.5C15.5 11.0523 15.0523 11.5 14.5 11.5H14V11.5996C14 12.4393 14.0002 12.8598 13.8369 13.1807C13.6931 13.4629 13.4629 13.6931 13.1807 13.8369C12.8598 14.0002 12.4393 14 11.5996 14H11.5V13.5C11.5 12.9477 11.0523 12.5 10.5 12.5C9.94772 12.5 9.5 12.9477 9.5 13.5V14H9.40039C8.56068 14 8.14015 14.0002 7.81934 13.8369C7.53709 13.6931 7.3069 13.4629 7.16309 13.1807C6.99981 12.8598 7 12.4393 7 11.5996V11.5H7.5C8.05228 11.5 8.5 11.0523 8.5 10.5C8.5 9.94772 8.05228 9.5 7.5 9.5H7V9.40039C7 8.56068 6.99981 8.14015 7.16309 7.81934C7.3069 7.53709 7.53709 7.3069 7.81934 7.16309C8.14015 6.99981 8.56068 7 9.40039 7H9.5V6.5C9.5 5.94772 9.94772 5.5 10.5 5.5C11.0523 5.5 11.5 5.94772 11.5 6.5V7H11.5996Z" fill="#7FD2BB"/>
</svg>
