<svg width="16" height="16" viewBox="0 0 16 16" fill="none" xmlns="http://www.w3.org/2000/svg">
<path opacity="0.8" d="M9 3H11C12.4 3 13.1 3.00007 13.6348 3.27246C14.1052 3.51214 14.4879 3.89483 14.7275 4.36523C14.9938 4.88792 14.9989 5.5685 14.999 6.90625C14.9545 6.88055 14.9112 6.85256 14.8652 6.8291C14.5676 6.67717 14.321 6.43236 14.1689 6.13477C13.9873 5.77899 13.737 5.46534 13.4355 5.20996C13.4313 5.18697 13.4289 5.1667 13.4248 5.14941L13.3906 5.0459C13.3187 4.90484 13.2148 4.78366 13.0879 4.69141L12.9541 4.60938C12.9334 4.59883 12.8436 4.55578 12.5195 4.5293C12.2409 4.50655 11.8879 4.50209 11.374 4.50098C11.3474 4.50061 11.321 4.50015 11.2949 4.5H8.37891L6.37891 2.5H4.2002C3.61556 2.5 3.26702 2.50138 3.00879 2.52246C2.88836 2.5323 2.82096 2.54407 2.78809 2.55176L2.77344 2.55469C2.70286 2.59065 2.64185 2.64258 2.5957 2.70605L2.55469 2.77344C2.57139 2.74065 2.54213 2.76805 2.52246 3.00879C2.50138 3.26702 2.5 3.61556 2.5 4.2002V9C2.5 9.72461 2.50141 10.1779 2.5293 10.5195C2.55578 10.8436 2.59883 10.9334 2.60938 10.9541L2.69141 11.0879C2.78366 11.2148 2.90484 11.3187 3.0459 11.3906L3.14941 11.4248C3.21485 11.4402 3.31847 11.4575 3.48047 11.4707C3.82206 11.4986 4.2754 11.5 5 11.5H5.5V11.5996C5.5 11.9948 5.49883 12.3817 5.52539 12.707C5.53303 12.8005 5.54513 12.8984 5.56055 13H5C3.77477 13 3.08563 13 2.57422 12.8174L2.36523 12.7275C1.95378 12.5179 1.60933 12.199 1.36914 11.8076L1.27246 11.6348C1.00007 11.1 1 10.4 1 9V4.2002C1 3.22019 1.00049 2.66887 1.14648 2.25977L1.21777 2.0918C1.38555 1.76256 1.64085 1.48707 1.9541 1.29492L2.0918 1.21777C2.41263 1.0543 2.80804 1.01315 3.45801 1.00293L4.2002 1H7L9 3Z" fill="#9B61FF"/>
<rect x="7" y="8" width="8" height="6" rx="1.5" fill="#BDA1FF"/>
<path d="M9 8V9H10V7.8C10 7.51997 10 7.37996 10.0545 7.273C10.1024 7.17892 10.1789 7.10243 10.273 7.0545C10.38 7 10.52 7 10.8 7H11.2C11.48 7 11.62 7 11.727 7.0545C11.8211 7.10243 11.8976 7.17892 11.9455 7.273C12 7.37996 12 7.51997 12 7.8V9H13V8C13 7.53501 13 7.30252 12.9489 7.11177C12.8102 6.59413 12.4059 6.18981 11.8882 6.05111C11.6975 6 11.465 6 11 6C10.535 6 10.3025 6 10.1118 6.05111C9.59413 6.18981 9.18981 6.59413 9.05111 7.11177C9 7.30252 9 7.53501 9 8Z" fill="#BDA1FF"/>
</svg>
