<svg width="16" height="16" viewBox="0 0 16 16" fill="none" xmlns="http://www.w3.org/2000/svg">
<path opacity="0.8" d="M8.99966 3.00027H10.9997C12.3998 3.00027 13.1006 3.00025 13.6354 3.27274C14.1054 3.51235 14.4876 3.89451 14.7272 4.36453C14.9438 4.78958 14.9866 5.31956 14.9958 6.22195C14.4259 5.61972 13.7217 5.14644 12.9313 4.84988L12.7282 4.77859L12.5788 4.73465C11.0594 4.34277 10.0244 5.78052 10.2223 6.96805L10.3288 7.60184C10.498 8.61709 9.61747 9.49761 8.6022 9.3284L7.96646 9.22293L7.85123 9.20828C6.64967 9.08892 5.26459 10.1776 5.77701 11.7278L5.8483 11.9319C5.99005 12.3096 6.17301 12.6672 6.39029 13.0003H4.99966C3.59978 13.0003 2.89963 13.0003 2.3649 12.7278C1.89449 12.4881 1.51181 12.1054 1.27213 11.635C0.999706 11.1003 0.999664 10.4001 0.999664 9.00027V4.20047C0.999664 3.08036 1.00043 2.5199 1.21841 2.09207C1.41017 1.71581 1.71616 1.40977 2.09244 1.21805C2.5202 1.00023 3.08012 1.00027 4.19986 1.00027H6.99966L8.99966 3.00027Z" fill="#9B61FF"/>
<path d="M11.8318 6.87268C11.6655 6.49902 11.9695 6.09892 12.3544 6.2373C13.8968 6.79185 14.9996 8.26615 14.9998 9.99963C14.9998 12.2088 13.2089 13.9996 10.9998 13.9996C9.26615 13.9995 7.79116 12.8967 7.23648 11.3542C7.09808 10.9694 7.4982 10.6653 7.87187 10.8317C10.3822 11.9474 12.9473 9.38303 11.8318 6.87268Z" fill="#BDA1FF"/>
</svg>
