<svg width="16" height="16" viewBox="0 0 16 16" fill="none" xmlns="http://www.w3.org/2000/svg">
<path opacity="0.7" d="M9 2.99997H11C12.4 2.99997 13.1 3.00004 13.6348 3.27243C14.1052 3.51211 14.4879 3.89481 14.7275 4.3652C14.9794 4.85967 14.9966 5.49549 14.998 6.69528C14.9129 6.49172 14.7937 6.30438 14.6328 6.15134C14.277 5.81315 13.8787 5.51826 13.4473 5.27438C13.4396 5.22218 13.4323 5.18121 13.4248 5.14938L13.3906 5.04587C13.3187 4.90482 13.2148 4.78362 13.0879 4.69138L12.9541 4.60934C12.9334 4.59879 12.8436 4.55574 12.5195 4.52927C12.1779 4.50138 11.7246 4.49997 11 4.49997H8.37891L6.37891 2.49997H4.2002C3.61556 2.49997 3.26702 2.50135 3.00879 2.52243C2.88836 2.53227 2.82096 2.54404 2.78809 2.55173L2.77344 2.55466C2.70286 2.59062 2.64185 2.64256 2.5957 2.70602L2.55469 2.77341C2.57137 2.74066 2.54213 2.7681 2.52246 3.00876C2.50138 3.26699 2.5 3.61555 2.5 4.20016V8.99997C2.5 9.72456 2.50141 10.1779 2.5293 10.5195C2.55577 10.8435 2.59881 10.9333 2.60938 10.9541L2.69141 11.0879C2.78365 11.2147 2.90484 11.3187 3.0459 11.3906L3.14941 11.4248C3.21485 11.4401 3.31847 11.4574 3.48047 11.4707C3.75163 11.4928 4.09319 11.4967 4.58496 11.498C4.60793 11.6343 4.63404 11.7693 4.66602 11.9023C4.74358 12.225 4.93122 12.5078 5.17285 12.7353L5.28809 12.8437C5.34026 12.8928 5.38825 12.9459 5.43457 13H5C3.77477 13 3.08563 12.9999 2.57422 12.8174L2.36523 12.7275C1.95378 12.5179 1.60933 12.199 1.36914 11.8076L1.27246 11.6347C1.00008 11.1 1 10.3999 1 8.99997V4.20016C1 3.22018 1.00049 2.66884 1.14648 2.25974L1.21777 2.09177C1.38555 1.76254 1.64086 1.48703 1.9541 1.29489L2.0918 1.21774C2.41262 1.05428 2.80804 1.01312 3.45801 1.0029L4.2002 0.999969H7L9 2.99997Z" fill="#7E7E92"/>
<path d="M11.4984 6.43564C11.6604 6.29797 11.8753 6.21063 12.0745 6.28502C12.5465 6.4613 12.9807 6.71436 13.3623 7.02935C13.5263 7.16472 13.5582 7.39443 13.5201 7.60362C13.3889 8.32425 13.8289 9.08575 14.5188 9.33223C14.7193 9.40386 14.9025 9.54656 14.9378 9.75651C14.9784 9.99845 15 10.2469 15 10.5003C15 10.7534 14.9784 11.0014 14.9378 11.243C14.9025 11.453 14.7192 11.5957 14.5187 11.6674C13.829 11.9139 13.3891 12.6755 13.5202 13.3961C13.5582 13.6052 13.5263 13.8348 13.3624 13.9702C12.9811 14.2851 12.5472 14.5381 12.0756 14.7144C11.8764 14.7889 11.6614 14.7015 11.4993 14.5639C10.9403 14.0891 10.0587 14.0889 9.49984 14.5636C9.33764 14.7014 9.12256 14.7889 8.92323 14.7143C8.45173 14.538 8.01784 14.285 7.63663 13.9702C7.4727 13.8349 7.44083 13.6052 7.47896 13.3961C7.6104 12.6752 7.17068 11.9135 6.4806 11.6672C6.27995 11.5956 6.0965 11.4529 6.06145 11.2427C6.02115 11.0012 6.00002 10.7532 6 10.5003C6 10.2471 6.02113 9.99869 6.06146 9.75684C6.0965 9.54671 6.27993 9.40396 6.48057 9.33239C7.17077 9.08618 7.61061 8.32451 7.47907 7.60363C7.44089 7.39443 7.47275 7.16468 7.63674 7.0293C8.01822 6.71439 8.45247 6.46145 8.92431 6.28515C9.1236 6.21069 9.33859 6.29811 9.50072 6.43586C10.0593 6.91047 10.9397 6.91026 11.4984 6.43564ZM10.5 9.00028C9.67157 9.00028 9 9.67186 9 10.5003C9.00015 11.3286 9.67167 12.0003 10.5 12.0003C11.3283 12.0003 11.9998 11.3286 12 10.5003C12 9.67186 11.3284 9.00028 10.5 9.00028Z" fill="#BEBED1"/>
</svg>
