<svg width="16" height="16" viewBox="0 0 16 16" fill="none" xmlns="http://www.w3.org/2000/svg">
<path opacity="0.8" d="M9.00034 3.00034H11.0003C12.4001 3.00034 13.1004 3.00043 13.6351 3.2728C14.1053 3.51249 14.4883 3.8953 14.7279 4.36557C14.9501 4.80206 14.9889 5.34879 14.9964 6.29623C14.9702 6.28636 14.9449 6.27512 14.9193 6.26596C14.6119 6.15612 14.2375 6.05768 13.8558 5.95541L13.4886 5.85678C13.4843 5.71587 13.4801 5.59234 13.471 5.4808C13.4578 5.31913 13.4405 5.21521 13.4251 5.14975L13.391 5.04623C13.3191 4.90531 13.2149 4.78396 13.0882 4.69174L12.9544 4.60971C12.9338 4.59917 12.8437 4.55612 12.5199 4.52963C12.1783 4.50175 11.7247 4.50034 11.0003 4.50034H8.37924L6.37924 2.50034H4.20053C3.61613 2.50034 3.26733 2.50174 3.00912 2.5228C2.889 2.53261 2.82139 2.54441 2.78842 2.55209L2.77377 2.55502C2.70319 2.59099 2.64219 2.64291 2.59604 2.70639L2.55502 2.77377C2.57173 2.74098 2.54247 2.76838 2.5228 3.00912C2.50174 3.26733 2.50034 3.61612 2.50034 4.20053V9.00034C2.50034 9.72475 2.50175 10.1783 2.52963 10.5199C2.55612 10.8437 2.59917 10.9338 2.60971 10.9544L2.69174 11.0882C2.78396 11.2149 2.90531 11.3191 3.04623 11.391L3.14975 11.4251C3.21521 11.4405 3.31913 11.4578 3.4808 11.471C3.82236 11.4989 4.27599 11.5003 5.00034 11.5003H6.09995C6.05506 11.8056 6.0357 12.1581 6.11655 12.5384C6.15019 12.6965 6.19626 12.851 6.25424 13.0003H5.00034C3.77543 13.0003 3.08593 13.0002 2.57455 12.8177L2.36557 12.7279C1.95425 12.5183 1.60966 12.1992 1.36948 11.808L1.2728 11.6351C1.00042 11.1004 1.00034 10.4001 1.00034 9.00034V4.20053C1.00034 3.22067 1.00089 2.66919 1.14682 2.2601L1.21811 2.09213C1.38588 1.7629 1.64118 1.4874 1.95444 1.29526L2.09213 1.21811C2.41294 1.0547 2.80846 1.01349 3.45834 1.00327L4.20053 1.00034H7.00034L9.00034 3.00034Z" fill="#30A6F9"/>
<path d="M13.468 7.40386C14.2791 7.62119 14.6853 7.72985 14.953 7.9706C15.1884 8.18256 15.3511 8.46449 15.417 8.77434C15.4917 9.12648 15.3827 9.53263 15.1653 10.3437L14.5961 12.468C14.3788 13.2791 14.2701 13.6854 14.0294 13.953C13.8174 14.1884 13.5355 14.3512 13.2257 14.417C12.8735 14.4917 12.4674 14.3827 11.6563 14.1653L9.53198 13.5961C8.72088 13.3788 8.31463 13.2702 8.04701 13.0294C7.81161 12.8174 7.64883 12.5355 7.58297 12.2257C7.50829 11.8735 7.61732 11.4674 7.83465 10.6563L8.40385 8.53199C8.62118 7.72089 8.72984 7.31465 8.97059 7.04702C9.18254 6.81162 9.46448 6.64884 9.77432 6.58298C10.1265 6.5083 10.5326 6.61733 11.3437 6.83466L13.468 7.40386ZM13.4026 8.4216C13.1324 8.34922 12.9973 8.31336 12.88 8.33819C12.7767 8.36014 12.6827 8.4144 12.6121 8.49287C12.5319 8.58206 12.4954 8.71701 12.423 8.98715L12.3194 9.3739C12.247 9.64403 12.2111 9.77916 12.236 9.89648C12.2579 9.99976 12.3122 10.0937 12.3906 10.1644C12.4798 10.2446 12.6148 10.2811 12.8849 10.3535L13.2717 10.4571C13.5418 10.5295 13.6769 10.5653 13.7942 10.5405C13.8975 10.5185 13.9915 10.4643 14.0622 10.3858C14.1423 10.2966 14.1788 10.1617 14.2512 9.89153L14.3548 9.50479C14.4272 9.23465 14.4631 9.09952 14.4383 8.9822C14.4163 8.87892 14.362 8.78494 14.2836 8.71429C14.1944 8.63412 14.0594 8.59761 13.7893 8.52523L13.4026 8.4216Z" fill="#83C2FE"/>
</svg>
