<svg width="16" height="16" viewBox="0 0 16 16" fill="none" xmlns="http://www.w3.org/2000/svg">
<path opacity="0.8" d="M9 3.00022H11C12.4 3.00022 13.1 3.00029 13.6348 3.27268C14.1051 3.51237 14.4879 3.89508 14.7275 4.36546C14.9998 4.90019 15 5.6004 15 7.00022V7.12522L13.4932 5.99436C13.489 5.79421 13.4827 5.62717 13.4707 5.48069C13.4575 5.31886 13.4401 5.21509 13.4248 5.14964L13.3906 5.04612C13.3187 4.9051 13.2147 4.78387 13.0879 4.69163L12.9541 4.6096C12.9334 4.59906 12.8436 4.556 12.5195 4.52952C12.1779 4.50163 11.7246 4.50022 11 4.50022H8.37891L6.37891 2.50022H4.2002C3.61556 2.50022 3.26702 2.5016 3.00879 2.52268C2.88836 2.53252 2.82096 2.54429 2.78809 2.55198L2.77344 2.55491C2.70289 2.59087 2.64184 2.64283 2.5957 2.70628L2.55469 2.77366C2.57139 2.74087 2.54213 2.76827 2.52246 3.00901C2.5014 3.26722 2.5 3.61594 2.5 4.20042V9.00022C2.5 9.7247 2.50141 10.1782 2.5293 10.5198C2.55578 10.8437 2.59884 10.9336 2.60938 10.9543L2.69141 11.0881C2.78364 11.2149 2.90489 11.319 3.0459 11.3908L3.14941 11.425C3.21486 11.4404 3.31851 11.4577 3.48047 11.4709C3.82206 11.4988 4.27541 11.5002 5 11.5002H5.5V11.9924C5.50003 12.3443 5.57481 12.6867 5.71289 13.0002H5C3.77482 13.0002 3.08563 13.0002 2.57422 12.8176L2.36523 12.7278C1.95383 12.5181 1.60933 12.1992 1.36914 11.8078L1.27246 11.635C1.00008 11.1003 1 10.4001 1 9.00022V4.20042C1 3.22056 1.00056 2.66908 1.14648 2.25999L1.21777 2.09202C1.38553 1.76282 1.64089 1.48729 1.9541 1.29514L2.0918 1.21799C2.41263 1.05452 2.80803 1.01338 3.45801 1.00315L4.2002 1.00022H7L9 3.00022Z" fill="#0CB081"/>
<path d="M14.7392 11.1585C15.1247 11.4588 15.1247 12.0418 14.7392 12.3421L11.6142 14.7728C11.2531 15.0534 10.7466 15.0535 10.3856 14.7728L7.26064 12.3421C6.87518 12.0419 6.87537 11.4588 7.26064 11.1585L7.46377 11.0003L10.3856 13.2728C10.7466 13.5535 11.2531 13.5534 11.6142 13.2728L14.5351 11.0003L14.7392 11.1585ZM10.3856 6.22783C10.7468 5.94697 11.253 5.94697 11.6142 6.22783L14.7392 8.65752C15.1252 8.95775 15.1251 9.54178 14.7392 9.84209L11.6142 12.2728C11.253 12.5536 10.7468 12.5536 10.3856 12.2728L7.26162 9.84209C6.87556 9.54182 6.87556 8.95779 7.26162 8.65752L10.3856 6.22783Z" fill="#7FD2BB"/>
</svg>
