<svg width="16" height="16" viewBox="0 0 16 16" fill="none" xmlns="http://www.w3.org/2000/svg">
<path opacity="0.8" d="M9 2.99968H11C12.3999 2.99968 13.1 2.99981 13.6348 3.27214C14.1051 3.51178 14.4878 3.89462 14.7275 4.36491C14.8671 4.63889 14.9336 4.95668 14.9668 5.38933L14.8779 5.35222L13.0449 4.66472L12.9541 4.60905C12.9398 4.60178 12.893 4.58013 12.7617 4.55827L11.8779 4.22722L11.6631 4.15691C11.2292 4.03758 10.7708 4.03758 10.3369 4.15691L10.1221 4.22722L9.39551 4.49968H8.37891L6.37891 2.49968H4.2002C3.61558 2.49968 3.26702 2.50106 3.00879 2.52214C2.88844 2.53197 2.82099 2.54375 2.78809 2.55144L2.77344 2.55437C2.70293 2.59029 2.64184 2.64235 2.5957 2.70573L2.55469 2.77312C2.57111 2.74074 2.54208 2.76864 2.52246 3.00847C2.50138 3.26665 2.5 3.61543 2.5 4.19987V8.99968C2.5 9.72406 2.50143 10.1777 2.5293 10.5192C2.55567 10.842 2.59862 10.9326 2.60938 10.9538L2.69141 11.0876C2.78363 11.2144 2.90489 11.3184 3.0459 11.3903L3.14941 11.4245C3.21485 11.4398 3.31848 11.4571 3.48047 11.4704C3.82206 11.4983 4.27539 11.4997 5 11.4997H5.74902C5.89824 12.0263 6.11287 12.5296 6.38672 12.9997H5C3.77477 12.9997 3.08563 12.9997 2.57422 12.8171L2.36523 12.7272C1.95384 12.5176 1.60931 12.1987 1.36914 11.8073L1.27246 11.6344C1.0002 11.0997 1 10.3994 1 8.99968V4.19987C1 3.22006 1.0005 2.66851 1.14648 2.25945L1.21777 2.09148C1.38555 1.76235 1.64093 1.4867 1.9541 1.2946L2.0918 1.21745C2.4126 1.05404 2.80812 1.01283 3.45801 1.00261L4.2002 0.99968H7L9 2.99968Z" fill="#30A6F9"/>
<path d="M10.4736 5.69717C10.813 5.57002 11.187 5.57002 11.5264 5.69717L14.3516 6.75674C14.7416 6.90321 15 7.27656 15 7.69326V9.72842C15 11.4522 14.1121 13.0549 12.6504 13.9687L11.5303 14.6688C11.206 14.8715 10.794 14.8715 10.4697 14.6688L9.34961 13.9687C7.8879 13.0549 7 11.4522 7 9.72842V7.69326C7 7.27656 7.25836 6.90321 7.64844 6.75674L10.4736 5.69717ZM11 7.9999C10.1716 7.9999 9.50005 8.67152 9.5 9.4999C9.5 10.1527 9.91782 10.7059 10.5 10.912V11.9999C10.5 12.276 10.7239 12.4999 11 12.4999C11.2761 12.4999 11.5 12.276 11.5 11.9999V10.912C12.0822 10.7059 12.5 10.1527 12.5 9.4999C12.4999 8.67152 11.8284 7.9999 11 7.9999Z" fill="#83C2FE"/>
</svg>
