<svg width="16" height="16" viewBox="0 0 16 16" fill="none" xmlns="http://www.w3.org/2000/svg">
<path opacity="0.8" d="M9 2.99999H11C12.4 2.99999 13.1 3.00007 13.6348 3.27245C14.1052 3.51213 14.4879 3.89483 14.7275 4.36523C14.9168 4.73674 14.9726 5.18809 14.9902 5.89843C14.9479 5.8742 14.9059 5.84936 14.8623 5.82714C14.4552 5.6197 14.0499 5.5534 13.707 5.52538C13.6317 5.51923 13.553 5.51427 13.4717 5.51073C13.4709 5.50058 13.4715 5.49042 13.4707 5.48046C13.4575 5.31847 13.4402 5.21484 13.4248 5.14941L13.3906 5.04589C13.3187 4.90484 13.2148 4.78365 13.0879 4.6914L12.9541 4.60937C12.9334 4.59881 12.8436 4.55576 12.5195 4.52929C12.1779 4.5014 11.7246 4.49999 11 4.49999H8.37891L6.37891 2.49999H4.2002C3.61557 2.49999 3.26702 2.50137 3.00879 2.52245C2.88836 2.53229 2.82096 2.54406 2.78809 2.55175L2.77344 2.55468C2.70286 2.59064 2.64185 2.64257 2.5957 2.70605L2.55469 2.77343C2.57139 2.74064 2.54213 2.76805 2.52246 3.00878C2.50138 3.26701 2.5 3.61555 2.5 4.20019V8.99999C2.5 9.72459 2.50141 10.1779 2.5293 10.5195C2.55577 10.8436 2.59882 10.9334 2.60938 10.9541L2.69141 11.0879C2.78365 11.2148 2.90484 11.3187 3.0459 11.3906L3.14941 11.4248C3.21485 11.4401 3.31848 11.4575 3.48047 11.4707C3.82206 11.4986 4.2754 11.5 5 11.5H5.50098C5.50103 11.7272 5.50135 11.968 5.51855 12.1787C5.53705 12.4051 5.57982 12.6949 5.70996 13H5C3.77478 13 3.08563 13 2.57422 12.8174L2.36523 12.7275C1.95379 12.5179 1.60933 12.199 1.36914 11.8076L1.27246 11.6348C1.00007 11.1 1 10.4 1 8.99999V4.20019C1 3.22018 1.00049 2.66887 1.14648 2.25976L1.21777 2.09179C1.38555 1.76256 1.64085 1.48706 1.9541 1.29491L2.0918 1.21777C2.41262 1.0543 2.80804 1.01315 3.45801 1.00292L4.2002 0.999992H7L9 2.99999Z" fill="#4D72F7"/>
<path d="M10.5 13.7002C10.5 13.848 10.5002 13.9291 10.5049 13.9873C10.5051 13.9895 10.5047 13.9921 10.5049 13.9941C10.5072 13.9944 10.5101 13.9949 10.5127 13.9951C10.5709 13.9998 10.652 14 10.7998 14H11.2002C11.348 14 11.4291 13.9998 11.4873 13.9951C11.4896 13.9949 11.4921 13.9943 11.4941 13.9941C11.4943 13.9921 11.4949 13.9896 11.4951 13.9873C11.4998 13.9291 11.5 13.848 11.5 13.7002V13H10.5V13.7002ZM12.5996 7C13.4393 7 13.8598 6.99981 14.1807 7.16309C14.4629 7.3069 14.6931 7.53709 14.8369 7.81934C15.0002 8.14015 15 8.56068 15 9.40039V11H7V9.40039C7 8.56068 6.99981 8.14015 7.16309 7.81934C7.3069 7.53709 7.53709 7.3069 7.81934 7.16309C8.14015 6.99981 8.56068 7 9.40039 7H12.5996ZM12.5 13.7002C12.5 13.8319 12.5001 13.9609 12.4912 14.0693C12.4842 14.155 12.4703 14.2521 12.4346 14.3525L12.3906 14.4541C12.3187 14.5952 12.2148 14.7163 12.0879 14.8086L11.9541 14.8906C11.8185 14.9597 11.6836 14.9819 11.5693 14.9912C11.4609 15.0001 11.3319 15 11.2002 15H10.7998C10.6681 15 10.5391 15.0001 10.4307 14.9912C10.345 14.9842 10.2479 14.9703 10.1475 14.9346L10.0459 14.8906C9.85793 14.7948 9.70521 14.6421 9.60938 14.4541C9.54028 14.3185 9.51814 14.1836 9.50879 14.0693C9.49993 13.9609 9.5 13.8319 9.5 13.7002V13H8.59961C8.03982 13 7.75976 12.9996 7.5459 12.8906C7.35793 12.7948 7.20522 12.6421 7.10938 12.4541C7.04888 12.3354 7.0237 12.196 7.01172 12H14.9883C14.9763 12.196 14.9511 12.3354 14.8906 12.4541C14.7948 12.6421 14.6421 12.7948 14.4541 12.8906C14.2402 12.9996 13.9602 13 13.4004 13H12.5V13.7002Z" fill="#94BAFF"/>
</svg>
