<svg width="16" height="16" viewBox="0 0 16 16" fill="none" xmlns="http://www.w3.org/2000/svg">
<path opacity="0.8" d="M9.00043 3H11.0004C12.4003 3 13.1005 3.00001 13.6352 3.27246C14.1055 3.51215 14.4883 3.89489 14.728 4.36523C14.967 4.83468 14.9939 5.43169 14.9975 6.51758L14.9291 6.42676C14.4564 5.84264 13.7426 5.50013 12.9858 5.5H9.26508C8.50822 5.5 7.79459 5.84266 7.32172 6.42676L7.2309 6.54688L5.44476 9.04688C4.82396 9.91608 4.82396 11.0839 5.44476 11.9531L6.19281 13H5.00043C3.6003 13 2.89946 13 2.36469 12.7275C1.89439 12.4878 1.51253 12.1051 1.27289 11.6348C1.0004 11.1 1.00043 10.4001 1.00043 9V4.2002C1.00043 3.08009 1.00021 2.51962 1.2182 2.0918C1.40996 1.7156 1.71599 1.40947 2.09222 1.21777C2.51997 0.99994 3.07999 1 4.19965 1H7.00043L9.00043 3Z" fill="#FF519C"/>
<path d="M8.79422 7.10829C9.02222 6.80429 9.47833 6.80429 9.70633 7.10829L11.8001 9.90029C12.0665 10.2558 12.0667 10.745 11.8001 11.1005L9.70633 13.8925C9.47842 14.1962 9.02231 14.196 8.79422 13.8925L6.69949 11.1005C6.43292 10.7451 6.43311 10.2558 6.69949 9.90029L8.79422 7.10829ZM10.7942 7.10829C11.0223 6.80449 11.4784 6.80436 11.7063 7.10829L13.8001 9.90029C14.0664 10.2557 14.0664 10.7441 13.8001 11.0995L11.7063 13.8915C11.4784 14.1955 11.0223 14.1954 10.7942 13.8915L10.7503 13.8319L12.8001 11.0995C13.0664 10.7441 13.0664 10.2557 12.8001 9.90029L10.7503 7.16689L10.7942 7.10829ZM12.7932 7.10829C13.0212 6.80436 13.4773 6.80448 13.7054 7.10829L15.7991 9.90029C16.0657 10.2558 16.0657 10.745 15.7991 11.1005L13.7054 13.8925C13.4772 14.1959 13.0211 14.1962 12.7932 13.8925L12.7493 13.8329L14.7991 11.1005C15.0657 10.745 15.0657 10.2558 14.7991 9.90029L12.7493 7.16689L12.7932 7.10829Z" fill="#FF8CC7"/>
</svg>
