<svg width="16" height="16" viewBox="0 0 16 16" fill="none" xmlns="http://www.w3.org/2000/svg">
<g clip-path="url(#clip0_203_915)">
<path opacity="0.8" d="M9 3H11C12.4 3 13.1 3.00007 13.6348 3.27246C14.1052 3.51214 14.4879 3.89483 14.7275 4.36523C14.9999 4.89999 15 5.60002 15 7V8.86816C14.7206 8.69121 14.4159 8.55785 14.0947 8.47754L11.873 7.92188C11.5331 7.83689 11.2536 7.59094 11.123 7.2666L11.0771 7.12305L11.0254 6.94824C10.7326 6.09231 9.92468 5.5 9 5.5C8.07532 5.5 7.26738 6.09231 6.97461 6.94824L6.92285 7.12305C6.83714 7.46534 6.5886 7.74652 6.26562 7.87695L6.12305 7.92285C5.17421 8.16006 4.5 9.01373 4.5 10C4.5 10.9863 5.17421 11.8399 6.12305 12.0771L6.2666 12.123C6.59094 12.2536 6.83689 12.5331 6.92188 12.873L6.94824 12.9756L6.95508 13H5C3.60002 13 2.89999 12.9999 2.36523 12.7275C1.89483 12.4879 1.51214 12.1052 1.27246 11.6348C1.00007 11.1 1 10.4 1 9V4.2002C1 3.08009 0.999786 2.51962 1.21777 2.0918C1.40951 1.71554 1.71554 1.40951 2.0918 1.21777C2.51962 0.999786 3.08009 1 4.2002 1H7L9 3Z" fill="#FF9B20"/>
<path d="M8.48418 7.39398C8.66137 6.91514 9.33863 6.91514 9.51582 7.39398L9.9926 8.68245C10.0483 8.833 10.167 8.9517 10.3175 9.0074L11.606 9.48418C12.0849 9.66137 12.0849 10.3386 11.606 10.5158L10.3175 10.9926C10.167 11.0483 10.0483 11.167 9.9926 11.3175L9.51582 12.606C9.33863 13.0849 8.66137 13.0849 8.48418 12.606L8.0074 11.3175C7.9517 11.167 7.833 11.0483 7.68245 10.9926L6.39398 10.5158C5.91514 10.3386 5.91514 9.66137 6.39398 9.48418L7.68245 9.0074C7.833 8.9517 7.9517 8.833 8.0074 8.68245L8.48418 7.39398Z" fill="#FFC076"/>
<path d="M13.0725 10.2998C13.2082 9.88724 13.7918 9.88724 13.9275 10.2998L14.1715 11.0417C14.2161 11.1774 14.3226 11.2839 14.4583 11.3285L15.2002 11.5725C15.6128 11.7082 15.6128 12.2918 15.2002 12.4275L14.4583 12.6715C14.3226 12.7161 14.2161 12.8226 14.1715 12.9583L13.9275 13.7002C13.7918 14.1128 13.2082 14.1128 13.0725 13.7002L12.8285 12.9583C12.7839 12.8226 12.6774 12.7161 12.5417 12.6715L11.7998 12.4275C11.3872 12.2918 11.3872 11.7082 11.7998 11.5725L12.5417 11.3285C12.6774 11.2839 12.7839 11.1774 12.8285 11.0417L13.0725 10.2998Z" fill="#FFC076"/>
</g>
<defs>
<clipPath id="clip0_203_915">
<rect width="16" height="16" fill="white"/>
</clipPath>
</defs>
</svg>
