<svg width="16" height="16" viewBox="0 0 16 16" fill="none" xmlns="http://www.w3.org/2000/svg">
<g clip-path="url(#clip0_270_1063)">
<path opacity="0.8" d="M9 3.00023H11C12.4 3.00023 13.1 3.0003 13.6348 3.27269C14.1051 3.51238 14.4879 3.89509 14.7275 4.36546C14.9223 4.74794 14.9764 5.21496 14.9922 5.96214L13.4727 5.10765C13.448 5.09378 13.4224 5.08171 13.3975 5.06859L13.3906 5.04613C13.3187 4.90511 13.2147 4.78388 13.0879 4.69164L12.9541 4.6096C12.9334 4.59906 12.8436 4.55601 12.5195 4.52953C12.1779 4.50164 11.7246 4.50023 11 4.50023H8.37891L6.37891 2.50023H4.2002C3.61556 2.50023 3.26702 2.50161 3.00879 2.52269C2.88837 2.53253 2.82096 2.5443 2.78809 2.55199L2.77344 2.55492C2.70289 2.59088 2.64183 2.64283 2.5957 2.70628L2.55469 2.77367C2.57139 2.74088 2.54213 2.76828 2.52246 3.00902C2.5014 3.26723 2.5 3.61596 2.5 4.20042V9.00023C2.5 9.7247 2.50141 10.1782 2.5293 10.5198C2.55578 10.8437 2.59884 10.9336 2.60938 10.9543L2.69141 11.0881C2.78364 11.2149 2.90489 11.319 3.0459 11.3909L3.14941 11.425C3.21486 11.4404 3.31851 11.4577 3.48047 11.4709C3.82206 11.4988 4.27541 11.5002 5 11.5002H5.5V12.4504C5.50002 12.637 5.51922 12.8206 5.55273 13.0002H5C3.77483 13.0002 3.08563 13.0002 2.57422 12.8176L2.36523 12.7278C1.95384 12.5182 1.60933 12.1992 1.36914 11.8078L1.27246 11.635C1.00008 11.1003 1 10.4001 1 9.00023V4.20042C1 3.22058 1.00056 2.66908 1.14648 2.25999L1.21777 2.09203C1.38553 1.76283 1.6409 1.48729 1.9541 1.29515L2.0918 1.218C2.41263 1.05453 2.80803 1.01338 3.45801 1.00316L4.2002 1.00023H7L9 3.00023Z" fill="#FF4466"/>
<path d="M11.2639 6.41631C11.7209 6.15798 12.2799 6.15699 12.7375 6.41435L15.2355 7.81963C15.7078 8.0853 16.0002 8.58535 16.0002 9.12724V11.8753C16.0001 12.4159 15.709 12.9149 15.2385 13.181L11.7365 15.1614C11.2795 15.4198 10.7205 15.4198 10.2629 15.1624L7.76483 13.7571C7.29263 13.4915 7.00033 12.9922 7.00018 12.4505V9.70244C7.00018 9.16174 7.29124 8.66292 7.7619 8.39677L11.2639 6.41631ZM14.9328 8.80693C14.812 8.59795 14.5634 8.50908 14.343 8.58232L14.2502 8.62431L11.0012 10.5003L8.75018 9.20146L8.65741 9.15947C8.43701 9.08624 8.18837 9.17521 8.06757 9.38408C7.92961 9.6232 8.01108 9.92963 8.25018 10.0677L10.5002 11.3665V13.5003C10.5003 13.7763 10.7241 14.0003 11.0002 14.0003C11.2761 14.0002 11.5 13.7762 11.5002 13.5003V11.3665L14.7502 9.48955L14.8322 9.43095C15.0063 9.27675 15.0534 9.0162 14.9328 8.80693Z" fill="#FF8197"/>
</g>
<defs>
<clipPath id="clip0_270_1063">
<rect width="16" height="16" fill="white"/>
</clipPath>
</defs>
</svg>
