<svg width="16" height="16" viewBox="0 0 16 16" fill="none" xmlns="http://www.w3.org/2000/svg">
<path opacity="0.7" d="M9 3H11C12.4 3 13.1 3.00007 13.6348 3.27246C14.1052 3.51214 14.4879 3.89483 14.7275 4.36523C14.9676 4.83653 14.9937 5.4362 14.9971 6.53027C13.8977 5.28581 12.2911 4.5 10.5 4.5C7.18629 4.5 4.5 7.18629 4.5 10.5C4.5 11.3925 4.6964 12.2388 5.0459 13H5C3.60002 13 2.89999 12.9999 2.36523 12.7275C1.89483 12.4879 1.51214 12.1052 1.27246 11.6348C1.00007 11.1 1 10.4 1 9V4.2002C1 3.08009 0.999786 2.51962 1.21777 2.0918C1.40951 1.71554 1.71554 1.40951 2.0918 1.21777C2.51962 0.999786 3.08009 1 4.2002 1H7L9 3Z" fill="#7E7E92"/>
<path d="M10.5 5.89406C13.0323 5.89406 15.0833 7.9451 15.0833 10.4774C15.0831 11.4377 14.7817 12.3738 14.2216 13.1538C13.6614 13.9339 12.8708 14.5187 11.9609 14.8258C11.7318 14.8717 11.6458 14.7284 11.6458 14.6081C11.6458 14.4534 11.6516 13.9607 11.6516 13.3477C11.6516 12.918 11.5083 12.643 11.3422 12.4998C12.362 12.3852 13.4333 11.9956 13.4333 10.2368C13.4333 9.7326 13.2557 9.32583 12.9635 9.005C13.0094 8.89042 13.1698 8.42062 12.9177 7.79042C12.9177 7.79042 12.5338 7.66437 11.6573 8.26021C11.2906 8.15708 10.901 8.10552 10.5114 8.10552C10.1219 8.10552 9.73228 8.15708 9.36562 8.26021C8.48905 7.6701 8.1052 7.79042 8.1052 7.79042C7.85312 8.42062 8.01353 8.89042 8.05937 9.005C7.76718 9.32583 7.58957 9.73833 7.58957 10.2368C7.58957 11.9899 8.6552 12.3852 9.67499 12.4998C9.54322 12.6144 9.42291 12.8149 9.3828 13.1128C9.11926 13.2331 8.46041 13.4279 8.04791 12.7347C7.96197 12.5972 7.70416 12.2592 7.34322 12.2649C6.95937 12.2706 7.18853 12.4826 7.34895 12.5685C7.54374 12.6774 7.76718 13.0842 7.81874 13.2159C7.91041 13.4737 8.20832 13.9665 9.35989 13.7545C9.35989 14.1383 9.36562 14.4993 9.36562 14.6081C9.36562 14.7284 9.27968 14.8659 9.05051 14.8258C8.13765 14.522 7.34364 13.9384 6.78113 13.1579C6.21861 12.3773 5.91615 11.4395 5.91666 10.4774C5.91666 7.9451 7.9677 5.89406 10.5 5.89406Z" fill="#BEBED1"/>
</svg>
