<svg width="16" height="16" viewBox="0 0 16 16" fill="none" xmlns="http://www.w3.org/2000/svg">
<path opacity="0.8" d="M8.99979 2.99966H10.9998C12.3995 2.99966 13.0998 2.99989 13.6346 3.27213C14.1049 3.51178 14.4876 3.89457 14.7273 4.3649C14.8988 4.70134 14.9625 5.10332 14.9861 5.70377C14.6862 5.57827 14.4014 5.53643 14.1785 5.51822C13.9367 5.4985 13.6552 5.49966 13.4002 5.49966H12.1629C12.0329 5.49966 11.8136 5.49452 11.574 5.52505L11.3308 5.569C11.1395 5.61494 10.954 5.68302 10.7791 5.77213L10.6082 5.86783C10.4645 5.95588 10.3354 6.06035 10.2273 6.15787L9.97049 6.40787L7.0701 9.30728C6.88962 9.48776 6.69011 9.68666 6.53299 9.87173C6.38551 10.0455 6.2095 10.2813 6.08572 10.5905L6.03592 10.7272C5.8729 11.2291 5.87298 11.7702 6.03592 12.2721L6.08572 12.4088C6.1815 12.6482 6.30947 12.843 6.43045 12.9997H4.99979C3.5998 12.9997 2.89977 12.9997 2.36502 12.7272C1.89476 12.4876 1.51192 12.1057 1.27225 11.6354C0.999764 11.1006 0.999786 10.3998 0.999786 8.99966V4.19986C0.999786 3.08029 0.999843 2.52018 1.21756 2.09244C1.40922 1.71629 1.7155 1.41018 2.09158 1.21841C2.5194 1.00043 3.07989 0.999664 4.19998 0.999664H6.99979L8.99979 2.99966Z" fill="#4D72F7"/>
<path d="M13.3995 7C13.9596 7 14.2403 7.00038 14.4542 7.10938C14.6422 7.20523 14.7949 7.35794 14.8908 7.5459C14.9997 7.75976 15.0001 8.03982 15.0001 8.59961V9.83691C15.0001 10.0815 15.0004 10.2042 14.9728 10.3193C14.9483 10.4214 14.9075 10.5189 14.8527 10.6084C14.7908 10.7093 14.7043 10.7958 14.5314 10.9688L11.631 13.8682C11.235 14.2642 11.0371 14.4629 10.8087 14.5371C10.608 14.6023 10.3913 14.6023 10.1906 14.5371C9.96235 14.4628 9.76415 14.264 9.3683 13.8682L8.13099 12.6318C7.73498 12.2358 7.53721 12.0369 7.46302 11.8086C7.39795 11.608 7.39795 11.392 7.46302 11.1914C7.53721 10.9631 7.73498 10.7642 8.13099 10.3682L11.0314 7.46875C11.2043 7.29581 11.2908 7.2093 11.3917 7.14746C11.4812 7.09263 11.5788 7.05184 11.6808 7.02734C11.7958 6.99976 11.918 7 12.1622 7H13.3995ZM12.5001 8.5C11.9478 8.5 11.5001 8.94772 11.5001 9.5C11.5001 10.0523 11.9478 10.5 12.5001 10.5C13.0523 10.4999 13.5001 10.0522 13.5001 9.5C13.5001 8.94777 13.0523 8.50008 12.5001 8.5Z" fill="#94BAFF"/>
</svg>
