<svg width="16" height="16" viewBox="0 0 16 16" fill="none" xmlns="http://www.w3.org/2000/svg">
<g clip-path="url(#clip0_269_901)">
<path opacity="0.8" d="M9.00021 3.00014H11.0002C12.4 3.00014 13.1003 3.00022 13.635 3.2726C14.1053 3.51229 14.4881 3.89504 14.7278 4.36537C14.9746 4.85022 14.9951 5.47104 14.9973 6.62611L14.1037 5.73256L13.9201 5.56654C13.7736 5.44648 13.6136 5.34621 13.4455 5.26283C13.4384 5.2162 13.4319 5.17896 13.425 5.14955L13.3908 5.04604C13.319 4.90505 13.2149 4.78377 13.0881 4.69154L12.9543 4.60951C12.9336 4.59897 12.8437 4.55592 12.5197 4.52943C12.1782 4.50155 11.7247 4.50014 11.0002 4.50014H8.37912L6.37912 2.50014H4.20041C3.61593 2.50014 3.26721 2.50153 3.009 2.5226C2.88878 2.53242 2.82124 2.54421 2.7883 2.5519L2.77365 2.55482C2.70307 2.59079 2.64207 2.64272 2.59592 2.70619L2.5549 2.77357C2.57161 2.74078 2.54234 2.76818 2.52267 3.00893C2.5016 3.26715 2.50021 3.61579 2.50021 4.20033V9.00014C2.50021 9.72466 2.50162 10.1781 2.52951 10.5197C2.55599 10.8437 2.59905 10.9336 2.60959 10.9542L2.69162 11.088C2.78385 11.2148 2.90512 11.3189 3.04611 11.3908L3.14963 11.4249C3.21508 11.4403 3.31888 11.4576 3.48068 11.4708C3.78554 11.4957 4.1794 11.4986 4.7756 11.4992C4.9039 11.721 5.06041 11.9314 5.25021 12.1212L6.12912 13.0001H5.00021C3.77517 13.0001 3.08582 13 2.57443 12.8175L2.36545 12.7277C1.95406 12.5181 1.60954 12.1991 1.36935 11.8078L1.27267 11.6349C1.00029 11.1002 1.00021 10.4 1.00021 9.00014V4.20033C1.00021 3.22037 1.00072 2.66901 1.1467 2.2599L1.21799 2.09193C1.38576 1.7627 1.64106 1.4872 1.95432 1.29506L2.09201 1.21791C2.41282 1.05449 2.80832 1.01329 3.45822 1.00307L4.20041 1.00014H7.00021L9.00021 3.00014Z" fill="#4D72F7"/>
<path d="M11.5429 6.70711L8.95711 9.29289C8.56658 9.68342 8.56658 10.3166 8.95711 10.7071L11.5429 13.2929C11.9334 13.6834 12.5666 13.6834 12.9571 13.2929L15.5429 10.7071C15.9334 10.3166 15.9334 9.68342 15.5429 9.29289L12.9571 6.70711C12.5666 6.31658 11.9334 6.31658 11.5429 6.70711Z" fill="#94BAFF"/>
<path d="M9 7L6.70711 9.29289C6.31658 9.68342 6.31658 10.3166 6.70711 10.7071L9 13" stroke="#94BAFF" stroke-linecap="round"/>
</g>
<defs>
<clipPath id="clip0_269_901">
<rect width="16" height="16" fill="white"/>
</clipPath>
</defs>
</svg>
