<svg width="16" height="16" viewBox="0 0 16 16" fill="none" xmlns="http://www.w3.org/2000/svg">
<path opacity="0.8" d="M9 2.99971H11C12.3999 2.99971 13.1 2.99984 13.6348 3.27217C14.1051 3.51182 14.4878 3.89464 14.7275 4.36494C14.83 4.56604 14.8937 4.79082 14.9336 5.06709C14.4537 4.87256 13.9075 4.82492 13.3613 4.97041L13.3486 4.97334C13.2804 4.8633 13.1923 4.76702 13.0879 4.69112L12.9541 4.60909C12.9332 4.59844 12.843 4.55544 12.5195 4.52901C12.1779 4.50112 11.7246 4.49971 11 4.49971H8.37891L6.37891 2.49971H4.2002C3.61558 2.49971 3.26702 2.50109 3.00879 2.52217C2.88843 2.532 2.82098 2.54378 2.78809 2.55147L2.77344 2.5544C2.70293 2.59033 2.64184 2.64237 2.5957 2.70576L2.55469 2.77315C2.57113 2.74073 2.54208 2.76859 2.52246 3.0085C2.50138 3.26669 2.5 3.61544 2.5 4.19991V8.99971C2.5 9.72411 2.50143 10.1777 2.5293 10.5192C2.55568 10.8422 2.59864 10.9327 2.60938 10.9538L2.69141 11.0876C2.78363 11.2144 2.90489 11.3184 3.0459 11.3903L3.14941 11.4245C3.21485 11.4399 3.31848 11.4572 3.48047 11.4704C3.82206 11.4983 4.27539 11.4997 5 11.4997H6.75586C6.71597 11.5526 6.67621 11.6053 6.63574 11.6569C6.33541 12.0406 6.1264 12.4988 6.04199 12.9997H5C3.77477 12.9997 3.08563 12.9997 2.57422 12.8171L2.36523 12.7272C1.95383 12.5176 1.60931 12.1987 1.36914 11.8073L1.27246 11.6345C1.00018 11.0997 1 10.3995 1 8.99971V4.19991C1 3.22008 1.0005 2.66854 1.14648 2.25948L1.21777 2.09151C1.38555 1.76237 1.64092 1.48673 1.9541 1.29463L2.0918 1.21748C2.41261 1.05406 2.80811 1.01286 3.45801 1.00264L4.2002 0.99971H7L9 2.99971Z" fill="#FF4466"/>
<path d="M13.6836 6.43849C14.3311 6.22265 15 6.70515 15 7.38771V12.5L14.9922 12.6533C14.9154 13.4097 14.2767 14 13.5 14C12.6716 14 12 13.3284 12 12.5C12 11.6716 12.6716 11 13.5 11V9.00001L10.5 10V13.5L10.4922 13.6533C10.4154 14.4097 9.77666 15 9 15C8.17158 15 7.50001 14.3284 7.5 13.5C7.5 12.6716 8.17157 12 9 12V8.72072C9.00002 8.2904 9.27542 7.90866 9.68359 7.77247L13.6836 6.43849Z" fill="#FF8197"/>
</svg>
