<svg width="16" height="16" viewBox="0 0 16 16" fill="none" xmlns="http://www.w3.org/2000/svg">
<path opacity="0.8" d="M8.99969 2.99961H10.9997C12.3998 2.99961 13.1007 2.99959 13.6354 3.27207C14.1057 3.51172 14.4876 3.89462 14.7272 4.36485C14.9997 4.89958 14.9997 5.59974 14.9997 6.99961V7.88633C14.6684 7.71794 14.312 7.58822 13.9352 7.50449L13.1755 7.33555C12.773 7.24602 12.4174 7.01501 12.1725 6.68809L12.0749 6.5416L11.9225 6.28867L11.8376 6.15684C10.9486 4.87889 9.03804 4.89063 8.16473 6.1793L8.08075 6.31309L5.862 10.1158C5.2656 11.1382 5.57875 12.3387 6.38837 12.9996H4.99969C3.59978 12.9996 2.89967 12.9996 2.36493 12.7271C1.89468 12.4875 1.5118 12.1056 1.27216 11.6354C0.999672 11.1006 0.999695 10.3997 0.999695 8.99961V4.19981C0.999695 3.07993 1.00053 2.52017 1.21844 2.09238C1.41019 1.71606 1.71614 1.41011 2.09247 1.21836C2.52025 1.00048 3.08004 0.999611 4.19989 0.999611H6.99969L8.99969 2.99961Z" fill="#FF9B20"/>
<path d="M9.35048 7.125C9.63916 6.625 10.3608 6.625 10.6495 7.125L12.8146 10.875C13.1033 11.375 12.7424 12 12.1651 12H7.83494C7.25759 12 6.89674 11.375 7.18542 10.875L9.35048 7.125Z" fill="#FFC076"/>
<path d="M13.1787 9.00586C14.7524 9.09833 16 10.4032 16 12C16 13.6569 14.6569 15 13 15C11.7898 15 10.7497 14.2821 10.2754 13.25H12.165C13.6566 13.25 14.6059 11.686 13.9639 10.376L13.8975 10.25L13.1787 9.00586ZM12.8525 11.5508L12.8145 11.625C12.8295 11.5989 12.8429 11.5718 12.8545 11.5439L12.8525 11.5508Z" fill="#FFC076"/>
</svg>
