<svg width="16" height="16" viewBox="0 0 16 16" fill="none" xmlns="http://www.w3.org/2000/svg">
<g clip-path="url(#clip0_269_901)">
<path opacity="0.8" d="M9.00043 3.00014H11.0004C12.4001 3.00014 13.1005 3.00023 13.6352 3.2726C14.1054 3.51229 14.4883 3.8951 14.728 4.36537C14.9748 4.85021 14.9953 5.4711 14.9975 6.62611L14.1039 5.73256L13.9203 5.56654C13.7738 5.44649 13.6138 5.34621 13.4457 5.26283C13.4386 5.21621 13.4321 5.17896 13.4252 5.14955L13.3911 5.04604C13.3192 4.9051 13.215 4.78376 13.0883 4.69154L12.9545 4.60951C12.9338 4.59898 12.8437 4.55592 12.52 4.52943C12.1784 4.50155 11.7248 4.50014 11.0004 4.50014H8.37933L6.37933 2.50014H4.20062C3.61629 2.50014 3.26741 2.50155 3.00922 2.5226C2.88922 2.5324 2.82152 2.54421 2.78851 2.5519L2.77386 2.55482C2.70332 2.59077 2.64227 2.64276 2.59613 2.70619L2.55511 2.77357C2.57176 2.74087 2.54255 2.76832 2.52289 3.00893C2.50181 3.26715 2.50043 3.61578 2.50043 4.20033V9.00014C2.50043 9.72466 2.50184 10.1781 2.52972 10.5197C2.55621 10.8436 2.59926 10.9336 2.6098 10.9542L2.69183 11.088C2.78406 11.2148 2.90537 11.3189 3.04633 11.3908L3.14984 11.4249C3.2153 11.4403 3.31925 11.4576 3.4809 11.4708C3.78576 11.4957 4.17963 11.4986 4.77582 11.4992C4.90412 11.721 5.06062 11.9314 5.25043 12.1212L6.12933 13.0001H5.00043C3.77552 13.0001 3.08602 13 2.57465 12.8175L2.36566 12.7277C1.95431 12.5181 1.60975 12.199 1.36957 11.8078L1.27289 11.6349C1.0005 11.1002 1.00043 10.4 1.00043 9.00014V4.20033C1.00043 3.22032 1.00091 2.66901 1.14691 2.2599L1.2182 2.09193C1.38598 1.76272 1.64129 1.48719 1.95453 1.29506L2.09222 1.21791C2.41301 1.05455 2.80864 1.01329 3.45844 1.00307L4.20062 1.00014H7.00043L9.00043 3.00014Z" fill="#4D72F7"/>
<path d="M11.5429 6.70711L8.95711 9.29289C8.56658 9.68342 8.56658 10.3166 8.95711 10.7071L11.5429 13.2929C11.9334 13.6834 12.5666 13.6834 12.9571 13.2929L15.5429 10.7071C15.9334 10.3166 15.9334 9.68342 15.5429 9.29289L12.9571 6.70711C12.5666 6.31658 11.9334 6.31658 11.5429 6.70711Z" fill="#94BAFF"/>
<path d="M9 7L6.70711 9.29289C6.31658 9.68342 6.31658 10.3166 6.70711 10.7071L9 13" stroke="#94BAFF" stroke-linecap="round"/>
</g>
<defs>
<clipPath id="clip0_269_901">
<rect width="16" height="16" fill="white"/>
</clipPath>
</defs>
</svg>
