<svg width="16" height="16" viewBox="0 0 16 16" fill="none" xmlns="http://www.w3.org/2000/svg">
<path opacity="0.8" d="M9 2.99975H11C12.3999 2.99975 13.1 2.99987 13.6348 3.27221C14.1052 3.51189 14.4879 3.89459 14.7275 4.36498C14.8301 4.56637 14.8937 4.79129 14.9336 5.06811C14.4536 4.87345 13.9076 4.82492 13.3613 4.97045L13.209 5.01635L9.20898 6.34936C8.18842 6.68978 7.50002 7.64555 7.5 8.72143V9.7517C7.5 10.4652 7.07559 11.0951 6.63574 11.657C6.33541 12.0406 6.12639 12.4988 6.04199 12.9997H5C3.59993 12.9997 2.9 12.9997 2.36523 12.7273C1.89483 12.4876 1.51214 12.1049 1.27246 11.6345C1.00017 11.0998 1 10.3996 1 8.99975V4.19994C1 3.07988 0.99979 2.51936 1.21777 2.09155C1.40953 1.71535 1.71557 1.40922 2.0918 1.21752C2.51962 0.999541 3.0801 0.999748 4.2002 0.999748H7L9 2.99975Z" fill="#FF4466"/>
<path d="M13.6836 6.43849C14.3311 6.22265 15 6.70515 15 7.38771V12.5L14.9922 12.6533C14.9154 13.4097 14.2767 14 13.5 14C12.6716 14 12 13.3284 12 12.5C12 11.6716 12.6716 11 13.5 11V9.00001L10.5 10V13.5L10.4922 13.6533C10.4154 14.4097 9.77666 15 9 15C8.17158 15 7.50001 14.3284 7.5 13.5C7.5 12.6716 8.17157 12 9 12V8.72072C9.00002 8.2904 9.27542 7.90866 9.68359 7.77247L13.6836 6.43849Z" fill="#FF8197"/>
</svg>
