<svg width="16" height="16" viewBox="0 0 16 16" fill="none" xmlns="http://www.w3.org/2000/svg">
<path opacity="0.8" d="M8.9996 3.00032H10.9996C12.3994 3.00032 13.0996 3.00048 13.6344 3.27278C14.1048 3.51246 14.4875 3.89515 14.7271 4.36555C14.8985 4.70206 14.9624 5.1038 14.9859 5.70442C14.686 5.57889 14.4012 5.53709 14.1783 5.51888C13.9589 5.50098 13.7066 5.5003 13.4713 5.50032C13.4708 5.49378 13.4708 5.48724 13.4703 5.48079C13.4571 5.31897 13.4397 5.21519 13.4244 5.14973L13.3902 5.04622C13.3183 4.90516 13.2144 4.78398 13.0875 4.69173L12.9537 4.6097C12.9327 4.599 12.8423 4.55602 12.5191 4.52962C12.1776 4.50176 11.724 4.50032 10.9996 4.50032H8.37851L6.37851 2.50032H4.1998C3.61539 2.50032 3.26657 2.5017 3.00839 2.52278C2.88821 2.53261 2.82053 2.5444 2.78769 2.55208L2.77304 2.55501C2.70264 2.59096 2.64136 2.64303 2.59531 2.70638L2.55429 2.77376C2.571 2.74097 2.54173 2.76837 2.52206 3.00911C2.50101 3.26731 2.4996 3.61614 2.4996 4.20052V9.00032C2.4996 9.72474 2.50102 10.1783 2.5289 10.5199C2.55538 10.8437 2.59844 10.9337 2.60898 10.9544L2.69101 11.0882C2.78322 11.215 2.90453 11.319 3.0455 11.3909L3.14902 11.4251C3.21441 11.4405 3.31828 11.4578 3.48007 11.471C3.82161 11.4989 4.27522 11.5003 4.9996 11.5003H5.91367C5.91365 11.7611 5.95423 12.0219 6.03574 12.2728L6.08554 12.4095C6.18137 12.6489 6.3093 12.8437 6.43027 13.0003H4.9996C3.77461 13.0003 3.08518 13.0003 2.57382 12.8177L2.36484 12.7279C1.95348 12.5182 1.6089 12.1993 1.36874 11.8079L1.27206 11.6351C0.999691 11.1004 0.999603 10.4001 0.999603 9.00032V4.20052C0.999603 3.22083 1.00023 2.66915 1.14609 2.26009L1.21738 2.09212C1.38508 1.76303 1.64064 1.48738 1.9537 1.29524L2.0914 1.21809C2.41217 1.05466 2.80787 1.01348 3.45761 1.00325L4.1998 1.00032H6.9996L8.9996 3.00032Z" fill="#4D72F7"/>
<path d="M13.3995 7C13.9596 7 14.2403 7.00038 14.4542 7.10938C14.6422 7.20523 14.7949 7.35794 14.8908 7.5459C14.9997 7.75976 15.0001 8.03982 15.0001 8.59961V9.83691C15.0001 10.0815 15.0004 10.2042 14.9728 10.3193C14.9483 10.4214 14.9075 10.5189 14.8527 10.6084C14.7908 10.7093 14.7043 10.7958 14.5314 10.9688L11.631 13.8682C11.235 14.2642 11.0371 14.4629 10.8087 14.5371C10.608 14.6023 10.3913 14.6023 10.1906 14.5371C9.96235 14.4628 9.76415 14.264 9.3683 13.8682L8.13099 12.6318C7.73498 12.2358 7.53721 12.0369 7.46302 11.8086C7.39795 11.608 7.39795 11.392 7.46302 11.1914C7.53721 10.9631 7.73498 10.7642 8.13099 10.3682L11.0314 7.46875C11.2043 7.29581 11.2908 7.2093 11.3917 7.14746C11.4812 7.09263 11.5788 7.05184 11.6808 7.02734C11.7958 6.99976 11.918 7 12.1622 7H13.3995ZM12.5001 8.5C11.9478 8.5 11.5001 8.94772 11.5001 9.5C11.5001 10.0523 11.9478 10.5 12.5001 10.5C13.0523 10.4999 13.5001 10.0522 13.5001 9.5C13.5001 8.94777 13.0523 8.50008 12.5001 8.5Z" fill="#94BAFF"/>
</svg>
