<svg width="16" height="16" viewBox="0 0 16 16" fill="none" xmlns="http://www.w3.org/2000/svg">
<path opacity="0.8" d="M9 2.99997H11C12.4 2.99997 13.1 3.00004 13.6348 3.27243C14.1052 3.51211 14.4879 3.8948 14.7275 4.3652C14.8085 4.52412 14.8624 4.69821 14.9023 4.90036C14.8449 4.91863 14.7874 4.93893 14.7305 4.96286L14.6055 5.02048L12.7656 5.9404C12.763 5.9416 12.7435 5.95059 12.7031 5.96286C12.6589 5.97629 12.5995 5.99065 12.5254 6.00387C12.3751 6.03068 12.1932 6.04684 12 6.04684C11.8068 6.04684 11.6249 6.03068 11.4746 6.00387C11.4005 5.99065 11.3411 5.97629 11.2969 5.96286C11.2565 5.95059 11.237 5.9416 11.2344 5.9404L9.39453 5.02048L9.26953 4.96286C7.96854 4.4161 6.5 5.36927 6.5 6.80954V9.00094C6.50019 9.92198 6.77921 10.7815 7.25684 11.4951C7.29317 11.5495 7.37555 11.732 7.43555 12.0781C7.48876 12.3853 7.50608 12.7192 7.50098 13H5C3.60001 13 2.89999 12.9999 2.36523 12.7275C1.89483 12.4878 1.51214 12.1051 1.27246 11.6347C1.00008 11.1 1 10.3999 1 8.99997V4.20016C1 3.08006 0.999786 2.51959 1.21777 2.09176C1.40951 1.71552 1.71555 1.40947 2.0918 1.21774C2.51962 0.999754 3.08009 0.999968 4.2002 0.999968H7L9 2.99997Z" fill="#30A6F9"/>
<path d="M8 6.80861C8.00029 6.43721 8.39134 6.19534 8.72363 6.36134L9.78906 6.89455C11.1439 7.57209 11.9998 8.95686 12 10.4717C12.0002 8.95686 12.8561 7.57209 14.2109 6.89455L15.2764 6.36134C15.6087 6.19534 15.9997 6.43721 16 6.80861V9.00002C16 10.3183 15.1488 11.4353 13.9668 11.8379C14.5717 12.0098 14.9999 12.5635 15 13.2051C15 13.3936 14.9252 13.5746 14.792 13.708L13.9307 14.5694C13.6802 14.8196 13.2879 14.8585 12.9932 14.6621C12.3728 14.2486 12 13.5522 12 12.8067C12 13.5522 11.6272 14.2486 11.0068 14.6621C10.7121 14.8585 10.3198 14.8196 10.0693 14.5694L9.20801 13.708C9.07481 13.5746 9 13.3936 9 13.2051C9.0001 12.5639 9.42782 12.0101 10.0322 11.8379C8.85064 11.4351 8.00001 10.3179 8 9.00002V6.80861Z" fill="#83C2FE"/>
</svg>
