<svg width="16" height="16" viewBox="0 0 16 16" fill="none" xmlns="http://www.w3.org/2000/svg">
<path opacity="0.7" d="M9.00037 3.00034H11.0004C12.4002 3.00034 13.1004 3.00034 13.6351 3.2728C14.1054 3.51246 14.4883 3.89436 14.7279 4.3646C14.9172 4.73604 14.9729 5.18769 14.9906 5.8978C14.6912 5.79362 14.3331 5.69773 13.9681 5.59995L10.8783 4.7728C10.4966 4.67052 10.1232 4.56865 9.80212 4.5101C9.46367 4.44842 9.05472 4.40729 8.60779 4.50229C7.9886 4.63403 7.42701 4.95873 7.0033 5.42905C6.69757 5.76859 6.52828 6.1432 6.41248 6.46713C6.30263 6.77449 6.20323 7.14891 6.10095 7.53061L5.2738 10.6205C5.17155 11.0021 5.06966 11.3756 5.01111 11.6966C4.94942 12.0351 4.90829 12.444 5.0033 12.891C5.01114 12.9279 5.02241 12.9639 5.03162 13.0003H5.00037C3.60023 13.0003 2.8994 13.0004 2.36462 12.7279C1.89438 12.4882 1.51249 12.1053 1.27283 11.6351C1.00037 11.1004 1.00037 10.4002 1.00037 9.00034V4.19956C1.00037 3.07977 1.0002 2.5199 1.21814 2.09213C1.40989 1.71581 1.71584 1.40986 2.09216 1.21811C2.51993 1.00019 3.07981 1.00034 4.19958 1.00034H7.00037L9.00037 3.00034Z" fill="#7E7E92"/>
<path d="M13.5804 7.04928C14.3915 7.26662 14.7977 7.37527 15.0653 7.61602C15.3008 7.82798 15.4635 8.10991 15.5294 8.41976C15.6041 8.7719 15.495 9.17805 15.2777 9.98915L14.4497 13.0794C14.2324 13.8905 14.1237 14.2967 13.883 14.5643C13.671 14.7997 13.3891 14.9625 13.0792 15.0284C12.7271 15.103 12.3209 14.994 11.5098 14.7767L8.41962 13.9487C7.60852 13.7313 7.20227 13.6227 6.93464 13.3819C6.69924 13.17 6.53647 12.888 6.47061 12.5782C6.39593 12.2261 6.50495 11.8199 6.72228 11.0088L7.5503 7.9186C7.76764 7.1075 7.87629 6.70125 8.11704 6.43363C8.329 6.19822 8.61093 6.03545 8.92078 5.96959C9.27292 5.89491 9.67907 6.00393 10.4902 6.22127L13.5804 7.04928ZM10.3576 9.03275C10.241 9.00151 10.1214 9.05793 10.0693 9.16174L10.0514 9.20953L9.53377 11.1414C9.49804 11.2747 9.57718 11.4118 9.71055 11.4476L11.6424 11.9652C11.7758 12.0009 11.9128 11.9218 11.9486 11.7884L12.4662 9.85658C12.4975 9.74 12.441 9.62033 12.3372 9.56825L12.2894 9.55039L10.3576 9.03275Z" fill="#BEBED1"/>
</svg>
