<svg width="16" height="16" viewBox="0 0 16 16" fill="none" xmlns="http://www.w3.org/2000/svg">
<path opacity="0.8" d="M9.00043 3H11.0004C12.4001 3 13.1005 3.0001 13.6352 3.27246C14.1054 3.51216 14.4883 3.89495 14.728 4.36523C14.967 4.83468 14.9939 5.4317 14.9975 6.51758L14.9291 6.42676C14.5598 5.97042 14.0432 5.66219 13.4741 5.54883C13.4725 5.52559 13.4729 5.50271 13.4711 5.48047C13.4579 5.31855 13.4406 5.21486 13.4252 5.14941L13.3911 5.0459C13.3192 4.90494 13.2151 4.78363 13.0883 4.69141L12.9545 4.60938C12.9339 4.59884 12.8437 4.55578 12.52 4.5293C12.1784 4.50141 11.7248 4.5 11.0004 4.5H8.37933L6.37933 2.5H4.20062C3.61631 2.5 3.2674 2.50141 3.00922 2.52246C2.88929 2.53226 2.82154 2.54407 2.78851 2.55176L2.77386 2.55469C2.70336 2.59061 2.64226 2.64267 2.59613 2.70605L2.55511 2.77344C2.57163 2.74093 2.54252 2.76851 2.52289 3.00879C2.50181 3.26702 2.50043 3.61556 2.50043 4.2002V9C2.50043 9.72461 2.50184 10.1779 2.52972 10.5195C2.55621 10.8436 2.59926 10.9334 2.6098 10.9541L2.69183 11.0879C2.78407 11.2147 2.90534 11.3187 3.04633 11.3906L3.14984 11.4248C3.2153 11.4401 3.31924 11.4575 3.4809 11.4707C3.82244 11.4986 4.27613 11.5 5.00043 11.5H5.1889C5.25759 11.6572 5.34218 11.8095 5.44476 11.9531L6.19281 13H5.00043C3.77551 13 3.08602 12.9998 2.57465 12.8174L2.36566 12.7275C1.95427 12.5179 1.60976 12.1989 1.36957 11.8076L1.27289 11.6348C1.00049 11.1 1.00043 10.4 1.00043 9V4.2002C1.00043 3.22019 1.00091 2.66887 1.14691 2.25977L1.2182 2.0918C1.38598 1.76264 1.64133 1.48703 1.95453 1.29492L2.09222 1.21777C2.41299 1.05445 2.80869 1.01315 3.45844 1.00293L4.20062 1H7.00043L9.00043 3Z" fill="#FF519C"/>
<path d="M8.79422 7.10829C9.02222 6.80429 9.47833 6.80429 9.70633 7.10829L11.8001 9.90029C12.0665 10.2558 12.0667 10.745 11.8001 11.1005L9.70633 13.8925C9.47842 14.1962 9.02231 14.196 8.79422 13.8925L6.69949 11.1005C6.43292 10.7451 6.43311 10.2558 6.69949 9.90029L8.79422 7.10829ZM10.7942 7.10829C11.0223 6.80449 11.4784 6.80436 11.7063 7.10829L13.8001 9.90029C14.0664 10.2557 14.0664 10.7441 13.8001 11.0995L11.7063 13.8915C11.4784 14.1955 11.0223 14.1954 10.7942 13.8915L10.7503 13.8319L12.8001 11.0995C13.0664 10.7441 13.0664 10.2557 12.8001 9.90029L10.7503 7.16689L10.7942 7.10829ZM12.7932 7.10829C13.0212 6.80436 13.4773 6.80448 13.7054 7.10829L15.7991 9.90029C16.0657 10.2558 16.0657 10.745 15.7991 11.1005L13.7054 13.8925C13.4772 14.1959 13.0211 14.1962 12.7932 13.8925L12.7493 13.8329L14.7991 11.1005C15.0657 10.745 15.0657 10.2558 14.7991 9.90029L12.7493 7.16689L12.7932 7.10829Z" fill="#FF8CC7"/>
</svg>
