<svg width="16" height="16" viewBox="0 0 16 16" fill="none" xmlns="http://www.w3.org/2000/svg">
<path opacity="0.8" d="M9.00018 3H11.0002C12.4002 3 13.1002 3.00001 13.6349 3.27246C14.1054 3.51214 14.488 3.89483 14.7277 4.36523C14.9559 4.81329 14.9903 5.37746 14.9963 6.37207L13.1672 5.00098V5H13.1662C12.7336 4.67578 12.2068 4.5 11.6662 4.5H11.3C9.61606 4.5002 8.15882 5.54502 7.57343 7.04297C7.44434 7.3733 7.18457 7.63868 6.88983 7.83594C6.35354 8.19477 6.00018 8.80635 6.00018 9.5V10C6.00018 10.3399 6.08564 10.6595 6.23553 10.9395C6.49842 11.4304 6.6606 12.0552 6.35175 12.5186L6.33612 12.542C6.24088 12.6849 6.16693 12.8393 6.11151 13H5.00018C3.60033 13 2.90016 12.9999 2.36542 12.7275C1.89501 12.4879 1.51233 12.1052 1.27264 11.6348C1.00021 11.1 1.00018 10.4 1.00018 9V4.2002C1.00018 3.08009 0.99997 2.51962 1.21796 2.0918C1.40971 1.71555 1.71571 1.40949 2.09198 1.21777C2.5198 0.999813 3.08032 1 4.20038 1H7.00018L9.00018 3Z" fill="#9B61FF"/>
<path d="M11.8066 6C12.1477 6.00023 12.3882 6.33455 12.2803 6.6582L12.1143 7.1582C12.0462 7.36237 11.8549 7.49999 11.6396 7.5H11.4355C10.9091 7.5 10.4725 7.9083 10.4375 8.43359L10.3994 9H12C12.6817 9 13.299 9.27342 13.75 9.71582C14.201 9.27342 14.8183 9 15.5 9H15.5713C15.808 9 16 9.19202 16 9.42871V10C16 10.2761 15.7761 10.5 15.5 10.5C14.9477 10.5 14.5 10.9477 14.5 11.5C14.5 12.0523 14.9477 12.5 15.5 12.5C15.7761 12.5 16 12.7239 16 13V13.5713C16 13.808 15.808 14 15.5713 14H15.5C14.8181 14 14.201 13.7259 13.75 13.2832C13.299 13.7259 12.6819 14 12 14H11.9287C11.692 14 11.5 13.808 11.5 13.5713V13C11.5 12.7239 11.7239 12.5 12 12.5C12.5523 12.5 13 12.0523 13 11.5C13 10.9477 12.5523 10.5 12 10.5H10.2998L10.124 13.1328C10.054 14.1834 9.18183 15 8.12891 15H8C7.72386 15 7.5 14.7761 7.5 14.5V14C7.5 13.7239 7.72386 13.5 8 13.5H8.03223C8.29546 13.5 8.51374 13.2959 8.53125 13.0332L8.7002 10.5H8C7.72386 10.5 7.5 10.2761 7.5 10V9.5C7.5 9.22386 7.72386 9 8 9H8.80078L8.84473 8.33398C8.93228 7.02075 10.0227 6.00001 11.3389 6H11.8066Z" fill="#BDA1FF"/>
</svg>
