<svg width="16" height="16" viewBox="0 0 16 16" fill="none" xmlns="http://www.w3.org/2000/svg">
<path opacity="0.8" d="M9 3H11C12.4 3 13.1 3.00007 13.6348 3.27246C14.1052 3.51214 14.4879 3.89483 14.7275 4.36523C14.8902 4.68462 14.9541 5.06303 14.9805 5.61426C13.9987 4.91364 12.798 4.5 11.5 4.5C8.18629 4.5 5.5 7.18629 5.5 10.5C5.5 11.3925 5.6964 12.2388 6.0459 13H5C3.60002 13 2.89999 12.9999 2.36523 12.7275C1.89483 12.4879 1.51214 12.1052 1.27246 11.6348C1.00007 11.1 1 10.4 1 9V4.2002C1 3.08009 0.999786 2.51962 1.21777 2.0918C1.40951 1.71554 1.71554 1.40951 2.0918 1.21777C2.51962 0.999786 3.08009 1 4.2002 1H7L9 3Z" fill="#30A6F9"/>
<path d="M11.5 6C13.9853 6 16 8.01472 16 10.5C16 12.9853 13.9853 15 11.5 15C9.01472 15 7 12.9853 7 10.5C7 8.01472 9.01472 6 11.5 6ZM10.6348 12.25C10.8077 13.2961 11.1299 14 11.5 14C11.8701 14 12.1923 13.2961 12.3652 12.25H10.6348ZM8.46973 12.25C8.81724 12.8504 9.33721 13.3381 9.96289 13.6445C9.9138 13.5146 9.86891 13.3825 9.83105 13.25C9.7453 12.9499 9.67651 12.6127 9.62305 12.25H8.46973ZM13.377 12.25C13.3235 12.6127 13.2547 12.9499 13.1689 13.25C13.1311 13.3826 13.0853 13.5145 13.0361 13.6445C13.6622 13.3381 14.1826 12.8507 14.5303 12.25H13.377ZM8.08203 9.75C8.02924 9.99171 8 10.2425 8 10.5C8 10.7575 8.02924 11.0083 8.08203 11.25H9.52148C9.50748 11.0053 9.5 10.7545 9.5 10.5C9.5 10.2455 9.50748 9.99469 9.52148 9.75H8.08203ZM10.5234 9.75C10.5084 9.99163 10.5 10.2426 10.5 10.5C10.5 10.7574 10.5084 11.0084 10.5234 11.25H12.4766C12.4916 11.0084 12.5 10.7574 12.5 10.5C12.5 10.2426 12.4916 9.99163 12.4766 9.75H10.5234ZM13.4785 9.75C13.4925 9.99469 13.5 10.2455 13.5 10.5C13.5 10.7545 13.4925 11.0053 13.4785 11.25H14.918C14.9708 11.0083 15 10.7575 15 10.5C15 10.2425 14.9708 9.99171 14.918 9.75H13.4785ZM9.96289 7.35449C9.33704 7.6609 8.81731 8.14943 8.46973 8.75H9.62305C9.67651 8.38725 9.7453 8.05014 9.83105 7.75C9.86899 7.61724 9.91367 7.48465 9.96289 7.35449ZM11.5 7C11.1299 7 10.8077 7.70393 10.6348 8.75H12.3652C12.1923 7.70393 11.8701 7 11.5 7ZM13.0361 7.35449C13.0854 7.48476 13.131 7.61713 13.1689 7.75C13.2547 8.05014 13.3235 8.38725 13.377 8.75H14.5303C14.1825 8.14918 13.6623 7.66088 13.0361 7.35449Z" fill="#83C2FE"/>
</svg>
