<svg width="16" height="16" viewBox="0 0 16 16" fill="none" xmlns="http://www.w3.org/2000/svg">
<path opacity="0.7" d="M9 2.99997H11C12.4 2.99997 13.1 3.00004 13.6348 3.27243C14.1052 3.51211 14.4879 3.8948 14.7275 4.3652C14.9794 4.85968 14.9966 5.49546 14.998 6.69528C14.9129 6.49172 14.7937 6.30438 14.6328 6.15134C13.9545 5.50651 13.1233 5.01694 12.1973 4.74411C11.8799 4.65063 11.5424 4.67238 11.2256 4.76755L11.0752 4.81247C10.6996 4.92532 10.2984 4.9254 9.92285 4.81247L9.77441 4.76755C9.45731 4.67219 9.11938 4.65053 8.80176 4.74411C7.87649 5.01686 7.0455 5.50579 6.36719 6.15036C6.1267 6.3789 5.97564 6.68294 5.89941 7.00583L5.86328 7.1572C5.77325 7.53855 5.57335 7.88564 5.28809 8.15427L5.17285 8.26266C4.93134 8.49009 4.74353 8.77312 4.66602 9.09567C4.55765 9.54676 4.5 10.0172 4.5 10.5C4.5 10.9825 4.55784 11.4522 4.66602 11.9023C4.74358 12.225 4.93122 12.5078 5.17285 12.7353L5.28809 12.8437C5.34026 12.8928 5.38825 12.9459 5.43457 13H5C3.60001 13 2.89999 12.9999 2.36523 12.7275C1.89483 12.4878 1.51214 12.1051 1.27246 11.6347C1.00008 11.1 1 10.3999 1 8.99997V4.20016C1 3.08006 0.999786 2.51959 1.21777 2.09177C1.40951 1.71552 1.71555 1.40947 2.0918 1.21774C2.51962 0.999756 3.08009 0.999969 4.2002 0.999969H7L9 2.99997Z" fill="#7E7E92"/>
<path d="M11.4984 6.43564C11.6604 6.29797 11.8753 6.21063 12.0745 6.28502C12.5465 6.4613 12.9807 6.71436 13.3623 7.02935C13.5263 7.16472 13.5582 7.39443 13.5201 7.60362C13.3889 8.32425 13.8289 9.08575 14.5188 9.33223C14.7193 9.40386 14.9025 9.54656 14.9378 9.75651C14.9784 9.99845 15 10.2469 15 10.5003C15 10.7534 14.9784 11.0014 14.9378 11.243C14.9025 11.453 14.7192 11.5957 14.5187 11.6674C13.829 11.9139 13.3891 12.6755 13.5202 13.3961C13.5582 13.6052 13.5263 13.8348 13.3624 13.9702C12.9811 14.2851 12.5472 14.5381 12.0756 14.7144C11.8764 14.7889 11.6614 14.7015 11.4993 14.5639C10.9403 14.0891 10.0587 14.0889 9.49984 14.5636C9.33764 14.7014 9.12256 14.7889 8.92323 14.7143C8.45173 14.538 8.01784 14.285 7.63663 13.9702C7.4727 13.8349 7.44083 13.6052 7.47896 13.3961C7.6104 12.6752 7.17068 11.9135 6.4806 11.6672C6.27995 11.5956 6.0965 11.4529 6.06145 11.2427C6.02115 11.0012 6.00002 10.7532 6 10.5003C6 10.2471 6.02113 9.99869 6.06146 9.75684C6.0965 9.54671 6.27993 9.40396 6.48057 9.33239C7.17077 9.08618 7.61061 8.32451 7.47907 7.60363C7.44089 7.39443 7.47275 7.16468 7.63674 7.0293C8.01822 6.71439 8.45247 6.46145 8.92431 6.28515C9.1236 6.21069 9.33859 6.29811 9.50072 6.43586C10.0593 6.91047 10.9397 6.91026 11.4984 6.43564ZM10.5 9.00028C9.67157 9.00028 9 9.67186 9 10.5003C9.00015 11.3286 9.67167 12.0003 10.5 12.0003C11.3283 12.0003 11.9998 11.3286 12 10.5003C12 9.67186 11.3284 9.00028 10.5 9.00028Z" fill="#BEBED1"/>
</svg>
