<svg width="16" height="16" viewBox="0 0 16 16" fill="none" xmlns="http://www.w3.org/2000/svg">
<path opacity="0.8" d="M9 3.00037H11C12.4001 3.00037 13.1 3.00036 13.6348 3.27283C14.1051 3.51246 14.4878 3.89436 14.7275 4.36462C14.8672 4.63879 14.9336 4.95692 14.9668 5.39001L14.8779 5.35291L11.8779 4.22791L11.6631 4.15759C11.2292 4.03824 10.7708 4.03824 10.3369 4.15759L10.1221 4.22791L7.12207 5.35291C6.1465 5.71891 5.5 6.65174 5.5 7.69373V9.72888C5.50007 10.8976 5.81677 12.0219 6.38672 13.0004H5C3.60015 13.0004 2.89997 13.0002 2.36523 12.7279C1.89487 12.4882 1.51215 12.1055 1.27246 11.6351C1 11.1004 1 10.4003 1 9.00037V4.19958C1 3.07993 0.999916 2.51991 1.21777 2.09216C1.40948 1.71592 1.71558 1.40989 2.0918 1.21814C2.51962 1.00015 3.08009 1.00037 4.2002 1.00037H7L9 3.00037Z" fill="#0CB081"/>
<path d="M10.4736 5.69708C10.813 5.56995 11.187 5.56995 11.5264 5.69708L14.3516 6.75665C14.7417 6.90311 15 7.27646 15 7.69317V9.72833C15 11.4521 14.1121 13.0548 12.6504 13.9686L11.5303 14.6688C11.206 14.8714 10.794 14.8714 10.4697 14.6688L9.34961 13.9686C7.88793 13.0548 7 11.4521 7 9.72833V7.69317C7 7.27646 7.25834 6.90311 7.64844 6.75665L10.4736 5.69708ZM12.8906 8.51153C12.6211 8.29601 12.2273 8.33978 12.0117 8.60919L10.4482 10.5633L9.94238 10.0574L9.84375 9.97735C9.60123 9.81748 9.27108 9.84406 9.05762 10.0574C8.84417 10.2709 8.81768 10.601 8.97754 10.8436L9.05762 10.9422L10.0576 11.9422C10.1832 12.0678 10.3568 12.1336 10.5342 12.1238C10.7117 12.114 10.8772 12.0293 10.9883 11.8904L12.9883 9.39044C13.2038 9.1209 13.1601 8.72713 12.8906 8.51153Z" fill="#7FD2BB"/>
</svg>
