<svg width="16" height="16" viewBox="0 0 16 16" fill="none" xmlns="http://www.w3.org/2000/svg">
<path opacity="0.8" d="M8.99997 2.99997H11C12.3999 2.99997 13.1 3.00005 13.6347 3.27243C14.1051 3.51211 14.4878 3.8948 14.7275 4.3652C14.8989 4.70167 14.9618 5.10356 14.9853 5.70407C14.6856 5.57876 14.4015 5.53673 14.1787 5.51852C13.9369 5.49878 13.6554 5.49997 13.4004 5.49997H8.59958C8.3445 5.49997 8.06308 5.49878 7.82126 5.51852C7.59418 5.53708 7.30313 5.57985 6.99704 5.71091L6.8652 5.77243C6.45376 5.98208 6.1093 6.30094 5.86911 6.69235L5.77243 6.8652C5.59231 7.21879 5.53973 7.56179 5.51852 7.82126C5.49878 8.06308 5.49997 8.3445 5.49997 8.59958V12.4004C5.49997 12.5947 5.50231 12.8042 5.51071 13H4.99997C3.59998 13 2.89996 12.9999 2.3652 12.7275C1.8948 12.4878 1.51211 12.1051 1.27243 11.6347C1.00005 11.1 0.999969 10.3999 0.999969 8.99997V4.20016C0.999969 3.08006 0.999756 2.51959 1.21774 2.09177C1.40948 1.71552 1.71552 1.40948 2.09177 1.21774C2.51959 0.999756 3.08006 0.999969 4.20016 0.999969H6.99997L8.99997 2.99997Z" fill="#0CB081"/>
<path d="M14.2002 11C14.4799 11 14.6197 11.0003 14.7266 11.0547C14.8206 11.1026 14.8974 11.1794 14.9453 11.2734C14.9997 11.3803 15 11.5201 15 11.7998V12.4004C15 12.9602 14.9996 13.2402 14.8906 13.4541C14.7948 13.6421 14.6421 13.7948 14.4541 13.8906C14.2402 13.9996 13.9602 14 13.4004 14H8.59961C8.03982 14 7.75976 13.9996 7.5459 13.8906C7.35793 13.7948 7.20522 13.6421 7.10938 13.4541C7.00041 13.2402 7 12.9602 7 12.4004V11.7998C7 11.5201 7.00034 11.3803 7.05469 11.2734C7.10262 11.1794 7.17936 11.1026 7.27344 11.0547C7.38033 11.0003 7.52014 11 7.7998 11H14.2002ZM8.5 11.9004C8.16863 11.9004 7.90039 12.1686 7.90039 12.5C7.90039 12.8314 8.16863 13.0996 8.5 13.0996C8.83137 13.0996 9.09961 12.8314 9.09961 12.5C9.09961 12.1686 8.83137 11.9004 8.5 11.9004ZM13.4004 7C13.9602 7 14.2402 7.00041 14.4541 7.10938C14.6421 7.20522 14.7948 7.35793 14.8906 7.5459C14.9996 7.75976 15 8.03982 15 8.59961V9.2002C15 9.47986 14.9997 9.61967 14.9453 9.72656C14.8974 9.82064 14.8206 9.89738 14.7266 9.94531C14.6197 9.99966 14.4799 10 14.2002 10H7.7998C7.52014 10 7.38033 9.99966 7.27344 9.94531C7.17936 9.89738 7.10262 9.82064 7.05469 9.72656C7.00034 9.61967 7 9.47986 7 9.2002V8.59961C7 8.03982 7.00041 7.75976 7.10938 7.5459C7.20522 7.35793 7.35793 7.20522 7.5459 7.10938C7.75976 7.00041 8.03982 7 8.59961 7H13.4004ZM8.5 7.90039C8.16863 7.90039 7.90039 8.16863 7.90039 8.5C7.90039 8.83137 8.16863 9.09961 8.5 9.09961C8.83137 9.09961 9.09961 8.83137 9.09961 8.5C9.09961 8.16863 8.83137 7.90039 8.5 7.90039Z" fill="#7FD2BB"/>
</svg>
