<svg width="16" height="16" viewBox="0 0 16 16" fill="none" xmlns="http://www.w3.org/2000/svg">
<path opacity="0.7" d="M9 3.00031H11C12.4 3.00031 13.1 3.00038 13.6348 3.27277C14.1051 3.51246 14.4879 3.89518 14.7275 4.36554C14.9674 4.83671 14.9937 5.43616 14.9971 6.52961C14.9881 6.52443 14.9798 6.5181 14.9707 6.513L13.4814 5.67511C13.478 5.60621 13.4757 5.54167 13.4707 5.48078C13.4575 5.31902 13.4401 5.21518 13.4248 5.14972L13.3906 5.04621C13.3187 4.9052 13.2147 4.78395 13.0879 4.69172L12.9541 4.60968C12.9334 4.59914 12.8436 4.55609 12.5195 4.52961C12.1779 4.50172 11.7246 4.50031 11 4.50031H8.37891L6.37891 2.50031H4.2002C3.61556 2.50031 3.26702 2.50169 3.00879 2.52277C2.88837 2.53261 2.82096 2.54438 2.78809 2.55207L2.77344 2.555C2.70291 2.59096 2.64183 2.64292 2.5957 2.70636L2.55469 2.77375C2.57139 2.74096 2.54213 2.76836 2.52246 3.0091C2.5014 3.2673 2.5 3.6161 2.5 4.2005V9.00031C2.5 9.72474 2.50141 10.1783 2.5293 10.5198C2.55578 10.8437 2.59884 10.9337 2.60938 10.9544L2.69141 11.0882C2.78364 11.215 2.90491 11.319 3.0459 11.3909L3.14941 11.4251C3.21486 11.4405 3.31853 11.4578 3.48047 11.471C3.82206 11.4989 4.27541 11.5003 5 11.5003H5.5V11.8734C5.50008 12.2664 5.57854 12.6477 5.72168 13.0003H5C3.77485 13.0003 3.08562 13.0003 2.57422 12.8177L2.36523 12.7278C1.95386 12.5182 1.60933 12.1992 1.36914 11.8079L1.27246 11.6351C1.00009 11.1004 1 10.4001 1 9.00031V4.2005C1 3.22071 1.00058 2.66916 1.14648 2.26007L1.21777 2.09211C1.38552 1.76292 1.64091 1.48737 1.9541 1.29523L2.0918 1.21808C2.41263 1.05461 2.80803 1.01346 3.45801 1.00324L4.2002 1.00031H7L9 3.00031Z" fill="#7E7E92"/>
<path d="M9.82337 6.66185C10.2526 6.42043 10.4672 6.29972 10.6947 6.25242C10.8961 6.21056 11.1039 6.21056 11.3053 6.25242C11.5328 6.29972 11.7474 6.42043 12.1766 6.66185L13.7766 7.56185C14.222 7.81238 14.4447 7.93765 14.6068 8.11486C14.7502 8.27164 14.8587 8.4571 14.925 8.65895C15 8.88711 15 9.14262 15 9.65363V11.3464C15 11.8574 15 12.1129 14.925 12.341C14.8587 12.5429 14.7502 12.7284 14.6068 12.8851C14.4447 13.0623 14.222 13.1876 13.7766 13.4381L12.1766 14.3381C11.7474 14.5796 11.5328 14.7003 11.3053 14.7476C11.1039 14.7894 10.8961 14.7894 10.6947 14.7476C10.4672 14.7003 10.2526 14.5796 9.82337 14.3381L8.22337 13.4381C7.77798 13.1876 7.55529 13.0623 7.39319 12.8851C7.24978 12.7284 7.14132 12.5429 7.07498 12.341C7 12.1129 7 11.8574 7 11.3464V9.65363C7 9.14262 7 8.88711 7.07498 8.65895C7.14132 8.4571 7.24978 8.27164 7.39319 8.11486C7.55529 7.93765 7.77798 7.81238 8.22337 7.56185L9.82337 6.66185Z" fill="#7CD379"/>
<path d="M9.82337 6.66185C10.2526 6.42043 10.4672 6.29972 10.6947 6.25242C10.8961 6.21056 11.1039 6.21056 11.3053 6.25242C11.5328 6.29972 11.7474 6.42043 12.1766 6.66185L13.7766 7.56185C14.222 7.81238 14.4447 7.93765 14.6068 8.11486C14.7502 8.27164 14.8587 8.4571 14.925 8.65895C15 8.88711 15 9.14262 15 9.65363V11.3464C15 11.8574 15 12.1129 14.925 12.341C14.8587 12.5429 14.7502 12.7284 14.6068 12.8851C14.4447 13.0623 14.222 13.1876 13.7766 13.4381L12.1766 14.3381C11.7474 14.5796 11.5328 14.7003 11.3053 14.7476C11.1039 14.7894 10.8961 14.7894 10.6947 14.7476C10.4672 14.7003 10.2526 14.5796 9.82337 14.3381L8.22337 13.4381C7.77798 13.1876 7.55529 13.0623 7.39319 12.8851C7.24978 12.7284 7.14132 12.5429 7.07498 12.341C7 12.1129 7 11.8574 7 11.3464V9.65363C7 9.14262 7 8.88711 7.07498 8.65895C7.14132 8.4571 7.24978 8.27164 7.39319 8.11486C7.55529 7.93765 7.77798 7.81238 8.22337 7.56185L9.82337 6.66185Z" fill="black" fill-opacity="0.25" style="mix-blend-mode:plus-darker"/>
<path d="M12.0226 14.4248L13.9302 13.3517L13.9302 13.3517C14.3039 13.1416 14.4907 13.0365 14.5909 12.8837C14.679 12.7493 14.7216 12.5902 14.7125 12.4297C14.7021 12.2473 14.5928 12.0629 14.3743 11.6941L11.5981 7.00931C11.3883 6.65525 11.2834 6.47823 11.1342 6.3823C11.0029 6.2979 10.8486 6.25656 10.6927 6.26403C10.5155 6.27253 10.3362 6.37342 9.97745 6.57519L8.06976 7.64826C7.69614 7.85842 7.50932 7.96351 7.40911 8.11633C7.32099 8.25071 7.27837 8.40984 7.28751 8.57028C7.29791 8.75273 7.40718 8.93712 7.62573 9.30591L10.4019 13.9907C10.6117 14.3447 10.7166 14.5218 10.8658 14.6177C10.9971 14.7021 11.1514 14.7434 11.3073 14.736C11.4845 14.7275 11.6638 14.6266 12.0226 14.4248Z" fill="#7CD379"/>
</svg>
