<svg width="16" height="16" viewBox="0 0 16 16" fill="none" xmlns="http://www.w3.org/2000/svg">
<path opacity="0.8" d="M9 3H11C12.4 3 13.1 3.00007 13.6348 3.27246C14.1052 3.51214 14.4879 3.89483 14.7275 4.36523C14.9919 4.88422 14.9988 5.55887 14.999 6.87793L14.3535 6.23242L14.1699 6.06641C13.7251 5.70195 13.166 5.50004 12.5859 5.5H9.41406C8.83397 5.50004 8.2749 5.70195 7.83008 6.06641L7.64648 6.23242L5.23242 8.64648C4.76362 9.11529 4.50004 9.75108 4.5 10.4141V10.5859C4.50004 11.2489 4.76362 11.8847 5.23242 12.3535L5.87891 13H5C3.60002 13 2.89999 12.9999 2.36523 12.7275C1.89483 12.4879 1.51214 12.1052 1.27246 11.6348C1.00007 11.1 1 10.4 1 9V4.2002C1 3.08009 0.999786 2.51962 1.21777 2.0918C1.40951 1.71554 1.71554 1.40951 2.0918 1.21777C2.51962 0.999786 3.08009 1 4.2002 1H7L9 3Z" fill="#0CB081"/>
<path d="M9.29306 7C9.68343 7.00014 10 7.31663 10.0001 7.70703C10.0001 7.89449 9.92556 8.07444 9.79306 8.20703L7.50009 10.5L9.79306 12.793C9.92556 12.9256 10.0001 13.1055 10.0001 13.293C10 13.6834 9.68343 13.9999 9.29306 14C9.1056 14 8.92565 13.9255 8.79306 13.793L6.38388 11.3838C5.89572 10.8956 5.89572 10.1044 6.38388 9.61621L8.79306 7.20703C8.92565 7.07453 9.1056 7 9.29306 7ZM12.7071 7C12.8946 7.00003 13.0745 7.07445 13.2071 7.20703L15.6163 9.61621C16.1042 10.1043 16.1042 10.8957 15.6163 11.3838L13.2071 13.793C13.0745 13.9255 12.8946 14 12.7071 14C12.3166 14 12.0001 13.6835 12.0001 13.293C12.0001 13.1054 12.0745 12.9256 12.2071 12.793L14.5001 10.5L12.2071 8.20703C12.0745 8.07442 12.0001 7.89457 12.0001 7.70703C12.0001 7.31654 12.3166 7 12.7071 7Z" fill="#7FD2BB"/>
</svg>
