<svg width="16" height="16" viewBox="0 0 16 16" fill="none" xmlns="http://www.w3.org/2000/svg">
<path opacity="0.8" d="M9 2.99999H11C12.4 2.99999 13.1 3.00007 13.6348 3.27245C14.1052 3.51214 14.4879 3.89482 14.7275 4.36523C14.9168 4.73675 14.9726 5.18806 14.9902 5.89843C14.9479 5.8742 14.9059 5.84936 14.8623 5.82714C14.4552 5.6197 14.0499 5.5534 13.707 5.52538C13.3817 5.49883 12.9948 5.49999 12.5996 5.49999H9.40039C9.00523 5.49999 8.61828 5.49883 8.29297 5.52538C7.95008 5.5534 7.54483 5.6197 7.1377 5.82714C6.57348 6.11472 6.11472 6.57347 5.82715 7.13769C5.6197 7.54482 5.55341 7.95007 5.52539 8.29296C5.49883 8.61827 5.5 9.00522 5.5 9.40038V11.4004C5.5 11.6555 5.49881 11.9369 5.51855 12.1787C5.53705 12.4051 5.57982 12.6949 5.70996 13H5C3.60002 13 2.89999 12.9999 2.36523 12.7275C1.89483 12.4878 1.51214 12.1052 1.27246 11.6348C1.00007 11.1 1 10.4 1 8.99999V4.20019C1 3.08008 0.999786 2.51961 1.21777 2.09179C1.40951 1.71554 1.71555 1.4095 2.0918 1.21777C2.51962 0.999779 3.08009 0.999992 4.2002 0.999992H7L9 2.99999Z" fill="#4D72F7"/>
<path d="M10.5 13.7002C10.5 13.848 10.5002 13.9291 10.5049 13.9873C10.5051 13.9895 10.5047 13.9921 10.5049 13.9941C10.5072 13.9944 10.5101 13.9949 10.5127 13.9951C10.5709 13.9998 10.652 14 10.7998 14H11.2002C11.348 14 11.4291 13.9998 11.4873 13.9951C11.4896 13.9949 11.4921 13.9943 11.4941 13.9941C11.4943 13.9921 11.4949 13.9896 11.4951 13.9873C11.4998 13.9291 11.5 13.848 11.5 13.7002V13H10.5V13.7002ZM12.5996 7C13.4393 7 13.8598 6.99981 14.1807 7.16309C14.4629 7.3069 14.6931 7.53709 14.8369 7.81934C15.0002 8.14015 15 8.56068 15 9.40039V11H7V9.40039C7 8.56068 6.99981 8.14015 7.16309 7.81934C7.3069 7.53709 7.53709 7.3069 7.81934 7.16309C8.14015 6.99981 8.56068 7 9.40039 7H12.5996ZM12.5 13.7002C12.5 13.8319 12.5001 13.9609 12.4912 14.0693C12.4842 14.155 12.4703 14.2521 12.4346 14.3525L12.3906 14.4541C12.3187 14.5952 12.2148 14.7163 12.0879 14.8086L11.9541 14.8906C11.8185 14.9597 11.6836 14.9819 11.5693 14.9912C11.4609 15.0001 11.3319 15 11.2002 15H10.7998C10.6681 15 10.5391 15.0001 10.4307 14.9912C10.345 14.9842 10.2479 14.9703 10.1475 14.9346L10.0459 14.8906C9.85793 14.7948 9.70521 14.6421 9.60938 14.4541C9.54028 14.3185 9.51814 14.1836 9.50879 14.0693C9.49993 13.9609 9.5 13.8319 9.5 13.7002V13H8.59961C8.03982 13 7.75976 12.9996 7.5459 12.8906C7.35793 12.7948 7.20522 12.6421 7.10938 12.4541C7.04888 12.3354 7.0237 12.196 7.01172 12H14.9883C14.9763 12.196 14.9511 12.3354 14.8906 12.4541C14.7948 12.6421 14.6421 12.7948 14.4541 12.8906C14.2402 12.9996 13.9602 13 13.4004 13H12.5V13.7002Z" fill="#94BAFF"/>
</svg>
