<svg width="16" height="16" viewBox="0 0 16 16" fill="none" xmlns="http://www.w3.org/2000/svg">
<path opacity="0.8" d="M9 2.99999H11C12.4 2.99999 13.1 3.00006 13.6348 3.27245C14.1052 3.51214 14.4879 3.89482 14.7275 4.36523C14.9561 4.81388 14.9911 5.37887 14.9971 6.37597L14.2725 5.65136C14.0413 5.42335 13.7915 5.19424 13.5 5.01562C13.1869 4.82381 12.8453 4.68238 12.4883 4.59667C12.1563 4.51701 11.8185 4.50227 11.4941 4.49999H9.40039C9.00523 4.49999 8.61828 4.49883 8.29297 4.52538C7.95008 4.5534 7.54483 4.6197 7.1377 4.82714C6.57347 5.11471 6.11472 5.57347 5.82715 6.13769C5.6197 6.54482 5.55341 6.95007 5.52539 7.29296C5.49883 7.61827 5.5 8.00522 5.5 8.40038V12.5996C5.5 12.7347 5.50107 12.8689 5.50195 13H5C3.60002 13 2.89999 12.9999 2.36523 12.7275C1.89483 12.4878 1.51214 12.1052 1.27246 11.6348C1.00007 11.1 1 10.4 1 8.99999V4.20019C1 3.08008 0.999786 2.51961 1.21777 2.09179C1.40951 1.71554 1.71555 1.4095 2.0918 1.21777C2.51962 0.999779 3.08009 0.999992 4.2002 0.999992H7L9 2.99999Z" fill="#4D72F7"/>
<path d="M11.1748 6C11.6638 6 11.9085 6.00041 12.1387 6.05566C12.3426 6.10466 12.5379 6.18532 12.7168 6.29492C12.9185 6.41859 13.0917 6.59174 13.4375 6.9375L14.0625 7.5625C14.4083 7.90826 14.5814 8.08148 14.7051 8.2832C14.8147 8.46206 14.8953 8.65736 14.9443 8.86133C14.9996 9.09146 15 9.33621 15 9.8252V12.5996C15 13.4393 15.0002 13.8598 14.8369 14.1807C14.6931 14.4629 14.4629 14.6931 14.1807 14.8369C13.8598 15.0002 13.4393 15 12.5996 15H9.40039C8.56068 15 8.14015 15.0002 7.81934 14.8369C7.53709 14.6931 7.3069 14.4629 7.16309 14.1807C6.99981 13.8598 7 13.4393 7 12.5996V8.40039C7 7.56068 6.99981 7.14015 7.16309 6.81934C7.3069 6.53709 7.53709 6.3069 7.81934 6.16309C8.14015 5.99981 8.56068 6 9.40039 6H11.1748ZM9 12C8.72386 12 8.5 12.2239 8.5 12.5V13C8.5 13.2761 8.72386 13.5 9 13.5H11C11.2761 13.5 11.5 13.2761 11.5 13V12.5C11.5 12.2239 11.2761 12 11 12H9ZM9 9.5C8.72386 9.5 8.5 9.72386 8.5 10V10.5C8.5 10.7761 8.72386 11 9 11H13C13.2761 11 13.5 10.7761 13.5 10.5V10C13.5 9.72386 13.2761 9.5 13 9.5H9Z" fill="#94BAFF"/>
</svg>
