<svg width="16" height="16" viewBox="0 0 16 16" fill="none" xmlns="http://www.w3.org/2000/svg">
<path opacity="0.8" d="M9 2.99968H11C12.3999 2.99968 13.1 2.99981 13.6348 3.27214C14.1051 3.51181 14.4879 3.89454 14.7275 4.36491C14.8672 4.63893 14.9336 4.95658 14.9668 5.38933L14.8779 5.35222L11.8779 4.22722L11.6631 4.15691C11.2292 4.03758 10.7708 4.03758 10.3369 4.15691L10.1221 4.22722L7.12207 5.35222C6.14654 5.71815 5.50013 6.65113 5.5 7.69304V9.7282C5.5 10.8969 5.81674 12.0213 6.38672 12.9997H5C3.59991 12.9997 2.90001 12.9997 2.36523 12.7272C1.89494 12.4876 1.51216 12.1057 1.27246 11.6354C0.999977 11.1006 1 10.3998 1 8.99968V4.19987C1 3.08023 1.00002 2.52021 1.21777 2.09245C1.40946 1.71625 1.71564 1.41019 2.0918 1.21843C2.51962 1.00044 3.08009 0.99968 4.2002 0.99968H7L9 2.99968Z" fill="#0CB081"/>
<path d="M10.4736 5.69708C10.813 5.56995 11.187 5.56995 11.5264 5.69708L14.3516 6.75665C14.7417 6.90311 15 7.27646 15 7.69317V9.72833C15 11.4521 14.1121 13.0548 12.6504 13.9686L11.5303 14.6688C11.206 14.8714 10.794 14.8714 10.4697 14.6688L9.34961 13.9686C7.88793 13.0548 7 11.4521 7 9.72833V7.69317C7 7.27646 7.25834 6.90311 7.64844 6.75665L10.4736 5.69708ZM12.8906 8.51153C12.6211 8.29601 12.2273 8.33978 12.0117 8.60919L10.4482 10.5633L9.94238 10.0574L9.84375 9.97735C9.60123 9.81748 9.27108 9.84406 9.05762 10.0574C8.84417 10.2709 8.81768 10.601 8.97754 10.8436L9.05762 10.9422L10.0576 11.9422C10.1832 12.0678 10.3568 12.1336 10.5342 12.1238C10.7117 12.114 10.8772 12.0293 10.9883 11.8904L12.9883 9.39044C13.2038 9.1209 13.1601 8.72713 12.8906 8.51153Z" fill="#7FD2BB"/>
</svg>
