<svg width="16" height="16" viewBox="0 0 16 16" fill="none" xmlns="http://www.w3.org/2000/svg">
<path opacity="0.8" d="M9.00034 2.99973H11.0003C12.4002 2.99973 13.1004 2.99974 13.6351 3.27219C14.1055 3.51188 14.4882 3.89456 14.7279 4.36497C14.8151 4.53625 14.8712 4.7252 14.9115 4.94797L14.6205 4.83176L14.4574 4.77317C13.6887 4.52581 12.8462 4.66591 12.1986 5.14817L12.0628 5.25657L10.5296 6.57297C10.0761 6.96217 9.43276 7.04063 8.89877 6.77219L8.68295 6.67942C8.24367 6.51969 7.76136 6.51909 7.32162 6.67747L7.10483 6.77024L6.88217 6.88157C6.03541 7.305 5.5005 8.17118 5.50034 9.1179V11.8816C5.50036 12.2773 5.59436 12.6587 5.76498 12.9997H5.00034C3.6002 12.9997 2.89937 12.9998 2.36459 12.7273C1.89439 12.4876 1.51241 12.1048 1.2728 11.6345C1.00044 11.0997 1.00034 10.3996 1.00034 8.99973V4.19993C1.00034 3.08016 1.0003 2.52028 1.21811 2.0925C1.40986 1.71618 1.71581 1.40925 2.09213 1.2175C2.51986 0.999696 3.08 0.999731 4.19955 0.999731H7.00034L9.00034 2.99973Z" fill="#4D72F7"/>
<path fill-rule="evenodd" clip-rule="evenodd" d="M13.0363 14.5719C13.3196 14.8335 13.728 14.9088 14.0859 14.7656L15.3714 14.2514C15.751 14.0996 16 13.7319 16 13.323V7.67703C16 7.26813 15.751 6.90042 15.3714 6.74856L14.0859 6.23438C13.728 6.09119 13.3196 6.16654 13.0363 6.42805L9.86439 9.35593L8.20808 8.15134C8.07749 8.05637 7.90907 8.03031 7.75588 8.08137L7.29415 8.23528C6.93522 8.35492 6.83407 8.81442 7.10958 9.07372L8.62499 10.5L7.10958 11.9263C6.83407 12.1856 6.93522 12.6451 7.29414 12.7647L7.75588 12.9186C7.90907 12.9697 8.07749 12.9436 8.20809 12.8487L9.86439 11.6441L13.0363 14.5719ZM13.5 12L11.4375 10.5L13.5 9V12Z" fill="#94BAFF"/>
</svg>
