<svg width="16" height="16" viewBox="0 0 16 16" fill="none" xmlns="http://www.w3.org/2000/svg">
<path opacity="0.8" d="M9.00031 2.99987H11.0003C12.4001 2.99987 13.1004 2.99996 13.6351 3.27233C14.1054 3.51202 14.4882 3.89476 14.7278 4.3651C15.0002 4.89984 15.0003 5.6 15.0003 6.99987V7.37878L13.4886 5.86706C13.4842 5.72171 13.4803 5.59467 13.471 5.48034C13.4578 5.3184 13.4405 5.21471 13.4251 5.14928L13.3909 5.04577C13.319 4.90476 13.215 4.78351 13.0882 4.69128L12.9544 4.60925C12.9337 4.59871 12.8437 4.55565 12.5198 4.52917C12.1783 4.50128 11.7247 4.49987 11.0003 4.49987H8.37921L6.37921 2.49987H4.2005C3.6161 2.49987 3.26729 2.50127 3.00909 2.52233C2.88905 2.53214 2.82138 2.54394 2.78839 2.55163L2.77374 2.55456C2.70325 2.59048 2.64214 2.64256 2.59601 2.70592L2.55499 2.77331C2.57144 2.74089 2.54239 2.76863 2.52277 3.00866C2.50168 3.26687 2.50031 3.61551 2.50031 4.20007V8.99987C2.50031 9.7244 2.50172 10.1778 2.5296 10.5194C2.55608 10.8435 2.59914 10.9333 2.60968 10.954L2.69171 11.0878C2.78396 11.2146 2.90517 11.3186 3.0462 11.3905L3.14972 11.4247C3.21517 11.44 3.31899 11.4574 3.48077 11.4706C3.82234 11.4984 4.27591 11.4999 5.00031 11.4999H6.12531C6.24678 11.7781 6.41912 12.0398 6.64679 12.2674L7.37921 12.9999H5.00031C3.77526 12.9999 3.08591 12.9998 2.57452 12.8173L2.36554 12.7274C1.9541 12.5178 1.60964 12.1989 1.36945 11.8075L1.27277 11.6346C1.00037 11.0999 1.00031 10.3998 1.00031 8.99987V4.20007C1.00031 3.22014 1.0008 2.66873 1.14679 2.25964L1.21808 2.09167C1.38585 1.76253 1.64123 1.48689 1.95441 1.29479L2.0921 1.21764C2.41288 1.0543 2.80854 1.01302 3.45831 1.0028L4.2005 0.99987H7.00031L9.00031 2.99987Z" fill="#FF9B20"/>
<path d="M12.3184 12.9541C12.6095 12.7601 13 12.9685 13 13.3184C13 13.4346 12.9533 13.5458 12.8711 13.628L12.2071 14.293C11.8166 14.6834 11.1835 14.6833 10.793 14.293L10.128 13.628C10.046 13.5458 10 13.4345 10 13.3184C10.0001 12.9686 10.3896 12.7602 10.6807 12.9541L11.5 13.5L12.3184 12.9541ZM8.68168 9.00004C9.03127 9.00029 9.2397 9.3897 9.04594 9.6807L8.50004 10.5L9.04594 11.3184C9.23996 11.6094 9.03136 11.9998 8.68168 12C8.5655 12 8.45329 11.9533 8.37113 11.8711L7.70707 11.2071C7.31657 10.8166 7.31662 10.1835 7.70707 9.79301L8.37113 9.12797C8.45329 9.04581 8.5655 9.00004 8.68168 9.00004ZM11.5 9.00004C12.3284 9.00012 13 9.67166 13 10.5C13 11.3283 12.3283 12 11.5 12C10.6717 12 10.0001 11.3284 10 10.5C10 9.67161 10.6716 9.00004 11.5 9.00004ZM14.3184 9.00004C14.4345 9.00004 14.5458 9.04596 14.628 9.12797L15.293 9.79301C15.6833 10.1835 15.6834 10.8166 15.293 11.2071L14.628 11.8711C14.5458 11.9533 14.4346 12 14.3184 12C13.9685 12 13.7601 11.6095 13.9541 11.3184L14.5 10.5L13.9541 9.6807C13.7602 9.3896 13.9686 9.00006 14.3184 9.00004ZM10.793 6.70707C11.1835 6.31662 11.8166 6.31657 12.2071 6.70707L12.8711 7.37113C12.9533 7.45329 13 7.5655 13 7.68168C12.9998 8.03136 12.6094 8.23996 12.3184 8.04594L11.5 7.50004L10.6807 8.04594C10.3897 8.2397 10.0003 8.03127 10 7.68168C10 7.5655 10.0458 7.45329 10.128 7.37113L10.793 6.70707Z" fill="#FFC076"/>
</svg>
