<svg width="16" height="16" viewBox="0 0 16 16" fill="none" xmlns="http://www.w3.org/2000/svg">
<path opacity="0.8" d="M9.00034 3.00034H11.0003C12.4002 3.00034 13.1004 3.00034 13.6351 3.2728C14.1053 3.51245 14.4882 3.89436 14.7279 4.36459C14.9503 4.80118 14.9889 5.34837 14.9964 6.29623C14.9702 6.28636 14.9449 6.27512 14.9193 6.26596C14.6119 6.15612 14.2375 6.05768 13.8558 5.95541L11.7318 5.38608C11.3501 5.28381 10.9767 5.18192 10.6556 5.12338C10.3172 5.06171 9.90817 5.02155 9.46127 5.11655C8.84203 5.24835 8.28048 5.57285 7.85678 6.0433C7.55117 6.38278 7.38175 6.75655 7.26596 7.08041C7.15611 7.38777 7.05769 7.7622 6.95541 8.14389L6.38608 10.2679C6.28382 10.6495 6.18193 11.023 6.12338 11.3441C6.0617 11.6825 6.02154 12.0915 6.11655 12.5384C6.15019 12.6965 6.19626 12.851 6.25424 13.0003H5.00034C3.6002 13.0003 2.89937 13.0004 2.36459 12.7279C1.89435 12.4882 1.51245 12.1053 1.2728 11.6351C1.00033 11.1004 1.00034 10.4002 1.00034 9.00034V4.19955C1.00034 3.07978 1.00017 2.51989 1.21811 2.09213C1.40986 1.71581 1.71581 1.40986 2.09213 1.21811C2.51989 1.00018 3.07978 1.00034 4.19955 1.00034H7.00034L9.00034 3.00034Z" fill="#30A6F9"/>
<path d="M13.468 7.40386C14.2791 7.62119 14.6853 7.72985 14.953 7.9706C15.1884 8.18256 15.3511 8.46449 15.417 8.77434C15.4917 9.12648 15.3827 9.53263 15.1653 10.3437L14.5961 12.468C14.3788 13.2791 14.2701 13.6854 14.0294 13.953C13.8174 14.1884 13.5355 14.3512 13.2257 14.417C12.8735 14.4917 12.4674 14.3827 11.6563 14.1653L9.53198 13.5961C8.72088 13.3788 8.31463 13.2702 8.04701 13.0294C7.81161 12.8174 7.64883 12.5355 7.58297 12.2257C7.50829 11.8735 7.61732 11.4674 7.83465 10.6563L8.40385 8.53199C8.62118 7.72089 8.72984 7.31465 8.97059 7.04702C9.18254 6.81162 9.46448 6.64884 9.77432 6.58298C10.1265 6.5083 10.5326 6.61733 11.3437 6.83466L13.468 7.40386ZM13.4026 8.4216C13.1324 8.34922 12.9973 8.31336 12.88 8.33819C12.7767 8.36014 12.6827 8.4144 12.6121 8.49287C12.5319 8.58206 12.4954 8.71701 12.423 8.98715L12.3194 9.3739C12.247 9.64403 12.2111 9.77916 12.236 9.89648C12.2579 9.99976 12.3122 10.0937 12.3906 10.1644C12.4798 10.2446 12.6148 10.2811 12.8849 10.3535L13.2717 10.4571C13.5418 10.5295 13.6769 10.5653 13.7942 10.5405C13.8975 10.5185 13.9915 10.4643 14.0622 10.3858C14.1423 10.2966 14.1788 10.1617 14.2512 9.89153L14.3548 9.50479C14.4272 9.23465 14.4631 9.09952 14.4383 8.9822C14.4163 8.87892 14.362 8.78494 14.2836 8.71429C14.1944 8.63412 14.0594 8.59761 13.7893 8.52523L13.4026 8.4216Z" fill="#83C2FE"/>
</svg>
