<svg width="16" height="16" viewBox="0 0 16 16" fill="none" xmlns="http://www.w3.org/2000/svg">
<path opacity="0.8" d="M9 3H11C12.4 3 13.1 3.00007 13.6348 3.27246C14.1052 3.51214 14.4879 3.89483 14.7275 4.36523C14.7652 4.43923 14.7962 4.51689 14.8242 4.59863C14.5598 4.5348 14.284 4.5 14 4.5H13.8281C13.5316 4.50003 13.2393 4.53864 12.957 4.61133L12.9541 4.60938C12.9334 4.59883 12.8436 4.55578 12.5195 4.5293C12.1779 4.50141 11.7246 4.5 11 4.5H8.37891L6.37891 2.5H4.2002C3.61556 2.5 3.26702 2.50138 3.00879 2.52246C2.88835 2.5323 2.82096 2.54407 2.78809 2.55176L2.77344 2.55469C2.70286 2.59065 2.64185 2.64258 2.5957 2.70605L2.55469 2.77344C2.57139 2.74065 2.54213 2.76805 2.52246 3.00879C2.50138 3.26702 2.5 3.61556 2.5 4.2002V9C2.5 9.72461 2.50141 10.1779 2.5293 10.5195C2.55578 10.8437 2.59883 10.9334 2.60938 10.9541L2.69141 11.0879C2.78366 11.2148 2.90484 11.3187 3.0459 11.3906L3.14941 11.4248C3.21485 11.4402 3.31847 11.4575 3.48047 11.4707C3.82206 11.4986 4.27539 11.5 5 11.5H5.75098C5.73644 11.5473 5.7247 11.5953 5.70801 11.6416C5.572 12.0185 5.50004 12.4197 5.5 12.8281V13H5C3.77477 13 3.08563 13 2.57422 12.8174L2.36523 12.7275C1.95378 12.5179 1.60933 12.199 1.36914 11.8076L1.27246 11.6348C1.00007 11.1 1 10.4 1 9V4.2002C1 3.22019 1.00049 2.66887 1.14648 2.25977L1.21777 2.0918C1.38555 1.76256 1.64085 1.48707 1.9541 1.29492L2.0918 1.21777C2.41263 1.0543 2.80803 1.01315 3.45801 1.00293L4.2002 1H7L9 3Z" fill="#4D72F7"/>
<path d="M14.125 6C15.1605 6 16 6.83947 16 7.875C16 8.91053 15.1605 9.75 14.125 9.75H13.5V11.25H14.125C15.1605 11.25 16 12.0895 16 13.125C16 14.1605 15.1605 15 14.125 15C13.0895 15 12.25 14.1605 12.25 13.125V12.5H10.75V13.125C10.75 14.1605 9.91053 15 8.875 15C7.83947 15 7 14.1605 7 13.125C7 12.0895 7.83947 11.25 8.875 11.25H9.5V9.75H8.875C7.83947 9.75 7 8.91053 7 7.875C7 6.83947 7.83947 6 8.875 6C9.91053 6 10.75 6.83947 10.75 7.875V8.5H12.25V7.875C12.25 6.83947 13.0895 6 14.125 6ZM8.875 12.5C8.52982 12.5 8.25 12.7798 8.25 13.125C8.25 13.4702 8.52982 13.75 8.875 13.75C9.22018 13.75 9.5 13.4702 9.5 13.125V12.5H8.875ZM13.5 13.125C13.5 13.4702 13.7798 13.75 14.125 13.75C14.4702 13.75 14.75 13.4702 14.75 13.125C14.75 12.7798 14.4702 12.5 14.125 12.5H13.5V13.125ZM10.75 9.75V11.25H12.25V9.75H10.75ZM8.875 7.25C8.52982 7.25 8.25 7.52982 8.25 7.875C8.25 8.22018 8.52982 8.5 8.875 8.5H9.5V7.875C9.5 7.52982 9.22018 7.25 8.875 7.25ZM14.125 7.25C13.7798 7.25 13.5 7.52982 13.5 7.875V8.5H14.125C14.4702 8.5 14.75 8.22018 14.75 7.875C14.75 7.52982 14.4702 7.25 14.125 7.25Z" fill="#94BAFF"/>
</svg>
