<svg width="16" height="16" viewBox="0 0 16 16" fill="none" xmlns="http://www.w3.org/2000/svg">
<path opacity="0.7" d="M9 3H11C12.4 3 13.1 3.00007 13.6348 3.27246C14.1052 3.51214 14.4879 3.89483 14.7275 4.36523C14.9935 4.88741 14.9989 5.56718 14.999 6.90234C14.8315 6.8056 14.6541 6.72364 14.4678 6.66016L14.2764 6.60254C14.1791 6.57649 14.079 6.5564 13.9785 6.54199C13.8051 6.51708 13.638 6.45737 13.4971 6.35742C13.4946 5.98436 13.4893 5.70769 13.4707 5.48047C13.4575 5.31847 13.4402 5.21485 13.4248 5.14941L13.3906 5.0459C13.3187 4.90484 13.2148 4.78366 13.0879 4.69141L12.9541 4.60938C12.9334 4.59883 12.8436 4.55578 12.5195 4.5293C12.1779 4.50141 11.7246 4.5 11 4.5H8.37891L6.37891 2.5H4.2002C3.61556 2.5 3.26702 2.50138 3.00879 2.52246C2.88836 2.5323 2.82096 2.54407 2.78809 2.55176L2.77344 2.55469C2.70286 2.59065 2.64185 2.64258 2.5957 2.70605L2.55469 2.77344C2.57139 2.74065 2.54213 2.76805 2.52246 3.00879C2.50138 3.26702 2.5 3.61556 2.5 4.2002V9C2.5 9.72461 2.50141 10.1779 2.5293 10.5195C2.55578 10.8436 2.59883 10.9334 2.60938 10.9541L2.69141 11.0879C2.78366 11.2148 2.90484 11.3187 3.0459 11.3906L3.14941 11.4248C3.21485 11.4402 3.31847 11.4575 3.48047 11.4707C3.82206 11.4986 4.2754 11.5 5 11.5H5.5V11.5996C5.5 11.9945 5.49887 12.3819 5.52539 12.707C5.53303 12.8005 5.54414 12.8985 5.55957 13H5C3.77477 13 3.08563 13 2.57422 12.8174L2.36523 12.7275C1.95378 12.5179 1.60933 12.199 1.36914 11.8076L1.27246 11.6348C1.00007 11.1 1 10.4 1 9V4.2002C1 3.22019 1.00049 2.66887 1.14648 2.25977L1.21777 2.0918C1.38555 1.76256 1.64085 1.48707 1.9541 1.29492L2.0918 1.21777C2.41263 1.0543 2.80804 1.01315 3.45801 1.00293L4.2002 1H7L9 3Z" fill="#7E7E92"/>
<path d="M11.3369 7C11.5815 7 11.7042 6.99971 11.8193 7.02734C11.9214 7.05184 12.0189 7.09264 12.1084 7.14746C12.2093 7.2093 12.2959 7.29588 12.4688 7.46875L12.8281 7.82813C12.8528 7.85282 12.8652 7.86587 12.8779 7.87695C12.9603 7.9489 13.0647 7.99166 13.1738 7.99902C13.1904 8.00013 13.2078 8 13.2422 8C13.481 8 13.6009 8.00012 13.7012 8.01367C14.3697 8.1043 14.8957 8.63033 14.9863 9.29883C14.9999 9.39906 15 9.51902 15 9.75781V11.5996C15 12.4393 15.0002 12.8598 14.8369 13.1807C14.6931 13.4629 14.4629 13.6931 14.1807 13.8369C13.8598 14.0002 13.4393 14 12.5996 14H9.40039C8.56068 14 8.14015 14.0002 7.81934 13.8369C7.53709 13.6931 7.3069 13.4629 7.16309 13.1807C6.99981 12.8598 7 12.4393 7 11.5996V9.75781C7 9.51902 7.00012 9.39906 7.01367 9.29883C7.1043 8.63033 7.63033 8.1043 8.29883 8.01367C8.39906 8.00012 8.51902 8 8.75781 8C8.79216 8 8.80955 8.00013 8.82617 7.99902C8.9353 7.99166 9.03969 7.9489 9.12207 7.87695C9.13476 7.86587 9.14719 7.85281 9.17188 7.82813L9.53125 7.46875L9.73828 7.2666C9.79421 7.21554 9.84111 7.17842 9.8916 7.14746C9.98106 7.09264 10.0786 7.05184 10.1807 7.02734C10.2958 6.99971 10.4185 7 10.6631 7H11.3369ZM11 9.5C10.1716 9.5 9.5 10.1716 9.5 11C9.5 11.8284 10.1716 12.5 11 12.5C11.8284 12.5 12.5 11.8284 12.5 11C12.5 10.1716 11.8284 9.5 11 9.5Z" fill="#BEBED1"/>
</svg>
