<svg width="16" height="16" viewBox="0 0 16 16" fill="none" xmlns="http://www.w3.org/2000/svg">
<path opacity="0.8" d="M9 3H11C12.4 3 13.1 3.00007 13.6348 3.27246C14.1052 3.51214 14.4879 3.89483 14.7275 4.36523C14.8324 4.57109 14.8959 4.80156 14.9355 5.08691C14.824 5.01281 14.7091 4.9431 14.5889 4.88184C14.1283 4.64714 13.6616 4.56705 13.2354 4.53223C12.8267 4.49886 12.3349 4.5 11.7998 4.5H9.40039C9.00523 4.5 8.61828 4.49883 8.29297 4.52539C7.95008 4.55341 7.54483 4.6197 7.1377 4.82715C6.57347 5.11472 6.11472 5.57347 5.82715 6.1377C5.6197 6.54483 5.55341 6.95008 5.52539 7.29297C5.49883 7.61828 5.5 8.00523 5.5 8.40039V12.5996C5.5 12.7347 5.50107 12.8689 5.50195 13H5C3.60002 13 2.89999 12.9999 2.36523 12.7275C1.89483 12.4879 1.51214 12.1052 1.27246 11.6348C1.00007 11.1 1 10.4 1 9V4.2002C1 3.08009 0.999786 2.51962 1.21777 2.0918C1.40951 1.71555 1.71555 1.40951 2.0918 1.21777C2.51962 0.999786 3.08009 1 4.2002 1H7L9 3Z" fill="#FF519C"/>
<path d="M11 16L10 15.5L9 16V14H11V16ZM12.542 6.00293C13.192 6.01315 13.5874 6.0543 13.9082 6.21777C14.2845 6.40951 14.5905 6.71554 14.7822 7.0918C15.0002 7.51962 15 8.08009 15 9.2002V11.7998L14.9971 12.542C14.9868 13.192 14.9457 13.5874 14.7822 13.9082L14.7051 14.0459C14.5129 14.3592 14.2374 14.6145 13.9082 14.7822L13.7402 14.8535C13.4481 14.9578 13.0836 14.9886 12.542 14.9971L12 14.999V13.998C12.4651 13.9975 12.7831 13.9959 13.0322 13.9756C13.3038 13.9534 13.4047 13.9158 13.4541 13.8906L13.5879 13.8086C13.7148 13.7163 13.8187 13.5952 13.8906 13.4541L13.9121 13.4053C13.9344 13.3433 13.959 13.2357 13.9756 13.0322C13.9829 12.943 13.9866 12.8449 13.9902 12.7344C13.9177 12.7758 13.8436 12.8153 13.7656 12.8477C13.3981 12.9999 12.9319 13 12 13H9V13.0107C8.80393 13.0227 8.66464 13.0489 8.5459 13.1094C8.35793 13.2052 8.20521 13.3579 8.10938 13.5459C8.00041 13.7598 8 14.0398 8 14.5996V14.9053C7.9814 14.8996 7.96218 14.897 7.94434 14.8906L7.81934 14.8369C7.57239 14.7111 7.3658 14.5191 7.22168 14.2842L7.16309 14.1807C7.04064 13.9401 7.01059 13.6436 7.00293 13.1562L7 12.5996V8.40039C7 7.66516 6.99978 7.2512 7.10938 6.94434L7.16309 6.81934C7.28891 6.57239 7.48088 6.3658 7.71582 6.22168L7.81934 6.16309C8.05992 6.04064 8.35641 6.01059 8.84375 6.00293L9.40039 6H11.7998L12.542 6.00293ZM9 10C8.72386 10 8.5 10.2239 8.5 10.5C8.5 10.7761 8.72386 11 9 11H11C11.2761 11 11.5 10.7761 11.5 10.5C11.5 10.2239 11.2761 10 11 10H9ZM9 8C8.72386 8 8.5 8.22386 8.5 8.5C8.5 8.77614 8.72386 9 9 9H13C13.2761 9 13.5 8.77614 13.5 8.5C13.5 8.22386 13.2761 8 13 8H9Z" fill="#FF8CC7"/>
</svg>
