<svg width="16" height="16" viewBox="0 0 16 16" fill="none" xmlns="http://www.w3.org/2000/svg">
<path opacity="0.8" d="M9 2.99998H11C12.4 2.99998 13.1 3.00006 13.6348 3.27245C14.1052 3.51213 14.4879 3.89481 14.7275 4.36522C14.9168 4.73674 14.9726 5.18806 14.9902 5.89842C14.9479 5.87419 14.9059 5.84935 14.8623 5.82713C14.4552 5.61969 14.0499 5.55339 13.707 5.52538C13.3817 5.49882 12.9948 5.49998 12.5996 5.49998H8.90039C8.50523 5.49998 8.11828 5.49882 7.79297 5.52538C7.45008 5.55339 7.04483 5.61969 6.6377 5.82713C6.07348 6.11471 5.61472 6.57346 5.32715 7.13768C5.11971 7.54481 5.05341 7.95007 5.02539 8.29295C4.99883 8.61826 5 9.00522 5 9.40038V11.5996C5 11.9947 4.99883 12.3817 5.02539 12.707C5.03303 12.8005 5.04513 12.8984 5.06055 13H5C3.60002 13 2.89999 12.9999 2.36523 12.7275C1.89483 12.4878 1.51214 12.1052 1.27246 11.6348C1.00008 11.1 1 10.3999 1 8.99998V4.20018C1 3.08007 0.999786 2.51961 1.21777 2.09178C1.40951 1.71553 1.71555 1.40949 2.0918 1.21776C2.51962 0.999771 3.08009 0.999985 4.2002 0.999985H7L9 2.99998Z" fill="#FF9B20"/>
<path d="M12.6004 7C13.4402 7 13.8606 6.99962 14.1814 7.16309C14.4636 7.3069 14.6929 7.53716 14.8367 7.81934C15 8.14016 14.9998 8.5606 14.9998 9.40039V11.5996C14.9998 12.4394 15 12.8598 14.8367 13.1807C14.6929 13.4628 14.4636 13.6931 14.1814 13.8369C13.8606 14.0004 13.4402 14 12.6004 14H8.90018C8.06032 14 7.63996 14.0003 7.31912 13.8369C7.03688 13.6931 6.80766 13.4629 6.66385 13.1807C6.50041 12.8598 6.49979 12.4396 6.49979 11.5996V9.40039C6.49979 8.56041 6.50041 8.14019 6.66385 7.81934C6.80766 7.53709 7.03688 7.3069 7.31912 7.16309C7.63996 6.99973 8.06032 7 8.90018 7H12.6004ZM8.99979 8C8.72374 8.00012 8.49979 8.22393 8.49979 8.5C8.49979 8.77607 8.72374 8.99988 8.99979 9H9.49979V11.5C9.49979 11.7761 9.27593 12 8.99979 12C8.75817 11.9999 8.55606 11.8285 8.50955 11.6006L8.49002 11.3994C8.44348 11.1715 8.24148 11 7.99979 11C7.72374 11.0001 7.49979 11.2239 7.49979 11.5C7.49979 12.3284 8.17146 12.9999 8.99979 13C9.82821 13 10.4998 12.3284 10.4998 11.5V8.5C10.4998 8.25829 10.3283 8.05629 10.1004 8.00977L9.99979 8H8.99979ZM12.4998 8C11.6715 8.00011 10.9998 8.67164 10.9998 9.5C10.9998 10.3284 11.6715 10.9999 12.4998 11C12.7759 11 12.9998 11.2239 12.9998 11.5C12.9998 11.7761 12.7759 12 12.4998 12H12.4021C12.3089 11.9977 12.2186 11.9692 12.1414 11.9189L12.0691 11.8623L11.8533 11.6465L11.7752 11.582C11.5811 11.454 11.3171 11.4757 11.1463 11.6465C10.9755 11.8173 10.9537 12.0814 11.0818 12.2754L11.1463 12.3535L11.3787 12.5859L11.4842 12.6768C11.7383 12.8776 12.0524 12.9922 12.3787 13H12.4998C13.3282 13 13.9998 12.3284 13.9998 11.5C13.9998 10.6716 13.3282 10 12.4998 10C12.2237 9.99989 11.9998 9.77607 11.9998 9.5C11.9998 9.22393 12.2237 9.00011 12.4998 9H12.5974C12.7216 9.00296 12.8405 9.05211 12.9305 9.1377L13.1463 9.35352L13.2244 9.41797C13.4184 9.54611 13.6824 9.52428 13.8533 9.35352C14.0242 9.18265 14.0459 8.91869 13.9178 8.72461L13.8533 8.64648L13.6209 8.41406C13.3509 8.15668 12.9938 8.00889 12.6209 8H12.4998Z" fill="#FFC076"/>
</svg>
