<svg width="16" height="16" viewBox="0 0 16 16" fill="none" xmlns="http://www.w3.org/2000/svg">
<path opacity="0.8" d="M9 2.99968H11C12.3999 2.99968 13.1 2.99981 13.6348 3.27214C14.1051 3.51178 14.4878 3.89462 14.7275 4.36491C14.8671 4.63889 14.9336 4.95668 14.9668 5.38933L14.8779 5.35222L13.0449 4.66472L12.9541 4.60905C12.9398 4.60178 12.893 4.58013 12.7617 4.55827L11.8779 4.22722L11.6631 4.15691C11.2292 4.03758 10.7708 4.03758 10.3369 4.15691L10.1221 4.22722L9.39551 4.49968H8.37891L6.37891 2.49968H4.2002C3.61558 2.49968 3.26702 2.50106 3.00879 2.52214C2.88844 2.53197 2.82099 2.54375 2.78809 2.55144L2.77344 2.55437C2.70293 2.59029 2.64184 2.64235 2.5957 2.70573L2.55469 2.77312C2.57111 2.74074 2.54208 2.76864 2.52246 3.00847C2.50138 3.26665 2.5 3.61543 2.5 4.19987V8.99968C2.5 9.72406 2.50143 10.1777 2.5293 10.5192C2.55567 10.842 2.59862 10.9326 2.60938 10.9538L2.69141 11.0876C2.78363 11.2144 2.90489 11.3184 3.0459 11.3903L3.14941 11.4245C3.21485 11.4398 3.31848 11.4571 3.48047 11.4704C3.82206 11.4983 4.27539 11.4997 5 11.4997H5.74902C5.89824 12.0263 6.11287 12.5296 6.38672 12.9997H5C3.77477 12.9997 3.08563 12.9997 2.57422 12.8171L2.36523 12.7272C1.95384 12.5176 1.60931 12.1987 1.36914 11.8073L1.27246 11.6344C1.0002 11.0997 1 10.3994 1 8.99968V4.19987C1 3.22006 1.0005 2.66851 1.14648 2.25945L1.21777 2.09148C1.38555 1.76235 1.64093 1.4867 1.9541 1.2946L2.0918 1.21745C2.4126 1.05404 2.80812 1.01283 3.45801 1.00261L4.2002 0.99968H7L9 2.99968Z" fill="#FF4466"/>
<path d="M10.4736 5.69705C10.813 5.56992 11.187 5.56992 11.5264 5.69705L14.3516 6.75662C14.7417 6.90308 15 7.27643 15 7.69314V9.7283C15 11.0276 14.4945 12.2572 13.6201 13.1756L13.6211 13.1746C13.4075 13.3991 13.1725 13.6058 12.917 13.7898C12.8304 13.852 12.7415 13.9116 12.6504 13.9685L11.5303 14.6687C11.206 14.8714 10.794 14.8714 10.4697 14.6687L9.34961 13.9685C9.24023 13.9002 9.13505 13.8266 9.03223 13.7508C8.79654 13.5762 8.57814 13.3831 8.37891 13.1736V13.1756C7.50485 12.2572 7 11.0273 7 9.7283V7.69314C7 7.27643 7.25834 6.90308 7.64844 6.75662L10.4736 5.69705ZM10.4551 10.9998C9.70357 10.9998 9.05908 11.3959 8.69434 11.9773C9.00178 12.4295 9.40172 12.8219 9.87988 13.1209L10.7354 13.6551L10.7979 13.6883C10.9478 13.7545 11.123 13.7434 11.2646 13.6551L12.1201 13.1209L12.334 12.9773C12.7188 12.7009 13.0462 12.3613 13.3066 11.9783C12.9421 11.3965 12.2976 11 11.5459 10.9998H10.4551ZM11.001 7.49978C10.1727 7.49978 9.50117 8.17152 9.50098 8.99978C9.50106 9.82813 10.1726 10.4998 11.001 10.4998C11.8289 10.4993 12.5009 9.82781 12.501 8.99978C12.5008 8.17185 11.8288 7.50031 11.001 7.49978Z" fill="#FF8197"/>
</svg>
