<svg width="16" height="16" viewBox="0 0 16 16" fill="none" xmlns="http://www.w3.org/2000/svg">
<g clip-path="url(#clip0_270_1063)">
<path opacity="0.8" d="M9 3.00046H11C12.4 3.00046 13.1 3.00052 13.6348 3.27292C14.1051 3.51261 14.4879 3.89535 14.7275 4.36569C14.9222 4.74817 14.9764 5.21517 14.9922 5.96237L13.4727 5.10788C13.448 5.094 13.4224 5.08194 13.3975 5.06882L13.3906 5.04636C13.3187 4.90538 13.2147 4.78409 13.0879 4.69186L12.9541 4.60983C12.9334 4.59929 12.8436 4.55624 12.5195 4.52975C12.1779 4.50187 11.7246 4.50046 11 4.50046H8.37891L6.37891 2.50046H4.2002C3.61556 2.50046 3.26702 2.50184 3.00879 2.52292C2.88838 2.53276 2.82096 2.54453 2.78809 2.55222L2.77344 2.55515C2.70293 2.59111 2.64181 2.64309 2.5957 2.70651L2.55469 2.7739C2.57139 2.74111 2.54213 2.7685 2.52246 3.00925C2.50141 3.26743 2.5 3.61636 2.5 4.20065V9.00046C2.5 9.7248 2.50141 10.1785 2.5293 10.52C2.55578 10.8437 2.59884 10.9339 2.60938 10.9546L2.69141 11.0883C2.78363 11.2151 2.90495 11.3192 3.0459 11.3911L3.14941 11.4253C3.21486 11.4406 3.31855 11.4579 3.48047 11.4712C3.82206 11.499 4.27542 11.5005 5 11.5005H5.5V12.4507C5.50004 12.6372 5.51921 12.8209 5.55273 13.0005H5C3.77488 13.0005 3.08562 13.0004 2.57422 12.8178L2.36523 12.728C1.9539 12.5184 1.60932 12.1993 1.36914 11.8081L1.27246 11.6352C1.0001 11.1005 1 10.4001 1 9.00046V4.20065C1 3.22097 1.00063 2.66929 1.14648 2.26022L1.21777 2.09225C1.38551 1.76309 1.64094 1.48752 1.9541 1.29538L2.0918 1.21823C2.41263 1.05476 2.80804 1.01361 3.45801 1.00339L4.2002 1.00046H7L9 3.00046Z" fill="#FF4466"/>
<path d="M11.2639 6.41631C11.7209 6.15798 12.2799 6.15699 12.7375 6.41435L15.2355 7.81963C15.7078 8.0853 16.0002 8.58535 16.0002 9.12724V11.8753C16.0001 12.4159 15.709 12.9149 15.2385 13.181L11.7365 15.1614C11.2795 15.4198 10.7205 15.4198 10.2629 15.1624L7.76483 13.7571C7.29263 13.4915 7.00033 12.9922 7.00018 12.4505V9.70244C7.00018 9.16174 7.29124 8.66292 7.7619 8.39677L11.2639 6.41631ZM14.9328 8.80693C14.812 8.59795 14.5634 8.50908 14.343 8.58232L14.2502 8.62431L11.0012 10.5003L8.75018 9.20146L8.65741 9.15947C8.43701 9.08624 8.18837 9.17521 8.06757 9.38408C7.92961 9.6232 8.01108 9.92963 8.25018 10.0677L10.5002 11.3665V13.5003C10.5003 13.7763 10.7241 14.0003 11.0002 14.0003C11.2761 14.0002 11.5 13.7762 11.5002 13.5003V11.3665L14.7502 9.48955L14.8322 9.43095C15.0063 9.27675 15.0534 9.0162 14.9328 8.80693Z" fill="#FF8197"/>
</g>
<defs>
<clipPath id="clip0_270_1063">
<rect width="16" height="16" fill="white"/>
</clipPath>
</defs>
</svg>
