<svg width="16" height="16" viewBox="0 0 16 16" fill="none" xmlns="http://www.w3.org/2000/svg">
<g clip-path="url(#clip0_203_881)">
<path opacity="0.7" d="M9.0004 2.99982H11.0004C12.4003 2.99982 13.1004 2.99982 13.6352 3.27228C14.1055 3.51196 14.4883 3.89466 14.7279 4.36505C14.8692 4.64235 14.9354 4.96436 14.9682 5.40509C14.8102 5.40662 14.651 5.42644 14.4945 5.47052C14.0899 5.5845 13.6894 5.75177 13.269 5.75177H8.23575C6.90492 5.75208 5.79211 6.76124 5.65958 8.0838L5.63028 8.37677V8.37872C5.55347 9.1546 5.9117 9.7889 6.44766 10.159C6.92204 10.4866 7.37891 11.0124 7.1293 11.532L6.99356 11.7918L6.79825 12.1326L6.79727 12.1356L6.79532 12.1385C6.63933 12.4123 6.54822 12.7053 6.51505 12.9998H5.0004C3.60027 12.9998 2.89943 12.9998 2.36465 12.7274C1.89442 12.4877 1.51248 12.1049 1.27286 11.6346C1.00046 11.0998 1.0004 10.3998 1.0004 8.99982V4.20001C1.0004 3.07991 1.00018 2.51944 1.21817 2.09161C1.40993 1.71547 1.716 1.40927 2.09219 1.21759C2.51993 0.999777 3.08003 0.999817 4.19962 0.999817H7.0004L9.0004 2.99982Z" fill="#7E7E92"/>
<path d="M14.8617 7.14078C15.1279 6.8746 15.5771 7.1154 15.5033 7.48453L15.4154 7.923C15.3188 8.40486 14.8961 8.7519 14.4046 8.75211H13.5003V12.0158C13.5004 12.2842 13.7183 12.5021 13.9867 12.5021C14.1705 12.5019 14.339 12.398 14.4212 12.2336L14.5794 11.9171C14.7646 11.5468 15.2149 11.3963 15.5853 11.5812C15.9554 11.7665 16.1061 12.2168 15.9212 12.5871L15.763 12.9044C15.4267 13.5771 14.7387 14.0019 13.9867 14.0021C12.8898 14.0021 12.0004 13.1126 12.0003 12.0158V8.75211H10.5003V9.90836C10.5003 10.9362 10.2659 11.9491 9.81675 12.8693L9.6107 13.258L9.40171 13.6242C9.19628 13.9837 8.73785 14.1087 8.37828 13.9035C8.01867 13.698 7.89356 13.2397 8.09898 12.88L8.30894 12.5138L8.46812 12.2111C8.76755 11.5975 8.9452 10.9314 8.9896 10.2502L9.00035 9.90836V8.75211H7.90757C7.80678 8.75211 7.71034 8.79223 7.63902 8.86343C7.37283 9.12962 6.92261 8.88882 6.99644 8.51968L7.08433 8.08121C7.18084 7.59906 7.60432 7.25211 8.09605 7.25211H14.5921C14.6931 7.25211 14.7903 7.21213 14.8617 7.14078Z" fill="#BEBED1"/>
</g>
<defs>
<clipPath id="clip0_203_881">
<rect width="16" height="16" fill="white"/>
</clipPath>
</defs>
</svg>
