<svg width="16" height="16" viewBox="0 0 16 16" fill="none" xmlns="http://www.w3.org/2000/svg">
<path opacity="0.8" d="M9.00043 2.99985H11.0004C12.4001 2.99985 13.1005 2.99994 13.6352 3.27231C14.1055 3.512 14.4883 3.89477 14.728 4.36508C14.9503 4.80155 14.989 5.34835 14.9965 6.29575C14.9704 6.28593 14.9449 6.27558 14.9194 6.26645C14.612 6.1566 14.2376 6.0572 13.8559 5.95493L13.4887 5.85629C13.4844 5.71543 13.4802 5.59182 13.4711 5.48032C13.4579 5.31838 13.4406 5.21469 13.4252 5.14926L13.3911 5.04575C13.3192 4.90476 13.2151 4.78349 13.0883 4.69125L12.9545 4.60922C12.9338 4.59869 12.8437 4.55563 12.52 4.52914C12.1784 4.50126 11.7248 4.49985 11.0004 4.49985H8.37933L6.37933 2.49985H4.20062C3.61631 2.49985 3.2674 2.50126 3.00922 2.52231C2.88931 2.5321 2.82155 2.54392 2.78851 2.55161L2.77386 2.55453C2.70339 2.59044 2.64226 2.64256 2.59613 2.7059L2.55511 2.77328C2.5715 2.74096 2.5425 2.76878 2.52289 3.00864C2.50181 3.26685 2.50043 3.61549 2.50043 4.20004V8.99985C2.50043 9.72437 2.50184 10.1778 2.52972 10.5194C2.55621 10.8435 2.59926 10.9333 2.6098 10.9539L2.69183 11.0877C2.78407 11.2146 2.9053 11.3186 3.04633 11.3905L3.14984 11.4247C3.2153 11.44 3.3192 11.4573 3.4809 11.4706C3.82244 11.4984 4.27611 11.4998 5.00043 11.4998H6.10004C6.0549 11.8051 6.03487 12.1575 6.11566 12.5379C6.14929 12.6961 6.19537 12.8505 6.25336 12.9998H5.00043C3.77546 12.9998 3.08603 12.9997 2.57465 12.8172L2.36566 12.7274C1.95423 12.5178 1.60976 12.1988 1.36957 11.8075L1.27289 11.6346C1.00049 11.0999 1.00043 10.3998 1.00043 8.99985V4.20004C1.00043 3.22013 1.00092 2.6687 1.14691 2.25961L1.2182 2.09164C1.38598 1.76254 1.64137 1.48686 1.95453 1.29477L2.09222 1.21762C2.41298 1.05432 2.80873 1.013 3.45844 1.00278L4.20062 0.999847H7.00043L9.00043 2.99985Z" fill="#30A6F9"/>
<path d="M13.468 7.40386C14.2791 7.62119 14.6853 7.72985 14.953 7.9706C15.1884 8.18256 15.3511 8.46449 15.417 8.77434C15.4917 9.12648 15.3827 9.53263 15.1653 10.3437L14.5961 12.468C14.3788 13.2791 14.2701 13.6854 14.0294 13.953C13.8174 14.1884 13.5355 14.3512 13.2257 14.417C12.8735 14.4917 12.4674 14.3827 11.6563 14.1653L9.53198 13.5961C8.72088 13.3788 8.31463 13.2702 8.04701 13.0294C7.81161 12.8174 7.64883 12.5355 7.58297 12.2257C7.50829 11.8735 7.61732 11.4674 7.83465 10.6563L8.40385 8.53199C8.62118 7.72089 8.72984 7.31465 8.97059 7.04702C9.18254 6.81162 9.46448 6.64884 9.77432 6.58298C10.1265 6.5083 10.5326 6.61733 11.3437 6.83466L13.468 7.40386ZM13.4026 8.4216C13.1324 8.34922 12.9973 8.31336 12.88 8.33819C12.7767 8.36014 12.6827 8.4144 12.6121 8.49287C12.5319 8.58206 12.4954 8.71701 12.423 8.98715L12.3194 9.3739C12.247 9.64403 12.2111 9.77916 12.236 9.89648C12.2579 9.99976 12.3122 10.0937 12.3906 10.1644C12.4798 10.2446 12.6148 10.2811 12.8849 10.3535L13.2717 10.4571C13.5418 10.5295 13.6769 10.5653 13.7942 10.5405C13.8975 10.5185 13.9915 10.4643 14.0622 10.3858C14.1423 10.2966 14.1788 10.1617 14.2512 9.89153L14.3548 9.50479C14.4272 9.23465 14.4631 9.09952 14.4383 8.9822C14.4163 8.87892 14.362 8.78494 14.2836 8.71429C14.1944 8.63412 14.0594 8.59761 13.7893 8.52523L13.4026 8.4216Z" fill="#83C2FE"/>
</svg>
