<svg width="16" height="16" viewBox="0 0 16 16" fill="none" xmlns="http://www.w3.org/2000/svg">
<path opacity="0.8" d="M8.99966 2.9998H10.9997C12.3993 2.9998 13.0997 3.00004 13.6344 3.27226C14.1047 3.51189 14.4875 3.89476 14.7272 4.36503C14.8144 4.53628 14.8705 4.72533 14.9108 4.94804L14.6208 4.83183L14.4577 4.77324C14.0198 4.63234 13.5578 4.61736 13.1217 4.71952C13.1103 4.71039 13.0994 4.69984 13.0876 4.6912L12.9538 4.60917C12.9324 4.59833 12.8415 4.55543 12.5192 4.52909C12.1776 4.50123 11.724 4.4998 10.9997 4.4998H8.37857L6.37857 2.4998H4.19986C3.61543 2.4998 3.26663 2.50118 3.00845 2.52226C2.88822 2.53209 2.82059 2.54388 2.78775 2.55156L2.7731 2.55449C2.7026 2.59045 2.64148 2.64243 2.59537 2.70585L2.55435 2.77324C2.57103 2.74049 2.54179 2.76806 2.52213 3.00859C2.50104 3.26679 2.49966 3.61548 2.49966 4.19999V8.9998C2.49966 9.72424 2.50109 10.1778 2.52896 10.5193C2.55532 10.8419 2.59824 10.9327 2.60904 10.9539L2.69107 11.0877C2.78324 11.2145 2.90465 11.3185 3.04556 11.3904L3.14908 11.4246C3.21447 11.4399 3.31834 11.4573 3.48013 11.4705C3.82168 11.4984 4.27526 11.4998 4.99966 11.4998H5.50064V11.8816C5.50068 12.2774 5.59462 12.6587 5.76529 12.9998H4.99966C3.77464 12.9998 3.08525 12.9998 2.57388 12.8172L2.3649 12.7273C1.9536 12.5177 1.60893 12.1987 1.3688 11.8074L1.27213 11.6346C0.999883 11.0998 0.999664 10.3995 0.999664 8.9998V4.19999C0.999664 3.22011 1.00016 2.66864 1.14615 2.25956L1.21744 2.09159C1.38518 1.76242 1.64059 1.48686 1.95377 1.29472L2.09146 1.21757C2.41224 1.05413 2.8079 1.01296 3.45767 1.00273L4.19986 0.999798H6.99966L8.99966 2.9998Z" fill="#4D72F7"/>
<path fill-rule="evenodd" clip-rule="evenodd" d="M13.0363 14.5719C13.3196 14.8335 13.728 14.9088 14.0859 14.7656L15.3714 14.2514C15.751 14.0996 16 13.7319 16 13.323V7.67703C16 7.26813 15.751 6.90042 15.3714 6.74856L14.0859 6.23438C13.728 6.09119 13.3196 6.16654 13.0363 6.42805L9.86439 9.35593L8.20808 8.15134C8.07749 8.05637 7.90907 8.03031 7.75588 8.08137L7.29415 8.23528C6.93522 8.35492 6.83407 8.81442 7.10958 9.07372L8.62499 10.5L7.10958 11.9263C6.83407 12.1856 6.93522 12.6451 7.29414 12.7647L7.75588 12.9186C7.90907 12.9697 8.07749 12.9436 8.20809 12.8487L9.86439 11.6441L13.0363 14.5719ZM13.5 12L11.4375 10.5L13.5 9V12Z" fill="#94BAFF"/>
</svg>
