<svg width="16" height="16" viewBox="0 0 16 16" fill="none" xmlns="http://www.w3.org/2000/svg">
<path opacity="0.8" d="M9 3H11C12.4 3 13.1 3.00007 13.6348 3.27246C14.1052 3.51214 14.4879 3.89483 14.7275 4.36523C14.9559 4.81345 14.9911 5.37777 14.9971 6.37305L13.167 5.00098V5C12.7344 4.67575 12.2067 4.5 11.666 4.5H11.2998C9.61606 4.50027 8.15966 5.54522 7.57422 7.04297C7.44511 7.37334 7.18444 7.63867 6.88965 7.83594C6.35336 8.19477 6 8.80635 6 9.5V10C6 10.3399 6.08547 10.6595 6.23535 10.9395C6.49827 11.4304 6.6605 12.0552 6.35156 12.5186L6.33594 12.542C6.24071 12.6849 6.16674 12.8393 6.11133 13H5C3.60002 13 2.89999 12.9999 2.36523 12.7275C1.89483 12.4879 1.51214 12.1052 1.27246 11.6348C1.00007 11.1 1 10.4 1 9V4.2002C1 3.08009 0.999786 2.51962 1.21777 2.0918C1.40951 1.71554 1.71554 1.40951 2.0918 1.21777C2.51962 0.999786 3.08009 1 4.2002 1H7L9 3Z" fill="#9B61FF"/>
<path d="M11.8066 6C12.1477 6.00023 12.3882 6.33455 12.2803 6.6582L12.1143 7.1582C12.0462 7.36237 11.8549 7.49999 11.6396 7.5H11.4355C10.9091 7.5 10.4725 7.9083 10.4375 8.43359L10.3994 9H12C12.6817 9 13.299 9.27342 13.75 9.71582C14.201 9.27342 14.8183 9 15.5 9H15.5713C15.808 9 16 9.19202 16 9.42871V10C16 10.2761 15.7761 10.5 15.5 10.5C14.9477 10.5 14.5 10.9477 14.5 11.5C14.5 12.0523 14.9477 12.5 15.5 12.5C15.7761 12.5 16 12.7239 16 13V13.5713C16 13.808 15.808 14 15.5713 14H15.5C14.8181 14 14.201 13.7259 13.75 13.2832C13.299 13.7259 12.6819 14 12 14H11.9287C11.692 14 11.5 13.808 11.5 13.5713V13C11.5 12.7239 11.7239 12.5 12 12.5C12.5523 12.5 13 12.0523 13 11.5C13 10.9477 12.5523 10.5 12 10.5H10.2998L10.124 13.1328C10.054 14.1834 9.18183 15 8.12891 15H8C7.72386 15 7.5 14.7761 7.5 14.5V14C7.5 13.7239 7.72386 13.5 8 13.5H8.03223C8.29546 13.5 8.51374 13.2959 8.53125 13.0332L8.7002 10.5H8C7.72386 10.5 7.5 10.2761 7.5 10V9.5C7.5 9.22386 7.72386 9 8 9H8.80078L8.84473 8.33398C8.93228 7.02075 10.0227 6.00001 11.3389 6H11.8066Z" fill="#BDA1FF"/>
</svg>
