<svg width="16" height="16" viewBox="0 0 16 16" fill="none" xmlns="http://www.w3.org/2000/svg">
<path opacity="0.8" d="M9 3H11C12.4 3 13.1 3.00007 13.6348 3.27246C14.1052 3.51214 14.4879 3.89483 14.7275 4.36523C14.9919 4.88422 14.9988 5.55887 14.999 6.87793L14.3535 6.23242L14.1699 6.06641C13.9624 5.89634 13.7293 5.76325 13.4814 5.66797C13.4781 5.60163 13.4755 5.53935 13.4707 5.48047C13.4575 5.31847 13.4402 5.21485 13.4248 5.14941L13.3906 5.0459C13.3187 4.90484 13.2148 4.78366 13.0879 4.69141L12.9541 4.60938C12.9334 4.59883 12.8436 4.55578 12.5195 4.5293C12.1779 4.50141 11.7246 4.5 11 4.5H8.37891L6.37891 2.5H4.2002C3.61556 2.5 3.26702 2.50138 3.00879 2.52246C2.88835 2.5323 2.82096 2.54407 2.78809 2.55176L2.77344 2.55469C2.70286 2.59065 2.64185 2.64258 2.5957 2.70605L2.55469 2.77344C2.57139 2.74065 2.54213 2.76805 2.52246 3.00879C2.50138 3.26702 2.5 3.61556 2.5 4.2002V9C2.5 9.72461 2.50141 10.1779 2.5293 10.5195C2.55578 10.8437 2.59883 10.9334 2.60938 10.9541L2.69141 11.0879C2.78366 11.2148 2.90484 11.3187 3.0459 11.3906L3.14941 11.4248C3.21485 11.4402 3.31847 11.4575 3.48047 11.4707C3.76767 11.4942 4.13385 11.4971 4.67383 11.498C4.79839 11.8155 4.98661 12.1077 5.23242 12.3535L5.87891 13H5C3.77477 13 3.08563 13 2.57422 12.8174L2.36523 12.7275C1.95378 12.5179 1.60933 12.199 1.36914 11.8076L1.27246 11.6348C1.00007 11.1 1 10.4 1 9V4.2002C1 3.22019 1.00049 2.66887 1.14648 2.25977L1.21777 2.0918C1.38555 1.76256 1.64085 1.48707 1.9541 1.29492L2.0918 1.21777C2.41263 1.0543 2.80803 1.01315 3.45801 1.00293L4.2002 1H7L9 3Z" fill="#0CB081"/>
<path d="M9.29306 7C9.68343 7.00014 10 7.31663 10.0001 7.70703C10.0001 7.89449 9.92556 8.07444 9.79306 8.20703L7.50009 10.5L9.79306 12.793C9.92556 12.9256 10.0001 13.1055 10.0001 13.293C10 13.6834 9.68343 13.9999 9.29306 14C9.1056 14 8.92565 13.9255 8.79306 13.793L6.38388 11.3838C5.89572 10.8956 5.89572 10.1044 6.38388 9.61621L8.79306 7.20703C8.92565 7.07453 9.1056 7 9.29306 7ZM12.7071 7C12.8946 7.00003 13.0745 7.07445 13.2071 7.20703L15.6163 9.61621C16.1042 10.1043 16.1042 10.8957 15.6163 11.3838L13.2071 13.793C13.0745 13.9255 12.8946 14 12.7071 14C12.3166 14 12.0001 13.6835 12.0001 13.293C12.0001 13.1054 12.0745 12.9256 12.2071 12.793L14.5001 10.5L12.2071 8.20703C12.0745 8.07442 12.0001 7.89457 12.0001 7.70703C12.0001 7.31654 12.3166 7 12.7071 7Z" fill="#7FD2BB"/>
</svg>
