<svg width="16" height="16" viewBox="0 0 16 16" fill="none" xmlns="http://www.w3.org/2000/svg">
<path opacity="0.8" d="M8.99982 3H10.9998C12.3997 3 13.0998 3.00014 13.6346 3.27246C14.105 3.51214 14.4877 3.89483 14.7274 4.36523C14.9998 4.9 14.9998 5.59996 14.9998 7V7.25C14.7246 6.80992 14.4644 6.34639 14.2381 5.88965C13.8302 5.06628 12.9823 4.50031 12.0008 4.5H10.0008C9.01886 4.5 8.1697 5.06597 7.76154 5.88965C7.47154 6.47492 7.12773 7.07272 6.76544 7.61621C6.61498 7.84191 6.50057 8.0949 6.4295 8.36719L6.38165 8.58887L5.81232 12.0068C5.75566 12.3468 5.75859 12.681 5.81232 13H4.99982C3.59984 13 2.8998 13 2.36505 12.7275C1.89465 12.4879 1.51196 12.1052 1.27228 11.6348C0.99992 11.1 0.999817 10.3999 0.999817 9V4.2002C0.999817 3.08009 0.999603 2.51962 1.21759 2.0918C1.4093 1.71556 1.7154 1.40952 2.09161 1.21777C2.51944 0.999786 3.07991 1 4.20001 1H6.99982L8.99982 3Z" fill="#0CB081"/>
<path d="M10.9997 6C11.2257 6 11.4204 5.99982 11.5808 6.01074C11.7456 6.02199 11.911 6.04683 12.0739 6.11426C12.4413 6.26648 12.7332 6.55844 12.8855 6.92578L12.9284 7.04883C12.9644 7.17163 12.9805 7.29534 12.989 7.41895C12.9999 7.57934 12.9997 7.77393 12.9997 8V8.00195C13.2586 8.00698 13.4222 8.02506 13.5622 8.08789C13.7342 8.16508 13.8806 8.28933 13.9851 8.44629C14.1036 8.62449 14.1432 8.86201 14.2224 9.33691L14.5339 11.2051C14.6941 12.1665 14.7746 12.6478 14.6355 13.0225C14.5133 13.3512 14.2795 13.6263 13.9753 13.8008C13.6286 13.9996 13.1413 14 12.1667 14H9.83273C8.85826 14 8.37077 13.9996 8.02413 13.8008C7.72015 13.6263 7.48706 13.351 7.36495 13.0225C7.2258 12.6478 7.3053 12.1665 7.46554 11.2051L7.77706 9.33691C7.85622 8.86199 7.89588 8.6245 8.01437 8.44629C8.11884 8.28919 8.26606 8.16511 8.4382 8.08789C8.57811 8.02518 8.74124 8.00699 8.99972 8.00195V8C8.99972 7.77394 8.99953 7.57934 9.01046 7.41895C9.02171 7.25406 9.04651 7.08871 9.11398 6.92578L9.17745 6.79199C9.34028 6.48787 9.60405 6.24752 9.9255 6.11426L10.0485 6.07129C10.1713 6.03539 10.2951 6.01918 10.4187 6.01074C10.579 5.99981 10.7738 6 10.9997 6ZM10.9997 7C10.7603 7 10.6054 7.00073 10.487 7.00879C10.4305 7.01265 10.3906 7.01713 10.363 7.02246L10.3083 7.03809C10.2167 7.07611 10.1391 7.14047 10.0847 7.22168L10.0378 7.30859C10.0292 7.32944 10.0163 7.37348 10.0085 7.4873C10.0005 7.60574 9.99972 7.76047 9.99972 8H11.9997C11.9997 7.76045 11.999 7.60574 11.9909 7.4873C11.9871 7.43067 11.9826 7.39095 11.9773 7.36328L11.9616 7.30859C11.9109 7.18618 11.8136 7.08882 11.6911 7.03809C11.6702 7.02947 11.626 7.01654 11.5124 7.00879C11.394 7.00075 11.2391 7 10.9997 7Z" fill="#7FD2BB"/>
</svg>
