<svg width="16" height="16" viewBox="0 0 16 16" fill="none" xmlns="http://www.w3.org/2000/svg">
<path opacity="0.8" d="M9 3.00031H11C12.4001 3.00031 13.1 3.00032 13.6348 3.27277C14.1051 3.5124 14.4878 3.89433 14.7275 4.36457C15 4.89935 15 5.60018 15 7.00031V8.43977C14.9235 8.39584 14.8438 8.35145 14.7617 8.30695L14.2021 8.01203L12.0293 6.88313C11.6694 6.69617 11.308 6.50725 10.9971 6.3802C10.7278 6.27021 10.3307 6.13348 9.86523 6.15168L9.66113 6.16926C9.06046 6.25143 8.51343 6.54919 8.11816 7.00129L7.95801 7.20441C7.63607 7.66034 7.55962 8.15559 7.5293 8.48664C7.49872 8.82102 7.5 9.22875 7.5 9.6341V12.1175C7.5 12.423 7.50028 12.7257 7.51074 13.0003H5C3.60013 13.0003 2.89998 13.0002 2.36523 12.7279C1.89485 12.4882 1.51215 12.1055 1.27246 11.6351C0.999997 11.1003 1 10.4002 1 9.00031V4.19953C1 3.07988 0.999899 2.51985 1.21777 2.09211C1.40948 1.71586 1.71557 1.40984 2.0918 1.21809C2.51962 1.0001 3.08009 1.00031 4.2002 1.00031H7L9 3.00031Z" fill="#9B61FF"/>
<path d="M9 9.63418V12.1172C9 13.0582 9 13.5288 9.19699 13.7942C9.3687 14.0256 9.63187 14.1716 9.91905 14.195C10.2485 14.2217 10.6478 13.9728 11.4464 13.475L13.619 12.1206C14.3991 11.6343 14.7891 11.3912 14.9109 11.088C15.017 10.8237 15.0054 10.5266 14.8789 10.2713C14.7338 9.97859 14.3259 9.76671 13.5102 9.34297L11.3376 8.21433C10.5653 7.81315 10.1792 7.61256 9.86456 7.65558C9.5899 7.69312 9.34315 7.843 9.18321 8.06943C9 8.3288 9 8.76393 9 9.63418Z" fill="#BDA1FF"/>
</svg>
