<svg width="16" height="16" viewBox="0 0 16 16" fill="none" xmlns="http://www.w3.org/2000/svg">
<path opacity="0.8" d="M8.99979 2.99966H10.9998C12.3995 2.99966 13.0998 2.99989 13.6346 3.27213C14.1048 3.51175 14.4876 3.89465 14.7273 4.3649C14.8987 4.7013 14.9615 5.10346 14.9851 5.70377C14.6855 5.57854 14.4012 5.53641 14.1785 5.51822C13.9591 5.50032 13.7069 5.49964 13.4715 5.49966C13.471 5.49324 13.471 5.48647 13.4705 5.48013C13.4573 5.31833 13.4399 5.21447 13.4246 5.14908L13.3904 5.04556C13.3185 4.90465 13.2145 4.78324 13.0877 4.69107L12.9539 4.60904C12.9326 4.59823 12.8418 4.55531 12.5193 4.52896C12.1778 4.50109 11.7242 4.49966 10.9998 4.49966H8.37869L6.37869 2.49966H4.19998C3.61548 2.49966 3.26677 2.50105 3.00858 2.52213C2.88826 2.53196 2.82073 2.54374 2.78787 2.55142L2.77322 2.55435C2.7027 2.59029 2.64162 2.6423 2.59549 2.70572L2.55447 2.7731C2.57098 2.74059 2.54188 2.76842 2.52225 3.00845C2.50117 3.26664 2.49979 3.61542 2.49979 4.19986V8.99966C2.49979 9.72403 2.50122 10.1776 2.52908 10.5192C2.55542 10.8415 2.59832 10.9324 2.60916 10.9538L2.69119 11.0876C2.78338 11.2143 2.90476 11.3184 3.04568 11.3903L3.1492 11.4245C3.21461 11.4398 3.3184 11.4571 3.48026 11.4704C3.82182 11.4983 4.27531 11.4997 4.99979 11.4997H5.91385C5.91386 11.7604 5.95445 12.0212 6.03592 12.2721L6.08572 12.4088C6.1815 12.6482 6.30947 12.843 6.43045 12.9997H4.99979C3.77469 12.9997 3.08539 12.9996 2.57401 12.817L2.36502 12.7272C1.9537 12.5176 1.60906 12.1986 1.36893 11.8073L1.27225 11.6344C1.00003 11.0997 0.999786 10.3993 0.999786 8.99966V4.19986C0.999786 3.22006 1.00029 2.66849 1.14627 2.25943L1.21756 2.09146C1.38533 1.76231 1.6407 1.4867 1.95389 1.29459L2.09158 1.21744C2.41238 1.05399 2.80795 1.01282 3.45779 1.00259L4.19998 0.999664H6.99979L8.99979 2.99966Z" fill="#4D72F7"/>
<path d="M13.3995 7C13.9596 7 14.2403 7.00038 14.4542 7.10938C14.6422 7.20523 14.7949 7.35794 14.8908 7.5459C14.9997 7.75976 15.0001 8.03982 15.0001 8.59961V9.83691C15.0001 10.0815 15.0004 10.2042 14.9728 10.3193C14.9483 10.4214 14.9075 10.5189 14.8527 10.6084C14.7908 10.7093 14.7043 10.7958 14.5314 10.9688L11.631 13.8682C11.235 14.2642 11.0371 14.4629 10.8087 14.5371C10.608 14.6023 10.3913 14.6023 10.1906 14.5371C9.96235 14.4628 9.76415 14.264 9.3683 13.8682L8.13099 12.6318C7.73498 12.2358 7.53721 12.0369 7.46302 11.8086C7.39795 11.608 7.39795 11.392 7.46302 11.1914C7.53721 10.9631 7.73498 10.7642 8.13099 10.3682L11.0314 7.46875C11.2043 7.29581 11.2908 7.2093 11.3917 7.14746C11.4812 7.09263 11.5788 7.05184 11.6808 7.02734C11.7958 6.99976 11.918 7 12.1622 7H13.3995ZM12.5001 8.5C11.9478 8.5 11.5001 8.94772 11.5001 9.5C11.5001 10.0523 11.9478 10.5 12.5001 10.5C13.0523 10.4999 13.5001 10.0522 13.5001 9.5C13.5001 8.94777 13.0523 8.50008 12.5001 8.5Z" fill="#94BAFF"/>
</svg>
