<svg width="16" height="16" viewBox="0 0 16 16" fill="none" xmlns="http://www.w3.org/2000/svg">
<path opacity="0.8" d="M9.00031 3H11.0003C12.4002 3 13.1003 3 13.6351 3.27246C14.1054 3.51215 14.4882 3.89485 14.7278 4.36523C15.0002 4.89998 15.0003 5.60013 15.0003 7V8.31738L14.889 8.125C14.6759 7.75611 14.3634 7.45604 13.9886 7.25879L13.8235 7.18066L10.3089 5.68066C9.3274 5.26184 8.19744 5.59208 7.59113 6.44727L7.47687 6.625L4.51788 11.75C4.28537 12.1528 4.17996 12.5799 4.17999 12.9961C3.30306 12.986 2.78298 12.9407 2.36456 12.7275C1.89432 12.4878 1.51239 12.1051 1.27277 11.6348C1.00031 11.1 1.00031 10.4001 1.00031 9V4.2002C1.00031 3.08009 1.00009 2.51962 1.21808 2.0918C1.40983 1.71557 1.71585 1.40948 2.0921 1.21777C2.51985 0.999894 3.07987 1 4.19952 1H7.00031L9.00031 3Z" fill="#0CB081"/>
<path d="M13.25 13.25H15.25L12.9406 9.25L11.616 11.5442M11.616 11.5442L11.0642 12.5C10.7963 12.9641 10.3011 13.25 9.76517 13.25H6.25L9.42543 7.75L11.616 11.5442Z" stroke="#7FD2BB" stroke-width="1.5" stroke-linecap="round" stroke-linejoin="round"/>
</svg>
