<svg width="16" height="16" viewBox="0 0 16 16" fill="none" xmlns="http://www.w3.org/2000/svg">
<g clip-path="url(#clip0_203_695)">
<path opacity="0.8" d="M8.99982 2.99978H10.9998C12.3996 2.99978 13.0999 2.99997 13.6346 3.27224C14.105 3.51191 14.4877 3.89464 14.7274 4.36501C14.7832 4.47466 14.8239 4.59233 14.8592 4.72048C13.2733 3.83434 11.249 4.02201 9.8504 5.28591L9.68927 5.43923L6.18927 8.93923C5.08789 10.0406 4.70495 11.5877 5.03888 12.9998H4.99982C3.59981 12.9998 2.89981 12.9998 2.36505 12.7273C1.89467 12.4876 1.51195 12.1049 1.27228 11.6345C1.00001 11.0998 0.999817 10.3995 0.999817 8.99978V4.19997C0.999817 3.07989 0.999605 2.5194 1.21759 2.09158C1.40932 1.71539 1.71542 1.40927 2.09161 1.21755C2.51944 0.999565 3.07991 0.999779 4.20001 0.999779H6.99982L8.99982 2.99978Z" fill="#30A6F9"/>
<path d="M11.75 13.5L11.25 14C10.1454 15.1046 8.35457 15.1046 7.25 14C6.14543 12.8954 6.14543 11.1046 7.25 10L7.75 9.5C8.02614 9.22386 8.47386 9.22386 8.75 9.5C9.02614 9.77614 9.02614 10.2239 8.75 10.5L8.25 11C7.69772 11.5523 7.69772 12.4477 8.25 13C8.80228 13.5523 9.69771 13.5523 10.25 13L10.75 12.5C11.0261 12.2239 11.4739 12.2239 11.75 12.5C12.0261 12.7761 12.0261 13.2239 11.75 13.5Z" fill="#83C2FE"/>
<path d="M10.25 7L10.75 6.5C11.8546 5.39543 13.6454 5.39543 14.75 6.5C15.8546 7.60457 15.8546 9.39543 14.75 10.5L14.25 11C13.9739 11.2761 13.5261 11.2761 13.25 11C12.9739 10.7239 12.9739 10.2761 13.25 10L13.75 9.5C14.3023 8.94772 14.3023 8.05228 13.75 7.5C13.1977 6.94772 12.3023 6.94771 11.75 7.5L11.25 8C10.9739 8.27614 10.5261 8.27614 10.25 8C9.97386 7.72386 9.97386 7.27614 10.25 7Z" fill="#83C2FE"/>
<path d="M12.25 10L10.75 11.5C10.4739 11.7761 10.0261 11.7761 9.75 11.5C9.47386 11.2239 9.47386 10.7761 9.75 10.5L11.25 9C11.5261 8.72386 11.9739 8.72386 12.25 9C12.5261 9.27614 12.5261 9.72386 12.25 10Z" fill="#83C2FE"/>
</g>
<defs>
<clipPath id="clip0_203_695">
<rect width="16" height="16" fill="white"/>
</clipPath>
</defs>
</svg>
