<svg width="16" height="16" viewBox="0 0 16 16" fill="none" xmlns="http://www.w3.org/2000/svg">
<path opacity="0.8" d="M9.00046 3H11.0005C12.4001 3 13.1005 3.0001 13.6352 3.27246C14.1055 3.51216 14.4884 3.89495 14.728 4.36523C15.0003 4.89997 15.0005 5.60019 15.0005 7V8.31738L14.312 7.125C14.1127 6.77985 13.8294 6.50069 13.4966 6.30664C13.4938 5.95908 13.4889 5.69725 13.4712 5.48047C13.4579 5.31856 13.4406 5.21486 13.4253 5.14941L13.3911 5.0459C13.3192 4.90495 13.2151 4.78363 13.0883 4.69141L12.9546 4.60938C12.9339 4.59884 12.8437 4.55578 12.52 4.5293C12.1785 4.50141 11.7248 4.5 11.0005 4.5H8.37936L6.37936 2.5H4.20065C3.61637 2.5 3.26743 2.50141 3.00925 2.52246C2.88935 2.53226 2.82158 2.54407 2.78854 2.55176L2.7739 2.55469C2.7034 2.59061 2.64229 2.64268 2.59616 2.70605L2.55515 2.77344C2.57164 2.74095 2.54255 2.76855 2.52292 3.00879C2.50184 3.26702 2.50046 3.61556 2.50046 4.2002V9C2.50046 9.72461 2.50187 10.1779 2.52975 10.5195C2.55624 10.8436 2.59929 10.9334 2.60983 10.9541L2.69186 11.0879C2.78409 11.2147 2.90538 11.3187 3.04636 11.3906L3.14987 11.4248C3.21534 11.4401 3.31929 11.4575 3.48093 11.4707C3.54125 11.4756 3.60514 11.478 3.67331 11.4814L3.30222 12.125C3.15736 12.3759 3.06529 12.648 3.02487 12.9258C2.858 12.8997 2.71001 12.8657 2.57468 12.8174L2.36569 12.7275C1.95431 12.5179 1.60979 12.1989 1.3696 11.8076L1.27292 11.6348C1.00052 11.1 1.00046 10.4 1.00046 9V4.2002C1.00046 3.22019 1.00095 2.66887 1.14694 2.25977L1.21823 2.0918C1.38601 1.76265 1.64137 1.48703 1.95456 1.29492L2.09225 1.21777C2.41302 1.05446 2.80874 1.01315 3.45847 1.00293L4.20065 1H7.00046L9.00046 3Z" fill="#0CB081"/>
<path d="M12.25 13.25L15.25 13.25L12.3633 8.25001L10.8633 10.8481M10.8633 10.8481L10.0539 12.25C9.69659 12.8688 9.03633 13.25 8.3218 13.25H5.25L8.75 7.18784L10.8633 10.8481Z" stroke="#7FD2BB" stroke-width="1.5" stroke-linecap="round" stroke-linejoin="round"/>
</svg>
