<svg width="16" height="16" viewBox="0 0 16 16" fill="none" xmlns="http://www.w3.org/2000/svg">
<path opacity="0.8" d="M9 3.00032H11C12.4001 3.00032 13.1 3.00032 13.6348 3.27279C14.1051 3.51241 14.4878 3.89433 14.7275 4.36458C14.9676 4.83581 14.9937 5.43583 14.9971 6.52962C14.9881 6.52444 14.9798 6.51811 14.9707 6.51302L12.4707 5.10677C11.5575 4.59307 10.4425 4.59307 9.5293 5.10677L7.0293 6.51302C6.08484 7.04434 5.50011 8.04363 5.5 9.12728V11.8734C5.50008 12.2664 5.57854 12.6478 5.72168 13.0003H5C3.60014 13.0003 2.89997 13.0002 2.36523 12.7279C1.89486 12.4882 1.51215 12.1055 1.27246 11.6351C0.999998 11.1004 1 10.4002 1 9.00032V4.19954C1 3.07989 0.999901 2.51987 1.21777 2.09212C1.40948 1.71587 1.71557 1.40985 2.0918 1.2181C2.51962 1.00011 3.08009 1.00032 4.2002 1.00032H7L9 3.00032Z" fill="#FF9B20"/>
<path d="M10.2646 6.41349C10.7212 6.15677 11.2788 6.15677 11.7354 6.41349L12.9434 7.0922C12.6843 7.09178 12.4246 7.15691 12.1914 7.29142L9.25 8.98966C8.786 9.25756 8.50012 9.75273 8.5 10.2885V11.1342C8.50002 11.3127 8.5954 11.4775 8.75 11.5668L9.125 11.7836C9.29167 11.8798 9.5 11.7593 9.5 11.5668V10.5678C9.50008 10.2158 9.68514 9.88982 9.9873 9.70939L12.9502 7.94181C13.3446 7.7065 13.8213 7.66744 14.2441 7.8256C14.7111 8.09253 15 8.58893 15 9.12736V11.8725C15 12.4144 14.7076 12.9144 14.2354 13.1801L11.7354 14.5863C11.2787 14.8432 10.7213 14.8432 10.2646 14.5863L7.76465 13.1801C7.29235 12.9144 7 12.4144 7 11.8725V9.12736C7.00003 8.58548 7.29235 8.08541 7.76465 7.81974L10.2646 6.41349Z" fill="#FFC076"/>
</svg>
