<svg width="16" height="16" viewBox="0 0 16 16" fill="none" xmlns="http://www.w3.org/2000/svg">
<path opacity="0.8" d="M9 3H11C12.4 3 13.1 3.00007 13.6348 3.27246C14.1052 3.51214 14.4879 3.89483 14.7275 4.36523C14.8818 4.66813 14.9466 5.02416 14.9756 5.53027C14.3424 4.89486 13.4682 4.5 12.5 4.5H9.5C7.83054 4.5 6.43538 5.66939 6.08594 7.2334C6.01279 7.56026 5.82172 7.85192 5.58496 8.08887C5.22383 8.45029 5 8.94859 5 9.5V10.5C5 11.0512 5.22392 11.549 5.58496 11.9102C5.82177 12.1471 6.01287 12.4387 6.08594 12.7656C6.1036 12.8448 6.12552 12.923 6.14844 13H5C3.60002 13 2.89999 12.9999 2.36523 12.7275C1.89483 12.4879 1.51214 12.1052 1.27246 11.6348C1.00007 11.1 1 10.4 1 9V4.2002C1 3.08009 0.999786 2.51962 1.21777 2.0918C1.40951 1.71554 1.71554 1.40951 2.0918 1.21777C2.51962 0.999786 3.08009 1 4.2002 1H7L9 3Z" fill="#0CB081"/>
<path d="M9.5 6C9.77614 6 10 6.22386 10 6.5V7C10 7.24171 9.82855 7.44371 9.60059 7.49023L9.39941 7.50977C9.17145 7.55629 9 7.75829 9 8V8.52832C8.99993 8.8385 8.92771 9.14441 8.78906 9.42188L8.5 10L8.78906 10.5781C8.92771 10.8556 8.99993 11.1615 9 11.4717V12C9 12.2417 9.17145 12.4437 9.39941 12.4902L9.60059 12.5098C9.82855 12.5563 10 12.7583 10 13V13.5C10 13.7761 9.77614 14 9.5 14C8.39543 14 7.5 13.1046 7.5 12V11.5C7.5 11.2583 7.32855 11.0563 7.10059 11.0098L6.89941 10.9902C6.67145 10.9437 6.5 10.7417 6.5 10.5V9.5C6.5 9.25829 6.67145 9.05629 6.89941 9.00977L7.10059 8.99023C7.32855 8.94371 7.5 8.74171 7.5 8.5V8C7.5 6.89543 8.39543 6 9.5 6ZM12.5 6C13.6046 6 14.5 6.89543 14.5 8V8.5C14.5 8.74171 14.6714 8.94371 14.8994 8.99023L15.1006 9.00977C15.3286 9.05629 15.5 9.25829 15.5 9.5V10.5C15.5 10.7417 15.3286 10.9437 15.1006 10.9902L14.8994 11.0098C14.6714 11.0563 14.5 11.2583 14.5 11.5V12C14.5 13.1046 13.6046 14 12.5 14C12.2239 14 12 13.7761 12 13.5V13C12 12.7583 12.1714 12.5563 12.3994 12.5098L12.6006 12.4902C12.8286 12.4437 13 12.2417 13 12V11.4717C13.0001 11.1615 13.0723 10.8556 13.2109 10.5781L13.5 10L13.2109 9.42188C13.0723 9.14441 13.0001 8.8385 13 8.52832V8C13 7.75829 12.8286 7.55629 12.6006 7.50977L12.3994 7.49023C12.1714 7.44371 12 7.24171 12 7V6.5C12 6.22386 12.2239 6 12.5 6Z" fill="#7FD2BB"/>
</svg>
