<svg width="16" height="16" viewBox="0 0 16 16" fill="none" xmlns="http://www.w3.org/2000/svg">
<path opacity="0.8" d="M9.00021 3H11.0002C12.4002 3 13.1002 2.99999 13.635 3.27246C14.1054 3.51214 14.4881 3.89483 14.7278 4.36523C14.9668 4.83469 14.9937 5.43163 14.9973 6.51758L14.9289 6.42676C14.4561 5.84259 13.7424 5.50007 12.9856 5.5H9.26486C8.50796 5.5 7.79437 5.8426 7.3215 6.42676L7.23068 6.54688L5.44455 9.04688C4.82375 9.91608 4.82375 11.0839 5.44455 11.9531L6.1926 13H5.00021C3.60039 13 2.90018 12.9998 2.36545 12.7275C1.89504 12.4879 1.51236 12.1052 1.27267 11.6348C1.00024 11.1 1.00021 10.4001 1.00021 9V4.2002C1.00021 3.08009 1 2.51962 1.21799 2.0918C1.40974 1.71555 1.71575 1.40949 2.09201 1.21777C2.51982 0.999829 3.08038 1 4.20041 1H7.00021L9.00021 3Z" fill="#FF519C"/>
<path d="M8.79422 7.10829C9.02222 6.80429 9.47833 6.80429 9.70633 7.10829L11.8001 9.90029C12.0665 10.2558 12.0667 10.745 11.8001 11.1005L9.70633 13.8925C9.47842 14.1962 9.02231 14.196 8.79422 13.8925L6.69949 11.1005C6.43292 10.7451 6.43311 10.2558 6.69949 9.90029L8.79422 7.10829ZM10.7942 7.10829C11.0223 6.80449 11.4784 6.80436 11.7063 7.10829L13.8001 9.90029C14.0664 10.2557 14.0664 10.7441 13.8001 11.0995L11.7063 13.8915C11.4784 14.1955 11.0223 14.1954 10.7942 13.8915L10.7503 13.8319L12.8001 11.0995C13.0664 10.7441 13.0664 10.2557 12.8001 9.90029L10.7503 7.16689L10.7942 7.10829ZM12.7932 7.10829C13.0212 6.80436 13.4773 6.80448 13.7054 7.10829L15.7991 9.90029C16.0657 10.2558 16.0657 10.745 15.7991 11.1005L13.7054 13.8925C13.4772 14.1959 13.0211 14.1962 12.7932 13.8925L12.7493 13.8329L14.7991 11.1005C15.0657 10.745 15.0657 10.2558 14.7991 9.90029L12.7493 7.16689L12.7932 7.10829Z" fill="#FF8CC7"/>
</svg>
