<svg width="16" height="16" viewBox="0 0 16 16" fill="none" xmlns="http://www.w3.org/2000/svg">
<path opacity="0.8" d="M9 3H11C12.4 3 13.1 3.00007 13.6348 3.27246C14.1052 3.51214 14.4879 3.89483 14.7275 4.36523C14.9746 4.85023 14.9959 5.47118 14.998 6.62695L14.3535 5.98242L14.1699 5.81641C13.7251 5.45195 13.166 5.25004 12.5859 5.25H9.41406C8.83397 5.25004 8.2749 5.45195 7.83008 5.81641L7.64648 5.98242L5.23242 8.39648C4.76362 8.86529 4.50004 9.50108 4.5 10.1641V10.3359C4.50004 10.9989 4.76362 11.6347 5.23242 12.1035L6.12891 13H5C3.60002 13 2.89999 12.9999 2.36523 12.7275C1.89483 12.4879 1.51214 12.1052 1.27246 11.6348C1.00007 11.1 1 10.4 1 9V4.2002C1 3.08009 0.999786 2.51962 1.21777 2.0918C1.40951 1.71554 1.71554 1.40951 2.0918 1.21777C2.51962 0.999786 3.08009 1 4.2002 1H7L9 3Z" fill="#0CB081"/>
<path d="M9.29528 6.75C9.68566 6.75014 10.0023 7.06663 10.0023 7.45703C10.0023 7.64449 9.92779 7.82444 9.79528 7.95703L7.50232 10.25L9.79528 12.543C9.92779 12.6756 10.0023 12.8555 10.0023 13.043C10.0023 13.4334 9.68566 13.7499 9.29528 13.75C9.10783 13.75 8.92788 13.6755 8.79528 13.543L6.38611 11.1338C5.89795 10.6456 5.89795 9.85437 6.38611 9.36621L8.79528 6.95703C8.92788 6.82453 9.10783 6.75 9.29528 6.75ZM12.7093 6.75C12.8968 6.75003 13.0768 6.82445 13.2093 6.95703L15.6185 9.36621C16.1064 9.85432 16.1064 10.6457 15.6185 11.1338L13.2093 13.543C13.0768 13.6755 12.8968 13.75 12.7093 13.75C12.3188 13.75 12.0024 13.4335 12.0023 13.043C12.0023 12.8554 12.0767 12.6756 12.2093 12.543L14.5023 10.25L12.2093 7.95703C12.0767 7.82442 12.0023 7.64457 12.0023 7.45703C12.0024 7.06654 12.3188 6.75 12.7093 6.75Z" fill="#7FD2BB"/>
</svg>
