<svg width="16" height="16" viewBox="0 0 16 16" fill="none" xmlns="http://www.w3.org/2000/svg">
<path opacity="0.8" d="M9.00031 3.0004H11.0003C12.4002 3.0004 13.1003 3.0004 13.6351 3.27287C14.1053 3.51253 14.4882 3.8944 14.7278 4.36466C15.0003 4.89944 15.0003 5.60027 15.0003 7.0004V8.08341L13.9466 6.43497C12.7275 4.5272 9.98991 4.4675 8.67609 6.25626L8.55402 6.43497L5.90753 10.5776C5.41215 11.353 5.30133 12.216 5.48077 13.0004H5.00031C3.60017 13.0004 2.89934 13.0004 2.36456 12.7279C1.89434 12.4883 1.51243 12.1054 1.27277 11.6352C1.00031 11.1004 1.00031 10.4003 1.00031 9.0004V4.19962C1.00031 3.07986 1.00017 2.51996 1.21808 2.0922C1.40982 1.71588 1.71578 1.40992 2.0921 1.21818C2.51987 1.00022 3.07974 1.0004 4.19952 1.0004H7.00031L9.00031 3.0004Z" fill="#30A6F9"/>
<path d="M8.75 10.5C9.7165 10.5 10.5 11.2835 10.5 12.25C10.5 13.2165 9.7165 14 8.75 14C7.7835 14 7 13.2165 7 12.25C7 11.2835 7.7835 10.5 8.75 10.5ZM13.75 10.5C14.7165 10.5 15.5 11.2835 15.5 12.25C15.5 13.2165 14.7165 14 13.75 14C12.7835 14 12 13.2165 12 12.25C12 11.2835 12.7835 10.5 13.75 10.5ZM11.25 6.5C12.2165 6.5 13 7.2835 13 8.25C13 9.2165 12.2165 10 11.25 10C10.2835 10 9.5 9.2165 9.5 8.25C9.5 7.2835 10.2835 6.5 11.25 6.5Z" fill="#83C2FE"/>
</svg>
