<svg width="16" height="16" viewBox="0 0 16 16" fill="none" xmlns="http://www.w3.org/2000/svg">
<path opacity="0.8" d="M8.99997 2.99998H11C12.3999 2.99998 13.1 3.00007 13.6347 3.27245C14.1051 3.51212 14.4878 3.89483 14.7275 4.36522C14.8007 4.50888 14.8524 4.66488 14.8916 4.84276C14.8818 4.83763 14.8721 4.83216 14.8623 4.82713C14.4552 4.6197 14.0499 4.55339 13.707 4.52538C13.3817 4.49882 12.9947 4.49998 12.5996 4.49998H8.37888L6.37888 2.49998H4.20016C3.61555 2.49998 3.26698 2.50136 3.00876 2.52245C2.88835 2.53229 2.82093 2.54406 2.78806 2.55174L2.77341 2.55467C2.70283 2.59064 2.64182 2.64257 2.59567 2.70604L2.55466 2.77342C2.57136 2.74063 2.5421 2.76804 2.52243 3.00877C2.50135 3.267 2.49997 3.61555 2.49997 4.20018V8.99998C2.49997 9.72458 2.50138 10.1779 2.52927 10.5195C2.55574 10.8435 2.59878 10.9333 2.60934 10.9541L2.69138 11.0879C2.78362 11.2147 2.90482 11.3187 3.04587 11.3906L3.14938 11.4248C3.21482 11.4401 3.31846 11.4575 3.48044 11.4707C3.82203 11.4986 4.27538 11.5 4.99997 11.5H6.99997V13H4.99997C3.77476 13 3.0856 13 2.57419 12.8174L2.3652 12.7275C1.95376 12.5179 1.6093 12.199 1.36911 11.8076L1.27243 11.6348C1.00005 11.1 0.999969 10.3999 0.999969 8.99998V4.20018C0.999969 3.22018 1.00046 2.66886 1.14645 2.25975L1.21774 2.09178C1.38551 1.76255 1.64083 1.48705 1.95407 1.29491L2.09177 1.21776C2.41259 1.05429 2.80802 1.01314 3.45798 1.00291L4.20016 0.999985H6.99997L8.99997 2.99998Z" fill="#30A6F9"/>
<path d="M8.5 8.4C8.5 7.55992 8.5 7.13988 8.66349 6.81901C8.8073 6.53677 9.03677 6.3073 9.31901 6.16349C9.63988 6 10.0599 6 10.9 6H12.6C13.4401 6 13.8601 6 14.181 6.16349C14.4632 6.3073 14.6927 6.53677 14.8365 6.81901C15 7.13988 15 7.55992 15 8.4V13.0683C15 13.5361 15 13.77 14.902 13.9025C14.8166 14.018 14.6856 14.0912 14.5425 14.1034C14.3783 14.1174 14.1791 13.9948 13.7807 13.7497L12.1693 12.758C12.017 12.6643 11.9409 12.6175 11.8594 12.5992C11.7874 12.583 11.7126 12.583 11.6406 12.5992C11.5591 12.6175 11.483 12.6643 11.3307 12.758L9.71928 13.7497C9.3209 13.9948 9.1217 14.1174 8.95751 14.1034C8.81437 14.0912 8.6834 14.018 8.59798 13.9025C8.5 13.77 8.5 13.5361 8.5 13.0683V8.4Z" fill="#83C2FE"/>
</svg>
