<svg width="16" height="16" viewBox="0 0 16 16" fill="none" xmlns="http://www.w3.org/2000/svg">
<path opacity="0.8" d="M9 3.00037H11C12.4 3.00037 13.1 3.00043 13.6348 3.27283C14.1051 3.51252 14.4879 3.89524 14.7275 4.3656C14.8671 4.63965 14.9336 4.95718 14.9668 5.39001L14.8779 5.35291L13.0449 4.66541L12.9541 4.60974C12.9398 4.60246 12.8924 4.58011 12.7578 4.55798L11.8779 4.22791L11.6631 4.15759C11.2292 4.03824 10.7708 4.03824 10.3369 4.15759L10.1221 4.22791L9.39551 4.50037H8.37891L6.37891 2.50037H4.2002C3.61556 2.50037 3.26702 2.50174 3.00879 2.52283C2.88837 2.53267 2.82096 2.54444 2.78809 2.55212L2.77344 2.55505C2.70292 2.59101 2.64182 2.64299 2.5957 2.70642L2.55469 2.7738C2.57139 2.74101 2.54213 2.76841 2.52246 3.00916C2.50141 3.26735 2.5 3.6162 2.5 4.20056V9.00037C2.5 9.72476 2.50141 10.1784 2.5293 10.5199C2.55578 10.8437 2.59884 10.9338 2.60938 10.9545L2.69141 11.0883C2.78364 11.215 2.90493 11.3191 3.0459 11.391L3.14941 11.4252C3.21486 11.4405 3.31854 11.4578 3.48047 11.4711C3.82206 11.499 4.27541 11.5004 5 11.5004H5.74902C5.89825 12.0269 6.11289 12.5303 6.38672 13.0004H5C3.77486 13.0004 3.08562 13.0003 2.57422 12.8177L2.36523 12.7279C1.95387 12.5183 1.60933 12.1993 1.36914 11.808L1.27246 11.6351C1.00009 11.1004 1 10.4001 1 9.00037V4.20056C1 3.22081 1.0006 2.66921 1.14648 2.26013L1.21777 2.09216C1.38552 1.76298 1.64092 1.48743 1.9541 1.29529L2.0918 1.21814C2.41263 1.05467 2.80804 1.01352 3.45801 1.0033L4.2002 1.00037H7L9 3.00037Z" fill="#FF4466"/>
<path d="M10.4736 5.69705C10.813 5.56992 11.187 5.56992 11.5264 5.69705L14.3516 6.75662C14.7417 6.90308 15 7.27643 15 7.69314V9.7283C15 11.0276 14.4945 12.2572 13.6201 13.1756L13.6211 13.1746C13.4075 13.3991 13.1725 13.6058 12.917 13.7898C12.8304 13.852 12.7415 13.9116 12.6504 13.9685L11.5303 14.6687C11.206 14.8714 10.794 14.8714 10.4697 14.6687L9.34961 13.9685C9.24023 13.9002 9.13505 13.8266 9.03223 13.7508C8.79654 13.5762 8.57814 13.3831 8.37891 13.1736V13.1756C7.50485 12.2572 7 11.0273 7 9.7283V7.69314C7 7.27643 7.25834 6.90308 7.64844 6.75662L10.4736 5.69705ZM10.4551 10.9998C9.70357 10.9998 9.05908 11.3959 8.69434 11.9773C9.00178 12.4295 9.40172 12.8219 9.87988 13.1209L10.7354 13.6551L10.7979 13.6883C10.9478 13.7545 11.123 13.7434 11.2646 13.6551L12.1201 13.1209L12.334 12.9773C12.7188 12.7009 13.0462 12.3613 13.3066 11.9783C12.9421 11.3965 12.2976 11 11.5459 10.9998H10.4551ZM11.001 7.49978C10.1727 7.49978 9.50117 8.17152 9.50098 8.99978C9.50106 9.82813 10.1726 10.4998 11.001 10.4998C11.8289 10.4993 12.5009 9.82781 12.501 8.99978C12.5008 8.17185 11.8288 7.50031 11.001 7.49978Z" fill="#FF8197"/>
</svg>
