<svg width="16" height="16" viewBox="0 0 16 16" fill="none" xmlns="http://www.w3.org/2000/svg">
<path opacity="0.8" d="M9.00021 2.99966H11.0002C12.4001 2.99966 13.1002 2.99975 13.635 3.27213C14.1053 3.51178 14.4881 3.89459 14.7278 4.3649C14.8991 4.7013 14.962 5.10346 14.9856 5.70377C14.6859 5.57848 14.4017 5.53643 14.1789 5.51822C13.9595 5.50031 13.7073 5.49964 13.4719 5.49966C13.4714 5.49323 13.4714 5.48648 13.4709 5.48013C13.4577 5.31831 13.4404 5.21448 13.425 5.14908L13.3908 5.04556C13.3189 4.90458 13.2149 4.78328 13.0881 4.69107L12.9543 4.60904C12.9336 4.5985 12.8437 4.55544 12.5197 4.52896C12.1782 4.50108 11.7247 4.49966 11.0002 4.49966H8.37912L6.37912 2.49966H4.20041C3.61595 2.49966 3.26721 2.50106 3.009 2.52213C2.8889 2.53194 2.82127 2.54373 2.7883 2.55142L2.77365 2.55435C2.70319 2.59026 2.64204 2.64239 2.59592 2.70572L2.5549 2.7731C2.57121 2.74088 2.54227 2.76889 2.52267 3.00845C2.5016 3.26664 2.50021 3.61542 2.50021 4.19986V8.99966C2.50021 9.72405 2.50165 10.1776 2.52951 10.5192C2.55592 10.8424 2.59889 10.9327 2.60959 10.9538L2.69162 11.0876C2.78387 11.2144 2.90505 11.3184 3.04611 11.3903L3.14963 11.4245C3.21507 11.4398 3.31879 11.4571 3.48068 11.4704C3.82226 11.4982 4.27574 11.4997 5.00021 11.4997H5.91428C5.91428 11.7604 5.95486 12.0212 6.03635 12.2721L6.08615 12.4088C6.18197 12.6483 6.3099 12.843 6.43088 12.9997H5.00021C3.77505 12.9997 3.08584 12.9996 2.57443 12.817L2.36545 12.7272C1.95399 12.5176 1.60955 12.1987 1.36935 11.8073L1.27267 11.6344C1.00037 11.0997 1.00021 10.3995 1.00021 8.99966V4.19986C1.00021 3.22006 1.00072 2.66849 1.1467 2.25943L1.21799 2.09146C1.38576 1.76238 1.64117 1.48666 1.95432 1.29459L2.09201 1.21744C2.41279 1.05409 2.80845 1.01281 3.45822 1.00259L4.20041 0.999664H7.00021L9.00021 2.99966Z" fill="#4D72F7"/>
<path d="M13.3995 7C13.9596 7 14.2403 7.00038 14.4542 7.10938C14.6422 7.20523 14.7949 7.35794 14.8908 7.5459C14.9997 7.75976 15.0001 8.03982 15.0001 8.59961V9.83691C15.0001 10.0815 15.0004 10.2042 14.9728 10.3193C14.9483 10.4214 14.9075 10.5189 14.8527 10.6084C14.7908 10.7093 14.7043 10.7958 14.5314 10.9688L11.631 13.8682C11.235 14.2642 11.0371 14.4629 10.8087 14.5371C10.608 14.6023 10.3913 14.6023 10.1906 14.5371C9.96235 14.4628 9.76415 14.264 9.3683 13.8682L8.13099 12.6318C7.73498 12.2358 7.53721 12.0369 7.46302 11.8086C7.39795 11.608 7.39795 11.392 7.46302 11.1914C7.53721 10.9631 7.73498 10.7642 8.13099 10.3682L11.0314 7.46875C11.2043 7.29581 11.2908 7.2093 11.3917 7.14746C11.4812 7.09263 11.5788 7.05184 11.6808 7.02734C11.7958 6.99976 11.918 7 12.1622 7H13.3995ZM12.5001 8.5C11.9478 8.5 11.5001 8.94772 11.5001 9.5C11.5001 10.0523 11.9478 10.5 12.5001 10.5C13.0523 10.4999 13.5001 10.0522 13.5001 9.5C13.5001 8.94777 13.0523 8.50008 12.5001 8.5Z" fill="#94BAFF"/>
</svg>
