<svg width="16" height="16" viewBox="0 0 16 16" fill="none" xmlns="http://www.w3.org/2000/svg">
<g clip-path="url(#clip0_203_915)">
<path opacity="0.8" d="M9 3H11C12.4 3 13.1 3.00007 13.6348 3.27246C14.1052 3.51214 14.4879 3.89483 14.7275 4.36523C14.9999 4.89999 15 5.60002 15 7V8.86816C14.7206 8.69121 14.4159 8.55785 14.0947 8.47754L13.5 8.32812V7C13.5 6.27539 13.4986 5.82206 13.4707 5.48047C13.4575 5.31847 13.4402 5.21485 13.4248 5.14941L13.3906 5.0459C13.3187 4.90484 13.2148 4.78366 13.0879 4.69141L12.9541 4.60938C12.9334 4.59883 12.8436 4.55578 12.5195 4.5293C12.1779 4.50141 11.7246 4.5 11 4.5H8.37891L6.37891 2.5H4.2002C3.61556 2.5 3.26702 2.50138 3.00879 2.52246C2.88835 2.5323 2.82096 2.54407 2.78809 2.55176L2.77344 2.55469C2.70286 2.59065 2.64185 2.64258 2.5957 2.70605L2.55469 2.77344C2.57139 2.74065 2.54213 2.76805 2.52246 3.00879C2.50138 3.26702 2.5 3.61556 2.5 4.2002V9C2.5 9.72461 2.50141 10.1779 2.5293 10.5195C2.55578 10.8437 2.59883 10.9334 2.60938 10.9541L2.69141 11.0879C2.78366 11.2148 2.90484 11.3187 3.0459 11.3906L3.14941 11.4248C3.21485 11.4402 3.31847 11.4575 3.48047 11.4707C3.82206 11.4986 4.27539 11.5 5 11.5H5.11719C5.38728 11.7744 5.73098 11.9791 6.12305 12.0771L6.2666 12.123C6.59094 12.2536 6.83689 12.5331 6.92188 12.873L6.94824 12.9756L6.95508 13H5C3.77477 13 3.08563 13 2.57422 12.8174L2.36523 12.7275C1.95378 12.5179 1.60933 12.199 1.36914 11.8076L1.27246 11.6348C1.00007 11.1 1 10.4 1 9V4.2002C1 3.22019 1.00049 2.66887 1.14648 2.25977L1.21777 2.0918C1.38555 1.76256 1.64085 1.48707 1.9541 1.29492L2.0918 1.21777C2.41263 1.0543 2.80803 1.01315 3.45801 1.00293L4.2002 1H7L9 3Z" fill="#FF9B20"/>
<path d="M8.48418 7.39398C8.66137 6.91514 9.33863 6.91514 9.51582 7.39398L9.9926 8.68245C10.0483 8.833 10.167 8.9517 10.3175 9.0074L11.606 9.48418C12.0849 9.66137 12.0849 10.3386 11.606 10.5158L10.3175 10.9926C10.167 11.0483 10.0483 11.167 9.9926 11.3175L9.51582 12.606C9.33863 13.0849 8.66137 13.0849 8.48418 12.606L8.0074 11.3175C7.9517 11.167 7.833 11.0483 7.68245 10.9926L6.39398 10.5158C5.91514 10.3386 5.91514 9.66137 6.39398 9.48418L7.68245 9.0074C7.833 8.9517 7.9517 8.833 8.0074 8.68245L8.48418 7.39398Z" fill="#FFC076"/>
<path d="M13.0725 10.2998C13.2082 9.88724 13.7918 9.88724 13.9275 10.2998L14.1715 11.0417C14.2161 11.1774 14.3226 11.2839 14.4583 11.3285L15.2002 11.5725C15.6128 11.7082 15.6128 12.2918 15.2002 12.4275L14.4583 12.6715C14.3226 12.7161 14.2161 12.8226 14.1715 12.9583L13.9275 13.7002C13.7918 14.1128 13.2082 14.1128 13.0725 13.7002L12.8285 12.9583C12.7839 12.8226 12.6774 12.7161 12.5417 12.6715L11.7998 12.4275C11.3872 12.2918 11.3872 11.7082 11.7998 11.5725L12.5417 11.3285C12.6774 11.2839 12.7839 11.1774 12.8285 11.0417L13.0725 10.2998Z" fill="#FFC076"/>
</g>
<defs>
<clipPath id="clip0_203_915">
<rect width="16" height="16" fill="white"/>
</clipPath>
</defs>
</svg>
