<svg width="16" height="16" viewBox="0 0 16 16" fill="none" xmlns="http://www.w3.org/2000/svg">
<path opacity="0.7" d="M8.99988 2.99989H10.9999C12.3997 2.99989 13.0999 3.00002 13.6346 3.27235C14.105 3.51201 14.4877 3.89478 14.7274 4.36512C14.9166 4.73645 14.9724 5.18763 14.9901 5.89735C14.691 5.79332 14.3331 5.69813 13.9686 5.60047L13.4686 5.46571C13.4556 5.31218 13.4396 5.21272 13.4247 5.1493L13.3905 5.04578C13.3186 4.90478 13.2146 4.78351 13.0878 4.69129L12.954 4.60926C12.933 4.5986 12.8428 4.55561 12.5194 4.52918C12.1778 4.5013 11.7244 4.49989 10.9999 4.49989H9.7323C9.41238 4.44623 9.035 4.41562 8.62488 4.49989H8.37878L6.37878 2.49989H4.20007C3.61551 2.49989 3.26688 2.50127 3.00867 2.52235C2.8883 2.53218 2.82083 2.54396 2.78796 2.55164L2.77332 2.55457C2.70276 2.59053 2.64172 2.64249 2.59558 2.70594L2.55457 2.77332C2.57122 2.74061 2.542 2.76814 2.52234 3.00867C2.50126 3.26689 2.49988 3.61551 2.49988 4.20008V8.99989C2.49988 9.72441 2.5013 10.1778 2.52917 10.5194C2.5556 10.8428 2.59859 10.933 2.60925 10.954L2.69128 11.0878C2.7835 11.2146 2.90478 11.3186 3.04578 11.3905L3.14929 11.4247C3.21471 11.44 3.31842 11.4574 3.48035 11.4706C3.82192 11.4985 4.27534 11.4999 4.99988 11.4999H5.05164C5.03697 11.5675 5.02323 11.6333 5.0116 11.6972C4.94995 12.0355 4.90889 12.4438 5.00378 12.8905C5.01163 12.9274 5.0229 12.9634 5.0321 12.9999H4.99988C3.77472 12.9999 3.0855 12.9999 2.5741 12.8173L2.36511 12.7274C1.95372 12.5178 1.60918 12.1989 1.36902 11.8075L1.27234 11.6347C1.00002 11.0999 0.999878 10.3997 0.999878 8.99989V4.20008C0.999878 3.22014 1.00037 2.66874 1.14636 2.25965L1.21765 2.09168C1.38542 1.76248 1.64076 1.48694 1.95398 1.29481L2.09167 1.21766C2.41249 1.0542 2.80798 1.01304 3.45789 1.00282L4.20007 0.999886H6.99988L8.99988 2.99989Z" fill="#7E7E92"/>
<path d="M13.5804 7.04928C14.3915 7.26662 14.7977 7.37527 15.0653 7.61602C15.3008 7.82798 15.4635 8.10991 15.5294 8.41976C15.6041 8.7719 15.495 9.17805 15.2777 9.98915L14.4497 13.0794C14.2324 13.8905 14.1237 14.2967 13.883 14.5643C13.671 14.7997 13.3891 14.9625 13.0792 15.0284C12.7271 15.103 12.3209 14.994 11.5098 14.7767L8.41962 13.9487C7.60852 13.7313 7.20227 13.6227 6.93464 13.3819C6.69924 13.17 6.53647 12.888 6.47061 12.5782C6.39593 12.2261 6.50495 11.8199 6.72228 11.0088L7.5503 7.9186C7.76764 7.1075 7.87629 6.70125 8.11704 6.43363C8.329 6.19822 8.61093 6.03545 8.92078 5.96959C9.27292 5.89491 9.67907 6.00393 10.4902 6.22127L13.5804 7.04928ZM10.3576 9.03275C10.241 9.00151 10.1214 9.05793 10.0693 9.16174L10.0514 9.20953L9.53377 11.1414C9.49804 11.2747 9.57718 11.4118 9.71055 11.4476L11.6424 11.9652C11.7758 12.0009 11.9128 11.9218 11.9486 11.7884L12.4662 9.85658C12.4975 9.74 12.441 9.62033 12.3372 9.56825L12.2894 9.55039L10.3576 9.03275Z" fill="#BEBED1"/>
</svg>
