<svg width="16" height="16" viewBox="0 0 16 16" fill="none" xmlns="http://www.w3.org/2000/svg">
<path opacity="0.8" d="M9 3H11C12.4 3 13.1 3.00007 13.6348 3.27246C14.1052 3.51214 14.4879 3.89483 14.7275 4.36523C14.7652 4.43923 14.7962 4.51689 14.8242 4.59863C14.5598 4.5348 14.284 4.5 14 4.5H13.8281C13.4197 4.50004 13.0185 4.572 12.6416 4.70801C11.9249 4.96653 11.075 4.96582 10.3584 4.70703C10.0348 4.59016 9.69333 4.52116 9.34473 4.50391L9.17188 4.5H9C7.067 4.5 5.5 6.067 5.5 8V8.17188L5.50391 8.34473C5.52116 8.69333 5.59016 9.03479 5.70703 9.3584C5.96582 10.075 5.96653 10.9249 5.70801 11.6416C5.572 12.0185 5.50004 12.4197 5.5 12.8281V13H5C3.60002 13 2.89999 12.9999 2.36523 12.7275C1.89483 12.4879 1.51214 12.1052 1.27246 11.6348C1.00007 11.1 1 10.4 1 9V4.2002C1 3.08009 0.999786 2.51962 1.21777 2.0918C1.40951 1.71554 1.71554 1.40951 2.0918 1.21777C2.51962 0.999786 3.08009 1 4.2002 1H7L9 3Z" fill="#4D72F7"/>
<path d="M14.125 6C15.1605 6 16 6.83947 16 7.875C16 8.91053 15.1605 9.75 14.125 9.75H13.5V11.25H14.125C15.1605 11.25 16 12.0895 16 13.125C16 14.1605 15.1605 15 14.125 15C13.0895 15 12.25 14.1605 12.25 13.125V12.5H10.75V13.125C10.75 14.1605 9.91053 15 8.875 15C7.83947 15 7 14.1605 7 13.125C7 12.0895 7.83947 11.25 8.875 11.25H9.5V9.75H8.875C7.83947 9.75 7 8.91053 7 7.875C7 6.83947 7.83947 6 8.875 6C9.91053 6 10.75 6.83947 10.75 7.875V8.5H12.25V7.875C12.25 6.83947 13.0895 6 14.125 6ZM8.875 12.5C8.52982 12.5 8.25 12.7798 8.25 13.125C8.25 13.4702 8.52982 13.75 8.875 13.75C9.22018 13.75 9.5 13.4702 9.5 13.125V12.5H8.875ZM13.5 13.125C13.5 13.4702 13.7798 13.75 14.125 13.75C14.4702 13.75 14.75 13.4702 14.75 13.125C14.75 12.7798 14.4702 12.5 14.125 12.5H13.5V13.125ZM10.75 9.75V11.25H12.25V9.75H10.75ZM8.875 7.25C8.52982 7.25 8.25 7.52982 8.25 7.875C8.25 8.22018 8.52982 8.5 8.875 8.5H9.5V7.875C9.5 7.52982 9.22018 7.25 8.875 7.25ZM14.125 7.25C13.7798 7.25 13.5 7.52982 13.5 7.875V8.5H14.125C14.4702 8.5 14.75 8.22018 14.75 7.875C14.75 7.52982 14.4702 7.25 14.125 7.25Z" fill="#94BAFF"/>
</svg>
