<svg width="16" height="16" viewBox="0 0 16 16" fill="none" xmlns="http://www.w3.org/2000/svg">
<path opacity="0.8" d="M9 3H11C12.4 3 13.1 3.00007 13.6348 3.27246C14.1052 3.51214 14.4879 3.89483 14.7275 4.36523C14.9999 4.89999 15 5.60002 15 7V7.88672C14.7262 7.74759 14.4353 7.63488 14.1299 7.55273L13.9355 7.50488L13.1758 7.33594C12.7732 7.24647 12.4178 7.01551 12.1729 6.68848L12.0752 6.54199L11.9229 6.28906L11.8379 6.15723C10.949 4.87882 9.0384 4.89076 8.16504 6.17969L8.08105 6.31348L5.8623 10.1162C5.26587 11.1387 5.57904 12.3391 6.38867 13H5C3.60002 13 2.89999 12.9999 2.36523 12.7275C1.89483 12.4879 1.51214 12.1052 1.27246 11.6348C1.00007 11.1 1 10.4 1 9V4.2002C1 3.08009 0.999786 2.51962 1.21777 2.0918C1.40951 1.71554 1.71554 1.40951 2.0918 1.21777C2.51962 0.999786 3.08009 1 4.2002 1H7L9 3Z" fill="#FF9B20"/>
<path d="M9.35048 7.125C9.63916 6.625 10.3608 6.625 10.6495 7.125L12.8146 10.875C13.1033 11.375 12.7424 12 12.1651 12H7.83494C7.25759 12 6.89674 11.375 7.18542 10.875L9.35048 7.125Z" fill="#FFC076"/>
<path d="M13 9C14.6569 9 16 10.3431 16 12C16 13.6569 14.6569 15 13 15C11.6941 15 10.5859 14.1647 10.1738 13H12.165C13.4701 13 14.3009 11.6315 13.7393 10.4854L13.6807 10.375L12.8877 9.00293C12.925 9.00156 12.9624 9 13 9ZM12.8525 11.5508L12.8145 11.625C12.8299 11.5982 12.8436 11.5705 12.8555 11.542L12.8525 11.5508Z" fill="#FFC076"/>
</svg>
