<svg width="16" height="16" viewBox="0 0 16 16" fill="none" xmlns="http://www.w3.org/2000/svg">
<path opacity="0.8" d="M9.00006 2.99959H11.0001C12.3999 2.99959 13.1001 2.99972 13.6348 3.27205C14.1051 3.51168 14.4879 3.89455 14.7276 4.36482C14.8621 4.6288 14.9294 4.93352 14.9639 5.34236L14.7676 5.14607L14.5753 4.97127C13.8724 4.39584 12.9849 4.29345 12.2139 4.51228C11.9122 4.50108 11.5282 4.49959 11.0001 4.49959H8.37897L6.37897 2.49959H4.20026C3.6157 2.49959 3.26707 2.50097 3.00885 2.52205C2.88861 2.53187 2.82108 2.54366 2.78815 2.55135L2.7735 2.55428C2.70303 2.59018 2.64189 2.6423 2.59576 2.70564L2.55475 2.77303C2.57105 2.74081 2.54212 2.76889 2.52252 3.00838C2.50144 3.26655 2.50006 3.61539 2.50006 4.19978V8.99959C2.50006 9.72391 2.5015 10.1776 2.52936 10.5191C2.55572 10.8417 2.59864 10.9324 2.60944 10.9537L2.69147 11.0875C2.78369 11.2143 2.90495 11.3183 3.04596 11.3902L3.14948 11.4244C3.21491 11.4397 3.31853 11.4571 3.48053 11.4703C3.82212 11.4982 4.27548 11.4996 5.00006 11.4996H5.74811L5.54791 12.6021C5.52382 12.7346 5.51712 12.8679 5.5235 12.9996H5.00006C3.77483 12.9996 3.08569 12.9996 2.57428 12.817L2.3653 12.7271C1.95389 12.5175 1.60937 12.1986 1.3692 11.8072L1.27252 11.6344C1.00028 11.0996 1.00006 10.3993 1.00006 8.99959V4.19978C1.00006 3.22003 1.00057 2.66841 1.14655 2.25935L1.21783 2.09138C1.38561 1.76231 1.64102 1.48659 1.95416 1.29451L2.09186 1.21736C2.41265 1.05398 2.80824 1.01274 3.45807 1.00252L4.20026 0.999588H7.00006L9.00006 2.99959Z" fill="#FD7334"/>
<path d="M12.2345 6.14144C12.6814 5.81688 13.3166 5.81658 13.7071 6.20711L14.7929 7.29289C15.1834 7.68342 15.1831 8.31861 14.8586 8.76546C14.1588 9.7289 13.5 11.0578 13.5 12V12.1654C13.5 12.6487 13.1544 13.0628 12.6789 13.1493L8.78741 13.8568C8.54627 13.9007 8.3926 13.6074 8.56591 13.4341L10.5 11.5C11.064 11.5 11.5 11.064 11.5 10.5C11.5 9.93596 11.064 9.5 10.5 9.5C9.93596 9.5 9.5 9.93596 9.5 10.5L7.56591 12.4341C7.3926 12.6074 7.09932 12.4537 7.14317 12.2126L7.85071 8.32111C7.93716 7.84562 8.35129 7.5 8.83458 7.5H9C9.94224 7.5 11.2711 6.84123 12.2345 6.14144Z" fill="#FFA366"/>
</svg>
