<svg width="16" height="16" viewBox="0 0 16 16" fill="none" xmlns="http://www.w3.org/2000/svg">
<path opacity="0.7" d="M9 3.00018H11C12.4 3.00018 13.1 3.00024 13.6348 3.27264C14.1051 3.51232 14.4879 3.89503 14.7275 4.36541C14.9794 4.85989 14.9966 5.49567 14.998 6.69549C14.9129 6.4919 14.7937 6.30461 14.6328 6.15154C14.2771 5.81338 13.8786 5.51846 13.4473 5.27459C13.4396 5.22238 13.4323 5.18143 13.4248 5.14959L13.3906 5.04607C13.3187 4.90504 13.2147 4.78382 13.0879 4.69158L12.9541 4.60955C12.9334 4.59901 12.8436 4.55595 12.5195 4.52947C12.1779 4.50158 11.7246 4.50018 11 4.50018H8.37891L6.37891 2.50018H4.2002C3.61556 2.50018 3.26702 2.50155 3.00879 2.52264C2.88836 2.53248 2.82096 2.54425 2.78809 2.55193L2.77344 2.55486C2.70289 2.59083 2.64184 2.64277 2.5957 2.70623L2.55469 2.77361C2.57139 2.74082 2.54213 2.76822 2.52246 3.00896C2.50139 3.26718 2.5 3.61586 2.5 4.20037V9.00018C2.5 9.72468 2.50141 10.1781 2.5293 10.5197C2.55578 10.8437 2.59884 10.9336 2.60938 10.9543L2.69141 11.0881C2.78365 11.2149 2.90488 11.3189 3.0459 11.3908L3.14941 11.425C3.21486 11.4403 3.3185 11.4576 3.48047 11.4709C3.75162 11.493 4.0932 11.4969 4.58496 11.4982C4.60793 11.6345 4.63404 11.7695 4.66602 11.9025C4.74359 12.2252 4.93121 12.508 5.17285 12.7355L5.28809 12.8439C5.34029 12.8931 5.38822 12.9461 5.43457 13.0002H5C3.77481 13.0002 3.08563 13.0001 2.57422 12.8176L2.36523 12.7277C1.95382 12.5181 1.60933 12.1992 1.36914 11.8078L1.27246 11.6349C1.00008 11.1002 1 10.4 1 9.00018V4.20037C1 3.22049 1.00054 2.66903 1.14648 2.25994L1.21777 2.09197C1.38553 1.76276 1.64088 1.48724 1.9541 1.2951L2.0918 1.21795C2.41263 1.05448 2.80803 1.01333 3.45801 1.00311L4.2002 1.00018H7L9 3.00018Z" fill="#7E7E92"/>
<path d="M11.4984 6.43564C11.6604 6.29797 11.8753 6.21063 12.0745 6.28502C12.5465 6.4613 12.9807 6.71436 13.3623 7.02935C13.5263 7.16472 13.5582 7.39443 13.5201 7.60362C13.3889 8.32425 13.8289 9.08575 14.5188 9.33223C14.7193 9.40386 14.9025 9.54656 14.9378 9.75651C14.9784 9.99845 15 10.2469 15 10.5003C15 10.7534 14.9784 11.0014 14.9378 11.243C14.9025 11.453 14.7192 11.5957 14.5187 11.6674C13.829 11.9139 13.3891 12.6755 13.5202 13.3961C13.5582 13.6052 13.5263 13.8348 13.3624 13.9702C12.9811 14.2851 12.5472 14.5381 12.0756 14.7144C11.8764 14.7889 11.6614 14.7015 11.4993 14.5639C10.9403 14.0891 10.0587 14.0889 9.49984 14.5636C9.33764 14.7014 9.12256 14.7889 8.92323 14.7143C8.45173 14.538 8.01784 14.285 7.63663 13.9702C7.4727 13.8349 7.44083 13.6052 7.47896 13.3961C7.6104 12.6752 7.17068 11.9135 6.4806 11.6672C6.27995 11.5956 6.0965 11.4529 6.06145 11.2427C6.02115 11.0012 6.00002 10.7532 6 10.5003C6 10.2471 6.02113 9.99869 6.06146 9.75684C6.0965 9.54671 6.27993 9.40396 6.48057 9.33239C7.17077 9.08618 7.61061 8.32451 7.47907 7.60363C7.44089 7.39443 7.47275 7.16468 7.63674 7.0293C8.01822 6.71439 8.45247 6.46145 8.92431 6.28515C9.1236 6.21069 9.33859 6.29811 9.50072 6.43586C10.0593 6.91047 10.9397 6.91026 11.4984 6.43564ZM10.5 9.00028C9.67157 9.00028 9 9.67186 9 10.5003C9.00015 11.3286 9.67167 12.0003 10.5 12.0003C11.3283 12.0003 11.9998 11.3286 12 10.5003C12 9.67186 11.3284 9.00028 10.5 9.00028Z" fill="#BEBED1"/>
</svg>
