<svg width="16" height="16" viewBox="0 0 16 16" fill="none" xmlns="http://www.w3.org/2000/svg">
<g clip-path="url(#clip0_203_1025)">
<path opacity="0.8" d="M8.99973 2.99973H10.9997C12.3994 2.99973 13.0998 2.99996 13.6345 3.27219C14.1048 3.51181 14.4876 3.89471 14.7273 4.36496C14.9916 4.88391 14.9985 5.55878 14.9987 6.87766L14.7634 6.6423C14.5806 6.45949 14.35 6.21907 14.0691 6.02316L13.946 5.94211L13.74 5.82687C13.6567 5.78448 13.5709 5.74726 13.4841 5.71262C13.4803 5.6293 13.4763 5.55211 13.4704 5.48019C13.4572 5.31837 13.4399 5.21454 13.4245 5.14914L13.3904 5.04562C13.3184 4.90471 13.2144 4.78331 13.0876 4.69113L12.9538 4.6091C12.9325 4.59828 12.8417 4.55536 12.5193 4.52902C12.1777 4.50116 11.7241 4.49973 10.9997 4.49973H8.37863L6.37863 2.49973H4.19992C3.61545 2.49973 3.26671 2.50111 3.00851 2.52219C2.88824 2.53202 2.82066 2.5438 2.78781 2.55148L2.77316 2.55441C2.70264 2.59036 2.64155 2.64236 2.59543 2.70578L2.55441 2.77316C2.57099 2.74055 2.54183 2.76827 2.52219 3.00851C2.50111 3.26671 2.49973 3.61545 2.49973 4.19992V8.99973C2.49973 9.72412 2.50116 10.1777 2.52902 10.5193C2.55536 10.8417 2.59828 10.9325 2.6091 10.9538L2.69113 11.0876C2.78331 11.2144 2.90471 11.3184 3.04562 11.3904L3.14914 11.4245C3.21454 11.4399 3.31837 11.4572 3.48019 11.4704C3.82175 11.4983 4.27528 11.4997 4.99973 11.4997H6.50656C6.51553 11.6855 6.53577 11.8831 6.58273 12.0788L6.64621 12.3054C6.71899 12.5294 6.81877 12.7447 6.94211 12.946L6.97726 12.9997H4.99973C3.77467 12.9997 3.08532 12.9997 2.57394 12.8171L2.36496 12.7273C1.95365 12.5176 1.60899 12.1987 1.36887 11.8073L1.27219 11.6345C0.999962 11.0998 0.999725 10.3994 0.999725 8.99973V4.19992C0.999725 3.22009 1.00023 2.66856 1.14621 2.25949L1.2175 2.09152C1.38526 1.76236 1.64064 1.48677 1.95383 1.29465L2.09152 1.2175C2.41231 1.05405 2.80792 1.01289 3.45773 1.00266L4.19992 0.999725H6.99973L8.99973 2.99973Z" fill="#4D72F7"/>
<path d="M12.1562 7.00293C12.6436 7.01059 12.9401 7.04064 13.1807 7.16309C13.4629 7.3069 13.6931 7.53709 13.8369 7.81934C13.9721 8.08486 13.9931 8.4187 13.9971 9.00195L14.1562 9.00293C14.6436 9.01059 14.9401 9.04064 15.1807 9.16309C15.4629 9.3069 15.6931 9.53709 15.8369 9.81934C16.0002 10.1402 16 10.5607 16 11.4004V12.5996L15.9971 13.1562C15.9894 13.6436 15.9594 13.9401 15.8369 14.1807L15.7783 14.2842C15.6342 14.5191 15.4276 14.7111 15.1807 14.8369L15.0557 14.8906C14.8364 14.9689 14.5627 14.9907 14.1562 14.9971L13.5996 15H12.4004L11.8438 14.9971C11.4373 14.9907 11.1636 14.9689 10.9443 14.8906L10.8193 14.8369C10.5724 14.7111 10.3658 14.5191 10.2217 14.2842L10.1631 14.1807C10.0406 13.9401 10.0106 13.6436 10.0029 13.1562L10.002 12.9971H9.84375C9.43727 12.9907 9.16355 12.9689 8.94434 12.8906L8.81934 12.8369C8.57239 12.7111 8.3658 12.5191 8.22168 12.2842L8.16309 12.1807C8.04064 11.9401 8.01059 11.6436 8.00293 11.1562L8 10.5996V9.40039C8 8.66516 7.99978 8.2512 8.10938 7.94434L8.16309 7.81934C8.28891 7.57239 8.48088 7.3658 8.71582 7.22168L8.81934 7.16309C9.05992 7.04064 9.35641 7.01059 9.84375 7.00293L10.4004 7H11.5996L12.1562 7.00293ZM14 10.5996L13.9971 11.1562C13.9894 11.6436 13.9594 11.9401 13.8369 12.1807L13.7783 12.2842C13.6342 12.5191 13.4276 12.7111 13.1807 12.8369L13.0557 12.8906C12.8364 12.9689 12.5627 12.9907 12.1562 12.9971L11.5996 13H11.002C11.0035 13.2152 11.007 13.3739 11.0176 13.5039C11.0252 13.5969 11.0339 13.6533 11.042 13.6875C11.0458 13.7035 11.0498 13.7133 11.0518 13.7188C11.0534 13.7232 11.0543 13.7258 11.0547 13.7266L11.0957 13.7939C11.1419 13.8574 11.2029 13.9093 11.2734 13.9453L11.2812 13.9482C11.2867 13.9502 11.2965 13.9542 11.3125 13.958C11.3467 13.9661 11.4031 13.9748 11.4961 13.9824C11.6961 13.9988 11.9639 14 12.4004 14H13.5996C14.0361 14 14.3039 13.9988 14.5039 13.9824C14.5969 13.9748 14.6533 13.9661 14.6875 13.958C14.7035 13.9542 14.7133 13.9502 14.7188 13.9482C14.7232 13.9466 14.7258 13.9457 14.7266 13.9453L14.7939 13.9043C14.8574 13.8581 14.9093 13.7971 14.9453 13.7266L14.9482 13.7188C14.9502 13.7133 14.9542 13.7035 14.958 13.6875C14.9661 13.6533 14.9748 13.5969 14.9824 13.5039C14.9988 13.3039 15 13.0361 15 12.5996V11.4004C15 10.9639 14.9988 10.6961 14.9824 10.4961C14.9748 10.4031 14.9661 10.3467 14.958 10.3125C14.9542 10.2965 14.9502 10.2867 14.9482 10.2812L14.9453 10.2734C14.9093 10.2029 14.8574 10.1419 14.7939 10.0957L14.7266 10.0547C14.7258 10.0543 14.7232 10.0534 14.7188 10.0518C14.7133 10.0498 14.7035 10.0458 14.6875 10.042C14.6533 10.0339 14.5969 10.0252 14.5039 10.0176C14.3739 10.007 14.2152 10.0035 14 10.002V10.5996ZM10.4004 8C9.96385 8 9.69606 8.00124 9.49609 8.01758C9.40312 8.02518 9.34671 8.03394 9.3125 8.04199C9.29649 8.04576 9.28673 8.04982 9.28125 8.05176L9.27344 8.05469C9.20286 8.09065 9.14185 8.14258 9.0957 8.20605L9.05469 8.27344C9.0543 8.27423 9.05336 8.27677 9.05176 8.28125C9.04982 8.28673 9.04576 8.29649 9.04199 8.3125C9.03394 8.34671 9.02518 8.40312 9.01758 8.49609C9.00124 8.69606 9 8.96385 9 9.40039V10.5996C9 11.0361 9.00124 11.3039 9.01758 11.5039C9.02518 11.5969 9.03394 11.6533 9.04199 11.6875C9.04576 11.7035 9.04982 11.7133 9.05176 11.7188C9.05336 11.7232 9.0543 11.7258 9.05469 11.7266L9.0957 11.7939C9.14185 11.8574 9.20286 11.9093 9.27344 11.9453L9.28125 11.9482C9.28673 11.9502 9.29649 11.9542 9.3125 11.958C9.34671 11.9661 9.40312 11.9748 9.49609 11.9824C9.69606 11.9988 9.96385 12 10.4004 12H11.5996C12.0361 12 12.3039 11.9988 12.5039 11.9824C12.5969 11.9748 12.6533 11.9661 12.6875 11.958C12.7035 11.9542 12.7133 11.9502 12.7188 11.9482C12.7232 11.9466 12.7258 11.9457 12.7266 11.9453L12.7939 11.9043C12.8574 11.8581 12.9093 11.7971 12.9453 11.7266L12.9482 11.7188C12.9502 11.7133 12.9542 11.7035 12.958 11.6875C12.9661 11.6533 12.9748 11.5969 12.9824 11.5039C12.9988 11.3039 13 11.0361 13 10.5996V9.40039C13 8.96385 12.9988 8.69606 12.9824 8.49609C12.9748 8.40312 12.9661 8.34671 12.958 8.3125C12.9542 8.29649 12.9502 8.28673 12.9482 8.28125L12.9453 8.27344C12.9093 8.20286 12.8574 8.14185 12.7939 8.0957L12.7266 8.05469C12.7258 8.0543 12.7232 8.05336 12.7188 8.05176C12.7133 8.04982 12.7035 8.04576 12.6875 8.04199C12.6533 8.03394 12.5969 8.02518 12.5039 8.01758C12.3039 8.00124 12.0361 8 11.5996 8H10.4004Z" fill="#94BAFF"/>
</g>
<defs>
<clipPath id="clip0_203_1025">
<rect width="16" height="16" fill="white"/>
</clipPath>
</defs>
</svg>
