<svg width="16" height="16" viewBox="0 0 16 16" fill="none" xmlns="http://www.w3.org/2000/svg">
<g clip-path="url(#clip0_203_695)">
<path opacity="0.8" d="M8.99982 2.99978H10.9998C12.3996 2.99978 13.0999 2.99997 13.6346 3.27224C14.1049 3.51188 14.4877 3.89472 14.7274 4.36501C14.7832 4.4746 14.8239 4.59241 14.8592 4.72048C13.6992 4.07227 12.3045 3.99758 11.0916 4.49978H8.37872L6.37872 2.49978H4.20001C3.61549 2.49978 3.26681 2.50116 3.00861 2.52224C2.88828 2.53208 2.82076 2.54385 2.7879 2.55154L2.77325 2.55447C2.70272 2.59042 2.64165 2.6424 2.59552 2.70583L2.5545 2.77322C2.5711 2.74059 2.54193 2.76825 2.52228 3.00857C2.5012 3.26677 2.49982 3.61547 2.49982 4.19997V8.99978C2.49982 9.72422 2.50124 10.1777 2.52911 10.5193C2.55549 10.8421 2.59843 10.9327 2.60919 10.9539L2.69122 11.0877C2.78342 11.2145 2.90476 11.3185 3.04572 11.3904L3.14923 11.4246C3.21464 11.4399 3.3184 11.4572 3.48029 11.4705C3.81411 11.4977 4.25484 11.4987 4.95099 11.4988C4.89302 11.9992 4.92249 12.5076 5.03888 12.9998H4.99982C3.7747 12.9998 3.08542 12.9997 2.57404 12.8172L2.36505 12.7273C1.9537 12.5177 1.6091 12.1987 1.36896 11.8074L1.27228 11.6345C1.00001 11.0998 0.999817 10.3995 0.999817 8.99978V4.19997C0.999817 3.2201 1.00032 2.66862 1.1463 2.25954L1.21759 2.09158C1.38536 1.7624 1.64072 1.48683 1.95392 1.2947L2.09161 1.21755C2.41241 1.0541 2.80796 1.01294 3.45782 1.00271L4.20001 0.999779H6.99982L8.99982 2.99978Z" fill="#30A6F9"/>
<path d="M11.75 13.5L11.25 14C10.1454 15.1046 8.35457 15.1046 7.25 14C6.14543 12.8954 6.14543 11.1046 7.25 10L7.75 9.5C8.02614 9.22386 8.47386 9.22386 8.75 9.5C9.02614 9.77614 9.02614 10.2239 8.75 10.5L8.25 11C7.69772 11.5523 7.69772 12.4477 8.25 13C8.80228 13.5523 9.69771 13.5523 10.25 13L10.75 12.5C11.0261 12.2239 11.4739 12.2239 11.75 12.5C12.0261 12.7761 12.0261 13.2239 11.75 13.5Z" fill="#83C2FE"/>
<path d="M10.25 7L10.75 6.5C11.8546 5.39543 13.6454 5.39543 14.75 6.5C15.8546 7.60457 15.8546 9.39543 14.75 10.5L14.25 11C13.9739 11.2761 13.5261 11.2761 13.25 11C12.9739 10.7239 12.9739 10.2761 13.25 10L13.75 9.5C14.3023 8.94772 14.3023 8.05228 13.75 7.5C13.1977 6.94772 12.3023 6.94771 11.75 7.5L11.25 8C10.9739 8.27614 10.5261 8.27614 10.25 8C9.97386 7.72386 9.97386 7.27614 10.25 7Z" fill="#83C2FE"/>
<path d="M12.25 10L10.75 11.5C10.4739 11.7761 10.0261 11.7761 9.75 11.5C9.47386 11.2239 9.47386 10.7761 9.75 10.5L11.25 9C11.5261 8.72386 11.9739 8.72386 12.25 9C12.5261 9.27614 12.5261 9.72386 12.25 10Z" fill="#83C2FE"/>
</g>
<defs>
<clipPath id="clip0_203_695">
<rect width="16" height="16" fill="white"/>
</clipPath>
</defs>
</svg>
