<svg width="16" height="16" viewBox="0 0 16 16" fill="none" xmlns="http://www.w3.org/2000/svg">
<path opacity="0.8" d="M9 3H11C12.4 3 13.1 3.00007 13.6348 3.27246C14.1052 3.51214 14.4879 3.89483 14.7275 4.36523C14.9442 4.79052 14.987 5.32034 14.9961 6.22363C13.9935 5.16304 12.5747 4.5 11 4.5C7.96243 4.5 5.5 6.96243 5.5 10C5.5 11.1072 5.82867 12.137 6.3916 13H5C3.60002 13 2.89999 12.9999 2.36523 12.7275C1.89483 12.4879 1.51214 12.1052 1.27246 11.6348C1.00007 11.1 1 10.4 1 9V4.2002C1 3.08009 0.999786 2.51962 1.21777 2.0918C1.40951 1.71554 1.71554 1.40951 2.0918 1.21777C2.51962 0.999786 3.08009 1 4.2002 1H7L9 3Z" fill="#FF4466"/>
<path d="M11 6C13.2091 6 15 7.79086 15 10C15 12.2091 13.2091 14 11 14C8.79086 14 7 12.2091 7 10C7 7.79086 8.79086 6 11 6ZM12.8535 8.14648C12.6583 7.95122 12.3417 7.95122 12.1465 8.14648L11 9.29297L9.85352 8.14648L9.77539 8.08203C9.58131 7.95387 9.31735 7.97562 9.14648 8.14648C8.97562 8.31735 8.95387 8.58131 9.08203 8.77539L9.14648 8.85352L10.293 10L9.14648 11.1465C8.95122 11.3417 8.95122 11.6583 9.14648 11.8535C9.34175 12.0488 9.65825 12.0488 9.85352 11.8535L11 10.707L12.1465 11.8535L12.2246 11.918C12.4187 12.0461 12.6827 12.0244 12.8535 11.8535C13.0244 11.6827 13.0461 11.4187 12.918 11.2246L12.8535 11.1465L11.707 10L12.8535 8.85352C13.0488 8.65825 13.0488 8.34175 12.8535 8.14648Z" fill="#FF8197"/>
</svg>
