<svg width="16" height="16" viewBox="0 0 16 16" fill="none" xmlns="http://www.w3.org/2000/svg">
<path opacity="0.7" d="M9.00046 3.00046H11.0005C12.4001 3.00046 13.1005 3.00055 13.6352 3.27292C14.1054 3.51262 14.4884 3.89547 14.728 4.36569C14.917 4.73701 14.973 5.18821 14.9907 5.89792C14.6913 5.79373 14.3332 5.69786 13.9682 5.60007L13.4692 5.46628C13.4562 5.31283 13.4401 5.2134 13.4253 5.14987L13.3911 5.04635C13.3193 4.90548 13.215 4.78407 13.0883 4.69186L12.9546 4.60983C12.9339 4.5993 12.8437 4.55624 12.52 4.52975C12.1785 4.50187 11.7248 4.50046 11.0005 4.50046H9.73874C9.41585 4.44582 9.03395 4.41407 8.61862 4.50046H8.37936L6.37936 2.50046H4.20065C3.61633 2.50046 3.26744 2.50187 3.00925 2.52292C2.88921 2.53272 2.82154 2.54453 2.78854 2.55221L2.7739 2.55514C2.70331 2.59111 2.64231 2.64303 2.59616 2.70651L2.55515 2.77389C2.57185 2.7411 2.54259 2.7685 2.52292 3.00924C2.50187 3.26744 2.50046 3.61633 2.50046 4.20065V9.00046C2.50046 9.7248 2.50187 10.1785 2.52975 10.52C2.55624 10.8437 2.5993 10.9339 2.60983 10.9546L2.69186 11.0883C2.78407 11.215 2.90549 11.3193 3.04636 11.3911L3.14987 11.4253C3.21534 11.4406 3.31937 11.458 3.48093 11.4712C3.82247 11.499 4.2762 11.5005 5.00046 11.5005H5.05124C5.03665 11.5678 5.02278 11.6332 5.0112 11.6967C4.94951 12.0352 4.90838 12.4441 5.00339 12.8911C5.01124 12.928 5.0225 12.964 5.03171 13.0005H5.00046C3.77566 13.0005 3.08604 13.0002 2.57468 12.8178L2.36569 12.728C1.95442 12.5184 1.60978 12.1992 1.3696 11.8081L1.27292 11.6352C1.00055 11.1005 1.00046 10.4001 1.00046 9.00046V4.20065C1.00046 3.22085 1.00104 2.6693 1.14694 2.26022L1.21823 2.09225C1.38601 1.76302 1.64131 1.48752 1.95456 1.29538L2.09225 1.21823C2.41305 1.05483 2.80861 1.01361 3.45847 1.00339L4.20065 1.00046H7.00046L9.00046 3.00046Z" fill="#7E7E92"/>
<path d="M13.5804 7.04928C14.3915 7.26662 14.7977 7.37527 15.0653 7.61602C15.3008 7.82798 15.4635 8.10991 15.5294 8.41976C15.6041 8.7719 15.495 9.17805 15.2777 9.98915L14.4497 13.0794C14.2324 13.8905 14.1237 14.2967 13.883 14.5643C13.671 14.7997 13.3891 14.9625 13.0792 15.0284C12.7271 15.103 12.3209 14.994 11.5098 14.7767L8.41962 13.9487C7.60852 13.7313 7.20227 13.6227 6.93464 13.3819C6.69924 13.17 6.53647 12.888 6.47061 12.5782C6.39593 12.2261 6.50495 11.8199 6.72228 11.0088L7.5503 7.9186C7.76764 7.1075 7.87629 6.70125 8.11704 6.43363C8.329 6.19822 8.61093 6.03545 8.92078 5.96959C9.27292 5.89491 9.67907 6.00393 10.4902 6.22127L13.5804 7.04928ZM10.3576 9.03275C10.241 9.00151 10.1214 9.05793 10.0693 9.16174L10.0514 9.20953L9.53377 11.1414C9.49804 11.2747 9.57718 11.4118 9.71055 11.4476L11.6424 11.9652C11.7758 12.0009 11.9128 11.9218 11.9486 11.7884L12.4662 9.85658C12.4975 9.74 12.441 9.62033 12.3372 9.56825L12.2894 9.55039L10.3576 9.03275Z" fill="#BEBED1"/>
</svg>
