<svg width="16" height="16" viewBox="0 0 16 16" fill="none" xmlns="http://www.w3.org/2000/svg">
<path opacity="0.8" d="M9 2.99968H11C12.3999 2.99968 13.1 2.99981 13.6348 3.27214C14.1051 3.51181 14.4879 3.89454 14.7275 4.36491C14.8672 4.63893 14.9336 4.95658 14.9668 5.38933L14.8779 5.35222L11.8779 4.22722L11.6631 4.15691C11.2292 4.03758 10.7708 4.03758 10.3369 4.15691L10.1221 4.22722L7.12207 5.35222C6.14654 5.71815 5.50013 6.65113 5.5 7.69304V9.7282C5.5 10.8969 5.81674 12.0213 6.38672 12.9997H5C3.59991 12.9997 2.90001 12.9997 2.36523 12.7272C1.89494 12.4876 1.51216 12.1057 1.27246 11.6354C0.999977 11.1006 1 10.3998 1 8.99968V4.19987C1 3.08023 1.00002 2.52021 1.21777 2.09245C1.40946 1.71625 1.71564 1.41019 2.0918 1.21843C2.51962 1.00044 3.08009 0.99968 4.2002 0.99968H7L9 2.99968Z" fill="#30A6F9"/>
<path d="M10.4736 5.69717C10.813 5.57002 11.187 5.57002 11.5264 5.69717L14.3516 6.75674C14.7416 6.90321 15 7.27656 15 7.69326V9.72842C15 11.4522 14.1121 13.0549 12.6504 13.9687L11.5303 14.6688C11.206 14.8715 10.794 14.8715 10.4697 14.6688L9.34961 13.9687C7.8879 13.0549 7 11.4522 7 9.72842V7.69326C7 7.27656 7.25836 6.90321 7.64844 6.75674L10.4736 5.69717ZM11 7.9999C10.1716 7.9999 9.50005 8.67152 9.5 9.4999C9.5 10.1527 9.91782 10.7059 10.5 10.912V11.9999C10.5 12.276 10.7239 12.4999 11 12.4999C11.2761 12.4999 11.5 12.276 11.5 11.9999V10.912C12.0822 10.7059 12.5 10.1527 12.5 9.4999C12.4999 8.67152 11.8284 7.9999 11 7.9999Z" fill="#83C2FE"/>
</svg>
