<svg width="16" height="16" viewBox="0 0 16 16" fill="none" xmlns="http://www.w3.org/2000/svg">
<path opacity="0.8" d="M9 3H11C12.4 3 13.1 3.00007 13.6348 3.27246C14.1052 3.51214 14.4879 3.89483 14.7275 4.36523C14.9559 4.81345 14.9911 5.37778 14.9971 6.37305L13.4336 5.20117C13.4299 5.18187 13.4283 5.16444 13.4248 5.14941L13.3906 5.0459C13.3187 4.90484 13.2148 4.78366 13.0879 4.69141L12.9541 4.60938C12.9334 4.59883 12.8436 4.55578 12.5195 4.5293C12.3145 4.51255 12.0691 4.50601 11.749 4.50293C11.7214 4.50202 11.6937 4.5 11.666 4.5H11.2998C11.2894 4.5 11.279 4.50089 11.2686 4.50098C11.1834 4.50087 11.094 4.5 11 4.5H8.37891L6.37891 2.5H4.2002C3.61556 2.5 3.26702 2.50138 3.00879 2.52246C2.88835 2.5323 2.82096 2.54407 2.78809 2.55176L2.77344 2.55469C2.70286 2.59065 2.64185 2.64258 2.5957 2.70605L2.55469 2.77344C2.57139 2.74065 2.54213 2.76805 2.52246 3.00879C2.50138 3.26702 2.5 3.61556 2.5 4.2002V9C2.5 9.72461 2.50141 10.1779 2.5293 10.5195C2.55578 10.8437 2.59883 10.9334 2.60938 10.9541L2.69141 11.0879C2.78366 11.2148 2.90484 11.3187 3.0459 11.3906L3.14941 11.4248C3.21485 11.4402 3.31847 11.4575 3.48047 11.4707C3.82206 11.4986 4.27539 11.5 5 11.5H6.45898C6.55251 11.854 6.55087 12.2196 6.35156 12.5186L6.33594 12.542C6.24071 12.6849 6.16674 12.8393 6.11133 13H5C3.77477 13 3.08563 13 2.57422 12.8174L2.36523 12.7275C1.95378 12.5179 1.60933 12.199 1.36914 11.8076L1.27246 11.6348C1.00007 11.1 1 10.4 1 9V4.2002C1 3.22019 1.00049 2.66887 1.14648 2.25977L1.21777 2.0918C1.38555 1.76256 1.64085 1.48707 1.9541 1.29492L2.0918 1.21777C2.41263 1.0543 2.80803 1.01315 3.45801 1.00293L4.2002 1H7L9 3Z" fill="#9B61FF"/>
<path d="M11.8066 6C12.1477 6.00023 12.3882 6.33455 12.2803 6.6582L12.1143 7.1582C12.0462 7.36237 11.8549 7.49999 11.6396 7.5H11.4355C10.9091 7.5 10.4725 7.9083 10.4375 8.43359L10.3994 9H12C12.6817 9 13.299 9.27342 13.75 9.71582C14.201 9.27342 14.8183 9 15.5 9H15.5713C15.808 9 16 9.19202 16 9.42871V10C16 10.2761 15.7761 10.5 15.5 10.5C14.9477 10.5 14.5 10.9477 14.5 11.5C14.5 12.0523 14.9477 12.5 15.5 12.5C15.7761 12.5 16 12.7239 16 13V13.5713C16 13.808 15.808 14 15.5713 14H15.5C14.8181 14 14.201 13.7259 13.75 13.2832C13.299 13.7259 12.6819 14 12 14H11.9287C11.692 14 11.5 13.808 11.5 13.5713V13C11.5 12.7239 11.7239 12.5 12 12.5C12.5523 12.5 13 12.0523 13 11.5C13 10.9477 12.5523 10.5 12 10.5H10.2998L10.124 13.1328C10.054 14.1834 9.18183 15 8.12891 15H8C7.72386 15 7.5 14.7761 7.5 14.5V14C7.5 13.7239 7.72386 13.5 8 13.5H8.03223C8.29546 13.5 8.51374 13.2959 8.53125 13.0332L8.7002 10.5H8C7.72386 10.5 7.5 10.2761 7.5 10V9.5C7.5 9.22386 7.72386 9 8 9H8.80078L8.84473 8.33398C8.93228 7.02075 10.0227 6.00001 11.3389 6H11.8066Z" fill="#BDA1FF"/>
</svg>
