<svg width="16" height="16" viewBox="0 0 16 16" fill="none" xmlns="http://www.w3.org/2000/svg">
<path opacity="0.8" d="M9 3.00022H11C12.4001 3.00022 13.1 3.00024 13.6348 3.27268C14.1052 3.51237 14.4879 3.89505 14.7275 4.36546C14.9998 4.90019 15 5.6004 15 7.00022V7.12522L12.5 5.25022L12.3291 5.13303C11.5171 4.62276 10.4818 4.62247 9.66992 5.13303L9.5 5.25022L6.5 7.50022C5.87055 7.97236 5.5 8.71337 5.5 9.50022V11.9924C5.50003 12.3443 5.57481 12.6867 5.71289 13.0002H5C3.6001 13.0002 2.89998 13.0001 2.36523 12.7278C1.89483 12.4881 1.51214 12.1054 1.27246 11.635C0.999992 11.1002 1 10.4002 1 9.00022V4.20042C1 3.08039 0.99983 2.51983 1.21777 2.09202C1.40949 1.71575 1.71555 1.40975 2.0918 1.21799C2.51962 1.00001 3.08009 1.00022 4.2002 1.00022H7L9 3.00022Z" fill="#0CB081"/>
<path d="M14.7392 11.1585C15.1247 11.4588 15.1247 12.0418 14.7392 12.3421L11.6142 14.7728C11.2531 15.0534 10.7466 15.0535 10.3856 14.7728L7.26064 12.3421C6.87518 12.0419 6.87537 11.4588 7.26064 11.1585L7.46377 11.0003L10.3856 13.2728C10.7466 13.5535 11.2531 13.5534 11.6142 13.2728L14.5351 11.0003L14.7392 11.1585ZM10.3856 6.22783C10.7468 5.94697 11.253 5.94697 11.6142 6.22783L14.7392 8.65752C15.1252 8.95775 15.1251 9.54178 14.7392 9.84209L11.6142 12.2728C11.253 12.5536 10.7468 12.5536 10.3856 12.2728L7.26162 9.84209C6.87556 9.54182 6.87556 8.95779 7.26162 8.65752L10.3856 6.22783Z" fill="#7FD2BB"/>
</svg>
