<svg width="16" height="16" viewBox="0 0 16 16" fill="none" xmlns="http://www.w3.org/2000/svg">
<path opacity="0.8" d="M9 3.00034H11C12.4001 3.00034 13.1 3.00033 13.6348 3.2728C14.1051 3.51242 14.4878 3.89434 14.7275 4.36459C14.8672 4.63875 14.9336 4.9569 14.9668 5.38998L14.8779 5.35287L11.8779 4.22787L11.6631 4.15756C11.2292 4.03821 10.7708 4.03821 10.3369 4.15756L10.1221 4.22787L7.12207 5.35287C6.1465 5.71887 5.5 6.6517 5.5 7.6937V9.72885C5.50006 10.8975 5.81677 12.0219 6.38672 13.0003H5C3.60014 13.0003 2.89997 13.0002 2.36523 12.7279C1.89486 12.4882 1.51215 12.1055 1.27246 11.6351C0.999999 11.1004 1 10.4002 1 9.00034V4.19955C1 3.0799 0.999903 2.51988 1.21777 2.09213C1.40948 1.71588 1.71558 1.40986 2.0918 1.21811C2.51962 1.00012 3.08009 1.00034 4.2002 1.00034H7L9 3.00034Z" fill="#30A6F9"/>
<path d="M10.4736 5.69717C10.813 5.57002 11.187 5.57002 11.5264 5.69717L14.3516 6.75674C14.7416 6.90321 15 7.27656 15 7.69326V9.72842C15 11.4522 14.1121 13.0549 12.6504 13.9687L11.5303 14.6688C11.206 14.8715 10.794 14.8715 10.4697 14.6688L9.34961 13.9687C7.8879 13.0549 7 11.4522 7 9.72842V7.69326C7 7.27656 7.25836 6.90321 7.64844 6.75674L10.4736 5.69717ZM11 7.9999C10.1716 7.9999 9.50005 8.67152 9.5 9.4999C9.5 10.1527 9.91782 10.7059 10.5 10.912V11.9999C10.5 12.276 10.7239 12.4999 11 12.4999C11.2761 12.4999 11.5 12.276 11.5 11.9999V10.912C12.0822 10.7059 12.5 10.1527 12.5 9.4999C12.4999 8.67152 11.8284 7.9999 11 7.9999Z" fill="#83C2FE"/>
</svg>
