<svg width="16" height="16" viewBox="0 0 16 16" fill="none" xmlns="http://www.w3.org/2000/svg">
<path opacity="0.8" d="M8.9996 3.00032H10.9996C12.3997 3.00032 13.1006 3.0003 13.6353 3.27278C14.1054 3.51239 14.4875 3.89454 14.7271 4.36458C14.8986 4.70114 14.9624 5.10362 14.9859 5.70442C14.686 5.57889 14.4012 5.53709 14.1783 5.51888C13.9366 5.49916 13.655 5.50032 13.4 5.50032H12.1627C12.0327 5.50031 11.8133 5.49519 11.5738 5.52571L11.3307 5.56966C11.1395 5.61559 10.9537 5.68372 10.7789 5.77278L10.608 5.86848C10.4645 5.95649 10.3351 6.06109 10.2271 6.15852L9.97031 6.40852L7.06992 9.30794C6.88951 9.48834 6.68984 9.68742 6.53281 9.87239C6.38536 10.0461 6.20923 10.2821 6.08554 10.5911L6.03574 10.7279C5.87281 11.2297 5.87272 11.7709 6.03574 12.2728L6.08554 12.4095C6.18137 12.6489 6.3093 12.8437 6.43027 13.0003H4.9996C3.59973 13.0003 2.89957 13.0003 2.36484 12.7279C1.89443 12.4882 1.51175 12.1055 1.27206 11.6351C0.999642 11.1004 0.999603 10.4002 0.999603 9.00032V4.19954C0.999603 3.07974 1.0004 2.51988 1.21835 2.09212C1.4101 1.71583 1.71608 1.40983 2.09238 1.21809C2.52014 1.00025 3.08004 1.00032 4.1998 1.00032H6.9996L8.9996 3.00032Z" fill="#4D72F7"/>
<path d="M13.3995 7C13.9596 7 14.2403 7.00038 14.4542 7.10938C14.6422 7.20523 14.7949 7.35794 14.8908 7.5459C14.9997 7.75976 15.0001 8.03982 15.0001 8.59961V9.83691C15.0001 10.0815 15.0004 10.2042 14.9728 10.3193C14.9483 10.4214 14.9075 10.5189 14.8527 10.6084C14.7908 10.7093 14.7043 10.7958 14.5314 10.9688L11.631 13.8682C11.235 14.2642 11.0371 14.4629 10.8087 14.5371C10.608 14.6023 10.3913 14.6023 10.1906 14.5371C9.96235 14.4628 9.76415 14.264 9.3683 13.8682L8.13099 12.6318C7.73498 12.2358 7.53721 12.0369 7.46302 11.8086C7.39795 11.608 7.39795 11.392 7.46302 11.1914C7.53721 10.9631 7.73498 10.7642 8.13099 10.3682L11.0314 7.46875C11.2043 7.29581 11.2908 7.2093 11.3917 7.14746C11.4812 7.09263 11.5788 7.05184 11.6808 7.02734C11.7958 6.99976 11.918 7 12.1622 7H13.3995ZM12.5001 8.5C11.9478 8.5 11.5001 8.94772 11.5001 9.5C11.5001 10.0523 11.9478 10.5 12.5001 10.5C13.0523 10.4999 13.5001 10.0522 13.5001 9.5C13.5001 8.94777 13.0523 8.50008 12.5001 8.5Z" fill="#94BAFF"/>
</svg>
