<svg width="16" height="16" viewBox="0 0 16 16" fill="none" xmlns="http://www.w3.org/2000/svg">
<g clip-path="url(#clip0_203_695)">
<path opacity="0.8" d="M8.99973 2.99966H10.9997C12.3994 2.99966 13.0998 2.99991 13.6345 3.27212C14.1048 3.51174 14.4876 3.89466 14.7273 4.36489C14.7831 4.47451 14.8248 4.59224 14.8601 4.72036C13.6999 4.07181 12.3047 3.99738 11.0915 4.49966H8.37863L6.37863 2.49966H4.19992C3.61545 2.49966 3.26671 2.50104 3.00851 2.52212C2.88823 2.53195 2.82066 2.54373 2.78781 2.55141L2.77316 2.55434C2.70265 2.59029 2.64155 2.6423 2.59543 2.70571L2.55441 2.77309C2.57094 2.74057 2.54182 2.76839 2.52219 3.00845C2.50111 3.26663 2.49973 3.61542 2.49973 4.19985V8.99966C2.49973 9.72401 2.50116 10.1776 2.52902 10.5192C2.55534 10.8414 2.59823 10.9324 2.6091 10.9538L2.69113 11.0875C2.7833 11.2143 2.90472 11.3184 3.04562 11.3903L3.14914 11.4245C3.21454 11.4398 3.31837 11.4571 3.48019 11.4704C3.81401 11.4976 4.2548 11.4986 4.9509 11.4987C4.89294 11.9991 4.9224 12.5075 5.03879 12.9997H4.99973C3.77467 12.9997 3.08532 12.9996 2.57394 12.817L2.36496 12.7272C1.95366 12.5175 1.60899 12.1986 1.36887 11.8073L1.27219 11.6344C0.999987 11.0997 0.999725 10.3993 0.999725 8.99966V4.19985C0.999725 3.22006 1.00023 2.66848 1.14621 2.25942L1.2175 2.09145C1.38527 1.76231 1.64065 1.48669 1.95383 1.29458L2.09152 1.21743C2.41231 1.05398 2.80792 1.01282 3.45773 1.00259L4.19992 0.999657H6.99973L8.99973 2.99966Z" fill="#30A6F9"/>
<path d="M11.75 13.5L11.25 14C10.1454 15.1046 8.35457 15.1046 7.25 14C6.14543 12.8954 6.14543 11.1046 7.25 10L7.75 9.5C8.02614 9.22386 8.47386 9.22386 8.75 9.5C9.02614 9.77614 9.02614 10.2239 8.75 10.5L8.25 11C7.69772 11.5523 7.69772 12.4477 8.25 13C8.80228 13.5523 9.69771 13.5523 10.25 13L10.75 12.5C11.0261 12.2239 11.4739 12.2239 11.75 12.5C12.0261 12.7761 12.0261 13.2239 11.75 13.5Z" fill="#83C2FE"/>
<path d="M10.25 7L10.75 6.5C11.8546 5.39543 13.6454 5.39543 14.75 6.5C15.8546 7.60457 15.8546 9.39543 14.75 10.5L14.25 11C13.9739 11.2761 13.5261 11.2761 13.25 11C12.9739 10.7239 12.9739 10.2761 13.25 10L13.75 9.5C14.3023 8.94772 14.3023 8.05228 13.75 7.5C13.1977 6.94772 12.3023 6.94771 11.75 7.5L11.25 8C10.9739 8.27614 10.5261 8.27614 10.25 8C9.97386 7.72386 9.97386 7.27614 10.25 7Z" fill="#83C2FE"/>
<path d="M12.25 10L10.75 11.5C10.4739 11.7761 10.0261 11.7761 9.75 11.5C9.47386 11.2239 9.47386 10.7761 9.75 10.5L11.25 9C11.5261 8.72386 11.9739 8.72386 12.25 9C12.5261 9.27614 12.5261 9.72386 12.25 10Z" fill="#83C2FE"/>
</g>
<defs>
<clipPath id="clip0_203_695">
<rect width="16" height="16" fill="white"/>
</clipPath>
</defs>
</svg>
