<svg width="16" height="16" viewBox="0 0 16 16" fill="none" xmlns="http://www.w3.org/2000/svg">
<path opacity="0.8" d="M9 3.00031H11C12.4001 3.00031 13.1 3.00031 13.6348 3.27277C14.1051 3.51239 14.4878 3.89432 14.7275 4.36457C14.9676 4.83579 14.9937 5.43582 14.9971 6.52961C14.9881 6.52443 14.9798 6.5181 14.9707 6.513L12.4707 5.10675C11.5575 4.59306 10.4425 4.59306 9.5293 5.10675L7.0293 6.513C6.08484 7.04433 5.50011 8.04362 5.5 9.12726V11.8734C5.50008 12.2664 5.57854 12.6477 5.72168 13.0003H5C3.60013 13.0003 2.89998 13.0002 2.36523 12.7278C1.89485 12.4882 1.51215 12.1054 1.27246 11.6351C0.999997 11.1003 1 10.4002 1 9.00031V4.19953C1 3.07987 0.999896 2.51985 1.21777 2.09211C1.40948 1.71585 1.71557 1.40984 2.0918 1.21808C2.51962 1.0001 3.08009 1.00031 4.2002 1.00031H7L9 3.00031Z" fill="#FF9B20"/>
<path d="M10.2646 6.41349C10.7212 6.15677 11.2788 6.15677 11.7354 6.41349L12.6992 6.95548L12.5879 7.01505L9.5 8.79728C8.88124 9.15452 8.50005 9.81523 8.5 10.5297V11.5004C8.50022 11.7764 8.72399 12.0004 9 12.0004C9.27601 12.0004 9.49978 11.7764 9.5 11.5004V10.5297C9.50005 10.1725 9.69064 9.8421 10 9.66349L13.0879 7.88127L13.2158 7.81779C13.3478 7.76316 13.49 7.73478 13.6338 7.73478H13.6963C13.8893 7.7348 14.0797 7.77003 14.2598 7.83537C14.7174 8.10442 15 8.59508 15 9.12736V11.8725C15 12.4144 14.7076 12.9144 14.2354 13.1801L11.7354 14.5863C11.2787 14.8432 10.7213 14.8432 10.2646 14.5863L7.76465 13.1801C7.29235 12.9144 7 12.4144 7 11.8725V9.12736C7.00003 8.58548 7.29235 8.08541 7.76465 7.81974L10.2646 6.41349Z" fill="#FFC076"/>
</svg>
