<svg width="16" height="16" viewBox="0 0 16 16" fill="none" xmlns="http://www.w3.org/2000/svg">
<path opacity="0.8" d="M8.99979 2.99962H10.9998C12.3995 2.99962 13.0998 2.99985 13.6346 3.27208C14.1049 3.51173 14.4876 3.89454 14.7273 4.36485C14.944 4.79011 14.9868 5.32006 14.9959 6.22325C14.4259 5.62066 13.7221 5.14591 12.9314 4.84923L12.7283 4.77794L12.5789 4.73399C11.0596 4.34219 10.0247 5.77992 10.2224 6.96739L10.3279 7.60216C10.4972 8.61736 9.61752 9.4978 8.60233 9.32872L7.96658 9.22227L7.85135 9.20763C6.64985 9.08823 5.26496 10.1771 5.77713 11.7272L5.84842 11.9313C5.99006 12.3087 6.17235 12.6667 6.38943 12.9996H4.99979C3.5998 12.9996 2.89977 12.9996 2.36502 12.7272C1.89475 12.4875 1.51191 12.1056 1.27225 11.6354C0.999764 11.1006 0.999786 10.3997 0.999786 8.99962V4.19981C0.999786 3.08024 0.999825 2.52013 1.21756 2.09239C1.40922 1.71624 1.71549 1.41013 2.09158 1.21837C2.5194 1.00038 3.07989 0.999619 4.19998 0.999619H6.99979L8.99979 2.99962Z" fill="#9B61FF"/>
<path d="M11.8318 6.87268C11.6655 6.49902 11.9695 6.09892 12.3544 6.2373C13.8968 6.79185 14.9996 8.26615 14.9998 9.99963C14.9998 12.2088 13.2089 13.9996 10.9998 13.9996C9.26615 13.9995 7.79116 12.8967 7.23648 11.3542C7.09808 10.9694 7.4982 10.6653 7.87187 10.8317C10.3822 11.9474 12.9473 9.38303 11.8318 6.87268Z" fill="#BDA1FF"/>
</svg>
