<svg width="16" height="16" viewBox="0 0 16 16" fill="none" xmlns="http://www.w3.org/2000/svg">
<path opacity="0.8" d="M9 3H11C12.4 3 13.1 3.00007 13.6348 3.27246C14.1052 3.51214 14.4879 3.89483 14.7275 4.36523C14.9143 4.73179 14.9717 5.17604 14.9902 5.87012C14.4866 5.47779 13.9239 5.15833 13.3174 4.92676C13.254 4.83634 13.1772 4.75632 13.0879 4.69141L12.9541 4.60938C12.9334 4.59883 12.8436 4.55578 12.5195 4.5293C12.1779 4.50141 11.7246 4.5 11 4.5H8.37891L6.37891 2.5H4.2002C3.61556 2.5 3.26702 2.50138 3.00879 2.52246C2.88835 2.5323 2.82096 2.54407 2.78809 2.55176L2.77344 2.55469C2.70286 2.59065 2.64185 2.64258 2.5957 2.70605L2.55469 2.77344C2.57139 2.74065 2.54213 2.76805 2.52246 3.00879C2.50138 3.26702 2.5 3.61556 2.5 4.2002V9C2.5 9.72461 2.50141 10.1779 2.5293 10.5195C2.55578 10.8437 2.59883 10.9334 2.60938 10.9541L2.69141 11.0879C2.78366 11.2148 2.90484 11.3187 3.0459 11.3906L3.14941 11.4248C3.21485 11.4402 3.31847 11.4575 3.48047 11.4707C3.73962 11.4919 4.06308 11.4954 4.52051 11.4971C4.55986 12.0173 4.65982 12.5202 4.81445 12.999C3.70408 12.9986 3.05923 12.9906 2.57422 12.8174L2.36523 12.7275C1.95378 12.5179 1.60933 12.199 1.36914 11.8076L1.27246 11.6348C1.00007 11.1 1 10.4 1 9V4.2002C1 3.22019 1.00049 2.66887 1.14648 2.25977L1.21777 2.0918C1.38555 1.76256 1.64085 1.48707 1.9541 1.29492L2.0918 1.21777C2.41263 1.0543 2.80803 1.01315 3.45801 1.00293L4.2002 1H7L9 3Z" fill="#FD7334"/>
<path d="M11 6C13.7614 6 16 8.23858 16 11C16 12.0296 15.6886 12.9864 15.1551 13.7817C15.0611 13.9217 14.9008 14 14.7322 14C14.1889 14 13.8569 13.0935 14.1075 12.6115C14.3583 12.1292 14.5 11.5812 14.5 11C14.5 9.067 12.933 7.5 11 7.5C9.067 7.5 7.5 9.067 7.5 11C7.5 11.5812 7.64172 12.1292 7.89246 12.6115C8.14307 13.0935 7.81108 14 7.2678 14C7.0992 14 6.93887 13.9217 6.84494 13.7817C6.31141 12.9864 6 12.0296 6 11C6 8.23858 8.23858 6 11 6Z" fill="#FFA366"/>
<path d="M10.5 13.5L12.5 10.5" stroke="#FFA366" stroke-width="1.5" stroke-linecap="round"/>
</svg>
