<svg width="16" height="16" viewBox="0 0 16 16" fill="none" xmlns="http://www.w3.org/2000/svg">
<path opacity="0.7" d="M9.00046 3.00046H11.0005C12.4003 3.00046 13.1005 3.00046 13.6352 3.27292C14.1054 3.5126 14.4884 3.89446 14.728 4.36471C14.9173 4.73618 14.973 5.18774 14.9907 5.89792C14.6913 5.79373 14.3332 5.69786 13.9682 5.60007L10.8784 4.77194C10.4968 4.66968 10.1233 4.56876 9.80222 4.51022C9.46376 4.44854 9.05483 4.40741 8.60788 4.50241C7.98866 4.63415 7.42712 4.95882 7.00339 5.42917C6.69764 5.76874 6.52837 6.1433 6.41257 6.46725C6.30272 6.77461 6.20332 7.14903 6.10104 7.53073L5.27292 10.6206C5.17066 11.0022 5.06974 11.3757 5.0112 11.6967C4.94951 12.0352 4.90838 12.4441 5.00339 12.8911C5.01124 12.928 5.0225 12.964 5.03171 13.0005H5.00046C3.60033 13.0005 2.89949 13.0005 2.36472 12.728C1.89446 12.4884 1.5126 12.1054 1.27292 11.6352C1.00046 11.1005 1.00046 10.4003 1.00046 9.00046V4.19967C1.00046 3.07986 1.00031 2.52002 1.21823 2.09225C1.40998 1.71593 1.71593 1.40998 2.09225 1.21823C2.52003 1.00031 3.07987 1.00046 4.19968 1.00046H7.00046L9.00046 3.00046Z" fill="#7E7E92"/>
<path d="M13.5804 7.04928C14.3915 7.26662 14.7977 7.37527 15.0653 7.61602C15.3008 7.82798 15.4635 8.10991 15.5294 8.41976C15.6041 8.7719 15.495 9.17805 15.2777 9.98915L14.4497 13.0794C14.2324 13.8905 14.1237 14.2967 13.883 14.5643C13.671 14.7997 13.3891 14.9625 13.0792 15.0284C12.7271 15.103 12.3209 14.994 11.5098 14.7767L8.41962 13.9487C7.60852 13.7313 7.20227 13.6227 6.93464 13.3819C6.69924 13.17 6.53647 12.888 6.47061 12.5782C6.39593 12.2261 6.50495 11.8199 6.72228 11.0088L7.5503 7.9186C7.76764 7.1075 7.87629 6.70125 8.11704 6.43363C8.329 6.19822 8.61093 6.03545 8.92078 5.96959C9.27292 5.89491 9.67907 6.00393 10.4902 6.22127L13.5804 7.04928ZM10.3576 9.03275C10.241 9.00151 10.1214 9.05793 10.0693 9.16174L10.0514 9.20953L9.53377 11.1414C9.49804 11.2747 9.57718 11.4118 9.71055 11.4476L11.6424 11.9652C11.7758 12.0009 11.9128 11.9218 11.9486 11.7884L12.4662 9.85658C12.4975 9.74 12.441 9.62033 12.3372 9.56825L12.2894 9.55039L10.3576 9.03275Z" fill="#BEBED1"/>
</svg>
