<svg width="16" height="16" viewBox="0 0 16 16" fill="none" xmlns="http://www.w3.org/2000/svg">
<path opacity="0.7" d="M9 3H11C12.4 3 13.1 3.00007 13.6348 3.27246C14.1052 3.51214 14.4879 3.89483 14.7275 4.36523C14.9935 4.88741 14.9989 5.56717 14.999 6.90234C14.8315 6.8056 14.6541 6.72364 14.4678 6.66016L14.2764 6.60254C14.1791 6.57649 14.079 6.5564 13.9785 6.54199C13.7552 6.50991 13.5414 6.42122 13.3818 6.26172L13.3389 6.21875C13.3368 6.21662 13.3348 6.21431 13.333 6.21191C13.331 6.20919 13.3286 6.20647 13.3262 6.2041L13.2949 6.17383L13.1416 6.02539C13.1016 5.98941 13.055 5.9496 13.0039 5.91016L12.8379 5.79492L12.7012 5.71777C12.6079 5.67027 12.5106 5.63001 12.4111 5.59766L12.2598 5.55566L12.0605 5.51953C11.9648 5.50726 11.8767 5.50182 11.8076 5.5H10.1924C10.1233 5.50181 10.0352 5.50725 9.93945 5.51953L9.74023 5.55566C9.58714 5.59243 9.43879 5.64645 9.29883 5.71777L9.16211 5.79492C9.04372 5.86749 8.93849 5.95337 8.8584 6.02539L8.70508 6.17383C8.48882 6.39002 8.1979 6.50554 7.89746 6.5625C7.89393 6.56317 7.89025 6.56377 7.88672 6.56445L7.72363 6.60254C6.75311 6.86259 5.98139 7.5894 5.66016 8.53223L5.60254 8.72363C5.51635 9.04547 5.50179 9.39524 5.5 9.70508V11.5996C5.5 11.9945 5.49887 12.3819 5.52539 12.707C5.53303 12.8005 5.54414 12.8985 5.55957 13H5C3.60002 13 2.89999 12.9999 2.36523 12.7275C1.89483 12.4879 1.51214 12.1052 1.27246 11.6348C1.00007 11.1 1 10.4 1 9V4.2002C1 3.08009 0.999786 2.51962 1.21777 2.0918C1.40951 1.71554 1.71555 1.40951 2.0918 1.21777C2.51962 0.999786 3.08009 1 4.2002 1H7L9 3Z" fill="#7E7E92"/>
<path d="M11.3369 7C11.5815 7 11.7042 6.99971 11.8193 7.02734C11.9214 7.05184 12.0189 7.09264 12.1084 7.14746C12.2093 7.2093 12.2959 7.29588 12.4688 7.46875L12.8281 7.82813C12.8528 7.85282 12.8652 7.86587 12.8779 7.87695C12.9603 7.9489 13.0647 7.99166 13.1738 7.99902C13.1904 8.00013 13.2078 8 13.2422 8C13.481 8 13.6009 8.00012 13.7012 8.01367C14.3697 8.1043 14.8957 8.63033 14.9863 9.29883C14.9999 9.39906 15 9.51902 15 9.75781V11.5996C15 12.4393 15.0002 12.8598 14.8369 13.1807C14.6931 13.4629 14.4629 13.6931 14.1807 13.8369C13.8598 14.0002 13.4393 14 12.5996 14H9.40039C8.56068 14 8.14015 14.0002 7.81934 13.8369C7.53709 13.6931 7.3069 13.4629 7.16309 13.1807C6.99981 12.8598 7 12.4393 7 11.5996V9.75781C7 9.51902 7.00012 9.39906 7.01367 9.29883C7.1043 8.63033 7.63033 8.1043 8.29883 8.01367C8.39906 8.00012 8.51902 8 8.75781 8C8.79216 8 8.80955 8.00013 8.82617 7.99902C8.9353 7.99166 9.03969 7.9489 9.12207 7.87695C9.13476 7.86587 9.14719 7.85281 9.17188 7.82813L9.53125 7.46875L9.73828 7.2666C9.79421 7.21554 9.84111 7.17842 9.8916 7.14746C9.98106 7.09264 10.0786 7.05184 10.1807 7.02734C10.2958 6.99971 10.4185 7 10.6631 7H11.3369ZM11 9.5C10.1716 9.5 9.5 10.1716 9.5 11C9.5 11.8284 10.1716 12.5 11 12.5C11.8284 12.5 12.5 11.8284 12.5 11C12.5 10.1716 11.8284 9.5 11 9.5Z" fill="#BEBED1"/>
</svg>
