<svg width="16" height="16" viewBox="0 0 16 16" fill="none" xmlns="http://www.w3.org/2000/svg">
<path opacity="0.8" d="M9 2.99998H11C12.4 2.99998 13.1 3.00006 13.6348 3.27245C14.1052 3.51213 14.4879 3.89481 14.7275 4.36522C14.8989 4.70168 14.9618 5.10358 14.9854 5.70409C14.6856 5.57877 14.4015 5.53674 14.1787 5.51854C13.9369 5.4988 13.6555 5.49998 13.4004 5.49998H8.59961C8.34452 5.49998 8.06311 5.4988 7.82129 5.51854C7.59421 5.53709 7.30317 5.57986 6.99707 5.71092L6.86523 5.77245C6.45378 5.98209 6.10933 6.30095 5.86914 6.69237L5.77246 6.86522C5.59234 7.21881 5.53975 7.5618 5.51855 7.82127C5.49881 8.0631 5.5 8.34451 5.5 8.59959V12.4004C5.5 12.5947 5.50234 12.8042 5.51074 13H5C3.60002 13 2.89999 12.9999 2.36523 12.7275C1.89483 12.4878 1.51214 12.1052 1.27246 11.6348C1.00008 11.1 1 10.3999 1 8.99998V4.20018C1 3.08007 0.999786 2.51961 1.21777 2.09178C1.40951 1.71553 1.71555 1.40949 2.0918 1.21776C2.51962 0.999771 3.08009 0.999985 4.2002 0.999985H7L9 2.99998Z" fill="#30A6F9"/>
<path d="M14.2002 11C14.4799 11 14.6197 11.0003 14.7266 11.0547C14.8206 11.1026 14.8974 11.1794 14.9453 11.2734C14.9997 11.3803 15 11.5201 15 11.7998V12.4004C15 12.9602 14.9996 13.2402 14.8906 13.4541C14.7948 13.6421 14.6421 13.7948 14.4541 13.8906C14.2402 13.9996 13.9602 14 13.4004 14H8.59961C8.03982 14 7.75976 13.9996 7.5459 13.8906C7.35793 13.7948 7.20522 13.6421 7.10938 13.4541C7.00041 13.2402 7 12.9602 7 12.4004V11.7998C7 11.5201 7.00034 11.3803 7.05469 11.2734C7.10262 11.1794 7.17936 11.1026 7.27344 11.0547C7.38033 11.0003 7.52014 11 7.7998 11H14.2002ZM11 11.9004C10.6686 11.9004 10.4004 12.1686 10.4004 12.5C10.4004 12.8314 10.6686 13.0996 11 13.0996C11.3314 13.0996 11.5996 12.8314 11.5996 12.5C11.5996 12.1686 11.3314 11.9004 11 11.9004ZM13.4004 7C13.9602 7 14.2402 7.00041 14.4541 7.10938C14.6421 7.20522 14.7948 7.35793 14.8906 7.5459C14.9996 7.75976 15 8.03982 15 8.59961V9.2002C15 9.47986 14.9997 9.61967 14.9453 9.72656C14.8974 9.82064 14.8206 9.89738 14.7266 9.94531C14.6197 9.99966 14.4799 10 14.2002 10H7.7998C7.52014 10 7.38033 9.99966 7.27344 9.94531C7.17936 9.89738 7.10262 9.82064 7.05469 9.72656C7.00034 9.61967 7 9.47986 7 9.2002V8.59961C7 8.03982 7.00041 7.75976 7.10938 7.5459C7.20522 7.35793 7.35793 7.20522 7.5459 7.10938C7.75976 7.00041 8.03982 7 8.59961 7H13.4004ZM11 7.90039C10.6686 7.90039 10.4004 8.16863 10.4004 8.5C10.4004 8.83137 10.6686 9.09961 11 9.09961C11.3314 9.09961 11.5996 8.83137 11.5996 8.5C11.5996 8.16863 11.3314 7.90039 11 7.90039Z" fill="#83C2FE"/>
</svg>
