<svg width="16" height="16" viewBox="0 0 16 16" fill="none" xmlns="http://www.w3.org/2000/svg">
<path opacity="0.8" d="M9.00021 3H11.0002C12.4 3 13.1003 3.00008 13.635 3.27246C14.1053 3.51215 14.4881 3.89489 14.7278 4.36523C14.9668 4.83469 14.9937 5.43163 14.9973 6.51758L14.9289 6.42676C14.5597 5.97062 14.0436 5.66231 13.4748 5.54883C13.4732 5.52557 13.4727 5.50274 13.4709 5.48047C13.4577 5.31851 13.4404 5.21486 13.425 5.14941L13.3908 5.0459C13.3189 4.90489 13.2149 4.78364 13.0881 4.69141L12.9543 4.60938C12.9336 4.59884 12.8437 4.55578 12.5197 4.5293C12.1782 4.50141 11.7247 4.5 11.0002 4.5H8.37912L6.37912 2.5H4.20041C3.61594 2.5 3.26721 2.5014 3.009 2.52246C2.88882 2.53228 2.82125 2.54407 2.7883 2.55176L2.77365 2.55469C2.70311 2.59063 2.64206 2.64263 2.59592 2.70605L2.5549 2.77344C2.57151 2.74079 2.54233 2.76828 2.52267 3.00879C2.50159 3.26702 2.50021 3.61556 2.50021 4.2002V9C2.50021 9.72461 2.50162 10.1779 2.52951 10.5195C2.55599 10.8436 2.59905 10.9334 2.60959 10.9541L2.69162 11.0879C2.78386 11.2147 2.90509 11.3187 3.04611 11.3906L3.14963 11.4248C3.21508 11.4401 3.31885 11.4575 3.48068 11.4707C3.82225 11.4986 4.27576 11.5 5.00021 11.5H5.18869C5.25737 11.6572 5.34196 11.8095 5.44455 11.9531L6.1926 13H5.00021C3.77514 13 3.08583 12.9999 2.57443 12.8174L2.36545 12.7275C1.95403 12.5179 1.60954 12.199 1.36935 11.8076L1.27267 11.6348C1.00028 11.1 1.00021 10.4 1.00021 9V4.2002C1.00021 3.22019 1.0007 2.66887 1.1467 2.25977L1.21799 2.0918C1.38576 1.7626 1.64109 1.48705 1.95432 1.29492L2.09201 1.21777C2.41281 1.05438 2.80836 1.01315 3.45822 1.00293L4.20041 1H7.00021L9.00021 3Z" fill="#FF519C"/>
<path d="M8.79422 7.10829C9.02222 6.80429 9.47833 6.80429 9.70633 7.10829L11.8001 9.90029C12.0665 10.2558 12.0667 10.745 11.8001 11.1005L9.70633 13.8925C9.47842 14.1962 9.02231 14.196 8.79422 13.8925L6.69949 11.1005C6.43292 10.7451 6.43311 10.2558 6.69949 9.90029L8.79422 7.10829ZM10.7942 7.10829C11.0223 6.80449 11.4784 6.80436 11.7063 7.10829L13.8001 9.90029C14.0664 10.2557 14.0664 10.7441 13.8001 11.0995L11.7063 13.8915C11.4784 14.1955 11.0223 14.1954 10.7942 13.8915L10.7503 13.8319L12.8001 11.0995C13.0664 10.7441 13.0664 10.2557 12.8001 9.90029L10.7503 7.16689L10.7942 7.10829ZM12.7932 7.10829C13.0212 6.80436 13.4773 6.80448 13.7054 7.10829L15.7991 9.90029C16.0657 10.2558 16.0657 10.745 15.7991 11.1005L13.7054 13.8925C13.4772 14.1959 13.0211 14.1962 12.7932 13.8925L12.7493 13.8329L14.7991 11.1005C15.0657 10.745 15.0657 10.2558 14.7991 9.90029L12.7493 7.16689L12.7932 7.10829Z" fill="#FF8CC7"/>
</svg>
