<svg width="16" height="16" viewBox="0 0 16 16" fill="none" xmlns="http://www.w3.org/2000/svg">
<path opacity="0.7" d="M9 2.99981H11C12.3999 2.99981 13.1 2.99992 13.6348 3.27227C14.1051 3.51193 14.4879 3.89471 14.7275 4.36504C14.9675 4.83617 14.9937 5.43578 14.9971 6.52911C14.9881 6.52393 14.9798 6.5176 14.9707 6.5125L13.4814 5.67461C13.478 5.60578 13.4757 5.54112 13.4707 5.48028C13.4575 5.31839 13.4401 5.21464 13.4248 5.14922L13.3906 5.04571C13.3187 4.90471 13.2147 4.78343 13.0879 4.69122L12.9541 4.60918C12.9333 4.59858 12.8432 4.55555 12.5195 4.52911C12.1779 4.50122 11.7246 4.49981 11 4.49981H8.37891L6.37891 2.49981H4.2002C3.61557 2.49981 3.26702 2.50119 3.00879 2.52227C2.88841 2.53211 2.82098 2.54388 2.78809 2.55157L2.77344 2.5545C2.7029 2.59044 2.64184 2.64244 2.5957 2.70586L2.55469 2.77325C2.57122 2.7407 2.5421 2.7684 2.52246 3.0086C2.50138 3.2668 2.5 3.61548 2.5 4.2V8.99981C2.5 9.72428 2.50142 10.1778 2.5293 10.5193C2.55571 10.8427 2.5987 10.9329 2.60938 10.9539L2.69141 11.0877C2.78364 11.2146 2.90487 11.3185 3.0459 11.3904L3.14941 11.4246C3.21485 11.44 3.31848 11.4573 3.48047 11.4705C3.82206 11.4984 4.27539 11.4998 5 11.4998H5.5V11.8729C5.50004 12.2659 5.57855 12.6473 5.72168 12.9998H5C3.77477 12.9998 3.08563 12.9998 2.57422 12.8172L2.36523 12.7273C1.95381 12.5177 1.60932 12.1988 1.36914 11.8074L1.27246 11.6346C1.00014 11.0998 1 10.3997 1 8.99981V4.2C1 3.22012 1.0005 2.66866 1.14648 2.25957L1.21777 2.09161C1.38555 1.76244 1.6409 1.48685 1.9541 1.29473L2.0918 1.21758C2.41261 1.05414 2.80808 1.01296 3.45801 1.00274L4.2002 0.999809H7L9 2.99981Z" fill="#7E7E92"/>
<path d="M9.82337 6.66185C10.2526 6.42043 10.4672 6.29972 10.6947 6.25242C10.8961 6.21056 11.1039 6.21056 11.3053 6.25242C11.5328 6.29972 11.7474 6.42043 12.1766 6.66185L13.7766 7.56185C14.222 7.81238 14.4447 7.93765 14.6068 8.11486C14.7502 8.27164 14.8587 8.4571 14.925 8.65895C15 8.88711 15 9.14262 15 9.65363V11.3464C15 11.8574 15 12.1129 14.925 12.341C14.8587 12.5429 14.7502 12.7284 14.6068 12.8851C14.4447 13.0623 14.222 13.1876 13.7766 13.4381L12.1766 14.3381C11.7474 14.5796 11.5328 14.7003 11.3053 14.7476C11.1039 14.7894 10.8961 14.7894 10.6947 14.7476C10.4672 14.7003 10.2526 14.5796 9.82337 14.3381L8.22337 13.4381C7.77798 13.1876 7.55529 13.0623 7.39319 12.8851C7.24978 12.7284 7.14132 12.5429 7.07498 12.341C7 12.1129 7 11.8574 7 11.3464V9.65363C7 9.14262 7 8.88711 7.07498 8.65895C7.14132 8.4571 7.24978 8.27164 7.39319 8.11486C7.55529 7.93765 7.77798 7.81238 8.22337 7.56185L9.82337 6.66185Z" fill="#7CD379"/>
<path d="M9.82337 6.66185C10.2526 6.42043 10.4672 6.29972 10.6947 6.25242C10.8961 6.21056 11.1039 6.21056 11.3053 6.25242C11.5328 6.29972 11.7474 6.42043 12.1766 6.66185L13.7766 7.56185C14.222 7.81238 14.4447 7.93765 14.6068 8.11486C14.7502 8.27164 14.8587 8.4571 14.925 8.65895C15 8.88711 15 9.14262 15 9.65363V11.3464C15 11.8574 15 12.1129 14.925 12.341C14.8587 12.5429 14.7502 12.7284 14.6068 12.8851C14.4447 13.0623 14.222 13.1876 13.7766 13.4381L12.1766 14.3381C11.7474 14.5796 11.5328 14.7003 11.3053 14.7476C11.1039 14.7894 10.8961 14.7894 10.6947 14.7476C10.4672 14.7003 10.2526 14.5796 9.82337 14.3381L8.22337 13.4381C7.77798 13.1876 7.55529 13.0623 7.39319 12.8851C7.24978 12.7284 7.14132 12.5429 7.07498 12.341C7 12.1129 7 11.8574 7 11.3464V9.65363C7 9.14262 7 8.88711 7.07498 8.65895C7.14132 8.4571 7.24978 8.27164 7.39319 8.11486C7.55529 7.93765 7.77798 7.81238 8.22337 7.56185L9.82337 6.66185Z" fill="black" fill-opacity="0.25" style="mix-blend-mode:plus-darker"/>
<path d="M12.0226 14.4248L13.9302 13.3517L13.9302 13.3517C14.3039 13.1416 14.4907 13.0365 14.5909 12.8837C14.679 12.7493 14.7216 12.5902 14.7125 12.4297C14.7021 12.2473 14.5928 12.0629 14.3743 11.6941L11.5981 7.00931C11.3883 6.65525 11.2834 6.47823 11.1342 6.3823C11.0029 6.2979 10.8486 6.25656 10.6927 6.26403C10.5155 6.27253 10.3362 6.37342 9.97745 6.57519L8.06976 7.64826C7.69614 7.85842 7.50932 7.96351 7.40911 8.11633C7.32099 8.25071 7.27837 8.40984 7.28751 8.57028C7.29791 8.75273 7.40718 8.93712 7.62573 9.30591L10.4019 13.9907C10.6117 14.3447 10.7166 14.5218 10.8658 14.6177C10.9971 14.7021 11.1514 14.7434 11.3073 14.736C11.4845 14.7275 11.6638 14.6266 12.0226 14.4248Z" fill="#7CD379"/>
</svg>
