<svg width="16" height="16" viewBox="0 0 16 16" fill="none" xmlns="http://www.w3.org/2000/svg">
<path opacity="0.8" d="M9 2.99997H11C12.4 2.99997 13.1 3.00004 13.6348 3.27243C14.1052 3.51211 14.4879 3.89481 14.7275 4.3652C14.8085 4.52411 14.8624 4.69824 14.9023 4.90036C14.8449 4.91863 14.7874 4.93893 14.7305 4.96286L14.6055 5.02048L13.4766 5.58395C13.4743 5.54833 13.4734 5.51378 13.4707 5.48044C13.4575 5.31846 13.4402 5.21482 13.4248 5.14938L13.3906 5.04587C13.3187 4.90482 13.2148 4.78362 13.0879 4.69137L12.9541 4.60934C12.9334 4.59879 12.8436 4.55574 12.5195 4.52926C12.1779 4.50138 11.7246 4.49997 11 4.49997H8.37891L6.37891 2.49997H4.2002C3.61556 2.49997 3.26702 2.50135 3.00879 2.52243C2.88836 2.53227 2.82096 2.54404 2.78809 2.55173L2.77344 2.55466C2.70286 2.59061 2.64185 2.64256 2.5957 2.70602L2.55469 2.77341C2.57137 2.74066 2.54213 2.76811 2.52246 3.00876C2.50138 3.26698 2.5 3.61554 2.5 4.20016V8.99997C2.5 9.72455 2.50141 10.1779 2.5293 10.5195C2.55577 10.8435 2.59881 10.9333 2.60938 10.9541L2.69141 11.0879C2.78365 11.2147 2.90484 11.3187 3.0459 11.3906L3.14941 11.4248C3.21485 11.4401 3.31847 11.4574 3.48047 11.4707C3.82206 11.4986 4.27539 11.5 5 11.5H7.25977C7.29751 11.5597 7.3772 11.7415 7.43555 12.0781C7.48876 12.3853 7.50608 12.7192 7.50098 13H5C3.77477 13 3.08563 12.9999 2.57422 12.8174L2.36523 12.7275C1.95378 12.5179 1.60933 12.199 1.36914 11.8076L1.27246 11.6347C1.00008 11.1 1 10.3999 1 8.99997V4.20016C1 3.22018 1.00049 2.66884 1.14648 2.25973L1.21777 2.09176C1.38555 1.76254 1.64086 1.48703 1.9541 1.29489L2.0918 1.21774C2.41262 1.05428 2.80804 1.01312 3.45801 1.0029L4.2002 0.999968H7L9 2.99997Z" fill="#30A6F9"/>
<path d="M8 6.80861C8.00029 6.43721 8.39134 6.19534 8.72363 6.36134L9.78906 6.89455C11.1439 7.57209 11.9998 8.95686 12 10.4717C12.0002 8.95686 12.8561 7.57209 14.2109 6.89455L15.2764 6.36134C15.6087 6.19534 15.9997 6.43721 16 6.80861V9.00002C16 10.3183 15.1488 11.4353 13.9668 11.8379C14.5717 12.0098 14.9999 12.5635 15 13.2051C15 13.3936 14.9252 13.5746 14.792 13.708L13.9307 14.5694C13.6802 14.8196 13.2879 14.8585 12.9932 14.6621C12.3728 14.2486 12 13.5522 12 12.8067C12 13.5522 11.6272 14.2486 11.0068 14.6621C10.7121 14.8585 10.3198 14.8196 10.0693 14.5694L9.20801 13.708C9.07481 13.5746 9 13.3936 9 13.2051C9.0001 12.5639 9.42782 12.0101 10.0322 11.8379C8.85064 11.4351 8.00001 10.3179 8 9.00002V6.80861Z" fill="#83C2FE"/>
</svg>
