<svg width="16" height="16" viewBox="0 0 16 16" fill="none" xmlns="http://www.w3.org/2000/svg">
<path opacity="0.7" d="M9 3H11C12.4 3 13.1 3.00007 13.6348 3.27246C14.1052 3.51214 14.4879 3.89483 14.7275 4.36523C14.903 4.70965 14.9641 5.12268 14.9863 5.74707C14.4548 5.31085 13.8404 4.97224 13.1699 4.75879C13.1437 4.73507 13.1166 4.71227 13.0879 4.69141L12.9541 4.60938C12.9334 4.59883 12.8436 4.55578 12.5195 4.5293C12.2854 4.51018 11.9988 4.50426 11.6084 4.50195C11.5723 4.50126 11.5362 4.5 11.5 4.5C11.4746 4.5 11.4492 4.50063 11.4238 4.50098C11.2936 4.50062 11.1528 4.5 11 4.5H8.37891L6.37891 2.5H4.2002C3.61556 2.5 3.26702 2.50138 3.00879 2.52246C2.88835 2.5323 2.82096 2.54407 2.78809 2.55176L2.77344 2.55469C2.70286 2.59065 2.64185 2.64258 2.5957 2.70605L2.55469 2.77344C2.57139 2.74065 2.54213 2.76805 2.52246 3.00879C2.50138 3.26702 2.5 3.61556 2.5 4.2002V9C2.5 9.72461 2.50141 10.1779 2.5293 10.5195C2.55578 10.8437 2.59883 10.9334 2.60938 10.9541L2.69141 11.0879C2.78366 11.2148 2.90484 11.3187 3.0459 11.3906L3.14941 11.4248C3.21485 11.4402 3.31847 11.4575 3.48047 11.4707C3.82206 11.4986 4.27539 11.5 5 11.5H6.20801C6.3603 12.0383 6.5931 12.5424 6.8916 13H5C3.77477 13 3.08563 13 2.57422 12.8174L2.36523 12.7275C1.95378 12.5179 1.60933 12.199 1.36914 11.8076L1.27246 11.6348C1.00007 11.1 1 10.4 1 9V4.2002C1 3.22019 1.00049 2.66887 1.14648 2.25977L1.21777 2.0918C1.38555 1.76256 1.64085 1.48707 1.9541 1.29492L2.0918 1.21777C2.41263 1.0543 2.80803 1.01315 3.45801 1.00293L4.2002 1H7L9 3Z" fill="#7E7E92"/>
<path d="M11.5 6C13.7091 6 15.5 7.79086 15.5 10C15.5 12.2091 13.7091 14 11.5 14C9.29086 14 7.5 12.2091 7.5 10C7.5 7.79086 9.29086 6 11.5 6ZM11.5 7.5C11.2239 7.5 11 7.72386 11 8V10C11 10.1326 11.0527 10.2597 11.1465 10.3535L12.1465 11.3535L12.2246 11.418C12.4187 11.5461 12.6827 11.5244 12.8535 11.3535C13.0244 11.1827 13.0461 10.9187 12.918 10.7246L12.8535 10.6465L12 9.79297V8C12 7.72386 11.7761 7.5 11.5 7.5Z" fill="#BEBED1"/>
</svg>
