<svg width="16" height="16" viewBox="0 0 16 16" fill="none" xmlns="http://www.w3.org/2000/svg">
<path opacity="0.8" d="M8.99997 2.99965H11C12.3998 2.99965 13.1 2.9998 13.6347 3.27211C14.1051 3.51177 14.4878 3.89453 14.7275 4.36488C15 4.89962 15 5.59975 15 6.99965V8.4391C14.9235 8.39517 14.8437 8.35078 14.7617 8.30629L14.2021 8.01137L12.0293 6.88246C11.6694 6.69552 11.308 6.50657 10.997 6.37953C10.7278 6.26956 10.3305 6.13282 9.8652 6.15102L9.6611 6.16859C9.06049 6.25075 8.51339 6.54862 8.11813 7.00063L7.95798 7.20375C7.63603 7.65958 7.55962 8.15488 7.52927 8.48598C7.49867 8.82032 7.49997 9.22808 7.49997 9.63344V12.1168C7.49997 12.4223 7.50025 12.725 7.51071 12.9996H4.99997C3.59987 12.9996 2.89998 12.9997 2.3652 12.7272C1.8949 12.4876 1.51212 12.1057 1.27243 11.6354C0.999947 11.1006 0.999969 10.3998 0.999969 8.99965V4.19984C0.999969 3.0802 0.999975 2.52017 1.21774 2.09242C1.40943 1.71622 1.7156 1.41016 2.09177 1.2184C2.51959 1.00041 3.08006 0.999649 4.20016 0.999649H6.99997L8.99997 2.99965Z" fill="#9B61FF"/>
<path d="M9 9.63418V12.1172C9 13.0582 9 13.5288 9.19699 13.7942C9.3687 14.0256 9.63187 14.1716 9.91905 14.195C10.2485 14.2217 10.6478 13.9728 11.4464 13.475L13.619 12.1206C14.3991 11.6343 14.7891 11.3912 14.9109 11.088C15.017 10.8237 15.0054 10.5266 14.8789 10.2713C14.7338 9.97859 14.3259 9.76671 13.5102 9.34297L11.3376 8.21433C10.5653 7.81315 10.1792 7.61256 9.86456 7.65558C9.5899 7.69312 9.34315 7.843 9.18321 8.06943C9 8.3288 9 8.76393 9 9.63418Z" fill="#BDA1FF"/>
</svg>
