<svg width="16" height="16" viewBox="0 0 16 16" fill="none" xmlns="http://www.w3.org/2000/svg">
<path opacity="0.8" d="M8.99982 3H10.9998C12.3997 3 13.0998 3.00014 13.6346 3.27246C14.105 3.51214 14.4877 3.89483 14.7274 4.36523C14.9071 4.71804 14.9663 5.14275 14.9871 5.79297C14.065 4.99227 12.8602 4.5 11.5233 4.5H10.8192C7.37568 4.50033 4.77929 7.62909 5.41388 11.0137L5.46466 11.2549C5.61296 11.889 5.86878 12.4764 6.20978 13H4.99982C3.59984 13 2.8998 13 2.36505 12.7275C1.89465 12.4879 1.51196 12.1052 1.27228 11.6348C0.999921 11.1 0.999817 10.3999 0.999817 9V4.2002C0.999817 3.08009 0.999603 2.51962 1.21759 2.0918C1.4093 1.71556 1.7154 1.40952 2.09161 1.21777C2.51944 0.999786 3.07991 1 4.20001 1H6.99982L8.99982 3Z" fill="#30A6F9"/>
<path d="M11.5234 6C13.8668 6 15.6489 8.10456 15.2637 10.416C15.1111 11.3301 14.3203 12 13.3936 12H12.333C12.0112 12.0002 11.8187 12.3449 11.9658 12.6143L12.0684 12.7725C12.3619 13.3112 11.9766 14 11.333 14H10.8193C8.89472 13.9998 7.24348 12.629 6.88868 10.7373C6.42714 8.27577 8.31497 6.00022 10.8193 6H11.5234ZM8.50001 8.75C8.08579 8.75 7.75001 9.08579 7.75001 9.5C7.75001 9.91421 8.08579 10.25 8.50001 10.25C8.91422 10.25 9.25001 9.91421 9.25001 9.5C9.25001 9.08579 8.91422 8.75 8.50001 8.75ZM13.75 8.75C13.3358 8.75 13 9.08579 13 9.5C13 9.91421 13.3358 10.25 13.75 10.25C14.1642 10.25 14.5 9.91421 14.5 9.5C14.5 9.08579 14.1642 8.75 13.75 8.75ZM10.083 7.25C9.66895 7.25018 9.33302 7.58589 9.33302 8C9.33302 8.4141 9.66895 8.74982 10.083 8.75C10.4972 8.75 10.833 8.41421 10.833 8C10.833 7.58579 10.4972 7.25 10.083 7.25ZM12.125 7.25C11.7108 7.25 11.375 7.58579 11.375 8C11.375 8.41421 11.7108 8.75 12.125 8.75C12.5392 8.75 12.875 8.41421 12.875 8C12.875 7.58579 12.5392 7.25 12.125 7.25Z" fill="#83C2FE"/>
</svg>
