<svg width="16" height="16" viewBox="0 0 16 16" fill="none" xmlns="http://www.w3.org/2000/svg">
<g clip-path="url(#clip0_203_881)">
<path opacity="0.7" d="M9 2.99971H11C12.3999 2.99971 13.1 2.99984 13.6348 3.27217C14.1052 3.51185 14.4879 3.89456 14.7275 4.36494C14.8688 4.64225 14.935 4.96422 14.9678 5.40498C14.8099 5.40655 14.6505 5.42637 14.4941 5.47041C14.0896 5.58439 13.6888 5.75166 13.2686 5.75166H8.23633C6.90546 5.75187 5.79277 6.76114 5.66016 8.08369L5.63086 8.37666V8.37862C5.55405 9.15449 5.91228 9.78879 6.44824 10.1589C6.9224 10.4864 7.37909 11.0125 7.12988 11.5319L6.99414 11.7917L6.79785 12.1325L6.7959 12.1384C6.6398 12.4123 6.54784 12.7051 6.51465 12.9997H5C3.59992 12.9997 2.90001 12.9997 2.36523 12.7272C1.89495 12.4876 1.51216 12.1057 1.27246 11.6355C0.999977 11.1007 1 10.3998 1 8.99971V4.19991C1 3.08026 1.00003 2.52024 1.21777 2.09248C1.40946 1.71628 1.71564 1.41022 2.0918 1.21846C2.51962 1.00047 3.08009 0.99971 4.2002 0.99971H7L9 2.99971Z" fill="#7E7E92"/>
<path d="M14.8617 7.14078C15.1279 6.8746 15.5771 7.1154 15.5033 7.48453L15.4154 7.923C15.3188 8.40486 14.8961 8.7519 14.4046 8.75211H13.5003V12.0158C13.5004 12.2842 13.7183 12.5021 13.9867 12.5021C14.1705 12.5019 14.339 12.398 14.4212 12.2336L14.5794 11.9171C14.7646 11.5468 15.2149 11.3963 15.5853 11.5812C15.9554 11.7665 16.1061 12.2168 15.9212 12.5871L15.763 12.9044C15.4267 13.5771 14.7387 14.0019 13.9867 14.0021C12.8898 14.0021 12.0004 13.1126 12.0003 12.0158V8.75211H10.5003V9.90836C10.5003 10.9362 10.2659 11.9491 9.81675 12.8693L9.6107 13.258L9.40171 13.6242C9.19628 13.9837 8.73785 14.1087 8.37828 13.9035C8.01867 13.698 7.89356 13.2397 8.09898 12.88L8.30894 12.5138L8.46812 12.2111C8.76755 11.5975 8.9452 10.9314 8.9896 10.2502L9.00035 9.90836V8.75211H7.90757C7.80678 8.75211 7.71034 8.79223 7.63902 8.86343C7.37283 9.12962 6.92261 8.88882 6.99644 8.51968L7.08433 8.08121C7.18084 7.59906 7.60432 7.25211 8.09605 7.25211H14.5921C14.6931 7.25211 14.7903 7.21213 14.8617 7.14078Z" fill="#BEBED1"/>
</g>
<defs>
<clipPath id="clip0_203_881">
<rect width="16" height="16" fill="white"/>
</clipPath>
</defs>
</svg>
