<svg width="16" height="16" viewBox="0 0 16 16" fill="none" xmlns="http://www.w3.org/2000/svg">
<path opacity="0.8" d="M9 3.00038H11C12.4 3.00038 13.1 3.00045 13.6348 3.27284C14.1051 3.51253 14.4879 3.89526 14.7275 4.36562C14.83 4.56679 14.8937 4.79133 14.9336 5.06776C14.4536 4.87315 13.9076 4.82459 13.3613 4.97011L13.3477 4.97304C13.2795 4.86334 13.192 4.76752 13.0879 4.69179L12.9541 4.60976C12.9334 4.59922 12.8436 4.55616 12.5195 4.52968C12.1779 4.50179 11.7246 4.50038 11 4.50038H8.37891L6.37891 2.50038H4.2002C3.61556 2.50038 3.26702 2.50176 3.00879 2.52284C2.88837 2.53268 2.82096 2.54445 2.78809 2.55214L2.77344 2.55507C2.70292 2.59103 2.64182 2.64301 2.5957 2.70644L2.55469 2.77382C2.57139 2.74103 2.54213 2.76843 2.52246 3.00917C2.50141 3.26736 2.5 3.61623 2.5 4.20058V9.00038C2.5 9.72477 2.50141 10.1784 2.5293 10.5199C2.55578 10.8437 2.59884 10.9338 2.60938 10.9545L2.69141 11.0883C2.78363 11.215 2.90493 11.3191 3.0459 11.391L3.14941 11.4252C3.21486 11.4405 3.31854 11.4579 3.48047 11.4711C3.82206 11.499 4.27541 11.5004 5 11.5004H6.75488C6.71526 11.5529 6.67593 11.6053 6.63574 11.6566C6.33528 12.0404 6.12633 12.4992 6.04199 13.0004H5C3.77486 13.0004 3.08562 13.0003 2.57422 12.8178L2.36523 12.7279C1.95388 12.5183 1.60933 12.1993 1.36914 11.808L1.27246 11.6351C1.00009 11.1004 1 10.4001 1 9.00038V4.20058C1 3.22084 1.00061 2.66922 1.14648 2.26015L1.21777 2.09218C1.38552 1.763 1.64093 1.48744 1.9541 1.2953L2.0918 1.21815C2.41263 1.05468 2.80804 1.01354 3.45801 1.00331L4.2002 1.00038H7L9 3.00038Z" fill="#FF4466"/>
<path d="M13.6836 6.43849C14.3311 6.22265 15 6.70515 15 7.38771V12.5L14.9922 12.6533C14.9154 13.4097 14.2767 14 13.5 14C12.6716 14 12 13.3284 12 12.5C12 11.6716 12.6716 11 13.5 11V9.00001L10.5 10V13.5L10.4922 13.6533C10.4154 14.4097 9.77666 15 9 15C8.17158 15 7.50001 14.3284 7.5 13.5C7.5 12.6716 8.17157 12 9 12V8.72072C9.00002 8.2904 9.27542 7.90866 9.68359 7.77247L13.6836 6.43849Z" fill="#FF8197"/>
</svg>
