<svg width="16" height="16" viewBox="0 0 16 16" fill="none" xmlns="http://www.w3.org/2000/svg">
<path opacity="0.8" d="M8.99997 3.00027H11C12.3999 3.00027 13.1 3.00033 13.6347 3.27273C14.1051 3.51241 14.4878 3.89512 14.7275 4.3655C14.9998 4.90023 15 5.60046 15 7.00027V8.43972C14.9235 8.39579 14.8438 8.3514 14.7617 8.30691L14.2021 8.01199L13.5 7.64675V7.00027C13.5 6.27585 13.4985 5.8223 13.4707 5.48074C13.4575 5.31894 13.4401 5.21513 13.4248 5.14968L13.3906 5.04617C13.3187 4.90514 13.2147 4.78391 13.0879 4.69167L12.9541 4.60964C12.9334 4.5991 12.8436 4.55605 12.5195 4.52956C12.1779 4.50168 11.7246 4.50027 11 4.50027H8.37888L6.37888 2.50027H4.20016C3.61555 2.50027 3.26699 2.50165 3.00876 2.52273C2.88836 2.53257 2.82092 2.54434 2.78806 2.55202L2.77341 2.55495C2.70288 2.59092 2.64179 2.64288 2.59567 2.70632L2.55466 2.7737C2.57136 2.74091 2.5421 2.76831 2.52243 3.00906C2.50137 3.26726 2.49997 3.61603 2.49997 4.20046V9.00027C2.49997 9.72472 2.50138 10.1782 2.52927 10.5198C2.55575 10.8437 2.59881 10.9337 2.60934 10.9544L2.69138 11.0882C2.78361 11.215 2.90487 11.319 3.04587 11.3909L3.14938 11.4251C3.21482 11.4404 3.31847 11.4577 3.48044 11.471C3.82203 11.4989 4.27538 11.5003 4.99997 11.5003H7.49997V12.1175C7.49997 12.423 7.50025 12.7256 7.51071 13.0003H4.99997C3.7748 13.0003 3.08559 13.0002 2.57419 12.8176L2.3652 12.7278C1.95381 12.5182 1.6093 12.1992 1.36911 11.8079L1.27243 11.635C1.00005 11.1003 0.999969 10.4001 0.999969 9.00027V4.20046C0.999969 3.22065 1.00055 2.66912 1.14645 2.26003L1.21774 2.09206C1.38549 1.76288 1.64088 1.48733 1.95407 1.29519L2.09177 1.21804C2.41259 1.05457 2.80802 1.01342 3.45798 1.0032L4.20016 1.00027H6.99997L8.99997 3.00027Z" fill="#9B61FF"/>
<path d="M9 9.63418V12.1172C9 13.0582 9 13.5288 9.19699 13.7942C9.3687 14.0256 9.63187 14.1716 9.91905 14.195C10.2485 14.2217 10.6478 13.9728 11.4464 13.475L13.619 12.1206C14.3991 11.6343 14.7891 11.3912 14.9109 11.088C15.017 10.8237 15.0054 10.5266 14.8789 10.2713C14.7338 9.97859 14.3259 9.76671 13.5102 9.34297L11.3376 8.21433C10.5653 7.81315 10.1792 7.61256 9.86456 7.65558C9.5899 7.69312 9.34315 7.843 9.18321 8.06943C9 8.3288 9 8.76393 9 9.63418Z" fill="#BDA1FF"/>
</svg>
