<svg width="16" height="16" viewBox="0 0 16 16" fill="none" xmlns="http://www.w3.org/2000/svg">
<path opacity="0.8" d="M9 3H11C12.4 3 13.1 3.00007 13.6348 3.27246C14.1052 3.51214 14.4879 3.89483 14.7275 4.36523C14.8902 4.68462 14.9541 5.06303 14.9805 5.61426C13.9987 4.91364 12.798 4.5 11.5 4.5C8.18629 4.5 5.5 7.18629 5.5 10.5C5.5 11.3925 5.6964 12.2388 6.0459 13H5C3.60002 13 2.89999 12.9999 2.36523 12.7275C1.89483 12.4879 1.51214 12.1052 1.27246 11.6348C1.00007 11.1 1 10.4 1 9V4.2002C1 3.08009 0.999786 2.51962 1.21777 2.0918C1.40951 1.71554 1.71554 1.40951 2.0918 1.21777C2.51962 0.999786 3.08009 1 4.2002 1H7L9 3Z" fill="#30A6F9"/>
<path d="M12.7598 12.9355C12.4928 14.1774 12.0292 15 11.5 15C10.9707 15 10.5063 14.1775 10.2393 12.9355C10.6451 12.9759 11.0673 13 11.5 13C11.9324 13 12.3542 12.9758 12.7598 12.9355ZM7.32129 12.1709C7.46604 12.2455 7.61888 12.3151 7.77832 12.3789C8.19319 12.5449 8.6698 12.6785 9.18945 12.7812C9.26757 13.2231 9.36851 13.6328 9.49023 13.998C9.56478 14.2217 9.65222 14.4412 9.75293 14.6484C8.64736 14.1823 7.76782 13.2866 7.32129 12.1709ZM15.6777 12.1709C15.231 13.2867 14.3519 14.1824 13.2461 14.6484C13.3469 14.4411 13.4352 14.2218 13.5098 13.998C13.6315 13.6329 13.7315 13.223 13.8096 12.7812C14.3296 12.6785 14.8066 12.545 15.2217 12.3789C15.3808 12.3152 15.5332 12.2454 15.6777 12.1709ZM12.9854 9.91211C12.9937 10.1045 13 10.3007 13 10.5C13 10.9941 12.9719 11.4693 12.9229 11.9141C12.4765 11.9695 11.9987 12 11.5 12C11.0009 12 10.5228 11.9696 10.0762 11.9141C10.0271 11.4694 10 10.994 10 10.5C10 10.3007 10.0053 10.1045 10.0137 9.91211C10.4877 9.9684 10.9865 10 11.5 10C12.0131 10 12.5116 9.96833 12.9854 9.91211ZM7.21777 9.11523C7.39248 9.21126 7.58023 9.29966 7.77832 9.37891C8.14794 9.52676 8.5662 9.65092 9.02051 9.74902C9.00772 9.99528 9 10.2461 9 10.5C9 10.9203 9.01919 11.332 9.05371 11.7285C8.72111 11.6489 8.41732 11.5569 8.15039 11.4502C7.73284 11.2832 7.42811 11.0964 7.23633 10.915C7.04574 10.7347 7 10.5943 7 10.5C7 10.0168 7.07679 9.55153 7.21777 9.11523ZM15.7812 9.11523C15.9223 9.55162 16 10.0167 16 10.5C16 10.5943 15.9543 10.7347 15.7637 10.915C15.5719 11.0964 15.2672 11.2832 14.8496 11.4502C14.5824 11.557 14.2783 11.6489 13.9453 11.7285C13.9798 11.332 14 10.9203 14 10.5C14 10.246 13.9913 9.99529 13.9785 9.74902C14.4332 9.65089 14.8518 9.52686 15.2217 9.37891C15.4195 9.29977 15.6068 9.2111 15.7812 9.11523ZM11.5 6C12.1426 6 12.6887 7.21237 12.9023 8.91602C12.4619 8.96984 11.9911 9 11.5 9C11.0085 9 10.5374 8.96991 10.0967 8.91602C10.3103 7.21231 10.8574 6 11.5 6ZM9.75293 6.35059C9.65205 6.55809 9.56487 6.77804 9.49023 7.00195C9.3217 7.50763 9.19458 8.09883 9.11133 8.74219C8.75604 8.65991 8.43267 8.56309 8.15039 8.4502C7.95182 8.37077 7.77936 8.28585 7.63184 8.2002C8.12119 7.37889 8.86383 6.72539 9.75293 6.35059ZM13.2461 6.35059C14.1354 6.72527 14.8777 7.37884 15.3672 8.2002C15.2198 8.2857 15.0479 8.3709 14.8496 8.4502C14.5671 8.56318 14.2434 8.65986 13.8877 8.74219C13.8044 8.09888 13.6783 7.50759 13.5098 7.00195C13.4351 6.7779 13.3471 6.5582 13.2461 6.35059Z" fill="#83C2FE"/>
</svg>
