<svg width="16" height="16" viewBox="0 0 16 16" fill="none" xmlns="http://www.w3.org/2000/svg">
<path opacity="0.8" d="M9 3.00032H11C12.4 3.00032 13.1 3.00039 13.6348 3.27279C14.1051 3.51247 14.4879 3.8952 14.7275 4.36556C14.9674 4.83672 14.9937 5.43617 14.9971 6.52962C14.9881 6.52444 14.9798 6.51811 14.9707 6.51302L13.4814 5.67513C13.478 5.60623 13.4757 5.54169 13.4707 5.48079C13.4575 5.31905 13.4401 5.21519 13.4248 5.14974L13.3906 5.04622C13.3187 4.90522 13.2147 4.78397 13.0879 4.69173L12.9541 4.6097C12.9334 4.59916 12.8436 4.5561 12.5195 4.52962C12.1779 4.50173 11.7246 4.50032 11 4.50032H8.37891L6.37891 2.50032H4.2002C3.61556 2.50032 3.26702 2.5017 3.00879 2.52279C2.88837 2.53262 2.82096 2.5444 2.78809 2.55208L2.77344 2.55501C2.70291 2.59097 2.64183 2.64294 2.5957 2.70638L2.55469 2.77376C2.57139 2.74097 2.54213 2.76837 2.52246 3.00911C2.5014 3.26731 2.5 3.61612 2.5 4.20052V9.00032C2.5 9.72474 2.50141 10.1783 2.5293 10.5199C2.55578 10.8437 2.59884 10.9337 2.60938 10.9544L2.69141 11.0882C2.78364 11.215 2.90492 11.3191 3.0459 11.3909L3.14941 11.4251C3.21486 11.4405 3.31853 11.4578 3.48047 11.471C3.82206 11.4989 4.27541 11.5003 5 11.5003H5.5V11.8734C5.50008 12.2664 5.57854 12.6478 5.72168 13.0003H5C3.77485 13.0003 3.08562 13.0003 2.57422 12.8177L2.36523 12.7279C1.95386 12.5183 1.60933 12.1993 1.36914 11.8079L1.27246 11.6351C1.00009 11.1004 1 10.4001 1 9.00032V4.20052C1 3.22074 1.00059 2.66917 1.14648 2.26009L1.21777 2.09212C1.38552 1.76294 1.64091 1.48739 1.9541 1.29525L2.0918 1.2181C2.41263 1.05463 2.80803 1.01348 3.45801 1.00325L4.2002 1.00032H7L9 3.00032Z" fill="#FF9B20"/>
<path d="M10.2646 6.41349C10.7212 6.15677 11.2788 6.15677 11.7354 6.41349L12.9434 7.0922C12.6843 7.09178 12.4246 7.15691 12.1914 7.29142L9.25 8.98966C8.786 9.25756 8.50012 9.75273 8.5 10.2885V11.1342C8.50002 11.3127 8.5954 11.4775 8.75 11.5668L9.125 11.7836C9.29167 11.8798 9.5 11.7593 9.5 11.5668V10.5678C9.50008 10.2158 9.68514 9.88982 9.9873 9.70939L12.9502 7.94181C13.3446 7.7065 13.8213 7.66744 14.2441 7.8256C14.7111 8.09253 15 8.58893 15 9.12736V11.8725C15 12.4144 14.7076 12.9144 14.2354 13.1801L11.7354 14.5863C11.2787 14.8432 10.7213 14.8432 10.2646 14.5863L7.76465 13.1801C7.29235 12.9144 7 12.4144 7 11.8725V9.12736C7.00003 8.58548 7.29235 8.08541 7.76465 7.81974L10.2646 6.41349Z" fill="#FFC076"/>
</svg>
