<svg width="16" height="16" viewBox="0 0 16 16" fill="none" xmlns="http://www.w3.org/2000/svg">
<path opacity="0.8" d="M9.00021 2.99966H11.0002C12.4001 2.99966 13.1002 2.99973 13.635 3.27213C14.1054 3.51181 14.4881 3.89449 14.7278 4.3649C14.8992 4.70134 14.962 5.10334 14.9856 5.70377C14.6859 5.57848 14.4017 5.53643 14.1789 5.51822C13.9372 5.49848 13.6556 5.49966 13.4006 5.49966H12.1633C12.0334 5.49966 11.814 5.49454 11.5744 5.52505L11.3313 5.569C11.14 5.61491 10.9544 5.68307 10.7795 5.77213L10.6086 5.86783C10.465 5.95581 10.3357 6.06041 10.2278 6.15787L9.97092 6.40787L7.07053 9.30728C6.89012 9.48769 6.69051 9.68672 6.53342 9.87173C6.38597 10.0454 6.20992 10.2814 6.08615 10.5905L6.03635 10.7272C5.87332 11.2291 5.87337 11.7702 6.03635 12.2721L6.08615 12.4088C6.18197 12.6483 6.3099 12.843 6.43088 12.9997H5.00021C3.60026 12.9997 2.9002 12.9996 2.36545 12.7272C1.89518 12.4876 1.51237 12.1056 1.27267 11.6354C1.00019 11.1006 1.00021 10.3998 1.00021 8.99966V4.19986C1.00021 3.08014 1.00018 2.5202 1.21799 2.09244C1.4097 1.71617 1.71577 1.41017 2.09201 1.21841C2.51983 1.00043 3.0803 0.999664 4.20041 0.999664H7.00021L9.00021 2.99966Z" fill="#4D72F7"/>
<path d="M13.3995 7C13.9596 7 14.2403 7.00038 14.4542 7.10938C14.6422 7.20523 14.7949 7.35794 14.8908 7.5459C14.9997 7.75976 15.0001 8.03982 15.0001 8.59961V9.83691C15.0001 10.0815 15.0004 10.2042 14.9728 10.3193C14.9483 10.4214 14.9075 10.5189 14.8527 10.6084C14.7908 10.7093 14.7043 10.7958 14.5314 10.9688L11.631 13.8682C11.235 14.2642 11.0371 14.4629 10.8087 14.5371C10.608 14.6023 10.3913 14.6023 10.1906 14.5371C9.96235 14.4628 9.76415 14.264 9.3683 13.8682L8.13099 12.6318C7.73498 12.2358 7.53721 12.0369 7.46302 11.8086C7.39795 11.608 7.39795 11.392 7.46302 11.1914C7.53721 10.9631 7.73498 10.7642 8.13099 10.3682L11.0314 7.46875C11.2043 7.29581 11.2908 7.2093 11.3917 7.14746C11.4812 7.09263 11.5788 7.05184 11.6808 7.02734C11.7958 6.99976 11.918 7 12.1622 7H13.3995ZM12.5001 8.5C11.9478 8.5 11.5001 8.94772 11.5001 9.5C11.5001 10.0523 11.9478 10.5 12.5001 10.5C13.0523 10.4999 13.5001 10.0522 13.5001 9.5C13.5001 8.94777 13.0523 8.50008 12.5001 8.5Z" fill="#94BAFF"/>
</svg>
