<svg width="16" height="16" viewBox="0 0 16 16" fill="none" xmlns="http://www.w3.org/2000/svg">
<path opacity="0.7" d="M9.00031 3.0004H11.0003C12.4001 3.0004 13.1004 3.00049 13.6351 3.27287C14.1053 3.51256 14.4882 3.89537 14.7278 4.36564C15 4.90034 15.0003 5.60082 15.0003 7.0004V8.08341L13.9466 6.43497C13.8116 6.22375 13.6568 6.03644 13.4886 5.87052C13.4842 5.72391 13.4804 5.596 13.471 5.48087C13.4578 5.31925 13.4404 5.21528 13.4251 5.14982L13.3909 5.0463C13.3191 4.90539 13.2149 4.78403 13.0882 4.69181L12.9544 4.60978C12.9337 4.59924 12.8437 4.55619 12.5198 4.5297C12.1783 4.50182 11.7247 4.5004 11.0003 4.5004H8.37921L6.37921 2.5004H4.2005C3.61607 2.5004 3.2673 2.5018 3.00909 2.52287C2.8889 2.53269 2.82134 2.54447 2.78839 2.55216L2.77374 2.55509C2.70316 2.59106 2.64216 2.64298 2.59601 2.70646L2.55499 2.77384C2.5717 2.74105 2.54244 2.76845 2.52277 3.00919C2.50171 3.26739 2.50031 3.61625 2.50031 4.2006V9.0004C2.50031 9.72478 2.50172 10.1784 2.5296 10.5199C2.55609 10.8437 2.59914 10.9338 2.60968 10.9545L2.69171 11.0883C2.78392 11.215 2.9053 11.3192 3.0462 11.391L3.14972 11.4252C3.21518 11.4405 3.31909 11.4579 3.48077 11.4711C3.82233 11.499 4.27594 11.5004 5.00031 11.5004H5.50323C5.37089 12.0046 5.37021 12.5171 5.48077 13.0004H5.00031C3.77539 13.0004 3.0859 13.0002 2.57452 12.8178L2.36554 12.7279C1.95424 12.5184 1.60963 12.1992 1.36945 11.808L1.27277 11.6352C1.0004 11.1005 1.00031 10.4001 1.00031 9.0004V4.2006C1.00031 3.2208 1.00089 2.66925 1.14679 2.26017L1.21808 2.0922C1.38585 1.76297 1.64115 1.48747 1.95441 1.29533L2.0921 1.21818C2.41292 1.05474 2.80839 1.01356 3.45831 1.00333L4.2005 1.0004H7.00031L9.00031 3.0004Z" fill="#7E7E92"/>
<path d="M8.75 10.5C9.7165 10.5 10.5 11.2835 10.5 12.25C10.5 13.2165 9.7165 14 8.75 14C7.7835 14 7 13.2165 7 12.25C7 11.2835 7.7835 10.5 8.75 10.5ZM13.75 10.5C14.7165 10.5 15.5 11.2835 15.5 12.25C15.5 13.2165 14.7165 14 13.75 14C12.7835 14 12 13.2165 12 12.25C12 11.2835 12.7835 10.5 13.75 10.5ZM11.25 6.5C12.2165 6.5 13 7.2835 13 8.25C13 9.2165 12.2165 10 11.25 10C10.2835 10 9.5 9.2165 9.5 8.25C9.5 7.2835 10.2835 6.5 11.25 6.5Z" fill="#BEBED1"/>
</svg>
