<svg width="16" height="16" viewBox="0 0 16 16" fill="none" xmlns="http://www.w3.org/2000/svg">
<g clip-path="url(#clip0_270_1063)">
<path opacity="0.8" d="M9 3.00023H11C12.4001 3.00023 13.1 3.00025 13.6348 3.27269C14.1052 3.51237 14.4879 3.89506 14.7275 4.36546C14.9223 4.74794 14.9764 5.21495 14.9922 5.96214L13.4727 5.10765C12.5574 4.59284 11.4395 4.59379 10.5254 5.11058L7.02344 7.09105C6.08223 7.62332 5.50007 8.62109 5.5 9.70238V12.4504C5.50002 12.637 5.51922 12.8206 5.55273 13.0002H5C3.6001 13.0002 2.89998 13.0001 2.36523 12.7278C1.89483 12.4881 1.51214 12.1054 1.27246 11.635C0.999992 11.1002 1 10.4002 1 9.00023V4.20042C1 3.0804 0.999833 2.51984 1.21777 2.09203C1.40949 1.71576 1.71556 1.40975 2.0918 1.218C2.51962 1.00002 3.08009 1.00023 4.2002 1.00023H7L9 3.00023Z" fill="#FF4466"/>
<path d="M11.2639 6.41631C11.7209 6.15798 12.2799 6.15699 12.7375 6.41435L15.2355 7.81963C15.7078 8.0853 16.0002 8.58535 16.0002 9.12724V11.8753C16.0001 12.4159 15.709 12.9149 15.2385 13.181L11.7365 15.1614C11.2795 15.4198 10.7205 15.4198 10.2629 15.1624L7.76483 13.7571C7.29263 13.4915 7.00033 12.9922 7.00018 12.4505V9.70244C7.00018 9.16174 7.29124 8.66292 7.7619 8.39677L11.2639 6.41631ZM14.9328 8.80693C14.812 8.59795 14.5634 8.50908 14.343 8.58232L14.2502 8.62431L11.0012 10.5003L8.75018 9.20146L8.65741 9.15947C8.43701 9.08624 8.18837 9.17521 8.06757 9.38408C7.92961 9.6232 8.01108 9.92963 8.25018 10.0677L10.5002 11.3665V13.5003C10.5003 13.7763 10.7241 14.0003 11.0002 14.0003C11.2761 14.0002 11.5 13.7762 11.5002 13.5003V11.3665L14.7502 9.48955L14.8322 9.43095C15.0063 9.27675 15.0534 9.0162 14.9328 8.80693Z" fill="#FF8197"/>
</g>
<defs>
<clipPath id="clip0_270_1063">
<rect width="16" height="16" fill="white"/>
</clipPath>
</defs>
</svg>
