<svg width="16" height="16" viewBox="0 0 16 16" fill="none" xmlns="http://www.w3.org/2000/svg">
<path opacity="0.8" d="M9 3.00031H11C12.4001 3.00031 13.1 3.00031 13.6348 3.27277C14.1051 3.51239 14.4878 3.89432 14.7275 4.36456C14.9676 4.83579 14.9937 5.43582 14.9971 6.5296C14.9881 6.52442 14.9798 6.51809 14.9707 6.513L12.4707 5.10675C11.5575 4.59305 10.4425 4.59305 9.5293 5.10675L7.0293 6.513C6.08484 7.04432 5.50011 8.04361 5.5 9.12726V11.8734C5.50008 12.2664 5.57854 12.6477 5.72168 13.0003H5C3.60013 13.0003 2.89998 13.0002 2.36523 12.7278C1.89485 12.4882 1.51215 12.1054 1.27246 11.6351C0.999997 11.1003 1 10.4002 1 9.00031V4.19952C1 3.07987 0.999896 2.51985 1.21777 2.0921C1.40948 1.71585 1.71557 1.40983 2.0918 1.21808C2.51962 1.00009 3.08009 1.00031 4.2002 1.00031H7L9 3.00031Z" fill="#FF4466"/>
<path d="M10.2646 6.41403C10.7212 6.1573 11.2788 6.1573 11.7354 6.41403L14.2354 7.82028C14.7074 8.08586 14.9997 8.58533 15 9.12692V11.873L14.9863 12.0732C14.924 12.5356 14.6486 12.9471 14.2354 13.1797L11.7354 14.5859L11.5596 14.6709C11.2007 14.8152 10.7993 14.8152 10.4404 14.6709L10.2646 14.5859L7.76465 13.1797C7.35145 12.9471 7.07598 12.5356 7.01367 12.0732L7 11.873V9.12692C7.00022 8.65304 7.22357 8.21057 7.5957 7.92965L7.76465 7.82028L10.2646 6.41403ZM8 11.873C8.00011 12.0535 8.09763 12.22 8.25488 12.3086L10.5 13.5713V10.788L8 9.34469V11.873ZM11.5 10.788V13.5713L13.7451 12.3086L13.8018 12.2714C13.9254 12.1778 13.9999 12.0307 14 11.873V9.34469L11.5 10.788ZM11.2451 7.28512C11.093 7.19966 10.907 7.19966 10.7549 7.28512L8.56445 8.51657L11 9.92282L13.4346 8.51657L11.2451 7.28512Z" fill="#FF8197"/>
</svg>
