<svg width="16" height="16" viewBox="0 0 16 16" fill="none" xmlns="http://www.w3.org/2000/svg">
<path opacity="0.8" d="M9 3H11C12.4 3 13.1 3.00007 13.6348 3.27246C14.1052 3.51214 14.4879 3.89483 14.7275 4.36523C14.895 4.69397 14.9585 5.08521 14.9834 5.66309C14.8395 5.55552 14.6979 5.46178 14.5645 5.38184L14.2393 5.20312C13.9188 5.04289 13.5761 4.91391 13.2207 4.80957C13.1797 4.76673 13.136 4.72641 13.0879 4.69141L12.9541 4.60938C12.9334 4.59883 12.8436 4.55578 12.5195 4.5293C12.1779 4.50141 11.7246 4.5 11 4.5H8.37891L6.37891 2.5H4.2002C3.61556 2.5 3.26702 2.50138 3.00879 2.52246C2.88835 2.5323 2.82096 2.54407 2.78809 2.55176L2.77344 2.55469C2.70286 2.59065 2.64185 2.64258 2.5957 2.70605L2.55469 2.77344C2.57139 2.74065 2.54213 2.76805 2.52246 3.00879C2.50138 3.26702 2.5 3.61556 2.5 4.2002V9C2.5 9.72461 2.50141 10.1779 2.5293 10.5195C2.55578 10.8437 2.59883 10.9334 2.60938 10.9541L2.69141 11.0879C2.78366 11.2148 2.90484 11.3187 3.0459 11.3906L3.14941 11.4248C3.21485 11.4402 3.31847 11.4575 3.48047 11.4707C3.82206 11.4986 4.27539 11.5 5 11.5H5.5V12.5C5.5 12.674 5.51273 12.8406 5.53613 13H5C3.77477 13 3.08563 13 2.57422 12.8174L2.36523 12.7275C1.95378 12.5179 1.60933 12.199 1.36914 11.8076L1.27246 11.6348C1.00007 11.1 1 10.4 1 9V4.2002C1 3.22019 1.00049 2.66887 1.14648 2.25977L1.21777 2.0918C1.38555 1.76256 1.64085 1.48707 1.9541 1.29492L2.0918 1.21777C2.41263 1.0543 2.80803 1.01315 3.45801 1.00293L4.2002 1H7L9 3Z" fill="#FD7334"/>
<path d="M15 12.5C15 13.497 14.2176 14.1305 13.5684 14.4551C12.8594 14.8095 11.9499 15 11 15C10.0501 15 9.14063 14.8095 8.43164 14.4551C7.78244 14.1305 7 13.497 7 12.5V11.626C7.19823 11.8103 7.415 11.9746 7.6416 12.1162C8.548 12.6826 9.7381 13 11 13C12.2619 13 13.452 12.6826 14.3584 12.1162C14.585 11.9746 14.8018 11.8103 15 11.626V12.5ZM11 6C11.9499 6 12.8594 6.19046 13.5684 6.54492C14.2176 6.86952 15 7.50296 15 8.5V9.5C15 10.8807 13.2091 12 11 12C8.79086 12 7 10.8807 7 9.5V8.5C7 7.50296 7.78244 6.86952 8.43164 6.54492C9.14063 6.19046 10.0501 6 11 6ZM11 7C9.34315 7 8 7.67157 8 8.5C8 9.32843 9.34315 10 11 10C12.6569 10 14 9.32843 14 8.5C14 7.67157 12.6569 7 11 7Z" fill="#FFA366"/>
</svg>
