<svg width="16" height="16" viewBox="0 0 16 16" fill="none" xmlns="http://www.w3.org/2000/svg">
<path opacity="0.8" d="M8.99969 3.00047H10.9997C12.3996 3.00047 13.0997 3.00056 13.6345 3.27293C14.1049 3.51262 14.4876 3.8953 14.7272 4.36571C14.9436 4.79071 14.9867 5.31995 14.9958 6.22215C14.5388 5.73909 13.9954 5.33888 13.3903 5.04637L13.3307 4.94383C13.2653 4.84598 13.1827 4.76103 13.0876 4.69188L12.9538 4.60985C12.933 4.59927 12.8431 4.55623 12.5192 4.52977C12.1777 4.5019 11.7241 4.50047 10.9997 4.50047H8.3786L6.3786 2.50047H4.19989C3.61543 2.50047 3.26667 2.50185 3.00848 2.52293C2.88826 2.53277 2.82062 2.54455 2.78778 2.55223L2.77313 2.55516C2.70273 2.59112 2.64146 2.64318 2.5954 2.70653L2.55438 2.77391C2.57109 2.74112 2.54183 2.76852 2.52216 3.00926C2.50111 3.26744 2.49969 3.61641 2.49969 4.20067V9.00047C2.4997 9.7248 2.50111 10.1785 2.52899 10.52C2.55548 10.8438 2.59853 10.9339 2.60907 10.9546L2.6911 11.0884C2.78333 11.2152 2.90461 11.3192 3.04559 11.3911L3.14911 11.4253C3.21451 11.4406 3.31831 11.4579 3.48016 11.4712C3.82171 11.4991 4.27526 11.5005 4.99969 11.5005H5.71649C5.73278 11.5747 5.75175 11.6505 5.77704 11.727L5.84833 11.9311C5.99011 12.309 6.17294 12.6673 6.39032 13.0005H4.99969C3.77465 13.0005 3.08529 13.0004 2.57391 12.8179L2.36493 12.728C1.95357 12.5184 1.60901 12.1994 1.36884 11.8081L1.27216 11.6352C0.999793 11.1005 0.999695 10.4001 0.999695 9.00047V4.20067C0.999695 3.22107 1.00037 2.6693 1.14618 2.26024L1.21747 2.09227C1.38517 1.76318 1.64074 1.48753 1.9538 1.29539L2.09149 1.21825C2.41227 1.0548 2.80791 1.01363 3.4577 1.0034L4.19989 1.00047H6.99969L8.99969 3.00047Z" fill="#9B61FF"/>
<path d="M11.8318 6.87268C11.6655 6.49902 11.9695 6.09892 12.3544 6.2373C13.8968 6.79185 14.9996 8.26615 14.9998 9.99963C14.9998 12.2088 13.2089 13.9996 10.9998 13.9996C9.26615 13.9995 7.79116 12.8967 7.23648 11.3542C7.09808 10.9694 7.4982 10.6653 7.87187 10.8317C10.3822 11.9474 12.9473 9.38303 11.8318 6.87268Z" fill="#BDA1FF"/>
</svg>
