<svg width="16" height="16" viewBox="0 0 16 16" fill="none" xmlns="http://www.w3.org/2000/svg">
<path opacity="0.8" d="M8.99966 3.00027H10.9997C12.3995 3.00027 13.0997 3.00042 13.6344 3.27274C14.1048 3.51242 14.4875 3.8951 14.7272 4.36551C14.9437 4.79051 14.9866 5.31975 14.9958 6.22195C14.5387 5.73892 13.9954 5.33866 13.3903 5.04617L13.3307 4.94363C13.2652 4.84583 13.1826 4.7608 13.0876 4.69168L12.9538 4.60965C12.9328 4.59897 12.8425 4.55599 12.5192 4.52957C12.1776 4.50171 11.7241 4.50027 10.9997 4.50027H8.37857L6.37857 2.50027H4.19986C3.61542 2.50028 3.26664 2.50166 3.00845 2.52274C2.88824 2.53257 2.82059 2.54435 2.78775 2.55203L2.7731 2.55496C2.70268 2.59092 2.64144 2.64297 2.59537 2.70633L2.55435 2.77371C2.57106 2.74092 2.54179 2.76832 2.52213 3.00906C2.50107 3.26727 2.49966 3.61606 2.49966 4.20047V9.00027C2.49966 9.72472 2.50108 10.1783 2.52896 10.5198C2.55544 10.8437 2.5985 10.9337 2.60904 10.9544L2.69107 11.0882C2.78329 11.215 2.90458 11.319 3.04556 11.3909L3.14908 11.4251C3.21448 11.4404 3.31831 11.4577 3.48013 11.471C3.82168 11.4989 4.27525 11.5003 4.99966 11.5003H5.71646C5.73278 11.5747 5.75164 11.6511 5.77701 11.7278L5.8483 11.9319C5.99005 12.3096 6.17301 12.6672 6.39029 13.0003H4.99966C3.77464 13.0003 3.08525 13.0002 2.57388 12.8177L2.3649 12.7278C1.95353 12.5182 1.60897 12.1992 1.3688 11.8079L1.27213 11.635C0.99975 11.1003 0.999664 10.4001 0.999664 9.00027V4.20047C0.999664 3.22074 1.00028 2.66911 1.14615 2.26004L1.21744 2.09207C1.38515 1.76297 1.64068 1.48733 1.95377 1.2952L2.09146 1.21805C2.41223 1.05461 2.8079 1.01344 3.45767 1.0032L4.19986 1.00027H6.99966L8.99966 3.00027Z" fill="#9B61FF"/>
<path d="M11.8318 6.87268C11.6655 6.49902 11.9695 6.09892 12.3544 6.2373C13.8968 6.79185 14.9996 8.26615 14.9998 9.99963C14.9998 12.2088 13.2089 13.9996 10.9998 13.9996C9.26615 13.9995 7.79116 12.8967 7.23648 11.3542C7.09808 10.9694 7.4982 10.6653 7.87187 10.8317C10.3822 11.9474 12.9473 9.38303 11.8318 6.87268Z" fill="#BDA1FF"/>
</svg>
