<svg width="16" height="16" viewBox="0 0 16 16" fill="none" xmlns="http://www.w3.org/2000/svg">
<path opacity="0.8" d="M9 2.99999H11C12.4 2.99999 13.1 3.00006 13.6348 3.27245C14.1052 3.51214 14.4879 3.89483 14.7275 4.36523C14.8007 4.50889 14.8525 4.66488 14.8916 4.84277C14.8818 4.83763 14.8722 4.83217 14.8623 4.82714C14.4552 4.6197 14.0499 4.5534 13.707 4.52538C13.3817 4.49883 12.9948 4.49999 12.5996 4.49999H8.37891L6.37891 2.49999H4.2002C3.61556 2.49999 3.26702 2.50137 3.00879 2.52245C2.88836 2.53229 2.82096 2.54406 2.78809 2.55175L2.77344 2.55468C2.70286 2.59064 2.64185 2.64257 2.5957 2.70605L2.55469 2.77343C2.57139 2.74064 2.54213 2.76805 2.52246 3.00878C2.50138 3.26701 2.5 3.61555 2.5 4.20019V8.99999C2.5 9.72459 2.50141 10.1779 2.5293 10.5195C2.55577 10.8436 2.59883 10.9334 2.60938 10.9541L2.69141 11.0879C2.78365 11.2148 2.90484 11.3187 3.0459 11.3906L3.14941 11.4248C3.21485 11.4401 3.31847 11.4575 3.48047 11.4707C3.82206 11.4986 4.2754 11.5 5 11.5H7V13H5C3.77477 13 3.08563 13 2.57422 12.8174L2.36523 12.7275C1.95378 12.5179 1.60933 12.199 1.36914 11.8076L1.27246 11.6348C1.00007 11.1 1 10.4 1 8.99999V4.20019C1 3.22018 1.00049 2.66887 1.14648 2.25976L1.21777 2.09179C1.38555 1.76256 1.64085 1.48706 1.9541 1.29491L2.0918 1.21777C2.41263 1.0543 2.80804 1.01315 3.45801 1.00292L4.2002 0.999992H7L9 2.99999Z" fill="#30A6F9"/>
<path d="M8.5 8.4C8.5 7.55992 8.5 7.13988 8.66349 6.81901C8.8073 6.53677 9.03677 6.3073 9.31901 6.16349C9.63988 6 10.0599 6 10.9 6H12.6C13.4401 6 13.8601 6 14.181 6.16349C14.4632 6.3073 14.6927 6.53677 14.8365 6.81901C15 7.13988 15 7.55992 15 8.4V13.0683C15 13.5361 15 13.77 14.902 13.9025C14.8166 14.018 14.6856 14.0912 14.5425 14.1034C14.3783 14.1174 14.1791 13.9948 13.7807 13.7497L12.1693 12.758C12.017 12.6643 11.9409 12.6175 11.8594 12.5992C11.7874 12.583 11.7126 12.583 11.6406 12.5992C11.5591 12.6175 11.483 12.6643 11.3307 12.758L9.71928 13.7497C9.3209 13.9948 9.1217 14.1174 8.95751 14.1034C8.81437 14.0912 8.6834 14.018 8.59798 13.9025C8.5 13.77 8.5 13.5361 8.5 13.0683V8.4Z" fill="#83C2FE"/>
</svg>
