<svg width="16" height="16" viewBox="0 0 16 16" fill="none" xmlns="http://www.w3.org/2000/svg">
<path opacity="0.8" d="M9 3H11C12.4 3 13.1 3.00007 13.6348 3.27246C14.1052 3.51214 14.4879 3.89483 14.7275 4.36523C14.9999 4.89999 15 5.60002 15 7V7.14551L14.6182 6.38184L14.5332 6.22656C14.2737 5.78798 13.8898 5.44659 13.4404 5.23633C13.4347 5.20184 13.4303 5.17302 13.4248 5.14941L13.3906 5.0459C13.3187 4.90484 13.2148 4.78366 13.0879 4.69141L12.9541 4.60938C12.9334 4.59883 12.8436 4.55578 12.5195 4.5293C12.1779 4.50141 11.7246 4.5 11 4.5H8.37891L6.37891 2.5H4.2002C3.61556 2.5 3.26702 2.50138 3.00879 2.52246C2.88835 2.5323 2.82096 2.54407 2.78809 2.55176L2.77344 2.55469C2.70286 2.59065 2.64185 2.64258 2.5957 2.70605L2.55469 2.77344C2.57139 2.74065 2.54213 2.76805 2.52246 3.00879C2.50138 3.26702 2.5 3.61556 2.5 4.2002V9C2.5 9.72461 2.50141 10.1779 2.5293 10.5195C2.55578 10.8437 2.59883 10.9334 2.60938 10.9541L2.69141 11.0879C2.78366 11.2148 2.90484 11.3187 3.0459 11.3906L3.14941 11.4248C3.21485 11.4402 3.31847 11.4575 3.48047 11.4707C3.82206 11.4986 4.27539 11.5 5 11.5H7V11.75C7 12.1827 7.0586 12.6017 7.16699 13H5C3.77477 13 3.08563 13 2.57422 12.8174L2.36523 12.7275C1.95378 12.5179 1.60933 12.199 1.36914 11.8076L1.27246 11.6348C1.00007 11.1 1 10.4 1 9V4.2002C1 3.22019 1.00049 2.66887 1.14648 2.25977L1.21777 2.0918C1.38555 1.76256 1.64085 1.48707 1.9541 1.29492L2.0918 1.21777C2.41263 1.0543 2.80803 1.01315 3.45801 1.00293L4.2002 1H7L9 3Z" fill="#9B61FF"/>
<path d="M11 7.5V7.96447C11 8.62751 11.2634 9.26339 11.7322 9.73223L12.4968 10.4968C12.819 10.819 13 11.256 13 11.7116V11.75C13 12.4404 12.4404 13 11.75 13C11.0596 13 10.5 12.4404 10.5 11.75V11L9.3 10.1C8.97038 9.85279 8.5 10.088 8.5 10.5V11.75C8.5 13.5449 9.95507 15 11.75 15C13.5449 15 15 13.5396 15 11.7447C15 10.949 14.6839 10.1839 14.1213 9.62132L13.2929 8.79289C13.1054 8.60536 13 8.351 13 8.08579V7.5C13 6.94772 12.5523 6.5 12 6.5C11.4477 6.5 11 6.94772 11 7.5Z" fill="#BDA1FF"/>
</svg>
