<svg width="16" height="16" viewBox="0 0 16 16" fill="none" xmlns="http://www.w3.org/2000/svg">
<path opacity="0.8" d="M8.99969 3.00047H10.9997C12.3998 3.00047 13.1007 3.00045 13.6354 3.27293C14.1055 3.51258 14.4876 3.89467 14.7272 4.36473C14.9438 4.78981 14.9867 5.31963 14.9958 6.22215C14.426 5.61985 13.7217 5.14568 12.9313 4.84911L12.7282 4.77782L12.5788 4.73387C11.0597 4.34217 10.0247 5.77985 10.2224 6.96727L10.3288 7.60204C10.4981 8.61727 9.61747 9.49775 8.60223 9.3286L7.96649 9.22215L7.85126 9.2075C6.64981 9.08818 5.265 10.177 5.77704 11.727L5.84833 11.9311C5.99011 12.309 6.17294 12.6673 6.39032 13.0005H4.99969C3.59976 13.0005 2.89967 12.9995 2.36493 12.727C1.89467 12.4874 1.5118 12.1055 1.27216 11.6352C0.999703 11.1005 0.999695 10.4003 0.999695 9.00047V4.19969C0.999695 3.0798 1.00048 2.52005 1.21844 2.09227C1.41019 1.71595 1.71614 1.40999 2.09247 1.21825C2.52025 1.0004 3.08008 1.00047 4.19989 1.00047H6.99969L8.99969 3.00047Z" fill="#9B61FF"/>
<path d="M11.8318 6.87268C11.6655 6.49902 11.9695 6.09892 12.3544 6.2373C13.8968 6.79185 14.9996 8.26615 14.9998 9.99963C14.9998 12.2088 13.2089 13.9996 10.9998 13.9996C9.26615 13.9995 7.79116 12.8967 7.23648 11.3542C7.09808 10.9694 7.4982 10.6653 7.87187 10.8317C10.3822 11.9474 12.9473 9.38303 11.8318 6.87268Z" fill="#BDA1FF"/>
</svg>
