<svg width="16" height="16" viewBox="0 0 16 16" fill="none" xmlns="http://www.w3.org/2000/svg">
<path opacity="0.7" d="M9 3H11C12.4 3 13.1 3.00007 13.6348 3.27246C14.1052 3.51214 14.4879 3.89483 14.7275 4.36523C14.9676 4.83653 14.9937 5.43621 14.9971 6.53027C14.5554 6.0303 14.032 5.60491 13.4473 5.27441C13.4396 5.2222 13.4323 5.18124 13.4248 5.14941L13.3906 5.0459C13.3187 4.90484 13.2148 4.78366 13.0879 4.69141L12.9541 4.60938C12.9334 4.59883 12.8436 4.55578 12.5195 4.5293C12.1779 4.50141 11.7246 4.5 11 4.5H8.37891L6.37891 2.5H4.2002C3.61556 2.5 3.26702 2.50138 3.00879 2.52246C2.88835 2.5323 2.82096 2.54407 2.78809 2.55176L2.77344 2.55469C2.70286 2.59065 2.64185 2.64258 2.5957 2.70605L2.55469 2.77344C2.57139 2.74065 2.54213 2.76805 2.52246 3.00879C2.50138 3.26702 2.5 3.61556 2.5 4.2002V9C2.5 9.72461 2.50141 10.1779 2.5293 10.5195C2.55578 10.8437 2.59883 10.9334 2.60938 10.9541L2.69141 11.0879C2.78366 11.2148 2.90484 11.3187 3.0459 11.3906L3.14941 11.4248C3.21485 11.4402 3.31847 11.4575 3.48047 11.4707C3.75145 11.4928 4.09274 11.4967 4.58398 11.498C4.67229 12.0253 4.82958 12.5289 5.0459 13H5C3.77477 13 3.08563 13 2.57422 12.8174L2.36523 12.7275C1.95378 12.5179 1.60933 12.199 1.36914 11.8076L1.27246 11.6348C1.00007 11.1 1 10.4 1 9V4.2002C1 3.22019 1.00049 2.66887 1.14648 2.25977L1.21777 2.0918C1.38555 1.76256 1.64085 1.48707 1.9541 1.29492L2.0918 1.21777C2.41263 1.0543 2.80803 1.01315 3.45801 1.00293L4.2002 1H7L9 3Z" fill="#7E7E92"/>
<path d="M10.5 5.89406C13.0323 5.89406 15.0833 7.9451 15.0833 10.4774C15.0831 11.4377 14.7817 12.3738 14.2216 13.1538C13.6614 13.9339 12.8708 14.5187 11.9609 14.8258C11.7318 14.8717 11.6458 14.7284 11.6458 14.6081C11.6458 14.4534 11.6516 13.9607 11.6516 13.3477C11.6516 12.918 11.5083 12.643 11.3422 12.4998C12.362 12.3852 13.4333 11.9956 13.4333 10.2368C13.4333 9.7326 13.2557 9.32583 12.9635 9.005C13.0094 8.89042 13.1698 8.42062 12.9177 7.79042C12.9177 7.79042 12.5338 7.66437 11.6573 8.26021C11.2906 8.15708 10.901 8.10552 10.5114 8.10552C10.1219 8.10552 9.73228 8.15708 9.36562 8.26021C8.48905 7.6701 8.1052 7.79042 8.1052 7.79042C7.85312 8.42062 8.01353 8.89042 8.05937 9.005C7.76718 9.32583 7.58957 9.73833 7.58957 10.2368C7.58957 11.9899 8.6552 12.3852 9.67499 12.4998C9.54322 12.6144 9.42291 12.8149 9.3828 13.1128C9.11926 13.2331 8.46041 13.4279 8.04791 12.7347C7.96197 12.5972 7.70416 12.2592 7.34322 12.2649C6.95937 12.2706 7.18853 12.4826 7.34895 12.5685C7.54374 12.6774 7.76718 13.0842 7.81874 13.2159C7.91041 13.4737 8.20832 13.9665 9.35989 13.7545C9.35989 14.1383 9.36562 14.4993 9.36562 14.6081C9.36562 14.7284 9.27968 14.8659 9.05051 14.8258C8.13765 14.522 7.34364 13.9384 6.78113 13.1579C6.21861 12.3773 5.91615 11.4395 5.91666 10.4774C5.91666 7.9451 7.9677 5.89406 10.5 5.89406Z" fill="#BEBED1"/>
</svg>
