<svg width="16" height="16" viewBox="0 0 16 16" fill="none" xmlns="http://www.w3.org/2000/svg">
<path opacity="0.8" d="M9 3H11C12.4 3 13.1 3.00007 13.6348 3.27246C14.1052 3.51214 14.4879 3.89483 14.7275 4.36523C14.9938 4.88792 14.9989 5.5685 14.999 6.90625C14.9545 6.88055 14.9112 6.85256 14.8652 6.8291C14.5676 6.67717 14.321 6.43236 14.1689 6.13477C13.8172 5.44599 13.2102 4.91304 12.4678 4.66016L12.2764 4.60254C11.9543 4.51626 11.6049 4.50178 11.2949 4.5H10.7051C10.4468 4.50149 10.1611 4.51119 9.88672 4.56445L9.72363 4.60254C8.89462 4.82468 8.21186 5.38775 7.83008 6.13477C7.67801 6.43227 7.4323 6.67806 7.13477 6.83008C6.44587 7.18202 5.91309 7.78963 5.66016 8.53223L5.60254 8.72363C5.51625 9.04566 5.50178 9.39507 5.5 9.70508V11.5996C5.5 11.9948 5.49883 12.3817 5.52539 12.707C5.53303 12.8005 5.54513 12.8984 5.56055 13H5C3.60002 13 2.89999 12.9999 2.36523 12.7275C1.89483 12.4879 1.51214 12.1052 1.27246 11.6348C1.00007 11.1 1 10.4 1 9V4.2002C1 3.08009 0.999786 2.51962 1.21777 2.0918C1.40951 1.71554 1.71555 1.40951 2.0918 1.21777C2.51962 0.999786 3.08009 1 4.2002 1H7L9 3Z" fill="#9B61FF"/>
<rect x="7" y="8" width="8" height="6" rx="1.5" fill="#BDA1FF"/>
<path d="M9 8V9H10V7.8C10 7.51997 10 7.37996 10.0545 7.273C10.1024 7.17892 10.1789 7.10243 10.273 7.0545C10.38 7 10.52 7 10.8 7H11.2C11.48 7 11.62 7 11.727 7.0545C11.8211 7.10243 11.8976 7.17892 11.9455 7.273C12 7.37996 12 7.51997 12 7.8V9H13V8C13 7.53501 13 7.30252 12.9489 7.11177C12.8102 6.59413 12.4059 6.18981 11.8882 6.05111C11.6975 6 11.465 6 11 6C10.535 6 10.3025 6 10.1118 6.05111C9.59413 6.18981 9.18981 6.59413 9.05111 7.11177C9 7.30252 9 7.53501 9 8Z" fill="#BDA1FF"/>
</svg>
