<svg width="16" height="16" viewBox="0 0 16 16" fill="none" xmlns="http://www.w3.org/2000/svg">
<path opacity="0.8" d="M9.00034 2.99956H11.0003C12.4001 2.99956 13.1004 2.99965 13.6351 3.27202C14.1054 3.51167 14.4882 3.89452 14.7279 4.36479C14.8623 4.62877 14.9297 4.93349 14.9642 5.34233L14.7679 5.14604L14.5755 4.97124C13.8727 4.39576 12.9852 4.29341 12.2142 4.51225C11.9125 4.50104 11.5285 4.49956 11.0003 4.49956H8.37924L6.37924 2.49956H4.20053C3.61618 2.49956 3.26732 2.50096 3.00912 2.52202C2.8892 2.53182 2.82145 2.54363 2.78842 2.55132L2.77377 2.55424C2.70336 2.59012 2.64215 2.64234 2.59604 2.70561L2.55502 2.77299C2.57118 2.741 2.54237 2.76925 2.5228 3.00835C2.50172 3.26651 2.50034 3.61538 2.50034 4.19975V8.99956C2.50034 9.72387 2.50178 10.1775 2.52963 10.5191C2.55602 10.8421 2.59899 10.9326 2.60971 10.9537L2.69174 11.0874C2.78399 11.2143 2.90517 11.3183 3.04623 11.3902L3.14975 11.4244C3.2152 11.4397 3.31899 11.457 3.4808 11.4703C3.82237 11.4981 4.27594 11.4996 5.00034 11.4996H5.74838L5.54819 12.6021C5.52409 12.7346 5.5174 12.8678 5.52377 12.9996H5.00034C3.77523 12.9996 3.08595 12.9995 2.57455 12.8169L2.36557 12.7271C1.95411 12.5174 1.60967 12.1986 1.36948 11.8072L1.2728 11.6343C1.00051 11.0996 1.00034 10.3993 1.00034 8.99956V4.19975C1.00034 3.22002 1.00085 2.66837 1.14682 2.25932L1.21811 2.09135C1.38589 1.76234 1.64134 1.48653 1.95444 1.29448L2.09213 1.21733C2.41288 1.05405 2.80867 1.01271 3.45834 1.00249L4.20053 0.999557H7.00034L9.00034 2.99956Z" fill="#FD7334"/>
<path d="M12.2345 6.14144C12.6814 5.81688 13.3166 5.81658 13.7071 6.20711L14.7929 7.29289C15.1834 7.68342 15.1831 8.31861 14.8586 8.76546C14.1588 9.7289 13.5 11.0578 13.5 12V12.1654C13.5 12.6487 13.1544 13.0628 12.6789 13.1493L8.78741 13.8568C8.54627 13.9007 8.3926 13.6074 8.56591 13.4341L10.5 11.5C11.064 11.5 11.5 11.064 11.5 10.5C11.5 9.93596 11.064 9.5 10.5 9.5C9.93596 9.5 9.5 9.93596 9.5 10.5L7.56591 12.4341C7.3926 12.6074 7.09932 12.4537 7.14317 12.2126L7.85071 8.32111C7.93716 7.84562 8.35129 7.5 8.83458 7.5H9C9.94224 7.5 11.2711 6.84123 12.2345 6.14144Z" fill="#FFA366"/>
</svg>
