<svg width="16" height="16" viewBox="0 0 16 16" fill="none" xmlns="http://www.w3.org/2000/svg">
<path opacity="0.8" d="M8.99997 2.99998H11C12.3999 2.99998 13.1 3.00007 13.6347 3.27245C14.1051 3.51213 14.4878 3.89481 14.7275 4.36522C14.9168 4.73674 14.9726 5.18805 14.9902 5.89842C14.9479 5.87419 14.9059 5.84935 14.8623 5.82713C14.4551 5.6197 14.0499 5.55339 13.707 5.52538C13.3817 5.49882 12.9947 5.49998 12.5996 5.49998H9.40036C9.00521 5.49998 8.61824 5.49882 8.29294 5.52538C7.95005 5.55339 7.54479 5.61969 7.13766 5.82713C6.57345 6.11471 6.11469 6.57346 5.82712 7.13768C5.61967 7.54481 5.55338 7.95007 5.52536 8.29295C5.4988 8.61826 5.49997 9.00522 5.49997 9.40038V11.4004C5.49997 11.6555 5.49878 11.9369 5.51852 12.1787C5.53702 12.4051 5.5798 12.6949 5.70993 13H4.99997C3.59999 13 2.89996 12.9999 2.3652 12.7275C1.8948 12.4878 1.51211 12.1052 1.27243 11.6348C1.00005 11.1 0.999969 10.3999 0.999969 8.99998V4.20018C0.999969 3.08007 0.999756 2.51961 1.21774 2.09178C1.40947 1.71553 1.71552 1.40949 2.09177 1.21776C2.51959 0.999771 3.08006 0.999985 4.20016 0.999985H6.99997L8.99997 2.99998Z" fill="#4D72F7"/>
<path d="M10.5 13.7002C10.5 13.848 10.5002 13.9291 10.5049 13.9873C10.5051 13.9895 10.5047 13.9921 10.5049 13.9941C10.5072 13.9944 10.5101 13.9949 10.5127 13.9951C10.5709 13.9998 10.652 14 10.7998 14H11.2002C11.348 14 11.4291 13.9998 11.4873 13.9951C11.4896 13.9949 11.4921 13.9943 11.4941 13.9941C11.4943 13.9921 11.4949 13.9896 11.4951 13.9873C11.4998 13.9291 11.5 13.848 11.5 13.7002V13H10.5V13.7002ZM12.5996 7C13.4393 7 13.8598 6.99981 14.1807 7.16309C14.4629 7.3069 14.6931 7.53709 14.8369 7.81934C15.0002 8.14015 15 8.56068 15 9.40039V11H7V9.40039C7 8.56068 6.99981 8.14015 7.16309 7.81934C7.3069 7.53709 7.53709 7.3069 7.81934 7.16309C8.14015 6.99981 8.56068 7 9.40039 7H12.5996ZM12.5 13.7002C12.5 13.8319 12.5001 13.9609 12.4912 14.0693C12.4819 14.1836 12.4597 14.3185 12.3906 14.4541C12.2948 14.6421 12.1421 14.7948 11.9541 14.8906C11.8185 14.9597 11.6836 14.9819 11.5693 14.9912C11.4609 15.0001 11.3319 15 11.2002 15H10.7998C10.6681 15 10.5391 15.0001 10.4307 14.9912C10.3164 14.9819 10.1815 14.9597 10.0459 14.8906C9.85793 14.7948 9.70521 14.6421 9.60938 14.4541C9.54028 14.3185 9.51814 14.1836 9.50879 14.0693C9.49993 13.9609 9.5 13.8319 9.5 13.7002V13H8.59961C8.03982 13 7.75976 12.9996 7.5459 12.8906C7.35793 12.7948 7.20522 12.6421 7.10938 12.4541C7.04888 12.3354 7.0237 12.196 7.01172 12H14.9883C14.9763 12.196 14.9511 12.3354 14.8906 12.4541C14.7948 12.6421 14.6421 12.7948 14.4541 12.8906C14.2402 12.9996 13.9602 13 13.4004 13H12.5V13.7002Z" fill="#94BAFF"/>
</svg>
