<svg width="16" height="16" viewBox="0 0 16 16" fill="none" xmlns="http://www.w3.org/2000/svg">
<path opacity="0.8" d="M8.99966 3H10.9997C12.3998 3 13.1006 2.99998 13.6354 3.27246C14.1057 3.51215 14.4876 3.89494 14.7272 4.36523C14.9071 4.71823 14.9672 5.14312 14.9879 5.79395C14.0657 4.99271 12.8606 4.5 11.5231 4.5H10.819C7.37562 4.50043 4.77917 7.62915 5.41373 11.0137L5.46451 11.2549C5.6128 11.889 5.86861 12.4765 6.20963 13H4.99966C3.59976 13 2.89963 13 2.3649 12.7275C1.89454 12.4879 1.51179 12.1051 1.27213 11.6348C0.999802 11.1 0.999664 10.3999 0.999664 9V4.2002C0.999664 3.08009 1.00043 2.51962 1.21841 2.0918C1.41017 1.71563 1.71623 1.40946 2.09244 1.21777C2.52019 1.00001 3.08021 1 4.19986 1H6.99966L8.99966 3Z" fill="#30A6F9"/>
<path d="M11.5234 6C13.8668 6 15.6489 8.10456 15.2637 10.416C15.1111 11.3301 14.3203 12 13.3936 12H12.333C12.0112 12.0002 11.8187 12.3449 11.9658 12.6143L12.0684 12.7725C12.3619 13.3112 11.9766 14 11.333 14H10.8193C8.89472 13.9998 7.24348 12.629 6.88868 10.7373C6.42714 8.27577 8.31497 6.00022 10.8193 6H11.5234ZM8.50001 8.75C8.08579 8.75 7.75001 9.08579 7.75001 9.5C7.75001 9.91421 8.08579 10.25 8.50001 10.25C8.91422 10.25 9.25001 9.91421 9.25001 9.5C9.25001 9.08579 8.91422 8.75 8.50001 8.75ZM13.75 8.75C13.3358 8.75 13 9.08579 13 9.5C13 9.91421 13.3358 10.25 13.75 10.25C14.1642 10.25 14.5 9.91421 14.5 9.5C14.5 9.08579 14.1642 8.75 13.75 8.75ZM10.083 7.25C9.66895 7.25018 9.33302 7.58589 9.33302 8C9.33302 8.4141 9.66895 8.74982 10.083 8.75C10.4972 8.75 10.833 8.41421 10.833 8C10.833 7.58579 10.4972 7.25 10.083 7.25ZM12.125 7.25C11.7108 7.25 11.375 7.58579 11.375 8C11.375 8.41421 11.7108 8.75 12.125 8.75C12.5392 8.75 12.875 8.41421 12.875 8C12.875 7.58579 12.5392 7.25 12.125 7.25Z" fill="#83C2FE"/>
</svg>
