<svg width="16" height="16" viewBox="0 0 16 16" fill="none" xmlns="http://www.w3.org/2000/svg">
<path opacity="0.8" d="M9 3H11C12.4 3 13.1 3.00007 13.6348 3.27246C14.1052 3.51214 14.4879 3.89483 14.7275 4.36523C14.9143 4.73179 14.9718 5.17603 14.9902 5.87012C13.8887 5.01208 12.5044 4.5 11 4.5C7.41015 4.5 4.5 7.41015 4.5 11C4.5 11.6976 4.61104 12.3691 4.81445 12.999C3.53709 12.9985 2.87583 12.9876 2.36523 12.7275C1.89483 12.4879 1.51214 12.1052 1.27246 11.6348C1.00007 11.1 1 10.4 1 9V4.2002C1 3.08009 0.999786 2.51962 1.21777 2.0918C1.40951 1.71554 1.71554 1.40951 2.0918 1.21777C2.51962 0.999786 3.08009 1 4.2002 1H7L9 3Z" fill="#FD7334"/>
<path d="M11 6C13.7614 6 16 8.23858 16 11C16 12.0296 15.6886 12.9864 15.1551 13.7817C15.0611 13.9217 14.9008 14 14.7322 14C14.1889 14 13.8569 13.0935 14.1075 12.6115C14.3583 12.1292 14.5 11.5812 14.5 11C14.5 9.067 12.933 7.5 11 7.5C9.067 7.5 7.5 9.067 7.5 11C7.5 11.5812 7.64172 12.1292 7.89246 12.6115C8.14307 13.0935 7.81108 14 7.2678 14C7.0992 14 6.93887 13.9217 6.84494 13.7817C6.31141 12.9864 6 12.0296 6 11C6 8.23858 8.23858 6 11 6Z" fill="#FFA366"/>
<path d="M10.5 13.5L12.5 10.5" stroke="#FFA366" stroke-width="1.5" stroke-linecap="round"/>
</svg>
