<svg width="16" height="16" viewBox="0 0 16 16" fill="none" xmlns="http://www.w3.org/2000/svg">
<path opacity="0.8" d="M9.00027 2.99991H11.0003C12.4001 2.99991 13.1003 2.99999 13.635 3.27237C14.1054 3.51206 14.4882 3.8948 14.7278 4.36514C15.0002 4.89988 15.0003 5.60002 15.0003 6.99991V7.37881L13.4886 5.8671C13.4842 5.72174 13.4803 5.59472 13.471 5.48038C13.4577 5.31842 13.4404 5.21475 13.4251 5.14932L13.3909 5.04581C13.319 4.90479 13.215 4.78355 13.0882 4.69131L12.9544 4.60928C12.9337 4.59875 12.8437 4.55569 12.5198 4.52921C12.1783 4.50132 11.7247 4.49991 11.0003 4.49991H8.37918L6.37918 2.49991H4.20047C3.61604 2.49991 3.26727 2.50131 3.00906 2.52237C2.88896 2.53218 2.82133 2.54398 2.78836 2.55167L2.77371 2.5546C2.7032 2.59052 2.64211 2.64257 2.59598 2.70596L2.55496 2.77335C2.57147 2.74084 2.54237 2.7685 2.52274 3.0087C2.50165 3.26692 2.50027 3.61552 2.50027 4.2001V8.99991C2.50027 9.72447 2.50169 10.1779 2.52957 10.5194C2.55605 10.8436 2.59911 10.9333 2.60965 10.954L2.69168 11.0878C2.78393 11.2147 2.90514 11.3186 3.04617 11.3905L3.14969 11.4247C3.21514 11.44 3.31893 11.4574 3.48074 11.4706C3.82231 11.4985 4.27585 11.4999 5.00027 11.4999H6.12527C6.24675 11.7782 6.41909 12.0398 6.64676 12.2675L7.37918 12.9999H5.00027C3.77521 12.9999 3.08589 12.9998 2.57449 12.8173L2.36551 12.7274C1.95407 12.5178 1.60961 12.1989 1.36942 11.8075L1.27274 11.6347C1.00034 11.0999 1.00027 10.3999 1.00027 8.99991V4.2001C1.00027 3.22015 1.00077 2.66877 1.14676 2.25967L1.21805 2.09171C1.38582 1.76255 1.64118 1.48694 1.95438 1.29483L2.09207 1.21768C2.41286 1.05432 2.80847 1.01306 3.45828 1.00284L4.20047 0.999908H7.00027L9.00027 2.99991Z" fill="#FF9B20"/>
<path d="M12.3184 12.9541C12.6095 12.7601 13 12.9685 13 13.3184C13 13.4346 12.9533 13.5458 12.8711 13.628L12.2071 14.293C11.8166 14.6834 11.1835 14.6833 10.793 14.293L10.128 13.628C10.046 13.5458 10 13.4345 10 13.3184C10.0001 12.9686 10.3896 12.7602 10.6807 12.9541L11.5 13.5L12.3184 12.9541ZM8.68168 9.00004C9.03127 9.00029 9.2397 9.3897 9.04594 9.6807L8.50004 10.5L9.04594 11.3184C9.23996 11.6094 9.03136 11.9998 8.68168 12C8.5655 12 8.45329 11.9533 8.37113 11.8711L7.70707 11.2071C7.31657 10.8166 7.31662 10.1835 7.70707 9.79301L8.37113 9.12797C8.45329 9.04581 8.5655 9.00004 8.68168 9.00004ZM11.5 9.00004C12.3284 9.00012 13 9.67166 13 10.5C13 11.3283 12.3283 12 11.5 12C10.6717 12 10.0001 11.3284 10 10.5C10 9.67161 10.6716 9.00004 11.5 9.00004ZM14.3184 9.00004C14.4345 9.00004 14.5458 9.04596 14.628 9.12797L15.293 9.79301C15.6833 10.1835 15.6834 10.8166 15.293 11.2071L14.628 11.8711C14.5458 11.9533 14.4346 12 14.3184 12C13.9685 12 13.7601 11.6095 13.9541 11.3184L14.5 10.5L13.9541 9.6807C13.7602 9.3896 13.9686 9.00006 14.3184 9.00004ZM10.793 6.70707C11.1835 6.31662 11.8166 6.31657 12.2071 6.70707L12.8711 7.37113C12.9533 7.45329 13 7.5655 13 7.68168C12.9998 8.03136 12.6094 8.23996 12.3184 8.04594L11.5 7.50004L10.6807 8.04594C10.3897 8.2397 10.0003 8.03127 10 7.68168C10 7.5655 10.0458 7.45329 10.128 7.37113L10.793 6.70707Z" fill="#FFC076"/>
</svg>
