<svg width="16" height="16" viewBox="0 0 16 16" fill="none" xmlns="http://www.w3.org/2000/svg">
<path opacity="0.8" d="M9 3H11C12.4 3 13.1 3.00007 13.6348 3.27246C14.1052 3.51214 14.4879 3.89483 14.7275 4.36523C14.7553 4.41974 14.7784 4.47665 14.8008 4.53516C14.769 4.53195 14.7378 4.52791 14.707 4.52539C14.3817 4.49883 13.9948 4.5 13.5996 4.5H11.4004C11.0052 4.5 10.6183 4.49883 10.293 4.52539C9.99281 4.54991 9.64508 4.6037 9.29004 4.75586L9.1377 4.82715C8.64381 5.07887 8.23057 5.46167 7.94238 5.93164L7.82715 6.1377C7.61971 6.54482 7.55341 6.95008 7.52539 7.29297C7.49883 7.61828 7.5 8.00523 7.5 8.40039V9.61621C7.5 10.3298 7.04124 10.9592 6.7168 11.5947C6.5782 11.8664 6.5 12.1739 6.5 12.5C6.5 12.6704 6.5147 12.8374 6.54199 13H5C3.60002 13 2.89999 12.9999 2.36523 12.7275C1.89483 12.4879 1.51214 12.1052 1.27246 11.6348C1.00007 11.1 1 10.4 1 9V4.2002C1 3.08009 0.999786 2.51962 1.21777 2.0918C1.40951 1.71555 1.71554 1.40951 2.0918 1.21777C2.51962 0.999786 3.08009 1 4.2002 1H7L9 3Z" fill="#9B61FF"/>
<path d="M12.6 14H9.5C8.67157 14 8 13.3284 8 12.5C8 12.2239 8.22386 12 8.5 12H13.5C13.7761 12 14 11.7761 14 11.5C14 11.2239 13.7761 11 13.5 11H9.8C9.51997 11 9.37996 11 9.273 10.9455C9.17892 10.8976 9.10243 10.8211 9.0545 10.727C9 10.62 9 10.48 9 10.2V8.4C9 7.55992 9 7.13988 9.16349 6.81901C9.3073 6.53677 9.53677 6.3073 9.81901 6.16349C10.1399 6 10.5599 6 11.4 6H14.5C15.3284 6 16 6.67157 16 7.5C16 7.77614 15.7761 8 15.5 8C15.2239 8 15 8.22386 15 8.5V11.6C15 12.4401 15 12.8601 14.8365 13.181C14.6927 13.4632 14.4632 13.6927 14.181 13.8365C13.8601 14 13.4401 14 12.6 14Z" fill="#BDA1FF"/>
</svg>
