<svg width="16" height="16" viewBox="0 0 16 16" fill="none" xmlns="http://www.w3.org/2000/svg">
<path opacity="0.8" d="M8.99954 2.99989H10.9995C12.3992 2.99989 13.0996 3.00016 13.6343 3.27235C14.1046 3.51199 14.4874 3.89484 14.7271 4.36513C14.9995 4.89987 14.9995 5.59999 14.9995 6.99989V7.3788L13.4888 5.86806C13.4845 5.72229 13.4796 5.59496 13.4702 5.48036C13.457 5.31844 13.4397 5.21473 13.4243 5.14931L13.3902 5.04579C13.3183 4.90484 13.2142 4.78349 13.0874 4.6913L12.9536 4.60927C12.9322 4.59839 12.8412 4.55551 12.5191 4.52919C12.1775 4.50134 11.7238 4.49989 10.9995 4.49989H8.37845L6.37845 2.49989H4.19974C3.61537 2.49989 3.2665 2.50128 3.00833 2.52235C2.88817 2.53219 2.82046 2.54397 2.78763 2.55165L2.77298 2.55458C2.70253 2.59054 2.64133 2.64257 2.59525 2.70595L2.55423 2.77333C2.57094 2.74054 2.54167 2.768 2.522 3.00868C2.50092 3.2669 2.49954 3.61551 2.49954 4.20009V8.99989C2.49954 9.7244 2.50096 10.1778 2.52884 10.5194C2.55521 10.8422 2.59815 10.9328 2.60892 10.954L2.69095 11.0878C2.78311 11.2145 2.90455 11.3186 3.04544 11.3905L3.14896 11.4247C3.21433 11.44 3.31827 11.4574 3.48001 11.4706C3.82154 11.4985 4.2752 11.4999 4.99954 11.4999H6.12454C6.24598 11.7782 6.41842 12.0398 6.64603 12.2675L7.37845 12.9999H4.99954C3.77459 12.9999 3.08511 12.9998 2.57376 12.8173L2.36478 12.7274C1.9535 12.5178 1.6088 12.1988 1.36868 11.8075L1.272 11.6347C0.999744 11.0999 0.999542 10.3996 0.999542 8.99989V4.20009C0.999542 3.22018 1.00005 2.66875 1.14603 2.25966L1.21732 2.09169C1.38504 1.76255 1.64052 1.48695 1.95364 1.29482L2.09134 1.21767C2.4121 1.05423 2.80784 1.01306 3.45755 1.00282L4.19974 0.999893H6.99954L8.99954 2.99989Z" fill="#FF9B20"/>
<path d="M12.3184 12.9541C12.6095 12.7601 13 12.9685 13 13.3184C13 13.4346 12.9533 13.5458 12.8711 13.628L12.2071 14.293C11.8166 14.6834 11.1835 14.6833 10.793 14.293L10.128 13.628C10.046 13.5458 10 13.4345 10 13.3184C10.0001 12.9686 10.3896 12.7602 10.6807 12.9541L11.5 13.5L12.3184 12.9541ZM8.68168 9.00004C9.03127 9.00029 9.2397 9.3897 9.04594 9.6807L8.50004 10.5L9.04594 11.3184C9.23996 11.6094 9.03136 11.9998 8.68168 12C8.5655 12 8.45329 11.9533 8.37113 11.8711L7.70707 11.2071C7.31657 10.8166 7.31662 10.1835 7.70707 9.79301L8.37113 9.12797C8.45329 9.04581 8.5655 9.00004 8.68168 9.00004ZM11.5 9.00004C12.3284 9.00012 13 9.67166 13 10.5C13 11.3283 12.3283 12 11.5 12C10.6717 12 10.0001 11.3284 10 10.5C10 9.67161 10.6716 9.00004 11.5 9.00004ZM14.3184 9.00004C14.4345 9.00004 14.5458 9.04596 14.628 9.12797L15.293 9.79301C15.6833 10.1835 15.6834 10.8166 15.293 11.2071L14.628 11.8711C14.5458 11.9533 14.4346 12 14.3184 12C13.9685 12 13.7601 11.6095 13.9541 11.3184L14.5 10.5L13.9541 9.6807C13.7602 9.3896 13.9686 9.00006 14.3184 9.00004ZM10.793 6.70707C11.1835 6.31662 11.8166 6.31657 12.2071 6.70707L12.8711 7.37113C12.9533 7.45329 13 7.5655 13 7.68168C12.9998 8.03136 12.6094 8.23996 12.3184 8.04594L11.5 7.50004L10.6807 8.04594C10.3897 8.2397 10.0003 8.03127 10 7.68168C10 7.5655 10.0458 7.45329 10.128 7.37113L10.793 6.70707Z" fill="#FFC076"/>
</svg>
