<svg width="16" height="16" viewBox="0 0 16 16" fill="none" xmlns="http://www.w3.org/2000/svg">
<path opacity="0.8" d="M8.99997 2.99998H11C12.3999 2.99998 13.1 3.00007 13.6347 3.27245C14.1051 3.51213 14.4878 3.89482 14.7275 4.36522C14.9167 4.73673 14.9725 5.18808 14.9902 5.89842C14.9479 5.87419 14.9059 5.84935 14.8623 5.82713C14.4551 5.6197 14.0499 5.55339 13.707 5.52538C13.6316 5.51922 13.553 5.51426 13.4716 5.51073C13.4709 5.50058 13.4715 5.49041 13.4707 5.48045C13.4574 5.31846 13.4401 5.21484 13.4248 5.1494L13.3906 5.04588C13.3187 4.90483 13.2147 4.78364 13.0879 4.69139L12.9541 4.60936C12.9333 4.59879 12.8435 4.55575 12.5195 4.52928C12.1779 4.5014 11.7246 4.49998 11 4.49998H8.37888L6.37888 2.49998H4.20016C3.61554 2.49998 3.26699 2.50136 3.00876 2.52245C2.88834 2.53229 2.82093 2.54406 2.78806 2.55174L2.77341 2.55467C2.70283 2.59064 2.64182 2.64257 2.59567 2.70604L2.55466 2.77342C2.57136 2.74063 2.5421 2.76805 2.52243 3.00877C2.50135 3.267 2.49997 3.61555 2.49997 4.20018V8.99998C2.49997 9.72458 2.50138 10.1779 2.52927 10.5195C2.55574 10.8435 2.59878 10.9334 2.60934 10.9541L2.69138 11.0879C2.78362 11.2147 2.90482 11.3187 3.04587 11.3906L3.14938 11.4248C3.21482 11.4401 3.31846 11.4575 3.48044 11.4707C3.82203 11.4986 4.27538 11.5 4.99997 11.5H5.50095C5.501 11.7272 5.50132 11.968 5.51852 12.1787C5.53702 12.4051 5.5798 12.6949 5.70993 13H4.99997C3.77475 13 3.0856 13 2.57419 12.8174L2.3652 12.7275C1.95376 12.5179 1.6093 12.199 1.36911 11.8076L1.27243 11.6348C1.00005 11.1 0.999969 10.3999 0.999969 8.99998V4.20018C0.999969 3.22018 1.00046 2.66886 1.14645 2.25975L1.21774 2.09178C1.38552 1.76255 1.64082 1.48705 1.95407 1.29491L2.09177 1.21776C2.41259 1.05429 2.80802 1.01314 3.45798 1.00291L4.20016 0.999985H6.99997L8.99997 2.99998Z" fill="#4D72F7"/>
<path d="M10.5 13.7002C10.5 13.848 10.5002 13.9291 10.5049 13.9873C10.5051 13.9895 10.5047 13.9921 10.5049 13.9941C10.5072 13.9944 10.5101 13.9949 10.5127 13.9951C10.5709 13.9998 10.652 14 10.7998 14H11.2002C11.348 14 11.4291 13.9998 11.4873 13.9951C11.4896 13.9949 11.4921 13.9943 11.4941 13.9941C11.4943 13.9921 11.4949 13.9896 11.4951 13.9873C11.4998 13.9291 11.5 13.848 11.5 13.7002V13H10.5V13.7002ZM12.5996 7C13.4393 7 13.8598 6.99981 14.1807 7.16309C14.4629 7.3069 14.6931 7.53709 14.8369 7.81934C15.0002 8.14015 15 8.56068 15 9.40039V11H7V9.40039C7 8.56068 6.99981 8.14015 7.16309 7.81934C7.3069 7.53709 7.53709 7.3069 7.81934 7.16309C8.14015 6.99981 8.56068 7 9.40039 7H12.5996ZM12.5 13.7002C12.5 13.8319 12.5001 13.9609 12.4912 14.0693C12.4819 14.1836 12.4597 14.3185 12.3906 14.4541C12.2948 14.6421 12.1421 14.7948 11.9541 14.8906C11.8185 14.9597 11.6836 14.9819 11.5693 14.9912C11.4609 15.0001 11.3319 15 11.2002 15H10.7998C10.6681 15 10.5391 15.0001 10.4307 14.9912C10.3164 14.9819 10.1815 14.9597 10.0459 14.8906C9.85793 14.7948 9.70521 14.6421 9.60938 14.4541C9.54028 14.3185 9.51814 14.1836 9.50879 14.0693C9.49993 13.9609 9.5 13.8319 9.5 13.7002V13H8.59961C8.03982 13 7.75976 12.9996 7.5459 12.8906C7.35793 12.7948 7.20522 12.6421 7.10938 12.4541C7.04888 12.3354 7.0237 12.196 7.01172 12H14.9883C14.9763 12.196 14.9511 12.3354 14.8906 12.4541C14.7948 12.6421 14.6421 12.7948 14.4541 12.8906C14.2402 12.9996 13.9602 13 13.4004 13H12.5V13.7002Z" fill="#94BAFF"/>
</svg>
