<svg width="16" height="16" viewBox="0 0 16 16" fill="none" xmlns="http://www.w3.org/2000/svg">
<path opacity="0.8" d="M9 2.99998H11C12.4 2.99998 13.1 3.00006 13.6348 3.27245C14.1052 3.51213 14.4879 3.89482 14.7275 4.36522C14.9561 4.81387 14.9911 5.37889 14.9971 6.37596L14.2725 5.65135C14.0413 5.42335 13.7915 5.19423 13.5 5.01561C13.4347 4.97559 13.3675 4.93889 13.2998 4.90331C13.2397 4.82274 13.1693 4.75055 13.0879 4.69139L12.9541 4.60936C12.9334 4.5988 12.8436 4.55576 12.5195 4.52928C12.2899 4.51054 12.0099 4.50437 11.6309 4.50194C11.5851 4.50099 11.5395 4.5003 11.4941 4.49998H8.37891L6.37891 2.49998H4.2002C3.61557 2.49998 3.26702 2.50136 3.00879 2.52245C2.88836 2.53229 2.82096 2.54406 2.78809 2.55174L2.77344 2.55467C2.70286 2.59064 2.64185 2.64257 2.5957 2.70604L2.55469 2.77342C2.57139 2.74064 2.54213 2.76806 2.52246 3.00877C2.50138 3.267 2.5 3.61555 2.5 4.20018V8.99998C2.5 9.72458 2.50141 10.1779 2.5293 10.5195C2.55577 10.8435 2.59882 10.9334 2.60938 10.9541L2.69141 11.0879C2.78365 11.2148 2.90485 11.3187 3.0459 11.3906L3.14941 11.4248C3.21485 11.4401 3.31848 11.4575 3.48047 11.4707C3.82206 11.4986 4.2754 11.5 5 11.5H5.5V12.5996C5.5 12.7347 5.50107 12.8689 5.50195 13H5C3.77478 13 3.08563 13 2.57422 12.8174L2.36523 12.7275C1.95379 12.5179 1.60933 12.199 1.36914 11.8076L1.27246 11.6348C1.00008 11.1 1 10.3999 1 8.99998V4.20018C1 3.22018 1.00049 2.66886 1.14648 2.25975L1.21777 2.09178C1.38555 1.76255 1.64085 1.48705 1.9541 1.29491L2.0918 1.21776C2.41262 1.05429 2.80804 1.01314 3.45801 1.00291L4.2002 0.999985H7L9 2.99998Z" fill="#4D72F7"/>
<path d="M11.1748 6C11.6638 6 11.9085 6.00041 12.1387 6.05566C12.3426 6.10466 12.5379 6.18532 12.7168 6.29492C12.9185 6.41859 13.0917 6.59174 13.4375 6.9375L14.0625 7.5625C14.4083 7.90826 14.5814 8.08148 14.7051 8.2832C14.8147 8.46206 14.8953 8.65736 14.9443 8.86133C14.9996 9.09146 15 9.33621 15 9.8252V12.5996C15 13.4393 15.0002 13.8598 14.8369 14.1807C14.6931 14.4629 14.4629 14.6931 14.1807 14.8369C13.8598 15.0002 13.4393 15 12.5996 15H9.40039C8.56068 15 8.14015 15.0002 7.81934 14.8369C7.53709 14.6931 7.3069 14.4629 7.16309 14.1807C6.99981 13.8598 7 13.4393 7 12.5996V8.40039C7 7.56068 6.99981 7.14015 7.16309 6.81934C7.3069 6.53709 7.53709 6.3069 7.81934 6.16309C8.14015 5.99981 8.56068 6 9.40039 6H11.1748ZM9 12C8.72386 12 8.5 12.2239 8.5 12.5V13C8.5 13.2761 8.72386 13.5 9 13.5H11C11.2761 13.5 11.5 13.2761 11.5 13V12.5C11.5 12.2239 11.2761 12 11 12H9ZM9 9.5C8.72386 9.5 8.5 9.72386 8.5 10V10.5C8.5 10.7761 8.72386 11 9 11H13C13.2761 11 13.5 10.7761 13.5 10.5V10C13.5 9.72386 13.2761 9.5 13 9.5H9Z" fill="#94BAFF"/>
</svg>
