<svg width="16" height="16" viewBox="0 0 16 16" fill="none" xmlns="http://www.w3.org/2000/svg">
<path opacity="0.8" d="M9 3H11C12.4 3 13.1 3.00007 13.6348 3.27246C14.1052 3.51214 14.4879 3.89483 14.7275 4.36523C14.9895 4.87946 14.9986 5.5465 14.999 6.8418C14.7578 6.47849 14.4407 6.17083 14.0684 5.94238L13.8613 5.82617C13.8164 5.80329 13.7714 5.78222 13.7266 5.7627C13.2886 5.57193 13.0696 5.47629 13.0195 5.44727C12.8953 5.37517 13.0043 5.4506 12.8926 5.36035C12.8474 5.32369 12.6592 5.13119 12.2832 4.74805C11.8859 4.34328 11.3519 4.07328 10.7559 4.0127L10.5 4C9.79427 4 9.15677 4.29242 8.70215 4.7627C8.34359 5.13373 8.16398 5.32015 8.12012 5.35645C7.99992 5.4556 8.11299 5.37708 7.97754 5.4541C7.92842 5.48202 7.71595 5.57305 7.29102 5.75488L7.13867 5.82617C6.64477 6.07783 6.23076 6.46159 5.94238 6.93164L5.82617 7.13867C5.61888 7.54598 5.55327 7.95143 5.52539 8.29395C5.51216 8.45659 5.50593 8.63458 5.50293 8.82129L5.5 9.40039V11.5996C5.5 11.9945 5.49895 12.3809 5.52539 12.7061C5.53302 12.7998 5.54416 12.8981 5.55957 13H5C3.60002 13 2.89999 12.9999 2.36523 12.7275C1.89483 12.4879 1.51214 12.1052 1.27246 11.6348C1.00007 11.1 1 10.4 1 9V4.2002C1 3.08009 0.999786 2.51962 1.21777 2.0918C1.40951 1.71554 1.71555 1.40951 2.0918 1.21777C2.51962 0.999786 3.08009 1 4.2002 1H7L9 3Z" fill="#9B61FF"/>
<path d="M11.5996 7C12.4393 7 12.8598 6.99981 13.1807 7.16309C13.4629 7.3069 13.6931 7.53709 13.8369 7.81934C14.0002 8.14015 14 8.56068 14 9.40039V9.5H14.5C15.0523 9.5 15.5 9.94772 15.5 10.5C15.5 11.0523 15.0523 11.5 14.5 11.5H14V11.5996C14 12.4393 14.0002 12.8598 13.8369 13.1807C13.6931 13.4629 13.4629 13.6931 13.1807 13.8369C12.8598 14.0002 12.4393 14 11.5996 14H9.40039C8.56068 14 8.14015 14.0002 7.81934 13.8369C7.53709 13.6931 7.3069 13.4629 7.16309 13.1807C6.99981 12.8598 7 12.4393 7 11.5996V11.5H7.5C8.05228 11.5 8.5 11.0523 8.5 10.5C8.5 9.94772 8.05228 9.5 7.5 9.5H7V9.40039C7 8.56068 6.99981 8.14015 7.16309 7.81934C7.3069 7.53709 7.53709 7.3069 7.81934 7.16309C8.14015 6.99981 8.56068 7 9.40039 7H9.5V6.5C9.5 5.94772 9.94772 5.5 10.5 5.5C11.0523 5.5 11.5 5.94772 11.5 6.5V7H11.5996Z" fill="#BDA1FF"/>
</svg>
