<svg width="16" height="16" viewBox="0 0 16 16" fill="none" xmlns="http://www.w3.org/2000/svg">
<path opacity="0.8" d="M8.99969 2.99961H10.9997C12.3993 2.99961 13.0998 2.99989 13.6345 3.27207C14.1047 3.51168 14.4875 3.89464 14.7272 4.36485C14.9996 4.89955 14.9997 5.59989 14.9997 6.99961V7.88633C14.6684 7.71794 14.312 7.58822 13.9352 7.50449L13.4997 7.40684V6.99961C13.4997 6.27523 13.4983 5.82161 13.4704 5.48008C13.4572 5.31832 13.4398 5.21441 13.4245 5.14902L13.3903 5.04551C13.3184 4.90464 13.2143 4.78317 13.0876 4.69102L12.9538 4.60899C12.9323 4.5981 12.8412 4.55522 12.5192 4.52891C12.1777 4.50105 11.7241 4.49961 10.9997 4.49961H8.3786L6.3786 2.49961H4.19989C3.61545 2.49961 3.26667 2.50099 3.00848 2.52207C2.88823 2.53191 2.82063 2.54369 2.78778 2.55137L2.77313 2.5543C2.70263 2.59024 2.64152 2.64226 2.5954 2.70567L2.55438 2.77305C2.57088 2.74056 2.54179 2.76844 2.52216 3.0084C2.50108 3.26657 2.4997 3.6154 2.49969 4.19981V8.99961C2.49969 9.72393 2.50114 10.1776 2.52899 10.5191C2.55529 10.841 2.59816 10.9322 2.60907 10.9537L2.6911 11.0875C2.78326 11.2143 2.90471 11.3183 3.04559 11.3902L3.14911 11.4244C3.2145 11.4398 3.31836 11.4571 3.48016 11.4703C3.82171 11.4982 4.27527 11.4996 4.99969 11.4996H5.56805C5.63566 12.0853 5.9329 12.6278 6.38837 12.9996H4.99969C3.77466 12.9996 3.08528 12.9996 2.57391 12.817L2.36493 12.7271C1.95366 12.5175 1.60895 12.1985 1.36884 11.8072L1.27216 11.6344C0.999986 11.0997 0.999695 10.3992 0.999695 8.99961V4.19981C0.999695 3.22004 1.0002 2.66843 1.14618 2.25938L1.21747 2.09141C1.38523 1.76227 1.64063 1.48664 1.9538 1.29453L2.09149 1.21738C2.41227 1.05394 2.80791 1.01277 3.4577 1.00254L4.19989 0.999611H6.99969L8.99969 2.99961Z" fill="#FF9B20"/>
<path d="M9.35048 7.125C9.63916 6.625 10.3608 6.625 10.6495 7.125L12.8146 10.875C13.1033 11.375 12.7424 12 12.1651 12H7.83494C7.25759 12 6.89674 11.375 7.18542 10.875L9.35048 7.125Z" fill="#FFC076"/>
<path d="M13.1787 9.00586C14.7524 9.09833 16 10.4032 16 12C16 13.6569 14.6569 15 13 15C11.7898 15 10.7497 14.2821 10.2754 13.25H12.165C13.6566 13.25 14.6059 11.686 13.9639 10.376L13.8975 10.25L13.1787 9.00586ZM12.8525 11.5508L12.8145 11.625C12.8295 11.5989 12.8429 11.5718 12.8545 11.5439L12.8525 11.5508Z" fill="#FFC076"/>
</svg>
