<svg width="16" height="16" viewBox="0 0 16 16" fill="none" xmlns="http://www.w3.org/2000/svg">
<path opacity="0.8" d="M9 3H11C12.4 3 13.1 3.00007 13.6348 3.27246C14.1052 3.51214 14.4879 3.89483 14.7275 4.36523C14.9999 4.89999 15 5.60002 15 7V7.14551L14.6182 6.38184L14.5332 6.22656C14.0856 5.47013 13.2694 5 12.3818 5H12.0664C11.2432 5 10.4766 5.40514 10.0117 6.07617L9.92285 6.21387L9.37793 7.12109C9.09535 7.59206 8.72433 8.00338 8.28613 8.33203L8.09375 8.46777C7.41043 8.92336 7.0001 9.69046 7 10.5117V11.75C7 12.1827 7.0586 12.6017 7.16699 13H5C3.60002 13 2.89999 12.9999 2.36523 12.7275C1.89483 12.4879 1.51214 12.1052 1.27246 11.6348C1.00007 11.1 1 10.4 1 9V4.2002C1 3.08009 0.999786 2.51962 1.21777 2.0918C1.40951 1.71554 1.71554 1.40951 2.0918 1.21777C2.51962 0.999786 3.08009 1 4.2002 1H7L9 3Z" fill="#9B61FF"/>
<path d="M11 7.5V7.96447C11 8.62751 11.2634 9.26339 11.7322 9.73223L12.4968 10.4968C12.819 10.819 13 11.256 13 11.7116V11.75C13 12.4404 12.4404 13 11.75 13C11.0596 13 10.5 12.4404 10.5 11.75V11L9.3 10.1C8.97038 9.85279 8.5 10.088 8.5 10.5V11.75C8.5 13.5449 9.95507 15 11.75 15C13.5449 15 15 13.5396 15 11.7447C15 10.949 14.6839 10.1839 14.1213 9.62132L13.2929 8.79289C13.1054 8.60536 13 8.351 13 8.08579V7.5C13 6.94772 12.5523 6.5 12 6.5C11.4477 6.5 11 6.94772 11 7.5Z" fill="#BDA1FF"/>
</svg>
