<svg width="16" height="16" viewBox="0 0 16 16" fill="none" xmlns="http://www.w3.org/2000/svg">
<g clip-path="url(#clip0_203_881)">
<path opacity="0.7" d="M8.99979 2.99965H10.9998C12.3995 2.99965 13.0998 2.99987 13.6346 3.27211C14.1049 3.51176 14.4876 3.89456 14.7273 4.36488C14.8686 4.64218 14.9348 4.9642 14.9676 5.40492C14.8099 5.4065 14.6511 5.4264 14.4949 5.47035C14.0904 5.58429 13.6896 5.7515 13.2693 5.7516H8.23611C6.90527 5.75181 5.79258 6.7611 5.65994 8.08363L5.63065 8.3766V8.37856C5.55383 9.15443 5.91207 9.78873 6.44803 10.1588C6.92225 10.4864 7.37893 11.0124 7.12967 11.5319L6.99393 11.7916L6.79861 12.1325C6.7981 12.1334 6.79699 12.1344 6.79666 12.1354L6.79568 12.1383C6.63961 12.4122 6.54763 12.705 6.51443 12.9996H4.99979C3.59979 12.9996 2.89977 12.9997 2.36502 12.7272C1.89475 12.4875 1.51192 12.1056 1.27225 11.6354C0.999763 11.1006 0.999786 10.3998 0.999786 8.99965V4.19984C0.999786 3.08027 0.999831 2.52016 1.21756 2.09242C1.40922 1.71627 1.71549 1.41016 2.09158 1.2184C2.51941 1.00041 3.07988 0.999649 4.19998 0.999649H6.99979L8.99979 2.99965Z" fill="#7E7E92"/>
<path d="M14.8617 7.14078C15.1279 6.8746 15.5771 7.1154 15.5033 7.48453L15.4154 7.923C15.3188 8.40486 14.8961 8.7519 14.4046 8.75211H13.5003V12.0158C13.5004 12.2842 13.7183 12.5021 13.9867 12.5021C14.1705 12.5019 14.339 12.398 14.4212 12.2336L14.5794 11.9171C14.7646 11.5468 15.2149 11.3963 15.5853 11.5812C15.9554 11.7665 16.1061 12.2168 15.9212 12.5871L15.763 12.9044C15.4267 13.5771 14.7387 14.0019 13.9867 14.0021C12.8898 14.0021 12.0004 13.1126 12.0003 12.0158V8.75211H10.5003V9.90836C10.5003 10.9362 10.2659 11.9491 9.81675 12.8693L9.6107 13.258L9.40171 13.6242C9.19628 13.9837 8.73785 14.1087 8.37828 13.9035C8.01867 13.698 7.89356 13.2397 8.09898 12.88L8.30894 12.5138L8.46812 12.2111C8.76755 11.5975 8.9452 10.9314 8.9896 10.2502L9.00035 9.90836V8.75211H7.90757C7.80678 8.75211 7.71034 8.79223 7.63902 8.86343C7.37283 9.12962 6.92261 8.88882 6.99644 8.51968L7.08433 8.08121C7.18084 7.59906 7.60432 7.25211 8.09605 7.25211H14.5921C14.6931 7.25211 14.7903 7.21213 14.8617 7.14078Z" fill="#BEBED1"/>
</g>
<defs>
<clipPath id="clip0_203_881">
<rect width="16" height="16" fill="white"/>
</clipPath>
</defs>
</svg>
