<svg width="16" height="16" viewBox="0 0 16 16" fill="none" xmlns="http://www.w3.org/2000/svg">
<path opacity="0.8" d="M9 3H11C12.4 3 13.1 3.00007 13.6348 3.27246C14.1052 3.51214 14.4879 3.89483 14.7275 4.36523C14.9442 4.79052 14.987 5.32034 14.9961 6.22363C13.9935 5.16304 12.5747 4.5 11 4.5C7.96243 4.5 5.5 6.96243 5.5 10C5.5 11.1072 5.82867 12.137 6.3916 13H5C3.60002 13 2.89999 12.9999 2.36523 12.7275C1.89483 12.4879 1.51214 12.1052 1.27246 11.6348C1.00007 11.1 1 10.4 1 9V4.2002C1 3.08009 0.999786 2.51962 1.21777 2.0918C1.40951 1.71554 1.71554 1.40951 2.0918 1.21777C2.51962 0.999786 3.08009 1 4.2002 1H7L9 3Z" fill="#FF4466"/>
<path d="M11 6C13.2091 6 15 7.79086 15 10C15 12.2091 13.2091 14 11 14C8.79086 14 7 12.2091 7 10C7 7.79086 8.79086 6 11 6ZM12.9424 8.05762C12.6983 7.81354 12.3017 7.81354 12.0576 8.05762L11 9.11523L9.94238 8.05762L9.84375 7.97754C9.60118 7.81758 9.2711 7.84414 9.05762 8.05762C8.84414 8.2711 8.81758 8.60118 8.97754 8.84375L9.05762 8.94238L10.1152 10L9.05762 11.0576C8.81354 11.3017 8.81354 11.6983 9.05762 11.9424C9.30169 12.1865 9.69831 12.1865 9.94238 11.9424L11 10.8848L12.0576 11.9424L12.1562 12.0225C12.3988 12.1824 12.7289 12.1559 12.9424 11.9424C13.1559 11.7289 13.1824 11.3988 13.0225 11.1562L12.9424 11.0576L11.8848 10L12.9424 8.94238C13.1865 8.69831 13.1865 8.30169 12.9424 8.05762Z" fill="#FF8197"/>
</svg>
