<svg width="16" height="16" viewBox="0 0 16 16" fill="none" xmlns="http://www.w3.org/2000/svg">
<path opacity="0.7" d="M9 3.00018H11C12.4 3.00018 13.1 3.00021 13.6348 3.27264C14.1052 3.51232 14.4879 3.895 14.7275 4.36541C14.9794 4.85989 14.9966 5.49567 14.998 6.69549C14.9129 6.4919 14.7937 6.30461 14.6328 6.15154C13.9545 5.50673 13.1233 5.01715 12.1973 4.74432C11.88 4.65086 11.5424 4.67166 11.2256 4.76678L11.0752 4.81268C10.6996 4.92552 10.2984 4.92561 9.92285 4.81268L9.77441 4.76775C9.45729 4.67239 9.1194 4.65072 8.80176 4.74432C7.87644 5.01708 7.04552 5.50594 6.36719 6.15057C6.1267 6.37911 5.97564 6.68315 5.89941 7.00603L5.86328 7.1574C5.77325 7.53876 5.57335 7.88584 5.28809 8.15447L5.17285 8.26287C4.93142 8.49022 4.74358 8.77248 4.66602 9.0949C4.55758 9.54612 4.5 10.0173 4.5 10.5002C4.50001 10.9827 4.55782 11.4524 4.66602 11.9025C4.74359 12.2252 4.93121 12.508 5.17285 12.7355L5.28809 12.8439C5.34029 12.8931 5.38822 12.9461 5.43457 13.0002H5C3.60008 13.0002 2.89998 13.0001 2.36523 12.7277C1.89483 12.488 1.51214 12.1053 1.27246 11.6349C1.00001 11.1002 1 10.4002 1 9.00018V4.20037C1 3.08031 0.999812 2.51979 1.21777 2.09197C1.40949 1.7157 1.71555 1.4097 2.0918 1.21795C2.51962 0.999962 3.08009 1.00018 4.2002 1.00018H7L9 3.00018Z" fill="#7E7E92"/>
<path d="M11.4984 6.43564C11.6604 6.29797 11.8753 6.21063 12.0745 6.28502C12.5465 6.4613 12.9807 6.71436 13.3623 7.02935C13.5263 7.16472 13.5582 7.39443 13.5201 7.60362C13.3889 8.32425 13.8289 9.08575 14.5188 9.33223C14.7193 9.40386 14.9025 9.54656 14.9378 9.75651C14.9784 9.99845 15 10.2469 15 10.5003C15 10.7534 14.9784 11.0014 14.9378 11.243C14.9025 11.453 14.7192 11.5957 14.5187 11.6674C13.829 11.9139 13.3891 12.6755 13.5202 13.3961C13.5582 13.6052 13.5263 13.8348 13.3624 13.9702C12.9811 14.2851 12.5472 14.5381 12.0756 14.7144C11.8764 14.7889 11.6614 14.7015 11.4993 14.5639C10.9403 14.0891 10.0587 14.0889 9.49984 14.5636C9.33764 14.7014 9.12256 14.7889 8.92323 14.7143C8.45173 14.538 8.01784 14.285 7.63663 13.9702C7.4727 13.8349 7.44083 13.6052 7.47896 13.3961C7.6104 12.6752 7.17068 11.9135 6.4806 11.6672C6.27995 11.5956 6.0965 11.4529 6.06145 11.2427C6.02115 11.0012 6.00002 10.7532 6 10.5003C6 10.2471 6.02113 9.99869 6.06146 9.75684C6.0965 9.54671 6.27993 9.40396 6.48057 9.33239C7.17077 9.08618 7.61061 8.32451 7.47907 7.60363C7.44089 7.39443 7.47275 7.16468 7.63674 7.0293C8.01822 6.71439 8.45247 6.46145 8.92431 6.28515C9.1236 6.21069 9.33859 6.29811 9.50072 6.43586C10.0593 6.91047 10.9397 6.91026 11.4984 6.43564ZM10.5 9.00028C9.67157 9.00028 9 9.67186 9 10.5003C9.00015 11.3286 9.67167 12.0003 10.5 12.0003C11.3283 12.0003 11.9998 11.3286 12 10.5003C12 9.67186 11.3284 9.00028 10.5 9.00028Z" fill="#BEBED1"/>
</svg>
