<svg width="16" height="16" viewBox="0 0 16 16" fill="none" xmlns="http://www.w3.org/2000/svg">
<path opacity="0.8" d="M8.99966 3H10.9997C12.3994 3 13.0997 3.00021 13.6344 3.27246C14.1048 3.51212 14.4875 3.89489 14.7272 4.36523C14.907 4.7182 14.9671 5.14322 14.9879 5.79395C14.4649 5.33948 13.8515 4.98362 13.1735 4.76172C13.1462 4.73685 13.1175 4.71317 13.0876 4.69141L12.9538 4.60938C12.9326 4.5986 12.8419 4.55566 12.5192 4.5293C12.2884 4.51047 12.0066 4.50435 11.6247 4.50195C11.5909 4.50132 11.557 4.5 11.5231 4.5H8.37857L6.37857 2.5H4.19986C3.61543 2.5 3.26663 2.50138 3.00845 2.52246C2.88823 2.5323 2.82059 2.54408 2.78775 2.55176L2.7731 2.55469C2.70263 2.59065 2.64146 2.64266 2.59537 2.70605L2.55435 2.77344C2.57106 2.74065 2.54179 2.76805 2.52213 3.00879C2.50104 3.26702 2.49966 3.61558 2.49966 4.2002V9C2.49966 9.72459 2.50107 10.1779 2.52896 10.5195C2.55538 10.8429 2.59838 10.9332 2.60904 10.9541L2.69107 11.0879C2.78326 11.2147 2.90462 11.3187 3.04556 11.3906L3.14908 11.4248C3.21447 11.4401 3.31833 11.4575 3.48013 11.4707C3.82167 11.4986 4.27526 11.5 4.99966 11.5H5.52798C5.68092 12.0408 5.91299 12.5446 6.20963 13H4.99966C3.77465 13 3.08525 13 2.57388 12.8174L2.3649 12.7275C1.95356 12.5179 1.60894 12.199 1.3688 11.8076L1.27213 11.6348C0.999802 11.1 0.999664 10.3999 0.999664 9V4.2002C0.999664 3.22027 1.00019 2.66886 1.14615 2.25977L1.21744 2.0918C1.38517 1.76265 1.64063 1.48706 1.95377 1.29492L2.09146 1.21777C2.41223 1.05433 2.8079 1.01316 3.45767 1.00293L4.19986 1H6.99966L8.99966 3Z" fill="#30A6F9"/>
<path d="M11.5234 6C13.8668 6 15.6489 8.10456 15.2637 10.416C15.1111 11.3301 14.3203 12 13.3936 12H12.333C12.0112 12.0002 11.8187 12.3449 11.9658 12.6143L12.0684 12.7725C12.3619 13.3112 11.9766 14 11.333 14H10.8193C8.89472 13.9998 7.24348 12.629 6.88868 10.7373C6.42714 8.27577 8.31497 6.00022 10.8193 6H11.5234ZM8.50001 8.75C8.08579 8.75 7.75001 9.08579 7.75001 9.5C7.75001 9.91421 8.08579 10.25 8.50001 10.25C8.91422 10.25 9.25001 9.91421 9.25001 9.5C9.25001 9.08579 8.91422 8.75 8.50001 8.75ZM13.75 8.75C13.3358 8.75 13 9.08579 13 9.5C13 9.91421 13.3358 10.25 13.75 10.25C14.1642 10.25 14.5 9.91421 14.5 9.5C14.5 9.08579 14.1642 8.75 13.75 8.75ZM10.083 7.25C9.66895 7.25018 9.33302 7.58589 9.33302 8C9.33302 8.4141 9.66895 8.74982 10.083 8.75C10.4972 8.75 10.833 8.41421 10.833 8C10.833 7.58579 10.4972 7.25 10.083 7.25ZM12.125 7.25C11.7108 7.25 11.375 7.58579 11.375 8C11.375 8.41421 11.7108 8.75 12.125 8.75C12.5392 8.75 12.875 8.41421 12.875 8C12.875 7.58579 12.5392 7.25 12.125 7.25Z" fill="#83C2FE"/>
</svg>
