<svg width="16" height="16" viewBox="0 0 16 16" fill="none" xmlns="http://www.w3.org/2000/svg">
<path opacity="0.8" d="M9 2.99999H11C12.4 2.99999 13.1 3.00006 13.6348 3.27245C14.1052 3.51213 14.4879 3.89482 14.7275 4.36522C14.8015 4.51045 14.8533 4.6683 14.8926 4.84862C14.519 4.77244 14.1175 4.80022 13.7305 4.96288L13.6055 5.0205L11.7656 5.94042C11.763 5.94163 11.7434 5.95063 11.7031 5.96288C11.6589 5.97631 11.5995 5.99067 11.5254 6.00389C11.3751 6.0307 11.1932 6.04686 11 6.04686C10.8068 6.04686 10.6249 6.0307 10.4746 6.00389C10.4005 5.99067 10.3411 5.97631 10.2969 5.96288C10.2566 5.95063 10.237 5.94163 10.2344 5.94042L8.39453 5.0205L8.26953 4.96288C6.96854 4.41612 5.5 5.36929 5.5 6.80956V9.00097C5.5002 9.922 5.77922 10.7815 6.25684 11.4951C6.29317 11.5495 6.37556 11.732 6.43555 12.0781C6.48876 12.3853 6.50608 12.7192 6.50098 13H5C3.60002 13 2.89999 12.9999 2.36523 12.7275C1.89483 12.4878 1.51214 12.1052 1.27246 11.6348C1.00007 11.1 1 10.4 1 8.99999V4.20018C1 3.08008 0.999786 2.51961 1.21777 2.09179C1.40951 1.71553 1.71554 1.40949 2.0918 1.21776C2.51962 0.999775 3.08009 0.999989 4.2002 0.999989H7L9 2.99999Z" fill="#30A6F9"/>
<path d="M7 6.80861C7.00029 6.43721 7.39134 6.19534 7.72363 6.36134L8.78906 6.89455C10.1439 7.57209 10.9998 8.95686 11 10.4717C11.0002 8.95686 11.8561 7.57209 13.2109 6.89455L14.2764 6.36134C14.6087 6.19534 14.9997 6.43721 15 6.80861V9.00002C15 10.3183 14.1488 11.4353 12.9668 11.8379C13.5717 12.0098 13.9999 12.5635 14 13.2051C14 13.3936 13.9252 13.5746 13.792 13.708L12.9307 14.5694C12.6802 14.8196 12.2879 14.8585 11.9932 14.6621C11.3728 14.2486 11 13.5522 11 12.8067C11 13.5522 10.6272 14.2486 10.0068 14.6621C9.71214 14.8585 9.31983 14.8196 9.06934 14.5694L8.20801 13.708C8.07481 13.5746 8 13.3936 8 13.2051C8.0001 12.5639 8.42782 12.0101 9.03223 11.8379C7.85064 11.4351 7.00001 10.3179 7 9.00002V6.80861Z" fill="#83C2FE"/>
</svg>
