<svg width="16" height="16" viewBox="0 0 16 16" fill="none" xmlns="http://www.w3.org/2000/svg">
<path opacity="0.7" d="M8.99988 2.99989H10.9999C12.3997 2.99989 13.0999 3.00002 13.6346 3.27235C14.105 3.51203 14.4877 3.89471 14.7274 4.36512C14.9166 4.73647 14.9724 5.18753 14.9901 5.89735C14.691 5.79332 14.3331 5.69813 13.9686 5.60047L10.8788 4.77235C10.4973 4.67013 10.1236 4.56919 9.80261 4.51063C9.46419 4.44895 9.05518 4.40785 8.60828 4.50282C7.98885 4.63456 7.42661 4.959 7.00281 5.42957C6.69716 5.7691 6.52875 6.14376 6.41296 6.46766C6.30317 6.77492 6.20367 7.14863 6.10144 7.53016L5.27332 10.621C5.17108 11.0025 5.07012 11.3762 5.0116 11.6972C4.94995 12.0355 4.90889 12.4438 5.00378 12.8905C5.01163 12.9274 5.0229 12.9634 5.0321 12.9999H4.99988C3.59986 12.9999 2.89987 12.9999 2.36511 12.7274C1.89471 12.4877 1.51202 12.1051 1.27234 11.6347C1.00002 11.0999 0.999878 10.3997 0.999878 8.99989V4.20008C0.999878 3.07998 0.999664 2.51951 1.21765 2.09168C1.40938 1.71547 1.71546 1.40939 2.09167 1.21766C2.5195 0.999672 3.07997 0.999886 4.20007 0.999886H6.99988L8.99988 2.99989Z" fill="#7E7E92"/>
<path d="M13.5804 7.04928C14.3915 7.26662 14.7977 7.37527 15.0653 7.61602C15.3008 7.82798 15.4635 8.10991 15.5294 8.41976C15.6041 8.7719 15.495 9.17805 15.2777 9.98915L14.4497 13.0794C14.2324 13.8905 14.1237 14.2967 13.883 14.5643C13.671 14.7997 13.3891 14.9625 13.0792 15.0284C12.7271 15.103 12.3209 14.994 11.5098 14.7767L8.41962 13.9487C7.60852 13.7313 7.20227 13.6227 6.93464 13.3819C6.69924 13.17 6.53647 12.888 6.47061 12.5782C6.39593 12.2261 6.50495 11.8199 6.72228 11.0088L7.5503 7.9186C7.76764 7.1075 7.87629 6.70125 8.11704 6.43363C8.329 6.19822 8.61093 6.03545 8.92078 5.96959C9.27292 5.89491 9.67907 6.00393 10.4902 6.22127L13.5804 7.04928ZM10.3576 9.03275C10.241 9.00151 10.1214 9.05793 10.0693 9.16174L10.0514 9.20953L9.53377 11.1414C9.49804 11.2747 9.57718 11.4118 9.71055 11.4476L11.6424 11.9652C11.7758 12.0009 11.9128 11.9218 11.9486 11.7884L12.4662 9.85658C12.4975 9.74 12.441 9.62033 12.3372 9.56825L12.2894 9.55039L10.3576 9.03275Z" fill="#BEBED1"/>
</svg>
