<svg width="16" height="16" viewBox="0 0 16 16" fill="none" xmlns="http://www.w3.org/2000/svg">
<path opacity="0.8" d="M8.99997 2.99965H11C12.3998 2.99965 13.1 2.9998 13.6347 3.27211C14.105 3.51174 14.4878 3.89461 14.7275 4.36488C14.9999 4.8996 15 5.59991 15 6.99965V8.4391C14.9235 8.39517 14.8437 8.35078 14.7617 8.30629L14.2021 8.01137L13.5 7.64613V6.99965C13.5 6.27525 13.4986 5.82166 13.4707 5.48012C13.4574 5.31832 13.4401 5.21445 13.4248 5.14906L13.3906 5.04555C13.3187 4.90461 13.2147 4.78324 13.0879 4.69106L12.9541 4.60902C12.9331 4.59835 12.8428 4.55536 12.5195 4.52895C12.1779 4.50106 11.7245 4.49965 11 4.49965H8.37888L6.37888 2.49965H4.20016C3.61555 2.49965 3.26699 2.50103 3.00876 2.52211C2.8884 2.53194 2.82095 2.54372 2.78806 2.55141L2.77341 2.55434C2.70291 2.59026 2.6418 2.64233 2.59567 2.7057L2.55466 2.77309C2.57105 2.74074 2.54204 2.7687 2.52243 3.00844C2.50135 3.26662 2.49997 3.61542 2.49997 4.19984V8.99965C2.49997 9.72401 2.50141 10.1776 2.52927 10.5192C2.55563 10.8418 2.59856 10.9325 2.60934 10.9538L2.69138 11.0875C2.78359 11.2144 2.90487 11.3184 3.04587 11.3903L3.14938 11.4245C3.21482 11.4398 3.31846 11.4571 3.48044 11.4704C3.82203 11.4982 4.27537 11.4996 4.99997 11.4996H7.49997V12.1168C7.49997 12.4223 7.50025 12.725 7.51071 12.9996H4.99997C3.77475 12.9996 3.0856 12.9996 2.57419 12.817L2.3652 12.7272C1.95382 12.5175 1.60927 12.1986 1.36911 11.8073L1.27243 11.6344C1.00018 11.0997 0.999969 10.3994 0.999969 8.99965V4.19984C0.99997 3.22006 1.00047 2.66847 1.14645 2.25941L1.21774 2.09145C1.38552 1.76233 1.64091 1.48666 1.95407 1.29457L2.09177 1.21742C2.41257 1.05401 2.8081 1.0128 3.45798 1.00258L4.20016 0.999649H6.99997L8.99997 2.99965Z" fill="#9B61FF"/>
<path d="M9 9.63418V12.1172C9 13.0582 9 13.5288 9.19699 13.7942C9.3687 14.0256 9.63187 14.1716 9.91905 14.195C10.2485 14.2217 10.6478 13.9728 11.4464 13.475L13.619 12.1206C14.3991 11.6343 14.7891 11.3912 14.9109 11.088C15.017 10.8237 15.0054 10.5266 14.8789 10.2713C14.7338 9.97859 14.3259 9.76671 13.5102 9.34297L11.3376 8.21433C10.5653 7.81315 10.1792 7.61256 9.86456 7.65558C9.5899 7.69312 9.34315 7.843 9.18321 8.06943C9 8.3288 9 8.76393 9 9.63418Z" fill="#BDA1FF"/>
</svg>
