<svg width="16" height="16" viewBox="0 0 16 16" fill="none" xmlns="http://www.w3.org/2000/svg">
<path opacity="0.8" d="M8.99982 3H10.9998C12.3997 3 13.0998 3.00014 13.6346 3.27246C14.105 3.51213 14.4877 3.89486 14.7274 4.36523C14.9071 4.71802 14.9663 5.14281 14.9871 5.79297C14.4643 5.33894 13.8512 4.98348 13.1736 4.76172C13.1464 4.73682 13.1177 4.7132 13.0877 4.69141L12.9539 4.60938C12.933 4.59871 12.8427 4.55572 12.5193 4.5293C12.2886 4.51046 12.0068 4.50435 11.6248 4.50195C11.591 4.50132 11.5572 4.5 11.5233 4.5H8.37872L6.37872 2.5H4.20001C3.61548 2.5 3.26681 2.50138 3.00861 2.52246C2.88828 2.5323 2.82076 2.54408 2.7879 2.55176L2.77325 2.55469C2.70273 2.59065 2.64164 2.64262 2.59552 2.70605L2.5545 2.77344C2.57121 2.74065 2.54195 2.76805 2.52228 3.00879C2.5012 3.26702 2.49982 3.61557 2.49982 4.2002V9C2.49982 9.7246 2.50123 10.1779 2.52911 10.5195C2.55556 10.8433 2.59859 10.9333 2.60919 10.9541L2.69122 11.0879C2.78344 11.2147 2.90471 11.3187 3.04572 11.3906L3.14923 11.4248C3.21465 11.4401 3.31839 11.4575 3.48029 11.4707C3.82185 11.4986 4.27531 11.5 4.99982 11.5H5.52814C5.68107 12.0408 5.91316 12.5446 6.20978 13H4.99982C3.7747 13 3.08543 13 2.57404 12.8174L2.36505 12.7275C1.95366 12.5179 1.60912 12.199 1.36896 11.8076L1.27228 11.6348C0.999921 11.1 0.999817 10.3999 0.999817 9V4.2002C0.999817 3.22023 1.00032 2.66887 1.1463 2.25977L1.21759 2.0918C1.38534 1.76261 1.64072 1.48706 1.95392 1.29492L2.09161 1.21777C2.41241 1.05432 2.80795 1.01316 3.45782 1.00293L4.20001 1H6.99982L8.99982 3Z" fill="#30A6F9"/>
<path d="M11.5234 6C13.8668 6 15.6489 8.10456 15.2637 10.416C15.1111 11.3301 14.3203 12 13.3936 12H12.333C12.0112 12.0002 11.8187 12.3449 11.9658 12.6143L12.0684 12.7725C12.3619 13.3112 11.9766 14 11.333 14H10.8193C8.89472 13.9998 7.24348 12.629 6.88868 10.7373C6.42714 8.27577 8.31497 6.00022 10.8193 6H11.5234ZM8.50001 8.75C8.08579 8.75 7.75001 9.08579 7.75001 9.5C7.75001 9.91421 8.08579 10.25 8.50001 10.25C8.91422 10.25 9.25001 9.91421 9.25001 9.5C9.25001 9.08579 8.91422 8.75 8.50001 8.75ZM13.75 8.75C13.3358 8.75 13 9.08579 13 9.5C13 9.91421 13.3358 10.25 13.75 10.25C14.1642 10.25 14.5 9.91421 14.5 9.5C14.5 9.08579 14.1642 8.75 13.75 8.75ZM10.083 7.25C9.66895 7.25018 9.33302 7.58589 9.33302 8C9.33302 8.4141 9.66895 8.74982 10.083 8.75C10.4972 8.75 10.833 8.41421 10.833 8C10.833 7.58579 10.4972 7.25 10.083 7.25ZM12.125 7.25C11.7108 7.25 11.375 7.58579 11.375 8C11.375 8.41421 11.7108 8.75 12.125 8.75C12.5392 8.75 12.875 8.41421 12.875 8C12.875 7.58579 12.5392 7.25 12.125 7.25Z" fill="#83C2FE"/>
</svg>
