<svg width="16" height="16" viewBox="0 0 16 16" fill="none" xmlns="http://www.w3.org/2000/svg">
<path opacity="0.7" d="M9.00037 3.00034H11.0004C12.4001 3.00034 13.1004 3.00043 13.6351 3.2728C14.1053 3.5125 14.4883 3.89531 14.7279 4.36557C14.9169 4.7369 14.9729 5.18808 14.9906 5.8978C14.6912 5.79362 14.3331 5.69773 13.9681 5.59995L13.4691 5.46616C13.4561 5.31268 13.44 5.21326 13.4252 5.14975L13.391 5.04624C13.3191 4.90533 13.215 4.78396 13.0883 4.69174L12.9545 4.60971C12.9338 4.59918 12.8437 4.55612 12.5199 4.52963C12.1784 4.50175 11.7248 4.50034 11.0004 4.50034H9.73865C9.41576 4.4457 9.03385 4.41395 8.61853 4.50034H8.37927L6.37927 2.50034H4.20056C3.61618 2.50034 3.26735 2.50174 3.00916 2.5228C2.88906 2.53261 2.82143 2.54441 2.78845 2.5521L2.7738 2.55503C2.70322 2.59099 2.64222 2.64292 2.59607 2.70639L2.55505 2.77378C2.57176 2.74099 2.5425 2.76838 2.52283 3.00913C2.50177 3.26733 2.50037 3.61612 2.50037 4.20053V9.00034C2.50037 9.72475 2.50178 10.1783 2.52966 10.5199C2.55615 10.8437 2.5992 10.9338 2.60974 10.9544L2.69177 11.0882C2.78399 11.2149 2.90535 11.3191 3.04626 11.391L3.14978 11.4251C3.21524 11.4405 3.31919 11.4578 3.48083 11.471C3.82238 11.4989 4.27604 11.5003 5.00037 11.5003H5.05212C5.03746 11.5677 5.02271 11.633 5.01111 11.6966C4.94942 12.0351 4.90829 12.444 5.0033 12.891C5.01114 12.9279 5.02241 12.9639 5.03162 13.0003H5.00037C3.77548 13.0003 3.08596 13.0002 2.57458 12.8177L2.3656 12.7279C1.95429 12.5183 1.60969 12.1992 1.36951 11.808L1.27283 11.6351C1.00046 11.1004 1.00037 10.4001 1.00037 9.00034V4.20053C1.00037 3.22067 1.00092 2.66919 1.14685 2.2601L1.21814 2.09213C1.38591 1.7629 1.64122 1.4874 1.95447 1.29526L2.09216 1.21811C2.41296 1.05471 2.80851 1.01349 3.45837 1.00327L4.20056 1.00034H7.00037L9.00037 3.00034Z" fill="#7E7E92"/>
<path d="M13.5804 7.04928C14.3915 7.26662 14.7977 7.37527 15.0653 7.61602C15.3008 7.82798 15.4635 8.10991 15.5294 8.41976C15.6041 8.7719 15.495 9.17805 15.2777 9.98915L14.4497 13.0794C14.2324 13.8905 14.1237 14.2967 13.883 14.5643C13.671 14.7997 13.3891 14.9625 13.0792 15.0284C12.7271 15.103 12.3209 14.994 11.5098 14.7767L8.41962 13.9487C7.60852 13.7313 7.20227 13.6227 6.93464 13.3819C6.69924 13.17 6.53647 12.888 6.47061 12.5782C6.39593 12.2261 6.50495 11.8199 6.72228 11.0088L7.5503 7.9186C7.76764 7.1075 7.87629 6.70125 8.11704 6.43363C8.329 6.19822 8.61093 6.03545 8.92078 5.96959C9.27292 5.89491 9.67907 6.00393 10.4902 6.22127L13.5804 7.04928ZM10.3576 9.03275C10.241 9.00151 10.1214 9.05793 10.0693 9.16174L10.0514 9.20953L9.53377 11.1414C9.49804 11.2747 9.57718 11.4118 9.71055 11.4476L11.6424 11.9652C11.7758 12.0009 11.9128 11.9218 11.9486 11.7884L12.4662 9.85658C12.4975 9.74 12.441 9.62033 12.3372 9.56825L12.2894 9.55039L10.3576 9.03275Z" fill="#BEBED1"/>
</svg>
