<svg width="16" height="16" viewBox="0 0 16 16" fill="none" xmlns="http://www.w3.org/2000/svg">
<path opacity="0.7" d="M9 2.99981H11C12.3999 2.99981 13.1 2.99992 13.6348 3.27227C14.1052 3.51195 14.4879 3.89464 14.7275 4.36504C14.9676 4.8362 14.9937 5.43566 14.9971 6.52911C14.9881 6.52393 14.9798 6.5176 14.9707 6.5125L12.4707 5.10625C11.5575 4.59262 10.4425 4.59262 9.5293 5.10625L7.0293 6.5125C6.08482 7.04378 5.50018 8.04314 5.5 9.12676V11.8729C5.50004 12.2659 5.57855 12.6473 5.72168 12.9998H5C3.59996 12.9998 2.9 12.9998 2.36523 12.7273C1.89483 12.4877 1.51214 12.105 1.27246 11.6346C1.00014 11.0998 1 10.3997 1 8.99981V4.2C1 3.0799 0.999786 2.51943 1.21777 2.09161C1.40953 1.7154 1.71556 1.40929 2.0918 1.21758C2.51962 0.999596 3.08009 0.999809 4.2002 0.999809H7L9 2.99981Z" fill="#7E7E92"/>
<path d="M9.82337 6.66185C10.2526 6.42043 10.4672 6.29972 10.6947 6.25242C10.8961 6.21056 11.1039 6.21056 11.3053 6.25242C11.5328 6.29972 11.7474 6.42043 12.1766 6.66185L13.7766 7.56185C14.222 7.81238 14.4447 7.93765 14.6068 8.11486C14.7502 8.27164 14.8587 8.4571 14.925 8.65895C15 8.88711 15 9.14262 15 9.65363V11.3464C15 11.8574 15 12.1129 14.925 12.341C14.8587 12.5429 14.7502 12.7284 14.6068 12.8851C14.4447 13.0623 14.222 13.1876 13.7766 13.4381L12.1766 14.3381C11.7474 14.5796 11.5328 14.7003 11.3053 14.7476C11.1039 14.7894 10.8961 14.7894 10.6947 14.7476C10.4672 14.7003 10.2526 14.5796 9.82337 14.3381L8.22337 13.4381C7.77798 13.1876 7.55529 13.0623 7.39319 12.8851C7.24978 12.7284 7.14132 12.5429 7.07498 12.341C7 12.1129 7 11.8574 7 11.3464V9.65363C7 9.14262 7 8.88711 7.07498 8.65895C7.14132 8.4571 7.24978 8.27164 7.39319 8.11486C7.55529 7.93765 7.77798 7.81238 8.22337 7.56185L9.82337 6.66185Z" fill="#7CD379"/>
<path d="M9.82337 6.66185C10.2526 6.42043 10.4672 6.29972 10.6947 6.25242C10.8961 6.21056 11.1039 6.21056 11.3053 6.25242C11.5328 6.29972 11.7474 6.42043 12.1766 6.66185L13.7766 7.56185C14.222 7.81238 14.4447 7.93765 14.6068 8.11486C14.7502 8.27164 14.8587 8.4571 14.925 8.65895C15 8.88711 15 9.14262 15 9.65363V11.3464C15 11.8574 15 12.1129 14.925 12.341C14.8587 12.5429 14.7502 12.7284 14.6068 12.8851C14.4447 13.0623 14.222 13.1876 13.7766 13.4381L12.1766 14.3381C11.7474 14.5796 11.5328 14.7003 11.3053 14.7476C11.1039 14.7894 10.8961 14.7894 10.6947 14.7476C10.4672 14.7003 10.2526 14.5796 9.82337 14.3381L8.22337 13.4381C7.77798 13.1876 7.55529 13.0623 7.39319 12.8851C7.24978 12.7284 7.14132 12.5429 7.07498 12.341C7 12.1129 7 11.8574 7 11.3464V9.65363C7 9.14262 7 8.88711 7.07498 8.65895C7.14132 8.4571 7.24978 8.27164 7.39319 8.11486C7.55529 7.93765 7.77798 7.81238 8.22337 7.56185L9.82337 6.66185Z" fill="black" fill-opacity="0.25" style="mix-blend-mode:plus-darker"/>
<path d="M12.0226 14.4248L13.9302 13.3517L13.9302 13.3517C14.3039 13.1416 14.4907 13.0365 14.5909 12.8837C14.679 12.7493 14.7216 12.5902 14.7125 12.4297C14.7021 12.2473 14.5928 12.0629 14.3743 11.6941L11.5981 7.00931C11.3883 6.65525 11.2834 6.47823 11.1342 6.3823C11.0029 6.2979 10.8486 6.25656 10.6927 6.26403C10.5155 6.27253 10.3362 6.37342 9.97745 6.57519L8.06976 7.64826C7.69614 7.85842 7.50932 7.96351 7.40911 8.11633C7.32099 8.25071 7.27837 8.40984 7.28751 8.57028C7.29791 8.75273 7.40718 8.93712 7.62573 9.30591L10.4019 13.9907C10.6117 14.3447 10.7166 14.5218 10.8658 14.6177C10.9971 14.7021 11.1514 14.7434 11.3073 14.736C11.4845 14.7275 11.6638 14.6266 12.0226 14.4248Z" fill="#7CD379"/>
</svg>
