<svg width="16" height="16" viewBox="0 0 16 16" fill="none" xmlns="http://www.w3.org/2000/svg">
<path opacity="0.8" d="M9 3H11C12.4 3 13.1 3.00007 13.6348 3.27246C14.1052 3.51214 14.4879 3.89483 14.7275 4.36523C14.7553 4.41973 14.7784 4.47666 14.8008 4.53516C14.769 4.53195 14.7378 4.52791 14.707 4.52539C14.3817 4.49883 13.9948 4.5 13.5996 4.5H8.37891L6.37891 2.5H4.2002C3.61556 2.5 3.26702 2.50138 3.00879 2.52246C2.88836 2.5323 2.82096 2.54407 2.78809 2.55176L2.77344 2.55469C2.70286 2.59065 2.64185 2.64258 2.5957 2.70605L2.55469 2.77344C2.57139 2.74066 2.54213 2.76807 2.52246 3.00879C2.50138 3.26702 2.5 3.61556 2.5 4.2002V9C2.5 9.7246 2.50141 10.1779 2.5293 10.5195C2.55578 10.8436 2.59883 10.9334 2.60938 10.9541L2.69141 11.0879C2.78366 11.2148 2.90484 11.3187 3.0459 11.3906L3.14941 11.4248C3.21485 11.4402 3.31847 11.4575 3.48047 11.4707C3.82206 11.4986 4.27539 11.5 5 11.5H6.76855C6.75173 11.5318 6.73303 11.5629 6.7168 11.5947C6.5782 11.8664 6.5 12.1739 6.5 12.5C6.5 12.6704 6.5147 12.8374 6.54199 13H5C3.77477 13 3.08563 13 2.57422 12.8174L2.36523 12.7275C1.95378 12.5179 1.60933 12.199 1.36914 11.8076L1.27246 11.6348C1.00007 11.1 1 10.4 1 9V4.2002C1 3.22019 1.00049 2.66887 1.14648 2.25977L1.21777 2.0918C1.38555 1.76256 1.64085 1.48707 1.9541 1.29492L2.0918 1.21777C2.41263 1.0543 2.80803 1.01315 3.45801 1.00293L4.2002 1H7L9 3Z" fill="#9B61FF"/>
<path d="M12.6 14H9.5C8.67157 14 8 13.3284 8 12.5C8 12.2239 8.22386 12 8.5 12H13.5C13.7761 12 14 11.7761 14 11.5C14 11.2239 13.7761 11 13.5 11H9.8C9.51997 11 9.37996 11 9.273 10.9455C9.17892 10.8976 9.10243 10.8211 9.0545 10.727C9 10.62 9 10.48 9 10.2V8.4C9 7.55992 9 7.13988 9.16349 6.81901C9.3073 6.53677 9.53677 6.3073 9.81901 6.16349C10.1399 6 10.5599 6 11.4 6H14.5C15.3284 6 16 6.67157 16 7.5C16 7.77614 15.7761 8 15.5 8C15.2239 8 15 8.22386 15 8.5V11.6C15 12.4401 15 12.8601 14.8365 13.181C14.6927 13.4632 14.4632 13.6927 14.181 13.8365C13.8601 14 13.4401 14 12.6 14Z" fill="#BDA1FF"/>
</svg>
