<svg width="16" height="16" viewBox="0 0 16 16" fill="none" xmlns="http://www.w3.org/2000/svg">
<path opacity="0.8" d="M9.00015 3.0003H11.0002C12.4002 3.0003 13.1002 3.00028 13.6349 3.27276C14.1052 3.51239 14.488 3.89431 14.7277 4.36456C14.8623 4.62873 14.9296 4.93377 14.964 5.34307L14.7677 5.14678L14.5753 4.97198C13.653 4.21673 12.4128 4.27553 11.5353 4.80694L11.3527 4.92803C10.9477 5.22216 10.4664 5.50639 10.0031 5.71124C9.51259 5.92807 9.1679 6.00025 9.00015 6.0003H8.83511C7.70236 6.0003 6.72116 6.75979 6.42496 7.83428L6.37515 8.05303L5.548 12.6028C5.52393 12.7353 5.51721 12.8686 5.52359 13.0003H5.00015C3.60039 13.0003 2.90011 13.0001 2.36539 12.7278C1.89502 12.4882 1.5123 12.1054 1.27261 11.6351C1.00015 11.1003 1.00015 10.4002 1.00015 9.0003V4.19952C1.00015 3.07981 1.00001 2.51985 1.21793 2.09209C1.40966 1.7158 1.71566 1.40982 2.09195 1.21807C2.51977 1.00008 3.08024 1.0003 4.20035 1.0003H7.00015L9.00015 3.0003Z" fill="#FD7334"/>
<path d="M12.2345 6.14144C12.6814 5.81688 13.3166 5.81658 13.7071 6.20711L14.7929 7.29289C15.1834 7.68342 15.1831 8.31861 14.8586 8.76546C14.1588 9.7289 13.5 11.0578 13.5 12V12.1654C13.5 12.6487 13.1544 13.0628 12.6789 13.1493L8.78741 13.8568C8.54627 13.9007 8.3926 13.6074 8.56591 13.4341L10.5 11.5C11.064 11.5 11.5 11.064 11.5 10.5C11.5 9.93596 11.064 9.5 10.5 9.5C9.93596 9.5 9.5 9.93596 9.5 10.5L7.56591 12.4341C7.3926 12.6074 7.09932 12.4537 7.14317 12.2126L7.85071 8.32111C7.93716 7.84562 8.35129 7.5 8.83458 7.5H9C9.94224 7.5 11.2711 6.84123 12.2345 6.14144Z" fill="#FFA366"/>
</svg>
