<svg width="16" height="16" viewBox="0 0 16 16" fill="none" xmlns="http://www.w3.org/2000/svg">
<path opacity="0.8" d="M8.99966 2.9998H10.9997C12.3998 2.9998 13.1006 2.99977 13.6354 3.27226C14.1057 3.51193 14.4876 3.89476 14.7272 4.36503C14.8145 4.53638 14.8715 4.72517 14.9118 4.94804L14.6208 4.83183L14.4577 4.77324C13.6891 4.52589 12.8465 4.66602 12.1989 5.14824L12.0631 5.25663L10.5299 6.57206C10.0764 6.96133 9.43309 7.04058 8.89908 6.77226L8.68326 6.67949C8.24404 6.51978 7.76162 6.51922 7.32193 6.67753L7.10513 6.77031L6.88248 6.88163C6.03568 7.30506 5.5008 8.17122 5.50064 9.11796V11.8816C5.50068 12.2774 5.59462 12.6587 5.76529 12.9998H4.99966C3.59976 12.9998 2.89963 12.9998 2.3649 12.7273C1.89457 12.4876 1.51178 12.1049 1.27213 11.6346C0.999883 11.0998 0.999664 10.3995 0.999664 8.9998V4.19999C0.999664 3.07989 1.00043 2.51942 1.21841 2.09159C1.41018 1.7155 1.71628 1.40923 2.09244 1.21757C2.52018 0.999847 3.08028 0.999798 4.19986 0.999798H6.99966L8.99966 2.9998Z" fill="#4D72F7"/>
<path fill-rule="evenodd" clip-rule="evenodd" d="M13.0363 14.5719C13.3196 14.8335 13.728 14.9088 14.0859 14.7656L15.3714 14.2514C15.751 14.0996 16 13.7319 16 13.323V7.67703C16 7.26813 15.751 6.90042 15.3714 6.74856L14.0859 6.23438C13.728 6.09119 13.3196 6.16654 13.0363 6.42805L9.86439 9.35593L8.20808 8.15134C8.07749 8.05637 7.90907 8.03031 7.75588 8.08137L7.29415 8.23528C6.93522 8.35492 6.83407 8.81442 7.10958 9.07372L8.62499 10.5L7.10958 11.9263C6.83407 12.1856 6.93522 12.6451 7.29414 12.7647L7.75588 12.9186C7.90907 12.9697 8.07749 12.9436 8.20809 12.8487L9.86439 11.6441L13.0363 14.5719ZM13.5 12L11.4375 10.5L13.5 9V12Z" fill="#94BAFF"/>
</svg>
