<svg width="16" height="16" viewBox="0 0 16 16" fill="none" xmlns="http://www.w3.org/2000/svg">
<path opacity="0.8" d="M8.99997 2.99998H11C12.3999 2.99998 13.1 3.00007 13.6347 3.27245C14.1051 3.51213 14.4878 3.89481 14.7275 4.36522C14.8007 4.50889 14.8524 4.66486 14.8916 4.84276C14.8818 4.83763 14.8721 4.83216 14.8623 4.82713C14.4552 4.6197 14.0499 4.55339 13.707 4.52538C13.3817 4.49882 12.9947 4.49998 12.5996 4.49998H10.9004C10.5052 4.49998 10.1182 4.49882 9.79294 4.52538C9.45006 4.55339 9.04479 4.61969 8.63766 4.82713C8.07345 5.11471 7.61469 5.57347 7.32712 6.13768C7.11968 6.54481 7.05338 6.95007 7.02536 7.29295C6.9988 7.61826 6.99997 8.00522 6.99997 8.40038V13H4.99997C3.59999 13 2.89996 12.9999 2.3652 12.7275C1.8948 12.4878 1.51211 12.1052 1.27243 11.6348C1.00005 11.1 0.999969 10.3999 0.999969 8.99998V4.20018C0.999969 3.08007 0.999756 2.51961 1.21774 2.09178C1.40947 1.71554 1.71552 1.40949 2.09177 1.21776C2.51959 0.999771 3.08006 0.999985 4.20016 0.999985H6.99997L8.99997 2.99998Z" fill="#30A6F9"/>
<path d="M8.5 8.4C8.5 7.55992 8.5 7.13988 8.66349 6.81901C8.8073 6.53677 9.03677 6.3073 9.31901 6.16349C9.63988 6 10.0599 6 10.9 6H12.6C13.4401 6 13.8601 6 14.181 6.16349C14.4632 6.3073 14.6927 6.53677 14.8365 6.81901C15 7.13988 15 7.55992 15 8.4V13.0683C15 13.5361 15 13.77 14.902 13.9025C14.8166 14.018 14.6856 14.0912 14.5425 14.1034C14.3783 14.1174 14.1791 13.9948 13.7807 13.7497L12.1693 12.758C12.017 12.6643 11.9409 12.6175 11.8594 12.5992C11.7874 12.583 11.7126 12.583 11.6406 12.5992C11.5591 12.6175 11.483 12.6643 11.3307 12.758L9.71928 13.7497C9.3209 13.9948 9.1217 14.1174 8.95751 14.1034C8.81437 14.0912 8.6834 14.018 8.59798 13.9025C8.5 13.77 8.5 13.5361 8.5 13.0683V8.4Z" fill="#83C2FE"/>
</svg>
