<svg width="16" height="16" viewBox="0 0 16 16" fill="none" xmlns="http://www.w3.org/2000/svg">
<path opacity="0.8" d="M9 2.99998H11C12.4 2.99998 13.1 3.00006 13.6348 3.27245C14.1052 3.51213 14.4879 3.89482 14.7275 4.36522C14.8007 4.50888 14.8525 4.66488 14.8916 4.84276C14.8818 4.83763 14.8722 4.83216 14.8623 4.82713C14.4552 4.61969 14.0499 4.55339 13.707 4.52538C13.3817 4.49882 12.9948 4.49998 12.5996 4.49998H8.37891L6.37891 2.49998H4.2002C3.61557 2.49998 3.26702 2.50136 3.00879 2.52245C2.88836 2.53229 2.82096 2.54406 2.78809 2.55174L2.77344 2.55467C2.70286 2.59064 2.64185 2.64257 2.5957 2.70604L2.55469 2.77342C2.57139 2.74064 2.54213 2.76806 2.52246 3.00877C2.50138 3.267 2.5 3.61555 2.5 4.20018V8.99998C2.5 9.72458 2.50141 10.1779 2.5293 10.5195C2.55577 10.8435 2.59882 10.9334 2.60938 10.9541L2.69141 11.0879C2.78365 11.2148 2.90485 11.3187 3.0459 11.3906L3.14941 11.4248C3.21485 11.4401 3.31848 11.4575 3.48047 11.4707C3.82206 11.4986 4.2754 11.5 5 11.5H5.5V11.5996C5.5 11.9947 5.49883 12.3817 5.52539 12.707C5.53303 12.8005 5.54513 12.8984 5.56055 13H5C3.77478 13 3.08563 13 2.57422 12.8174L2.36523 12.7275C1.95379 12.5179 1.60933 12.199 1.36914 11.8076L1.27246 11.6348C1.00008 11.1 1 10.3999 1 8.99998V4.20018C1 3.22018 1.00049 2.66886 1.14648 2.25975L1.21777 2.09178C1.38555 1.76255 1.64085 1.48705 1.9541 1.29491L2.0918 1.21776C2.41262 1.05429 2.80804 1.01314 3.45801 1.00291L4.2002 0.999985H7L9 2.99998Z" fill="#4D72F7"/>
<path d="M8.5 9C8.77614 9 9 9.22386 9 9.5V13.5C9 13.7761 8.77614 14 8.5 14C7.67157 14 7 13.3284 7 12.5V9.5C7 9.22386 7.22386 9 7.5 9H8.5ZM14.5 9C14.7761 9 15 9.22386 15 9.5V12.5C15 13.3284 14.3284 14 13.5 14H10.5C10.2239 14 10 13.7761 10 13.5V9.5C10 9.22386 10.2239 9 10.5 9H14.5ZM13.5 6C14.3284 6 15 6.67157 15 7.5C15 7.77614 14.7761 8 14.5 8H7.5C7.22386 8 7 7.77614 7 7.5C7 6.67157 7.67157 6 8.5 6H13.5Z" fill="#94BAFF"/>
</svg>
