<svg width="16" height="16" viewBox="0 0 16 16" fill="none" xmlns="http://www.w3.org/2000/svg">
<path opacity="0.8" d="M9 2.99971H11C12.3999 2.99971 13.1 2.99984 13.6348 3.27217C14.1052 3.51185 14.4879 3.89456 14.7275 4.36494C14.8301 4.56632 14.8937 4.79127 14.9336 5.06807C14.4536 4.87342 13.9076 4.82488 13.3613 4.97041L13.209 5.01631L9.20898 6.34932C8.18841 6.68974 7.50002 7.64551 7.5 8.72139V9.75166C7.5 10.4652 7.07559 11.0951 6.63574 11.6569C6.33541 12.0406 6.1264 12.4988 6.04199 12.9997H5C3.59992 12.9997 2.90001 12.9997 2.36523 12.7272C1.89495 12.4876 1.51216 12.1057 1.27246 11.6355C0.999977 11.1007 1 10.3998 1 8.99971V4.19991C1 3.08026 1.00002 2.52024 1.21777 2.09248C1.40946 1.71628 1.71564 1.41022 2.0918 1.21846C2.51962 1.00047 3.08009 0.99971 4.2002 0.99971H7L9 2.99971Z" fill="#FF4466"/>
<path d="M13.6836 6.43849C14.3311 6.22265 15 6.70515 15 7.38771V12.5L14.9922 12.6533C14.9154 13.4097 14.2767 14 13.5 14C12.6716 14 12 13.3284 12 12.5C12 11.6716 12.6716 11 13.5 11V9.00001L10.5 10V13.5L10.4922 13.6533C10.4154 14.4097 9.77666 15 9 15C8.17158 15 7.50001 14.3284 7.5 13.5C7.5 12.6716 8.17157 12 9 12V8.72072C9.00002 8.2904 9.27542 7.90866 9.68359 7.77247L13.6836 6.43849Z" fill="#FF8197"/>
</svg>
