<svg width="16" height="16" viewBox="0 0 16 16" fill="none" xmlns="http://www.w3.org/2000/svg">
<path opacity="0.7" d="M9 2.99999H11C12.4 2.99999 13.1 3.00007 13.6348 3.27245C14.1052 3.51213 14.4879 3.89483 14.7275 4.36523C14.9111 4.72556 14.9697 5.16097 14.9893 5.83495C14.5611 5.63711 14.1311 5.56455 13.7354 5.53222C13.6512 5.52535 13.5635 5.51987 13.4727 5.51562C13.4718 5.50379 13.4716 5.49203 13.4707 5.48046C13.4575 5.31847 13.4402 5.21484 13.4248 5.14941L13.3906 5.04589C13.3187 4.90484 13.2148 4.78365 13.0879 4.6914L12.9541 4.60937C12.9334 4.59882 12.8436 4.55577 12.5195 4.52929C12.1779 4.5014 11.7246 4.49999 11 4.49999H8.37891L6.37891 2.49999H4.2002C3.61556 2.49999 3.26702 2.50137 3.00879 2.52245C2.88836 2.53229 2.82096 2.54406 2.78809 2.55175L2.77344 2.55468C2.70286 2.59064 2.64185 2.64257 2.5957 2.70605L2.55469 2.77343C2.57139 2.74065 2.54213 2.76806 2.52246 3.00878C2.50138 3.26701 2.5 3.61556 2.5 4.20019V8.99999C2.5 9.72459 2.50141 10.1779 2.5293 10.5195C2.55577 10.8436 2.59882 10.9334 2.60938 10.9541L2.69141 11.0879C2.78365 11.2148 2.90484 11.3187 3.0459 11.3906L3.14941 11.4248C3.21485 11.4401 3.31848 11.4575 3.48047 11.4707C3.62908 11.4828 3.79888 11.489 4.00293 11.4932C4.00634 11.7612 4.0139 12.0108 4.03223 12.2353C4.05211 12.4787 4.08749 12.735 4.15723 12.9961C3.43307 12.9872 2.9545 12.9532 2.57422 12.8174L2.36523 12.7275C1.95378 12.5179 1.60933 12.199 1.36914 11.8076L1.27246 11.6348C1.00007 11.1 1 10.4 1 8.99999V4.20019C1 3.22019 1.00049 2.66887 1.14648 2.25976L1.21777 2.09179C1.38555 1.76256 1.64085 1.48706 1.9541 1.29491L2.0918 1.21777C2.41263 1.0543 2.80804 1.01315 3.45801 1.00292L4.2002 0.999992H7L9 2.99999Z" fill="#7E7E92"/>
<path d="M12.2998 7C13.4199 7 13.9804 6.99979 14.4082 7.21777C14.7845 7.40951 15.0905 7.71554 15.2822 8.0918C15.5002 8.51962 15.5 9.08009 15.5 10.2002V10.7998C15.5 11.9199 15.5002 12.4804 15.2822 12.9082C15.0905 13.2845 14.7845 13.5905 14.4082 13.7822C13.9804 14.0002 13.4199 14 12.2998 14H8.7002C7.58009 14 7.01962 14.0002 6.5918 13.7822C6.21554 13.5905 5.90951 13.2845 5.71777 12.9082C5.49979 12.4804 5.5 11.9199 5.5 10.7998V10.2002C5.5 9.08009 5.49979 8.51962 5.71777 8.0918C5.90951 7.71554 6.21554 7.40951 6.5918 7.21777C7.01962 6.99979 7.58009 7 8.7002 7H12.2998ZM7.5 10.9004C7.16863 10.9004 6.90039 11.1686 6.90039 11.5C6.90039 11.8314 7.16863 12.0996 7.5 12.0996C7.83137 12.0996 8.09961 11.8314 8.09961 11.5C8.09961 11.1686 7.83137 10.9004 7.5 10.9004ZM13.5 10.9004C13.1686 10.9004 12.9004 11.1686 12.9004 11.5C12.9004 11.8314 13.1686 12.0996 13.5 12.0996C13.8314 12.0996 14.0996 11.8314 14.0996 11.5C14.0996 11.1686 13.8314 10.9004 13.5 10.9004ZM9.5 11C9.22386 11 9 11.2239 9 11.5C9 11.7761 9.22386 12 9.5 12H11.5C11.7761 12 12 11.7761 12 11.5C12 11.2239 11.7761 11 11.5 11H9.5ZM7.5 8.90039C7.16863 8.90039 6.90039 9.16863 6.90039 9.5C6.90039 9.83137 7.16863 10.0996 7.5 10.0996C7.83137 10.0996 8.09961 9.83137 8.09961 9.5C8.09961 9.16863 7.83137 8.90039 7.5 8.90039ZM9.5 8.90039C9.16863 8.90039 8.90039 9.16863 8.90039 9.5C8.90039 9.83137 9.16863 10.0996 9.5 10.0996C9.83137 10.0996 10.0996 9.83137 10.0996 9.5C10.0996 9.16863 9.83137 8.90039 9.5 8.90039ZM11.5 8.90039C11.1686 8.90039 10.9004 9.16863 10.9004 9.5C10.9004 9.83137 11.1686 10.0996 11.5 10.0996C11.8314 10.0996 12.0996 9.83137 12.0996 9.5C12.0996 9.16863 11.8314 8.90039 11.5 8.90039ZM13.5 8.90039C13.1686 8.90039 12.9004 9.16863 12.9004 9.5C12.9004 9.83137 13.1686 10.0996 13.5 10.0996C13.8314 10.0996 14.0996 9.83137 14.0996 9.5C14.0996 9.16863 13.8314 8.90039 13.5 8.90039Z" fill="#BEBED1"/>
</svg>
