<svg width="16" height="16" viewBox="0 0 16 16" fill="none" xmlns="http://www.w3.org/2000/svg">
<path opacity="0.7" d="M8.99988 3.0002H10.9999C12.3999 3.0002 13.0999 3.00027 13.6346 3.27266C14.105 3.51234 14.4877 3.89503 14.7274 4.36543C14.9933 4.88749 14.9987 5.56701 14.9989 6.90157C14.8314 6.8049 14.6539 6.72282 14.4677 6.65938L14.2762 6.60176C14.179 6.57573 14.0788 6.55659 13.9784 6.54219C13.805 6.51727 13.6379 6.45755 13.4969 6.35762C13.4945 5.98457 13.4891 5.7079 13.4706 5.48067C13.4574 5.3188 13.44 5.21506 13.4247 5.14961L13.3905 5.0461C13.3186 4.90505 13.2146 4.78385 13.0878 4.6916L12.954 4.60957C12.9333 4.59903 12.8435 4.55597 12.5194 4.5295C12.1778 4.50161 11.7244 4.5002 10.9999 4.5002H8.37878L6.37878 2.5002H4.20007C3.6155 2.5002 3.26688 2.50158 3.00867 2.52266C2.88831 2.5325 2.82083 2.54427 2.78796 2.55196L2.77332 2.55489C2.7028 2.59085 2.6417 2.64283 2.59558 2.70625L2.55457 2.77364C2.57127 2.74085 2.54201 2.76824 2.52234 3.00899C2.50127 3.2672 2.49988 3.61591 2.49988 4.20039V9.0002C2.49988 9.72469 2.50129 10.1782 2.52917 10.5197C2.55566 10.8437 2.59871 10.9336 2.60925 10.9543L2.69128 11.0881C2.78353 11.2149 2.90475 11.3189 3.04578 11.3908L3.14929 11.425C3.21472 11.4403 3.3184 11.4577 3.48035 11.4709C3.82193 11.4988 4.27533 11.5002 4.99988 11.5002H5.49988V11.5988C5.49988 11.9937 5.49878 12.3811 5.52527 12.7063C5.53292 12.7999 5.54495 12.8984 5.56042 13.0002H4.99988C3.77471 13.0002 3.0855 13.0002 2.5741 12.8176L2.36511 12.7277C1.95369 12.5181 1.60921 12.1992 1.36902 11.8078L1.27234 11.635C0.999958 11.1002 0.999878 10.4 0.999878 9.0002V4.20039C0.999878 3.22056 1.00044 2.66905 1.14636 2.25996L1.21765 2.092C1.3854 1.76282 1.6408 1.48726 1.95398 1.29512L2.09167 1.21797C2.41249 1.05451 2.80798 1.01336 3.45789 1.00313L4.20007 1.0002H6.99988L8.99988 3.0002Z" fill="#7E7E92"/>
<path d="M11.3369 7C11.5815 7 11.7042 6.99971 11.8193 7.02734C11.9214 7.05184 12.0189 7.09264 12.1084 7.14746C12.2093 7.2093 12.2959 7.29588 12.4688 7.46875L12.8281 7.82813C12.8528 7.85282 12.8652 7.86587 12.8779 7.87695C12.9603 7.9489 13.0647 7.99166 13.1738 7.99902C13.1904 8.00013 13.2078 8 13.2422 8C13.481 8 13.6009 8.00012 13.7012 8.01367C14.3697 8.1043 14.8957 8.63033 14.9863 9.29883C14.9999 9.39906 15 9.51902 15 9.75781V11.5996C15 12.4393 15.0002 12.8598 14.8369 13.1807C14.6931 13.4629 14.4629 13.6931 14.1807 13.8369C13.8598 14.0002 13.4393 14 12.5996 14H9.40039C8.56068 14 8.14015 14.0002 7.81934 13.8369C7.53709 13.6931 7.3069 13.4629 7.16309 13.1807C6.99981 12.8598 7 12.4393 7 11.5996V9.75781C7 9.51902 7.00012 9.39906 7.01367 9.29883C7.1043 8.63033 7.63033 8.1043 8.29883 8.01367C8.39906 8.00012 8.51902 8 8.75781 8C8.79216 8 8.80955 8.00013 8.82617 7.99902C8.9353 7.99166 9.03969 7.9489 9.12207 7.87695C9.13476 7.86587 9.14719 7.85281 9.17188 7.82813L9.53125 7.46875L9.73828 7.2666C9.79421 7.21554 9.84111 7.17842 9.8916 7.14746C9.98106 7.09264 10.0786 7.05184 10.1807 7.02734C10.2958 6.99971 10.4185 7 10.6631 7H11.3369ZM11 9.5C10.1716 9.5 9.5 10.1716 9.5 11C9.5 11.8284 10.1716 12.5 11 12.5C11.8284 12.5 12.5 11.8284 12.5 11C12.5 10.1716 11.8284 9.5 11 9.5Z" fill="#BEBED1"/>
</svg>
