<svg width="16" height="16" viewBox="0 0 16 16" fill="none" xmlns="http://www.w3.org/2000/svg">
<path opacity="0.8" d="M9 3.00031H11C12.4 3.00031 13.1 3.00037 13.6348 3.27277C14.1051 3.51245 14.4879 3.89518 14.7275 4.36554C14.9674 4.8367 14.9937 5.43615 14.9971 6.5296C14.9881 6.52442 14.9798 6.51809 14.9707 6.513L13.4814 5.67511C13.478 5.60621 13.4757 5.54167 13.4707 5.48077C13.4575 5.31902 13.4401 5.21517 13.4248 5.14972L13.3906 5.0462C13.3187 4.9052 13.2147 4.78395 13.0879 4.69171L12.9541 4.60968C12.9334 4.59914 12.8436 4.55608 12.5195 4.5296C12.1779 4.50171 11.7246 4.50031 11 4.50031H8.37891L6.37891 2.50031H4.2002C3.61556 2.50031 3.26702 2.50168 3.00879 2.52277C2.88837 2.53261 2.82096 2.54438 2.78809 2.55206L2.77344 2.55499C2.70291 2.59095 2.64183 2.64292 2.5957 2.70636L2.55469 2.77374C2.57139 2.74095 2.54213 2.76835 2.52246 3.00909C2.5014 3.2673 2.5 3.61609 2.5 4.2005V9.00031C2.5 9.72473 2.50141 10.1783 2.5293 10.5198C2.55578 10.8437 2.59884 10.9337 2.60938 10.9544L2.69141 11.0882C2.78364 11.215 2.90491 11.319 3.0459 11.3909L3.14941 11.4251C3.21486 11.4405 3.31853 11.4578 3.48047 11.471C3.82206 11.4989 4.27541 11.5003 5 11.5003H5.5V11.8734C5.50008 12.2664 5.57854 12.6477 5.72168 13.0003H5C3.77485 13.0003 3.08562 13.0002 2.57422 12.8177L2.36523 12.7278C1.95386 12.5182 1.60933 12.1992 1.36914 11.8079L1.27246 11.6351C1.00009 11.1004 1 10.4001 1 9.00031V4.2005C1 3.22071 1.00058 2.66915 1.14648 2.26007L1.21777 2.0921C1.38552 1.76291 1.64091 1.48737 1.9541 1.29523L2.0918 1.21808C2.41263 1.05461 2.80803 1.01346 3.45801 1.00323L4.2002 1.00031H7L9 3.00031Z" fill="#FF4466"/>
<path d="M10.2646 6.41403C10.7212 6.1573 11.2788 6.1573 11.7354 6.41403L14.2354 7.82028C14.7074 8.08586 14.9997 8.58533 15 9.12692V11.873L14.9863 12.0732C14.924 12.5356 14.6486 12.9471 14.2354 13.1797L11.7354 14.5859L11.5596 14.6709C11.2007 14.8152 10.7993 14.8152 10.4404 14.6709L10.2646 14.5859L7.76465 13.1797C7.35145 12.9471 7.07598 12.5356 7.01367 12.0732L7 11.873V9.12692C7.00022 8.65304 7.22357 8.21057 7.5957 7.92965L7.76465 7.82028L10.2646 6.41403ZM8 11.873C8.00011 12.0535 8.09763 12.22 8.25488 12.3086L10.5 13.5713V10.788L8 9.34469V11.873ZM11.5 10.788V13.5713L13.7451 12.3086L13.8018 12.2714C13.9254 12.1778 13.9999 12.0307 14 11.873V9.34469L11.5 10.788ZM11.2451 7.28512C11.093 7.19966 10.907 7.19966 10.7549 7.28512L8.56445 8.51657L11 9.92282L13.4346 8.51657L11.2451 7.28512Z" fill="#FF8197"/>
</svg>
