<svg width="16" height="16" viewBox="0 0 16 16" fill="none" xmlns="http://www.w3.org/2000/svg">
<path opacity="0.8" d="M9 2.99998H11C12.4 2.99998 13.1 3.00006 13.6348 3.27245C14.1052 3.51213 14.4879 3.89482 14.7275 4.36522C14.8989 4.70168 14.9618 5.1036 14.9854 5.70409C14.6856 5.57877 14.4015 5.53674 14.1787 5.51854C13.9592 5.50062 13.7071 5.49996 13.4717 5.49998C13.4712 5.49345 13.4712 5.4869 13.4707 5.48045C13.4575 5.31846 13.4402 5.21484 13.4248 5.1494L13.3906 5.04588C13.3187 4.90483 13.2148 4.78364 13.0879 4.69139L12.9541 4.60936C12.9334 4.5988 12.8436 4.55576 12.5195 4.52928C12.1779 4.50139 11.7246 4.49998 11 4.49998H8.37891L6.37891 2.49998H4.2002C3.61557 2.49998 3.26702 2.50136 3.00879 2.52245C2.88836 2.53229 2.82096 2.54406 2.78809 2.55174L2.77344 2.55467C2.70286 2.59064 2.64185 2.64257 2.5957 2.70604L2.55469 2.77342C2.57139 2.74064 2.54213 2.76806 2.52246 3.00877C2.50138 3.267 2.5 3.61555 2.5 4.20018V8.99998C2.5 9.72458 2.50141 10.1779 2.5293 10.5195C2.55577 10.8435 2.59882 10.9334 2.60938 10.9541L2.69141 11.0879C2.78365 11.2148 2.90484 11.3187 3.0459 11.3906L3.14941 11.4248C3.21485 11.4401 3.31848 11.4575 3.48047 11.4707C3.82206 11.4986 4.2754 11.5 5 11.5H5.5V12.4004C5.5 12.5947 5.50234 12.8042 5.51074 13H5C3.77478 13 3.08563 13 2.57422 12.8174L2.36523 12.7275C1.95379 12.5179 1.60933 12.199 1.36914 11.8076L1.27246 11.6348C1.00008 11.1 1 10.3999 1 8.99998V4.20018C1 3.22018 1.00049 2.66886 1.14648 2.25975L1.21777 2.09178C1.38555 1.76255 1.64085 1.48705 1.9541 1.29491L2.0918 1.21776C2.41262 1.05429 2.80804 1.01314 3.45801 1.00291L4.2002 0.999985H7L9 2.99998Z" fill="#30A6F9"/>
<path d="M14.2002 11C14.4799 11 14.6197 11.0003 14.7266 11.0547C14.8206 11.1026 14.8974 11.1794 14.9453 11.2734C14.9997 11.3803 15 11.5201 15 11.7998V12.4004C15 12.9602 14.9996 13.2402 14.8906 13.4541C14.7948 13.6421 14.6421 13.7948 14.4541 13.8906C14.2402 13.9996 13.9602 14 13.4004 14H8.59961C8.03982 14 7.75976 13.9996 7.5459 13.8906C7.35793 13.7948 7.20522 13.6421 7.10938 13.4541C7.00041 13.2402 7 12.9602 7 12.4004V11.7998C7 11.5201 7.00034 11.3803 7.05469 11.2734C7.10262 11.1794 7.17936 11.1026 7.27344 11.0547C7.38033 11.0003 7.52014 11 7.7998 11H14.2002ZM11 11.9004C10.6686 11.9004 10.4004 12.1686 10.4004 12.5C10.4004 12.8314 10.6686 13.0996 11 13.0996C11.3314 13.0996 11.5996 12.8314 11.5996 12.5C11.5996 12.1686 11.3314 11.9004 11 11.9004ZM13.4004 7C13.9602 7 14.2402 7.00041 14.4541 7.10938C14.6421 7.20522 14.7948 7.35793 14.8906 7.5459C14.9996 7.75976 15 8.03982 15 8.59961V9.2002C15 9.47986 14.9997 9.61967 14.9453 9.72656C14.8974 9.82064 14.8206 9.89738 14.7266 9.94531C14.6197 9.99966 14.4799 10 14.2002 10H7.7998C7.52014 10 7.38033 9.99966 7.27344 9.94531C7.17936 9.89738 7.10262 9.82064 7.05469 9.72656C7.00034 9.61967 7 9.47986 7 9.2002V8.59961C7 8.03982 7.00041 7.75976 7.10938 7.5459C7.20522 7.35793 7.35793 7.20522 7.5459 7.10938C7.75976 7.00041 8.03982 7 8.59961 7H13.4004ZM11 7.90039C10.6686 7.90039 10.4004 8.16863 10.4004 8.5C10.4004 8.83137 10.6686 9.09961 11 9.09961C11.3314 9.09961 11.5996 8.83137 11.5996 8.5C11.5996 8.16863 11.3314 7.90039 11 7.90039Z" fill="#83C2FE"/>
</svg>
