<svg width="16" height="16" viewBox="0 0 16 16" fill="none" xmlns="http://www.w3.org/2000/svg">
<path opacity="0.8" d="M9.00034 2.99973H11.0003C12.4001 2.99973 13.1004 2.99982 13.6351 3.27219C14.1054 3.51187 14.4882 3.89465 14.7279 4.36497C14.8151 4.53619 14.8702 4.72532 14.9105 4.94797L14.6205 4.83176L14.4574 4.77317C14.0198 4.63234 13.5583 4.61747 13.1224 4.71946C13.1108 4.71024 13.1002 4.69984 13.0882 4.69114L12.9544 4.60911C12.9338 4.59857 12.8437 4.55551 12.5199 4.52903C12.1783 4.50114 11.7247 4.49973 11.0003 4.49973H8.37924L6.37924 2.49973H4.20053C3.61617 2.49973 3.26732 2.50114 3.00912 2.52219C2.88916 2.53199 2.82144 2.5438 2.78842 2.55149L2.77377 2.55442C2.70332 2.59032 2.64216 2.64246 2.59604 2.70579L2.55502 2.77317C2.57133 2.74095 2.54239 2.76892 2.5228 3.00852C2.50172 3.26671 2.50034 3.61545 2.50034 4.19993V8.99973C2.50034 9.72417 2.50176 10.1777 2.52963 10.5193C2.55608 10.843 2.59911 10.933 2.60971 10.9538L2.69174 11.0876C2.78399 11.2145 2.90517 11.3184 3.04623 11.3904L3.14975 11.4245C3.2152 11.4399 3.31903 11.4572 3.4808 11.4704C3.82236 11.4983 4.27596 11.4997 5.00034 11.4997H5.50034V11.8816C5.50036 12.2773 5.59436 12.6587 5.76498 12.9997H5.00034C3.77528 12.9997 3.08595 12.9996 2.57455 12.8171L2.36557 12.7273C1.95411 12.5176 1.60967 12.1988 1.36948 11.8073L1.2728 11.6345C1.00044 11.0997 1.00034 10.3996 1.00034 8.99973V4.19993C1.00034 3.22009 1.00084 2.66857 1.14682 2.2595L1.21811 2.09153C1.38589 1.76245 1.6413 1.48673 1.95444 1.29465L2.09213 1.2175C2.41289 1.0542 2.80863 1.01288 3.45834 1.00266L4.20053 0.999731H7.00034L9.00034 2.99973Z" fill="#4D72F7"/>
<path fill-rule="evenodd" clip-rule="evenodd" d="M13.0363 14.5719C13.3196 14.8335 13.728 14.9088 14.0859 14.7656L15.3714 14.2514C15.751 14.0996 16 13.7319 16 13.323V7.67703C16 7.26813 15.751 6.90042 15.3714 6.74856L14.0859 6.23438C13.728 6.09119 13.3196 6.16654 13.0363 6.42805L9.86439 9.35593L8.20808 8.15134C8.07749 8.05637 7.90907 8.03031 7.75588 8.08137L7.29415 8.23528C6.93522 8.35492 6.83407 8.81442 7.10958 9.07372L8.62499 10.5L7.10958 11.9263C6.83407 12.1856 6.93522 12.6451 7.29414 12.7647L7.75588 12.9186C7.90907 12.9697 8.07749 12.9436 8.20809 12.8487L9.86439 11.6441L13.0363 14.5719ZM13.5 12L11.4375 10.5L13.5 9V12Z" fill="#94BAFF"/>
</svg>
