<svg width="16" height="16" viewBox="0 0 16 16" fill="none" xmlns="http://www.w3.org/2000/svg">
<path opacity="0.8" d="M8.99991 3H10.9999C12.3998 3 13.0999 3.0001 13.6347 3.27246C14.1051 3.51214 14.4878 3.89485 14.7274 4.36523C14.9998 4.89999 14.9999 5.60002 14.9999 7V7.25C14.7247 6.80992 14.4645 6.34639 14.2382 5.88965C14.0183 5.44581 13.6696 5.07801 13.2421 4.83203C13.1955 4.78023 13.1443 4.73252 13.0878 4.69141L12.954 4.60938C12.9332 4.59877 12.8432 4.55575 12.5194 4.5293C12.4325 4.5222 12.3383 4.5158 12.2343 4.51172C12.1573 4.50455 12.0788 4.50001 11.9999 4.5H8.37881L6.37881 2.5H4.2001C3.61552 2.5 3.26692 2.50138 3.0087 2.52246C2.88832 2.5323 2.82086 2.54407 2.78799 2.55176L2.77335 2.55469C2.70279 2.59065 2.64175 2.6426 2.59561 2.70605L2.5546 2.77344C2.5713 2.74065 2.54204 2.76805 2.52237 3.00879C2.50129 3.26702 2.49991 3.61556 2.49991 4.2002V9C2.49991 9.7246 2.50132 10.1779 2.52921 10.5195C2.55567 10.8435 2.59871 10.9333 2.60928 10.9541L2.69131 11.0879C2.78355 11.2148 2.90478 11.3187 3.04581 11.3906L3.14932 11.4248C3.21475 11.4401 3.31843 11.4575 3.48038 11.4707C3.82196 11.4986 4.27535 11.5 4.99991 11.5H5.89542L5.81143 12.0068C5.75478 12.3468 5.75868 12.681 5.81241 13H4.99991C3.77473 13 3.08553 13 2.57413 12.8174L2.36514 12.7275C1.95372 12.5179 1.60923 12.199 1.36905 11.8076L1.27237 11.6348C0.999993 11.1 0.999908 10.3999 0.999908 9V4.2002C0.999908 3.22021 1.00041 2.66887 1.14639 2.25977L1.21768 2.0918C1.38545 1.76258 1.64079 1.48707 1.95401 1.29492L2.09171 1.21777C2.41252 1.05431 2.80799 1.01316 3.45792 1.00293L4.2001 1H6.99991L8.99991 3Z" fill="#0CB081"/>
<path d="M10.9997 6C11.2257 6 11.4204 5.99982 11.5808 6.01074C11.7456 6.02199 11.911 6.04683 12.0739 6.11426C12.4413 6.26648 12.7332 6.55844 12.8855 6.92578L12.9284 7.04883C12.9644 7.17163 12.9805 7.29534 12.989 7.41895C12.9999 7.57934 12.9997 7.77393 12.9997 8V8.00195C13.2586 8.00698 13.4222 8.02506 13.5622 8.08789C13.7342 8.16508 13.8806 8.28933 13.9851 8.44629C14.1036 8.62449 14.1432 8.86201 14.2224 9.33691L14.5339 11.2051C14.6941 12.1665 14.7746 12.6478 14.6355 13.0225C14.5133 13.3512 14.2795 13.6263 13.9753 13.8008C13.6286 13.9996 13.1413 14 12.1667 14H9.83273C8.85826 14 8.37077 13.9996 8.02413 13.8008C7.72015 13.6263 7.48706 13.351 7.36495 13.0225C7.2258 12.6478 7.3053 12.1665 7.46554 11.2051L7.77706 9.33691C7.85622 8.86199 7.89588 8.6245 8.01437 8.44629C8.11884 8.28919 8.26606 8.16511 8.4382 8.08789C8.57811 8.02518 8.74124 8.00699 8.99972 8.00195V8C8.99972 7.77394 8.99953 7.57934 9.01046 7.41895C9.02171 7.25406 9.04651 7.08871 9.11398 6.92578L9.17745 6.79199C9.34028 6.48787 9.60405 6.24752 9.9255 6.11426L10.0485 6.07129C10.1713 6.03539 10.2951 6.01918 10.4187 6.01074C10.579 5.99981 10.7738 6 10.9997 6ZM10.9997 7C10.7603 7 10.6054 7.00073 10.487 7.00879C10.4305 7.01265 10.3906 7.01713 10.363 7.02246L10.3083 7.03809C10.2167 7.07611 10.1391 7.14047 10.0847 7.22168L10.0378 7.30859C10.0292 7.32944 10.0163 7.37348 10.0085 7.4873C10.0005 7.60574 9.99972 7.76047 9.99972 8H11.9997C11.9997 7.76045 11.999 7.60574 11.9909 7.4873C11.9871 7.43067 11.9826 7.39095 11.9773 7.36328L11.9616 7.30859C11.9109 7.18618 11.8136 7.08882 11.6911 7.03809C11.6702 7.02947 11.626 7.01654 11.5124 7.00879C11.394 7.00075 11.2391 7 10.9997 7Z" fill="#7FD2BB"/>
</svg>
