<svg width="16" height="16" viewBox="0 0 16 16" fill="none" xmlns="http://www.w3.org/2000/svg">
<path opacity="0.8" d="M9 2.99975H11C12.3999 2.99975 13.1 2.99987 13.6348 3.27221C14.1051 3.51186 14.4878 3.89467 14.7275 4.36498C14.83 4.56609 14.8937 4.79084 14.9336 5.06713C14.4537 4.87259 13.9075 4.82495 13.3613 4.97045L13.3486 4.97338C13.2804 4.86333 13.1923 4.76707 13.0879 4.69115L12.9541 4.60912C12.9332 4.59849 12.8431 4.55548 12.5195 4.52905C12.1779 4.50116 11.7246 4.49975 11 4.49975H8.37891L6.37891 2.49975H4.2002C3.61557 2.49975 3.26702 2.50113 3.00879 2.52221C2.88842 2.53204 2.82098 2.54382 2.78809 2.55151L2.77344 2.55444C2.70292 2.59037 2.64184 2.6424 2.5957 2.7058L2.55469 2.77319C2.57117 2.74072 2.54209 2.76851 2.52246 3.00854C2.50138 3.26673 2.5 3.61546 2.5 4.19994V8.99975C2.5 9.72418 2.50143 10.1777 2.5293 10.5193C2.55569 10.8424 2.59866 10.9328 2.60938 10.9538L2.69141 11.0876C2.78363 11.2145 2.90488 11.3185 3.0459 11.3904L3.14941 11.4246C3.21485 11.4399 3.31848 11.4572 3.48047 11.4705C3.82206 11.4983 4.27539 11.4997 5 11.4997H6.75586C6.71597 11.5526 6.6762 11.6053 6.63574 11.657C6.33541 12.0406 6.12639 12.4988 6.04199 12.9997H5C3.77477 12.9997 3.08563 12.9997 2.57422 12.8171L2.36523 12.7273C1.95382 12.5176 1.60931 12.1988 1.36914 11.8074L1.27246 11.6345C1.00017 11.0998 1 10.3996 1 8.99975V4.19994C1 3.22009 1.0005 2.66859 1.14648 2.25951L1.21777 2.09155C1.38555 1.7624 1.64091 1.48678 1.9541 1.29467L2.0918 1.21752C2.41261 1.05409 2.8081 1.0129 3.45801 1.00268L4.2002 0.999748H7L9 2.99975Z" fill="#FF4466"/>
<path d="M13.6836 6.43849C14.3311 6.22265 15 6.70515 15 7.38771V12.5L14.9922 12.6533C14.9154 13.4097 14.2767 14 13.5 14C12.6716 14 12 13.3284 12 12.5C12 11.6716 12.6716 11 13.5 11V9.00001L10.5 10V13.5L10.4922 13.6533C10.4154 14.4097 9.77666 15 9 15C8.17158 15 7.50001 14.3284 7.5 13.5C7.5 12.6716 8.17157 12 9 12V8.72072C9.00002 8.2904 9.27542 7.90866 9.68359 7.77247L13.6836 6.43849Z" fill="#FF8197"/>
</svg>
