<svg width="16" height="16" viewBox="0 0 16 16" fill="none" xmlns="http://www.w3.org/2000/svg">
<g clip-path="url(#clip0_203_600)">
<path opacity="0.8" d="M9.00021 2.9999H11.0002C12.4 2.9999 13.1003 2.99998 13.635 3.27236C14.1053 3.51205 14.4881 3.89478 14.7278 4.36514C15.0001 4.89988 15.0002 5.6 15.0002 6.9999V8.9999C15.0002 9.62277 14.9979 10.1071 14.9738 10.4999H14.716C14.5599 10.4999 14.4071 10.4522 14.2795 10.3622C14.0023 10.1668 13.8892 9.81079 14.0022 9.49111L14.5998 7.80264L14.6623 7.60439C15.2131 5.62609 13.5524 3.71032 11.5158 3.97451L11.3108 4.00771C11.1452 4.04087 10.9836 4.09305 10.8303 4.16299L10.6799 4.23916L10.2082 4.4999H8.37912L6.37912 2.4999H4.20041C3.61594 2.4999 3.26721 2.5013 3.009 2.52236C2.88885 2.53218 2.82126 2.54397 2.7883 2.55166L2.77365 2.55459C2.70313 2.59052 2.64205 2.64256 2.59592 2.70596L2.5549 2.77334C2.57142 2.74082 2.54231 2.76847 2.52267 3.00869C2.50159 3.26691 2.50021 3.61552 2.50021 4.2001V8.9999C2.50021 9.72445 2.50163 10.1778 2.52951 10.5194C2.55599 10.8436 2.59905 10.9333 2.60959 10.954L2.69162 11.0878C2.78387 11.2147 2.90507 11.3186 3.04611 11.3905L3.14963 11.4247C3.21508 11.44 3.31884 11.4574 3.48068 11.4706C3.82225 11.4985 4.27576 11.4999 5.00021 11.4999H6.08322L6.04611 11.5917L5.4426 12.9999H5.00021C3.77511 12.9999 3.08583 12.9998 2.57443 12.8173L2.36545 12.7274C1.954 12.5178 1.60955 12.1989 1.36935 11.8075L1.27267 11.6347C1.00028 11.0999 1.00021 10.3999 1.00021 8.9999V4.2001C1.00021 3.22015 1.00071 2.66876 1.1467 2.25967L1.21799 2.0917C1.38576 1.76254 1.64112 1.48694 1.95432 1.29482L2.09201 1.21767C2.4128 1.0543 2.80839 1.01305 3.45822 1.00283L4.20041 0.999901H7.00021L9.00021 2.9999Z" fill="#9B61FF"/>
<path d="M7.86296 11.762L7.92474 11.6667V11.1244C7.92474 10.3047 8.32876 9.5377 9.00474 9.07406C8.56183 8.6184 8.40728 7.95513 8.60314 7.35061L8.64474 7.22221L9.36474 6.85184C9.58496 6.39873 10.0445 6.1111 10.5483 6.1111H10.8047L11.3149 5.32376C11.4135 5.1717 11.636 5.1717 11.7345 5.32376L12.2447 6.1111L12.9936 5.85428C13.1559 5.79863 13.3247 5.91921 13.3247 6.09076V6.48458C13.3247 7.44951 13.0455 8.39384 12.5208 9.20362L11.8847 10.1852C12.7675 10.8663 13.1904 11.9872 12.9777 13.0817L12.9647 13.1481L15.3791 12.1862C15.5902 12.1021 15.8305 12.1952 15.9299 12.3996C16.0323 12.6104 15.9489 12.8643 15.7415 12.9733L13.2825 14.2655C12.3644 14.7479 11.3429 15 10.3058 15H10.0079C9.82182 15 9.63842 14.9556 9.47293 14.8705C9.24005 14.7507 9.18917 14.4399 9.37172 14.2521L9.72474 13.8889L9.00474 13.5185L8.8572 13.9739C8.73054 14.3648 8.36639 14.6296 7.95544 14.6296C7.72855 14.6296 7.53348 14.4688 7.49019 14.2461L7.43572 13.9659C7.28754 13.2037 7.44068 12.4137 7.86296 11.762Z" fill="#BDA1FF"/>
</g>
<defs>
<clipPath id="clip0_203_600">
<rect width="16" height="16" fill="white"/>
</clipPath>
</defs>
</svg>
