<svg width="16" height="16" viewBox="0 0 16 16" fill="none" xmlns="http://www.w3.org/2000/svg">
<g clip-path="url(#clip0_269_901)">
<path opacity="0.8" d="M9.00021 3.00014H11.0002C12.4002 3.00014 13.1002 3.00013 13.635 3.2726C14.1054 3.51228 14.4881 3.89499 14.7278 4.36537C14.9746 4.85022 14.9951 5.47103 14.9973 6.62611L14.1037 5.73256L13.9201 5.56654C13.4754 5.20214 12.9162 5.00023 12.3362 5.00014H9.16428C8.58422 5.00017 8.0251 5.20213 7.58029 5.56654L7.3967 5.73256L5.25021 7.87904C4.07879 9.05059 4.07879 10.9497 5.25021 12.1212L6.12912 13.0001H5.00021C3.60044 13.0001 2.90018 13 2.36545 12.7277C1.89505 12.488 1.51236 12.1053 1.27267 11.6349C1.0002 11.1001 1.00021 10.4002 1.00021 9.00014V4.20033C1.00021 3.08023 1 2.51976 1.21799 2.09193C1.40974 1.71564 1.71571 1.40965 2.09201 1.21791C2.51983 0.999938 3.08033 1.00014 4.20041 1.00014H7.00021L9.00021 3.00014Z" fill="#4D72F7"/>
<path d="M11.5429 6.70711L8.95711 9.29289C8.56658 9.68342 8.56658 10.3166 8.95711 10.7071L11.5429 13.2929C11.9334 13.6834 12.5666 13.6834 12.9571 13.2929L15.5429 10.7071C15.9334 10.3166 15.9334 9.68342 15.5429 9.29289L12.9571 6.70711C12.5666 6.31658 11.9334 6.31658 11.5429 6.70711Z" fill="#94BAFF"/>
<path d="M9 7L6.70711 9.29289C6.31658 9.68342 6.31658 10.3166 6.70711 10.7071L9 13" stroke="#94BAFF" stroke-linecap="round"/>
</g>
<defs>
<clipPath id="clip0_269_901">
<rect width="16" height="16" fill="white"/>
</clipPath>
</defs>
</svg>
