<svg width="16" height="16" viewBox="0 0 16 16" fill="none" xmlns="http://www.w3.org/2000/svg">
<path opacity="0.8" d="M9 2.99998H11C12.4 2.99998 13.1 3.00006 13.6348 3.27245C14.1052 3.51213 14.4879 3.89482 14.7275 4.36522C14.9168 4.73673 14.9726 5.18808 14.9902 5.89842C14.9479 5.87419 14.9059 5.84935 14.8623 5.82713C14.4552 5.61969 14.0499 5.55339 13.707 5.52538C13.6317 5.51922 13.553 5.51426 13.4717 5.51073C13.4709 5.50058 13.4715 5.49041 13.4707 5.48045C13.4575 5.31846 13.4402 5.21484 13.4248 5.1494L13.3906 5.04588C13.3187 4.90483 13.2148 4.78364 13.0879 4.69139L12.9541 4.60936C12.9334 4.5988 12.8436 4.55576 12.5195 4.52928C12.1779 4.50139 11.7246 4.49998 11 4.49998H8.37891L6.37891 2.49998H4.2002C3.61557 2.49998 3.26702 2.50136 3.00879 2.52245C2.88836 2.53229 2.82096 2.54406 2.78809 2.55174L2.77344 2.55467C2.70286 2.59064 2.64185 2.64257 2.5957 2.70604L2.55469 2.77342C2.57139 2.74064 2.54213 2.76806 2.52246 3.00877C2.50138 3.267 2.5 3.61555 2.5 4.20018V8.99998C2.5 9.72458 2.50141 10.1779 2.5293 10.5195C2.55577 10.8435 2.59882 10.9334 2.60938 10.9541L2.69141 11.0879C2.78365 11.2148 2.90485 11.3187 3.0459 11.3906L3.14941 11.4248C3.21485 11.4401 3.31848 11.4575 3.48047 11.4707C3.65128 11.4846 3.85004 11.4922 4.09668 11.4961L5 11.5V11.5996C5 11.9947 4.99883 12.3817 5.02539 12.707C5.03303 12.8005 5.04513 12.8984 5.06055 13H5C3.77478 13 3.08563 13 2.57422 12.8174L2.36523 12.7275C1.95379 12.5179 1.60933 12.199 1.36914 11.8076L1.27246 11.6348C1.00008 11.1 1 10.3999 1 8.99998V4.20018C1 3.22018 1.00049 2.66886 1.14648 2.25975L1.21777 2.09178C1.38555 1.76255 1.64085 1.48705 1.9541 1.29491L2.0918 1.21776C2.41262 1.05429 2.80804 1.01314 3.45801 1.00291L4.2002 0.999985H7L9 2.99998Z" fill="#4D72F7"/>
<path d="M12.6004 7C13.4402 7 13.8606 6.99962 14.1814 7.16309C14.4636 7.3069 14.6929 7.53716 14.8367 7.81934C15 8.14016 14.9998 8.5606 14.9998 9.40039V11.5996C14.9998 12.4394 15 12.8598 14.8367 13.1807C14.6929 13.4628 14.4636 13.6931 14.1814 13.8369C13.8606 14.0004 13.4402 14 12.6004 14H8.90018C8.06032 14 7.63996 14.0003 7.31912 13.8369C7.03688 13.6931 6.80766 13.4629 6.66385 13.1807C6.50041 12.8598 6.49979 12.4396 6.49979 11.5996V9.40039C6.49979 8.56041 6.50041 8.14019 6.66385 7.81934C6.80766 7.53709 7.03688 7.3069 7.31912 7.16309C7.63996 6.99973 8.06032 7 8.90018 7H12.6004ZM7.99979 8C7.72374 8.00011 7.49979 8.22393 7.49979 8.5C7.49979 8.77607 7.72374 8.99989 7.99979 9H8.49979V12.5C8.49979 12.7761 8.72374 12.9999 8.99979 13C9.27593 13 9.49979 12.7761 9.49979 12.5V9H9.99979C10.2759 9 10.4998 8.77614 10.4998 8.5C10.4998 8.22386 10.2759 8 9.99979 8H7.99979ZM12.4998 8C11.6715 8.00011 10.9998 8.67164 10.9998 9.5C10.9998 10.3284 11.6715 10.9999 12.4998 11C12.7759 11 12.9998 11.2239 12.9998 11.5C12.9998 11.7761 12.7759 12 12.4998 12H12.4021C12.3089 11.9977 12.2186 11.9692 12.1414 11.9189L12.0691 11.8623L11.8533 11.6465L11.7752 11.582C11.5811 11.454 11.3171 11.4757 11.1463 11.6465C10.9755 11.8173 10.9537 12.0814 11.0818 12.2754L11.1463 12.3535L11.3787 12.5859L11.4842 12.6768C11.7383 12.8776 12.0524 12.9922 12.3787 13H12.4998C13.3282 13 13.9998 12.3284 13.9998 11.5C13.9998 10.6716 13.3282 10 12.4998 10C12.2237 9.99989 11.9998 9.77607 11.9998 9.5C11.9998 9.22393 12.2237 9.00011 12.4998 9H12.5974C12.7216 9.00296 12.8405 9.05211 12.9305 9.1377L13.1463 9.35352L13.2244 9.41797C13.4184 9.54611 13.6824 9.52428 13.8533 9.35352C14.0242 9.18265 14.0459 8.91869 13.9178 8.72461L13.8533 8.64648L13.6209 8.41406C13.3509 8.15668 12.9938 8.00889 12.6209 8H12.4998Z" fill="#94BAFF"/>
</svg>
