<svg width="16" height="16" viewBox="0 0 16 16" fill="none" xmlns="http://www.w3.org/2000/svg">
<path opacity="0.8" d="M9 3.00038H11C12.4001 3.00038 13.1 3.00037 13.6348 3.27284C14.1051 3.51248 14.4878 3.89437 14.7275 4.36464C14.8301 4.56594 14.8937 4.7911 14.9336 5.06776C14.4536 4.87315 13.9076 4.82459 13.3613 4.97011L13.209 5.01601L9.20898 6.34901C8.18836 6.68941 7.50002 7.64517 7.5 8.72108V9.75136C7.5 10.4648 7.07554 11.0948 6.63574 11.6566C6.33528 12.0404 6.12633 12.4992 6.04199 13.0004H5C3.60016 13.0004 2.89997 13.0002 2.36523 12.7279C1.89487 12.4883 1.51215 12.1055 1.27246 11.6351C1 11.1004 1 10.4003 1 9.00038V4.1996C1 3.07995 0.999921 2.51992 1.21777 2.09218C1.40948 1.71594 1.71558 1.40991 2.0918 1.21815C2.51962 1.00017 3.08009 1.00038 4.2002 1.00038H7L9 3.00038Z" fill="#FF4466"/>
<path d="M13.6836 6.43849C14.3311 6.22265 15 6.70515 15 7.38771V12.5L14.9922 12.6533C14.9154 13.4097 14.2767 14 13.5 14C12.6716 14 12 13.3284 12 12.5C12 11.6716 12.6716 11 13.5 11V9.00001L10.5 10V13.5L10.4922 13.6533C10.4154 14.4097 9.77666 15 9 15C8.17158 15 7.50001 14.3284 7.5 13.5C7.5 12.6716 8.17157 12 9 12V8.72072C9.00002 8.2904 9.27542 7.90866 9.68359 7.77247L13.6836 6.43849Z" fill="#FF8197"/>
</svg>
