<svg width="16" height="16" viewBox="0 0 16 16" fill="none" xmlns="http://www.w3.org/2000/svg">
<path opacity="0.8" d="M9.00003 2.99969H11C12.3999 2.99969 13.1001 2.99981 13.6348 3.27215C14.1051 3.51179 14.4879 3.89462 14.7276 4.36492C14.9999 4.89964 15 5.59992 15 6.99969V8.31707L14.8887 8.12469C14.6756 7.75581 14.3631 7.45569 13.9883 7.25848L13.8233 7.18035L13.5 7.04168V6.99969C13.5 6.27526 13.4986 5.8217 13.4707 5.48016C13.4575 5.31833 13.4402 5.2145 13.4248 5.1491L13.3907 5.04559C13.3187 4.90462 13.2147 4.7833 13.0879 4.6911L12.9541 4.60906C12.9333 4.59844 12.8432 4.55543 12.5196 4.52899C12.178 4.5011 11.7246 4.49969 11 4.49969H8.37894L6.37894 2.49969H4.20023C3.61564 2.49969 3.26704 2.50107 3.00882 2.52215C2.88852 2.53198 2.82103 2.54376 2.78812 2.55145L2.77347 2.55438C2.70297 2.5903 2.64187 2.64237 2.59573 2.70574L2.55472 2.77313C2.57113 2.74077 2.54211 2.76868 2.52249 3.00848C2.50141 3.26666 2.50003 3.61543 2.50003 4.19988V8.99969C2.50003 9.72408 2.50146 10.1777 2.52933 10.5192C2.55571 10.8422 2.59867 10.9327 2.60941 10.9538L2.69144 11.0876C2.78367 11.2144 2.90491 11.3184 3.04593 11.3903L3.14944 11.4245C3.21488 11.4398 3.3185 11.4572 3.4805 11.4704C3.76562 11.4937 4.12856 11.4968 4.66214 11.4977L4.51761 11.7497C4.28491 12.1528 4.17952 12.5803 4.17972 12.9968C3.44294 12.9883 2.95846 12.9543 2.57425 12.8171L2.36526 12.7272C1.95385 12.5176 1.60935 12.1987 1.36917 11.8073L1.27249 11.6345C1.00021 11.0997 1.00003 10.3995 1.00003 8.99969V4.19988C1.00003 3.22007 1.00053 2.66852 1.14651 2.25945L1.2178 2.09149C1.38558 1.76237 1.64096 1.4867 1.95413 1.29461L2.09183 1.21746C2.41263 1.05406 2.80817 1.01284 3.45804 1.00262L4.20023 0.999689H7.00003L9.00003 2.99969Z" fill="#0CB081"/>
<path d="M13.25 13.25H15.25L12.9406 9.25L11.616 11.5442M11.616 11.5442L11.0642 12.5C10.7963 12.9641 10.3011 13.25 9.76517 13.25H6.25L9.42543 7.75L11.616 11.5442Z" stroke="#7FD2BB" stroke-width="1.5" stroke-linecap="round" stroke-linejoin="round"/>
</svg>
