<svg width="16" height="16" viewBox="0 0 16 16" fill="none" xmlns="http://www.w3.org/2000/svg">
<g clip-path="url(#clip0_270_1063)">
<path opacity="0.8" d="M9 3.00046H11C12.4001 3.00046 13.1 3.00043 13.6348 3.27292C14.1051 3.51256 14.4879 3.89442 14.7275 4.36472C14.9225 4.74729 14.9764 5.21481 14.9922 5.96237L13.4727 5.10788L13.2988 5.01706C12.4186 4.59494 11.3823 4.62633 10.5254 5.11081L7.02344 7.09128L6.85156 7.19675C6.01203 7.74887 5.50007 8.68886 5.5 9.70261V12.4507C5.50004 12.6372 5.51921 12.8209 5.55273 13.0005H5C3.60018 13.0005 2.89997 13.0003 2.36523 12.728C1.89489 12.4883 1.51215 12.1055 1.27246 11.6352C1.00001 11.1005 1 10.4003 1 9.00046V4.19968C1 3.08003 0.999947 2.52 1.21777 2.09225C1.40947 1.71602 1.7156 1.40999 2.0918 1.21823C2.51962 1.00024 3.08009 1.00046 4.2002 1.00046H7L9 3.00046Z" fill="#FF4466"/>
<path d="M11.2639 6.41631C11.7209 6.15798 12.2799 6.15699 12.7375 6.41435L15.2355 7.81963C15.7078 8.0853 16.0002 8.58535 16.0002 9.12724V11.8753C16.0001 12.4159 15.709 12.9149 15.2385 13.181L11.7365 15.1614C11.2795 15.4198 10.7205 15.4198 10.2629 15.1624L7.76483 13.7571C7.29263 13.4915 7.00033 12.9922 7.00018 12.4505V9.70244C7.00018 9.16174 7.29124 8.66292 7.7619 8.39677L11.2639 6.41631ZM14.9328 8.80693C14.812 8.59795 14.5634 8.50908 14.343 8.58232L14.2502 8.62431L11.0012 10.5003L8.75018 9.20146L8.65741 9.15947C8.43701 9.08624 8.18837 9.17521 8.06757 9.38408C7.92961 9.6232 8.01108 9.92963 8.25018 10.0677L10.5002 11.3665V13.5003C10.5003 13.7763 10.7241 14.0003 11.0002 14.0003C11.2761 14.0002 11.5 13.7762 11.5002 13.5003V11.3665L14.7502 9.48955L14.8322 9.43095C15.0063 9.27675 15.0534 9.0162 14.9328 8.80693Z" fill="#FF8197"/>
</g>
<defs>
<clipPath id="clip0_270_1063">
<rect width="16" height="16" fill="white"/>
</clipPath>
</defs>
</svg>
