<svg width="16" height="16" viewBox="0 0 16 16" fill="none" xmlns="http://www.w3.org/2000/svg">
<path opacity="0.7" d="M9 3H11C12.4 3 13.1 3.00007 13.6348 3.27246C14.1052 3.51214 14.4879 3.89483 14.7275 4.36523C14.9999 4.89999 15 5.60002 15 7V7.31836C14.645 6.58751 14.1172 5.95634 13.4697 5.47754C13.4565 5.31725 13.4401 5.21445 13.4248 5.14941L13.3906 5.0459C13.3187 4.90484 13.2148 4.78366 13.0879 4.69141L12.9541 4.60938C12.9334 4.59883 12.8436 4.55578 12.5195 4.5293C12.1779 4.50141 11.7246 4.5 11 4.5H8.37891L6.37891 2.5H4.2002C3.61556 2.5 3.26702 2.50138 3.00879 2.52246C2.88835 2.5323 2.82096 2.54407 2.78809 2.55176L2.77344 2.55469C2.70286 2.59065 2.64185 2.64258 2.5957 2.70605L2.55469 2.77344C2.57139 2.74065 2.54213 2.76805 2.52246 3.00879C2.50138 3.26702 2.5 3.61556 2.5 4.2002V9C2.5 9.72461 2.50141 10.1779 2.5293 10.5195C2.55578 10.8437 2.59883 10.9334 2.60938 10.9541L2.69141 11.0879C2.78366 11.2148 2.90484 11.3187 3.0459 11.3906L3.14941 11.4248C3.21485 11.4402 3.31847 11.4575 3.48047 11.4707C3.82206 11.4986 4.27539 11.5 5 11.5H5.91699C6.16233 12.0614 6.50768 12.5687 6.93066 13H5C3.77477 13 3.08563 13 2.57422 12.8174L2.36523 12.7275C1.95378 12.5179 1.60933 12.199 1.36914 11.8076L1.27246 11.6348C1.00007 11.1 1 10.4 1 9V4.2002C1 3.22019 1.00049 2.66887 1.14648 2.25977L1.21777 2.0918C1.38555 1.76256 1.64085 1.48707 1.9541 1.29492L2.0918 1.21777C2.41263 1.0543 2.80803 1.01315 3.45801 1.00293L4.2002 1H7L9 3Z" fill="#7E7E92"/>
<path d="M10.5 6C12.433 6 14 7.567 14 9.5C14 9.5844 13.9971 9.6681 13.9912 9.75098C13.9516 10.3033 13.9316 10.5802 13.9551 10.707C13.9836 10.8598 13.9968 10.8942 14.0752 11.0283C14.1402 11.1395 14.2599 11.2599 14.5 11.5C15.0523 12.0523 15.0523 12.9477 14.5 13.5C13.9477 14.0523 13.0523 14.0523 12.5 13.5C12.2599 13.2599 12.1395 13.1402 12.0283 13.0752C11.8942 12.9968 11.8598 12.9836 11.707 12.9551C11.5802 12.9316 11.3033 12.9516 10.751 12.9912C10.6681 12.9971 10.5844 13 10.5 13C8.567 13 7 11.433 7 9.5C7 9.36178 7.00795 9.22541 7.02346 9.09134C7.06564 8.72666 7.5014 8.6225 7.76099 8.88208L8.43945 9.56055L8.55371 9.66406C9.14286 10.1442 10.0115 10.1096 10.5605 9.56055C11.1096 9.01152 11.1442 8.14286 10.6641 7.55371L10.5605 7.43945L9.88208 6.76099C9.6225 6.5014 9.72666 6.06564 10.0913 6.02346C10.2254 6.00795 10.3618 6 10.5 6Z" fill="#BEBED1"/>
</svg>
