<svg width="16" height="16" viewBox="0 0 16 16" fill="none" xmlns="http://www.w3.org/2000/svg">
<path opacity="0.8" d="M9 2.99999H11C12.4 2.99999 13.1 3.00006 13.6348 3.27245C14.1052 3.51213 14.4879 3.89482 14.7275 4.36522C14.8085 4.52413 14.8624 4.69825 14.9023 4.90038C14.8449 4.91865 14.7874 4.93895 14.7305 4.96288L14.6055 5.0205L13.4766 5.58397C13.4743 5.54834 13.4734 5.51381 13.4707 5.48046C13.4575 5.31846 13.4402 5.21484 13.4248 5.1494L13.3906 5.04589C13.3187 4.90483 13.2148 4.78364 13.0879 4.69139L12.9541 4.60936C12.9334 4.59882 12.8436 4.55577 12.5195 4.52929C12.1779 4.5014 11.7246 4.49999 11 4.49999H8.37891L6.37891 2.49999H4.2002C3.61556 2.49999 3.26702 2.50137 3.00879 2.52245C2.88836 2.53229 2.82096 2.54406 2.78809 2.55175L2.77344 2.55468C2.70286 2.59064 2.64185 2.64257 2.5957 2.70604L2.55469 2.77343C2.57139 2.74065 2.54213 2.76807 2.52246 3.00878C2.50138 3.26701 2.5 3.61555 2.5 4.20018V8.99999C2.5 9.72459 2.50141 10.1779 2.5293 10.5195C2.55577 10.8436 2.59883 10.9334 2.60938 10.9541L2.69141 11.0879C2.78366 11.2148 2.90484 11.3187 3.0459 11.3906L3.14941 11.4248C3.21485 11.4401 3.31847 11.4575 3.48047 11.4707C3.82206 11.4986 4.27539 11.5 5 11.5H7.25977C7.29752 11.5598 7.37721 11.7415 7.43555 12.0781C7.48876 12.3853 7.50608 12.7192 7.50098 13H5C3.77477 13 3.08563 13 2.57422 12.8174L2.36523 12.7275C1.95378 12.5179 1.60933 12.199 1.36914 11.8076L1.27246 11.6348C1.00007 11.1 1 10.4 1 8.99999V4.20018C1 3.22018 1.00049 2.66886 1.14648 2.25975L1.21777 2.09179C1.38555 1.76255 1.64085 1.48705 1.9541 1.29491L2.0918 1.21776C2.41263 1.05429 2.80803 1.01314 3.45801 1.00292L4.2002 0.999989H7L9 2.99999Z" fill="#30A6F9"/>
<path d="M8 6.80861C8.00029 6.43721 8.39134 6.19534 8.72363 6.36134L9.78906 6.89455C11.1439 7.57209 11.9998 8.95686 12 10.4717C12.0002 8.95686 12.8561 7.57209 14.2109 6.89455L15.2764 6.36134C15.6087 6.19534 15.9997 6.43721 16 6.80861V9.00002C16 10.3183 15.1488 11.4353 13.9668 11.8379C14.5717 12.0098 14.9999 12.5635 15 13.2051C15 13.3936 14.9252 13.5746 14.792 13.708L13.9307 14.5694C13.6802 14.8196 13.2879 14.8585 12.9932 14.6621C12.3728 14.2486 12 13.5522 12 12.8067C12 13.5522 11.6272 14.2486 11.0068 14.6621C10.7121 14.8585 10.3198 14.8196 10.0693 14.5694L9.20801 13.708C9.07481 13.5746 9 13.3936 9 13.2051C9.0001 12.5639 9.42782 12.0101 10.0322 11.8379C8.85064 11.4351 8.00001 10.3179 8 9.00002V6.80861Z" fill="#83C2FE"/>
</svg>
