<svg width="16" height="16" viewBox="0 0 16 16" fill="none" xmlns="http://www.w3.org/2000/svg">
<path opacity="0.8" d="M9.00006 2.99959H11.0001C12.3999 2.99959 13.1001 2.99972 13.6348 3.27205C14.1052 3.51171 14.4879 3.89447 14.7276 4.36482C14.8621 4.62884 14.9294 4.93341 14.9639 5.34236L14.7676 5.14607L14.5753 4.97127C13.6531 4.21623 12.4126 4.27498 11.5352 4.80623L11.3526 4.92732C10.9477 5.22142 10.4663 5.50568 10.003 5.71053C9.51242 5.92739 9.16778 5.99957 9.00006 5.99959H8.83502C7.70241 5.99959 6.7212 6.75929 6.42487 7.83357L6.37506 8.05232L5.54791 12.6021C5.52382 12.7346 5.51712 12.8679 5.5235 12.9996H5.00006C3.59999 12.9996 2.90007 12.9996 2.3653 12.7271C1.89499 12.4875 1.51222 12.1056 1.27252 11.6353C1.00004 11.1006 1.00006 10.3997 1.00006 8.99959V4.19978C1.00006 3.08011 1.00003 2.52012 1.21783 2.09236C1.40954 1.71612 1.71565 1.41009 2.09186 1.21834C2.51968 1.00035 3.08015 0.999588 4.20026 0.999588H7.00006L9.00006 2.99959Z" fill="#FD7334"/>
<path d="M12.2345 6.14144C12.6814 5.81688 13.3166 5.81658 13.7071 6.20711L14.7929 7.29289C15.1834 7.68342 15.1831 8.31861 14.8586 8.76546C14.1588 9.7289 13.5 11.0578 13.5 12V12.1654C13.5 12.6487 13.1544 13.0628 12.6789 13.1493L8.78741 13.8568C8.54627 13.9007 8.3926 13.6074 8.56591 13.4341L10.5 11.5C11.064 11.5 11.5 11.064 11.5 10.5C11.5 9.93596 11.064 9.5 10.5 9.5C9.93596 9.5 9.5 9.93596 9.5 10.5L7.56591 12.4341C7.3926 12.6074 7.09932 12.4537 7.14317 12.2126L7.85071 8.32111C7.93716 7.84562 8.35129 7.5 8.83458 7.5H9C9.94224 7.5 11.2711 6.84123 12.2345 6.14144Z" fill="#FFA366"/>
</svg>
