<svg width="16" height="16" viewBox="0 0 16 16" fill="none" xmlns="http://www.w3.org/2000/svg">
<path opacity="0.8" d="M8.99994 2.99994H10.9999C12.3999 2.99994 13.1 3.00004 13.6347 3.2724C14.1051 3.51208 14.4878 3.8948 14.7275 4.36518C14.9961 4.89254 14.9989 5.58069 14.999 6.94233L13.8935 6.15229C13.7646 6.06024 13.6291 5.97946 13.4902 5.90619C13.4858 5.74431 13.4808 5.60489 13.4706 5.48041C13.4574 5.31845 13.4401 5.21479 13.4247 5.14936L13.3906 5.04584C13.3186 4.90481 13.2147 4.78358 13.0878 4.69135L12.954 4.60932C12.9332 4.59872 12.8432 4.55569 12.5195 4.52924C12.1779 4.50136 11.7245 4.49994 10.9999 4.49994H8.37885L6.37885 2.49994H4.20013C3.61553 2.49994 3.26695 2.50132 3.00873 2.5224C2.88832 2.53224 2.82089 2.54402 2.78802 2.5517L2.77338 2.55463C2.70281 2.59059 2.64179 2.64253 2.59564 2.706L2.55463 2.77338C2.57131 2.74063 2.54206 2.76809 2.5224 3.00873C2.50132 3.26696 2.49994 3.61553 2.49994 4.20014V8.99994C2.49994 9.72451 2.50135 10.1779 2.52924 10.5195C2.55569 10.8432 2.59871 10.9332 2.60931 10.954L2.69135 11.0878C2.78358 11.2147 2.90481 11.3186 3.04584 11.3906L3.14935 11.4247C3.21478 11.4401 3.31844 11.4574 3.48041 11.4706C3.82199 11.4985 4.27536 11.4999 4.99994 11.4999H7.49994V12.9999H4.99994C3.77474 12.9999 3.08556 12.9999 2.57416 12.8173L2.36517 12.7275C1.95375 12.5178 1.60926 12.199 1.36908 11.8076L1.2724 11.6347C1.00004 11.1 0.999939 10.3999 0.999939 8.99994V4.20014C0.999939 3.22017 1.00043 2.66881 1.14642 2.25971L1.21771 2.09174C1.38548 1.76252 1.6408 1.48701 1.95404 1.29486L2.09174 1.21772C2.41256 1.05425 2.808 1.0131 3.45795 1.00287L4.20013 0.999943H6.99994L8.99994 2.99994Z" fill="#FD7334"/>
<path d="M9 8.5H7.75C7.51703 8.5 7.40054 8.5 7.30866 8.46194C7.18614 8.41119 7.08881 8.31386 7.03806 8.19134C7 8.09946 7 7.98297 7 7.75C7 7.51703 7 7.40054 7.03806 7.30866C7.08881 7.18614 7.18614 7.08881 7.30866 7.03806C7.40054 7 7.51703 7 7.75 7H11.75C11.983 7 12.0995 7 12.1913 7.03806C12.3139 7.08881 12.4112 7.18614 12.4619 7.30866C12.5 7.40054 12.5 7.51703 12.5 7.75C12.5 7.98297 12.5 8.09946 12.4619 8.19134C12.4112 8.31386 12.3139 8.41119 12.1913 8.46194C12.0995 8.5 11.983 8.5 11.75 8.5H10.5V13.25C10.5 13.483 10.5 13.5995 10.4619 13.6913C10.4112 13.8139 10.3139 13.9112 10.1913 13.9619C10.0995 14 9.98297 14 9.75 14C9.51703 14 9.40054 14 9.30866 13.9619C9.18614 13.9112 9.08881 13.8139 9.03806 13.6913C9 13.5995 9 13.483 9 13.25V8.5Z" fill="#FFA366"/>
<path d="M13 11H12.25C12.017 11 11.9005 11 11.8087 10.9619C11.6861 10.9112 11.5888 10.8139 11.5381 10.6913C11.5 10.5995 11.5 10.483 11.5 10.25C11.5 10.017 11.5 9.90054 11.5381 9.80866C11.5888 9.68614 11.6861 9.58881 11.8087 9.53806C11.9005 9.5 12.017 9.5 12.25 9.5H15.25C15.483 9.5 15.5995 9.5 15.6913 9.53806C15.8139 9.58881 15.9112 9.68614 15.9619 9.80866C16 9.90054 16 10.017 16 10.25C16 10.483 16 10.5995 15.9619 10.6913C15.9112 10.8139 15.8139 10.9112 15.6913 10.9619C15.5995 11 15.483 11 15.25 11H14.5V13.25C14.5 13.483 14.5 13.5995 14.4619 13.6913C14.4112 13.8139 14.3139 13.9112 14.1913 13.9619C14.0995 14 13.983 14 13.75 14C13.517 14 13.4005 14 13.3087 13.9619C13.1861 13.9112 13.0888 13.8139 13.0381 13.6913C13 13.5995 13 13.483 13 13.25V11Z" fill="#FFA366"/>
</svg>
