<svg width="16" height="16" viewBox="0 0 16 16" fill="none" xmlns="http://www.w3.org/2000/svg">
<path opacity="0.8" d="M9 3H11C12.4 3 13.1 3.00007 13.6348 3.27246C14.1052 3.51214 14.4879 3.89483 14.7275 4.36523C14.8818 4.66813 14.9466 5.02417 14.9756 5.53027C14.3424 4.89486 13.4682 4.5 12.5 4.5H8.37891L6.37891 2.5H4.2002C3.61556 2.5 3.26702 2.50138 3.00879 2.52246C2.88835 2.5323 2.82096 2.54407 2.78809 2.55176L2.77344 2.55469C2.70286 2.59065 2.64185 2.64258 2.5957 2.70605L2.55469 2.77344C2.57139 2.74065 2.54213 2.76805 2.52246 3.00879C2.50138 3.26702 2.5 3.61556 2.5 4.2002V9C2.5 9.72461 2.50141 10.1779 2.5293 10.5195C2.55578 10.8437 2.59883 10.9334 2.60938 10.9541L2.69141 11.0879C2.78366 11.2148 2.90484 11.3187 3.0459 11.3906L3.14941 11.4248C3.21485 11.4402 3.31847 11.4575 3.48047 11.4707C3.82206 11.4986 4.27539 11.5 5 11.5H5.27051C5.35779 11.65 5.463 11.7881 5.58496 11.9102C5.82177 12.1471 6.01287 12.4387 6.08594 12.7656C6.1036 12.8448 6.12552 12.923 6.14844 13H5C3.77477 13 3.08563 13 2.57422 12.8174L2.36523 12.7275C1.95378 12.5179 1.60933 12.199 1.36914 11.8076L1.27246 11.6348C1.00007 11.1 1 10.4 1 9V4.2002C1 3.22019 1.00049 2.66887 1.14648 2.25977L1.21777 2.0918C1.38555 1.76256 1.64085 1.48707 1.9541 1.29492L2.0918 1.21777C2.41263 1.0543 2.80803 1.01315 3.45801 1.00293L4.2002 1H7L9 3Z" fill="#0CB081"/>
<path d="M9.5 6C9.77614 6 10 6.22386 10 6.5V7C10 7.24171 9.82855 7.44371 9.60059 7.49023L9.39941 7.50977C9.17145 7.55629 9 7.75829 9 8V8.52832C8.99993 8.8385 8.92771 9.14441 8.78906 9.42188L8.5 10L8.78906 10.5781C8.92771 10.8556 8.99993 11.1615 9 11.4717V12C9 12.2417 9.17145 12.4437 9.39941 12.4902L9.60059 12.5098C9.82855 12.5563 10 12.7583 10 13V13.5C10 13.7761 9.77614 14 9.5 14C8.39543 14 7.5 13.1046 7.5 12V11.5C7.5 11.2583 7.32855 11.0563 7.10059 11.0098L6.89941 10.9902C6.67145 10.9437 6.5 10.7417 6.5 10.5V9.5C6.5 9.25829 6.67145 9.05629 6.89941 9.00977L7.10059 8.99023C7.32855 8.94371 7.5 8.74171 7.5 8.5V8C7.5 6.89543 8.39543 6 9.5 6ZM12.5 6C13.6046 6 14.5 6.89543 14.5 8V8.5C14.5 8.74171 14.6714 8.94371 14.8994 8.99023L15.1006 9.00977C15.3286 9.05629 15.5 9.25829 15.5 9.5V10.5C15.5 10.7417 15.3286 10.9437 15.1006 10.9902L14.8994 11.0098C14.6714 11.0563 14.5 11.2583 14.5 11.5V12C14.5 13.1046 13.6046 14 12.5 14C12.2239 14 12 13.7761 12 13.5V13C12 12.7583 12.1714 12.5563 12.3994 12.5098L12.6006 12.4902C12.8286 12.4437 13 12.2417 13 12V11.4717C13.0001 11.1615 13.0723 10.8556 13.2109 10.5781L13.5 10L13.2109 9.42188C13.0723 9.14441 13.0001 8.8385 13 8.52832V8C13 7.75829 12.8286 7.55629 12.6006 7.50977L12.3994 7.49023C12.1714 7.44371 12 7.24171 12 7V6.5C12 6.22386 12.2239 6 12.5 6Z" fill="#7FD2BB"/>
</svg>
