<svg width="16" height="16" viewBox="0 0 16 16" fill="none" xmlns="http://www.w3.org/2000/svg">
<path opacity="0.8" d="M9 3H11C12.4 3 13.1 3.00007 13.6348 3.27246C14.1052 3.51214 14.4879 3.89483 14.7275 4.36523C14.9442 4.79052 14.987 5.32035 14.9961 6.22363C14.5386 5.73972 13.996 5.33683 13.3896 5.04395C13.3178 4.90372 13.2142 4.78323 13.0879 4.69141L12.9541 4.60938C12.9334 4.59883 12.8436 4.55578 12.5195 4.5293C12.1779 4.50141 11.7246 4.5 11 4.5H8.37891L6.37891 2.5H4.2002C3.61556 2.5 3.26702 2.50138 3.00879 2.52246C2.88835 2.5323 2.82096 2.54407 2.78809 2.55176L2.77344 2.55469C2.70286 2.59065 2.64185 2.64258 2.5957 2.70605L2.55469 2.77344C2.57139 2.74065 2.54213 2.76805 2.52246 3.00879C2.50138 3.26702 2.5 3.61556 2.5 4.2002V9C2.5 9.72461 2.50141 10.1779 2.5293 10.5195C2.55578 10.8437 2.59883 10.9334 2.60938 10.9541L2.69141 11.0879C2.78366 11.2148 2.90484 11.3187 3.0459 11.3906L3.14941 11.4248C3.21485 11.4402 3.31847 11.4575 3.48047 11.4707C3.82206 11.4986 4.27539 11.5 5 11.5H5.70801C5.8603 12.0383 6.0931 12.5424 6.3916 13H5C3.77477 13 3.08563 13 2.57422 12.8174L2.36523 12.7275C1.95378 12.5179 1.60933 12.199 1.36914 11.8076L1.27246 11.6348C1.00007 11.1 1 10.4 1 9V4.2002C1 3.22019 1.00049 2.66887 1.14648 2.25977L1.21777 2.0918C1.38555 1.76256 1.64085 1.48707 1.9541 1.29492L2.0918 1.21777C2.41263 1.0543 2.80803 1.01315 3.45801 1.00293L4.2002 1H7L9 3Z" fill="#FF4466"/>
<path d="M11 6C13.2091 6 15 7.79086 15 10C15 12.2091 13.2091 14 11 14C8.79086 14 7 12.2091 7 10C7 7.79086 8.79086 6 11 6ZM12.8535 8.14648C12.6583 7.95122 12.3417 7.95122 12.1465 8.14648L11 9.29297L9.85352 8.14648L9.77539 8.08203C9.58131 7.95387 9.31735 7.97562 9.14648 8.14648C8.97562 8.31735 8.95387 8.58131 9.08203 8.77539L9.14648 8.85352L10.293 10L9.14648 11.1465C8.95122 11.3417 8.95122 11.6583 9.14648 11.8535C9.34175 12.0488 9.65825 12.0488 9.85352 11.8535L11 10.707L12.1465 11.8535L12.2246 11.918C12.4187 12.0461 12.6827 12.0244 12.8535 11.8535C13.0244 11.6827 13.0461 11.4187 12.918 11.2246L12.8535 11.1465L11.707 10L12.8535 8.85352C13.0488 8.65825 13.0488 8.34175 12.8535 8.14648Z" fill="#FF8197"/>
</svg>
