<svg width="16" height="16" viewBox="0 0 16 16" fill="none" xmlns="http://www.w3.org/2000/svg">
<path opacity="0.7" d="M9 3.00041H11C12.4 3.00041 13.1 3.00048 13.6348 3.27287C14.1051 3.51256 14.4879 3.89529 14.7275 4.36564C14.9792 4.85999 14.9966 5.49556 14.998 6.69475C14.9129 6.49127 14.7937 6.30377 14.6328 6.1508C14.2771 5.81268 13.8786 5.51867 13.4473 5.27482C13.4396 5.22263 13.4323 5.18168 13.4248 5.14982L13.3906 5.04631C13.3187 4.90532 13.2147 4.78405 13.0879 4.69182L12.9541 4.60979C12.9334 4.59924 12.8436 4.55619 12.5195 4.52971C12.1779 4.50182 11.7246 4.50041 11 4.50041H8.37891L6.37891 2.50041H4.2002C3.61556 2.50041 3.26702 2.50179 3.00879 2.52287C2.88837 2.53271 2.82096 2.54448 2.78809 2.55217L2.77344 2.5551C2.70293 2.59106 2.64182 2.64304 2.5957 2.70646L2.55469 2.77385C2.57139 2.74106 2.54213 2.76846 2.52246 3.0092C2.50141 3.26739 2.5 3.61628 2.5 4.20061V9.00041C2.5 9.72478 2.50141 10.1784 2.5293 10.5199C2.55578 10.8437 2.59884 10.9338 2.60938 10.9545L2.69141 11.0883C2.78363 11.2151 2.90494 11.3192 3.0459 11.391L3.14941 11.4252C3.21486 11.4406 3.31854 11.4579 3.48047 11.4711C3.75162 11.4932 4.09321 11.4962 4.58496 11.4975C4.60796 11.634 4.63398 11.7695 4.66602 11.9028C4.74362 12.2254 4.93127 12.5083 5.17285 12.7358L5.28809 12.8442C5.34029 12.8933 5.38823 12.9463 5.43457 13.0004H5C3.77487 13.0004 3.08562 13.0003 2.57422 12.8178L2.36523 12.7279C1.95388 12.5184 1.60932 12.1993 1.36914 11.808L1.27246 11.6352C1.00009 11.1005 1 10.4001 1 9.00041V4.20061C1 3.22089 1.00062 2.66925 1.14648 2.26018L1.21777 2.09221C1.38552 1.76304 1.64093 1.48747 1.9541 1.29533L2.0918 1.21818C2.41263 1.05471 2.80804 1.01356 3.45801 1.00334L4.2002 1.00041H7L9 3.00041Z" fill="#7E7E92"/>
<path d="M11.4984 6.43564C11.6604 6.29797 11.8753 6.21063 12.0745 6.28502C12.5465 6.4613 12.9807 6.71436 13.3623 7.02935C13.5263 7.16472 13.5582 7.39443 13.5201 7.60362C13.3889 8.32425 13.8289 9.08575 14.5188 9.33223C14.7193 9.40386 14.9025 9.54656 14.9378 9.75651C14.9784 9.99845 15 10.2469 15 10.5003C15 10.7534 14.9784 11.0014 14.9378 11.243C14.9025 11.453 14.7192 11.5957 14.5187 11.6674C13.829 11.9139 13.3891 12.6755 13.5202 13.3961C13.5582 13.6052 13.5263 13.8348 13.3624 13.9702C12.9811 14.2851 12.5472 14.5381 12.0756 14.7144C11.8764 14.7889 11.6614 14.7015 11.4993 14.5639C10.9403 14.0891 10.0587 14.0889 9.49984 14.5636C9.33764 14.7014 9.12256 14.7889 8.92323 14.7143C8.45173 14.538 8.01784 14.285 7.63663 13.9702C7.4727 13.8349 7.44083 13.6052 7.47896 13.3961C7.6104 12.6752 7.17068 11.9135 6.4806 11.6672C6.27995 11.5956 6.0965 11.4529 6.06145 11.2427C6.02115 11.0012 6.00002 10.7532 6 10.5003C6 10.2471 6.02113 9.99869 6.06146 9.75684C6.0965 9.54671 6.27993 9.40396 6.48057 9.33239C7.17077 9.08618 7.61061 8.32451 7.47907 7.60363C7.44089 7.39443 7.47275 7.16468 7.63674 7.0293C8.01822 6.71439 8.45247 6.46145 8.92431 6.28515C9.1236 6.21069 9.33859 6.29811 9.50072 6.43586C10.0593 6.91047 10.9397 6.91026 11.4984 6.43564ZM10.5 9.00028C9.67157 9.00028 9 9.67186 9 10.5003C9.00015 11.3286 9.67167 12.0003 10.5 12.0003C11.3283 12.0003 11.9998 11.3286 12 10.5003C12 9.67186 11.3284 9.00028 10.5 9.00028Z" fill="#BEBED1"/>
</svg>
