<svg width="16" height="16" viewBox="0 0 16 16" fill="none" xmlns="http://www.w3.org/2000/svg">
<path opacity="0.7" d="M9 3H11C12.4 3 13.1 3.00007 13.6348 3.27246C14.1052 3.51214 14.4879 3.89483 14.7275 4.36523C14.903 4.70966 14.9641 5.12267 14.9863 5.74707C14.0373 4.96819 12.8235 4.5 11.5 4.5C8.46243 4.5 6 6.96243 6 10C6 11.1072 6.32867 12.137 6.8916 13H5C3.60002 13 2.89999 12.9999 2.36523 12.7275C1.89483 12.4879 1.51214 12.1052 1.27246 11.6348C1.00007 11.1 1 10.4 1 9V4.2002C1 3.08009 0.999786 2.51962 1.21777 2.0918C1.40951 1.71554 1.71554 1.40951 2.0918 1.21777C2.51962 0.999786 3.08009 1 4.2002 1H7L9 3Z" fill="#7E7E92"/>
<path d="M11.5 6C13.7091 6 15.5 7.79086 15.5 10C15.5 12.2091 13.7091 14 11.5 14C9.29086 14 7.5 12.2091 7.5 10C7.5 7.79086 9.29086 6 11.5 6ZM11.5 7.5C11.2239 7.5 11 7.72386 11 8V10C11 10.1326 11.0527 10.2597 11.1465 10.3535L12.1465 11.3535L12.2246 11.418C12.4187 11.5461 12.6827 11.5244 12.8535 11.3535C13.0244 11.1827 13.0461 10.9187 12.918 10.7246L12.8535 10.6465L12 9.79297V8C12 7.72386 11.7761 7.5 11.5 7.5Z" fill="#BEBED1"/>
</svg>
