<svg width="16" height="16" viewBox="0 0 16 16" fill="none" xmlns="http://www.w3.org/2000/svg">
<path opacity="0.8" d="M9.00046 3H11.0005C12.4003 3 13.1005 3.00001 13.6352 3.27246C14.1055 3.51215 14.4874 3.89491 14.727 4.36523C14.9995 4.90001 15.0005 5.59987 15.0005 7V8.31738L14.312 7.125C13.9101 6.42903 13.1674 6.00018 12.3637 6C12.0152 6 11.6782 6.08119 11.3755 6.22949C11.1374 6.34604 10.831 6.29217 10.6987 6.0625C10.2968 5.36661 9.55404 4.93767 8.75046 4.9375C7.99694 4.9375 7.29706 5.31496 6.88132 5.93555L6.80222 6.0625L3.30222 12.125C3.15736 12.3759 3.06529 12.648 3.02487 12.9258C2.7678 12.8856 2.55546 12.8247 2.36472 12.7275C1.89442 12.4879 1.51256 12.1051 1.27292 11.6348C1.00043 11.1 1.00046 10.4001 1.00046 9V4.2002C1.00046 3.08009 1.00024 2.51962 1.21823 2.0918C1.40999 1.7156 1.71602 1.40947 2.09225 1.21777C2.52 0.999951 3.08003 1 4.19968 1H7.00046L9.00046 3Z" fill="#0CB081"/>
<path d="M12.25 13.25L15.25 13.25L12.3633 8.25001L10.8633 10.8481M10.8633 10.8481L10.0539 12.25C9.69659 12.8688 9.03633 13.25 8.3218 13.25H5.25L8.75 7.18784L10.8633 10.8481Z" stroke="#7FD2BB" stroke-width="1.5" stroke-linecap="round" stroke-linejoin="round"/>
</svg>
