<svg width="16" height="16" viewBox="0 0 16 16" fill="none" xmlns="http://www.w3.org/2000/svg">
<path opacity="0.8" d="M9.00034 2.99956H11.0003C12.4002 2.99956 13.1004 2.9996 13.6351 3.27202C14.1055 3.5117 14.4882 3.8944 14.7279 4.36479C14.8624 4.62881 14.9297 4.93339 14.9642 5.34233L14.7679 5.14604L14.5755 4.97124C13.6534 4.21613 12.4129 4.27504 11.5355 4.8062L11.3529 4.92729C10.948 5.22134 10.4665 5.50566 10.0033 5.71049C9.51296 5.92725 9.16816 5.99946 9.00034 5.99956H8.8353C7.70272 5.99956 6.72151 6.75932 6.42514 7.83354L6.37534 8.05229L5.54819 12.6021C5.52409 12.7346 5.5174 12.8678 5.52377 12.9996H5.00034C3.6002 12.9996 2.89937 12.9996 2.36459 12.7271C1.89455 12.4875 1.51241 12.1054 1.2728 11.6353C1.00031 11.1005 1.00034 10.3997 1.00034 8.99956V4.19975C1.00034 3.07998 1.00024 2.5201 1.21811 2.09233C1.40985 1.71602 1.71582 1.41006 2.09213 1.21831C2.5199 1.00035 3.07974 0.999557 4.19955 0.999557H7.00034L9.00034 2.99956Z" fill="#FD7334"/>
<path d="M12.2345 6.14144C12.6814 5.81688 13.3166 5.81658 13.7071 6.20711L14.7929 7.29289C15.1834 7.68342 15.1831 8.31861 14.8586 8.76546C14.1588 9.7289 13.5 11.0578 13.5 12V12.1654C13.5 12.6487 13.1544 13.0628 12.6789 13.1493L8.78741 13.8568C8.54627 13.9007 8.3926 13.6074 8.56591 13.4341L10.5 11.5C11.064 11.5 11.5 11.064 11.5 10.5C11.5 9.93596 11.064 9.5 10.5 9.5C9.93596 9.5 9.5 9.93596 9.5 10.5L7.56591 12.4341C7.3926 12.6074 7.09932 12.4537 7.14317 12.2126L7.85071 8.32111C7.93716 7.84562 8.35129 7.5 8.83458 7.5H9C9.94224 7.5 11.2711 6.84123 12.2345 6.14144Z" fill="#FFA366"/>
</svg>
