<svg width="16" height="16" viewBox="0 0 16 16" fill="none" xmlns="http://www.w3.org/2000/svg">
<path opacity="0.7" d="M9 3H11C12.4 3 13.1 3.00007 13.6348 3.27246C14.1052 3.51214 14.4879 3.89483 14.7275 4.36523C14.9999 4.89999 15 5.60002 15 7V7.31836C14.1897 5.65009 12.4792 4.5 10.5 4.5C7.73858 4.5 5.5 6.73858 5.5 9.5C5.5 10.8631 6.04614 12.0981 6.93066 13H5C3.60002 13 2.89999 12.9999 2.36523 12.7275C1.89483 12.4879 1.51214 12.1052 1.27246 11.6348C1.00007 11.1 1 10.4 1 9V4.2002C1 3.08009 0.999786 2.51962 1.21777 2.0918C1.40951 1.71554 1.71554 1.40951 2.0918 1.21777C2.51962 0.999786 3.08009 1 4.2002 1H7L9 3Z" fill="#7E7E92"/>
<path d="M10.5 6C12.433 6 14 7.567 14 9.5C14 9.5844 13.9971 9.6681 13.9912 9.75098C13.9516 10.3033 13.9316 10.5802 13.9551 10.707C13.9836 10.8598 13.9968 10.8942 14.0752 11.0283C14.1402 11.1395 14.2599 11.2599 14.5 11.5C15.0523 12.0523 15.0523 12.9477 14.5 13.5C13.9477 14.0523 13.0523 14.0523 12.5 13.5C12.2599 13.2599 12.1395 13.1402 12.0283 13.0752C11.8942 12.9968 11.8598 12.9836 11.707 12.9551C11.5802 12.9316 11.3033 12.9516 10.751 12.9912C10.6681 12.9971 10.5844 13 10.5 13C8.567 13 7 11.433 7 9.5C7 9.36178 7.00795 9.22541 7.02346 9.09134C7.06564 8.72666 7.5014 8.6225 7.76099 8.88208L8.43945 9.56055L8.55371 9.66406C9.14286 10.1442 10.0115 10.1096 10.5605 9.56055C11.1096 9.01152 11.1442 8.14286 10.6641 7.55371L10.5605 7.43945L9.88208 6.76099C9.6225 6.5014 9.72666 6.06564 10.0913 6.02346C10.2254 6.00795 10.3618 6 10.5 6Z" fill="#BEBED1"/>
</svg>
