<svg width="16" height="16" viewBox="0 0 16 16" fill="none" xmlns="http://www.w3.org/2000/svg">
<path opacity="0.8" d="M9.00015 2.99957H11.0002C12.4 2.99957 13.1002 2.99967 13.6349 3.27203C14.1052 3.51166 14.488 3.89452 14.7277 4.3648C15.0001 4.8995 15.0002 5.59988 15.0002 6.99957V8.08257L13.9464 6.43414C13.8117 6.22334 13.6573 6.03632 13.4894 5.87066C13.4851 5.7238 13.4803 5.59531 13.4709 5.48003C13.4576 5.31828 13.4403 5.21436 13.425 5.14898L13.3908 5.04546C13.3189 4.90452 13.2148 4.78316 13.088 4.69097L12.9543 4.60894C12.9335 4.59835 12.8434 4.55532 12.5197 4.52886C12.1781 4.50098 11.7247 4.49957 11.0002 4.49957H8.37906L6.37906 2.49957H4.20035C3.61585 2.49957 3.26715 2.50096 3.00894 2.52203C2.8888 2.53184 2.8212 2.54364 2.78824 2.55132L2.77359 2.55425C2.70314 2.59015 2.64198 2.64231 2.59586 2.70562L2.55484 2.773C2.57109 2.74087 2.5422 2.76903 2.52261 3.00835C2.50154 3.26652 2.50015 3.61538 2.50015 4.19976V8.99957C2.50015 9.72388 2.50159 10.1775 2.52945 10.5191C2.55581 10.8418 2.59874 10.9324 2.60953 10.9537L2.69156 11.0875C2.7838 11.2143 2.90501 11.3183 3.04605 11.3902L3.14957 11.4244C3.21501 11.4397 3.31866 11.457 3.48062 11.4703C3.8222 11.4981 4.27563 11.4996 5.00015 11.4996H5.50308C5.37071 12.0038 5.37005 12.5162 5.48062 12.9996H5.00015C3.77492 12.9996 3.08579 12.9995 2.57437 12.8169L2.36539 12.7271C1.95396 12.5175 1.60948 12.1986 1.36929 11.8072L1.27261 11.6343C1.00036 11.0996 1.00015 10.3993 1.00015 8.99957V4.19976C1.00015 3.22002 1.00066 2.66838 1.14664 2.25933L1.21793 2.09136C1.3857 1.76231 1.64113 1.48655 1.95425 1.29449L2.09195 1.21734C2.41273 1.05399 2.80839 1.01272 3.45816 1.00249L4.20035 0.999565H7.00015L9.00015 2.99957Z" fill="#7E7E92"/>
<path d="M8.75 10.5C9.7165 10.5 10.5 11.2835 10.5 12.25C10.5 13.2165 9.7165 14 8.75 14C7.7835 14 7 13.2165 7 12.25C7 11.2835 7.7835 10.5 8.75 10.5ZM13.75 10.5C14.7165 10.5 15.5 11.2835 15.5 12.25C15.5 13.2165 14.7165 14 13.75 14C12.7835 14 12 13.2165 12 12.25C12 11.2835 12.7835 10.5 13.75 10.5ZM11.25 6.5C12.2165 6.5 13 7.2835 13 8.25C13 9.2165 12.2165 10 11.25 10C10.2835 10 9.5 9.2165 9.5 8.25C9.5 7.2835 10.2835 6.5 11.25 6.5Z" fill="#BEBED1"/>
</svg>
