<svg width="16" height="16" viewBox="0 0 16 16" fill="none" xmlns="http://www.w3.org/2000/svg">
<path opacity="0.8" d="M9.00018 3H11.0002C12.4 3 13.1002 3.00008 13.6349 3.27246C14.1053 3.51215 14.4881 3.89488 14.7277 4.36523C14.9559 4.81329 14.9903 5.37747 14.9963 6.37207L13.4338 5.20117C13.4301 5.18187 13.4285 5.16444 13.425 5.14941L13.3908 5.0459C13.3189 4.90488 13.2149 4.78365 13.0881 4.69141L12.9543 4.60938C12.9336 4.59884 12.8437 4.55578 12.5197 4.5293C12.3147 4.51256 12.0692 4.50601 11.7492 4.50293C11.7216 4.50201 11.6939 4.5 11.6662 4.5H11.3C11.2896 4.5 11.2791 4.5009 11.2687 4.50098C11.1835 4.50087 11.0941 4.5 11.0002 4.5H8.37909L6.37909 2.5H4.20038C3.61588 2.5 3.26719 2.50139 3.00897 2.52246C2.88874 2.53228 2.8212 2.54407 2.78827 2.55176L2.77362 2.55469C2.70307 2.59063 2.64203 2.64262 2.59589 2.70605L2.55487 2.77344C2.5715 2.74076 2.5423 2.76824 2.52264 3.00879C2.50156 3.26702 2.50018 3.61556 2.50018 4.2002V9C2.50018 9.72461 2.50159 10.1779 2.52948 10.5195C2.55596 10.8436 2.59902 10.9334 2.60956 10.9541L2.69159 11.0879C2.78383 11.2147 2.90505 11.3187 3.04608 11.3906L3.1496 11.4248C3.21505 11.4401 3.31879 11.4575 3.48065 11.4707C3.82223 11.4986 4.2757 11.5 5.00018 11.5H6.45917C6.55267 11.854 6.55099 12.2196 6.35175 12.5186L6.33612 12.542C6.24088 12.6849 6.16693 12.8393 6.11151 13H5.00018C3.77508 13 3.0858 12.9999 2.5744 12.8174L2.36542 12.7275C1.95399 12.5179 1.60951 12.199 1.36932 11.8076L1.27264 11.6348C1.00025 11.1 1.00018 10.4 1.00018 9V4.2002C1.00018 3.22019 1.00067 2.66887 1.14667 2.25977L1.21796 2.0918C1.38573 1.76259 1.64106 1.48705 1.95428 1.29492L2.09198 1.21777C2.41278 1.05436 2.80831 1.01315 3.45819 1.00293L4.20038 1H7.00018L9.00018 3Z" fill="#9B61FF"/>
<path d="M11.8066 6C12.1477 6.00023 12.3882 6.33455 12.2803 6.6582L12.1143 7.1582C12.0462 7.36237 11.8549 7.49999 11.6396 7.5H11.4355C10.9091 7.5 10.4725 7.9083 10.4375 8.43359L10.3994 9H12C12.6817 9 13.299 9.27342 13.75 9.71582C14.201 9.27342 14.8183 9 15.5 9H15.5713C15.808 9 16 9.19202 16 9.42871V10C16 10.2761 15.7761 10.5 15.5 10.5C14.9477 10.5 14.5 10.9477 14.5 11.5C14.5 12.0523 14.9477 12.5 15.5 12.5C15.7761 12.5 16 12.7239 16 13V13.5713C16 13.808 15.808 14 15.5713 14H15.5C14.8181 14 14.201 13.7259 13.75 13.2832C13.299 13.7259 12.6819 14 12 14H11.9287C11.692 14 11.5 13.808 11.5 13.5713V13C11.5 12.7239 11.7239 12.5 12 12.5C12.5523 12.5 13 12.0523 13 11.5C13 10.9477 12.5523 10.5 12 10.5H10.2998L10.124 13.1328C10.054 14.1834 9.18183 15 8.12891 15H8C7.72386 15 7.5 14.7761 7.5 14.5V14C7.5 13.7239 7.72386 13.5 8 13.5H8.03223C8.29546 13.5 8.51374 13.2959 8.53125 13.0332L8.7002 10.5H8C7.72386 10.5 7.5 10.2761 7.5 10V9.5C7.5 9.22386 7.72386 9 8 9H8.80078L8.84473 8.33398C8.93228 7.02075 10.0227 6.00001 11.3389 6H11.8066Z" fill="#BDA1FF"/>
</svg>
