<svg width="16" height="16" viewBox="0 0 16 16" fill="none" xmlns="http://www.w3.org/2000/svg">
<path opacity="0.8" d="M9 3.00037H11C12.4001 3.00037 13.1 3.00036 13.6348 3.27283C14.1051 3.51246 14.4878 3.89436 14.7275 4.36462C14.8672 4.63879 14.9336 4.95692 14.9668 5.39001L14.8779 5.35291L11.8779 4.22791L11.6631 4.15759C11.2292 4.03824 10.7708 4.03824 10.3369 4.15759L10.1221 4.22791L7.12207 5.35291C6.1465 5.71891 5.5 6.65174 5.5 7.69373V9.72888C5.50007 10.8976 5.81677 12.0219 6.38672 13.0004H5C3.60015 13.0004 2.89997 13.0002 2.36523 12.7279C1.89487 12.4882 1.51215 12.1055 1.27246 11.6351C1 11.1004 1 10.4003 1 9.00037V4.19958C1 3.07993 0.999916 2.51991 1.21777 2.09216C1.40948 1.71592 1.71558 1.40989 2.0918 1.21814C2.51962 1.00015 3.08009 1.00037 4.2002 1.00037H7L9 3.00037Z" fill="#FF4466"/>
<path d="M10.4736 5.69705C10.813 5.56992 11.187 5.56992 11.5264 5.69705L14.3516 6.75662C14.7417 6.90308 15 7.27643 15 7.69314V9.7283C15 11.0276 14.4945 12.2572 13.6201 13.1756L13.6211 13.1746C13.4075 13.3991 13.1725 13.6058 12.917 13.7898C12.8304 13.852 12.7415 13.9116 12.6504 13.9685L11.5303 14.6687C11.206 14.8714 10.794 14.8714 10.4697 14.6687L9.34961 13.9685C9.24023 13.9002 9.13505 13.8266 9.03223 13.7508C8.79654 13.5762 8.57814 13.3831 8.37891 13.1736V13.1756C7.50485 12.2572 7 11.0273 7 9.7283V7.69314C7 7.27643 7.25834 6.90308 7.64844 6.75662L10.4736 5.69705ZM10.4551 10.9998C9.70357 10.9998 9.05908 11.3959 8.69434 11.9773C9.00178 12.4295 9.40172 12.8219 9.87988 13.1209L10.7354 13.6551L10.7979 13.6883C10.9478 13.7545 11.123 13.7434 11.2646 13.6551L12.1201 13.1209L12.334 12.9773C12.7188 12.7009 13.0462 12.3613 13.3066 11.9783C12.9421 11.3965 12.2976 11 11.5459 10.9998H10.4551ZM11.001 7.49978C10.1727 7.49978 9.50117 8.17152 9.50098 8.99978C9.50106 9.82813 10.1726 10.4998 11.001 10.4998C11.8289 10.4993 12.5009 9.82781 12.501 8.99978C12.5008 8.17185 11.8288 7.50031 11.001 7.49978Z" fill="#FF8197"/>
</svg>
