<svg width="16" height="16" viewBox="0 0 16 16" fill="none" xmlns="http://www.w3.org/2000/svg">
<path opacity="0.8" d="M9.00003 2.99969H11C12.3999 2.99969 13.1001 2.99981 13.6348 3.27215C14.1052 3.51182 14.4879 3.89454 14.7276 4.36492C15 4.89966 15 5.59977 15 6.99969V8.31707L14.8887 8.12469C14.6756 7.75581 14.3631 7.45569 13.9883 7.25848L13.8233 7.18035L10.3086 5.68035C9.32718 5.26159 8.19716 5.59186 7.59085 6.44695L7.47659 6.62469L4.51761 11.7497C4.2851 12.1525 4.17969 12.5796 4.17972 12.9958C3.303 12.9857 2.78363 12.9404 2.36526 12.7272C1.89498 12.4876 1.51219 12.1057 1.27249 11.6354C1.00001 11.1007 1.00003 10.3998 1.00003 8.99969V4.19988C1.00003 3.08022 1.00004 2.52022 1.2178 2.09246C1.4095 1.71625 1.71565 1.4102 2.09183 1.21844C2.51965 1.00045 3.08012 0.999689 4.20023 0.999689H7.00003L9.00003 2.99969Z" fill="#0CB081"/>
<path d="M13.25 13.25H15.25L12.9406 9.25L11.616 11.5442M11.616 11.5442L11.0642 12.5C10.7963 12.9641 10.3011 13.25 9.76517 13.25H6.25L9.42543 7.75L11.616 11.5442Z" stroke="#7FD2BB" stroke-width="1.5" stroke-linecap="round" stroke-linejoin="round"/>
</svg>
