<svg width="16" height="16" viewBox="0 0 16 16" fill="none" xmlns="http://www.w3.org/2000/svg">
<path opacity="0.8" d="M9 3H11C12.4 3 13.1 3.00007 13.6348 3.27246C14.1052 3.51214 14.4879 3.89483 14.7275 4.36523C14.9168 4.73675 14.9726 5.18807 14.9902 5.89844C14.9479 5.87421 14.9059 5.84936 14.8623 5.82715C14.4552 5.61971 14.0499 5.55341 13.707 5.52539C13.3817 5.49883 12.9948 5.5 12.5996 5.5H8.90039C8.50523 5.5 8.11828 5.49883 7.79297 5.52539C7.45008 5.55341 7.04483 5.6197 6.6377 5.82715C6.07347 6.11472 5.61472 6.57347 5.32715 7.1377C5.1197 7.54483 5.05341 7.95008 5.02539 8.29297C4.99883 8.61828 5 9.00523 5 9.40039V11.5996C5 11.9948 4.99883 12.3817 5.02539 12.707C5.03303 12.8005 5.04513 12.8984 5.06055 13H5C3.60002 13 2.89999 12.9999 2.36523 12.7275C1.89483 12.4879 1.51214 12.1052 1.27246 11.6348C1.00007 11.1 1 10.4 1 9V4.2002C1 3.08009 0.999786 2.51962 1.21777 2.0918C1.40951 1.71555 1.71555 1.40951 2.0918 1.21777C2.51962 0.999786 3.08009 1 4.2002 1H7L9 3Z" fill="#4D72F7"/>
<path d="M12.6004 7C13.4402 7 13.8606 6.99962 14.1814 7.16309C14.4636 7.3069 14.6929 7.53716 14.8367 7.81934C15 8.14016 14.9998 8.5606 14.9998 9.40039V11.5996C14.9998 12.4394 15 12.8598 14.8367 13.1807C14.6929 13.4628 14.4636 13.6931 14.1814 13.8369C13.8606 14.0004 13.4402 14 12.6004 14H8.90018C8.06032 14 7.63996 14.0003 7.31912 13.8369C7.03688 13.6931 6.80766 13.4629 6.66385 13.1807C6.50041 12.8598 6.49979 12.4396 6.49979 11.5996V9.40039C6.49979 8.56041 6.50041 8.14019 6.66385 7.81934C6.80766 7.53709 7.03688 7.3069 7.31912 7.16309C7.63996 6.99973 8.06032 7 8.90018 7H12.6004ZM7.99979 8C7.72374 8.00011 7.49979 8.22393 7.49979 8.5C7.49979 8.77607 7.72374 8.99989 7.99979 9H8.49979V12.5C8.49979 12.7761 8.72374 12.9999 8.99979 13C9.27593 13 9.49979 12.7761 9.49979 12.5V9H9.99979C10.2759 9 10.4998 8.77614 10.4998 8.5C10.4998 8.22386 10.2759 8 9.99979 8H7.99979ZM12.4998 8C11.6715 8.00011 10.9998 8.67164 10.9998 9.5C10.9998 10.3284 11.6715 10.9999 12.4998 11C12.7759 11 12.9998 11.2239 12.9998 11.5C12.9998 11.7761 12.7759 12 12.4998 12H12.4021C12.3089 11.9977 12.2186 11.9692 12.1414 11.9189L12.0691 11.8623L11.8533 11.6465L11.7752 11.582C11.5811 11.454 11.3171 11.4757 11.1463 11.6465C10.9755 11.8173 10.9537 12.0814 11.0818 12.2754L11.1463 12.3535L11.3787 12.5859L11.4842 12.6768C11.7383 12.8776 12.0524 12.9922 12.3787 13H12.4998C13.3282 13 13.9998 12.3284 13.9998 11.5C13.9998 10.6716 13.3282 10 12.4998 10C12.2237 9.99989 11.9998 9.77607 11.9998 9.5C11.9998 9.22393 12.2237 9.00011 12.4998 9H12.5974C12.7216 9.00296 12.8405 9.05211 12.9305 9.1377L13.1463 9.35352L13.2244 9.41797C13.4184 9.54611 13.6824 9.52428 13.8533 9.35352C14.0242 9.18265 14.0459 8.91869 13.9178 8.72461L13.8533 8.64648L13.6209 8.41406C13.3509 8.15668 12.9938 8.00889 12.6209 8H12.4998Z" fill="#94BAFF"/>
</svg>
