<svg width="16" height="16" viewBox="0 0 16 16" fill="none" xmlns="http://www.w3.org/2000/svg">
<path opacity="0.8" d="M8.99997 3.00027H11C12.4 3.00027 13.1 3.00029 13.6347 3.27273C14.1051 3.51241 14.4878 3.8951 14.7275 4.3655C14.9998 4.90023 15 5.60046 15 7.00027V8.43972C14.9235 8.39579 14.8438 8.3514 14.7617 8.30691L14.2021 8.01199L12.0293 6.88308C11.6694 6.69612 11.308 6.5072 10.997 6.38015C10.7278 6.27017 10.3306 6.13343 9.8652 6.15163L9.6611 6.16921C9.06043 6.25139 8.51339 6.54915 8.11813 7.00124L7.95798 7.20437C7.63603 7.6603 7.55959 8.15554 7.52927 8.4866C7.49869 8.82098 7.49997 9.22869 7.49997 9.63406V12.1175C7.49997 12.423 7.50025 12.7256 7.51071 13.0003H4.99997C3.60009 13.0003 2.89995 13.0002 2.3652 12.7278C1.89481 12.4881 1.51211 12.1054 1.27243 11.635C0.999964 11.1003 0.999969 10.4002 0.999969 9.00027V4.20046C0.999969 3.08048 0.999825 2.51987 1.21774 2.09206C1.40945 1.71581 1.71554 1.40979 2.09177 1.21804C2.51959 1.00005 3.08006 1.00027 4.20016 1.00027H6.99997L8.99997 3.00027Z" fill="#9B61FF"/>
<path d="M9 9.63418V12.1172C9 13.0582 9 13.5288 9.19699 13.7942C9.3687 14.0256 9.63187 14.1716 9.91905 14.195C10.2485 14.2217 10.6478 13.9728 11.4464 13.475L13.619 12.1206C14.3991 11.6343 14.7891 11.3912 14.9109 11.088C15.017 10.8237 15.0054 10.5266 14.8789 10.2713C14.7338 9.97859 14.3259 9.76671 13.5102 9.34297L11.3376 8.21433C10.5653 7.81315 10.1792 7.61256 9.86456 7.65558C9.5899 7.69312 9.34315 7.843 9.18321 8.06943C9 8.3288 9 8.76393 9 9.63418Z" fill="#BDA1FF"/>
</svg>
