<svg width="16" height="16" viewBox="0 0 16 16" fill="none" xmlns="http://www.w3.org/2000/svg">
<path opacity="0.8" d="M9 3.00031H11C12.4 3.00031 13.1 3.00038 13.6348 3.27277C14.1051 3.51246 14.4879 3.89518 14.7275 4.36554C14.9674 4.83671 14.9937 5.43616 14.9971 6.52961C14.9881 6.52443 14.9798 6.5181 14.9707 6.513L13.4814 5.67511C13.478 5.60621 13.4757 5.54167 13.4707 5.48078C13.4575 5.31902 13.4401 5.21518 13.4248 5.14972L13.3906 5.04621C13.3187 4.9052 13.2147 4.78395 13.0879 4.69172L12.9541 4.60968C12.9334 4.59914 12.8436 4.55609 12.5195 4.52961C12.1779 4.50172 11.7246 4.50031 11 4.50031H8.37891L6.37891 2.50031H4.2002C3.61556 2.50031 3.26702 2.50169 3.00879 2.52277C2.88837 2.53261 2.82096 2.54438 2.78809 2.55207L2.77344 2.555C2.70291 2.59096 2.64183 2.64292 2.5957 2.70636L2.55469 2.77375C2.57139 2.74096 2.54213 2.76836 2.52246 3.0091C2.5014 3.2673 2.5 3.6161 2.5 4.2005V9.00031C2.5 9.72474 2.50141 10.1783 2.5293 10.5198C2.55578 10.8437 2.59884 10.9337 2.60938 10.9544L2.69141 11.0882C2.78364 11.215 2.90491 11.319 3.0459 11.3909L3.14941 11.4251C3.21486 11.4405 3.31853 11.4578 3.48047 11.471C3.82206 11.4989 4.27541 11.5003 5 11.5003H5.5V11.8734C5.50008 12.2664 5.57854 12.6477 5.72168 13.0003H5C3.77485 13.0003 3.08562 13.0003 2.57422 12.8177L2.36523 12.7278C1.95386 12.5182 1.60933 12.1992 1.36914 11.8079L1.27246 11.6351C1.00009 11.1004 1 10.4001 1 9.00031V4.2005C1 3.22071 1.00058 2.66916 1.14648 2.26007L1.21777 2.09211C1.38552 1.76292 1.64091 1.48737 1.9541 1.29523L2.0918 1.21808C2.41263 1.05461 2.80803 1.01346 3.45801 1.00324L4.2002 1.00031H7L9 3.00031Z" fill="#FF9B20"/>
<path d="M10.2646 6.41349C10.7212 6.15677 11.2788 6.15677 11.7354 6.41349L12.6992 6.95548L12.5879 7.01505L9.5 8.79728C8.88124 9.15452 8.50005 9.81523 8.5 10.5297V11.5004C8.50022 11.7764 8.72399 12.0004 9 12.0004C9.27601 12.0004 9.49978 11.7764 9.5 11.5004V10.5297C9.50005 10.1725 9.69064 9.8421 10 9.66349L13.0879 7.88127L13.2158 7.81779C13.3478 7.76316 13.49 7.73478 13.6338 7.73478H13.6963C13.8893 7.7348 14.0797 7.77003 14.2598 7.83537C14.7174 8.10442 15 8.59508 15 9.12736V11.8725C15 12.4144 14.7076 12.9144 14.2354 13.1801L11.7354 14.5863C11.2787 14.8432 10.7213 14.8432 10.2646 14.5863L7.76465 13.1801C7.29235 12.9144 7 12.4144 7 11.8725V9.12736C7.00003 8.58548 7.29235 8.08541 7.76465 7.81974L10.2646 6.41349Z" fill="#FFC076"/>
</svg>
