<svg width="16" height="16" viewBox="0 0 16 16" fill="none" xmlns="http://www.w3.org/2000/svg">
<path opacity="0.8" d="M8.99997 2.99997H11C12.3999 2.99997 13.1 3.00005 13.6347 3.27243C14.1051 3.51211 14.4878 3.89481 14.7275 4.3652C14.8989 4.70166 14.9617 5.1036 14.9853 5.70407C14.6856 5.57876 14.4015 5.53673 14.1787 5.51852C13.9592 5.50061 13.7071 5.49994 13.4716 5.49997C13.4711 5.49344 13.4712 5.48688 13.4707 5.48044C13.4574 5.31846 13.4401 5.21482 13.4248 5.14938L13.3906 5.04587C13.3187 4.90482 13.2147 4.78362 13.0879 4.69138L12.9541 4.60934C12.9333 4.59877 12.8434 4.55573 12.5195 4.52927C12.1779 4.50138 11.7246 4.49997 11 4.49997H8.37888L6.37888 2.49997H4.20016C3.61554 2.49997 3.26699 2.50135 3.00876 2.52243C2.88834 2.53227 2.82093 2.54404 2.78806 2.55173L2.77341 2.55466C2.70283 2.59062 2.64182 2.64255 2.59567 2.70602L2.55466 2.77341C2.57135 2.74063 2.5421 2.76807 2.52243 3.00876C2.50135 3.26699 2.49997 3.61554 2.49997 4.20016V8.99997C2.49997 9.72456 2.50138 10.1779 2.52927 10.5195C2.55573 10.8434 2.59877 10.9333 2.60934 10.9541L2.69138 11.0879C2.78362 11.2147 2.90482 11.3187 3.04587 11.3906L3.14938 11.4248C3.21482 11.4401 3.31846 11.4574 3.48044 11.4707C3.82203 11.4986 4.27538 11.5 4.99997 11.5H5.49997V12.4004C5.49997 12.5947 5.50231 12.8042 5.51071 13H4.99997C3.77475 13 3.0856 12.9999 2.57419 12.8174L2.3652 12.7275C1.95376 12.5179 1.6093 12.199 1.36911 11.8076L1.27243 11.6347C1.00005 11.1 0.999969 10.3999 0.999969 8.99997V4.20016C0.999969 3.22017 1.00046 2.66884 1.14645 2.25974L1.21774 2.09177C1.38552 1.76254 1.64083 1.48703 1.95407 1.29489L2.09177 1.21774C2.41259 1.05427 2.80802 1.01312 3.45798 1.0029L4.20016 0.999969H6.99997L8.99997 2.99997Z" fill="#30A6F9"/>
<path d="M14.2002 11C14.4799 11 14.6197 11.0003 14.7266 11.0547C14.8206 11.1026 14.8974 11.1794 14.9453 11.2734C14.9997 11.3803 15 11.5201 15 11.7998V12.4004C15 12.9602 14.9996 13.2402 14.8906 13.4541C14.7948 13.6421 14.6421 13.7948 14.4541 13.8906C14.2402 13.9996 13.9602 14 13.4004 14H8.59961C8.03982 14 7.75976 13.9996 7.5459 13.8906C7.35793 13.7948 7.20522 13.6421 7.10938 13.4541C7.00041 13.2402 7 12.9602 7 12.4004V11.7998C7 11.5201 7.00034 11.3803 7.05469 11.2734C7.10262 11.1794 7.17936 11.1026 7.27344 11.0547C7.38033 11.0003 7.52014 11 7.7998 11H14.2002ZM11 11.9004C10.6686 11.9004 10.4004 12.1686 10.4004 12.5C10.4004 12.8314 10.6686 13.0996 11 13.0996C11.3314 13.0996 11.5996 12.8314 11.5996 12.5C11.5996 12.1686 11.3314 11.9004 11 11.9004ZM13.4004 7C13.9602 7 14.2402 7.00041 14.4541 7.10938C14.6421 7.20522 14.7948 7.35793 14.8906 7.5459C14.9996 7.75976 15 8.03982 15 8.59961V9.2002C15 9.47986 14.9997 9.61967 14.9453 9.72656C14.8974 9.82064 14.8206 9.89738 14.7266 9.94531C14.6197 9.99966 14.4799 10 14.2002 10H7.7998C7.52014 10 7.38033 9.99966 7.27344 9.94531C7.17936 9.89738 7.10262 9.82064 7.05469 9.72656C7.00034 9.61967 7 9.47986 7 9.2002V8.59961C7 8.03982 7.00041 7.75976 7.10938 7.5459C7.20522 7.35793 7.35793 7.20522 7.5459 7.10938C7.75976 7.00041 8.03982 7 8.59961 7H13.4004ZM11 7.90039C10.6686 7.90039 10.4004 8.16863 10.4004 8.5C10.4004 8.83137 10.6686 9.09961 11 9.09961C11.3314 9.09961 11.5996 8.83137 11.5996 8.5C11.5996 8.16863 11.3314 7.90039 11 7.90039Z" fill="#83C2FE"/>
</svg>
