<svg width="16" height="16" viewBox="0 0 16 16" fill="none" xmlns="http://www.w3.org/2000/svg">
<path d="M8.93974 3.05035L13.2995 12.5625C13.4217 12.8291 13.688 13 13.9813 13H14C14.2761 13 14.5 13.2239 14.5 13.5C14.5 13.7761 14.2761 14 14 14H10C9.72386 14 9.5 13.7761 9.5 13.5C9.5 13.2239 9.72386 13 10 13H10.1061C10.2893 13 10.4103 12.8094 10.3323 12.6435L6.5 4.5L7.11153 3.07309C7.4532 2.27587 8.57836 2.26188 8.93974 3.05035Z" fill="#FF845B"/>
<path d="M3.19081 12.5366L6.5 4.5L7.5 5.5L4.63714 12.6572C4.57145 12.8214 4.69239 13 4.86926 13H5C5.27614 13 5.5 13.2239 5.5 13.5C5.5 13.7761 5.27614 14 5 14H2.5C2.22386 14 2 13.7756 2 13.4994C2 13.2239 2.22335 13 2.49887 13C2.8021 13 3.07535 12.817 3.19081 12.5366Z" fill="#FF845B"/>
<path d="M5 10H10V11H5V10Z" fill="#FF845B"/>
</svg>
