<svg width="16" height="16" viewBox="0 0 16 16" fill="none" xmlns="http://www.w3.org/2000/svg">
<path d="M10 2C11.4 2 12.1 2.00007 12.6348 2.27246C13.1052 2.51214 13.4879 2.89483 13.7275 3.36523C13.9999 3.89999 14 4.60002 14 6V10C14 11.4 13.9999 12.1 13.7275 12.6348C13.4879 13.1052 13.1052 13.4879 12.6348 13.7275C12.1 13.9999 11.4 14 10 14H6C4.60002 14 3.89999 13.9999 3.36523 13.7275C2.89483 13.4879 2.51214 13.1052 2.27246 12.6348C2.00007 12.1 2 11.4 2 10V6C2 4.60002 2.00007 3.89999 2.27246 3.36523C2.51214 2.89483 2.89483 2.51214 3.36523 2.27246C3.89999 2.00007 4.60002 2 6 2H10ZM4 4V5H4.2002C4.47986 5 4.61967 5.00034 4.72656 5.05469C4.82064 5.10262 4.89738 5.17936 4.94531 5.27344C4.99966 5.38033 5 5.52014 5 5.7998V10.2002C5 10.4799 4.99966 10.6197 4.94531 10.7266C4.89738 10.8206 4.82064 10.8974 4.72656 10.9453C4.61967 10.9997 4.47986 11 4.2002 11H4V12H8V11H7.7998C7.52014 11 7.38033 10.9997 7.27344 10.9453C7.17936 10.8974 7.10262 10.8206 7.05469 10.7266C7.00034 10.6197 7 10.4799 7 10.2002V8.5C7.46594 8.5 7.69904 8.50005 7.88281 8.57617C8.12774 8.67766 8.32234 8.87226 8.42383 9.11719C8.49995 9.30096 8.5 9.53406 8.5 10H9.5V6H8.5C8.5 6.46594 8.49995 6.69904 8.42383 6.88281C8.32234 7.12774 8.12774 7.32234 7.88281 7.42383C7.69904 7.49995 7.46594 7.5 7 7.5V5H8.59961C9.43932 5 9.85985 4.99981 10.1807 5.16309C10.4629 5.3069 10.6931 5.53709 10.8369 5.81934C11.0002 6.14015 11 6.56068 11 7.40039V7.5H12V4H4Z" fill="#BEBED1"/>
</svg>
