<svg width="16" height="16" viewBox="0 0 16 16" fill="none" xmlns="http://www.w3.org/2000/svg">
<path d="M7.38243 1.50157C7.78387 1.37122 8.21633 1.37122 8.61778 1.50157C9.07444 1.64995 9.47125 2.04645 10.2633 2.83848L13.1617 5.73692C13.9538 6.52895 14.3503 6.92577 14.4986 7.38243C14.629 7.78387 14.629 8.21633 14.4986 8.61778C14.3503 9.07444 13.9538 9.47125 13.1617 10.2633L10.2633 13.1617C9.47125 13.9538 9.07444 14.3503 8.61778 14.4986C8.21633 14.629 7.78387 14.629 7.38243 14.4986C6.92577 14.3503 6.52895 13.9538 5.73692 13.1617L2.83848 10.2633C2.04645 9.47125 1.64995 9.07444 1.50157 8.61778C1.37122 8.21633 1.37122 7.78387 1.50157 7.38243C1.64995 6.92577 2.04645 6.52895 2.83848 5.73692L5.25743 3.31797L7.00059 5.06114V11.0006C7.00085 11.4146 7.33654 11.7506 7.75059 11.7506C8.16442 11.7503 8.50033 11.4144 8.50059 11.0006V6.56114L10.4703 8.53087L10.527 8.58262C10.8215 8.82248 11.2564 8.8053 11.5309 8.53087C11.8053 8.25643 11.8225 7.82153 11.5826 7.52696L11.5309 7.47032L6.3209 2.26036C6.75622 1.84255 7.05412 1.60824 7.38243 1.50157Z" fill="#FF845B"/>
</svg>
