<svg width="16" height="16" viewBox="0 0 16 16" fill="none" xmlns="http://www.w3.org/2000/svg">
<path d="M7.48621 1.73282C7.98816 1.56973 8.52916 1.56983 9.03113 1.73282C9.60195 1.91829 10.0977 2.41367 11.0878 3.40372L12.8554 5.1713C13.8454 6.16134 14.3398 6.65711 14.5253 7.22794C14.6883 7.72996 14.6884 8.27085 14.5253 8.77286C14.3397 9.3435 13.8451 9.83875 12.8554 10.8285L11.0878 12.5961C10.0977 13.5861 9.60195 14.0815 9.03113 14.267C8.52914 14.43 7.98818 14.4301 7.48621 14.267C6.91544 14.0815 6.42052 13.5861 5.43055 12.5961L3.66297 10.8285C2.67306 9.83861 2.1776 9.34358 1.99207 8.77286C1.82898 8.27091 1.82908 7.72991 1.99207 7.22794C2.17754 6.65711 2.67293 6.16134 3.66297 5.1713L5.43055 3.40372C5.50262 3.33164 5.57248 3.26261 5.63953 3.19571L7.50476 5.06094V11.0004C7.50498 11.4144 7.84068 11.7504 8.25476 11.7504C8.66866 11.7502 9.00455 11.4143 9.00476 11.0004V6.56094L10.9745 8.53067L11.0311 8.58243C11.3257 8.82236 11.7606 8.80514 12.035 8.53067C12.3095 8.2562 12.3267 7.82134 12.0868 7.52676L12.035 7.47012L6.73523 2.17032C7.00322 1.95572 7.23688 1.81384 7.48621 1.73282Z" fill="#FF845B"/>
</svg>
