<svg width="16" height="16" viewBox="0 0 16 16" fill="none" xmlns="http://www.w3.org/2000/svg">
<path d="M7.08582 0.522981C7.48723 -0.174326 8.51277 -0.174327 8.91418 0.52298L10.7619 3.73278C10.9117 3.99292 11.1696 4.1764 11.4685 4.23546L15.1573 4.96421C15.9586 5.12253 16.2755 6.07753 15.7222 6.66681L13.1755 9.37932C12.9691 9.59916 12.8706 9.89604 12.9056 10.1927L13.3376 13.8529C13.4315 14.648 12.6018 15.2382 11.8584 14.9051L8.43672 13.3718C8.15941 13.2475 7.84059 13.2475 7.56328 13.3718L4.14157 14.9051C3.39823 15.2382 2.56854 14.648 2.6624 13.8529L3.09443 10.1927C3.12944 9.89604 3.03092 9.59916 2.82452 9.37932L0.277754 6.66681C-0.275513 6.07753 0.0413973 5.12253 0.842747 4.96421L4.53147 4.23546C4.83042 4.1764 5.08835 3.99292 5.2381 3.73278L7.08582 0.522981Z" fill="#EEA8E3"/>
<path d="M10.75 8.5C10.3358 8.5 10 8.16421 10 7.75C10 7.33579 10.3358 7 10.75 7C11.1642 7 11.5 7.33579 11.5 7.75C11.5 8.16421 11.1642 8.5 10.75 8.5Z" fill="black"/>
<path d="M5.25 8.5C4.83579 8.5 4.5 8.16421 4.5 7.75C4.5 7.33579 4.83579 7 5.25 7C5.66421 7 6 7.33579 6 7.75C6 8.16421 5.66421 8.5 5.25 8.5Z" fill="black"/>
<path d="M7.25 9V9C7.40561 9.82993 8.59439 9.82993 8.75 9V9" stroke="black" stroke-width="0.75" stroke-linecap="round"/>
</svg>
