<svg width="16" height="16" viewBox="0 0 16 16" fill="none" xmlns="http://www.w3.org/2000/svg">
<path d="M10 2C11.4 2 12.1 2.00007 12.6348 2.27246C13.1052 2.51214 13.4879 2.89483 13.7275 3.36523C13.9999 3.89999 14 4.60002 14 6V10C14 11.4 13.9999 12.1 13.7275 12.6348C13.4879 13.1052 13.1052 13.4879 12.6348 13.7275C12.1 13.9999 11.4 14 10 14H6C4.60002 14 3.89999 13.9999 3.36523 13.7275C2.89483 13.4879 2.51214 13.1052 2.27246 12.6348C2.00007 12.1 2 11.4 2 10V6C2 4.60002 2.00007 3.89999 2.27246 3.36523C2.51214 2.89483 2.89483 2.51214 3.36523 2.27246C3.89999 2.00007 4.60002 2 6 2H10ZM10.5 7C9.11929 7 8 8.11929 8 9.5V10.5L8.0127 10.7559C8.14082 12.0164 9.20566 13 10.5 13C11.8807 13 13 11.8807 13 10.5V10.0996C12.9998 9.76855 12.7315 9.50021 12.4004 9.5H11C10.7239 9.5 10.5 9.72386 10.5 10C10.5 10.2761 10.7239 10.5 11 10.5H12L11.9922 10.6533C11.9154 11.4097 11.2767 12 10.5 12C9.72334 12 9.08461 11.4097 9.00781 10.6533L9 10.5V9.5C9 8.67157 9.67157 8 10.5 8H10.793C11.073 8.00002 11.3429 8.09753 11.5576 8.27344L11.6465 8.35352L11.7246 8.41797C11.9187 8.54613 12.1827 8.52438 12.3535 8.35352C12.5244 8.18265 12.5461 7.91869 12.418 7.72461L12.3535 7.64648L12.1914 7.5C11.7987 7.17825 11.3051 7.00002 10.793 7H10.5ZM5.5 11C5.22386 11 5 11.2239 5 11.5C5 11.7761 5.22386 12 5.5 12H6.5C6.77614 12 7 11.7761 7 11.5C7 11.2239 6.77614 11 6.5 11H5.5ZM4.5 9.5C4.22386 9.5 4 9.72386 4 10C4 10.2761 4.22386 10.5 4.5 10.5H6.5C6.77614 10.5 7 10.2761 7 10C7 9.72386 6.77614 9.5 6.5 9.5H4.5ZM5 8C4.72386 8 4.5 8.22386 4.5 8.5C4.5 8.77614 4.72386 9 5 9H6.5C6.77614 9 7 8.77614 7 8.5C7 8.22386 6.77614 8 6.5 8H5Z" fill="#5CBAFD"/>
</svg>
