<svg width="16" height="16" viewBox="0 0 16 16" fill="none" xmlns="http://www.w3.org/2000/svg">
<path d="M14 10.8018C13.9999 11.8554 13.4446 12.837 12.4551 13.1992C11.3863 13.5905 9.8297 14 8.00002 14C6.17038 14 4.61375 13.5905 3.54494 13.1992C2.55552 12.837 2.00013 11.8554 2.00002 10.8018V10.6094L3.66115 10.9414L4.05275 11.7236C4.13745 11.893 4.31064 12 4.50002 12H6.50002C6.6894 12 6.86259 11.893 6.94728 11.7236L7.30861 11H8.69142L9.05275 11.7236C9.13745 11.893 9.31063 12 9.50002 12H11.5C11.6894 12 11.8626 11.893 11.9473 11.7236L12.3379 10.9414L14 10.6094V10.8018ZM6.26955 1.15625C6.47379 1.1181 6.67737 1.21973 6.77834 1.40137L7.40041 2.52149C7.59407 2.50748 7.79392 2.5 8.00002 2.5C8.20576 2.5 8.40531 2.50752 8.59865 2.52149L9.22072 1.40235C9.32178 1.22068 9.52515 1.119 9.72951 1.15723C10.2616 1.2568 10.7502 1.39953 11.1973 1.57324C11.3823 1.64521 11.5 1.82683 11.5 2.02539V3.37598C11.8544 3.5779 12.1642 3.80235 12.4356 4.03028L13.5518 3.47364C13.7432 3.37804 13.9756 3.41344 14.1211 3.57032C14.4904 3.96859 14.7691 4.34846 14.9649 4.6543L15.1084 4.90332C15.1153 4.9166 15.1223 4.93004 15.1289 4.94336C15.2166 5.11991 15.1677 5.33128 15.0283 5.47071L13.9971 6.50196C13.9985 6.53986 14 6.57823 14 6.61621V9.58985L11.9024 10.0098C11.7889 10.0325 11.6877 10.0934 11.6153 10.1807L11.5528 10.2764L11.1914 11H9.80861L9.44728 10.2764C9.37321 10.1282 9.23142 10.0277 9.07033 10.0049L9.00002 10H7.00002C6.83439 10 6.68137 10.082 6.58889 10.2158L6.55275 10.2764L6.19142 11H4.80861L4.44728 10.2764C4.39559 10.173 4.31021 10.0919 4.20705 10.0449L4.09767 10.0098L2.00002 9.58985V6.61621C2.00002 6.57824 2.00053 6.53985 2.00197 6.50196L0.970722 5.47071C0.831475 5.33138 0.784025 5.12095 0.871112 4.94434C0.919341 4.84686 0.974096 4.74975 1.03517 4.6543L1.19826 4.41114C1.37587 4.15682 1.60078 3.86784 1.87697 3.56934C2.02247 3.41251 2.25493 3.37693 2.44631 3.47266L3.56252 4.03028C3.83413 3.802 4.14516 3.57819 4.50002 3.37598V2.02637C4.50002 1.82778 4.61674 1.64631 4.80178 1.57422C5.2488 1.4001 5.73746 1.2562 6.26955 1.15625ZM4.75002 6.5C4.05966 6.5 3.50002 7.05965 3.50002 7.75C3.50002 8.44036 4.05966 9 4.75002 9C5.44037 8.99999 6.00002 8.44035 6.00002 7.75C6.00002 7.05965 5.44037 6.50001 4.75002 6.5ZM8.00002 7C7.72388 7 7.50002 7.22386 7.50002 7.5V8.5C7.50002 8.77614 7.72388 9 8.00002 9C8.27615 8.99999 8.50002 8.77614 8.50002 8.5V7.5C8.50002 7.22387 8.27615 7.00001 8.00002 7ZM11.25 6.5C10.5597 6.5 10 7.05965 10 7.75C10 8.44036 10.5597 9 11.25 9C11.9404 8.99999 12.5 8.44035 12.5 7.75C12.5 7.05965 11.9404 6.50001 11.25 6.5Z" fill="#5CBAFD"/>
</svg>
