<svg width="16" height="16" viewBox="0 0 16 16" fill="none" xmlns="http://www.w3.org/2000/svg">
<path d="M14 10.8014C14 11.8551 13.4446 12.8366 12.4551 13.1989C11.3863 13.5901 9.82973 13.9997 8.00003 13.9997C6.17034 13.9997 4.61376 13.5901 3.54495 13.1989C2.55546 12.8366 2.00006 11.8552 2.00003 10.8014V10.609L3.66116 10.9411L4.05276 11.7233C4.13746 11.8927 4.31064 11.9997 4.50003 11.9997H6.50003C6.68941 11.9997 6.8626 11.8927 6.9473 11.7233L7.30862 10.9997H8.69144L9.05276 11.7233C9.13746 11.8927 9.31064 11.9997 9.50003 11.9997H11.5C11.6894 11.9997 11.8626 11.8927 11.9473 11.7233L12.3379 10.9411L14 10.609V10.8014ZM6.26956 1.15591C6.47385 1.11765 6.67728 1.21944 6.77835 1.40103L7.40042 2.52115C7.59407 2.50714 7.79394 2.49967 8.00003 2.49966C8.20576 2.49967 8.40533 2.50718 8.59866 2.52115L9.22073 1.40201C9.32176 1.22042 9.52525 1.11877 9.72952 1.15689C10.2618 1.25648 10.751 1.39913 11.1983 1.57291C11.3832 1.64489 11.5 1.82656 11.5 2.02505V3.37564C11.8549 3.57784 12.165 3.80266 12.4366 4.03091L13.5528 3.47232C13.7443 3.37656 13.9766 3.41288 14.1221 3.56998C14.4912 3.9685 14.7691 4.34812 14.9649 4.65396L15.1084 4.90298C15.1153 4.91631 15.1223 4.92965 15.1289 4.94302C15.2167 5.11958 15.1677 5.33088 15.0284 5.47037L13.9971 6.50162C13.9985 6.53957 14 6.57785 14 6.61588V9.58951L11.9024 10.0094C11.789 10.0321 11.6877 10.0932 11.6153 10.1803L11.5528 10.276L11.1914 10.9997H9.80862L9.4473 10.276C9.37318 10.128 9.23134 10.0274 9.07034 10.0045L9.00003 9.99966H7.00003C6.8345 9.99966 6.6814 10.0818 6.5889 10.2155L6.55276 10.276L6.19144 10.9997H4.80862L4.4473 10.276C4.39558 10.1728 4.31014 10.0915 4.20706 10.0446L4.09769 10.0094L2.00003 9.58951V6.61588C2.00003 6.57785 2.00152 6.53957 2.00296 6.50162L0.97171 5.47037C0.832344 5.33091 0.784683 5.12072 0.872101 4.944C0.920323 4.84655 0.974115 4.7494 1.03519 4.65396L1.19827 4.4108C1.37587 4.15652 1.60087 3.86842 1.87698 3.56998C2.02241 3.41287 2.25482 3.37664 2.44632 3.47232L3.56253 4.03091C3.83425 3.80251 4.14497 3.57796 4.50003 3.37564V2.02505C4.50007 1.82661 4.61693 1.645 4.80179 1.57291C5.24876 1.39901 5.73757 1.25568 6.26956 1.15591ZM4.75003 6.49966C4.05979 6.49966 3.50021 7.05946 3.50003 7.74966C3.50003 8.44002 4.05967 8.99966 4.75003 8.99966C5.44037 8.99965 6.00003 8.44001 6.00003 7.74966C5.99985 7.05947 5.44026 6.49968 4.75003 6.49966ZM8.00003 6.99966C7.724 6.99966 7.50021 7.22368 7.50003 7.49966V8.49966C7.50003 8.77581 7.72389 8.99966 8.00003 8.99966C8.27616 8.99965 8.50003 8.7758 8.50003 8.49966V7.49966C8.49985 7.22369 8.27605 6.99968 8.00003 6.99966ZM11.25 6.49966C10.5598 6.49966 10.0002 7.05946 10 7.74966C10 8.44002 10.5597 8.99966 11.25 8.99966C11.9404 8.99965 12.5 8.44001 12.5 7.74966C12.4998 7.05947 11.9403 6.49968 11.25 6.49966Z" fill="#84D877"/>
</svg>
