<?xml version="1.0" encoding="UTF-8" standalone="no"?>
<svg
   width="16"
   height="16"
   viewBox="0 0 16 16"
   fill="none"
   version="1.1"
   id="svg1"
   xmlns="http://www.w3.org/2000/svg"
   xmlns:svg="http://www.w3.org/2000/svg">
  <path
     d="m 8.5351563,1.3886719 c -0.1744688,2.962e-4 -0.3499944,0.017787 -0.5214844,0.054687 -0.38763,0.08344 -0.7520688,0.29527 -1.4804688,0.71875 L 4.0136719,3.6289063 c -0.72138,0.41941 -1.0829031,0.6295449 -1.3457031,0.9218749 -0.23253,0.25866 -0.4093682,0.5620282 -0.5175782,0.8925782 -0.12215,0.37347 -0.1232431,0.79091 -0.1269531,1.625 L 2.0097656,9.953125 c -0.00377,0.84667 -0.0048,1.271391 0.1171875,1.650391 0.10795,0.3353 0.2859344,0.64435 0.5214844,0.90625 0.26638,0.296 0.6332275,0.507387 1.3671875,0.929687 l 2.4453125,1.40625 c 0.73048,0.4203 1.096325,0.631191 1.484375,0.712891 0.34328,0.0723 0.6980756,0.07185 1.0410156,-0.002 0.38759,-0.0835 0.7520988,-0.29525 1.4804689,-0.71875 l 2.521484,-1.466797 c 0.7211,-0.4193 1.08095,-0.627722 1.34375,-0.919922 0.2324,-0.2586 0.409378,-0.564031 0.517578,-0.894531 0.1223,-0.3735 0.123254,-0.79057 0.126954,-1.6250004 l 0.01367,-2.8847656 c 0.0038,-0.84677 0.0048,-1.2713206 -0.117187,-1.6503906 -0.108,-0.33536 -0.285784,-0.64436 -0.521484,-0.90625 -0.2663,-0.2959 -0.633388,-0.5074875 -1.367188,-0.9296875 l -2.445312,-1.40625 C 9.8088925,1.7341269 9.4426675,1.5230962 9.0546875,1.4414062 8.8830325,1.4052713 8.709625,1.3883756 8.5351563,1.3886719 Z M 6.5097656,6 c 0.277,0 0.5,0.223 0.5,0.5 V 8 h 2.5 V 6.5 c 0,-0.277 0.223,-0.5 0.5000004,-0.5 0.277,0 0.5,0.223 0.5,0.5 v 4 c 0,0.277 -0.223,0.5 -0.5,0.5 C 9.7327656,11 9.5097656,10.777 9.5097656,10.5 V 9 h -2.5 v 1.5 c 0,0.277 -0.223,0.5 -0.5,0.5 -0.277,0 -0.5,-0.223 -0.5,-0.5 V 9 8 6.5 c 0,-0.277 0.223,-0.5 0.5,-0.5 z"
     style="fill:#AB7AFF"
     id="path8" />
</svg>
