<svg width="16" height="16" viewBox="0 0 16 16" fill="none" xmlns="http://www.w3.org/2000/svg">
<path d="M8.01382 1.44366C8.3568 1.36986 8.71153 1.36944 9.05484 1.44171C9.44282 1.5234 9.80803 1.73346 10.5382 2.15363L12.9845 3.56085C13.7183 3.98305 14.0854 4.19464 14.3517 4.49054C14.5874 4.75243 14.7652 5.06143 14.8732 5.39679C14.9952 5.77586 14.9932 6.19943 14.9894 7.0462L14.9767 9.93097C14.973 10.7654 14.9711 11.1834 14.8488 11.5569C14.7406 11.8874 14.5646 12.1919 14.3322 12.4505C14.0694 12.7427 13.7086 12.9521 12.9875 13.3714L10.4669 14.8372C9.73853 15.2607 9.37407 15.4725 8.98648 15.556C8.64354 15.6298 8.28874 15.6302 7.94546 15.5579C7.55741 15.4762 7.19157 15.2663 6.46109 14.846L4.01578 13.4388C3.28182 13.0165 2.91399 12.8051 2.64761 12.5091C2.41206 12.2472 2.23505 11.9381 2.1271 11.6028C2.00511 11.2238 2.00615 10.8001 2.00992 9.95343L2.02359 7.06866C2.0273 6.23457 2.02839 5.81713 2.15054 5.44366C2.25875 5.11311 2.43559 4.80877 2.66812 4.55011C2.93092 4.25778 3.29147 4.04764 4.01285 3.62823L6.53335 2.16241C7.26175 1.73893 7.62619 1.5271 8.01382 1.44366ZM8.50015 6.00031C7.11944 6.00031 6.00015 7.11959 6.00015 8.50031C6.00032 9.88088 7.11954 11.0003 8.50015 11.0003H8.79312C9.37836 11.0002 9.93982 10.7676 10.3537 10.3538C10.5489 10.1586 10.5487 9.84207 10.3537 9.64679C10.1584 9.45153 9.8419 9.45153 9.64664 9.64679C9.42032 9.87306 9.11315 10.0002 8.79312 10.0003H8.50015C7.67183 10.0003 7.00032 9.32859 7.00015 8.50031C7.00015 7.67188 7.67172 7.00031 8.50015 7.00031H8.79312C9.07311 7.00036 9.34305 7.09786 9.55777 7.27374L9.64664 7.35382L9.72476 7.41827C9.91879 7.54624 10.1829 7.52454 10.3537 7.35382C10.5244 7.18304 10.5461 6.91897 10.4181 6.72491L10.3537 6.64679L10.1916 6.50031C9.79888 6.17859 9.3052 6.00036 8.79312 6.00031H8.50015Z" fill="#5CBAFD"/>
</svg>
