<svg width="16" height="16" viewBox="0 0 16 16" fill="none" xmlns="http://www.w3.org/2000/svg">
<path d="M8.01395 1.44376C8.35693 1.36996 8.71166 1.36953 9.05497 1.44181C9.44295 1.52349 9.80816 1.73356 10.5384 2.15372L12.9847 3.56095C13.7184 3.98315 14.0855 4.19474 14.3518 4.49064C14.5875 4.75253 14.7653 5.06153 14.8733 5.39689C14.9954 5.77595 14.9933 6.19952 14.9895 7.0463L14.9768 9.93107C14.9731 10.7655 14.9712 11.1835 14.8489 11.557C14.7407 11.8875 14.5648 12.192 14.3323 12.4506C14.0696 12.7428 13.7087 12.9522 12.9876 13.3715L10.4671 14.8373C9.73866 15.2608 9.3742 15.4726 8.98661 15.5561C8.64367 15.6299 8.28887 15.6303 7.94559 15.558C7.55754 15.4763 7.1917 15.2664 6.46122 14.8461L4.01591 13.4389C3.28195 13.0166 2.91412 12.8052 2.64774 12.5092C2.41219 12.2473 2.23518 11.9382 2.12724 11.6029C2.00524 11.2239 2.00628 10.8002 2.01005 9.95353L2.02372 7.06876C2.02743 6.23466 2.02852 5.81723 2.15067 5.44376C2.25888 5.11321 2.43573 4.80887 2.66825 4.55021C2.93105 4.25788 3.2916 4.04774 4.01298 3.62833L6.53348 2.16251C7.26188 1.73903 7.62632 1.52719 8.01395 1.44376ZM8.50028 6.0004C7.11957 6.0004 6.00028 7.11969 6.00028 8.5004C6.00045 9.88097 7.11967 11.0004 8.50028 11.0004H8.79325C9.37849 11.0003 9.93995 10.7677 10.3538 10.3539C10.549 10.1587 10.5488 9.84216 10.3538 9.64689C10.1585 9.45162 9.84203 9.45163 9.64677 9.64689C9.42045 9.87316 9.11328 10.0003 8.79325 10.0004H8.50028C7.67196 10.0004 7.00045 9.32869 7.00028 8.5004C7.00028 7.67197 7.67185 7.0004 8.50028 7.0004H8.79325C9.07324 7.00045 9.34318 7.09796 9.5579 7.27384L9.64677 7.35392L9.72489 7.41837C9.91892 7.54633 10.183 7.52464 10.3538 7.35392C10.5246 7.18314 10.5462 6.91906 10.4183 6.72501L10.3538 6.64689L10.1917 6.5004C9.79901 6.17869 9.30533 6.00045 8.79325 6.0004H8.50028Z" fill="#5CBAFD"/>
</svg>
