<svg width="16" height="16" viewBox="0 0 16 16" fill="none" xmlns="http://www.w3.org/2000/svg">
<path d="M8.99974 0.583084C9.26336 0.69965 9.57482 0.877085 10.0271 1.13484L10.9997 1.68855V9.88191L8.99974 10.8819V9.00008H6.99974V15.4161C6.73636 15.2995 6.42503 15.1227 5.97338 14.8653L4.99974 14.3096V6.11824L6.99974 5.11824V7.00008H8.99974V0.583084ZM12.9997 2.82918C13.7192 3.23922 14.0827 3.44783 14.3474 3.74031C14.5847 4.00251 14.764 4.31204 14.8728 4.64851C14.9958 5.02896 14.9938 5.4551 14.99 6.30574L14.9744 9.66902C14.9706 10.5069 14.9687 10.926 14.8454 11.3009C14.7364 11.6325 14.5591 11.9374 14.3249 12.1964C14.0602 12.4891 13.6968 12.699 12.9704 13.1173L9.94994 14.8565C9.54098 15.092 9.24702 15.2598 8.99974 15.377V13.1182L12.9997 11.1182V2.82918ZM6.99974 2.88191L2.99974 4.88191V13.17C2.28108 12.7604 1.91764 12.5521 1.65306 12.2598C1.41569 11.9976 1.23649 11.6873 1.12767 11.3507C1.00482 10.9703 1.00667 10.5447 1.01049 9.69441L1.02611 6.33113C1.02987 5.49312 1.03177 5.07417 1.15502 4.6993C1.26408 4.36755 1.4413 4.06183 1.67552 3.80281C1.94021 3.51024 2.30388 3.30104 3.03002 2.88289L6.05052 1.14363C6.45925 0.90826 6.75255 0.739373 6.99974 0.622147V2.88191Z" fill="#5D80FF"/>
</svg>
