<?xml version="1.0" encoding="UTF-8" standalone="no"?>
<svg
   width="16"
   height="16"
   viewBox="0 0 16 16"
   fill="none"
   version="1.1"
   id="svg1"
   xmlns="http://www.w3.org/2000/svg"
   xmlns:svg="http://www.w3.org/2000/svg">
   <path
      d="M 8.5338538,1.3880036 C 8.3593816,1.3882982 8.1861816,1.4066556 8.0146664,1.4435656 7.626982,1.5270067 7.2620317,1.7388686 6.5335071,2.162402 L 4.0122361,3.6278559 C 3.2911114,4.0470994 2.9310381,4.2576993 2.6682529,4.5498418 2.4357387,4.8084638 2.2590276,5.1118176 2.1508026,5.4423101 2.0284675,5.8158932 2.0277785,6.2348051 2.0240444,7.0692417 l -0.0139,2.8840274 c -0.0037,0.8467959 -0.0057,1.2704999 0.1163391,1.6495029 0.1079781,0.335303 0.2853091,0.644458 0.5209244,0.906361 0.2663962,0.296001 0.6342975,0.508263 1.3682922,0.930666 l 2.444868,1.406419 c 0.7305156,0.420303 1.0965498,0.630191 1.4846322,0.711891 0.3432822,0.07216 0.6988976,0.07217 1.0418478,-0.0018 0.3876356,-0.0834 0.7509097,-0.295334 1.4794229,-0.718837 l 2.521271,-1.465453 c 0.721345,-0.419403 1.081167,-0.629685 1.343983,-0.921987 0.232414,-0.258602 0.409244,-0.563701 0.51745,-0.894203 0.122219,-0.373504 0.124762,-0.79104 0.128495,-1.6251963 L 14.98982,7.046606 C 14.99362,6.1999489 14.99552,5.7761351 14.873486,5.397102 14.765488,5.0617831 14.588286,4.752719 14.352571,4.4908069 14.086255,4.1948346 13.718124,3.9824128 12.984278,3.5601395 L 10.537672,2.1537205 C 9.8073301,1.7335171 9.442791,1.5235201 9.0547762,1.4418294 8.8830961,1.4056874 8.7083259,1.3877094 8.5338538,1.3880036 Z M 4.2310232,6.2774799 c 0.2462663,0 0.4445225,0.198246 0.4445225,0.4444979 v 1.3334935 h 1.333564 V 6.7219778 c 0,-0.2462519 0.1982572,-0.4444979 0.4445224,-0.4444979 0.2462642,0 0.4445214,0.198246 0.4445214,0.4444979 v 1.3334935 0.8889957 1.333494 c 0,0.246252 -0.1982572,0.444498 -0.4445214,0.444498 -0.2462652,0 -0.4445224,-0.198246 -0.4445224,-0.444498 V 8.944467 h -1.333564 v 1.333494 c 0,0.246252 -0.1982562,0.444498 -0.4445225,0.444498 -0.2462641,0 -0.4445203,-0.198246 -0.4445203,-0.444498 V 8.944467 8.0554713 6.7219778 c 0,-0.2462519 0.1982562,-0.4444979 0.4445203,-0.4444979 z M 9.5010348,6.999789 c 0.2759573,7e-5 0.4998872,0.2241477 0.5000872,0.50006 v 0.5000601 h 0.998436 V 7.499849 c 2e-4,-0.2759622 0.224069,-0.50006 0.500088,-0.50006 0.275915,7e-5 0.499885,0.2241477 0.500085,0.5000599 V 7.999909 h 0.500088 c 0.275917,6.99e-5 0.499887,0.2241479 0.500087,0.50006 0,0.2760919 -0.22397,0.4999803 -0.500087,0.5000602 h -0.500088 v 0.5000603 c 0,0.2760925 -0.22397,0.4999795 -0.500085,0.5000595 -0.276219,0 -0.500088,-0.2239172 -0.500088,-0.5000595 V 9.0000293 h -0.998436 v 0.5000602 c 0,0.2760925 -0.2239894,0.4999795 -0.5000872,0.5000595 -0.2761556,0 -0.5000866,-0.2239172 -0.5000866,-0.5000595 V 9.0000293 H 8.5008618 c -0.2761573,0 -0.5000875,-0.2239176 -0.5000875,-0.5000601 2.1e-4,-0.2759622 0.2240592,-0.5000601 0.5000875,-0.5000601 H 9.0009482 V 7.499849 c 2.11e-4,-0.2759622 0.2240617,-0.50006 0.5000866,-0.50006 z"
      fill="#5CBAFD"
      id="path14" />
</svg>