<svg width="16" height="16" viewBox="0 0 16 16" fill="none" xmlns="http://www.w3.org/2000/svg">
<path d="M10 2C11.4 2 12.1 2.00007 12.6348 2.27246C13.1052 2.51214 13.4879 2.89483 13.7275 3.36523C13.9999 3.89999 14 4.60002 14 6V10C14 11.4 13.9999 12.1 13.7275 12.6348C13.4879 13.1052 13.1052 13.4879 12.6348 13.7275C12.1 13.9999 11.4 14 10 14H6C4.60002 14 3.89999 13.9999 3.36523 13.7275C2.89483 13.4879 2.51214 13.1052 2.27246 12.6348C2.00007 12.1 2 11.4 2 10V6C2 4.60002 2.00007 3.89999 2.27246 3.36523C2.51214 2.89483 2.89483 2.51214 3.36523 2.27246C3.89999 2.00007 4.60002 2 6 2H10ZM3.5 8.5V10.9004C3.5 11.4602 3.50041 11.7402 3.60938 11.9541C3.70521 12.1421 3.85793 12.2948 4.0459 12.3906C4.25976 12.4996 4.53982 12.5 5.09961 12.5H10.9004C11.4602 12.5 11.7402 12.4996 11.9541 12.3906C12.1421 12.2948 12.2948 12.1421 12.3906 11.9541C12.4996 11.7402 12.5 11.4602 12.5 10.9004V10.5L11 9L9 11L5 7L3.5 8.5ZM11 4C10.1716 4 9.5 4.67157 9.5 5.5C9.5 6.32843 10.1716 7 11 7C11.8284 7 12.5 6.32843 12.5 5.5C12.5 4.67157 11.8284 4 11 4Z" fill="#5CBAFD"/>
</svg>
