<svg width="16" height="16" viewBox="0 0 16 16" fill="none" xmlns="http://www.w3.org/2000/svg">
<path d="M10 2C11.4 2 12.1 2.00007 12.6348 2.27246C13.1052 2.51214 13.4879 2.89483 13.7275 3.36523C13.9999 3.89999 14 4.60002 14 6V10C14 11.4 13.9999 12.1 13.7275 12.6348C13.4879 13.1052 13.1052 13.4879 12.6348 13.7275C12.1 13.9999 11.4 14 10 14H6C4.60002 14 3.89999 13.9999 3.36523 13.7275C2.89483 13.4879 2.51214 13.1052 2.27246 12.6348C2.00007 12.1 2 11.4 2 10V6C2 4.60002 2.00007 3.89999 2.27246 3.36523C2.51214 2.89483 2.89483 2.51214 3.36523 2.27246C3.89999 2.00007 4.60002 2 6 2H10ZM6 7C5.72386 7 5.5 7.22386 5.5 7.5C5.5 7.77614 5.72386 8 6 8H7V11C7 11.5523 6.55228 12 6 12C5.44772 12 5 11.5523 5 11C5 10.7239 4.77614 10.5 4.5 10.5C4.22386 10.5 4 10.7239 4 11C4 12.1046 4.89543 13 6 13C7.10457 13 8 12.1046 8 11V7.5C8 7.25829 7.82855 7.05629 7.60059 7.00977L7.5 7H6ZM10.75 7C9.7835 7 9 7.7835 9 8.75C9 9.7165 9.7835 10.5 10.75 10.5H11.25C11.6642 10.5 12 10.8358 12 11.25C12 11.6642 11.6642 12 11.25 12H10.9268C10.5955 11.9999 10.2894 11.8361 10.1045 11.5684L10.0322 11.4473L9.94727 11.2764L9.89258 11.1904C9.74891 11.0079 9.4923 10.9448 9.27637 11.0527C9.06028 11.1608 8.95645 11.4043 9.0166 11.6289L9.05273 11.7236L9.13867 11.8945L9.20605 12.0186C9.56403 12.6237 10.2167 12.9999 10.9268 13H11.25C12.2165 13 13 12.2165 13 11.25C13 10.2835 12.2165 9.5 11.25 9.5H10.75C10.3358 9.5 10 9.16421 10 8.75C10 8.33579 10.3358 8 10.75 8H11.0732C11.4519 8.00011 11.7984 8.21404 11.9678 8.55273L12.0527 8.72363L12.1074 8.80957C12.2511 8.99215 12.5077 9.05523 12.7236 8.94727C12.9397 8.83922 13.0435 8.59571 12.9834 8.37109L12.9473 8.27637L12.8613 8.10547C12.5225 7.42815 11.8306 7.00011 11.0732 7H10.75Z" fill="#FFAD4C"/>
</svg>
