<svg width="16" height="16" viewBox="0 0 16 16" fill="none" xmlns="http://www.w3.org/2000/svg">
<path d="M11.5996 2.75H12.5996C12.7995 2.75 12.9281 2.75072 13.0166 2.75293L13.1953 2.76562C13.6969 2.84507 14.0971 3.21872 14.2148 3.70605L14.2344 3.80469C14.2474 3.88714 14.25 4.00043 14.25 4.40039C14.25 4.83941 14.2486 5.06491 14.2373 5.21777L14.2227 5.35156C14.0797 6.25403 13.4069 6.97429 12.5303 7.18652L12.3516 7.22266C12.1915 7.24796 11.9856 7.25 11.4004 7.25H11.25C11.1287 7.25 11.0563 7.24991 11.002 7.24805L10.9512 7.24512C10.8768 7.2303 10.815 7.18277 10.7803 7.11816L10.7549 7.04883C10.7565 7.05701 10.7537 7.04911 10.752 6.99805C10.7501 6.9437 10.75 6.87125 10.75 6.75V3.59961C10.75 3.30744 10.7502 3.13298 10.7607 3.00391C10.7656 2.94433 10.7725 2.91106 10.7764 2.89453L10.7773 2.88672C10.7893 2.8632 10.8048 2.84168 10.8232 2.82324L10.8867 2.77734C10.8703 2.78569 10.8838 2.77058 11.0039 2.76074C11.133 2.7502 11.3074 2.75 11.5996 2.75Z" stroke="#FF845B" stroke-width="1.5"/>
<path d="M2 6V5C2 4.06812 2 3.60218 2.15224 3.23463C2.35523 2.74458 2.74458 2.35523 3.23463 2.15224C3.60218 2 4.06812 2 5 2H10.4C10.9601 2 11.2401 2 11.454 2.10899C11.6422 2.20487 11.7951 2.35785 11.891 2.54601C12 2.75992 12 3.03995 12 3.6V6C12 6.92931 12 7.39397 11.9231 7.78036C11.6075 9.36712 10.3671 10.6075 8.78036 10.9231C8.39397 11 7.92931 11 7 11C6.07069 11 5.60603 11 5.21964 10.9231C3.63288 10.6075 2.39249 9.36712 2.07686 7.78036C2 7.39397 2 6.92931 2 6Z" fill="#FF845B"/>
<path d="M11.75 14H2.75C2.51703 14 2.40054 14 2.30866 13.9619C2.18614 13.9112 2.08881 13.8139 2.03806 13.6913C2 13.5995 2 13.483 2 13.25C2 13.017 2 12.9005 2.03806 12.8087C2.08881 12.6861 2.18614 12.5888 2.30866 12.5381C2.40054 12.5 2.51703 12.5 2.75 12.5H11.75C11.983 12.5 12.0995 12.5 12.1913 12.5381C12.3139 12.5888 12.4112 12.6861 12.4619 12.8087C12.5 12.9005 12.5 13.017 12.5 13.25C12.5 13.483 12.5 13.5995 12.4619 13.6913C12.4112 13.8139 12.3139 13.9112 12.1913 13.9619C12.0995 14 11.983 14 11.75 14Z" fill="#FF845B"/>
</svg>
