<svg width="16" height="16" viewBox="0 0 16 16" fill="none" xmlns="http://www.w3.org/2000/svg">
<path d="M9.99995 2.99995C11.3999 2.99995 12.1 3.00005 12.6347 3.27241C13.1051 3.51209 13.4878 3.89478 13.7275 4.36518C13.9999 4.89994 13.9999 5.59995 13.9999 6.99995V9.99995C13.9999 11.3999 13.9999 12.1 13.7275 12.6347C13.4878 13.1051 13.1051 13.4878 12.6347 13.7275C12.1 13.9999 11.3999 13.9999 9.99995 13.9999H6.99995C5.59995 13.9999 4.89994 13.9999 4.36518 13.7275C3.89478 13.4878 3.51209 13.1051 3.27241 12.6347C3.00005 12.1 2.99995 11.3999 2.99995 9.99995V6.99995C5.20909 6.99995 6.99995 5.20909 6.99995 2.99995H9.99995ZM5.99995 6.99995C5.72385 6.99998 5.49998 7.22385 5.49995 7.49995C5.49995 7.77607 5.72383 7.99992 5.99995 7.99995H6.99995V10.9999C6.99995 11.5522 6.55223 11.9999 5.99995 11.9999C5.44769 11.9999 4.99995 11.5522 4.99995 10.9999C4.99991 10.7238 4.77607 10.4999 4.49995 10.4999C4.22385 10.5 3.99998 10.7239 3.99995 10.9999C3.99995 12.1045 4.8954 12.9999 5.99995 12.9999C7.10452 12.9999 7.99995 12.1045 7.99995 10.9999V7.49995C7.99992 7.25826 7.82848 7.05623 7.60053 7.00971L7.49995 6.99995H5.99995ZM10.7499 6.99995C9.78349 6.99998 8.99998 7.78349 8.99995 8.74995C8.99995 9.71643 9.78347 10.4999 10.7499 10.4999H11.2499C11.6641 10.4999 11.9999 10.8358 11.9999 11.2499C11.9999 11.6642 11.6642 11.9999 11.2499 11.9999H10.9267C10.5955 11.9998 10.2893 11.836 10.1044 11.5683L10.0322 11.4472L9.94721 11.2763L9.89252 11.1904C9.74885 11.0078 9.49222 10.9447 9.27631 11.0527C9.06026 11.1607 8.95644 11.4043 9.01655 11.6289L9.05268 11.7236L9.13862 11.8945L9.206 12.0185C9.56397 12.6236 10.2167 12.9998 10.9267 12.9999H11.2499C12.2164 12.9999 12.9999 12.2164 12.9999 11.2499C12.9999 10.2835 12.2164 9.49995 11.2499 9.49995H10.7499C10.3358 9.49992 9.99995 9.16414 9.99995 8.74995C9.99998 8.33578 10.3358 7.99998 10.7499 7.99995H11.0732C11.4518 8.00006 11.7984 8.21403 11.9677 8.55268L12.0527 8.72358L12.1074 8.80952C12.251 8.99209 12.5077 9.05516 12.7236 8.94721C12.9397 8.83917 13.0435 8.59566 12.9833 8.37104L12.9472 8.27631L12.8613 8.10542C12.5225 7.42813 11.8305 7.00006 11.0732 6.99995H10.7499Z" fill="#FFAD4C"/>
<path d="M3.79102 0.108398C4.29528 0.246024 4.74623 0.510272 5.10742 0.867188C4.99273 1.14448 5.00341 1.47004 5.16504 1.75C5.32641 2.02949 5.60249 2.20053 5.89941 2.24023C5.96289 2.48315 6 2.73719 6 3C6 3.26248 5.96274 3.51615 5.89941 3.75879C5.60244 3.79846 5.32643 3.97047 5.16504 4.25C5.00357 4.52968 4.9931 4.85472 5.10742 5.13184C4.74621 5.48894 4.29541 5.75292 3.79102 5.89062C3.60815 5.65361 3.32251 5.5 3 5.5C2.67727 5.5 2.39085 5.65334 2.20801 5.89062C1.70375 5.75278 1.25268 5.48897 0.891602 5.13184C1.00607 4.85465 0.996495 4.52979 0.834961 4.25C0.673398 3.97016 0.396948 3.79821 0.0996094 3.75879C0.0363262 3.51622 0 3.26239 0 3C0 2.73728 0.0361721 2.48307 0.0996094 2.24023C0.3969 2.20078 0.673421 2.0298 0.834961 1.75C0.996657 1.46993 1.00644 1.14456 0.891602 0.867188C1.25266 0.510241 1.70388 0.246158 2.20801 0.108398C2.39083 0.346035 2.677 0.5 3 0.5C3.32279 0.5 3.60818 0.345765 3.79102 0.108398ZM3 2C2.44772 2 2 2.44772 2 3C2 3.55228 2.44772 4 3 4C3.55228 4 4 3.55228 4 3C4 2.44772 3.55228 2 3 2Z" fill="#9595AC"/>
</svg>
