<svg width="16" height="16" viewBox="0 0 16 16" fill="none" xmlns="http://www.w3.org/2000/svg">
<path d="M0 8.08621V7.42857C0 7.40204 0 7.38878 0.000629274 7.37757C0.0120443 7.17431 0.174308 7.01204 0.377572 7.00063C0.388777 7 0.402042 7 0.428571 7C0.494895 7 0.528057 7 0.55607 6.99843C1.06423 6.96989 1.46989 6.56423 1.49843 6.05607C1.5 6.02806 1.5 5.9949 1.5 5.92857V4.91667C1.5 4.52965 1.5 4.33614 1.52139 4.17368C1.66908 3.05185 2.55185 2.16908 3.67368 2.02139C3.83614 2 4.02965 2 4.41667 2C4.49407 2 4.53277 2 4.56526 2.00428C4.78963 2.03382 4.96618 2.21037 4.99572 2.43474C5 2.46723 5 2.50593 5 2.58333V2.83333C5 2.98833 5 3.06583 4.98296 3.12941C4.93673 3.30196 4.80196 3.43673 4.62941 3.48296C4.56583 3.5 4.48833 3.5 4.33333 3.5C4.02334 3.5 3.86835 3.5 3.74118 3.53407C3.39609 3.62654 3.12654 3.89609 3.03407 4.24118C3 4.36835 3 4.52334 3 4.83333V5.91379C3 5.99383 3 6.03386 2.99908 6.0677C2.96312 7.39533 1.89533 8.46312 0.567698 8.49908C0.533855 8.5 0.493835 8.5 0.413793 8.5C0.400986 8.5 0.394583 8.5 0.389168 8.49985C0.176747 8.4941 0.00590104 8.32325 0.000146686 8.11083C0 8.10542 0 8.09901 0 8.08621Z" fill="#5CBAFD"/>
<path d="M16 8.08621V7.42857C16 7.40204 16 7.38878 15.9994 7.37757C15.988 7.17431 15.8257 7.01204 15.6224 7.00063C15.6112 7 15.598 7 15.5714 7C15.5051 7 15.4719 7 15.4439 6.99843C14.9358 6.96989 14.5301 6.56423 14.5016 6.05607C14.5 6.02806 14.5 5.9949 14.5 5.92857V4.91667C14.5 4.52965 14.5 4.33614 14.4786 4.17368C14.3309 3.05185 13.4481 2.16908 12.3263 2.02139C12.1639 2 11.9704 2 11.5833 2C11.5059 2 11.4672 2 11.4347 2.00428C11.2104 2.03382 11.0338 2.21037 11.0043 2.43474C11 2.46723 11 2.50593 11 2.58333V2.83333C11 2.98833 11 3.06583 11.017 3.12941C11.0633 3.30196 11.198 3.43673 11.3706 3.48296C11.4342 3.5 11.5117 3.5 11.6667 3.5C11.9767 3.5 12.1317 3.5 12.2588 3.53407C12.6039 3.62654 12.8735 3.89609 12.9659 4.24118C13 4.36835 13 4.52334 13 4.83333V5.91379C13 5.99383 13 6.03386 13.0009 6.0677C13.0369 7.39533 14.1047 8.46312 15.4323 8.49908C15.4661 8.5 15.5062 8.5 15.5862 8.5C15.599 8.5 15.6054 8.5 15.6108 8.49985C15.8233 8.4941 15.9941 8.32325 15.9999 8.11083C16 8.10542 16 8.09901 16 8.08621Z" fill="#5CBAFD"/>
<path d="M0 7.41379V8.07143C0 8.09796 0 8.11122 0.000629274 8.12243C0.0120443 8.32569 0.174308 8.48796 0.377572 8.49937C0.388777 8.5 0.402042 8.5 0.428571 8.5C0.494895 8.5 0.528057 8.5 0.55607 8.50157C1.06423 8.53011 1.46989 8.93577 1.49843 9.44393C1.5 9.47194 1.5 9.5051 1.5 9.57143V10.5833C1.5 10.9704 1.5 11.1639 1.52139 11.3263C1.66908 12.4481 2.55185 13.3309 3.67368 13.4786C3.83614 13.5 4.02965 13.5 4.41667 13.5C4.49407 13.5 4.53277 13.5 4.56526 13.4957C4.78963 13.4662 4.96618 13.2896 4.99572 13.0653C5 13.0328 5 12.9941 5 12.9167V12.6667C5 12.5117 5 12.4342 4.98296 12.3706C4.93673 12.198 4.80196 12.0633 4.62941 12.017C4.56583 12 4.48833 12 4.33333 12C4.02334 12 3.86835 12 3.74118 11.9659C3.39609 11.8735 3.12654 11.6039 3.03407 11.2588C3 11.1317 3 10.9767 3 10.6667V9.58621C3 9.50617 3 9.46614 2.99908 9.4323C2.96312 8.10467 1.89533 7.03688 0.567698 7.00092C0.533855 7 0.493835 7 0.413793 7C0.400986 7 0.394583 7 0.389168 7.00015C0.176747 7.0059 0.00590104 7.17675 0.000146686 7.38917C0 7.39458 0 7.40099 0 7.41379Z" fill="#5CBAFD"/>
<path d="M16 7.41379V8.07143C16 8.09796 16 8.11122 15.9994 8.12243C15.988 8.32569 15.8257 8.48796 15.6224 8.49937C15.6112 8.5 15.598 8.5 15.5714 8.5C15.5051 8.5 15.4719 8.5 15.4439 8.50157C14.9358 8.53011 14.5301 8.93577 14.5016 9.44393C14.5 9.47194 14.5 9.5051 14.5 9.57143V10.5833C14.5 10.9704 14.5 11.1639 14.4786 11.3263C14.3309 12.4481 13.4481 13.3309 12.3263 13.4786C12.1639 13.5 11.9704 13.5 11.5833 13.5C11.5059 13.5 11.4672 13.5 11.4347 13.4957C11.2104 13.4662 11.0338 13.2896 11.0043 13.0653C11 13.0328 11 12.9941 11 12.9167V12.6667C11 12.5117 11 12.4342 11.017 12.3706C11.0633 12.198 11.198 12.0633 11.3706 12.017C11.4342 12 11.5117 12 11.6667 12C11.9767 12 12.1317 12 12.2588 11.9659C12.6039 11.8735 12.8735 11.6039 12.9659 11.2588C13 11.1317 13 10.9767 13 10.6667V9.58621C13 9.50617 13 9.46614 13.0009 9.4323C13.0369 8.10467 14.1047 7.03688 15.4323 7.00092C15.4661 7 15.5062 7 15.5862 7C15.599 7 15.6054 7 15.6108 7.00015C15.8233 7.0059 15.9941 7.17675 15.9999 7.38917C16 7.39458 16 7.40099 16 7.41379Z" fill="#5CBAFD"/>
<circle cx="5" cy="8" r="1" fill="#FFAD4C"/>
<circle cx="8" cy="8" r="1" fill="#FFAD4C"/>
<circle cx="11" cy="8" r="1" fill="#FFAD4C"/>
</svg>
