<svg width="16" height="16" viewBox="0 0 16 16" fill="none" xmlns="http://www.w3.org/2000/svg">
<path d="M10 2C11.4 2 12.1 2.00007 12.6348 2.27246C13.1052 2.51214 13.4879 2.89483 13.7275 3.36523C13.9999 3.89999 14 4.60002 14 6V10C14 11.4 13.9999 12.1 13.7275 12.6348C13.4879 13.1052 13.1052 13.4879 12.6348 13.7275C12.1 13.9999 11.4 14 10 14H6C4.60002 14 3.89999 13.9999 3.36523 13.7275C2.89483 13.4879 2.51214 13.1052 2.27246 12.6348C2.00007 12.1 2 11.4 2 10V6C2 4.60002 2.00007 3.89999 2.27246 3.36523C2.51214 2.89483 2.89483 2.51214 3.36523 2.27246C3.89999 2.00007 4.60002 2 6 2H10ZM6.5 4C5.39543 4 4.5 4.89543 4.5 6V6.5C4.5 6.74171 4.32855 6.94371 4.10059 6.99023L3.89941 7.00977C3.67145 7.05629 3.5 7.25829 3.5 7.5V8.5C3.5 8.74171 3.67145 8.94371 3.89941 8.99023L4.10059 9.00977C4.32855 9.05629 4.5 9.25829 4.5 9.5V10C4.5 11.1046 5.39543 12 6.5 12C6.77614 12 7 11.7761 7 11.5V11C7 10.7583 6.82855 10.5563 6.60059 10.5098L6.39941 10.4902C6.17145 10.4437 6 10.2417 6 10V9.47168C5.99993 9.1615 5.92771 8.85559 5.78906 8.57812L5.5 8L5.78906 7.42188C5.92771 7.14441 5.99993 6.8385 6 6.52832V6C6 5.75829 6.17145 5.55629 6.39941 5.50977L6.60059 5.49023C6.82855 5.44371 7 5.24171 7 5V4.5C7 4.22386 6.77614 4 6.5 4ZM9.5 4C9.22386 4 9 4.22386 9 4.5V5C9 5.24171 9.17145 5.44371 9.39941 5.49023L9.60059 5.50977C9.82855 5.55629 10 5.75829 10 6V6.52832C10.0001 6.8385 10.0723 7.14441 10.2109 7.42188L10.5 8L10.2109 8.57812C10.0723 8.85559 10.0001 9.1615 10 9.47168V10C10 10.2417 9.82855 10.4437 9.60059 10.4902L9.39941 10.5098C9.17145 10.5563 9 10.7583 9 11V11.5C9 11.7761 9.22386 12 9.5 12C10.6046 12 11.5 11.1046 11.5 10V9.5C11.5 9.25829 11.6714 9.05629 11.8994 9.00977L12.1006 8.99023C12.3286 8.94371 12.5 8.74171 12.5 8.5V7.5C12.5 7.25829 12.3286 7.05629 12.1006 7.00977L11.8994 6.99023C11.6714 6.94371 11.5 6.74171 11.5 6.5V6C11.5 4.89543 10.6046 4 9.5 4Z" fill="#B183FF"/>
</svg>
