<svg width="16" height="16" viewBox="0 0 16 16" fill="none" xmlns="http://www.w3.org/2000/svg">
<path d="M4.56543 2.0039C4.7897 2.03348 4.96651 2.21029 4.99609 2.43456C5.00037 2.46701 5 2.50582 5 2.583V2.833C5 2.988 5.00044 3.06629 4.9834 3.12988C4.93711 3.30215 4.80216 3.4371 4.62988 3.48339C4.5663 3.50043 4.488 3.49999 4.33301 3.49999C4.02324 3.49999 3.86833 3.50011 3.74121 3.53417C3.39612 3.62664 3.12665 3.89611 3.03418 4.2412C3.00012 4.36832 3 4.52323 3 4.833V5.91405C3 5.99367 2.99993 6.03364 2.99902 6.06738C2.98127 6.72279 2.71101 7.31411 2.2832 7.74999C2.71101 8.18587 2.98127 8.77719 2.99902 9.43261C2.99993 9.46635 3 9.50631 3 9.58593V10.667C3 10.9768 3.00012 11.1317 3.03418 11.2588C3.12665 11.6039 3.39612 11.8733 3.74121 11.9658C3.86833 11.9999 4.02323 12 4.33301 12C4.488 12 4.5663 11.9996 4.62988 12.0166C4.80216 12.0629 4.93711 12.1978 4.9834 12.3701C5.00044 12.4337 5 12.512 5 12.667V12.917C5 12.9942 5.00037 13.033 4.99609 13.0654C4.96652 13.2897 4.7897 13.4665 4.56543 13.4961C4.53298 13.5004 4.49418 13.5 4.41699 13.5C4.03008 13.5 3.83626 13.4999 3.67383 13.4785C2.55199 13.3308 1.66918 12.448 1.52148 11.3262C1.50011 11.1637 1.5 10.9699 1.5 10.583V9.57128C1.5 9.50535 1.4996 9.47224 1.49805 9.44433C1.46951 8.93617 1.06382 8.53048 0.555664 8.50195C0.527751 8.50039 0.494639 8.49999 0.428711 8.49999C0.427425 8.49999 0.42603 8.49902 0.424805 8.49902C0.421306 8.49902 0.417726 8.49999 0.414062 8.49999C0.401635 8.49999 0.394964 8.50013 0.389648 8.49999C0.38719 8.49993 0.384283 8.49913 0.381836 8.49902C0.380496 8.49896 0.379198 8.49909 0.37793 8.49902C0.36943 8.49854 0.360888 8.49611 0.352539 8.49511C0.336971 8.49326 0.321604 8.49186 0.306641 8.48827C0.298275 8.48627 0.290377 8.48298 0.282227 8.48046C0.170882 8.44604 0.0794972 8.36627 0.0332031 8.26073L0.0117188 8.19628L0.00976562 8.18847C0.00667422 8.17478 0.00555667 8.16066 0.00390625 8.14648C0.002974 8.13848 0.00143315 8.13019 0.000976562 8.12206C0.000889683 8.12048 6.38978e-05 8.11888 0 8.11718V7.38183C5.50322e-05 7.38047 0.000906297 7.3792 0.000976562 7.37792C0.00145184 7.36946 0.00291588 7.36084 0.00390625 7.35253C0.00575175 7.337 0.0071739 7.32156 0.0107422 7.30663C0.0127374 7.29829 0.0160474 7.29035 0.0185547 7.28222C0.0574145 7.15619 0.156199 7.0574 0.282227 7.01855C0.290359 7.01604 0.298295 7.01273 0.306641 7.01073C0.32157 7.00717 0.337009 7.00574 0.352539 7.0039C0.360849 7.00291 0.369469 7.00144 0.37793 7.00097C0.389064 7.00036 0.402448 6.99999 0.428711 6.99999C0.49464 6.99999 0.527751 6.99959 0.555664 6.99804C1.06382 6.9695 1.46951 6.56382 1.49805 6.05566C1.4996 6.02774 1.5 5.99463 1.5 5.9287V4.91698C1.5 4.53006 1.50011 4.33625 1.52148 4.17382C1.66918 3.05199 2.55199 2.16917 3.67383 2.02148C3.83626 2.00011 4.03008 1.99999 4.41699 1.99999C4.49418 1.99999 4.53298 1.99963 4.56543 2.0039ZM11.583 1.99999C11.9699 1.99999 12.1637 2.00011 12.3262 2.02148C13.448 2.16917 14.3308 3.05199 14.4785 4.17382C14.4999 4.33625 14.5 4.53006 14.5 4.91698V5.9287C14.5 5.99463 14.5004 6.02774 14.502 6.05566C14.5305 6.56382 14.9362 6.9695 15.4443 6.99804C15.4722 6.99959 15.5054 6.99999 15.5713 6.99999C15.5976 6.99999 15.6109 7.00036 15.6221 7.00097C15.6302 7.00143 15.6385 7.00297 15.6465 7.0039C15.6607 7.00555 15.6748 7.00667 15.6885 7.00976L15.6963 7.01171L15.7607 7.0332C15.8663 7.07949 15.946 7.17088 15.9805 7.28222C15.983 7.29037 15.9863 7.29827 15.9883 7.30663C15.9919 7.3216 15.9933 7.33696 15.9951 7.35253C15.9961 7.36088 15.9985 7.36942 15.999 7.37792C15.9991 7.37919 15.999 7.38049 15.999 7.38183C15.9991 7.38428 15.9999 7.38718 16 7.38964V8.11034C15.9999 8.11247 15.9991 8.11506 15.999 8.11718C15.999 8.11887 15.9991 8.12049 15.999 8.12206C15.9986 8.13023 15.9961 8.13845 15.9951 8.14648C15.9933 8.16206 15.9918 8.1774 15.9883 8.19238C15.9863 8.20075 15.983 8.20863 15.9805 8.21679C15.9417 8.34332 15.8433 8.44167 15.7168 8.48046C15.7086 8.48296 15.7008 8.48629 15.6924 8.48827C15.6774 8.49182 15.6621 8.49329 15.6465 8.49511C15.6385 8.49605 15.6302 8.49856 15.6221 8.49902C15.6205 8.4991 15.6189 8.49895 15.6172 8.49902C15.6151 8.49911 15.6125 8.49993 15.6104 8.49999C15.605 8.50013 15.5984 8.49999 15.5859 8.49999C15.5819 8.49999 15.578 8.49902 15.5742 8.49902L15.5713 8.49999C15.5054 8.49999 15.4722 8.50039 15.4443 8.50195C14.9362 8.53048 14.5305 8.93617 14.502 9.44433C14.5004 9.47224 14.5 9.50535 14.5 9.57128V10.583C14.5 10.9699 14.4999 11.1637 14.4785 11.3262C14.3308 12.448 13.448 13.3308 12.3262 13.4785C12.1637 13.4999 11.9699 13.5 11.583 13.5C11.5058 13.5 11.467 13.5004 11.4346 13.4961C11.2103 13.4665 11.0335 13.2897 11.0039 13.0654C10.9996 13.033 11 12.9942 11 12.917V12.667C11 12.512 10.9996 12.4337 11.0166 12.3701C11.0629 12.1978 11.1978 12.0629 11.3701 12.0166C11.4337 11.9996 11.512 12 11.667 12C11.9768 12 12.1317 11.9999 12.2588 11.9658C12.6039 11.8733 12.8734 11.6039 12.9658 11.2588C12.9999 11.1317 13 10.9768 13 10.667V9.58593C13 9.50631 13.0001 9.46635 13.001 9.43261C13.0187 8.77744 13.2883 8.18583 13.7158 7.74999C13.2883 7.31416 13.0187 6.72254 13.001 6.06738C13.0001 6.03364 13 5.99367 13 5.91405V4.833C13 4.52323 12.9999 4.36832 12.9658 4.2412C12.8734 3.89611 12.6039 3.62664 12.2588 3.53417C12.1317 3.50011 11.9768 3.49999 11.667 3.49999C11.512 3.49999 11.4337 3.50043 11.3701 3.48339C11.1978 3.4371 11.0629 3.30215 11.0166 3.12988C10.9996 3.06629 11 2.988 11 2.833V2.583C11 2.50582 10.9996 2.46701 11.0039 2.43456C11.0335 2.21029 11.2103 2.03348 11.4346 2.0039C11.467 1.99963 11.5058 1.99999 11.583 1.99999Z" fill="#AB7AFF"/>
<path opacity="0.8" d="M5 6.90039C5.60751 6.90039 6.09961 7.39249 6.09961 8C6.09961 8.60751 5.60751 9.09961 5 9.09961C4.39249 9.09961 3.90039 8.60751 3.90039 8C3.90039 7.39249 4.39249 6.90039 5 6.90039ZM8 6.90039C8.60751 6.90039 9.09961 7.39249 9.09961 8C9.09961 8.60751 8.60751 9.09961 8 9.09961C7.39249 9.09961 6.90039 8.60751 6.90039 8C6.90039 7.39249 7.39249 6.90039 8 6.90039ZM11 6.90039C11.6075 6.90039 12.0996 7.39249 12.0996 8C12.0996 8.60751 11.6075 9.09961 11 9.09961C10.3925 9.09961 9.90039 8.60751 9.90039 8C9.90039 7.39249 10.3925 6.90039 11 6.90039Z" fill="#AB7AFF"/>
</svg>
