<svg width="16" height="16" viewBox="0 0 16 16" fill="none" xmlns="http://www.w3.org/2000/svg">
<path d="M6.5 2C6.77614 2 7 2.22386 7 2.5V3C7 3.27614 6.77614 3.5 6.5 3.5C5.67157 3.5 5 4.17157 5 5V5.75C5 6.64734 4.6039 7.45023 3.97949 8C4.6039 8.54977 5 9.35266 5 10.25V11C5 11.8284 5.67157 12.5 6.5 12.5C6.77614 12.5 7 12.7239 7 13V13.5C7 13.7761 6.77614 14 6.5 14H6C4.34315 14 3 12.6569 3 11V9.75C3 9.19772 2.55228 8.75 2 8.75H1.90039C1.67948 8.75 1.5 8.57052 1.5 8.34961V7.65039C1.5 7.45709 1.63706 7.29511 1.81934 7.25781L1.90039 7.25H2C2.55228 7.25 3 6.80228 3 6.25V5C3 3.34315 4.34315 2 6 2H6.5ZM10 2C11.6569 2 13 3.34315 13 5V6.25C13 6.80228 13.4477 7.25 14 7.25H14.0996C14.3205 7.25 14.5 7.42948 14.5 7.65039V8.34961C14.5 8.57052 14.3205 8.75 14.0996 8.75H14C13.4477 8.75 13 9.19772 13 9.75V11C13 12.6569 11.6569 14 10 14H9.5C9.22386 14 9 13.7761 9 13.5V13C9 12.7239 9.22386 12.5 9.5 12.5C10.3284 12.5 11 11.8284 11 11V10.25C11 9.35293 11.3954 8.54976 12.0195 8C11.3954 7.45024 11 6.64707 11 5.75V5C11 4.17157 10.3284 3.5 9.5 3.5C9.22386 3.5 9 3.27614 9 3V2.5C9 2.22386 9.22386 2 9.5 2H10Z" fill="#AB7AFF"/>
</svg>
