<svg width="16" height="16" viewBox="0 0 16 16" fill="none" xmlns="http://www.w3.org/2000/svg">
<path d="M9.5 2C11.9853 2 14 4.01472 14 6.5C14 8.98528 11.9853 11 9.5 11C9.04517 11 8.60623 10.9321 8.19238 10.8066L7.79297 11.207C7.60547 11.3945 7.3511 11.5 7.08594 11.5H7C6.44772 11.5 6 11.9477 6 12.5V12.6465C5.99999 12.8728 5.91006 13.0899 5.75 13.25C5.58994 13.4101 5.37285 13.5 5.14648 13.5H4.75C4.36183 13.5 4.04253 13.7949 4.00391 14.1729L3.99609 14.3271C3.95747 14.7051 3.63817 15 3.25 15H2C1.44772 15 1 14.5523 1 14V12.6211C1.00006 12.2234 1.1582 11.8418 1.43945 11.5605L5.19238 7.80664C5.06712 7.39314 5 6.9544 5 6.5C5 4.01472 7.01472 2 9.5 2ZM10.5 4C9.67157 4 9 4.67157 9 5.5C9 6.32843 9.67157 7 10.5 7C11.3284 7 12 6.32843 12 5.5C12 4.67157 11.3284 4 10.5 4Z" fill="#FFAD4C"/>
</svg>
