<svg width="16" height="16" viewBox="0 0 16 16" fill="none" xmlns="http://www.w3.org/2000/svg">
<path d="M13.2676 13.2676C13.0832 13.452 12.87 13.6077 12.6348 13.7275C12.1 13.9999 11.4 14 10 14H6C4.78774 14 4.10058 13.9991 3.59082 13.8223L8.70703 8.70703L13.2676 13.2676ZM2 7.58594V6C2 4.60002 2.00007 3.89999 2.27246 3.36523C2.51214 2.89483 2.89483 2.51214 3.36523 2.27246C3.89999 2.00007 4.60002 2 6 2H7.58594L2 7.58594Z" fill="#5D80FF"/>
<path d="M10 2C11.4 2 12.1 2.00007 12.6348 2.27246C12.87 2.3923 13.0832 2.54805 13.2676 2.73242L2.73242 13.2676C2.54799 13.0831 2.3923 12.87 2.27246 12.6348C2.00007 12.1 2 11.4 2 10V9L9 2H10Z" fill="#FF845B"/>
</svg>
