<svg width="16" height="16" viewBox="0 0 16 16" fill="none" xmlns="http://www.w3.org/2000/svg">
<path d="M3.5 12.5V8.5M3.5 12.5H3M3.5 12.5H4M3.5 8.5H2V9M3.5 8.5H5V9" stroke="#BEBED1" stroke-linecap="round" stroke-linejoin="round"/>
<path d="M6.5 10.5V12.5M6.5 10.5H8.5V11M6.5 10.5H6M6.5 14.5H8.5V14M6.5 14.5V12.5M6.5 14.5H6M6.5 12.5H7.5" stroke="#BEBED1" stroke-linecap="round" stroke-linejoin="round"/>
<path d="M10.5 8.5L13 12.5M10.5 8.5H10M10.5 8.5H11M13 12.5H12.5M13 12.5H13.5M10.5 12.5L13 8.5M10.5 12.5H11M10.5 12.5H10M13 8.5H12.5M13 8.5H13.5" stroke="#BEBED1" stroke-linecap="round" stroke-linejoin="round"/>
<path d="M4.5 2.5V6.5M4.5 2.5H5M4.5 2.5H4M4.5 6.5H6.5V6M4.5 6.5H4" stroke="#BEBED1" stroke-linecap="round" stroke-linejoin="round"/>
<path d="M8.39999 6.5H7.89999M8.39999 6.5H8.99999M8.39999 6.5L8.8125 5M11.5 6.5H11M11.5 6.5H12M11.5 6.5L11.125 5M8.8125 5L9.39896 2.86742C9.45864 2.65039 9.65598 2.5 9.88106 2.5H10.1096C10.339 2.5 10.539 2.65615 10.5947 2.87873L11.125 5M8.8125 5H11.125" stroke="#BEBED1" stroke-linecap="round" stroke-linejoin="round"/>
</svg>
