<svg width="16" height="16" viewBox="0 0 16 16" fill="none" xmlns="http://www.w3.org/2000/svg">
<path d="M8 13.7056V13H10H12V13.7056C12 14.1342 12 14.3485 11.9097 14.4776C11.8309 14.5903 11.7091 14.6655 11.5731 14.6856C11.4173 14.7086 11.2256 14.6128 10.8422 14.4211L10 14L9.15777 14.4211C8.77441 14.6128 8.58273 14.7086 8.42692 14.6856C8.29086 14.6655 8.1691 14.5903 8.09027 14.4776C8 14.3485 8 14.1342 8 13.7056Z" fill="#FF5B78"/>
<path d="M11.7998 3C12.9199 3 13.4804 2.99979 13.9082 3.21777C14.2845 3.40951 14.5905 3.71554 14.7822 4.0918C15.0002 4.51962 15 5.08009 15 6.2002V9.7998C15 10.9199 15.0002 11.4804 14.7822 11.9082C14.5905 12.2845 14.2845 12.5905 13.9082 12.7822C13.4804 13.0002 12.9199 13 11.7998 13H4.2002C3.08009 13 2.51962 13.0002 2.0918 12.7822C1.71554 12.5905 1.40951 12.2845 1.21777 11.9082C0.999786 11.4804 1 10.9199 1 9.7998V6.2002C1 5.08009 0.999786 4.51962 1.21777 4.0918C1.40951 3.71554 1.71554 3.40951 2.0918 3.21777C2.51962 2.99979 3.08009 3 4.2002 3H11.7998ZM8.44922 4.87305C8.30796 4.88747 8.17932 4.96141 8.0957 5.07617C7.99994 5.20777 8 5.43615 8 5.89258V6.83301L7.18457 7.30859C6.7953 7.53567 6.60067 7.65 6.53516 7.79785C6.47821 7.92664 6.47821 8.07336 6.53516 8.20215C6.60067 8.35 6.79529 8.46433 7.18457 8.69141L8 9.16602V10.1074C8 10.5638 7.99994 10.7922 8.0957 10.9238C8.17932 11.0386 8.30796 11.1125 8.44922 11.127C8.61121 11.1435 8.80858 11.028 9.20312 10.7979L10 10.333L10.7969 10.7979C11.1914 11.028 11.3888 11.1435 11.5508 11.127C11.692 11.1125 11.8207 11.0386 11.9043 10.9238C12.0001 10.7922 12 10.5638 12 10.1074V9.16602L12.8154 8.69141C13.2047 8.46433 13.3993 8.35 13.4648 8.20215C13.5218 8.07336 13.5218 7.92664 13.4648 7.79785C13.3993 7.65 13.2047 7.53567 12.8154 7.30859L12 6.83301V5.89258C12 5.43615 12.0001 5.20777 11.9043 5.07617C11.8207 4.96141 11.692 4.88747 11.5508 4.87305C11.3888 4.85653 11.1914 4.972 10.7969 5.20215L10 5.66602L9.20312 5.20215C8.80858 4.972 8.61121 4.85653 8.44922 4.87305ZM3.5 9.5C3.22386 9.5 3 9.72386 3 10V10.5C3 10.7761 3.22386 11 3.5 11H6C6.27614 11 6.5 10.7761 6.5 10.5V10C6.5 9.72386 6.27614 9.5 6 9.5H3.5ZM3.5 7.25C3.22386 7.25 3 7.47386 3 7.75V8.25C3 8.52614 3.22386 8.75 3.5 8.75H5C5.27614 8.75 5.5 8.52614 5.5 8.25V7.75C5.5 7.47386 5.27614 7.25 5 7.25H3.5ZM3.5 5C3.22386 5 3 5.22386 3 5.5V6C3 6.27614 3.22386 6.5 3.5 6.5H6C6.27614 6.5 6.5 6.27614 6.5 6V5.5C6.5 5.22386 6.27614 5 6 5H3.5Z" fill="#FF5B78"/>
</svg>
