<svg width="16" height="16" viewBox="0 0 16 16" fill="none" xmlns="http://www.w3.org/2000/svg">
<path d="M8 1.5C8.46441 1.5 8.69666 1.49973 8.8916 1.52539C10.2378 1.70262 11.2974 2.7622 11.4746 4.1084C11.5003 4.30334 11.5 4.53559 11.5 5V6C12.3284 6 13 6.67157 13 7.5V10.2002C13 11.8802 12.9998 12.7206 12.6729 13.3623C12.3853 13.9265 11.9265 14.3853 11.3623 14.6729C10.7206 14.9998 9.88022 15 8.2002 15H7.7998C6.11978 15 5.27941 14.9998 4.6377 14.6729C4.07347 14.3853 3.61472 13.9265 3.32715 13.3623C3.00018 12.7206 3 11.8802 3 10.2002V7.5C3 6.67157 3.67157 6 4.5 6V5C4.5 4.53559 4.49973 4.30334 4.52539 4.1084C4.70262 2.7622 5.7622 1.70262 7.1084 1.52539C7.30334 1.49973 7.53559 1.5 8 1.5ZM8 9C7.44772 9 7 9.44772 7 10V11C7 11.5523 7.44772 12 8 12C8.55228 12 9 11.5523 9 11V10C9 9.44772 8.55228 9 8 9ZM8 3C7.53501 3 7.30208 2.99967 7.11133 3.05078C6.59396 3.18954 6.18954 3.59396 6.05078 4.11133C5.99967 4.30208 6 4.53501 6 5V6H10V5C10 4.53501 10.0003 4.30208 9.94922 4.11133C9.81046 3.59396 9.40604 3.18954 8.88867 3.05078C8.69792 2.99967 8.46499 3 8 3Z" fill="#FFAD4C"/>
</svg>
