<svg width="16" height="16" viewBox="0 0 16 16" fill="none" xmlns="http://www.w3.org/2000/svg">
<path d="M11.2601 4.42937C12.6124 4.79172 13.2886 4.97288 13.7346 5.37447C14.1269 5.72774 14.3975 6.19643 14.5073 6.71284C14.6319 7.29983 14.4508 7.97622 14.0885 9.32835L13.5709 11.2602C13.2086 12.6124 13.0273 13.2887 12.6258 13.7347C12.2725 14.127 11.8038 14.3976 11.2874 14.5074C10.7004 14.6321 10.0241 14.451 8.67192 14.0886L6.74007 13.571C5.38794 13.2087 4.71164 13.0273 4.2656 12.6259C3.87326 12.2726 3.60266 11.8039 3.49289 11.2875C3.36811 10.7005 3.54929 10.0243 3.91164 8.67201L4.09261 7.99661C6.25883 7.9472 8.00046 6.17785 8.00046 3.99978C8.00045 3.85442 7.99132 3.71101 7.97619 3.56966C8.34154 3.6487 8.77942 3.76467 9.32826 3.91173L11.2601 4.42937ZM10.5491 6.3094C10.2787 6.23694 10.143 6.20079 10.0256 6.22574C9.92265 6.24773 9.82935 6.30159 9.75885 6.37973C9.67854 6.46893 9.64201 6.60449 9.56954 6.87495L9.2071 8.22763C9.1347 8.49781 9.09878 8.63287 9.12369 8.75021C9.14561 8.85337 9.19911 8.94725 9.27742 9.01787C9.36662 9.09819 9.5022 9.13472 9.77264 9.20718L11.1253 9.56963C11.3954 9.642 11.5306 9.67789 11.6479 9.65304C11.7512 9.63109 11.8452 9.57683 11.9158 9.49836C11.996 9.40919 12.0325 9.27417 12.1049 9.00408L12.4673 7.65141C12.5398 7.38095 12.5759 7.24529 12.551 7.12788C12.529 7.02474 12.4744 6.93148 12.3961 6.86091C12.3069 6.78067 12.172 6.74425 11.9018 6.67185L10.5491 6.3094Z" fill="#5CBAFD"/>
<path d="M4.79102 1.1084C5.29528 1.24602 5.74623 1.51027 6.10742 1.86719C5.99273 2.14448 6.00341 2.47004 6.16504 2.75C6.32641 3.02949 6.60249 3.20053 6.89941 3.24023C6.96289 3.48315 7 3.73719 7 4C7 4.26248 6.96274 4.51615 6.89941 4.75879C6.60244 4.79846 6.32643 4.97047 6.16504 5.25C6.00357 5.52968 5.9931 5.85472 6.10742 6.13184C5.74621 6.48894 5.29541 6.75292 4.79102 6.89062C4.60815 6.65361 4.32251 6.5 4 6.5C3.67727 6.5 3.39085 6.65334 3.20801 6.89062C2.70375 6.75278 2.25268 6.48897 1.8916 6.13184C2.00607 5.85465 1.9965 5.52979 1.83496 5.25C1.6734 4.97016 1.39695 4.79821 1.09961 4.75879C1.03633 4.51622 1 4.26239 1 4C1 3.73728 1.03617 3.48307 1.09961 3.24023C1.3969 3.20078 1.67342 3.0298 1.83496 2.75C1.99666 2.46993 2.00644 2.14456 1.8916 1.86719C2.25266 1.51024 2.70388 1.24616 3.20801 1.1084C3.39083 1.34604 3.677 1.5 4 1.5C4.32279 1.5 4.60818 1.34577 4.79102 1.1084ZM4 3C3.44772 3 3 3.44772 3 4C3 4.55228 3.44772 5 4 5C4.55228 5 5 4.55228 5 4C5 3.44772 4.55228 3 4 3Z" fill="#9595AC"/>
</svg>
