<svg width="16" height="16" viewBox="0 0 16 16" fill="none" xmlns="http://www.w3.org/2000/svg">
<g clip-path="url(#clip0_151_80)">
<path d="M11.3724 3.5756C12.7247 3.93794 13.4009 4.11919 13.8469 4.52071C14.2393 4.87397 14.5099 5.34267 14.6196 5.85908C14.7443 6.44611 14.5632 7.12232 14.2009 8.47458L13.4244 11.3724C13.0621 12.7246 12.8808 13.4008 12.4793 13.8468C12.126 14.2392 11.6574 14.5098 11.1409 14.6195C10.5539 14.7443 9.87772 14.5631 8.52543 14.2008L5.62766 13.4243C4.27539 13.062 3.59922 12.8807 3.15319 12.4792C2.76084 12.126 2.49024 11.6573 2.38048 11.1409C2.25578 10.5538 2.43689 9.87761 2.79923 8.52535L3.21324 6.98025L6.69884 6.04586C6.88911 5.99488 7.14345 5.93268 7.37562 5.80662L7.51128 5.72671C7.64278 5.64125 7.76369 5.54002 7.8719 5.42601L7.99783 5.27676C8.11446 5.12324 8.20426 4.96224 8.27816 4.83423L8.91521 3.73207C9.04681 3.50413 9.1756 3.28119 9.26864 3.08468C9.27859 3.06365 9.28737 3.04159 9.29721 3.01955L11.3724 3.5756ZM10.6614 5.45564C10.3913 5.38327 10.2562 5.34743 10.1388 5.37223C10.0356 5.39418 9.94159 5.44844 9.87093 5.52691C9.79073 5.61609 9.75426 5.75104 9.68187 6.02119L9.31943 7.37386C9.24697 7.64428 9.21081 7.77999 9.23576 7.89739C9.25778 8.00048 9.31235 8.09382 9.3907 8.16436C9.47989 8.24453 9.61481 8.28103 9.88497 8.35342L11.2376 8.71587C11.5078 8.78826 11.6429 8.82414 11.7602 8.79928C11.8634 8.77736 11.9573 8.72382 12.0279 8.64554C12.1082 8.55634 12.1447 8.42074 12.2172 8.15032L12.5797 6.79765C12.652 6.52752 12.6879 6.39238 12.6631 6.27506C12.6411 6.17178 12.5868 6.0778 12.5084 6.00715C12.4192 5.92699 12.2842 5.89046 12.0141 5.81809L10.6614 5.45564Z" fill="#5CBAFD"/>
<path d="M5.14577 0.250266C5.38203 0.186962 5.50051 0.154917 5.61883 0.151818C5.72372 0.149075 5.82853 0.163228 5.92913 0.193028C6.04256 0.226652 6.14863 0.287862 6.36036 0.410103L7.46191 1.04609C7.94693 1.32611 8.19038 1.46679 8.32114 1.66814C8.43589 1.84503 8.49181 2.05373 8.48088 2.2643C8.46831 2.50405 8.32782 2.74761 8.0478 3.23262L7.41181 4.33418C7.28957 4.54591 7.22832 4.65195 7.1469 4.73778C7.07467 4.81389 6.99098 4.87855 6.89877 4.92862C6.79476 4.9851 6.67612 5.01659 6.43987 5.0799L2.82991 6.04718C2.28919 6.19207 2.01857 6.26416 1.78379 6.21425C1.57742 6.17033 1.39039 6.06235 1.24916 5.90558C1.08856 5.72721 1.01568 5.4568 0.870793 4.91609L0.404717 3.17667C0.259832 2.63595 0.187741 2.36533 0.237644 2.13055C0.281569 1.92418 0.389553 1.73715 0.546313 1.59592C0.724685 1.43531 0.995094 1.36244 1.53581 1.21755L5.14577 0.250266ZM5.69153 1.65695C5.15806 1.79989 4.84148 2.34822 4.98442 2.88169C5.12736 3.41516 5.6757 3.73174 6.20917 3.5888C6.74263 3.44586 7.05921 2.89752 6.91627 2.36405C6.77333 1.83059 6.22499 1.514 5.69153 1.65695Z" fill="#5D80FF"/>
</g>
<defs>
<clipPath id="clip0_151_80">
<rect width="16" height="16" fill="white"/>
</clipPath>
</defs>
</svg>
