<svg width="16" height="16" viewBox="0 0 16 16" fill="none" xmlns="http://www.w3.org/2000/svg">
<path d="M11.3724 3.57564C12.7247 3.93798 13.4008 4.11923 13.8469 4.52074C14.2392 4.87401 14.5098 5.3427 14.6196 5.85911C14.7443 6.44615 14.5632 7.12234 14.2008 8.47462L13.4244 11.3724C13.062 12.7247 12.8808 13.4008 12.4793 13.8469C12.126 14.2392 11.6573 14.5098 11.1409 14.6196C10.5539 14.7443 9.87766 14.5632 8.52539 14.2008L5.62761 13.4244C4.27534 13.062 3.59917 12.8808 3.15314 12.4793C2.7608 12.126 2.4902 11.6573 2.38043 11.1409C2.25573 10.5539 2.43684 9.87766 2.79918 8.52539L3.57564 5.62761C3.93798 4.27533 4.11923 3.59917 4.52074 3.15314C4.87401 2.7608 5.3427 2.4902 5.85911 2.38043C6.44615 2.25572 7.12235 2.43684 8.47462 2.79918L11.3724 3.57564ZM10.6614 5.45568C10.3913 5.38329 10.2561 5.34743 10.1388 5.37227C10.0355 5.39422 9.94154 5.44848 9.87089 5.52694C9.79072 5.61613 9.75421 5.75109 9.68183 6.02122L9.31938 7.3739C9.247 7.64403 9.21114 7.77916 9.23597 7.89648C9.25792 7.99976 9.31218 8.09374 9.39065 8.16439C9.47984 8.24456 9.61479 8.28107 9.88493 8.35345L11.2376 8.7159C11.5077 8.78828 11.6429 8.82414 11.7602 8.79931C11.8635 8.77736 11.9574 8.7231 12.0281 8.64463C12.1083 8.55544 12.1448 8.42049 12.2172 8.15035L12.5796 6.79768C12.652 6.52755 12.6878 6.39241 12.663 6.27509C12.6411 6.17181 12.5868 6.07783 12.5083 6.00718C12.4191 5.92702 12.2842 5.89051 12.0141 5.81812L10.6614 5.45568Z" fill="#5CBAFD"/>
</svg>
