<svg width="16" height="16" viewBox="0 0 16 16" fill="none" xmlns="http://www.w3.org/2000/svg">
<path d="M10.3724 2.57537C11.7246 2.93769 12.4009 3.11899 12.8469 3.52048C13.2393 3.87374 13.5099 4.34244 13.6196 4.85884C13.7444 5.44589 13.5632 6.1221 13.2009 7.47435L12.7722 9.07416C12.5222 9.02522 12.2639 8.99958 11.9996 8.99958C9.7905 8.99968 7.99973 10.791 7.99973 13.0001C7.99974 13.1106 8.00507 13.2201 8.01387 13.3284C7.86154 13.2882 7.69874 13.247 7.52543 13.2006L4.62766 12.4241C3.27534 12.0617 2.59922 11.8805 2.15319 11.479C1.76084 11.1257 1.49024 10.657 1.38048 10.1406C1.25586 9.55363 1.43693 8.87724 1.79923 7.52512L2.57569 4.62734C2.93802 3.27509 3.11921 2.59888 3.52079 2.15287C3.87405 1.76056 4.34277 1.48992 4.85916 1.38016C5.44615 1.25553 6.12253 1.43661 7.47467 1.79891L10.3724 2.57537ZM9.66143 4.45541C9.39095 4.38293 9.25532 4.34679 9.1379 4.37175C9.03473 4.39373 8.94153 4.44829 8.87093 4.52668C8.79066 4.61583 8.75427 4.75078 8.68187 5.02096L8.31943 6.37363C8.24695 6.64411 8.21081 6.77974 8.23576 6.89716C8.25774 7.00012 8.31159 7.09335 8.38975 7.16387C8.47896 7.2442 8.61449 7.28071 8.88497 7.35319L10.2376 7.71563C10.5079 7.78804 10.6429 7.82399 10.7602 7.79904C10.8634 7.7771 10.9573 7.72368 11.0279 7.64531C11.1082 7.5561 11.1447 7.42057 11.2172 7.15009L11.5797 5.79741C11.652 5.52735 11.6879 5.39214 11.6631 5.27483C11.6411 5.17154 11.5868 5.07757 11.5084 5.00691C11.4192 4.92674 11.2841 4.89021 11.0141 4.81786L9.66143 4.45541Z" fill="#5CBAFD"/>
<path d="M12.791 10.1084C13.2953 10.246 13.7462 10.5103 14.1074 10.8672C13.9927 11.1445 14.0034 11.47 14.165 11.75C14.3264 12.0295 14.6025 12.2005 14.8994 12.2402C14.9629 12.4831 15 12.7372 15 13C15 13.2625 14.9627 13.5162 14.8994 13.7588C14.6024 13.7985 14.3264 13.9705 14.165 14.25C14.0036 14.5297 13.9931 14.8547 14.1074 15.1318C13.7462 15.4889 13.2954 15.7529 12.791 15.8906C12.6082 15.6536 12.3225 15.5 12 15.5C11.6773 15.5 11.3909 15.6533 11.208 15.8906C10.7037 15.7528 10.2527 15.489 9.8916 15.1318C10.0061 14.8546 9.9965 14.5298 9.83496 14.25C9.6734 13.9702 9.39695 13.7982 9.09961 13.7588C9.03633 13.5162 9 13.2624 9 13C9 12.7373 9.03617 12.4831 9.09961 12.2402C9.3969 12.2008 9.67342 12.0298 9.83496 11.75C9.99666 11.4699 10.0064 11.1446 9.8916 10.8672C10.2527 10.5102 10.7039 10.2462 11.208 10.1084C11.3908 10.346 11.677 10.5 12 10.5C12.3228 10.5 12.6082 10.3458 12.791 10.1084ZM12 12C11.4477 12 11 12.4477 11 13C11 13.5523 11.4477 14 12 14C12.5523 14 13 13.5523 13 13C13 12.4477 12.5523 12 12 12Z" fill="#9595AC"/>
</svg>
