<svg width="16" height="16" viewBox="0 0 16 16" fill="none" xmlns="http://www.w3.org/2000/svg">
<path d="M7.70711 6.29289L6.79289 7.20711C6.60536 7.39464 6.351 7.5 6.08579 7.5H5.5C5.77614 7.77614 5.77614 8.22386 5.5 8.5L5.06066 8.93934C4.47487 9.52513 3.52513 9.52513 2.93934 8.93934L2.06066 8.06066C1.47487 7.47487 1.47487 6.52513 2.06066 5.93934L2.5 5.5C2.77614 5.22386 3.22386 5.22386 3.5 5.5V4.89284C3.5 4.64131 3.59992 4.40008 3.77778 4.22222L4.53804 3.46196C5.47412 2.52588 6.74371 2 8.06753 2C8.35514 2 8.64205 2.02841 8.92407 2.08481L10.5583 2.41165C10.8151 2.46302 11 2.68855 11 2.95049C11 3.25398 10.754 3.5 10.4505 3.5H10.3311C9.79897 3.5 9.28859 3.71141 8.91229 4.08771L8 5V5.58579C8 5.851 7.89464 6.10536 7.70711 6.29289Z" fill="#BEBED1"/>
<path d="M14.2354 11.7939C14.6527 12.1792 14.6653 12.8347 14.2637 13.2363L13.7363 13.7637C13.3347 14.1653 12.6792 14.1527 12.2939 13.7354L7.16797 8.18066C7.28677 8.10416 7.39854 8.01552 7.5 7.91406L8.41406 7L8.54688 6.85352C8.59577 6.79385 8.63923 6.73047 8.68066 6.66602L14.2354 11.7939Z" fill="#FF845B"/>
</svg>
