<svg width="16" height="16" viewBox="0 0 16 16" fill="none" xmlns="http://www.w3.org/2000/svg">
<path d="M11.7998 3C12.9199 3 13.4804 2.99979 13.9082 3.21777C14.2845 3.40951 14.5905 3.71554 14.7822 4.0918C15.0002 4.51962 15 5.08009 15 6.2002V9.7998C15 10.9199 15.0002 11.4804 14.7822 11.9082C14.5905 12.2845 14.2845 12.5905 13.9082 12.7822C13.4804 13.0002 12.9199 13 11.7998 13H4.2002C3.08009 13 2.51962 13.0002 2.0918 12.7822C1.71554 12.5905 1.40951 12.2845 1.21777 11.9082C0.999786 11.4804 1 10.9199 1 9.7998V6.2002C1 5.08009 0.999786 4.51962 1.21777 4.0918C1.40951 3.71554 1.71554 3.40951 2.0918 3.21777C2.51962 2.99979 3.08009 3 4.2002 3H11.7998ZM7.03516 5.00781C6.8953 5.02791 6.76481 5.08687 6.6582 5.17676L6.55957 5.27637L6.47852 5.39746L5.5 7.02832L4.52148 5.39746L4.44043 5.27637L4.3418 5.17676C4.27077 5.11687 4.18946 5.07014 4.10156 5.04004L3.96484 5.00781L3.81934 5C3.80047 5 3.76597 4.99914 3.72461 5.00098L3.58789 5.01758C3.3387 5.07273 3.13751 5.25015 3.04883 5.48438L3.01758 5.58789C3.00725 5.63462 3.00281 5.68321 3.00098 5.72461L3 5.81934V10.5C3 10.7761 3.22386 11 3.5 11C3.77614 11 4 10.7761 4 10.5V6.47168L5.07129 8.25684L5.1084 8.31055C5.20248 8.42922 5.34622 8.5 5.5 8.5C5.67563 8.5 5.83835 8.40744 5.92871 8.25684L7 6.47168V10.5C7 10.7761 7.22386 11 7.5 11C7.77614 11 8 10.7761 8 10.5V5.81934C8 5.80047 8.00086 5.76597 7.99902 5.72461L7.98242 5.58789L7.95117 5.48438C7.87516 5.28359 7.71641 5.12484 7.51562 5.04883L7.41211 5.01758L7.27539 5.00098C7.23403 4.99914 7.19953 5 7.18066 5L7.03516 5.00781ZM11.5 5C11.2239 5 11 5.22386 11 5.5V9.29297L10.3535 8.64648L10.2754 8.58203C10.0813 8.45387 9.81735 8.47562 9.64648 8.64648C9.47562 8.81735 9.45387 9.08131 9.58203 9.27539L9.64648 9.35352L11.1465 10.8535L11.2246 10.918C11.4187 11.0461 11.6827 11.0244 11.8535 10.8535L13.3535 9.35352C13.5488 9.15825 13.5488 8.84175 13.3535 8.64648C13.1583 8.45122 12.8417 8.45122 12.6465 8.64648L12 9.29297V5.5C12 5.22386 11.7761 5 11.5 5Z" fill="#5CBAFD"/>
</svg>
