<svg width="16" height="16" viewBox="0 0 16 16" fill="none" xmlns="http://www.w3.org/2000/svg">
<path d="M10.25 4.25C10.6642 4.25 11 4.58579 11 5V8.77539L9.5 7.27539V5C9.5 4.58579 9.83579 4.25 10.25 4.25Z" fill="#BEBED1"/>
<path d="M14.268 8C14.6723 8 15.004 7.67137 14.9618 7.26931C14.8175 5.89499 14.2688 4.58803 13.3771 3.51816C12.3285 2.26008 10.8719 1.40951 9.2609 1.1145C7.64989 0.819484 5.98643 1.0987 4.56004 1.90355C3.13364 2.70841 2.03462 3.98793 1.45425 5.51945C0.87387 7.05097 0.848884 8.73751 1.38364 10.2856C1.91839 11.8336 2.97903 13.1451 4.38095 13.9919C5.78288 14.8386 7.43733 15.167 9.05637 14.9198C10.4332 14.7096 11.7103 14.0946 12.7291 13.161C13.0271 12.8879 12.9966 12.422 12.6938 12.154C12.3911 11.8861 11.9313 11.9187 11.6258 12.1835C10.8397 12.8647 9.87343 13.3142 8.83544 13.4726C7.55501 13.6681 6.24657 13.4084 5.13784 12.7387C4.02912 12.0691 3.1903 11.0318 2.76739 9.80755C2.34447 8.58327 2.36423 7.24945 2.82323 6.03824C3.28223 4.82702 4.1514 3.81509 5.27947 3.17857C6.40755 2.54204 7.72311 2.32122 8.99719 2.55454C10.2713 2.78785 11.4232 3.46053 12.2525 4.4555C12.9248 5.26207 13.3506 6.23904 13.4877 7.27012C13.541 7.67086 13.8637 8 14.268 8Z" fill="#BEBED1"/>
<path d="M5.75 11V6L12.25 12.5" stroke="#BEBED1" stroke-width="1.5" stroke-linecap="round" stroke-linejoin="round"/>
</svg>
