<svg width="16" height="16" viewBox="0 0 16 16" fill="none" xmlns="http://www.w3.org/2000/svg">
<path d="M13.792 8.02637C13.8774 7.94566 14.0643 8.06116 14.0205 8.16992L13.3535 9.7998C13.3327 9.85633 13.3102 9.91234 13.2852 9.96777L13.2726 9.99952C13.2725 9.99981 13.2723 10 13.2719 10C13.2717 10 13.2714 10.0002 13.2713 10.0004L13.2041 10.1348C12.4634 11.5107 10.4134 12.5 8 12.5C5.50915 12.5 3.40544 11.4456 2.72872 10.0004C2.72859 10.0002 2.72833 10 2.72804 10C2.72774 10 2.72746 9.99982 2.72734 9.99954L2.71387 9.96777C2.68885 9.91236 2.66628 9.85631 2.64551 9.7998L1.97949 8.1709C1.93494 8.06198 2.12251 7.94551 2.20801 8.02637C2.80845 8.59416 3.60589 9.06737 4.53676 9.40852C4.78052 9.49785 5.04977 9.47418 5.28201 9.35813L7.55294 8.22339C7.83439 8.08275 8.1656 8.08278 8.44703 8.22344L10.7169 9.35804C10.9492 9.47415 11.2185 9.49783 11.4624 9.40849C12.3935 9.06733 13.1915 8.59437 13.792 8.02637Z" fill="#FFAD4C"/>
<path d="M8.92671 3.69481C9.00448 3.75312 9.09758 3.78729 9.19452 3.79443C9.86741 3.84404 10.5146 3.93497 11.1255 4.06229C11.2378 4.0857 11.3548 4.07164 11.4575 4.02041L12.0526 3.72332C12.2997 3.59999 12.6 3.7003 12.7233 3.94738L12.9821 4.46594C13.037 4.57592 13.1307 4.66135 13.2441 4.70881C13.4256 4.78478 13.6007 4.86432 13.7686 4.94824C13.8159 4.97192 13.8627 4.99611 13.909 5.02067C14.0132 5.07601 14.1368 5.08316 14.2453 5.03674L14.4141 4.96455C14.6262 4.87381 14.8456 5.05854 14.7656 5.27491C14.7391 5.34657 14.7104 5.4176 14.6797 5.488C14.6791 5.4893 14.6795 5.49083 14.6807 5.4917C14.6818 5.49257 14.6822 5.4941 14.6816 5.4954C14.6187 5.63896 14.5431 5.77746 14.4629 5.91504C14.458 5.92348 14.4532 5.93201 14.4482 5.94043C14.1682 6.41359 13.7907 6.85034 13.3318 7.23639C13.1032 7.42872 12.7547 7.34513 12.5273 7.15136C11.7292 6.47123 10.0024 6 8 6C5.997 6 4.26903 6.47108 3.47096 7.15139C3.24336 7.34541 2.89435 7.42938 2.66524 7.23714C2.06423 6.73284 1.60082 6.14254 1.31724 5.49506C1.31675 5.49396 1.31709 5.49262 1.31787 5.4917C1.31865 5.49078 1.31899 5.48944 1.3185 5.48833C1.28775 5.41786 1.25912 5.34671 1.23268 5.27493C1.15296 5.0585 1.37267 4.87376 1.58473 4.96447L1.75376 5.03677C1.86224 5.08317 1.98582 5.07609 2.09013 5.02095C2.13671 4.99633 2.1838 4.97206 2.23145 4.94824C2.39891 4.86451 2.57345 4.78476 2.7544 4.70877C2.86748 4.66128 2.96101 4.57612 3.01594 4.46646L3.27631 3.94661C3.39989 3.69988 3.69998 3.59991 3.94683 3.72324L4.54146 4.02031C4.64415 4.07161 4.76126 4.08569 4.87364 4.06226C5.48455 3.93492 6.13174 3.84406 6.80465 3.79443C6.9015 3.78729 6.99452 3.75317 7.07224 3.69495L7.7001 3.22465C7.87785 3.0915 8.12211 3.09156 8.2998 3.22478L8.92671 3.69481Z" fill="#FFAD4C"/>
</svg>
