<svg width="16" height="16" viewBox="0 0 16 16" fill="none" xmlns="http://www.w3.org/2000/svg">
<path d="M13.792 8.02637C13.8774 7.94566 14.0643 8.06116 14.0205 8.16993L13.3535 9.79981C13.3327 9.85633 13.3102 9.91234 13.2852 9.96778L13.2726 9.99953C13.2725 9.99982 13.2723 10 13.2719 10C13.2717 10 13.2714 10.0002 13.2713 10.0004L13.2041 10.1348C12.4634 11.5108 10.4134 12.5 8 12.5C5.50915 12.5 3.40544 11.4456 2.72872 10.0004C2.72859 10.0002 2.72833 10 2.72804 10C2.72774 10 2.72746 9.99982 2.72735 9.99955L2.71387 9.96778C2.68885 9.91236 2.66628 9.85632 2.64551 9.79981L1.97949 8.1709C1.93494 8.06199 2.12251 7.94551 2.20801 8.02637C2.80845 8.59417 3.60589 9.06737 4.53676 9.40852C4.78052 9.49786 5.04977 9.47418 5.28201 9.35814L7.55294 8.22339C7.83439 8.08276 8.1656 8.08278 8.44703 8.22345L10.7169 9.35805C10.9492 9.47415 11.2185 9.49784 11.4624 9.4085C12.3935 9.06733 13.1915 8.59437 13.792 8.02637Z" fill="#FFAD4C"/>
<path d="M8.92671 3.69482C9.00448 3.75313 9.09758 3.7873 9.19452 3.79444C9.86741 3.84405 10.5146 3.93498 11.1255 4.0623C11.2378 4.08571 11.3548 4.07165 11.4575 4.02041L12.0526 3.72333C12.2997 3.59999 12.6 3.70031 12.7233 3.94739L12.9821 4.46595C13.037 4.57593 13.1307 4.66135 13.2441 4.70882C13.4256 4.78478 13.6007 4.86432 13.7686 4.94825C13.8159 4.97193 13.8627 4.99612 13.909 5.02067C14.0132 5.07602 14.1368 5.08316 14.2453 5.03675L14.4141 4.96455C14.6262 4.87382 14.8456 5.05854 14.7656 5.27492C14.7391 5.34658 14.7104 5.41761 14.6797 5.488C14.6791 5.48931 14.6795 5.49084 14.6807 5.49171C14.6818 5.49257 14.6822 5.49411 14.6816 5.49541C14.6187 5.63896 14.5431 5.77746 14.4629 5.91505C14.458 5.92349 14.4532 5.93202 14.4482 5.94044C14.1682 6.4136 13.7907 6.85035 13.3318 7.23639C13.1032 7.42872 12.7547 7.34514 12.5273 7.15137C11.7292 6.47123 10.0024 6.00001 8 6.00001C5.997 6.00001 4.26903 6.47109 3.47096 7.1514C3.24335 7.34542 2.89435 7.42938 2.66524 7.23714C2.06422 6.73285 1.60082 6.14255 1.31724 5.49507C1.31675 5.49396 1.31709 5.49263 1.31787 5.49171C1.31865 5.49078 1.31899 5.48945 1.3185 5.48834C1.28775 5.41787 1.25912 5.34672 1.23268 5.27494C1.15296 5.05851 1.37266 4.87377 1.58473 4.96448L1.75376 5.03678C1.86224 5.08318 1.98582 5.07609 2.09013 5.02095C2.13671 4.99633 2.1838 4.97207 2.23144 4.94825C2.39891 4.86452 2.57345 4.78477 2.7544 4.70878C2.86748 4.66129 2.96101 4.57613 3.01594 4.46647L3.27631 3.94661C3.39989 3.69989 3.69998 3.59992 3.94683 3.72324L4.54146 4.02031C4.64414 4.07161 4.76126 4.08569 4.87364 4.06227C5.48455 3.93493 6.13174 3.84406 6.80464 3.79444C6.9015 3.7873 6.99452 3.75318 7.07224 3.69496L7.7001 3.22465C7.87784 3.09151 8.12211 3.09156 8.2998 3.22479L8.92671 3.69482Z" fill="#FFAD4C"/>
</svg>
