<svg width="16" height="16" viewBox="0 0 16 16" fill="none" xmlns="http://www.w3.org/2000/svg">
<g clip-path="url(#clip0_155_190)">
<path d="M6.48828 3.94336L6.51758 4H7.42188L8.28809 5.5H3.74254C3.16516 5.5 2.80432 4.87494 3.09305 4.37494C3.22704 4.14292 3.47461 4 3.74254 4H4.78809L4.27426 3.10945C4.13476 2.86768 4.13481 2.56986 4.27441 2.32814L4.29245 2.2969C4.42088 2.0745 4.6582 1.9375 4.91502 1.9375C5.17186 1.9375 5.40919 2.07452 5.53762 2.29694L6.48828 3.94336Z" fill="#5D80FF"/>
<path d="M10.7573 4.66249L10.7229 4.71618L11.175 5.49933L10.3091 6.99949L8.03633 3.06293C7.74764 2.5629 8.10853 1.93787 8.68592 1.93793C8.95384 1.93795 9.2014 2.0809 9.33537 2.31293L9.85814 3.2184L10.3725 2.32813C10.5121 2.08644 10.77 1.93758 11.0492 1.93761L11.0853 1.93761C11.3421 1.93764 11.5794 2.07466 11.7078 2.29708C11.8362 2.51951 11.8362 2.79355 11.7078 3.01598L10.7573 4.66249Z" fill="#5CBAFD"/>
<path d="M12.269 8.71913L12.2053 8.71618L11.7532 9.49933L10.021 9.49949L12.2938 5.56293C12.5825 5.0629 13.3042 5.06293 13.5929 5.56299C13.7268 5.79503 13.7268 6.0809 13.5928 6.31293L13.0701 7.2184L14.0982 7.21868C14.3774 7.21876 14.6352 7.36772 14.7748 7.60947L14.7928 7.64071C14.9212 7.86314 14.9212 8.13716 14.7928 8.35958C14.6644 8.58201 14.427 8.71903 14.1702 8.71905L12.269 8.71913Z" fill="#5D80FF"/>
<path d="M12.9069 11.6251C12.773 11.8571 12.5254 12 12.2575 12H11.2119L11.7252 12.8901C11.8645 13.1316 11.8646 13.429 11.7255 13.6707L11.7072 13.7025C11.579 13.9252 11.3416 14.0625 11.0846 14.0625C10.828 14.0625 10.5909 13.9256 10.4626 13.7034L9.51172 12.0566L9.48242 12H8.57812L7.71191 10.5H12.2575C12.8348 10.5 13.1957 11.1251 12.9069 11.6251Z" fill="#5CBAFD"/>
<path d="M7.31407 14.0621C7.04615 14.062 6.79859 13.9191 6.66462 13.6871L6.14185 12.7816L5.62765 13.6711C5.48813 13.9125 5.23062 14.0613 4.95182 14.0617L4.91509 14.0618C4.65811 14.0621 4.42052 13.9252 4.29203 13.7026C4.16372 13.4804 4.16371 13.2066 4.29201 12.9843L5.2427 11.3375L5.2771 11.2838L4.82495 10.5007L5.69089 9.0005L7.96366 12.9371C8.25235 13.4371 7.89145 14.0621 7.31407 14.0621Z" fill="#5D80FF"/>
<path d="M2.40714 10.437C2.2732 10.205 2.27321 9.91909 2.40718 9.68706L2.92995 8.78159L1.90248 8.78106C1.62368 8.78091 1.36605 8.63232 1.22632 8.39106L1.20791 8.35927C1.07911 8.1369 1.07893 7.86266 1.20742 7.6401C1.33573 7.41787 1.57285 7.28096 1.82947 7.28094L3.731 7.28086L3.7947 7.28381L4.24684 6.50066L5.97899 6.5005L3.70621 10.4371C3.41752 10.9371 2.69578 10.9371 2.40714 10.437Z" fill="#5CBAFD"/>
</g>
<defs>
<clipPath id="clip0_155_190">
<rect width="16" height="16" fill="white"/>
</clipPath>
</defs>
</svg>
