<svg width="16" height="16" viewBox="0 0 16 16" fill="none" xmlns="http://www.w3.org/2000/svg">
<path d="M7.58105 1.36002C7.85725 1.30084 8.14275 1.30084 8.41895 1.36002C8.73132 1.427 9.02539 1.59773 9.6123 1.94009L12.4121 3.57388C12.9905 3.91128 13.2799 4.08013 13.4902 4.31509C13.6763 4.523 13.8174 4.76743 13.9033 5.03287C14.0004 5.33289 14 5.66808 14 6.33755V9.66177C14 10.3313 14.0003 10.6665 13.9033 10.9665C13.8174 11.232 13.6763 11.4772 13.4902 11.6852C13.28 11.9201 12.9904 12.0891 12.4121 12.4264L9.6123 14.0592C9.02521 14.4017 8.73137 14.5733 8.41895 14.6403C8.14279 14.6994 7.85721 14.6994 7.58105 14.6403C7.26863 14.5733 6.97479 14.4017 6.3877 14.0592L4.85254 13.1637L4.88086 13.1608L5.09668 13.1178C6.1576 12.8578 6.93697 11.9307 6.99609 10.8229L7 10.5583V5.49966C6.99984 5.2581 6.82845 5.05593 6.60059 5.00943L6.5 4.99966H5C4.72397 4.99966 4.50018 5.22368 4.5 5.49966C4.5 5.77581 4.72386 5.99966 5 5.99966H6V10.5583L5.99805 10.7692C5.96264 11.4338 5.49474 11.9899 4.8584 12.1461L4.72852 12.1725L4.51855 12.195L4.17383 12.2262C3.55188 12.2538 2.96791 12.0491 2.50977 11.6852C2.32368 11.4772 2.18256 11.232 2.09668 10.9665C1.99974 10.6665 2 10.3313 2 9.66177V6.33755C2 5.66808 1.99964 5.33289 2.09668 5.03287C2.18257 4.76743 2.32374 4.523 2.50977 4.31509C2.72006 4.08013 3.00949 3.91128 3.58789 3.57388L6.3877 1.94009C6.97461 1.59773 7.26868 1.427 7.58105 1.36002ZM9.75 4.99966C8.78361 4.99966 8.00017 5.78331 8 6.74966C8 7.71616 8.7835 8.49966 9.75 8.49966H10.25C10.6641 8.49966 10.9998 8.8356 11 9.24966C11 9.66388 10.6642 9.99966 10.25 9.99966H9.92676C9.59554 9.99957 9.28939 9.83572 9.10449 9.56802L9.03223 9.44693L8.94727 9.27603L8.89258 9.19009C8.74891 9.00771 8.49219 8.94456 8.27637 9.0524C8.06037 9.1604 7.95663 9.40404 8.0166 9.62857L8.05273 9.7233L8.13867 9.8942L8.20605 10.0182C8.56403 10.6234 9.21673 10.9996 9.92676 10.9997H10.25C11.2165 10.9997 12 10.2162 12 9.24966C11.9998 8.28331 11.2164 7.49966 10.25 7.49966H9.75C9.33579 7.49966 9 7.16388 9 6.74966C9.00017 6.3356 9.33589 5.99966 9.75 5.99966H10.0732C10.4518 5.99977 10.7984 6.21385 10.9678 6.5524L11.0527 6.7233L11.1074 6.80923C11.2511 6.99181 11.5077 7.0549 11.7236 6.94693C11.9396 6.83885 12.0435 6.59533 11.9834 6.37076L11.9473 6.27603L11.8613 6.10513C11.5225 5.42796 10.8305 4.99977 10.0732 4.99966H9.75Z" fill="#84D877"/>
</svg>
