<svg width="16" height="16" viewBox="0 0 16 16" fill="none" xmlns="http://www.w3.org/2000/svg">
<path d="M10 2C11.4 2 12.1 2.00007 12.6348 2.27246C13.1052 2.51214 13.4879 2.89483 13.7275 3.36523C13.9999 3.89999 14 4.60002 14 6V8H12.8545C12.5607 8 12.2733 8.04379 12 8.125V5.59961C12 5.03982 11.9996 4.75976 11.8906 4.5459C11.7948 4.35793 11.6421 4.20521 11.4541 4.10938C11.2402 4.00041 10.9602 4 10.4004 4H5.59961C5.03982 4 4.75976 4.00041 4.5459 4.10938C4.35793 4.20521 4.20521 4.35793 4.10938 4.5459C4.00041 4.75976 4 5.03982 4 5.59961V10.4004C4 10.9602 4.00041 11.2402 4.10938 11.4541C4.20521 11.6421 4.35793 11.7948 4.5459 11.8906C4.75976 11.9996 5.03982 12 5.59961 12H7.2002C7.47986 12 7.61967 11.9997 7.72656 11.9453C7.82064 11.8974 7.89738 11.8206 7.94531 11.7266C7.99966 11.6197 8 11.4799 8 11.2002V6.7998C8 6.52014 8.00034 6.38033 8.05469 6.27344C8.10262 6.17936 8.17936 6.10262 8.27344 6.05469C8.38033 6.00034 8.52014 6 8.7998 6H9.2002C9.47986 6 9.61967 6.00034 9.72656 6.05469C9.82064 6.10262 9.89738 6.17936 9.94531 6.27344C9.99966 6.38033 10 6.52014 10 6.7998V9.99902L9.31641 11.3662C9.10816 11.7827 9.00004 12.2424 9 12.708V14H6C4.60002 14 3.89999 13.9999 3.36523 13.7275C2.89483 13.4879 2.51214 13.1052 2.27246 12.6348C2.00007 12.1 2 11.4 2 10V6C2 4.60002 2.00007 3.89999 2.27246 3.36523C2.51214 2.89483 2.89483 2.51214 3.36523 2.27246C3.89999 2.00007 4.60002 2 6 2H10Z" fill="#FF5B78"/>
<path d="M13.25 9C14.2165 9 15 9.7835 15 10.75V11.5L15.1025 11.5049C15.6067 11.5562 16 11.9823 16 12.5V14.5C16 15.3284 15.3284 16 14.5 16H11.5C10.6716 16 10 15.3284 10 14.5V12.5C10 11.9823 10.3933 11.5562 10.8975 11.5049L11 11.5V10.75C11 9.7835 11.7835 9 12.75 9H13.25ZM13 12.75C12.5858 12.75 12.25 13.0858 12.25 13.5C12.25 13.9142 12.5858 14.25 13 14.25C13.4142 14.25 13.75 13.9142 13.75 13.5C13.75 13.0858 13.4142 12.75 13 12.75ZM12.75 10C12.3358 10 12 10.3358 12 10.75V11.5H14V10.75C14 10.3358 13.6642 10 13.25 10H12.75Z" fill="#9595AC"/>
</svg>
