<svg width="16" height="16" viewBox="0 0 16 16" fill="none" xmlns="http://www.w3.org/2000/svg">
<path d="M10 2C11.4 2 12.1 2.00007 12.6348 2.27246C13.1052 2.51214 13.4879 2.89483 13.7275 3.36523C13.9999 3.89999 14 4.60002 14 6V10C14 11.4 13.9999 12.1 13.7275 12.6348C13.4879 13.1052 13.1052 13.4879 12.6348 13.7275C12.1 13.9999 11.4 14 10 14H6C4.60002 14 3.89999 13.9999 3.36523 13.7275C2.89483 13.4879 2.51214 13.1052 2.27246 12.6348C2.00007 12.1 2 11.4 2 10V6C2 4.60002 2.00007 3.89999 2.27246 3.36523C2.51214 2.89483 2.89483 2.51214 3.36523 2.27246C3.89999 2.00007 4.60002 2 6 2H10ZM5.59961 4C5.03982 4 4.75976 4.00041 4.5459 4.10938C4.35793 4.20521 4.20521 4.35793 4.10938 4.5459C4.00041 4.75976 4 5.03982 4 5.59961V10.4004C4 10.9602 4.00041 11.2402 4.10938 11.4541C4.20521 11.6421 4.35793 11.7948 4.5459 11.8906C4.75976 11.9996 5.03982 12 5.59961 12H7.2002C7.47986 12 7.61967 11.9997 7.72656 11.9453C7.82064 11.8974 7.89738 11.8206 7.94531 11.7266C7.99966 11.6197 8 11.4799 8 11.2002V6.7998C8 6.52014 8.00034 6.38033 8.05469 6.27344C8.10262 6.17936 8.17936 6.10262 8.27344 6.05469C8.38033 6.00034 8.52014 6 8.7998 6H9.2002C9.47986 6 9.61967 6.00034 9.72656 6.05469C9.82064 6.10262 9.89738 6.17936 9.94531 6.27344C9.99966 6.38033 10 6.52014 10 6.7998V11.333C10 11.488 9.99956 11.5663 10.0166 11.6299C10.0629 11.8022 10.1978 11.9371 10.3701 11.9834C10.4337 12.0004 10.512 12 10.667 12C10.9768 12 11.1317 11.9999 11.2588 11.9658C11.6039 11.8734 11.8734 11.6039 11.9658 11.2588C11.9999 11.1317 12 10.9768 12 10.667V5.59961C12 5.03982 11.9996 4.75976 11.8906 4.5459C11.7948 4.35793 11.6421 4.20521 11.4541 4.10938C11.2402 4.00041 10.9602 4 10.4004 4H5.59961Z" fill="#FF5B78"/>
</svg>
