<svg width="16" height="16" viewBox="0 0 16 16" fill="none" xmlns="http://www.w3.org/2000/svg">
<path fill-rule="evenodd" clip-rule="evenodd" d="M4.80505 4.06505C5.25646 3.27868 5.48217 2.8855 5.7781 2.75255C6.03624 2.63657 6.33143 2.6354 6.59048 2.74932C6.88746 2.87992 7.11628 3.2713 7.57392 4.05406L8.91025 6.33974L9.29256 5.67757C9.74727 4.88998 9.97463 4.49618 10.2715 4.36402C10.5304 4.24875 10.826 4.24875 11.0849 4.36402C11.3818 4.49618 11.6091 4.88998 12.0638 5.67757L14.3285 9.6C14.7832 10.3876 15.0105 10.7814 14.9766 11.1045C14.9469 11.3864 14.7991 11.6424 14.5698 11.809C14.307 12 13.8522 12 12.9428 12H8.84807L9.7141 10.5H13.2763L10.6782 6L8.59974 9.6C8.09494 10.4743 7.84255 10.9115 7.48944 11.2294C7.17701 11.5107 6.80894 11.7233 6.4091 11.8532C5.9572 12 5.4524 12 4.44281 12H3.01336C2.10618 12 1.65259 12 1.38992 11.8095C1.16079 11.6432 1.01284 11.3877 0.982764 11.1063C0.948283 10.7836 1.1741 10.3902 1.62574 9.60344L4.80505 4.06505ZM7.20115 9.3C6.94875 9.73716 6.82255 9.95575 6.646 10.1147C6.48978 10.2554 6.30575 10.3616 6.10583 10.4266C5.87988 10.5 5.62748 10.5 5.12268 10.5H2.7141L6.1782 4.5L8.07531 7.7859L7.20115 9.3Z" fill="#41C09C"/>
</svg>
