<svg width="16" height="16" viewBox="0 0 16 16" fill="none" xmlns="http://www.w3.org/2000/svg">
<mask id="path-1-inside-1_270_1010" fill="white">
<path d="M10.5237 2.46871C10.7827 2.01557 11.3516 1.83162 11.7901 2.11458C13.7213 3.36063 15 5.53079 15 8C15 11.866 11.866 15 8 15C6.86758 15 5.79821 14.7307 4.85188 14.2531C4.38649 14.0183 4.25694 13.4354 4.51558 12.9828L10.5237 2.46871ZM8 1C8.06539 1 8.13057 1.00092 8.19552 1.00274C8.86812 1.02162 9.1991 1.76245 8.86528 2.34667L3.56852 11.6166C3.23493 12.2004 2.42968 12.2915 2.07148 11.7225C1.39279 10.6443 1 9.36813 1 8C1 4.13401 4.13401 1 8 1Z"/>
</mask>
<path d="M3.56852 11.6166L2.26614 10.8724L3.56852 11.6166ZM2.07148 11.7225L0.802038 12.5216L2.07148 11.7225ZM4.51558 12.9828L3.21322 12.2385L4.51558 12.9828ZM8.19552 1.00274L8.15344 2.50215L8.19552 1.00274ZM8.86528 2.34667L7.5629 1.6025L8.86528 2.34667ZM11.7901 2.11458L10.9769 3.37498L11.7901 2.11458ZM10.5237 2.46871L11.8261 3.21293L10.5237 2.46871ZM11.7901 2.11458L10.9769 3.37498C12.4982 4.35658 13.5 6.06165 13.5 8H15H16.5C16.5 4.99992 14.9444 2.36467 12.6034 0.854174L11.7901 2.11458ZM15 8H13.5C13.5 11.0376 11.0376 13.5 8 13.5V15V16.5C12.6944 16.5 16.5 12.6944 16.5 8H15ZM8 15V13.5C7.10793 13.5 6.2695 13.2884 5.52772 12.914L4.85188 14.2531L4.17604 15.5922C5.32691 16.1731 6.62722 16.5 8 16.5V15ZM4.51558 12.9828L5.81794 13.727L11.8261 3.21293L10.5237 2.46871L9.22137 1.72449L3.21322 12.2385L4.51558 12.9828ZM8 1V2.5C8.05132 2.5 8.10247 2.50072 8.15344 2.50215L8.19552 1.00274L8.23759 -0.496667C8.15866 -0.498882 8.07946 -0.5 8 -0.5V1ZM8.86528 2.34667L7.5629 1.6025L2.26614 10.8724L3.56852 11.6166L4.87091 12.3608L10.1677 3.09085L8.86528 2.34667ZM2.07148 11.7225L3.34092 10.9234C2.80834 10.0773 2.5 9.07698 2.5 8H1H-0.5C-0.5 9.65928 -0.0227529 11.2113 0.802038 12.5216L2.07148 11.7225ZM1 8H2.5C2.5 4.96243 4.96243 2.5 8 2.5V1V-0.5C3.30558 -0.5 -0.5 3.30558 -0.5 8H1ZM3.56852 11.6166L2.26614 10.8724C2.34397 10.7362 2.49845 10.6247 2.70133 10.6073C2.93071 10.5877 3.1992 10.6983 3.34092 10.9234L2.07148 11.7225L0.802038 12.5216C1.30196 13.3158 2.15218 13.6653 2.95713 13.5964C3.73558 13.5298 4.45948 13.0808 4.87091 12.3608L3.56852 11.6166ZM4.85188 14.2531L5.52772 12.914C5.71204 13.007 5.82711 13.1754 5.86696 13.3339C5.90407 13.4815 5.87905 13.62 5.81794 13.727L4.51558 12.9828L3.21322 12.2385C2.59593 13.3188 2.82758 14.9117 4.17604 15.5922L4.85188 14.2531ZM8.19552 1.00274L8.15344 2.50215C7.88695 2.49467 7.65511 2.31925 7.55554 2.11183C7.46752 1.92846 7.48499 1.73884 7.5629 1.6025L8.86528 2.34667L10.1677 3.09085C10.5794 2.37028 10.5983 1.51813 10.2601 0.813576C9.91033 0.0849609 9.17669 -0.470316 8.23759 -0.496667L8.19552 1.00274ZM11.7901 2.11458L12.6034 0.854174C11.3325 0.0341429 9.83948 0.642819 9.22137 1.72449L10.5237 2.46871L11.8261 3.21293C11.7649 3.32009 11.6579 3.41212 11.5116 3.45502C11.3544 3.50111 11.1506 3.48707 10.9769 3.37498L11.7901 2.11458Z" fill="#5D80FF" mask="url(#path-1-inside-1_270_1010)"/>
</svg>
