<svg width="16" height="16" viewBox="0 0 16 16" fill="none" xmlns="http://www.w3.org/2000/svg">
<path d="M6.74023 1.73527C7.51864 1.2812 8.48136 1.2812 9.25977 1.73527L11.3564 2.95792C10.7956 2.73344 10.1564 2.77219 9.62207 3.07706L5.50879 5.42472C4.88525 5.78058 4.50016 6.44312 4.5 7.16105V7.92277C4.50004 8.27999 4.69063 8.61036 5 8.78898L5.25 8.93351C5.5833 9.12574 6 8.88474 6 8.49992V7.73722C6.00002 7.19855 6.28894 6.70139 6.75684 6.43449L11.0459 3.98722C11.64 3.64838 12.3659 3.63752 12.9707 3.95695L13.126 4.03898C13.6743 4.50894 13.9999 5.19859 14 5.93546V8.12492C13.7267 8.04371 13.4393 7.99992 13.1455 7.99992H12.8545C11.7183 7.99992 10.6791 8.6419 10.1709 9.65812L9.31641 11.3661C9.10817 11.7826 9.00004 12.2423 9 12.7079V14.3954C8.27425 14.7125 7.43427 14.6704 6.74023 14.2655L3.24023 12.2235C2.47231 11.7756 2.0001 10.9534 2 10.0644V5.93546C2.00017 5.04647 2.47232 4.22423 3.24023 3.77628L6.74023 1.73527Z" fill="#FFAD4C"/>
<path d="M13.25 9C14.2165 9 15 9.7835 15 10.75V11.5L15.1025 11.5049C15.6067 11.5562 16 11.9823 16 12.5V14.5C16 15.3284 15.3284 16 14.5 16H11.5C10.6716 16 10 15.3284 10 14.5V12.5C10 11.9823 10.3933 11.5562 10.8975 11.5049L11 11.5V10.75C11 9.7835 11.7835 9 12.75 9H13.25ZM13 12.75C12.5858 12.75 12.25 13.0858 12.25 13.5C12.25 13.9142 12.5858 14.25 13 14.25C13.4142 14.25 13.75 13.9142 13.75 13.5C13.75 13.0858 13.4142 12.75 13 12.75ZM12.75 10C12.3358 10 12 10.3358 12 10.75V11.5H14V10.75C14 10.3358 13.6642 10 13.25 10H12.75Z" fill="#9595AC"/>
</svg>
