<svg width="16" height="16" viewBox="0 0 16 16" fill="none" xmlns="http://www.w3.org/2000/svg">
<path d="M13.791 10.1084C14.2953 10.246 14.7462 10.5103 15.1074 10.8672C14.9927 11.1445 15.0034 11.47 15.165 11.75C15.3264 12.0295 15.6025 12.2005 15.8994 12.2402C15.9629 12.4831 16 12.7372 16 13C16 13.2625 15.9627 13.5162 15.8994 13.7588C15.6024 13.7985 15.3264 13.9705 15.165 14.25C15.0036 14.5297 14.9931 14.8547 15.1074 15.1318C14.7462 15.4889 14.2954 15.7529 13.791 15.8906C13.6082 15.6536 13.3225 15.5 13 15.5C12.6773 15.5 12.3909 15.6533 12.208 15.8906C11.7037 15.7528 11.2527 15.489 10.8916 15.1318C11.0061 14.8546 10.9965 14.5298 10.835 14.25C10.6734 13.9702 10.3969 13.7982 10.0996 13.7588C10.0363 13.5162 10 13.2624 10 13C10 12.7373 10.0362 12.4831 10.0996 12.2402C10.3969 12.2008 10.6734 12.0298 10.835 11.75C10.9967 11.4699 11.0064 11.1446 10.8916 10.8672C11.2527 10.5102 11.7039 10.2462 12.208 10.1084C12.3908 10.346 12.677 10.5 13 10.5C13.3228 10.5 13.6082 10.3458 13.791 10.1084ZM13 12C12.4477 12 12 12.4477 12 13C12 13.5523 12.4477 14 13 14C13.5523 14 14 13.5523 14 13C14 12.4477 13.5523 12 13 12Z" fill="#9595AC"/>
<path d="M6.74023 1.73441C7.51858 1.28042 8.48142 1.28042 9.25977 1.73441L11.3584 2.95804C10.7972 2.73279 10.1569 2.77199 9.62207 3.07718L5.50879 5.42484C4.88525 5.78073 4.50012 6.44321 4.5 7.16117V7.92289C4.50008 8.28007 4.69066 8.6105 5 8.7891L5.25 8.93265C5.58333 9.1251 5.99999 8.88493 6 8.50003V7.73734C6 7.19867 6.28896 6.70153 6.75684 6.43461L11.0459 3.98734C11.6399 3.64854 12.366 3.63685 12.9707 3.95609L13.126 4.03812C13.6746 4.50812 13.9999 5.19848 14 5.93558V9.12601C13.6804 9.04375 13.3453 9.00003 13 9.00003C10.7909 9.00003 9 10.7909 9 13C9 13.4512 9.07615 13.8845 9.21387 14.2891C8.44362 14.7174 7.50372 14.711 6.74023 14.2657L3.24023 12.2237C2.47231 11.7757 2.00015 10.9535 2 10.0645V5.93558C2.00012 5.04656 2.47231 4.22437 3.24023 3.7764L6.74023 1.73441Z" fill="#FFAD4C"/>
</svg>
