<svg width="16" height="16" viewBox="0 0 16 16" fill="none" xmlns="http://www.w3.org/2000/svg">
<path d="M9.6748 1C10.1638 1 10.4085 1.00041 10.6387 1.05566C10.8426 1.10466 11.0379 1.18532 11.2168 1.29492C11.4185 1.41859 11.5917 1.59174 11.9375 1.9375L13.0625 3.0625C13.4083 3.40826 13.5814 3.58148 13.7051 3.7832C13.8147 3.96206 13.8953 4.15736 13.9443 4.36133C13.9996 4.59146 14 4.83621 14 5.3252V10C14 11.4 13.9999 12.1 13.7275 12.6348C13.4879 13.1052 13.1052 13.4879 12.6348 13.7275C12.1 13.9999 11.4 14 10 14H7C5.60002 14 4.89999 13.9999 4.36523 13.7275C3.89483 13.4879 3.51214 13.1052 3.27246 12.6348C3.00007 12.1 3 11.4 3 10V5C3 3.60002 3.00007 2.89999 3.27246 2.36523C3.51214 1.89483 3.89483 1.51214 4.36523 1.27246C4.89999 1.00007 5.60002 1 7 1H9.6748ZM8.07227 3.91699C7.76098 3.60852 7.32082 3.56406 6.83594 3.70117C6.3453 3.84007 5.99584 4.11645 5.89453 4.54785C5.80349 4.93712 5.94591 5.34305 6.13086 5.68457C6.41188 6.20343 6.88689 6.74504 7.33203 7.19141C7.32864 7.20283 7.32659 7.21523 7.32324 7.22656C7.23031 7.53713 7.13913 7.8491 7.0498 8.16113L6.78711 9.10059C6.7799 9.12706 6.77024 9.15368 6.7627 9.18066C6.44567 9.29846 6.10604 9.43595 5.7832 9.58984C5.24325 9.84731 4.68632 10.1781 4.37695 10.5762C4.21645 10.7829 4.09606 11.0419 4.12109 11.3379C4.14656 11.6361 4.31253 11.8941 4.55957 12.1104C4.9262 12.4312 5.33601 12.5368 5.73828 12.3848C6.09635 12.2491 6.37401 11.9341 6.58496 11.6074C6.92441 11.0815 7.1874 10.3708 7.37598 9.75684C7.46538 9.72604 7.55272 9.69672 7.63477 9.66992C7.85552 9.59784 8.04433 9.54128 8.17676 9.50293C8.2425 9.48389 8.29482 9.4687 8.33008 9.45898C8.3473 9.45425 8.36131 9.45061 8.37012 9.44824C8.37436 9.44717 8.37884 9.44683 8.38086 9.44629L8.38281 9.44531L8.40625 9.43848H8.40723L8.40918 9.4375L8.45605 9.42188C8.48967 9.41108 8.54042 9.39534 8.60352 9.37598C8.73035 9.33707 8.91176 9.2836 9.12695 9.22559C9.21603 9.20157 9.31141 9.17605 9.41016 9.15137C9.87087 9.57198 10.46 10.0506 11.0186 10.3057C11.3413 10.453 11.719 10.5577 12.0762 10.4639C12.4701 10.36 12.7304 10.0481 12.8604 9.60645C12.9511 9.29754 12.9564 8.99637 12.8262 8.73438C12.6955 8.4716 12.4629 8.31643 12.2227 8.22852C11.7632 8.06061 11.137 8.08524 10.5684 8.16016C10.2499 8.20213 9.92699 8.26366 9.62695 8.33008C9.18169 7.90465 8.7329 7.47962 8.27832 7.06055C8.24373 7.02866 8.21021 6.99424 8.1748 6.96094C8.33769 6.33893 8.48478 5.59957 8.45801 4.99219C8.44124 4.61294 8.35434 4.19675 8.07227 3.91699ZM6.46973 10.1025C6.32229 10.5054 6.1497 10.8972 5.9541 11.2002C5.77018 11.485 5.60295 11.6341 5.47266 11.6836C5.38618 11.7162 5.26179 11.728 5.05371 11.5459C4.89921 11.4107 4.87291 11.3185 4.86914 11.2744C4.86532 11.2285 4.87886 11.152 4.96875 11.0361C5.16164 10.7881 5.57605 10.5195 6.10645 10.2666C6.2253 10.2099 6.34734 10.1547 6.46973 10.1025ZM10.666 8.9043C11.2246 8.83071 11.6905 8.83333 11.9648 8.93359C12.0909 8.97974 12.1361 9.03175 12.1543 9.06836C12.173 9.10597 12.1983 9.19794 12.1406 9.39453C12.0615 9.66367 11.9542 9.72001 11.8857 9.73828C11.7803 9.76599 11.5991 9.74675 11.3301 9.62402C11.0115 9.47854 10.6604 9.23017 10.3271 8.95703C10.4401 8.9376 10.5538 8.9191 10.666 8.9043ZM8.7666 8.54785C8.61367 8.59072 8.48221 8.62869 8.38281 8.65918C8.31642 8.67955 8.26302 8.69629 8.22656 8.70801C8.21046 8.71319 8.197 8.71759 8.1875 8.7207L8.17578 8.72461C8.16562 8.72734 8.14977 8.73113 8.13086 8.73633C8.09266 8.74685 8.03694 8.7622 7.96777 8.78223C7.8761 8.80878 7.75966 8.84563 7.625 8.8877C7.7285 8.51618 7.83431 8.14448 7.94336 7.77441C8.21898 8.03027 8.49334 8.28815 8.7666 8.54785ZM7.04004 4.42285C7.37981 4.32679 7.49784 4.40255 7.54492 4.44922C7.62116 4.52487 7.6946 4.70001 7.70898 5.02539C7.72578 5.4068 7.65616 5.87659 7.55469 6.33887C7.24785 6.00493 6.96612 5.65226 6.79004 5.32715C6.63033 5.03214 6.59821 4.83342 6.625 4.71875C6.64214 4.64621 6.70437 4.51789 7.04004 4.42285Z" fill="#FF5B78"/>
</svg>
