<svg width="16" height="16" viewBox="0 0 16 16" fill="none" xmlns="http://www.w3.org/2000/svg">
<path d="M10.5 9.5C10.5 10.5249 11.1174 11.4041 12 11.79V12.874L11.6094 13.7529C11.5425 13.9031 11.3939 14 11.2295 14C10.6406 14 10.2383 13.4052 10.457 12.8584L11 11.5C10.1716 11.5 9.5 10.8284 9.5 10V9.5H10.5Z" fill="#5CBAFD"/>
<path d="M7.75 8.5V10.2226C7.75 10.7325 7.87993 11.2339 8.12753 11.6796L9 13.25" stroke="#5CBAFD" stroke-width="1.5" stroke-linecap="round"/>
<path d="M5.25 8.5V13.25" stroke="#5CBAFD" stroke-width="1.5" stroke-linecap="round"/>
<path d="M3.5 2V2.5C3.5 2.77614 3.72386 3 4 3C4.27614 3 4.5 2.77614 4.5 2.5V2C4.5 1.72386 4.27614 1.5 4 1.5C3.72386 1.5 3.5 1.72386 3.5 2Z" fill="#5CBAFD"/>
<path d="M10.5 1C11.1321 1.00004 11.7301 1.28766 12.125 1.78125L12.707 2.50879C13.2203 3.15048 13.5 3.94779 13.5 4.76953C13.5 5.24575 13.6412 5.71116 13.9053 6.10742L13.9443 6.16699C14.3065 6.71033 14.5 7.34897 14.5 8.00195V13.5C14.5 13.7761 14.2761 14 14 14C13.4477 14 13 13.5523 13 13V11C12.1716 11 11.5 10.3284 11.5 9.5V8C11.5 7.72386 11.2761 7.5 11 7.5C10.7239 7.5 10.5 7.72386 10.5 8V9.5H5C3.89543 9.5 3 8.60457 3 7.5V5.40039C3 5.17948 2.82052 5 2.59961 5H1.92676C1.41499 4.99984 1.00016 4.58501 1 4.07324C1 3.7221 1.19863 3.40118 1.5127 3.24414L2 3L2.08496 2.8291C2.33901 2.32101 2.85871 2.00011 3.42676 2H4C4.82843 2 5.5 2.67157 5.5 3.5V5.5C5.5 5.77614 5.72386 6 6 6H6.02539C6.28736 6 6.5 5.78736 6.5 5.52539C6.50011 4.91312 6.89186 4.36955 7.47266 4.17578L7.52539 4.1582C7.824 4.05867 8.05867 3.824 8.1582 3.52539L8.52539 2.42285C8.80863 1.57312 9.6043 1 10.5 1ZM3.5 2.90039C3.16863 2.90039 2.90039 3.16863 2.90039 3.5C2.90039 3.83137 3.16863 4.09961 3.5 4.09961C3.83137 4.09961 4.09961 3.83137 4.09961 3.5C4.09961 3.16863 3.83137 2.90039 3.5 2.90039Z" fill="#5CBAFD"/>
</svg>
