<svg width="16" height="16" viewBox="0 0 16 16" fill="none" xmlns="http://www.w3.org/2000/svg">
<path d="M11.9971 5.41768C13.1825 5.9343 14.1233 6.88972 14.6191 8.08662C14.9997 9.00544 15 10.1702 15 12.4997C15 12.9656 14.9999 13.1988 14.9238 13.3825C14.8224 13.6275 14.6277 13.822 14.3828 13.9235C14.199 13.9997 13.9659 13.9997 13.5 13.9997H12.2002C11.7802 13.9997 11.5696 14.0004 11.4092 13.9187C11.2682 13.8468 11.1539 13.7316 11.082 13.5905C11.0003 13.4301 11 13.2196 11 12.7995V11.7497C10.9998 11.3356 10.6641 10.9997 10.25 10.9997C9.83588 10.9997 9.50016 11.3356 9.5 11.7497V12.7995C9.5 13.2196 9.49971 13.4301 9.41797 13.5905C9.34608 13.7316 9.23185 13.8468 9.09082 13.9187C8.93039 14.0004 8.71984 13.9997 8.2998 13.9997H7.59961C7.03985 13.9997 6.75976 14.0003 6.5459 13.8913C6.35774 13.7954 6.20525 13.642 6.10938 13.4538C6.00039 13.2399 6 12.9601 6 12.4001V10.4997H7C9.76142 10.4997 12 8.26113 12 5.49971C12 5.4723 11.9975 5.44498 11.9971 5.41768Z" fill="#5CBAFD"/>
<path d="M3 11.75V9H4.5V11.75C4.5 12.9926 3.49264 14 2.25 14C1.00736 14 0 12.9926 0 11.75C0 11.3358 0.335786 11 0.75 11C1.16421 11 1.5 11.3358 1.5 11.75C1.5 12.1642 1.83579 12.5 2.25 12.5C2.66421 12.5 3 12.1642 3 11.75Z" fill="#5CBAFD"/>
<path d="M7 1.5C9.20914 1.5 11 3.29086 11 5.5C11 7.70914 9.20914 9.5 7 9.5H3V5.5C3 3.29086 4.79086 1.5 7 1.5ZM6 6C5.44772 6 5 6.44772 5 7C5 7.55228 5.44772 8 6 8C6.55228 8 7 7.55228 7 7C7 6.44772 6.55228 6 6 6Z" fill="#5CBAFD"/>
</svg>
