<svg width="16" height="16" viewBox="0 0 16 16" fill="none" xmlns="http://www.w3.org/2000/svg">
<path d="M11.9619 4.14814C12.4707 4.22861 12.891 4.35181 13.2695 4.54462C14.2103 5.02399 14.9757 5.78936 15.4551 6.73017C16 7.79968 16 9.19974 16 11.9997V12.4001C16 12.9601 15.9996 13.2399 15.8906 13.4538C15.7948 13.642 15.6423 13.7954 15.4541 13.8913C15.2402 14.0003 14.9602 13.9997 14.4004 13.9997H13.2002C12.7802 13.9997 12.5696 14.0004 12.4092 13.9186C12.2682 13.8468 12.1539 13.7315 12.082 13.5905C12.0003 13.4302 12 13.2202 12 12.8005V10.7497C11.9998 10.3356 11.6641 9.9997 11.25 9.9997C10.8359 9.9997 10.5002 10.3356 10.5 10.7497V12.8005C10.5 13.2202 10.4997 13.4302 10.418 13.5905C10.3461 13.7315 10.2318 13.8468 10.0908 13.9186C9.93039 14.0004 9.71984 13.9997 9.2998 13.9997H8.59961C8.03985 13.9997 7.75976 14.0003 7.5459 13.8913C7.35774 13.7954 7.20525 13.642 7.10938 13.4538C7.00039 13.2399 7 12.9601 7 12.4001V10.4431C9.82447 10.0532 11.9999 7.63153 12 4.6999C12 4.51278 11.9856 4.32879 11.9619 4.14814Z" fill="#5CBAFD"/>
<path d="M3 11.75V9H4.5V11.75C4.5 12.9926 3.49264 14 2.25 14C1.00736 14 0 12.9926 0 11.75C0 11.3358 0.335786 11 0.75 11C1.16421 11 1.5 11.3358 1.5 11.75C1.5 12.1642 1.83579 12.5 2.25 12.5C2.66421 12.5 3 12.1642 3 11.75Z" fill="#5CBAFD"/>
<path d="M7.7998 1.5C9.56712 1.5 11 2.93288 11 4.7002C10.9999 7.35101 8.85101 9.49989 6.2002 9.5H3V5.5C3 3.29086 4.79086 1.5 7 1.5H7.7998ZM6 6C5.44772 6 5 6.44772 5 7C5 7.55228 5.44772 8 6 8C6.55228 8 7 7.55228 7 7C7 6.44772 6.55228 6 6 6Z" fill="#5CBAFD"/>
</svg>
