<svg width="16" height="16" viewBox="0 0 16 16" fill="none" xmlns="http://www.w3.org/2000/svg">
<path d="M10 2C11.4 2 12.1 2.00007 12.6348 2.27246C13.1052 2.51214 13.4879 2.89483 13.7275 3.36523C13.9999 3.89999 14 4.60002 14 6V10C14 11.4 13.9999 12.1 13.7275 12.6348C13.4879 13.1052 13.1052 13.4879 12.6348 13.7275C12.1 13.9999 11.4 14 10 14H6C4.60002 14 3.89999 13.9999 3.36523 13.7275C2.89483 13.4879 2.51214 13.1052 2.27246 12.6348C2.00007 12.1 2 11.4 2 10V6C2 4.60002 2.00007 3.89999 2.27246 3.36523C2.51214 2.89483 2.89483 2.51214 3.36523 2.27246C3.89999 2.00007 4.60002 2 6 2H10ZM5.27539 6.08203C5.08131 5.95387 4.81735 5.97562 4.64648 6.14648C4.47562 6.31735 4.45387 6.58131 4.58203 6.77539L4.64648 6.85352L6.79297 9L4.64648 11.1465C4.45122 11.3417 4.45122 11.6583 4.64648 11.8535C4.84175 12.0488 5.15825 12.0488 5.35352 11.8535L7.5 9.70703C7.89047 9.31652 7.89047 8.68348 7.5 8.29297L5.35352 6.14648L5.27539 6.08203ZM9 11C8.72386 11 8.5 11.2239 8.5 11.5C8.5 11.7761 8.72386 12 9 12H11.5C11.7761 12 12 11.7761 12 11.5C12 11.2239 11.7761 11 11.5 11H9Z" fill="#5CBAFD"/>
</svg>
