<svg width="16" height="16" viewBox="0 0 16 16" fill="none" xmlns="http://www.w3.org/2000/svg">
<path d="M8.2998 1C9.41991 1 9.98038 0.999786 10.4082 1.21777C10.7845 1.40951 11.0905 1.71554 11.2822 2.0918C11.5002 2.51962 11.5 3.08009 11.5 4.2002V5.90039C11.5 6.46018 11.4996 6.74024 11.3906 6.9541C11.2948 7.14207 11.1421 7.29479 10.9541 7.39062C10.7402 7.49959 10.4602 7.5 9.90039 7.5H7.2002C6.08009 7.5 5.51962 7.49979 5.0918 7.71777C4.71554 7.90951 4.40951 8.21554 4.21777 8.5918C3.99979 9.01962 4 9.58009 4 10.7002V11.375C4 11.4912 3.99984 11.5494 3.99023 11.5977C3.95075 11.7959 3.79589 11.9507 3.59766 11.9902C3.54936 11.9998 3.49116 12 3.375 12C3.02651 12 2.85193 11.9995 2.70703 11.9707C2.11233 11.8522 1.64776 11.3877 1.5293 10.793C1.50047 10.6481 1.5 10.4735 1.5 10.125V9.66699C1.5 8.11263 1.50025 7.33517 1.78125 6.73242C2.07933 6.0932 2.5932 5.57933 3.23242 5.28125C3.83517 5.00025 4.61263 5 6.16699 5H7.5C7.77614 5 8 4.77614 8 4.5C8 4.22386 7.77614 4 7.5 4H5.09961C5.00708 4 4.96066 4.00027 4.92188 3.99414C4.70793 3.96025 4.53975 3.79207 4.50586 3.57812C4.49973 3.53934 4.5 3.49292 4.5 3.40039C4.5 3.0291 4.49985 2.84289 4.52441 2.6875C4.65996 1.83171 5.33172 1.15996 6.1875 1.02441C6.34289 0.999853 6.5291 1 6.90039 1H8.2998ZM6.25 2C5.83579 2 5.5 2.33579 5.5 2.75C5.5 3.16421 5.83579 3.5 6.25 3.5C6.66421 3.5 7 3.16421 7 2.75C7 2.33579 6.66421 2 6.25 2Z" fill="#5D80FF"/>
<path d="M13.125 4C13.4735 4 13.6481 4.00047 13.793 4.0293C14.3877 4.14776 14.8522 4.61233 14.9707 5.20703C14.9995 5.35193 15 5.52651 15 5.875V6.33301C15 7.88737 14.9998 8.66483 14.7188 9.26758C14.4207 9.9068 13.9068 10.4207 13.2676 10.7188C12.6648 10.9998 11.8874 11 10.333 11H9C8.72386 11 8.5 11.2239 8.5 11.5C8.5 11.7761 8.72386 12 9 12H11.4004C11.4929 12 11.5393 11.9997 11.5781 12.0059C11.7921 12.0397 11.9603 12.2079 11.9941 12.4219C12.0003 12.4607 12 12.5071 12 12.5996C12 12.9709 12.0001 13.1571 11.9756 13.3125C11.84 14.1683 11.1683 14.84 10.3125 14.9756C10.1571 15.0001 9.9709 15 9.59961 15H8.2002C7.08009 15 6.51962 15.0002 6.0918 14.7822C5.71554 14.5905 5.40951 14.2845 5.21777 13.9082C4.99979 13.4804 5 12.9199 5 11.7998V10.0996C5 9.53982 5.00041 9.25976 5.10938 9.0459C5.20521 8.85793 5.35793 8.70521 5.5459 8.60938C5.75976 8.50041 6.03982 8.5 6.59961 8.5H9.2998C10.4199 8.5 10.9804 8.50021 11.4082 8.28223C11.7845 8.09049 12.0905 7.78446 12.2822 7.4082C12.5002 6.98038 12.5 6.41991 12.5 5.2998V4.625C12.5 4.50884 12.5002 4.45064 12.5098 4.40234C12.5493 4.20411 12.7041 4.04925 12.9023 4.00977C12.9506 4.00016 13.0088 4 13.125 4ZM10.25 12.5C9.83579 12.5 9.5 12.8358 9.5 13.25C9.5 13.6642 9.83579 14 10.25 14C10.6642 14 11 13.6642 11 13.25C11 12.8358 10.6642 12.5 10.25 12.5Z" fill="#FFAD4C"/>
</svg>
