<svg width="16" height="16" viewBox="0 0 16 16" fill="none" xmlns="http://www.w3.org/2000/svg">
<g clip-path="url(#clip0_151_178)">
<path d="M8 4.5C9.98397 4.5 11.8039 4.84359 13.1465 5.41895C13.8169 5.70627 14.3915 6.06181 14.8057 6.48145C15.2219 6.90321 15.5 7.41677 15.5 8C15.5 8.58323 15.2219 9.09679 14.8057 9.51855C14.3915 9.93819 13.8169 10.2937 13.1465 10.5811C11.8039 11.1564 9.98397 11.5 8 11.5C6.01603 11.5 4.19613 11.1564 2.85352 10.5811C2.18309 10.2937 1.60849 9.93819 1.19434 9.51855C0.778144 9.09679 0.5 8.58323 0.5 8C0.5 7.41677 0.778144 6.90321 1.19434 6.48145C1.60849 6.06181 2.18309 5.70627 2.85352 5.41895C4.19613 4.84359 6.01603 4.5 8 4.5Z" stroke="#5D80FF"/>
<circle cx="8" cy="8" r="2" fill="#5D80FF"/>
<path d="M4.96891 6.25C5.96089 4.53184 7.16841 3.12755 8.33798 2.25249C8.92203 1.81554 9.51723 1.49569 10.0877 1.34685C10.6611 1.19729 11.2449 1.2132 11.75 1.50481C12.2551 1.79642 12.5608 2.29409 12.7179 2.8654C12.8743 3.43388 12.8949 4.10927 12.8085 4.83354C12.6355 6.28396 12.0231 8.03184 11.0311 9.75C10.0391 11.4682 8.83159 12.8725 7.66202 13.7475C7.07797 14.1845 6.48277 14.5043 5.91228 14.6532C5.33892 14.8027 4.75509 14.7868 4.25 14.4952C3.74491 14.2036 3.43922 13.7059 3.28206 13.1346C3.12572 12.5661 3.10512 11.8907 3.1915 11.1665C3.36454 9.71605 3.97693 7.96817 4.96891 6.25Z" stroke="#5D80FF"/>
<path d="M4.96891 9.75C3.97693 8.03184 3.36454 6.28396 3.1915 4.83354C3.10512 4.10927 3.12572 3.43388 3.28206 2.8654C3.43922 2.29409 3.74491 1.79643 4.25 1.50481C4.75509 1.2132 5.33892 1.19729 5.91227 1.34685C6.48277 1.49569 7.07797 1.81554 7.66202 2.25249C8.83159 3.12755 10.0391 4.53184 11.0311 6.25C12.0231 7.96817 12.6355 9.71605 12.8085 11.1665C12.8949 11.8907 12.8743 12.5661 12.7179 13.1346C12.5608 13.7059 12.2551 14.2036 11.75 14.4952C11.2449 14.7868 10.6611 14.8027 10.0877 14.6532C9.51723 14.5043 8.92203 14.1845 8.33798 13.7475C7.16841 12.8725 5.96089 11.4682 4.96891 9.75Z" stroke="#5D80FF"/>
</g>
<defs>
<clipPath id="clip0_151_178">
<rect width="16" height="16" fill="white"/>
</clipPath>
</defs>
</svg>
