<svg width="16" height="16" viewBox="0 0 16 16" fill="none" xmlns="http://www.w3.org/2000/svg">
<path d="M7.75 1C11.616 1 14.75 4.13401 14.75 8C14.75 11.866 11.616 15 7.75 15C3.88401 15 0.75 11.866 0.75 8C0.75 4.13401 3.88401 1 7.75 1ZM7.75 7.25C7.33579 7.25 7 7.58579 7 8V11C7 11.4142 7.33579 11.75 7.75 11.75C8.16421 11.75 8.5 11.4142 8.5 11V8C8.5 7.58579 8.16421 7.25 7.75 7.25ZM7.75 4.40039C7.28056 4.40039 6.90039 4.78056 6.90039 5.25C6.90039 5.71944 7.28056 6.09961 7.75 6.09961C8.21944 6.09961 8.59961 5.71944 8.59961 5.25C8.59961 4.78056 8.21944 4.40039 7.75 4.40039Z" fill="#5CBAFD"/>
</svg>
