<svg width="16" height="16" viewBox="0 0 16 16" fill="none" xmlns="http://www.w3.org/2000/svg">
<path d="M13.791 10.1084C14.2953 10.246 14.7462 10.5103 15.1074 10.8672C14.9927 11.1445 15.0034 11.47 15.165 11.75C15.3264 12.0295 15.6025 12.2005 15.8994 12.2402C15.9629 12.4831 16 12.7372 16 13C16 13.2625 15.9627 13.5162 15.8994 13.7588C15.6024 13.7985 15.3264 13.9705 15.165 14.25C15.0036 14.5297 14.9931 14.8547 15.1074 15.1318C14.7462 15.4889 14.2954 15.7529 13.791 15.8906C13.6082 15.6536 13.3225 15.5 13 15.5C12.6773 15.5 12.3909 15.6533 12.208 15.8906C11.7037 15.7528 11.2527 15.489 10.8916 15.1318C11.0061 14.8546 10.9965 14.5298 10.835 14.25C10.6734 13.9702 10.3969 13.7982 10.0996 13.7588C10.0363 13.5162 10 13.2624 10 13C10 12.7373 10.0362 12.4831 10.0996 12.2402C10.3969 12.2008 10.6734 12.0298 10.835 11.75C10.9967 11.4699 11.0064 11.1446 10.8916 10.8672C11.2527 10.5102 11.7039 10.2462 12.208 10.1084C12.3908 10.346 12.677 10.5 13 10.5C13.3228 10.5 13.6082 10.3458 13.791 10.1084ZM13 12C12.4477 12 12 12.4477 12 13C12 13.5523 12.4477 14 13 14C13.5523 14 14 13.5523 14 13C14 12.4477 13.5523 12 13 12Z" fill="#9595AC"/>
<path d="M11.4848 2.72208C12.837 3.08442 13.5132 3.26567 13.9592 3.66719C14.3516 4.02045 14.6222 4.48915 14.7319 5.00556C14.8566 5.59259 14.6755 6.26879 14.3132 7.62106L13.9151 9.10674C13.6212 9.03793 13.3152 9.00018 13.0004 9.00015C10.7913 9.00015 8.99963 10.7913 8.99963 13.0004C8.99968 13.553 9.11257 14.0793 9.31525 14.558C9.04276 14.4901 8.73404 14.4083 8.37894 14.3132L4.51523 13.2779C3.16296 12.9156 2.4868 12.7343 2.04076 12.3328C1.64842 11.9795 1.37782 11.5109 1.26806 10.9944C1.14335 10.4074 1.32447 9.73121 1.68681 8.37894L2.72208 4.51523C3.08442 3.16296 3.26567 2.4868 3.66719 2.04076C4.02045 1.64842 4.48914 1.37782 5.00556 1.26806C5.59259 1.14335 6.26879 1.32447 7.62106 1.68681L11.4848 2.72208ZM7.00404 5.9214C6.88747 5.89016 6.7678 5.94658 6.71572 6.05039L6.69786 6.09818L5.9214 8.99596C5.88566 9.12932 5.96481 9.26641 6.09818 9.30214L8.99595 10.0786C9.12932 10.1143 9.26641 10.0352 9.30214 9.90182L10.0786 7.00404C10.1143 6.87068 10.0352 6.73359 9.90182 6.69786L7.00404 5.9214Z" fill="#BEBED1"/>
</svg>
