<svg width="16" height="16" viewBox="0 0 16 16" fill="none" xmlns="http://www.w3.org/2000/svg">
<path d="M11.4848 2.72208C12.837 3.08442 13.5132 3.26567 13.9592 3.66719C14.3516 4.02045 14.6222 4.48915 14.7319 5.00556C14.8566 5.59259 14.6755 6.26879 14.3132 7.62106L13.2779 11.4848C12.9156 12.837 12.7343 13.5132 12.3328 13.9592C11.9795 14.3516 11.5109 14.6222 10.9944 14.7319C10.4074 14.8567 9.73121 14.6755 8.37894 14.3132L4.51523 13.2779C3.16296 12.9156 2.4868 12.7343 2.04076 12.3328C1.64842 11.9795 1.37782 11.5109 1.26806 10.9944C1.14335 10.4074 1.32447 9.73121 1.68681 8.37894L2.72208 4.51523C3.08442 3.16296 3.26567 2.4868 3.66719 2.04076C4.02045 1.64842 4.48914 1.37782 5.00556 1.26806C5.59259 1.14335 6.26879 1.32447 7.62106 1.68681L11.4848 2.72208ZM7.00404 5.9214C6.88746 5.89016 6.7678 5.94658 6.71572 6.05039L6.69786 6.09818L5.9214 8.99596C5.88567 9.12932 5.96481 9.26641 6.09818 9.30214L8.99595 10.0786C9.12932 10.1143 9.26641 10.0352 9.30214 9.90182L10.0786 7.00404C10.1098 6.88747 10.0534 6.7678 9.94961 6.71572L9.90182 6.69786L7.00404 5.9214Z" fill="#BEBED1"/>
</svg>
