<svg width="16" height="16" viewBox="0 0 16 16" fill="none" xmlns="http://www.w3.org/2000/svg">
<path d="M5.00553 0.267971C5.59253 0.143272 6.26866 0.324621 7.62077 0.686916L11.485 1.72207C12.8371 2.08437 13.5136 2.26589 13.9596 2.66739C14.3517 3.02056 14.6223 3.4891 14.7321 4.00528C14.8568 4.59231 14.6755 5.26921 14.3131 6.62149L13.9674 7.9086C13.3525 7.56809 12.6023 7.57449 11.9928 7.9291L8.99381 9.67422C8.37861 10.0324 7.99971 10.6908 7.99967 11.4027V13.2113L4.5153 12.2777C3.16302 11.9154 2.48672 11.7339 2.04069 11.3324C1.6485 10.9792 1.37799 10.5108 1.26823 9.99453C1.14353 9.40753 1.32488 8.73141 1.68717 7.3793L2.72233 3.51504C3.08463 2.16293 3.26615 1.48644 3.66764 1.04043C4.02086 0.648312 4.4893 0.377701 5.00553 0.267971ZM12.4967 8.79336L10.0456 10.2191L12.4958 8.79336L12.6159 8.73379C12.5751 8.75071 12.5355 8.77082 12.4967 8.79336ZM7.00358 4.92129C6.88717 4.89034 6.76752 4.94657 6.71549 5.0502L6.69791 5.09805L5.92155 7.99551C5.88581 8.12888 5.96494 8.26642 6.0983 8.30215L8.99577 9.07852C9.12913 9.11425 9.26667 9.03513 9.30241 8.90176L10.0788 6.0043C10.11 5.88772 10.0537 5.76732 9.94987 5.71524L9.90202 5.69766L7.00358 4.92129Z" fill="#BEBED1"/>
<path d="M12.4961 8.79327C12.8072 8.61226 13.192 8.61204 13.5029 8.79327L15.5039 9.96027C15.8111 10.1395 16 10.4689 16 10.8245V13.1751C15.9999 13.5311 15.8106 13.8603 15.5029 14.0394L12.5039 15.7845C12.1927 15.9655 11.8081 15.9649 11.4971 15.7835L9.49609 14.6165C9.18903 14.4373 9.00009 14.1088 9 13.7532V11.4026C9 11.0466 9.18938 10.7175 9.49707 10.5384L12.4961 8.79327ZM14.9326 10.8665C14.8118 10.6575 14.5632 10.5686 14.3428 10.6419L14.25 10.6839L12 11.9827L10.75 11.261L10.6572 11.2191C10.4368 11.1458 10.1882 11.2348 10.0674 11.4437C9.94681 11.6529 9.99399 11.9135 10.168 12.0677L10.25 12.1273L11.5 12.848V14.2894C11.5004 14.5652 11.7241 14.7894 12 14.7894C12.2759 14.7894 12.4996 14.5652 12.5 14.2894V12.848L14.75 11.5491L14.832 11.4905C15.0061 11.3364 15.0532 11.0758 14.9326 10.8665Z" fill="#9595AC"/>
</svg>
