<svg width="16" height="16" viewBox="0 0 16 16" fill="none" xmlns="http://www.w3.org/2000/svg">
<path d="M5.00619 0.268318C5.59313 0.143778 6.26945 0.325005 7.62142 0.687264L11.4847 1.72242C12.837 2.08476 13.5133 2.26622 13.9593 2.66773C14.3515 3.02096 14.622 3.48933 14.7318 4.00562C14.8565 4.5926 14.6761 5.26885 14.3138 6.62086L13.9437 7.99976H12.8538C11.7177 7.99993 10.6793 8.64272 10.1712 9.65894L9.31673 11.367C9.10855 11.7834 9.00033 12.2431 9.00033 12.7087V13.4763C8.81032 13.4267 8.60386 13.3734 8.37923 13.3132L4.51498 12.2781C3.16311 11.9159 2.48734 11.7342 2.04134 11.3328C1.64906 10.9796 1.37771 10.5112 1.2679 9.99488C1.1432 9.40784 1.32451 8.73094 1.68685 7.37867L2.72201 3.51539C3.08435 2.16311 3.2658 1.48681 3.66732 1.04078C4.02058 0.648452 4.48979 0.378083 5.00619 0.268318ZM7.00423 4.92164C6.88768 4.89041 6.76825 4.94678 6.71615 5.05055L6.69759 5.0984L5.92123 7.99586C5.88552 8.12913 5.96479 8.26664 6.09798 8.3025L8.99642 9.07887C9.12962 9.11438 9.26628 9.03524 9.30208 8.90211L10.0785 6.00367C10.1095 5.88721 10.0532 5.76761 9.94955 5.71558L9.90169 5.69801L7.00423 4.92164Z" fill="#BEBED1"/>
<path d="M13.25 9C14.2165 9 15 9.7835 15 10.75V11.5L15.1025 11.5049C15.6067 11.5562 16 11.9823 16 12.5V14.5C16 15.3284 15.3284 16 14.5 16H11.5C10.6716 16 10 15.3284 10 14.5V12.5C10 11.9823 10.3933 11.5562 10.8975 11.5049L11 11.5V10.75C11 9.7835 11.7835 9 12.75 9H13.25ZM13 12.75C12.5858 12.75 12.25 13.0858 12.25 13.5C12.25 13.9142 12.5858 14.25 13 14.25C13.4142 14.25 13.75 13.9142 13.75 13.5C13.75 13.0858 13.4142 12.75 13 12.75ZM12.75 10C12.3358 10 12 10.3358 12 10.75V11.5H14V10.75C14 10.3358 13.6642 10 13.25 10H12.75Z" fill="#9595AC"/>
</svg>
