<svg width="16" height="16" viewBox="0 0 16 16" fill="none" xmlns="http://www.w3.org/2000/svg">
<path d="M10.8 14H9.5L14 9.5V10.8C14 11.9201 14 12.4802 13.782 12.908C13.5903 13.2843 13.2843 13.5903 12.908 13.782C12.4802 14 11.9201 14 10.8 14Z" fill="#FF5B78"/>
<path d="M5 14H4.5C3.11929 14 2 12.8807 2 11.5V11.0352C2.92354 11.4891 4.03579 11.3375 5 11.0205V14ZM14 10L10 14H8.02734C8.16688 13.8952 8.3031 13.7883 8.43262 13.6777C10.3006 12.0833 12.0833 10.3006 13.6777 8.43262C13.7883 8.3031 13.8952 8.16688 14 8.02734V10ZM9.89062 11C9.20482 11.6632 8.50062 12.3046 7.7832 12.917C7.19234 13.4213 6.5825 13.7921 6 13.9346V11H9.89062ZM9.81348 2.00293C10.4666 2.63918 10.4456 3.65865 10.0088 4.87109C9.15824 7.2321 7.2321 9.15824 4.87109 10.0088C3.65865 10.4456 2.63918 10.4666 2.00293 9.81348C2.01759 9.10475 2.11406 8.46676 2.26074 7.89941C2.95472 5.21586 5.21586 2.95472 7.89941 2.26074C8.46676 2.11406 9.10475 2.01759 9.81348 2.00293ZM10 10H7.12012C8.26989 9.2568 9.2569 8.26898 10 7.11914V10ZM13.9365 6C13.8171 6.4887 13.5358 6.99637 13.1504 7.49609L12.917 7.7832C12.3048 8.50044 11.663 9.204 11 9.88965V6H13.9365ZM11.5 2C12.8807 2 14 3.11929 14 4.5V5H11.0205C11.3374 4.03592 11.4899 2.92346 11.0361 2H11.5Z" fill="#FF5B78"/>
</svg>
