<svg width="16" height="16" viewBox="0 0 16 16" fill="none" xmlns="http://www.w3.org/2000/svg">
<path d="M13.791 10.1084C14.2953 10.246 14.7462 10.5103 15.1074 10.8672C14.9927 11.1445 15.0034 11.47 15.165 11.75C15.3264 12.0295 15.6025 12.2005 15.8994 12.2402C15.9629 12.4831 16 12.7372 16 13C16 13.2625 15.9627 13.5162 15.8994 13.7588C15.6024 13.7985 15.3264 13.9705 15.165 14.25C15.0036 14.5297 14.9931 14.8547 15.1074 15.1318C14.7462 15.4889 14.2954 15.7529 13.791 15.8906C13.6082 15.6536 13.3225 15.5 13 15.5C12.6773 15.5 12.3909 15.6533 12.208 15.8906C11.7037 15.7528 11.2527 15.489 10.8916 15.1318C11.0061 14.8546 10.9965 14.5298 10.835 14.25C10.6734 13.9702 10.3969 13.7982 10.0996 13.7588C10.0363 13.5162 10 13.2624 10 13C10 12.7373 10.0362 12.4831 10.0996 12.2402C10.3969 12.2008 10.6734 12.0298 10.835 11.75C10.9967 11.4699 11.0064 11.1446 10.8916 10.8672C11.2527 10.5102 11.7039 10.2462 12.208 10.1084C12.3908 10.346 12.677 10.5 13 10.5C13.3228 10.5 13.6082 10.3458 13.791 10.1084ZM13 12C12.4477 12 12 12.4477 12 13C12 13.5523 12.4477 14 13 14C13.5523 14 14 13.5523 14 13C14 12.4477 13.5523 12 13 12Z" fill="#9595AC"/>
<path d="M8 1C11.866 1 15 4.13401 15 8C15 8.49801 14.9465 8.98357 14.8477 9.45215C14.2949 9.1637 13.6667 9 13 9C12.9958 9 12.9915 8.99999 12.9873 9C12.9943 8.96286 13 8.92492 13 8.88574V8.83301C13.0002 8.64917 13.1492 8.50018 13.333 8.5H13.4766C13.4914 8.33529 13.5 8.16858 13.5 8C13.5 4.96243 11.0376 2.5 8 2.5C6.29221 2.5 4.76661 3.27868 3.75781 4.5H9.64551C10.6694 4.5 11.4998 5.34728 11.5 6.37109C11.5 7.0563 11.1129 7.69357 10.5 8C10.7986 8 11.0638 8.19134 11.1582 8.47461L11.25 8.75C11.3176 8.95278 11.4424 9.12345 11.6006 9.25195C10.8369 9.53721 10.1843 10.0493 9.72363 10.7061C9.28699 10.4054 9 9.90307 9 9.33301C8.99982 8.87303 8.62697 8.50018 8.16699 8.5H6.5V9.5H7.25C7.48297 9.5 7.59952 9.50003 7.69141 9.53809C7.81387 9.58883 7.91117 9.68613 7.96191 9.80859C7.99997 9.90048 8 10.017 8 10.25C8 10.483 7.99997 10.5995 7.96191 10.6914C7.91117 10.8139 7.81387 10.9112 7.69141 10.9619C7.59952 11 7.48297 11 7.25 11H3.3916C4.37305 12.5046 6.06964 13.5 8 13.5C8.34848 13.5 8.68912 13.4663 9.01953 13.4043C9.07137 13.9208 9.22273 14.408 9.45215 14.8477C8.98357 14.9465 8.49801 15 8 15C4.13401 15 1 11.866 1 8C1 4.13401 4.13401 1 8 1ZM2.87695 6C2.63471 6.62005 2.5 7.29416 2.5 8C2.5 8.5201 2.5731 9.02309 2.70801 9.5H4V6H2.87695ZM6.5 7H8.5C8.77614 7 9 6.77614 9 6.5C9 6.22386 8.77614 6 8.5 6H6.5V7Z" fill="#FF845B"/>
</svg>
