<svg width="16" height="16" viewBox="0 0 16 16" fill="none" xmlns="http://www.w3.org/2000/svg">
<path d="M9.64551 4.5C10.6694 4.5 11.4998 5.34728 11.5 6.37109C11.5 7.0563 11.1129 7.69357 10.5 8C10.7986 8 11.0638 8.19134 11.1582 8.47461L11.25 8.75C11.3993 9.19789 11.8189 9.5 12.291 9.5H12.3857C12.725 9.49994 12.9999 9.22496 13 8.88574V8.83301C13.0002 8.64917 13.1492 8.50018 13.333 8.5H13.5V11H10.667C9.74652 11 9 10.2535 9 9.33301C8.99982 8.87303 8.62697 8.50018 8.16699 8.5H6.5V9.5H7.25C7.48297 9.5 7.59952 9.50003 7.69141 9.53809C7.81387 9.58883 7.91117 9.68613 7.96191 9.80859C7.99997 9.90048 8 10.017 8 10.25C8 10.483 7.99997 10.5995 7.96191 10.6914C7.91117 10.8139 7.81387 10.9112 7.69141 10.9619C7.59952 11 7.48297 11 7.25 11H2V9.5H4V6H2V4.5H9.64551ZM6.5 6V7H8.5C8.77614 7 9 6.77614 9 6.5C9 6.22386 8.77614 6 8.5 6H6.5Z" fill="#FF845B"/>
<circle cx="8" cy="8" r="6.25" stroke="#FF845B" stroke-width="1.5"/>
</svg>
