<svg width="16" height="16" viewBox="0 0 16 16" fill="none" xmlns="http://www.w3.org/2000/svg">
<path d="M6.8457 1.48088C7.58413 1.17322 8.41587 1.17322 9.1543 1.48088L12.7695 2.98674C13.5147 3.29729 13.9999 4.02615 14 4.83342V7.40471C14 10.2499 12.4888 12.8811 10.0312 14.3149L9.00781 14.9115C8.38509 15.2748 7.61491 15.2748 6.99219 14.9115L5.96875 14.3149C3.51124 12.8811 2 10.2499 2 7.40471V4.83342C2.00007 4.02615 2.48532 3.29729 3.23047 2.98674L6.8457 1.48088ZM7.75 4.00041C6.7835 4.00041 6 4.78391 6 5.75041V6.00041L5.89746 6.00529C5.39335 6.05665 5 6.48275 5 7.00041V9.50041C5.00022 10.3286 5.67171 11.0004 6.5 11.0004H9.5C10.3283 11.0004 10.9998 10.3286 11 9.50041V7.00041C11 6.48275 10.6066 6.05665 10.1025 6.00529L10 6.00041V5.75041C10 4.78391 9.2165 4.00041 8.25 4.00041H7.75ZM8 7.75041C8.41421 7.75041 8.75 8.0862 8.75 8.50041C8.74978 8.91444 8.41408 9.25041 8 9.25041C7.58592 9.25041 7.25022 8.91444 7.25 8.50041C7.25 8.0862 7.58579 7.75041 8 7.75041ZM8.25 5.00041C8.66421 5.00041 9 5.3362 9 5.75041V6.00041H7V5.75041C7 5.3362 7.33579 5.00041 7.75 5.00041H8.25Z" fill="#FFAD4C"/>
</svg>
