<svg width="16" height="16" viewBox="0 0 16 16" fill="none" xmlns="http://www.w3.org/2000/svg">
<path d="M10 2C11.4 2 12.1 2.00007 12.6348 2.27246C13.1052 2.51214 13.4879 2.89483 13.7275 3.36523C13.9999 3.89999 14 4.60002 14 6V10C14 11.4 13.9999 12.1 13.7275 12.6348C13.4879 13.1052 13.1052 13.4879 12.6348 13.7275C12.1 13.9999 11.4 14 10 14H6C4.60002 14 3.89999 13.9999 3.36523 13.7275C2.89483 13.4879 2.51214 13.1052 2.27246 12.6348C2.00007 12.1 2 11.4 2 10V6C2 4.60002 2.00007 3.89999 2.27246 3.36523C2.51214 2.89483 2.89483 2.51214 3.36523 2.27246C3.89999 2.00007 4.60002 2 6 2H10ZM6 4C5.72386 4 5.5 4.22386 5.5 4.5V5.01953C4.65205 5.14095 4 5.86847 4 6.75C4 7.7165 4.7835 8.5 5.75 8.5H6.25C6.66421 8.5 7 8.83579 7 9.25C7 9.66421 6.66421 10 6.25 10H5.92676C5.59554 9.9999 5.28939 9.83606 5.10449 9.56836L5.03223 9.44727L4.94727 9.27637L4.89258 9.19043C4.74891 9.00785 4.4923 8.94477 4.27637 9.05273C4.06028 9.16078 3.95645 9.40429 4.0166 9.62891L4.05273 9.72363L4.13867 9.89453L4.20605 10.0186C4.49069 10.4997 4.96204 10.8344 5.5 10.9521V11.5C5.5 11.7761 5.72386 12 6 12C6.27614 12 6.5 11.7761 6.5 11.5V10.9795C7.34788 10.858 8 10.1315 8 9.25C8 8.2835 7.2165 7.5 6.25 7.5H5.75C5.33579 7.5 5 7.16421 5 6.75C5 6.33579 5.33579 6 5.75 6H6.07324C6.4519 6.00011 6.79843 6.21404 6.96777 6.55273L7.05273 6.72363L7.10742 6.80957C7.25109 6.99215 7.5077 7.05523 7.72363 6.94727C7.93972 6.83922 8.04355 6.59571 7.9834 6.37109L7.94727 6.27637L7.86133 6.10547C7.58755 5.55812 7.08317 5.17339 6.5 5.0459V4.5C6.5 4.22386 6.27614 4 6 4ZM9 11C8.72386 11 8.5 11.2239 8.5 11.5C8.5 11.7761 8.72386 12 9 12H11.5C11.7761 12 12 11.7761 12 11.5C12 11.2239 11.7761 11 11.5 11H9Z" fill="#84D877"/>
</svg>
