<svg width="16" height="16" viewBox="0 0 16 16" fill="none" xmlns="http://www.w3.org/2000/svg">
<path d="M5 15.5V12H7V15.5L6 15L5 15.5Z" fill="#F269A4"/>
<path d="M11 1C12.6569 1 14 2.34315 14 4V11C14 12.6569 12.6569 14 11 14H8V12.5H11C11.8284 12.5 12.5 11.8284 12.5 11V10.5947C12.0584 10.8506 11.5471 11 11 11H5C4.44772 11 4 11.4477 4 12V13.6191C3.46319 13.2592 3.08932 12.6752 3.01465 12H3V3.25C3 2.00736 4.00736 1 5.25 1H11ZM6 6C5.72386 6 5.5 6.22386 5.5 6.5V7C5.5 7.27614 5.72386 7.5 6 7.5H8.5C8.77614 7.5 9 7.27614 9 7V6.5C9 6.22386 8.77614 6 8.5 6H6ZM6 3.5C5.72386 3.5 5.5 3.72386 5.5 4V4.5C5.5 4.77614 5.72386 5 6 5H11C11.2761 5 11.5 4.77614 11.5 4.5V4C11.5 3.72386 11.2761 3.5 11 3.5H6Z" fill="#F269A4"/>
</svg>
