<svg width="16" height="16" viewBox="0 0 16 16" fill="none" xmlns="http://www.w3.org/2000/svg">
<mask id="path-1-outside-1_151_443" maskUnits="userSpaceOnUse" x="-2.18085" y="-1.62846" width="20.3564" height="19.2583" fill="black">
<rect fill="white" x="-2.18085" y="-1.62846" width="20.3564" height="19.2583"/>
<path d="M8.56194 2.47859C9.87724 1.7192 11.5591 2.16986 12.3185 3.48516C12.787 4.29655 12.7926 5.24633 12.4212 6.0341C11.9162 5.5626 11.3103 5.22918 10.6614 5.04856C10.7093 4.86459 10.689 4.6628 10.5865 4.48516C10.3793 4.12644 9.92065 4.00354 9.56194 4.21064L6.09783 6.21064C5.73911 6.41775 5.61621 6.87644 5.82332 7.23516C6.03042 7.59388 6.48911 7.71679 6.84783 7.50968L8.14687 6.75968C9.22174 6.1391 10.5404 6.32775 11.4013 7.13486L11.4324 7.16319L11.4307 7.16416C11.6109 7.33833 11.7719 7.5384 11.9034 7.76625C12.6628 9.08156 12.2122 10.7634 10.8969 11.5228L9.38133 12.3978L9.3867 12.4071L7.43814 13.5321C6.12289 14.2915 4.44101 13.8407 3.68157 12.5256C3.21314 11.7142 3.20752 10.7644 3.57889 9.97661C4.08381 10.4481 4.68987 10.7815 5.33868 10.9622C5.29087 11.1461 5.31109 11.348 5.41362 11.5256C5.62077 11.8842 6.07948 12.0071 6.43814 11.8001L8.3867 10.6751L8.38133 10.6658L9.89687 9.79077C10.2556 9.58366 10.3785 9.12497 10.1714 8.76625C9.96428 8.40753 9.50559 8.28462 9.14687 8.49173L7.84783 9.24173C6.53253 10.0011 4.85066 9.55047 4.09126 8.23516C3.33187 6.91986 3.78253 5.23798 5.09783 4.47859L8.56194 2.47859ZM4.59874 8.87585C4.58857 8.86633 4.57777 8.85722 4.56773 8.84753L4.57026 8.84606C4.5801 8.85558 4.58877 8.86651 4.59874 8.87585Z"/>
</mask>
<path d="M8.56194 2.47859L7.81194 1.17955L8.56194 2.47859ZM12.3185 3.48516L13.6175 2.73516L12.3185 3.48516ZM12.4212 6.0341L11.3975 7.13045C11.7477 7.45751 12.2332 7.59753 12.7038 7.50724C13.1744 7.41696 13.5736 7.10724 13.778 6.67378L12.4212 6.0341ZM10.6614 5.04856L9.2097 4.67097C9.00367 5.46308 9.47065 6.27413 10.2591 6.49362L10.6614 5.04856ZM10.5865 4.48516L11.8855 3.73516L10.5865 4.48516ZM9.56194 4.21064L8.81194 2.9116L9.56194 4.21064ZM6.09783 6.21064L5.34783 4.9116L6.09783 6.21064ZM5.82332 7.23516L4.52428 7.98516L5.82332 7.23516ZM6.84783 7.50968L7.59783 8.80872L6.84783 7.50968ZM8.14687 6.75968L7.39687 5.46064L8.14687 6.75968ZM11.4013 7.13486L10.3755 8.22921C10.3802 8.23364 10.385 8.23804 10.3897 8.24241L11.4013 7.13486ZM11.4324 7.16319L12.1824 8.46223C12.5966 8.22309 12.8719 7.80076 12.9236 7.32529C12.9753 6.84981 12.7971 6.37819 12.444 6.05564L11.4324 7.16319ZM11.4307 7.16416L10.6807 5.86513C10.2729 6.10055 9.99934 6.51377 9.94187 6.98109C9.88441 7.4484 10.0497 7.91559 10.3883 8.24279L11.4307 7.16416ZM10.8969 11.5228L11.6469 12.8219L10.8969 11.5228ZM9.38133 12.3978L8.63133 11.0988C7.91389 11.513 7.66808 12.4304 8.08229 13.1478L9.38133 12.3978ZM9.3867 12.4071L10.1367 13.7062C10.8541 13.2919 11.1 12.3746 10.6857 11.6571L9.3867 12.4071ZM7.43814 13.5321L8.18814 14.8312L7.43814 13.5321ZM3.68157 12.5256L2.38253 13.2756L2.38258 13.2756L3.68157 12.5256ZM3.57889 9.97661L4.60258 8.88022C4.25231 8.55318 3.76686 8.41318 3.29623 8.50348C2.8256 8.59379 2.42645 8.90352 2.2221 9.33698L3.57889 9.97661ZM5.33868 10.9622L6.79044 11.3395C6.99631 10.5474 6.52933 9.73656 5.74093 9.5171L5.33868 10.9622ZM5.41362 11.5256L4.11458 12.2756L4.11476 12.2759L5.41362 11.5256ZM6.43814 11.8001L7.18814 13.0991L7.18814 13.0991L6.43814 11.8001ZM8.3867 10.6751L9.1367 11.9741C9.85414 11.5599 10.1 10.6425 9.68574 9.92507L8.3867 10.6751ZM8.38133 10.6658L7.63133 9.36673C6.91389 9.78095 6.66808 10.6983 7.08229 11.4158L8.38133 10.6658ZM9.89687 9.79077L10.6469 11.0898L9.89687 9.79077ZM9.14687 8.49173L8.39687 7.19269L9.14687 8.49173ZM7.84783 9.24173L8.59783 10.5408L7.84783 9.24173ZM4.09126 8.23516L2.79223 8.98516L4.09126 8.23516ZM5.09783 4.47859L4.34783 3.17955L5.09783 4.47859ZM4.59874 8.87585L3.57293 9.97025C4.17734 10.5368 5.12657 10.5061 5.69311 9.9017C6.25966 9.2973 6.22899 8.34807 5.62461 7.78151L4.59874 8.87585ZM4.56773 8.84753L3.81773 7.54849C3.40987 7.78397 3.13628 8.19732 3.0789 8.66477C3.02152 9.13221 3.18701 9.59947 3.5258 9.9266L4.56773 8.84753ZM4.57026 8.84606L5.61377 7.76853C5.13249 7.30244 4.40048 7.21204 3.82026 7.54702L4.57026 8.84606ZM8.56194 2.47859L9.31194 3.77763C9.9098 3.43245 10.6743 3.6373 11.0195 4.23516L12.3185 3.48516L13.6175 2.73516C12.4439 0.702418 9.84468 0.00594897 7.81194 1.17955L8.56194 2.47859ZM12.3185 3.48516L11.0195 4.23516C11.2303 4.60033 11.2364 5.02956 11.0644 5.39443L12.4212 6.0341L13.778 6.67378C14.3488 5.4631 14.3436 3.99277 13.6175 2.73516L12.3185 3.48516ZM12.4212 6.0341L13.4449 4.93776C12.7597 4.29797 11.9392 3.84724 11.0637 3.6035L10.6614 5.04856L10.2591 6.49362C10.6813 6.61113 11.0727 6.82723 11.3975 7.13045L12.4212 6.0341ZM10.6614 5.04856L12.1131 5.42615C12.2542 4.88377 12.1966 4.27399 11.8855 3.73516L10.5865 4.48516L9.28742 5.23516C9.18144 5.0516 9.16433 4.8454 9.2097 4.67097L10.6614 5.04856ZM10.5865 4.48516L11.8855 3.73516C11.2642 2.659 9.88809 2.29028 8.81194 2.9116L9.56194 4.21064L10.3119 5.50968C9.95322 5.71679 9.49452 5.59388 9.28742 5.23516L10.5865 4.48516ZM9.56194 4.21064L8.81194 2.9116L5.34783 4.9116L6.09783 6.21064L6.84783 7.50968L10.3119 5.50968L9.56194 4.21064ZM6.09783 6.21064L5.34783 4.9116C4.27168 5.53292 3.90296 6.909 4.52428 7.98516L5.82332 7.23516L7.12235 6.48516C7.32946 6.84388 7.20655 7.30257 6.84783 7.50968L6.09783 6.21064ZM5.82332 7.23516L4.52428 7.98516C5.1456 9.06132 6.52168 9.43004 7.59783 8.80872L6.84783 7.50968L6.09783 6.21064C6.45655 6.00354 6.91525 6.12644 7.12235 6.48516L5.82332 7.23516ZM6.84783 7.50968L7.59783 8.80872L8.89687 8.05872L8.14687 6.75968L7.39687 5.46064L6.09783 6.21064L6.84783 7.50968ZM8.14687 6.75968L8.89687 8.05872C9.38236 7.77842 9.98223 7.86058 10.3755 8.22921L11.4013 7.13486L12.4272 6.04052C11.0985 4.79492 9.06113 4.49978 7.39687 5.46064L8.14687 6.75968ZM11.4013 7.13486L10.3897 8.24241L10.4208 8.27074L11.4324 7.16319L12.444 6.05564L12.4129 6.02731L11.4013 7.13486ZM11.4324 7.16319L10.6824 5.86415L10.6807 5.86513L11.4307 7.16416L12.1807 8.4632L12.1824 8.46223L11.4324 7.16319ZM11.4307 7.16416L10.3883 8.24279C10.4764 8.32798 10.5483 8.41903 10.6044 8.51625L11.9034 7.76625L13.2025 7.01625C12.9955 6.65777 12.7453 6.34868 12.473 6.08554L11.4307 7.16416ZM11.9034 7.76625L10.6044 8.51625C10.9496 9.11412 10.7447 9.8786 10.1469 10.2238L10.8969 11.5228L11.6469 12.8219C13.6796 11.6483 14.3761 9.04899 13.2025 7.01625L11.9034 7.76625ZM10.8969 11.5228L10.1469 10.2238L8.63133 11.0988L9.38133 12.3978L10.1313 13.6969L11.6469 12.8219L10.8969 11.5228ZM9.38133 12.3978L8.08229 13.1478L8.08766 13.1571L9.3867 12.4071L10.6857 11.6571L10.6804 11.6478L9.38133 12.3978ZM9.3867 12.4071L8.6367 11.1081L6.68814 12.2331L7.43814 13.5321L8.18814 14.8312L10.1367 13.7062L9.3867 12.4071ZM7.43814 13.5321L6.68814 12.2331C6.09041 12.5782 5.32582 12.3734 4.98056 11.7755L3.68157 12.5256L2.38258 13.2756C3.55619 15.3081 6.15537 16.0048 8.18814 14.8312L7.43814 13.5321ZM3.68157 12.5256L4.98061 11.7756C4.76982 11.4105 4.76365 10.9812 4.93568 10.6162L3.57889 9.97661L2.2221 9.33698C1.65139 10.5476 1.65645 12.0179 2.38253 13.2756L3.68157 12.5256ZM3.57889 9.97661L2.5552 11.073C3.24029 11.7127 4.06085 12.1635 4.93643 12.4072L5.33868 10.9622L5.74093 9.5171C5.31889 9.39961 4.92733 9.18345 4.60258 8.88022L3.57889 9.97661ZM5.33868 10.9622L3.88692 10.5848C3.74603 11.1268 3.80343 11.7366 4.11458 12.2756L5.41362 11.5256L6.71266 10.7756C6.81875 10.9593 6.8357 11.1654 6.79044 11.3395L5.33868 10.9622ZM5.41362 11.5256L4.11476 12.2759C4.73598 13.3512 6.11173 13.7206 7.18814 13.0991L6.43814 11.8001L5.68814 10.501C6.04722 10.2937 6.50557 10.4171 6.71248 10.7752L5.41362 11.5256ZM6.43814 11.8001L7.18814 13.0991L9.1367 11.9741L8.3867 10.6751L7.6367 9.37603L5.68814 10.501L6.43814 11.8001ZM8.3867 10.6751L9.68574 9.92507L9.68037 9.91577L8.38133 10.6658L7.08229 11.4158L7.08766 11.4251L8.3867 10.6751ZM8.38133 10.6658L9.13133 11.9648L10.6469 11.0898L9.89687 9.79077L9.14687 8.49173L7.63133 9.36673L8.38133 10.6658ZM9.89687 9.79077L10.6469 11.0898C11.723 10.4685 12.0917 9.09241 11.4704 8.01625L10.1714 8.76625L8.87235 9.51625C8.66525 9.15753 8.78815 8.69884 9.14687 8.49173L9.89687 9.79077ZM10.1714 8.76625L11.4704 8.01625C10.8491 6.94009 9.47303 6.57137 8.39687 7.19269L9.14687 8.49173L9.89687 9.79077C9.53815 9.99788 9.07946 9.87497 8.87235 9.51625L10.1714 8.76625ZM9.14687 8.49173L8.39687 7.19269L7.09783 7.94269L7.84783 9.24173L8.59783 10.5408L9.89687 9.79077L9.14687 8.49173ZM7.84783 9.24173L7.09783 7.94269C6.49997 8.28787 5.73548 8.08303 5.3903 7.48516L4.09126 8.23516L2.79223 8.98516C3.96583 11.0179 6.56509 11.7144 8.59783 10.5408L7.84783 9.24173ZM4.09126 8.23516L5.3903 7.48516C5.04512 6.8873 5.24997 6.12281 5.84783 5.77763L5.09783 4.47859L4.34783 3.17955C2.31509 4.35316 1.61862 6.95242 2.79223 8.98516L4.09126 8.23516ZM5.09783 4.47859L5.84783 5.77763L9.31194 3.77763L8.56194 2.47859L7.81194 1.17955L4.34783 3.17955L5.09783 4.47859ZM4.59874 8.87585L5.62455 7.78145C5.6125 7.77016 5.60225 7.76085 5.5957 7.75494C5.59236 7.75193 5.58945 7.74933 5.58752 7.74759C5.58655 7.74672 5.58562 7.7459 5.585 7.74535C5.5843 7.74471 5.5839 7.74436 5.58355 7.74404C5.58183 7.74251 5.58437 7.74477 5.58827 7.74834C5.59243 7.75214 5.60003 7.75916 5.60965 7.76845L4.56773 8.84753L3.5258 9.9266C3.54045 9.94074 3.55316 9.95253 3.56249 9.96107C3.57155 9.96937 3.57931 9.97632 3.58282 9.97946C3.5882 9.98427 3.58661 9.98285 3.58634 9.9826C3.58498 9.98138 3.5799 9.97679 3.57293 9.97025L4.59874 8.87585ZM4.56773 8.84753L5.31773 10.1466L5.32026 10.1451L4.57026 8.84606L3.82026 7.54702L3.81773 7.54849L4.56773 8.84753ZM4.57026 8.84606L3.52675 9.9236C3.50603 9.90353 3.4906 9.88728 3.48301 9.87918C3.47908 9.87498 3.47622 9.87187 3.47528 9.87084C3.47487 9.87039 3.47388 9.86932 3.4764 9.87207C3.47885 9.87476 3.49075 9.88785 3.50529 9.9031C3.52055 9.91913 3.54371 9.94287 3.57287 9.9702L4.59874 8.87585L5.62461 7.78151C5.64878 7.80417 5.66712 7.82303 5.67765 7.83409C5.68306 7.83976 5.68723 7.84425 5.68957 7.84679C5.69177 7.84917 5.69325 7.85079 5.69251 7.84998C5.69236 7.84982 5.6922 7.84964 5.69187 7.84928C5.69158 7.84897 5.69115 7.84849 5.69068 7.84798C5.68975 7.84696 5.68832 7.84539 5.68665 7.84358C5.68338 7.84001 5.67819 7.83437 5.67191 7.82766C5.66556 7.82088 5.6574 7.81228 5.64784 7.80248C5.63826 7.79266 5.62683 7.78117 5.61377 7.76853L4.57026 8.84606Z" fill="#FF845B" mask="url(#path-1-outside-1_151_443)"/>
</svg>
