<svg width="16" height="16" viewBox="0 0 16 16" fill="none" xmlns="http://www.w3.org/2000/svg">
<mask id="path-1-outside-1_151_443" maskUnits="userSpaceOnUse" x="-2.18084" y="-1.62846" width="20.3564" height="19.2583" fill="black">
<rect fill="white" x="-2.18084" y="-1.62846" width="20.3564" height="19.2583"/>
<path d="M8.56194 2.47859C9.87725 1.7192 11.5591 2.16986 12.3185 3.48516C12.787 4.29655 12.7926 5.24633 12.4212 6.0341C11.9162 5.5626 11.3103 5.22918 10.6614 5.04856C10.7093 4.86459 10.689 4.6628 10.5865 4.48516C10.3794 4.12644 9.92066 4.00354 9.56194 4.21064L6.09784 6.21064C5.73912 6.41775 5.61622 6.87644 5.82332 7.23516C6.03043 7.59388 6.48912 7.71679 6.84784 7.50968L8.14688 6.75968C9.22175 6.1391 10.5404 6.32775 11.4013 7.13486L11.4324 7.16319L11.4307 7.16416C11.6109 7.33833 11.7719 7.5384 11.9034 7.76625C12.6628 9.08156 12.2122 10.7634 10.8969 11.5228L9.38134 12.3978L9.38671 12.4071L7.43815 13.5321C6.1229 14.2915 4.44101 13.8407 3.68158 12.5256C3.21314 11.7142 3.20753 10.7644 3.5789 9.97661C4.08382 10.4481 4.68987 10.7815 5.33869 10.9622C5.29088 11.1461 5.3111 11.348 5.41363 11.5256C5.62078 11.8842 6.07948 12.0071 6.43815 11.8001L8.38671 10.6751L8.38134 10.6658L9.89688 9.79077C10.2556 9.58366 10.3785 9.12497 10.1714 8.76625C9.96429 8.40753 9.5056 8.28462 9.14688 8.49173L7.84784 9.24173C6.53254 10.0011 4.85066 9.55047 4.09127 8.23516C3.33188 6.91986 3.78254 5.23798 5.09784 4.47859L8.56194 2.47859Z"/>
</mask>
<path d="M8.56194 2.47859L7.81194 1.17955L8.56194 2.47859ZM12.3185 3.48516L13.6176 2.73516L12.3185 3.48516ZM12.4212 6.0341L11.3975 7.13045C11.7477 7.45751 12.2332 7.59753 12.7038 7.50724C13.1744 7.41696 13.5736 7.10724 13.778 6.67378L12.4212 6.0341ZM10.6614 5.04856L9.20971 4.67097C9.00368 5.46308 9.47066 6.27413 10.2592 6.49362L10.6614 5.04856ZM10.5865 4.48516L11.8855 3.73516L10.5865 4.48516ZM9.56194 4.21064L8.81194 2.9116L9.56194 4.21064ZM6.09784 6.21064L5.34784 4.9116L6.09784 6.21064ZM5.82332 7.23516L4.52428 7.98516L5.82332 7.23516ZM6.84784 7.50968L7.59784 8.80872L6.84784 7.50968ZM8.14688 6.75968L7.39688 5.46064L8.14688 6.75968ZM11.4013 7.13486L10.3755 8.22921C10.3802 8.23364 10.385 8.23804 10.3897 8.24241L11.4013 7.13486ZM11.4324 7.16319L12.1824 8.46223C12.5966 8.22309 12.8719 7.80076 12.9236 7.32529C12.9753 6.84981 12.7971 6.37819 12.444 6.05564L11.4324 7.16319ZM11.4307 7.16416L10.6807 5.86513C10.2729 6.10055 9.99935 6.51377 9.94188 6.98109C9.88441 7.4484 10.0497 7.91559 10.3883 8.24279L11.4307 7.16416ZM11.9034 7.76625L13.2025 7.01625L11.9034 7.76625ZM10.8969 11.5228L11.6469 12.8219L10.8969 11.5228ZM9.38134 12.3978L8.63134 11.0988C7.9139 11.513 7.66808 12.4304 8.0823 13.1478L9.38134 12.3978ZM9.38671 12.4071L10.1367 13.7062C10.8541 13.2919 11.1 12.3746 10.6857 11.6571L9.38671 12.4071ZM7.43815 13.5321L8.18815 14.8312L7.43815 13.5321ZM3.68158 12.5256L2.38254 13.2756L2.38259 13.2756L3.68158 12.5256ZM3.5789 9.97661L4.60259 8.88022C4.25232 8.55318 3.76687 8.41318 3.29624 8.50348C2.82561 8.59379 2.42646 8.90352 2.22211 9.33698L3.5789 9.97661ZM5.33869 10.9622L6.79045 11.3395C6.99632 10.5474 6.52934 9.73656 5.74094 9.5171L5.33869 10.9622ZM5.41363 11.5256L4.11459 12.2756L4.11477 12.2759L5.41363 11.5256ZM6.43815 11.8001L7.18815 13.0991L7.18815 13.0991L6.43815 11.8001ZM8.38671 10.6751L9.13671 11.9741C9.85415 11.5599 10.1 10.6425 9.68574 9.92507L8.38671 10.6751ZM8.38134 10.6658L7.63134 9.36673C7.28681 9.56564 7.03541 9.89327 6.93245 10.2775C6.82948 10.6618 6.88338 11.0712 7.0823 11.4158L8.38134 10.6658ZM9.89688 9.79077L10.6469 11.0898L9.89688 9.79077ZM10.1714 8.76625L11.4704 8.01625L10.1714 8.76625ZM9.14688 8.49173L8.39688 7.19269L9.14688 8.49173ZM7.84784 9.24173L8.59784 10.5408L7.84784 9.24173ZM4.09127 8.23516L2.79223 8.98516L4.09127 8.23516ZM5.09784 4.47859L4.34784 3.17955L5.09784 4.47859ZM8.56194 2.47859L9.31194 3.77763C9.90981 3.43245 10.6743 3.6373 11.0195 4.23516L12.3185 3.48516L13.6176 2.73516C12.4439 0.702418 9.84469 0.00594897 7.81194 1.17955L8.56194 2.47859ZM12.3185 3.48516L11.0195 4.23516C11.2303 4.60033 11.2365 5.02956 11.0644 5.39443L12.4212 6.0341L13.778 6.67378C14.3488 5.4631 14.3436 3.99277 13.6176 2.73516L12.3185 3.48516ZM12.4212 6.0341L13.4449 4.93776C12.7598 4.29797 11.9392 3.84724 11.0637 3.6035L10.6614 5.04856L10.2592 6.49362C10.6813 6.61113 11.0727 6.82723 11.3975 7.13045L12.4212 6.0341ZM10.6614 5.04856L12.1131 5.42615C12.2542 4.88377 12.1966 4.27399 11.8855 3.73516L10.5865 4.48516L9.28742 5.23516C9.18144 5.0516 9.16434 4.8454 9.20971 4.67097L10.6614 5.04856ZM10.5865 4.48516L11.8855 3.73516C11.2642 2.659 9.8881 2.29028 8.81194 2.9116L9.56194 4.21064L10.3119 5.50968C9.95322 5.71679 9.49453 5.59388 9.28742 5.23516L10.5865 4.48516ZM9.56194 4.21064L8.81194 2.9116L5.34784 4.9116L6.09784 6.21064L6.84784 7.50968L10.3119 5.50968L9.56194 4.21064ZM6.09784 6.21064L5.34784 4.9116C4.27168 5.53292 3.90296 6.909 4.52428 7.98516L5.82332 7.23516L7.12236 6.48516C7.32947 6.84388 7.20656 7.30257 6.84784 7.50968L6.09784 6.21064ZM5.82332 7.23516L4.52428 7.98516C5.1456 9.06132 6.52168 9.43004 7.59784 8.80872L6.84784 7.50968L6.09784 6.21064C6.45656 6.00354 6.91525 6.12644 7.12236 6.48516L5.82332 7.23516ZM6.84784 7.50968L7.59784 8.80872L8.89688 8.05872L8.14688 6.75968L7.39688 5.46064L6.09784 6.21064L6.84784 7.50968ZM8.14688 6.75968L8.89688 8.05872C9.38236 7.77842 9.98224 7.86058 10.3755 8.22921L11.4013 7.13486L12.4272 6.04052C11.0985 4.79492 9.06113 4.49978 7.39688 5.46064L8.14688 6.75968ZM11.4013 7.13486L10.3897 8.24241L10.4208 8.27074L11.4324 7.16319L12.444 6.05564L12.4129 6.02731L11.4013 7.13486ZM11.4324 7.16319L10.6824 5.86415L10.6807 5.86513L11.4307 7.16416L12.1807 8.4632L12.1824 8.46223L11.4324 7.16319ZM11.4307 7.16416L10.3883 8.24279C10.4764 8.32798 10.5483 8.41903 10.6044 8.51625L11.9034 7.76625L13.2025 7.01625C12.9955 6.65777 12.7453 6.34868 12.4731 6.08554L11.4307 7.16416ZM11.9034 7.76625L10.6044 8.51625C10.9496 9.11412 10.7447 9.8786 10.1469 10.2238L10.8969 11.5228L11.6469 12.8219C13.6796 11.6483 14.3761 9.04899 13.2025 7.01625L11.9034 7.76625ZM10.8969 11.5228L10.1469 10.2238L8.63134 11.0988L9.38134 12.3978L10.1313 13.6969L11.6469 12.8219L10.8969 11.5228ZM9.38134 12.3978L8.0823 13.1478L8.08767 13.1571L9.38671 12.4071L10.6857 11.6571L10.6804 11.6478L9.38134 12.3978ZM9.38671 12.4071L8.63671 11.1081L6.68815 12.2331L7.43815 13.5321L8.18815 14.8312L10.1367 13.7062L9.38671 12.4071ZM7.43815 13.5321L6.68815 12.2331C6.09042 12.5782 5.32583 12.3734 4.98057 11.7755L3.68158 12.5256L2.38259 13.2756C3.5562 15.3081 6.15537 16.0048 8.18815 14.8312L7.43815 13.5321ZM3.68158 12.5256L4.98062 11.7756C4.76983 11.4105 4.76366 10.9812 4.93569 10.6162L3.5789 9.97661L2.22211 9.33698C1.6514 10.5476 1.65646 12.0179 2.38254 13.2756L3.68158 12.5256ZM3.5789 9.97661L2.55521 11.073C3.2403 11.7127 4.06086 12.1635 4.93643 12.4072L5.33869 10.9622L5.74094 9.5171C5.31889 9.39961 4.92734 9.18345 4.60259 8.88022L3.5789 9.97661ZM5.33869 10.9622L3.88693 10.5848C3.74604 11.1268 3.80344 11.7366 4.11459 12.2756L5.41363 11.5256L6.71267 10.7756C6.81875 10.9593 6.83571 11.1654 6.79045 11.3395L5.33869 10.9622ZM5.41363 11.5256L4.11477 12.2759C4.73599 13.3512 6.11173 13.7206 7.18815 13.0991L6.43815 11.8001L5.68815 10.501C6.04723 10.2937 6.50557 10.4171 6.71249 10.7752L5.41363 11.5256ZM6.43815 11.8001L7.18815 13.0991L9.13671 11.9741L8.38671 10.6751L7.63671 9.37603L5.68815 10.501L6.43815 11.8001ZM8.38671 10.6751L9.68574 9.92507L9.68037 9.91577L8.38134 10.6658L7.0823 11.4158L7.08767 11.4251L8.38671 10.6751ZM8.38134 10.6658L9.13134 11.9648L10.6469 11.0898L9.89688 9.79077L9.14688 8.49173L7.63134 9.36673L8.38134 10.6658ZM9.89688 9.79077L10.6469 11.0898C11.723 10.4685 12.0918 9.09241 11.4704 8.01625L10.1714 8.76625L8.87236 9.51625C8.66525 9.15753 8.78816 8.69884 9.14688 8.49173L9.89688 9.79077ZM10.1714 8.76625L11.4704 8.01625C10.8491 6.94009 9.47304 6.57137 8.39688 7.19269L9.14688 8.49173L9.89688 9.79077C9.53816 9.99788 9.07947 9.87497 8.87236 9.51625L10.1714 8.76625ZM9.14688 8.49173L8.39688 7.19269L7.09784 7.94269L7.84784 9.24173L8.59784 10.5408L9.89688 9.79077L9.14688 8.49173ZM7.84784 9.24173L7.09784 7.94269C6.49998 8.28787 5.73549 8.08303 5.39031 7.48516L4.09127 8.23516L2.79223 8.98516C3.96584 11.0179 6.5651 11.7144 8.59784 10.5408L7.84784 9.24173ZM4.09127 8.23516L5.39031 7.48516C5.04513 6.8873 5.24998 6.12281 5.84784 5.77763L5.09784 4.47859L4.34784 3.17955C2.3151 4.35316 1.61863 6.95242 2.79223 8.98516L4.09127 8.23516ZM5.09784 4.47859L5.84784 5.77763L9.31194 3.77763L8.56194 2.47859L7.81194 1.17955L4.34784 3.17955L5.09784 4.47859Z" fill="#FF845B" mask="url(#path-1-outside-1_151_443)"/>
</svg>
