<svg width="16" height="16" viewBox="0 0 16 16" fill="none" xmlns="http://www.w3.org/2000/svg">
<path d="M10 2C11.4 2 12.1 2.00007 12.6348 2.27246C13.1052 2.51214 13.4879 2.89483 13.7275 3.36523C13.9999 3.89999 14 4.60002 14 6V10C14 11.4 13.9999 12.1 13.7275 12.6348C13.4879 13.1052 13.1052 13.4879 12.6348 13.7275C12.1 13.9999 11.4 14 10 14H6C4.60002 14 3.89999 13.9999 3.36523 13.7275C2.89483 13.4879 2.51214 13.1052 2.27246 12.6348C2.00007 12.1 2 11.4 2 10V6C2 4.60002 2.00007 3.89999 2.27246 3.36523C2.51214 2.89483 2.89483 2.51214 3.36523 2.27246C3.89999 2.00007 4.60002 2 6 2H10ZM10.707 4.20703C10.3165 3.81658 9.6812 3.81706 9.23438 4.1416C8.27095 4.84134 6.94218 5.5 6 5.5H5.83496C5.35167 5.5 4.93704 5.8458 4.85059 6.32129L4.14355 10.2129C4.09997 10.4537 4.39212 10.6071 4.56543 10.4346L6.5 8.5C6.5 7.93596 6.93596 7.5 7.5 7.5C8.06404 7.5 8.5 7.93596 8.5 8.5C8.5 9.06404 8.06404 9.5 7.5 9.5L5.56543 11.4346C5.39294 11.6079 5.54632 11.9 5.78711 11.8564L9.67871 11.1494C10.1542 11.063 10.5 10.6483 10.5 10.165V10C10.5 9.05782 11.1587 7.72905 11.8584 6.76562C12.1829 6.3188 12.1834 5.6835 11.793 5.29297L10.707 4.20703Z" fill="#FF845B"/>
</svg>
