<svg width="16" height="16" viewBox="0 0 16 16" fill="none" xmlns="http://www.w3.org/2000/svg">
<path d="M15 12.3028V13.4247C15 13.7424 14.7424 14 14.4247 14H14L13.9743 13.923L13.9743 13.9229C13.9567 13.87 13.9478 13.8435 13.9392 13.8197C13.659 13.0451 12.9326 12.5215 12.1091 12.5006C12.0838 12.5 12.0559 12.5 12 12.5L10.0516 13.1495C6.13307 14.4556 1.88923 12.3898 0.5 8.5H1.5C3.13587 9.48152 5.00774 10 6.91548 10H7.5L2.0757 5.47975C1.86409 5.30341 1.75828 5.21523 1.68221 5.10715C1.61481 5.01138 1.56476 4.90451 1.53434 4.79143C1.5 4.6638 1.5 4.52606 1.5 4.2506V4H2.07156C2.2311 4 2.31088 4 2.38856 4.0123C2.45754 4.02321 2.52518 4.04133 2.59038 4.06634C2.66382 4.09451 2.73291 4.13437 2.87111 4.2141L2.87111 4.2141L5.75 5.875L3.93848 3.96284L3.93847 3.96283C3.77647 3.79183 3.69547 3.70633 3.63763 3.60781C3.58634 3.52044 3.54862 3.42578 3.52577 3.32708C3.5 3.21578 3.5 3.098 3.5 2.86244V2.5H3.92886C4.14046 2.5 4.24626 2.5 4.34731 2.52109C4.43695 2.53979 4.5236 2.57072 4.60483 2.61301C4.69638 2.66068 4.77827 2.72767 4.94204 2.86167L10 7C10 5.37722 9.47367 3.79822 8.5 2.5V1.5L9.33984 1.84993C12.3523 3.10513 14.0838 6.28913 13.5 9.5C14.4371 10.1247 15 11.1765 15 12.3028Z" fill="#FF845B"/>
</svg>
