<svg width="16" height="16" viewBox="0 0 16 16" fill="none" xmlns="http://www.w3.org/2000/svg">
<path d="M4 8C2.03177 8 1.01226 9.05413 0.496869 9.97681C0.383522 10.1797 0.848204 10.4781 1.06411 10.3921C1.3201 10.29 1.62955 10.2222 2 10.2222C4.5 10.2222 4.5 13 8 13C9.96823 13 10.9877 11.9459 11.5031 11.0232C11.6165 10.8203 11.1518 10.5219 10.9359 10.6079C10.6799 10.71 10.3704 10.7778 10 10.7778C7.5 10.7778 7.5 8 4 8Z" fill="#5CBAFD"/>
<path d="M8 3C6.03177 3 5.01226 4.05413 4.49687 4.97681C4.38352 5.17973 4.8482 5.47813 5.06411 5.39205C5.3201 5.28999 5.62955 5.22222 6 5.22222C8.5 5.22222 8.5 8 12 8C13.9682 8 14.9877 6.94587 15.5031 6.02319C15.6165 5.82027 15.1518 5.52187 14.9359 5.60795C14.6799 5.71001 14.3704 5.77778 14 5.77778C11.5 5.77778 11.5 3 8 3Z" fill="#5CBAFD"/>
</svg>
