<svg width="16" height="16" viewBox="0 0 16 16" fill="none" xmlns="http://www.w3.org/2000/svg">
<path d="M9.6748 1C10.1638 1 10.4085 1.00041 10.6387 1.05566C10.8426 1.10466 11.0379 1.18532 11.2168 1.29492C11.4185 1.41859 11.5917 1.59174 11.9375 1.9375L13.0625 3.0625C13.4083 3.40826 13.5814 3.58148 13.7051 3.7832C13.8147 3.96206 13.8953 4.15736 13.9443 4.36133C13.9996 4.59146 14 4.83621 14 5.3252V10C14 11.4 13.9999 12.1 13.7275 12.6348C13.4879 13.1052 13.1052 13.4879 12.6348 13.7275C12.1 13.9999 11.4 14 10 14H7C5.60002 14 4.89999 13.9999 4.36523 13.7275C3.89483 13.4879 3.51214 13.1052 3.27246 12.6348C3.00007 12.1 3 11.4 3 10V5C3 3.60002 3.00007 2.89999 3.27246 2.36523C3.51214 1.89483 3.89483 1.51214 4.36523 1.27246C4.89999 1.00007 5.60002 1 7 1H9.6748ZM6 10C5.72386 10 5.5 10.2239 5.5 10.5V11C5.5 11.2761 5.72386 11.5 6 11.5H8.5C8.77614 11.5 9 11.2761 9 11V10.5C9 10.2239 8.77614 10 8.5 10H6ZM6 7.5C5.72386 7.5 5.5 7.72386 5.5 8V8.5C5.5 8.77614 5.72386 9 6 9H11C11.2761 9 11.5 8.77614 11.5 8.5V8C11.5 7.72386 11.2761 7.5 11 7.5H6ZM6 5C5.72386 5 5.5 5.22386 5.5 5.5V6C5.5 6.27614 5.72386 6.5 6 6.5H11C11.2761 6.5 11.5 6.27614 11.5 6V5.5C11.5 5.22386 11.2761 5 11 5H6Z" fill="#9595AC"/>
</svg>
