<svg width="16" height="16" viewBox="0 0 16 16" fill="none" xmlns="http://www.w3.org/2000/svg">
<path d="M8 1C11.866 1 15 4.13401 15 8C15 11.866 11.866 15 8 15C4.13401 15 1 11.866 1 8C1 4.13401 4.13401 1 8 1ZM11.5303 5.96973C11.2557 5.69512 10.8209 5.67766 10.5264 5.91797L10.4697 5.96973L7 9.43945L5.53027 7.96973L5.47363 7.91797C5.17905 7.67766 4.74433 7.69512 4.46973 7.96973C4.19512 8.24433 4.17766 8.67905 4.41797 8.97363L4.46973 9.03027L6.46973 11.0303C6.76262 11.3232 7.23738 11.3232 7.53027 11.0303L11.5303 7.03027L11.582 6.97363C11.8223 6.67905 11.8049 6.24433 11.5303 5.96973Z" fill="#84D877"/>
</svg>
