<svg width="16" height="16" viewBox="0 0 16 16" fill="none" xmlns="http://www.w3.org/2000/svg">
<path d="M9.7998 3C10.9199 3 11.4804 2.99979 11.9082 3.21777C12.2845 3.40951 12.5905 3.71554 12.7822 4.0918C13.0002 4.51962 13 5.08009 13 6.2002V9.7998C13 10.9199 13.0002 11.4804 12.7822 11.9082C12.5905 12.2845 12.2845 12.5905 11.9082 12.7822C11.4804 13.0002 10.9199 13 9.7998 13H6.2002C5.08009 13 4.51962 13.0002 4.0918 12.7822C3.71554 12.5905 3.40951 12.2845 3.21777 11.9082C2.99979 11.4804 3 10.9199 3 9.7998V6.2002C3 5.08009 2.99979 4.51962 3.21777 4.0918C3.40951 3.71554 3.71554 3.40951 4.0918 3.21777C4.51962 2.99979 5.08009 3 6.2002 3H9.7998ZM6.5 5C6.22386 5 6 5.22386 6 5.5C6 5.77614 6.22386 6 6.5 6H7.5V10.5C7.5 10.7761 7.72386 11 8 11C8.27614 11 8.5 10.7761 8.5 10.5V6H9.5C9.77614 6 10 5.77614 10 5.5C10 5.22386 9.77614 5 9.5 5H6.5Z" fill="#5D80FF"/>
</svg>
