<svg width="16" height="16" viewBox="0 0 16 16" fill="none" xmlns="http://www.w3.org/2000/svg">
<path d="M4.83301 2C4.988 2 5.0663 1.99957 5.12988 2.0166C5.30216 2.06289 5.43711 2.19784 5.4834 2.37012C5.50044 2.4337 5.5 2.512 5.5 2.66699V2.75C5.5 2.98297 5.49997 3.09952 5.46191 3.19141C5.41117 3.31387 5.31387 3.41117 5.19141 3.46192C5.09952 3.49998 4.98297 3.5 4.75 3.5H4.59961C4.03982 3.5 3.75976 3.50041 3.5459 3.60938C3.35793 3.70522 3.20522 3.85793 3.10938 4.0459C3.00041 4.25976 3 4.53982 3 5.09961V10.9004C3 11.4602 3.00041 11.7402 3.10938 11.9541C3.20521 12.1421 3.35793 12.2948 3.5459 12.3906C3.75976 12.4996 4.03982 12.5 4.59961 12.5H4.75C4.98297 12.5 5.09952 12.5 5.19141 12.5381C5.31387 12.5888 5.41117 12.6861 5.46191 12.8086C5.49997 12.9005 5.5 13.017 5.5 13.25V13.333C5.5 13.488 5.50044 13.5663 5.4834 13.6299C5.43711 13.8022 5.30216 13.9371 5.12988 13.9834C5.0663 14.0004 4.988 14 4.83301 14C4.05825 14 3.67041 14.0002 3.35254 13.915C2.49008 13.6838 1.81618 13.0099 1.58496 12.1475C1.49979 11.8296 1.5 11.4418 1.5 10.667V5.33301C1.5 4.55825 1.49979 4.17041 1.58496 3.85254C1.81618 2.99008 2.49008 2.31618 3.35254 2.08496C3.67041 1.99979 4.05825 2 4.83301 2ZM11.667 2C12.4418 2 12.8296 1.99979 13.1475 2.08496C14.0099 2.31618 14.6838 2.99008 14.915 3.85254C15.0002 4.17041 15 4.55825 15 5.33301V10.667C15 11.4418 15.0002 11.8296 14.915 12.1475C14.6838 13.0099 14.0099 13.6838 13.1475 13.915C12.8296 14.0002 12.4418 14 11.667 14C11.512 14 11.4337 14.0004 11.3701 13.9834C11.1978 13.9371 11.0629 13.8022 11.0166 13.6299C10.9996 13.5663 11 13.488 11 13.333V13.25C11 13.017 11 12.9005 11.0381 12.8086C11.0888 12.6861 11.1861 12.5888 11.3086 12.5381C11.4005 12.5 11.517 12.5 11.75 12.5H11.9004C12.4602 12.5 12.7402 12.4996 12.9541 12.3906C13.1421 12.2948 13.2948 12.1421 13.3906 11.9541C13.4996 11.7402 13.5 11.4602 13.5 10.9004V5.09961C13.5 4.53982 13.4996 4.25976 13.3906 4.0459C13.2948 3.85793 13.1421 3.70522 12.9541 3.60938C12.7402 3.50041 12.4602 3.5 11.9004 3.5H11.75C11.517 3.5 11.4005 3.49998 11.3086 3.46192C11.1861 3.41117 11.0888 3.31387 11.0381 3.19141C11 3.09952 11 2.98297 11 2.75V2.66699C11 2.512 10.9996 2.4337 11.0166 2.37012C11.0629 2.19784 11.1978 2.06289 11.3701 2.0166C11.4337 1.99957 11.512 2 11.667 2Z" fill="#5D80FF"/>
<path d="M7.5 6.5H6.25C6.01703 6.5 5.90054 6.5 5.80866 6.46194C5.68614 6.41119 5.58881 6.31386 5.53806 6.19134C5.5 6.09946 5.5 5.98297 5.5 5.75C5.5 5.51703 5.5 5.40054 5.53806 5.30866C5.58881 5.18614 5.68614 5.08881 5.80866 5.03806C5.90054 5 6.01703 5 6.25 5H10.25C10.483 5 10.5995 5 10.6913 5.03806C10.8139 5.08881 10.9112 5.18614 10.9619 5.30866C11 5.40054 11 5.51703 11 5.75C11 5.98297 11 6.09946 10.9619 6.19134C10.9112 6.31386 10.8139 6.41119 10.6913 6.46194C10.5995 6.5 10.483 6.5 10.25 6.5H9V10.75C9 10.983 9 11.0995 8.96194 11.1913C8.91119 11.3139 8.81386 11.4112 8.69134 11.4619C8.59946 11.5 8.48297 11.5 8.25 11.5C8.01703 11.5 7.90054 11.5 7.80866 11.4619C7.68614 11.4112 7.58881 11.3139 7.53806 11.1913C7.5 11.0995 7.5 10.983 7.5 10.75V6.5Z" fill="#BEBED1"/>
</svg>
