<svg width="16" height="16" viewBox="0 0 16 16" fill="none" xmlns="http://www.w3.org/2000/svg">
<path d="M9.99992 2.99992C11.3998 2.99992 12.0999 3.00003 12.6347 3.27238C13.1051 3.51206 13.4878 3.89475 13.7275 4.36515C13.9999 4.89991 13.9999 5.59991 13.9999 6.99992V9.99992C13.9999 11.3999 13.9998 12.0999 13.7275 12.6347C13.4878 13.1051 13.1051 13.4878 12.6347 13.7275C12.0999 13.9998 11.3999 13.9999 9.99992 13.9999H6.99992C5.59991 13.9999 4.89991 13.9999 4.36515 13.7275C3.89475 13.4878 3.51206 13.1051 3.27238 12.6347C3.00004 12.0999 2.99992 11.3998 2.99992 9.99992V6.99992C5.20906 6.99992 6.99992 5.20905 6.99992 2.99992H9.99992ZM4.99992 6.99992C4.72384 6.99996 4.49997 7.22384 4.49992 7.49992C4.49992 7.77603 4.72381 7.99987 4.99992 7.99992H5.99992V12.4999C5.99992 12.776 6.22381 12.9999 6.49992 12.9999C6.77606 12.9999 6.99992 12.7761 6.99992 12.4999V7.99992H7.99992C8.27606 7.99992 8.49992 7.77606 8.49992 7.49992C8.49987 7.22382 8.27603 6.99992 7.99992 6.99992H4.99992ZM10.7499 6.99992C9.78349 6.99996 8.99997 7.78349 8.99992 8.74992C8.99992 9.71639 9.78346 10.4999 10.7499 10.4999H11.2499C11.6641 10.4999 11.9999 10.8357 11.9999 11.2499C11.9999 11.6641 11.6641 11.9999 11.2499 11.9999H10.9267C10.5481 11.9998 10.2015 11.7859 10.0321 11.4472L9.94718 11.2763L9.8925 11.1903C9.74882 11.0078 9.49218 10.9447 9.27629 11.0527C9.06025 11.1607 8.95644 11.4042 9.01652 11.6288L9.05265 11.7235L9.13859 11.8944C9.47737 12.5717 10.1694 12.9998 10.9267 12.9999H11.2499C12.2164 12.9999 12.9999 12.2164 12.9999 11.2499C12.9999 10.2835 12.2164 9.49992 11.2499 9.49992H10.7499C10.3357 9.49987 9.99992 9.1641 9.99992 8.74992C9.99997 8.33577 10.3358 7.99996 10.7499 7.99992H11.0732C11.4518 8.00003 11.7983 8.21402 11.9677 8.55265L12.0527 8.72355L12.1073 8.80949C12.251 8.99205 12.5076 9.05513 12.7236 8.94718C12.9396 8.83914 13.0435 8.59563 12.9833 8.37101L12.9472 8.27628L12.8612 8.10538C12.5224 7.42812 11.8304 7.00003 11.0732 6.99992H10.7499Z" fill="#5D80FF"/>
<path d="M3.79102 0.108398C4.29528 0.246024 4.74623 0.510272 5.10742 0.867188C4.99273 1.14448 5.00341 1.47004 5.16504 1.75C5.32641 2.02949 5.60249 2.20053 5.89941 2.24023C5.96289 2.48315 6 2.73719 6 3C6 3.26248 5.96274 3.51615 5.89941 3.75879C5.60244 3.79846 5.32643 3.97047 5.16504 4.25C5.00357 4.52968 4.9931 4.85472 5.10742 5.13184C4.74621 5.48894 4.29541 5.75292 3.79102 5.89062C3.60815 5.65361 3.32251 5.5 3 5.5C2.67727 5.5 2.39085 5.65334 2.20801 5.89062C1.70375 5.75278 1.25268 5.48897 0.891602 5.13184C1.00607 4.85465 0.996495 4.52979 0.834961 4.25C0.673398 3.97016 0.396948 3.79821 0.0996094 3.75879C0.0363262 3.51622 0 3.26239 0 3C0 2.73728 0.0361721 2.48307 0.0996094 2.24023C0.3969 2.20078 0.673421 2.0298 0.834961 1.75C0.996657 1.46993 1.00644 1.14456 0.891602 0.867188C1.25266 0.510241 1.70388 0.246158 2.20801 0.108398C2.39083 0.346035 2.677 0.5 3 0.5C3.32279 0.5 3.60818 0.345765 3.79102 0.108398ZM3 2C2.44772 2 2 2.44772 2 3C2 3.55228 2.44772 4 3 4C3.55228 4 4 3.55228 4 3C4 2.44772 3.55228 2 3 2Z" fill="#9595AC"/>
</svg>
