<svg width="16" height="16" viewBox="0 0 16 16" fill="none" xmlns="http://www.w3.org/2000/svg">
<path d="M6.75 5H8.25L9.75 2H10C10.7489 2 11.2974 2.00127 11.7275 2.04297L10.25 5H11.75L12.999 2.50098C13.3029 2.72889 13.5534 3.0234 13.7275 3.36523C13.9999 3.89999 14 4.60002 14 6V10C14 11.4 13.9999 12.1 13.7275 12.6348C13.4879 13.1052 13.1052 13.4879 12.6348 13.7275C12.1 13.9999 11.4 14 10 14H6C4.60002 14 3.89999 13.9999 3.36523 13.7275C2.89483 13.4879 2.51214 13.1052 2.27246 12.6348C2.00007 12.1 2 11.4 2 10V6C2 4.60002 2.00007 3.89999 2.27246 3.36523C2.51214 2.89483 2.89483 2.51214 3.36523 2.27246C3.70894 2.09738 4.12092 2.03504 4.74316 2.0127L3.25 5H4.75L6.25 2H8.25L6.75 5ZM6.44238 6.85352C6.30279 6.86982 6.1758 6.94351 6.09375 7.05762C5.99972 7.18839 6 7.41223 6 7.85938V10.5049C6 10.9905 6.00032 11.2334 6.10156 11.3672C6.18967 11.4836 6.32399 11.5556 6.46973 11.5645C6.63725 11.5745 6.84011 11.4403 7.24414 11.1709L9.4082 9.72754C9.76902 9.48699 9.94969 9.36658 10.0068 9.21875C10.0566 9.08978 10.0503 8.94579 9.99023 8.82129C9.92124 8.67877 9.73199 8.57355 9.35352 8.36328L7.18848 7.16016C6.7978 6.94311 6.60231 6.83502 6.44238 6.85352Z" fill="#AB7AFF"/>
</svg>
