<svg width="16" height="16" viewBox="0 0 16 16" fill="none" xmlns="http://www.w3.org/2000/svg">
<path fill-rule="evenodd" clip-rule="evenodd" d="M10.6911 14.2297C11.1711 14.6868 11.8943 14.7747 12.4698 14.4458L14.2442 13.4319C14.7116 13.1648 15 12.6678 15 12.1295V3.87048C15 3.3322 14.7116 2.83518 14.2442 2.56812L12.4698 1.55419C11.8943 1.22531 11.1711 1.3132 10.6911 1.77035L5.82701 6.40284L3.06268 4.40638C2.72432 4.16201 2.26977 4.15349 1.92249 4.38501L1.4453 4.70313C1.1671 4.8886 1 5.20083 1 5.53518V10.4648C1 10.7992 1.1671 11.1114 1.4453 11.2969L1.92249 11.615C2.26977 11.8465 2.72432 11.838 3.06268 11.5936L5.82701 9.59716L10.6911 14.2297ZM11.5 10.5L8.03846 8L11.5 5.5V10.5ZM2.5 6.42857L4.15 8L2.5 9.57143V6.42857Z" fill="#AB7AFF"/>
</svg>
