<svg width="16" height="16" viewBox="0 0 16 16" fill="none" xmlns="http://www.w3.org/2000/svg">
<path d="M13.2367 3.07058C14.5934 2.57074 15.8025 4.09068 15.0101 5.30007L9.25426 14.0852C8.66195 14.9888 7.3377 14.9889 6.74547 14.0852L0.989615 5.30007C0.19748 4.0907 1.40641 2.57077 2.76305 3.07058L3.50036 3.34206V5.00027C3.50045 6.3809 4.6197 7.50027 6.00036 7.50027H6.50036V10.1487C6.50051 11.8952 8.7776 12.5641 9.72204 11.095L13.267 5.58132C13.7977 4.7553 13.6283 3.77012 13.0472 3.13992L13.2367 3.07058ZM9.75231 5.50027L9.50036 5.89187V5.50027H9.75231ZM6.64391 4.50027H6.50036V4.44656L6.64391 4.50027Z" fill="#5D80FF"/>
<path d="M9.67696 0.220507L5.8356 0.860733C5.35341 0.941098 5 1.35829 5 1.84713V5C5 5.55228 5.44772 6 6 6H8V10.1488C8 10.3983 8.32537 10.4939 8.46029 10.284L12.0048 4.77038C12.2187 4.43762 11.9798 4 11.5842 4H10.5L10.8336 1.33094C10.9166 0.667055 10.3369 0.110517 9.67696 0.220507Z" fill="#FFAD4C"/>
</svg>
