<svg width="16" height="16" viewBox="0 0 16 16" fill="none" xmlns="http://www.w3.org/2000/svg">
<path d="M13.2366 3.0705C14.5933 2.57066 15.8024 4.09059 15.0101 5.29999L9.25423 14.0851C8.66191 14.9887 7.33767 14.9888 6.74544 14.0851L0.989578 5.29999C0.197443 4.09062 1.40638 2.57068 2.76302 3.0705L3.50032 3.34198V5.00018C3.50042 6.38081 4.61967 7.50018 6.00032 7.50018H6.50032V10.1486C6.50048 11.8951 8.77756 12.564 9.722 11.0949L13.2669 5.58124C13.7977 4.75521 13.6283 3.77003 13.0472 3.13983L13.2366 3.0705ZM9.75227 5.50018L9.50032 5.89178V5.50018H9.75227ZM6.64388 4.50018H6.50032V4.44647L6.64388 4.50018Z" fill="#5D80FF"/>
<path d="M9.67696 0.220507L5.8356 0.860733C5.35341 0.941098 5 1.35829 5 1.84713V5C5 5.55228 5.44772 6 6 6H8V10.1488C8 10.3983 8.32537 10.4939 8.46029 10.284L12.0048 4.77038C12.2187 4.43762 11.9798 4 11.5842 4H10.5L10.8336 1.33094C10.9166 0.667055 10.3369 0.110517 9.67696 0.220507Z" fill="#FFAD4C"/>
</svg>
