<svg width="16" height="16" viewBox="0 0 16 16" fill="none" xmlns="http://www.w3.org/2000/svg">
<path fill-rule="evenodd" clip-rule="evenodd" d="M10.6899 14.1899C11.1682 14.6682 11.9074 14.7672 12.4947 14.4316L14.2442 13.4319C14.7116 13.1648 15 12.6678 15 12.1295V3.87048C15 3.3322 14.7116 2.83518 14.2442 2.56812L12.4947 1.56842C11.9074 1.23282 11.1682 1.33182 10.6899 1.81013L6.11667 6.38333L3.2838 4.21703C3.11404 4.08721 2.88054 4.07964 2.70273 4.19818L2.00747 4.66169C1.74494 4.83671 1.70816 5.20816 1.93127 5.43127L4.5 8L1.93127 10.5687C1.70816 10.7918 1.74494 11.1633 2.00747 11.3383L2.70273 11.8018C2.88054 11.9204 3.11404 11.9128 3.2838 11.783L6.11667 9.61667L10.6899 14.1899ZM11.5 10.5L8.23077 8L11.5 5.5V10.5Z" fill="#5D80FF"/>
</svg>
