<svg width="16" height="16" viewBox="0 0 16 16" fill="none" xmlns="http://www.w3.org/2000/svg">
<path d="M5.07129 3.92872C5.95739 3.04262 7.24423 2.68632 8.45996 2.99025L10.0762 3.39455C10.3551 3.46428 10.6163 3.5929 10.8408 3.77247L12.3711 4.99708C12.7686 5.31517 13 5.79659 13 6.30568C13 6.75026 12.8231 7.17686 12.5088 7.49122L11.2256 8.7754C11.0815 8.91953 11.0001 9.11458 11 9.31837V9.33205C11 9.44256 11.0258 9.55155 11.0752 9.6504C11.3509 10.2019 11.7982 10.6491 12.3496 10.9248L12.5 11C12.9488 11.2992 13.3502 11.6586 13.6963 12.0645C12.4267 13.8407 10.3497 15 8 15C7.3048 15 6.63388 14.8967 6 14.708V13.9141C6 13.6387 6.02308 13.3635 6.06836 13.0918L6.41504 11.0078C6.46813 10.6893 6.36409 10.3651 6.13574 10.1367L5.5 9.50001C5.5 9.77616 5.27614 10 5 10H4.84277C4.41491 10 4.10033 9.59772 4.2041 9.18263L4.37304 8.50783C4.44915 8.20339 4.32555 7.88404 4.06445 7.70997L3.93066 7.62013C3.51615 7.34379 3.55441 6.72281 4 6.50001C3.71319 6.21311 3.68139 5.75913 3.9248 5.43458L4.93945 4.08107C4.9798 4.02729 5.02376 3.97629 5.07129 3.92872Z" fill="#F2C57E"/>
<path d="M7.99972 0.999512C11.8656 0.999512 14.9995 4.13374 14.9997 7.99951C14.9997 9.14127 14.7238 10.2182 14.239 11.1704C14.0011 10.9171 13.7438 10.6814 13.4685 10.4663C13.8084 9.71371 13.9997 8.879 13.9997 7.99951C13.9997 7.65319 13.9682 7.31414 13.9118 6.98389C13.9695 6.76414 13.9997 6.53624 13.9997 6.30518C13.9996 5.5432 13.6746 4.81979 13.111 4.31396L12.9948 4.21533L11.4655 2.9917C11.1709 2.75605 10.834 2.57809 10.4743 2.46729L10.3191 2.42334L10.0114 2.34619C9.65128 2.21805 9.27554 2.12248 8.88741 2.06494L8.70187 2.01904C7.24273 1.65441 5.70401 2.03268 4.58273 3.01611L4.36398 3.22021C4.35471 3.22949 4.34576 3.23909 4.33663 3.24854C2.91571 4.34568 1.99987 6.06549 1.99972 7.99951C1.99972 10.2367 3.22546 12.1866 5.04073 13.2183C5.01371 13.449 4.99974 13.6813 4.99972 13.9136V14.3247C2.63524 13.2011 0.999719 10.7916 0.999719 7.99951C0.999981 4.13384 4.13402 0.999664 7.99972 0.999512Z" fill="#AE3B3B"/>
<path d="M4.61927 6.5C4.8715 6.50001 5.12217 6.54039 5.36146 6.62012C5.82477 6.77455 5.90829 7.39501 5.50209 7.66602L5.19349 7.87109C5.06738 7.95512 4.91925 7.99999 4.76771 8H4.75013C4.58714 7.99999 4.42774 7.95174 4.29213 7.86133L3.9308 7.62012C3.54223 7.36107 3.55125 6.79875 3.92103 6.5459L4.00013 6.5H4.61927Z" fill="#AE3B3B"/>
<path d="M8 5.625V4.875C8 4.66789 8.16789 4.5 8.375 4.5C8.58211 4.5 8.75 4.66789 8.75 4.875V5.625C8.75 5.83211 8.58211 6 8.375 6C8.16789 6 8 5.83211 8 5.625Z" fill="#372118"/>
<path d="M5.5 5.625V4.875C5.5 4.66789 5.66789 4.5 5.875 4.5C6.08211 4.5 6.25 4.66789 6.25 4.875V5.625C6.25 5.83211 6.08211 6 5.875 6C5.66789 6 5.5 5.83211 5.5 5.625Z" fill="#372118"/>
<path d="M9.48028 7.99611C9.49215 8.07933 9.50078 8.16393 9.50078 8.25001C9.50078 9.18735 8.77375 9.97077 7.79473 10.1875C7.64479 10.4352 7.73125 10.792 8.03887 10.9151L8.77032 11.208C8.92359 11.2706 8.87939 11.4991 8.71367 11.5C8.0439 11.5 7.50084 12.0431 7.50078 12.7129V12.8106C7.5008 13.2568 7.65276 13.6896 7.93145 14.0381L8.67364 14.9668C8.4519 14.988 8.2271 15 7.99981 15C7.30495 15 6.6344 14.8966 6.00078 14.708V13.9141C6.00079 13.6387 6.02387 13.3634 6.06914 13.0918L6.41582 11.0078C6.46879 10.6895 6.36457 10.364 6.13653 10.1358L5.66485 9.66408C5.38707 9.41693 5.18083 9.10641 5.07793 8.75783C5.49025 9.35009 6.25162 9.75001 7.12578 9.75001C8.33797 9.74965 9.33608 8.98416 9.48028 7.99611ZM5.07207 3.92872C5.95811 3.04287 7.24424 2.68646 8.45977 2.99025L10.077 3.39454C10.3555 3.46428 10.6164 3.5932 10.8406 3.77247L12.3709 4.99708C12.7683 5.31513 12.9997 5.79667 12.9998 6.30568C12.9998 6.75002 12.8236 7.17692 12.5096 7.49122L11.2254 8.7754C11.0815 8.91946 10.9999 9.11477 10.9998 9.31837V9.33204C10.9998 9.3888 11.007 9.44523 11.0203 9.50001H10.9998C10.7539 9.74557 10.3391 9.67682 10.1834 9.36622C9.74415 8.48768 9.6308 7.47637 9.86895 6.52345L9.96172 6.15431C9.98719 6.05236 9.9998 5.94689 9.99981 5.84181V5.50001C9.99964 4.11959 8.88021 3.00026 7.49981 3.00001H6.97539C6.36635 3.00011 5.79671 3.30484 5.45879 3.81154C5.1596 4.26044 4.99982 4.78866 4.99981 5.32814V6.00001C4.99977 6.27598 4.77572 6.49977 4.49981 6.50001H3.99981C3.71334 6.21315 3.68143 5.75901 3.92461 5.43458L4.93926 4.08107C4.97964 4.02728 5.02452 3.97629 5.07207 3.92872Z" fill="#B46138"/>
<path d="M11.5166 10.291C11.742 10.5391 12.0098 10.747 12.3105 10.9033C10.9553 12.9623 8.41057 13.9019 6.04883 13.2285C6.05515 13.1829 6.06079 13.1372 6.06836 13.0918L6.21094 12.2324C8.20921 12.8566 10.3909 12.0617 11.5166 10.291Z" fill="#AE3B3B"/>
</svg>
