<svg width="16" height="16" viewBox="0 0 16 16" fill="none" xmlns="http://www.w3.org/2000/svg">
<path d="M5.07123 3.9287C5.95731 3.04264 7.24422 2.68634 8.4599 2.99022L10.0761 3.39452C10.355 3.46424 10.6162 3.59292 10.8408 3.77245L12.371 4.99706C12.7685 5.31512 12.9999 5.79661 12.9999 6.30565C12.9999 6.75021 12.8231 7.17684 12.5087 7.4912L11.8134 8.18651C11.1108 8.44652 10.5174 8.96523 10.1708 9.65819L9.31635 11.3662C9.10811 11.7827 8.99999 12.2424 8.99994 12.708V14.9258C8.67325 14.9726 8.33965 15 7.99994 15C7.30477 15 6.63381 14.8967 5.99994 14.708V13.9141C5.99995 13.6387 6.02303 13.3634 6.0683 13.0918L6.41498 11.0078C6.46803 10.6893 6.364 10.365 6.13568 10.1367L5.49994 9.49999C5.49994 9.77613 5.27608 9.99999 4.99994 9.99999H4.84272C4.41489 9.99995 4.10028 9.59767 4.20404 9.18261L4.37299 8.5078C4.44904 8.2034 4.32546 7.88399 4.0644 7.70995L3.93061 7.62011C3.51621 7.34373 3.5544 6.72276 3.99994 6.49999C3.71323 6.21308 3.68136 5.75907 3.92475 5.43456L4.9394 4.08104C4.97974 4.02728 5.02372 3.97625 5.07123 3.9287Z" fill="#F2C57E"/>
<path d="M7.99972 0.999512C11.8656 0.999512 14.9995 4.13374 14.9997 7.99951C14.9997 8.20872 14.9884 8.41606 14.9704 8.62061C14.6794 8.39755 14.3499 8.22717 13.9958 8.12256C13.9966 8.08178 13.9997 8.04048 13.9997 7.99951C13.9997 7.65319 13.9682 7.31414 13.9118 6.98389C13.9695 6.76414 13.9997 6.53624 13.9997 6.30518C13.9996 5.5432 13.6746 4.81979 13.111 4.31396L12.9948 4.21533L11.4655 2.9917C11.1709 2.75605 10.834 2.57809 10.4743 2.46729L10.3191 2.42334L10.0114 2.34619C9.65128 2.21805 9.27554 2.12248 8.88741 2.06494L8.70187 2.01904C7.24273 1.65441 5.70401 2.03268 4.58273 3.01611L4.36398 3.22021C4.35471 3.22949 4.34576 3.23909 4.33663 3.24854C2.91571 4.34568 1.99987 6.06549 1.99972 7.99951C1.99972 10.2367 3.22546 12.1866 5.04073 13.2183C5.01371 13.449 4.99974 13.6813 4.99972 13.9136V14.3247C2.63524 13.2011 0.999719 10.7916 0.999719 7.99951C0.999981 4.13384 4.13402 0.999664 7.99972 0.999512Z" fill="#AE3B3B"/>
<path d="M4.61927 6.5C4.8715 6.50001 5.12217 6.54039 5.36146 6.62012C5.82477 6.77455 5.90829 7.39501 5.50209 7.66602L5.19349 7.87109C5.06738 7.95512 4.91925 7.99999 4.76771 8H4.75013C4.58714 7.99999 4.42774 7.95174 4.29213 7.86133L3.9308 7.62012C3.54223 7.36107 3.55125 6.79875 3.92103 6.5459L4.00013 6.5H4.61927Z" fill="#AE3B3B"/>
<path d="M8 5.625V4.875C8 4.66789 8.16789 4.5 8.375 4.5C8.58211 4.5 8.75 4.66789 8.75 4.875V5.625C8.75 5.83211 8.58211 6 8.375 6C8.16789 6 8 5.83211 8 5.625Z" fill="#372118"/>
<path d="M5.5 5.625V4.875C5.5 4.66789 5.66789 4.5 5.875 4.5C6.08211 4.5 6.25 4.66789 6.25 4.875V5.625C6.25 5.83211 6.08211 6 5.875 6C5.66789 6 5.5 5.83211 5.5 5.625Z" fill="#372118"/>
<path d="M9.47985 7.99613C9.49173 8.07933 9.50035 8.16397 9.50036 8.25003C9.50036 9.18747 8.7735 9.9709 7.7943 10.1875C7.64436 10.4352 7.73083 10.792 8.03844 10.9151L8.76989 11.208C8.92367 11.2705 8.87938 11.4995 8.71325 11.5C8.0435 11.5 7.50046 12.0432 7.50036 12.7129V12.8106C7.50038 13.2568 7.65236 13.6896 7.93102 14.0381L8.67321 14.9668C8.45175 14.988 8.22735 15 8.00036 15C7.30532 15 6.63412 14.8967 6.00036 14.708V13.9141C6.00037 13.6388 6.02345 13.3634 6.06872 13.0918L6.4154 11.0078C6.46838 10.6895 6.36427 10.3641 6.1361 10.1358L5.66442 9.6641C5.38664 9.41694 5.1804 9.10644 5.07751 8.75785C5.4898 9.3502 6.25112 9.75003 7.12536 9.75003C8.33771 9.74983 9.33564 8.98427 9.47985 7.99613ZM5.07165 3.92874C5.95769 3.04279 7.24374 2.68646 8.45934 2.99027L10.0765 3.39457C10.3552 3.46428 10.6158 3.59315 10.8402 3.77249L12.3705 4.9971C12.768 5.31514 12.9993 5.79661 12.9994 6.3057C12.9994 6.75011 12.8233 7.17693 12.5091 7.49124L11.8138 8.18558C11.1712 8.42321 10.6197 8.87759 10.265 9.48343C10.2335 9.44918 10.2052 9.41055 10.183 9.36624C9.74376 8.48772 9.63038 7.47636 9.86852 6.52347L9.9613 6.15433C9.98677 6.05238 9.99938 5.94692 9.99938 5.84183V5.50003C9.99917 4.11953 8.87993 3.00008 7.49938 3.00003H6.97497C6.36588 3.00013 5.79628 3.30479 5.45837 3.81156C5.15919 4.26044 4.99941 4.78871 4.99938 5.32816V6.00003C4.99935 6.27612 4.77546 6.49999 4.49938 6.50003H3.99938C3.71295 6.21316 3.68102 5.75901 3.92419 5.4346L4.93883 4.08109C4.97924 4.02725 5.02406 3.97635 5.07165 3.92874Z" fill="#B46138"/>
<path d="M13.25 9C14.2165 9 15 9.7835 15 10.75V11.5L15.1025 11.5049C15.6067 11.5562 16 11.9823 16 12.5V14.5C16 15.3284 15.3284 16 14.5 16H11.5C10.6716 16 10 15.3284 10 14.5V12.5C10 11.9823 10.3933 11.5562 10.8975 11.5049L11 11.5V10.75C11 9.7835 11.7835 9 12.75 9H13.25ZM13 12.75C12.5858 12.75 12.25 13.0858 12.25 13.5C12.25 13.9142 12.5858 14.25 13 14.25C13.4142 14.25 13.75 13.9142 13.75 13.5C13.75 13.0858 13.4142 12.75 13 12.75ZM12.75 10C12.3358 10 12 10.3358 12 10.75V11.5H14V10.75C14 10.3358 13.6642 10 13.25 10H12.75Z" fill="#9595AC"/>
<path d="M9.04199 12.207C9.01404 12.372 9.00001 12.5396 9 12.708V13.2637C8.05074 13.5083 7.03404 13.5094 6.04883 13.2285C6.05515 13.1829 6.06079 13.1372 6.06836 13.0918L6.21094 12.2324C7.15783 12.5282 8.1446 12.5014 9.04199 12.207Z" fill="#AE3B3B"/>
</svg>
