<svg width="16" height="16" viewBox="0 0 16 16" fill="none" xmlns="http://www.w3.org/2000/svg">
<path d="M10.9268 2.00391C11.7395 2.01667 12.2336 2.06814 12.6348 2.27246C13.1052 2.51214 13.4879 2.89483 13.7275 3.36523C13.9999 3.89999 14 4.60002 14 6V10C14 11.4 13.9999 12.1 13.7275 12.6348C13.4879 13.1052 13.1052 13.4879 12.6348 13.7275C12.1 13.9999 11.4 14 10 14H6C4.60002 14 3.89999 13.9999 3.36523 13.7275C2.89483 13.4879 2.51214 13.1052 2.27246 12.6348C2.00007 12.1 2 11.4 2 10V6C2 4.60002 2.00007 3.89999 2.27246 3.36523C2.51214 2.89483 2.89483 2.51214 3.36523 2.27246C3.76636 2.06814 4.26046 2.01667 5.07324 2.00391L6 2C6 3.10457 6.89543 4 8 4C9.10457 4 10 3.10457 10 2L10.9268 2.00391ZM3.9375 8.00391C3.69791 8.03409 3.51888 8.22914 3.50098 8.46094L3.50391 8.5625L4.00391 12.5625C4.0354 12.8125 4.248 13 4.5 13H5C5.20445 13 5.38794 12.8754 5.46387 12.6855L6 11.3447L6.53613 12.6855C6.61206 12.8754 6.79555 13 7 13H7.5C7.752 13 7.9646 12.8125 7.99609 12.5625L8.49609 8.5625C8.53032 8.28865 8.33626 8.03839 8.0625 8.00391C7.78865 7.96968 7.53839 8.16374 7.50391 8.4375L7.125 11.4668L6.46387 9.81445C6.38794 9.62462 6.20445 9.5 6 9.5C5.8212 9.5 5.65822 9.59524 5.56934 9.74609L5.53613 9.81445L4.87402 11.4668L4.49609 8.4375L4.47363 8.33887C4.399 8.11875 4.17714 7.97395 3.9375 8.00391ZM10.75 8C10.0694 8 9.49555 8.50725 9.41113 9.18262L9.12891 11.4375L9.00391 12.4375C8.96968 12.7113 9.16374 12.9616 9.4375 12.9961C9.71135 13.0303 9.96161 12.8363 9.99609 12.5625L10.0664 12H11.4336L11.5039 12.5625L11.5264 12.6611C11.601 12.8813 11.8229 13.026 12.0625 12.9961C12.3021 12.9659 12.4811 12.7709 12.499 12.5391L12.4961 12.4375L12.3711 11.4375L12.0889 9.18262C12.0044 8.50725 11.4306 8 10.75 8ZM10.75 9C10.9263 9 11.0748 9.1317 11.0967 9.30664L11.3086 11H10.1914L10.4033 9.30664C10.4252 9.1317 10.5737 9 10.75 9Z" fill="#AB7AFF"/>
</svg>
