<svg width="16" height="16" viewBox="0 0 16 16" fill="none" xmlns="http://www.w3.org/2000/svg">
<path d="M8.83301 13C8.92506 13 9 13.0749 9 13.167C9.00014 13.9551 9.49833 14.6248 10.1963 14.8838C9.70795 14.9992 9.05149 15 8 15H2.5C1.67157 15 1 14.3284 1 13.5C1 13.2239 1.22386 13 1.5 13H8.83301ZM12.5 2C12.8557 2 13.1937 2.07509 13.5 2.20898C12.6172 2.59484 12 3.47498 12 4.5V11C12 12.4 11.9999 13.1 11.7275 13.6348C11.7087 13.6718 11.6866 13.7072 11.666 13.7432C11.489 13.9019 11.2565 14 11 14H10.833C10.373 13.9998 10.0002 13.627 10 13.167C10 12.5227 9.47734 12 8.83301 12H3.40039C3.26049 12 3.19018 11.9998 3.13672 11.9727C3.08968 11.9487 3.05131 11.9103 3.02734 11.8633C3.00016 11.8098 3 11.7395 3 11.5996V6C3 4.60002 3.00007 3.89999 3.27246 3.36523C3.51214 2.89483 3.89483 2.51214 4.36523 2.27246C4.89999 2.00007 5.60002 2 7 2H12.5ZM6.35352 6.14648C6.15825 5.95122 5.84175 5.95122 5.64648 6.14648L4.5 7.29297C4.10953 7.68348 4.10953 8.31652 4.5 8.70703L5.64648 9.85352L5.72461 9.91797C5.91869 10.0461 6.18265 10.0244 6.35352 9.85352C6.52438 9.68265 6.54613 9.41869 6.41797 9.22461L6.35352 9.14648L5.20703 8L6.35352 6.85352C6.54878 6.65825 6.54878 6.34175 6.35352 6.14648ZM9.35352 6.14648C9.15825 5.95122 8.84175 5.95122 8.64648 6.14648C8.45122 6.34175 8.45122 6.65825 8.64648 6.85352L9.79297 8L8.64648 9.14648L8.58203 9.22461C8.45387 9.41869 8.47562 9.68265 8.64648 9.85352C8.81735 10.0244 9.08131 10.0461 9.27539 9.91797L9.35352 9.85352L10.5 8.70703C10.8905 8.31652 10.8905 7.68348 10.5 7.29297L9.35352 6.14648ZM14.4961 3C14.8108 3.41817 15 3.93631 15 4.5C15 4.77614 14.7761 5 14.5 5H13V4.5C13 3.67288 13.6695 3.00211 14.4961 3Z" fill="#84D877"/>
</svg>
