<svg width="16" height="16" viewBox="0 0 16 16" fill="none" xmlns="http://www.w3.org/2000/svg">
<path d="M11.7998 3C12.9199 3 13.4804 2.99979 13.9082 3.21777C14.2845 3.40951 14.5905 3.71554 14.7822 4.0918C15.0002 4.51962 15 5.08009 15 6.2002V9.7998C15 10.9199 15.0002 11.4804 14.7822 11.9082C14.5905 12.2845 14.2845 12.5905 13.9082 12.7822C13.4804 13.0002 12.9199 13 11.7998 13H4.2002C3.08009 13 2.51962 13.0002 2.0918 12.7822C1.71554 12.5905 1.40951 12.2845 1.21777 11.9082C0.999786 11.4804 1 10.9199 1 9.7998V6.2002C1 5.08009 0.999786 4.51962 1.21777 4.0918C1.40951 3.71554 1.71554 3.40951 2.0918 3.21777C2.51962 2.99979 3.08009 3 4.2002 3H11.7998ZM9.18555 5.03613C8.96125 4.94641 8.71094 5.03046 8.58301 5.22461L8.53613 5.31445L6.53613 10.3145C6.43358 10.5708 6.55806 10.8613 6.81445 10.9639C7.07084 11.0664 7.36131 10.9419 7.46387 10.6855L9.46387 5.68555C9.56642 5.42916 9.44194 5.13869 9.18555 5.03613ZM5.85352 5.64648C5.68265 5.47562 5.41869 5.45387 5.22461 5.58203L5.14648 5.64648L3.14648 7.64648L3.08203 7.72461C2.95387 7.91869 2.97562 8.18265 3.14648 8.35352L5.14648 10.3535C5.34175 10.5488 5.65825 10.5488 5.85352 10.3535C6.04878 10.1583 6.04878 9.84175 5.85352 9.64648L4.20703 8L5.85352 6.35352L5.91797 6.27539C6.04613 6.08131 6.02438 5.81735 5.85352 5.64648ZM10.7754 5.58203C10.5813 5.45387 10.3173 5.47562 10.1465 5.64648C9.97562 5.81735 9.95387 6.08131 10.082 6.27539L10.1465 6.35352L11.793 8L10.1465 9.64648C9.95122 9.84175 9.95122 10.1583 10.1465 10.3535C10.3417 10.5488 10.6583 10.5488 10.8535 10.3535L12.8535 8.35352C13.0244 8.18265 13.0461 7.91869 12.918 7.72461L12.8535 7.64648L10.8535 5.64648L10.7754 5.58203Z" fill="#FF845B"/>
</svg>
