<svg width="16" height="16" viewBox="0 0 16 16" fill="none" xmlns="http://www.w3.org/2000/svg">
<path d="M1.5 5.33333V10.6667C1.5 11.4416 1.5 11.8291 1.58519 12.147C1.81635 13.0098 2.49022 13.6836 3.35295 13.9148C3.67087 14 4.05836 14 4.83333 14C4.98833 14 5.06583 14 5.12941 13.983C5.30196 13.9367 5.43673 13.802 5.48296 13.6294C5.5 13.5658 5.5 13.4883 5.5 13.3333V13.25C5.5 13.017 5.5 12.9005 5.46194 12.8087C5.41119 12.6861 5.31386 12.5888 5.19134 12.5381C5.09946 12.5 4.98297 12.5 4.75 12.5H4.6C4.03995 12.5 3.75992 12.5 3.54601 12.391C3.35785 12.2951 3.20487 12.1422 3.10899 11.954C3 11.7401 3 11.4601 3 10.9V5.1C3 4.53995 3 4.25992 3.10899 4.04601C3.20487 3.85785 3.35785 3.70487 3.54601 3.60899C3.75992 3.5 4.03995 3.5 4.6 3.5H4.75C4.98297 3.5 5.09946 3.5 5.19134 3.46194C5.31386 3.41119 5.41119 3.31386 5.46194 3.19134C5.5 3.09946 5.5 2.98297 5.5 2.75V2.66667C5.5 2.51167 5.5 2.43417 5.48296 2.37059C5.43673 2.19804 5.30195 2.06327 5.12941 2.01704C5.06583 2 4.98833 2 4.83333 2C4.05836 2 3.67087 2 3.35295 2.08519C2.49022 2.31635 1.81635 2.99022 1.58519 3.85295C1.5 4.17087 1.5 4.55836 1.5 5.33333Z" fill="#FF5B78"/>
<path d="M15 5.33333V10.6667C15 11.4416 15 11.8291 14.9148 12.147C14.6836 13.0098 14.0098 13.6836 13.147 13.9148C12.8291 14 12.4416 14 11.6667 14C11.5117 14 11.4342 14 11.3706 13.983C11.198 13.9367 11.0633 13.802 11.017 13.6294C11 13.5658 11 13.4883 11 13.3333V13.25C11 13.017 11 12.9005 11.0381 12.8087C11.0888 12.6861 11.1861 12.5888 11.3087 12.5381C11.4005 12.5 11.517 12.5 11.75 12.5H11.9C12.4601 12.5 12.7401 12.5 12.954 12.391C13.1422 12.2951 13.2951 12.1422 13.391 11.954C13.5 11.7401 13.5 11.4601 13.5 10.9V5.1C13.5 4.53995 13.5 4.25992 13.391 4.04601C13.2951 3.85785 13.1422 3.70487 12.954 3.60899C12.7401 3.5 12.4601 3.5 11.9 3.5H11.75C11.517 3.5 11.4005 3.5 11.3087 3.46194C11.1861 3.41119 11.0888 3.31386 11.0381 3.19134C11 3.09946 11 2.98297 11 2.75V2.66667C11 2.51167 11 2.43417 11.017 2.37059C11.0633 2.19804 11.198 2.06327 11.3706 2.01704C11.4342 2 11.5117 2 11.6667 2C12.4416 2 12.8291 2 13.147 2.08519C14.0098 2.31635 14.6836 2.99022 14.9148 3.85295C15 4.17087 15 4.55836 15 5.33333Z" fill="#FF5B78"/>
<path d="M6.69094 5C6.88033 5 7.05351 5.10698 7.13821 5.27637L8.24954 7.5L9.36184 5.27637C9.44655 5.107 9.61974 5 9.80911 5H10.5894C10.9838 5.00016 11.223 5.43576 11.0113 5.76855L8.99954 8.92871V10.75C8.99954 10.983 8.99951 11.0995 8.96145 11.1914C8.91068 11.3138 8.81338 11.4112 8.69094 11.4619C8.59911 11.4998 8.48223 11.5 8.24954 11.5C8.01719 11.5 7.90088 11.4998 7.80911 11.4619C7.68659 11.4112 7.58837 11.3139 7.53762 11.1914C7.4996 11.0995 7.49954 10.9829 7.49954 10.75V8.92773L5.4888 5.76855C5.27702 5.43574 5.51623 5.00012 5.91067 5H6.69094Z" fill="#BEBED1"/>
</svg>
