<svg width="16" height="16" viewBox="0 0 16 16" fill="none" xmlns="http://www.w3.org/2000/svg">
<path d="M12.791 9.1084C13.2953 9.24602 13.7462 9.51027 14.1074 9.86719C13.9927 10.1445 14.0034 10.47 14.165 10.75C14.3264 11.0295 14.6025 11.2005 14.8994 11.2402C14.9629 11.4831 15 11.7372 15 12C15 12.2625 14.9627 12.5162 14.8994 12.7588C14.6024 12.7985 14.3264 12.9705 14.165 13.25C14.0036 13.5297 13.9931 13.8547 14.1074 14.1318C13.7462 14.4889 13.2954 14.7529 12.791 14.8906C12.6082 14.6536 12.3225 14.5 12 14.5C11.6773 14.5 11.3909 14.6533 11.208 14.8906C10.7037 14.7528 10.2527 14.489 9.8916 14.1318C10.0061 13.8546 9.9965 13.5298 9.83496 13.25C9.6734 12.9702 9.39695 12.7982 9.09961 12.7588C9.03633 12.5162 9 12.2624 9 12C9 11.7373 9.03617 11.4831 9.09961 11.2402C9.3969 11.2008 9.67342 11.0298 9.83496 10.75C9.99666 10.4699 10.0064 10.1446 9.8916 9.86719C10.2527 9.51024 10.7039 9.24616 11.208 9.1084C11.3908 9.34604 11.677 9.5 12 9.5C12.3228 9.5 12.6082 9.34577 12.791 9.1084ZM12 11C11.4477 11 11 11.4477 11 12C11 12.5523 11.4477 13 12 13C12.5523 13 13 12.5523 13 12C13 11.4477 12.5523 11 12 11Z" fill="#9595AC"/>
<path d="M8.29214 1.31204C8.39112 1.16366 8.60922 1.16363 8.70816 1.31204L9.50015 2.49954L10.6711 2.1099C10.8329 2.05596 11.0002 2.17657 11.0002 2.3472V3.48587C11.0002 4.4729 10.7078 5.43802 10.1603 6.25931L9.00015 7.99954C9.27603 8.20645 9.51746 8.44696 9.72574 8.7095C8.68325 9.43139 8.00031 10.6356 8.00015 11.9995C8.00015 12.8677 8.27741 13.671 8.74722 14.3267C8.21072 14.4388 7.66321 14.4995 7.11148 14.4995H6.37808C6.12961 14.4995 5.8845 14.4417 5.66226 14.3306C5.33656 14.1677 5.2661 13.7336 5.52359 13.4761L6.00015 12.9995L5.00015 12.4995L4.72769 13.3159C4.5916 13.7242 4.20979 13.9995 3.77945 13.9995H3.41031C3.17204 13.9995 2.9669 13.8318 2.92007 13.5982L2.74332 12.7183C2.58737 11.9382 2.74834 11.1283 3.1896 10.4663L3.50015 9.99954V9.10599C3.50015 8.10293 4.00149 7.16532 4.83609 6.60892L5.00015 6.49954C4.38747 5.88675 4.17349 4.98083 4.44742 4.15872L4.50015 3.99954L5.50015 3.49954C5.80666 2.88692 6.43327 2.49954 7.11832 2.49954H7.50015L8.29214 1.31204Z" fill="#AB7AFF"/>
</svg>
