<svg width="16" height="16" viewBox="0 0 16 16" fill="none" xmlns="http://www.w3.org/2000/svg">
<path d="M8.2916 1.31219C8.39054 1.16378 8.60864 1.16382 8.70761 1.31219L9.49961 2.49969L10.6705 2.11004C10.8324 2.05608 10.9996 2.1767 10.9996 2.34734V3.48602C10.9996 4.47314 10.7073 5.43812 10.1598 6.25945L8.99961 7.99969C9.1311 8.09831 9.25422 8.20589 9.3707 8.31805C9.29752 8.42614 9.22989 8.53915 9.17051 8.65789L8.31699 10.3669C8.10875 10.7834 7.99961 11.243 7.99961 11.7087V14.4489C7.70551 14.4818 7.40929 14.4997 7.11191 14.4997H6.37754C6.12916 14.4996 5.88387 14.4418 5.66172 14.3307C5.33634 14.1677 5.26565 13.7336 5.52304 13.4762L5.99961 12.9997L4.99961 12.4997L4.72812 13.3161C4.59201 13.7244 4.20933 13.9997 3.7789 13.9997H3.40976C3.17156 13.9996 2.96635 13.8319 2.91953 13.5983L2.74375 12.7184C2.58776 11.9384 2.74792 11.1284 3.18906 10.4665L3.49961 9.99969V9.10516C3.49974 8.10228 4.00111 7.16539 4.83554 6.60906L4.99961 6.49969C4.38701 5.88683 4.17284 4.97998 4.44687 4.15789L4.49961 3.99969L5.49961 3.49969C5.80602 2.88696 6.4327 2.49979 7.11777 2.49969H7.49961L8.2916 1.31219Z" fill="#AB7AFF"/>
<path d="M12.25 8C13.2165 8 14 8.7835 14 9.75V10.5L14.1025 10.5049C14.6067 10.5562 15 10.9823 15 11.5V13.5C15 14.3284 14.3284 15 13.5 15H10.5C9.67157 15 9 14.3284 9 13.5V11.5C9 10.9823 9.39333 10.5562 9.89746 10.5049L10 10.5V9.75C10 8.7835 10.7835 8 11.75 8H12.25ZM12 11.75C11.5858 11.75 11.25 12.0858 11.25 12.5C11.25 12.9142 11.5858 13.25 12 13.25C12.4142 13.25 12.75 12.9142 12.75 12.5C12.75 12.0858 12.4142 11.75 12 11.75ZM11.75 9C11.3358 9 11 9.33579 11 9.75V10.5H13V9.75C13 9.33579 12.6642 9 12.25 9H11.75Z" fill="#9595AC"/>
</svg>
