<svg width="16" height="16" viewBox="0 0 16 16" fill="none" xmlns="http://www.w3.org/2000/svg">
<path d="M3.18929 10.4661L3.5 10V9.10555C3.5 8.10249 4.0013 7.1658 4.8359 6.6094L5 6.5C4.38713 5.88713 4.17313 4.98061 4.44721 4.15836L4.5 4L5.5 3.5C5.80643 2.88713 6.43283 2.5 7.11803 2.5H7.5L8.29199 1.31202C8.39094 1.16359 8.60906 1.16359 8.70801 1.31202L9.5 2.5L10.6709 2.10969C10.8328 2.05572 11 2.17622 11 2.34686V3.48612C11 4.47325 10.7078 5.43828 10.1603 6.25962L9 8C10.2221 8.91658 10.8093 10.4535 10.5097 11.9515L10.5 12L14.004 10.686C14.286 10.5803 14.6022 10.7044 14.7369 10.9738C14.8822 11.2644 14.7644 11.6178 14.4738 11.7631L10.6892 13.6554C9.57832 14.2108 8.35342 14.5 7.11146 14.5H6.37783C6.12936 14.5 5.8843 14.4421 5.66206 14.331C5.33635 14.1682 5.26591 13.7341 5.5234 13.4766L6 13L5 12.5L4.72792 13.3162C4.59181 13.7246 4.20967 14 3.77924 14H3.4099C3.17156 14 2.96635 13.8318 2.91961 13.5981L2.7437 12.7185C2.58766 11.9383 2.74795 11.1281 3.18929 10.4661Z" fill="#AB7AFF"/>
</svg>
