<svg width="16" height="16" viewBox="0 0 16 16" fill="none" xmlns="http://www.w3.org/2000/svg">
<path d="M6 13L2 15L10 4L14 2L6 13Z" fill="#FFAD4C"/>
<path d="M10.0381 13H3.46191L4.92285 11H11.5L10.0381 13ZM13.8857 4.20801C14.5457 4.53465 15 5.21369 15 6V11L14.9893 11.2041C14.8938 12.1457 14.1457 12.8938 13.2041 12.9893L13 13H11.5381L13 11V6H12.5771L13.8857 4.20801ZM3 11H3.42285L2.11328 12.792C1.51173 12.4938 1.08155 11.9025 1.01074 11.2041L1 11V6C1 4.96435 1.78722 4.113 2.7959 4.01074L3 4H4.46191L3 6V11ZM5.96191 4H12.5381L11.0771 6H4.5L5.96191 4Z" fill="#FFAD4C"/>
</svg>
