<svg width="16" height="16" viewBox="0 0 16 16" fill="none" xmlns="http://www.w3.org/2000/svg">
<path d="M10 2C11.4 2 12.1 2.00007 12.6348 2.27246C13.1052 2.51214 13.4879 2.89483 13.7275 3.36523C13.9999 3.89999 14 4.60002 14 6V10C14 11.4 13.9999 12.1 13.7275 12.6348C13.4879 13.1052 13.1052 13.4879 12.6348 13.7275C12.2336 13.9319 11.7395 13.9833 10.9268 13.9961L10 14V13.5996C10 13.0398 9.99959 12.7598 9.89062 12.5459C9.79479 12.3579 9.64207 12.2052 9.4541 12.1094C9.24024 12.0004 8.96018 12 8.40039 12H8V14H6C4.60002 14 3.89999 13.9999 3.36523 13.7275C2.89483 13.4879 2.51214 13.1052 2.27246 12.6348C2.00007 12.1 2 11.4 2 10V6C2 4.60002 2.00007 3.89999 2.27246 3.36523C2.51214 2.89483 2.89483 2.51214 3.36523 2.27246C3.76636 2.06814 4.26046 2.01667 5.07324 2.00391L6 2V2.40039C6 2.96018 6.00041 3.24024 6.10938 3.4541C6.20521 3.64207 6.35793 3.79479 6.5459 3.89062C6.75976 3.99959 7.03982 4 7.59961 4H8V2H10ZM7 10C6.44772 10 6 10.4477 6 11C6 11.5523 6.44772 12 7 12H8V10H7ZM8 10H9C9.55228 10 10 9.55228 10 9C10 8.44772 9.55228 8 9 8H8V10ZM7 6C6.44772 6 6 6.44772 6 7C6 7.55228 6.44772 8 7 8H8V6H7ZM8 4V6H9C9.55228 6 10 5.55228 10 5C10 4.44772 9.55228 4 9 4H8Z" fill="#84D877"/>
</svg>
