<svg width="16" height="16" viewBox="0 0 16 16" fill="none" xmlns="http://www.w3.org/2000/svg">
<path fill-rule="evenodd" clip-rule="evenodd" d="M3 3C3 2.44772 3.44772 2 4 2C4.55228 2 5 2.44772 5 3H7C7 2.44772 7.44772 2 8 2C8.55228 2 9 2.44772 9 3H11C11 2.44772 11.4477 2 12 2C12.5523 2 13 2.44772 13 3V3.07649C13.246 3.11682 13.4504 3.17841 13.635 3.27248C14.1054 3.51217 14.4878 3.89462 14.7275 4.36502C15 4.8998 15 5.59987 15 7V9C15 10.4001 15 11.1002 14.7275 11.635C14.4878 12.1054 14.1054 12.4878 13.635 12.7275C13.4504 12.8216 13.246 12.8832 13 12.9235V13C13 13.5523 12.5523 14 12 14C11.4477 14 11 13.5523 11 13H9C9 13.5523 8.55228 14 8 14C7.44772 14 7 13.5523 7 13H5C5 13.5523 4.55228 14 4 14C3.44772 14 3 13.5523 3 13V12.9235C2.75397 12.8832 2.54965 12.8216 2.36502 12.7275C1.89462 12.4878 1.51217 12.1054 1.27248 11.635C1 11.1002 1 10.4001 1 9V7C1 5.59987 1 4.8998 1.27248 4.36502C1.51217 3.89462 1.89462 3.51217 2.36502 3.27248C2.54965 3.17841 2.75397 3.11682 3 3.07649V3ZM10.924 5.735C10.8058 5.54585 10.5766 5.45788 10.3622 5.51938C10.1477 5.58087 10 5.77695 10 6V10.5H11V7.7434L11.326 8.265C11.4174 8.41119 11.5776 8.5 11.75 8.5C11.9224 8.5 12.0826 8.41119 12.174 8.265L12.5 7.7434V10.5H13.5V6C13.5 5.77695 13.3523 5.58087 13.1378 5.51938C12.9234 5.45788 12.6942 5.54585 12.576 5.735L11.75 7.0566L10.924 5.735ZM4.25 5.5C3.56937 5.5 2.99526 6.00682 2.91084 6.68219L2.69136 8.43798L2.50386 9.93798C2.50129 9.95856 2.5 9.97927 2.5 10V10.5H3.5V10.0311L3.62889 9H4.87111L5 10.0311V10.5H6V10C6 9.97927 5.99871 9.95856 5.99614 9.93798L5.80864 8.43798L5.58916 6.68219C5.50474 6.00682 4.93063 5.5 4.25 5.5ZM4.59689 6.80623L4.74611 8H3.75389L3.90311 6.80623C3.92498 6.63128 4.0737 6.5 4.25 6.5C4.4263 6.5 4.57502 6.63128 4.59689 6.80623ZM8 5.5C7.17157 5.5 6.5 6.17157 6.5 7C6.5 7.82843 7.17157 8.5 8 8.5C8.27614 8.5 8.5 8.72386 8.5 9C8.5 9.27614 8.27614 9.5 8 9.5C7.72386 9.5 7.5 9.27614 7.5 9H6.5C6.5 9.82843 7.17157 10.5 8 10.5C8.82843 10.5 9.5 9.82843 9.5 9C9.5 8.17157 8.82843 7.5 8 7.5C7.72386 7.5 7.5 7.27614 7.5 7C7.5 6.72386 7.72386 6.5 8 6.5C8.27614 6.5 8.5 6.72386 8.5 7H9.5C9.5 6.17157 8.82843 5.5 8 5.5Z" fill="#8080A0"/>
</svg>
