<svg width="16" height="16" viewBox="0 0 16 16" fill="none" xmlns="http://www.w3.org/2000/svg">
<path fill-rule="evenodd" clip-rule="evenodd" d="M3 3C3 2.44772 3.44772 2 4 2C4.55228 2 5 2.44772 5 3L7 3C7 2.44772 7.44772 2 8 2C8.55228 2 9 2.44772 9 3L11 3C11 2.44772 11.4477 2 12 2C12.5523 2 13 2.44772 13 3V3.01919C13.3922 3.04314 13.6705 3.09697 13.908 3.21799C14.2843 3.40973 14.5903 3.71569 14.782 4.09202C15 4.51984 15 5.0799 15 6.2V9.8C15 10.9201 15 11.4802 14.782 11.908C14.5903 12.2843 14.2843 12.5903 13.908 12.782C13.6705 12.903 13.3922 12.9569 13 12.9808V13C13 13.5523 12.5523 14 12 14C11.4477 14 11 13.5523 11 13H9C9 13.5523 8.55228 14 8 14C7.44772 14 7 13.5523 7 13H5C5 13.5523 4.55228 14 4 14C3.44772 14 3 13.5523 3 13V12.9808C2.60779 12.9569 2.32953 12.903 2.09202 12.782C1.71569 12.5903 1.40973 12.2843 1.21799 11.908C1 11.4802 1 10.9201 1 9.8V6.2C1 5.0799 1 4.51984 1.21799 4.09202C1.40973 3.71569 1.71569 3.40973 2.09202 3.21799C2.32953 3.09697 2.60779 3.04314 3 3.01919V3ZM5.58887 6.68262C5.50445 6.00725 4.93063 5.5 4.25 5.5C3.56937 5.5 2.99555 6.00725 2.91113 6.68262L2.69141 8.4375L2.50391 9.9375C2.50133 9.95807 2.5 9.97927 2.5 10V10.5H3.5V10.0312L3.62891 9H4.87109L5 10.0312V10.5H6V10C6 9.97927 5.99866 9.95807 5.99609 9.9375L5.80859 8.4375L5.58887 6.68262ZM8 9.5C7.72386 9.5 7.5 9.27614 7.5 9H6.5C6.5 9.82843 7.17157 10.5 8 10.5C8.82843 10.5 9.5 9.82843 9.5 9C9.5 8.17157 8.82843 7.5 8 7.5C7.72386 7.5 7.5 7.27614 7.5 7C7.5 6.72386 7.72386 6.5 8 6.5C8.27614 6.5 8.5 6.72386 8.5 7H9.5C9.5 6.17157 8.82843 5.5 8 5.5C7.17157 5.5 6.5 6.17157 6.5 7C6.5 7.82843 7.17157 8.5 8 8.5C8.27614 8.5 8.5 8.72386 8.5 9C8.5 9.27614 8.27614 9.5 8 9.5ZM13.1377 5.51953C12.9233 5.45809 12.6944 5.54623 12.5762 5.73535L11.75 7.05664L10.9238 5.73535C10.8056 5.54623 10.5767 5.45809 10.3623 5.51953C10.1747 5.57335 10.038 5.73011 10.0068 5.91797L10 6V10.5H11V7.74219L11.3262 8.26465C11.4175 8.41084 11.5776 8.5 11.75 8.5C11.9224 8.5 12.0825 8.41084 12.1738 8.26465L12.5 7.74219V10.5H13.5V6C13.5 5.77695 13.3521 5.58102 13.1377 5.51953ZM3.90332 6.80664C3.92519 6.6317 4.0737 6.5 4.25 6.5C4.4263 6.5 4.57481 6.6317 4.59668 6.80664L4.74609 8H3.75391L3.90332 6.80664Z" fill="#8080A0"/>
</svg>
