<svg width="16" height="16" viewBox="0 0 16 16" fill="none" xmlns="http://www.w3.org/2000/svg">
<path fill-rule="evenodd" clip-rule="evenodd" d="M2 6C2 4.59987 2 3.8998 2.27248 3.36502C2.51217 2.89462 2.89462 2.51217 3.36502 2.27248C3.8998 2 4.59987 2 6 2H10C11.4001 2 12.1002 2 12.635 2.27248C13.1054 2.51217 13.4878 2.89462 13.7275 3.36502C14 3.8998 14 4.59987 14 6V10C14 11.4001 14 12.1002 13.7275 12.635C13.4878 13.1054 13.1054 13.4878 12.635 13.7275C12.1002 14 11.4001 14 10 14H6C4.59987 14 3.8998 14 3.36502 13.7275C2.89462 13.4878 2.51217 13.1054 2.27248 12.635C2 12.1002 2 11.4001 2 10V6ZM6.98768 5.00515C6.92939 5.00039 6.84826 5 6.7 5H6V4H6.7L6.71595 4H6.71596C6.84215 3.99998 6.96504 3.99997 7.06911 4.00847C7.18341 4.01781 7.31828 4.03984 7.45399 4.10899C7.64215 4.20487 7.79513 4.35785 7.89101 4.54601C7.96016 4.68172 7.98219 4.81659 7.99153 4.93089C8.00003 5.03496 8.00002 5.15785 8 5.28403V5.28405L8 5.3V8H7V5.3C7 5.15174 6.99961 5.07061 6.99485 5.01232L6.99428 5.00572L6.98768 5.00515ZM10.2841 4L10.3 4H10.7L10.7159 4H10.716C10.8421 3.99998 10.965 3.99997 11.0691 4.00847C11.1834 4.01781 11.3183 4.03984 11.454 4.10899C11.6422 4.20487 11.7951 4.35785 11.891 4.54601C11.9602 4.68172 11.9822 4.81659 11.9915 4.93089C12 5.03497 12 5.15787 12 5.28406L12 5.3V6.7L12 6.71594C12 6.84213 12 6.96503 11.9915 7.06911C11.9822 7.18341 11.9602 7.31828 11.891 7.45399C11.7951 7.64215 11.6422 7.79513 11.454 7.89101C11.3183 7.96016 11.1834 7.98219 11.0691 7.99153C10.965 8.00003 10.8422 8.00002 10.716 8H10.7159L10.7 8H10.3L10.2841 8H10.284C10.1578 8.00002 10.035 8.00003 9.93089 7.99153C9.81659 7.98219 9.68172 7.96016 9.54601 7.89101C9.35785 7.79513 9.20487 7.64215 9.10899 7.45399C9.03984 7.31828 9.01781 7.18341 9.00847 7.06911C8.99997 6.96504 8.99998 6.84215 9 6.71597V6.71595L9 6.7V5.3L9 5.28405V5.28403C8.99998 5.15785 8.99997 5.03496 9.00847 4.93089C9.01781 4.81659 9.03984 4.68172 9.10899 4.54601C9.20487 4.35785 9.35785 4.20487 9.54601 4.10899C9.68172 4.03984 9.81659 4.01781 9.93089 4.00847C10.035 3.99997 10.1579 3.99998 10.284 4H10.2841ZM10.0057 5.00572L10.0052 5.01232C10.0004 5.07061 10 5.15174 10 5.3V6.7C10 6.84826 10.0004 6.92939 10.0052 6.98768L10.0057 6.99428L10.0123 6.99485C10.0706 6.99961 10.1517 7 10.3 7H10.7C10.8483 7 10.9294 6.99961 10.9877 6.99485L10.9943 6.99428L10.9948 6.98768C10.9996 6.92939 11 6.84826 11 6.7V5.3C11 5.15174 10.9996 5.07061 10.9948 5.01232L10.9943 5.00572L10.9877 5.00515C10.9294 5.00039 10.8483 5 10.7 5H10.3C10.1517 5 10.0706 5.00039 10.0123 5.00515L10.0057 5.00572ZM7.3 9L7.28405 9H7.28403C7.15785 8.99998 7.03496 8.99997 6.93088 9.00847C6.81659 9.01781 6.68172 9.03984 6.54601 9.10899C6.35785 9.20487 6.20487 9.35785 6.10899 9.54601C6.03984 9.68172 6.01781 9.81659 6.00847 9.93088C5.99997 10.035 5.99998 10.1578 6 10.284V10.2841L6 10.3V11.7L6 11.7159V11.716C5.99998 11.8422 5.99997 11.965 6.00847 12.0691C6.01781 12.1834 6.03984 12.3183 6.10899 12.454C6.20487 12.6422 6.35785 12.7951 6.54601 12.891C6.68172 12.9602 6.81659 12.9822 6.93088 12.9915C7.03496 13 7.15785 13 7.28403 13H7.28405L7.3 13H7.7L7.71595 13H7.71597C7.84215 13 7.96504 13 8.06912 12.9915C8.18341 12.9822 8.31828 12.9602 8.45399 12.891C8.64215 12.7951 8.79513 12.6422 8.89101 12.454C8.96016 12.3183 8.98219 12.1834 8.99153 12.0691C9.00003 11.965 9.00002 11.8422 9 11.716V11.7159L9 11.7V10.3L9 10.2841V10.284C9.00002 10.1578 9.00003 10.035 8.99153 9.93088C8.98219 9.81659 8.96016 9.68172 8.89101 9.54601C8.79513 9.35785 8.64215 9.20487 8.45399 9.10899C8.31828 9.03984 8.18341 9.01781 8.06911 9.00847C7.96504 8.99997 7.84215 8.99998 7.71597 9H7.71595L7.7 9H7.3ZM7.00515 10.0123L7.00572 10.0057L7.01232 10.0052C7.07061 10.0004 7.15174 10 7.3 10H7.7C7.84826 10 7.92939 10.0004 7.98768 10.0052L7.99428 10.0057L7.99485 10.0123C7.99961 10.0706 8 10.1517 8 10.3V11.7C8 11.8483 7.99961 11.9294 7.99485 11.9877L7.99428 11.9943L7.98768 11.9948C7.92939 11.9996 7.84826 12 7.7 12H7.3C7.15174 12 7.07061 11.9996 7.01232 11.9948L7.00572 11.9943L7.00515 11.9877C7.00039 11.9294 7 11.8483 7 11.7V10.3C7 10.1517 7.00039 10.0706 7.00515 10.0123ZM10.7 10C10.8483 10 10.9294 10.0004 10.9877 10.0052L10.9943 10.0057L10.9948 10.0123C10.9996 10.0706 11 10.1517 11 10.3V13H12V10.3L12 10.2841C12 10.1579 12 10.035 11.9915 9.93088C11.9822 9.81659 11.9602 9.68172 11.891 9.54601C11.7951 9.35785 11.6422 9.20487 11.454 9.10899C11.3183 9.03984 11.1834 9.01781 11.0691 9.00847C10.965 8.99997 10.8422 8.99998 10.716 9H10.7159L10.7 9H10V10H10.7Z" fill="#8080A0"/>
</svg>
