<svg width="16" height="16" viewBox="0 0 16 16" fill="none" xmlns="http://www.w3.org/2000/svg">
<path d="M15 8.22222C15 11.4132 11.866 14 8 14C4.13401 14 1 11.4132 1 8.22222C1 6.51104 1.90125 4.9736 3.33333 3.91565C4.27872 3.21724 6.50021 1.88605 7.49859 1.29517C7.80892 1.11151 8.19108 1.11151 8.50141 1.29517C9.49979 1.88605 11.7213 3.21724 12.6667 3.91565C14.0987 4.9736 15 6.51104 15 8.22222Z" fill="#D8C09C"/>
<circle cx="5.5" cy="8" r="1" fill="black"/>
<circle cx="10.5" cy="8" r="1" fill="black"/>
<path d="M6.5 10H9.5C9.5 10.8284 8.82843 11.5 8 11.5C7.17157 11.5 6.5 10.8284 6.5 10Z" fill="#95353E"/>
</svg>
