<svg width="16" height="16" viewBox="0 0 16 16" fill="none" xmlns="http://www.w3.org/2000/svg">
<path fill-rule="evenodd" clip-rule="evenodd" d="M14.347 3.74039C14.0787 3.44394 13.7092 3.23334 12.9702 2.81214L10.0268 1.13466C9.30123 0.72114 8.93844 0.514379 8.55337 0.433967C8.21263 0.362814 7.86079 0.363601 7.52037 0.436276C7.13566 0.518408 6.7738 0.726789 6.05008 1.14355L3.02941 2.88302L3.02941 2.88303C2.30303 3.30132 1.93983 3.51047 1.67513 3.8032C1.4409 4.06222 1.26355 4.36743 1.15448 4.69918C1.03122 5.0741 1.02934 5.4932 1.02557 6.33142L1.01048 9.69468C1.00667 10.5453 1.00476 10.9706 1.12776 11.3511C1.23658 11.6877 1.41559 11.9973 1.65296 12.2596C1.92127 12.5561 2.29079 12.7667 3.02983 13.1879L5.97319 14.8653C6.69877 15.2789 7.06156 15.4856 7.44663 15.566C7.78737 15.6372 8.13921 15.6364 8.47962 15.5637C8.86434 15.4816 9.2262 15.2732 9.94992 14.8564L12.9706 13.117L12.9706 13.117C13.697 12.6987 14.0602 12.4895 14.3249 12.1968C14.5591 11.9378 14.7365 11.6326 14.8455 11.3008C14.9688 10.9259 14.9707 10.5068 14.9744 9.66858L14.9895 6.30532C14.9933 5.45468 14.9952 5.02936 14.8722 4.64892C14.7634 4.31233 14.5844 4.00266 14.347 3.74039ZM9.33939 4.76642C10.0512 5.06127 10.6459 5.58275 11.0311 6.25L10.0611 6.81C9.79918 6.35627 9.39482 6.00166 8.91078 5.80117C8.42675 5.60067 7.89008 5.5655 7.38401 5.7011C6.87794 5.8367 6.43076 6.13549 6.11182 6.55115C5.79288 6.9668 5.62 7.47608 5.62 8C5.62 8.52392 5.79288 9.0332 6.11182 9.44885C6.43076 9.8645 6.87794 10.1633 7.38401 10.2989C7.89008 10.4345 8.42675 10.3993 8.91079 10.1988C9.39482 9.99834 9.79918 9.64373 10.0611 9.19L11.0311 9.75C10.6459 10.4172 10.0512 10.9387 9.33939 11.2336C8.62757 11.5284 7.83835 11.5802 7.09413 11.3807C6.34992 11.1813 5.69229 10.7419 5.22326 10.1307C4.75423 9.51941 4.5 8.77047 4.5 8C4.5 7.22953 4.75423 6.48059 5.22326 5.86934C5.69229 5.25808 6.34991 4.81867 7.09413 4.61926C7.83835 4.41985 8.62757 4.47158 9.33939 4.76642Z" fill="#7380F9"/>
</svg>
