<svg width="16" height="16" viewBox="0 0 16 16" fill="none" xmlns="http://www.w3.org/2000/svg">
<path d="M9.35988 1.68269C9.59132 1.47849 9.70704 1.3764 9.78076 1.34481C9.86031 1.31072 9.90083 1.30281 9.98736 1.30448C10.0676 1.30604 10.1509 1.33528 10.3176 1.39378C11.1481 1.68519 11.9068 2.12885 12.5607 2.69124C12.6948 2.80662 12.7619 2.86432 12.8033 2.93288C12.848 3.00697 12.8613 3.04571 12.8716 3.13163C12.8811 3.21113 12.8507 3.36245 12.7899 3.66508C12.5921 4.64987 13.1971 5.69676 14.1491 6.01765C14.4417 6.11627 14.588 6.16558 14.6522 6.21358C14.7214 6.26546 14.7483 6.29634 14.7902 6.37211C14.8289 6.44222 14.8453 6.52924 14.8782 6.70328C14.9577 7.12363 15 7.5572 15 8.00048C15 8.44319 14.9576 8.87596 14.8783 9.29564C14.8453 9.46972 14.8289 9.55677 14.7902 9.62686C14.7483 9.70264 14.7215 9.73346 14.6522 9.78536C14.5881 9.83335 14.4418 9.88271 14.1491 9.98143C13.1973 10.3024 12.5927 11.3494 12.7903 12.3342C12.8509 12.6366 12.8813 12.7879 12.8718 12.8673C12.8615 12.9532 12.8481 12.9919 12.8035 13.066C12.7621 13.1345 12.6951 13.1922 12.561 13.3076C11.9071 13.8704 11.1484 14.3145 10.3176 14.6062C10.1509 14.6647 10.0676 14.6939 9.98739 14.6955C9.90086 14.6972 9.86031 14.6893 9.78076 14.6552C9.70703 14.6236 9.59131 14.5215 9.35988 14.3173C8.6054 13.6516 7.39365 13.6515 6.63923 14.3171C6.40767 14.5214 6.2919 14.6235 6.21815 14.6551C6.13858 14.6892 6.09806 14.6971 6.01151 14.6954C5.9313 14.6938 5.84794 14.6646 5.6812 14.606C4.8506 14.3144 4.0919 13.8704 3.43806 13.3077C3.30397 13.1923 3.23692 13.1346 3.19557 13.066C3.15091 12.992 3.13759 12.9532 3.1273 12.8673C3.11778 12.7878 3.14818 12.6366 3.20897 12.3341C3.40696 11.3492 2.8024 10.302 1.85032 9.98123C1.55749 9.88257 1.41107 9.83325 1.34692 9.7852C1.27761 9.73328 1.25068 9.70234 1.20885 9.62651C1.17014 9.55633 1.15374 9.46931 1.12095 9.29525C1.0419 8.87568 1.00003 8.44298 1 8.00048C1 7.55741 1.04183 7.12391 1.12097 6.70366C1.15374 6.52966 1.17012 6.44266 1.20885 6.37246C1.25067 6.29664 1.27765 6.26564 1.34696 6.21374C1.41114 6.16569 1.55751 6.11641 1.85025 6.01785C2.8026 5.69723 3.4075 4.65012 3.20928 3.66511C3.14839 3.3625 3.11794 3.2112 3.12746 3.13166C3.13775 3.04574 3.15108 3.00694 3.19578 2.93284C3.23715 2.86425 3.30423 2.80655 3.4384 2.69116C4.09215 2.12888 4.85082 1.68536 5.68118 1.39392C5.84796 1.33538 5.93134 1.30612 6.01154 1.30456C6.09809 1.30288 6.13859 1.31078 6.21816 1.34488C6.29189 1.37647 6.40767 1.47862 6.63923 1.68292C7.39364 2.34854 8.6054 2.34836 9.35988 1.68269ZM8 5.50048C6.61929 5.50048 5.5 6.61977 5.5 8.00048C5.50026 9.38097 6.61945 10.5005 8 10.5005C9.38055 10.5005 10.4997 9.38097 10.5 8.00048C10.5 6.61977 9.38071 5.50048 8 5.50048Z" fill="#8080A0"/>
</svg>
