<svg width="16" height="16" viewBox="0 0 16 16" fill="none" xmlns="http://www.w3.org/2000/svg">
<path d="M16 4.5H14.5M14.5 4.5H13M14.5 4.5L14.5 6M14.5 4.5V3" stroke="#7380F9"/>
<path d="M16 11.5H14.5M14.5 11.5H13M14.5 11.5L14.5 13M14.5 11.5V10" stroke="#7380F9"/>
<path fill-rule="evenodd" clip-rule="evenodd" d="M12.9702 2.81214L13.0133 2.83671C13.0045 2.88985 13 2.94439 13 3C12.4477 3 12 3.44771 12 4V5C12 5.55228 12.4477 6 13 6C13 6.55228 13.4477 7 14 7H14.9864L14.9774 9H14C13.4477 9 13 9.44771 13 10C12.4477 10 12 10.4477 12 11V12C12 12.5523 12.4477 13 13 13C13 13.0328 13.0016 13.0653 13.0047 13.0973L12.9706 13.117L12.9706 13.117L9.94992 14.8564C9.2262 15.2732 8.86434 15.4816 8.47962 15.5637C8.13921 15.6364 7.78737 15.6372 7.44663 15.566C7.06156 15.4856 6.69877 15.2789 5.97319 14.8653L3.02983 13.1879C2.29079 12.7667 1.92127 12.5561 1.65296 12.2596C1.41559 11.9973 1.23658 11.6877 1.12776 11.3511C1.00476 10.9706 1.00667 10.5453 1.01048 9.69468L1.02557 6.33142C1.02934 5.4932 1.03122 5.0741 1.15448 4.69918C1.26355 4.36743 1.4409 4.06222 1.67513 3.8032C1.93983 3.51047 2.30303 3.30132 3.02941 2.88303L3.02941 2.88302L6.05008 1.14355C6.7738 0.726789 7.13566 0.518408 7.52037 0.436276C7.86079 0.363601 8.21263 0.362814 8.55337 0.433967C8.93844 0.514379 9.30123 0.72114 10.0268 1.13466L12.9702 2.81214ZM9.33939 4.76642C10.0512 5.06127 10.6459 5.58275 11.0311 6.25L10.0611 6.81C9.79918 6.35627 9.39482 6.00166 8.91078 5.80117C8.42675 5.60067 7.89008 5.5655 7.38401 5.7011C6.87794 5.8367 6.43076 6.13549 6.11182 6.55115C5.79288 6.9668 5.62 7.47608 5.62 8C5.62 8.52392 5.79288 9.0332 6.11182 9.44885C6.43076 9.8645 6.87794 10.1633 7.38401 10.2989C7.89008 10.4345 8.42675 10.3993 8.91079 10.1988C9.39482 9.99834 9.79918 9.64373 10.0611 9.19L11.0311 9.75C10.6459 10.4172 10.0512 10.9387 9.33939 11.2336C8.62757 11.5284 7.83835 11.5802 7.09413 11.3807C6.34992 11.1813 5.69229 10.7419 5.22326 10.1307C4.75423 9.51941 4.5 8.77047 4.5 8C4.5 7.22953 4.75423 6.48059 5.22326 5.86934C5.69229 5.25808 6.34991 4.81867 7.09413 4.61926C7.83835 4.41985 8.62757 4.47158 9.33939 4.76642Z" fill="#7380F9"/>
</svg>
