<svg width="16" height="16" viewBox="0 0 16 16" fill="none" xmlns="http://www.w3.org/2000/svg">
<path fill-rule="evenodd" clip-rule="evenodd" d="M12.9702 2.81214C13.7092 3.23334 14.0787 3.44394 14.347 3.74039C14.5844 4.00266 14.7634 4.31233 14.8722 4.64892C14.9952 5.02936 14.9933 5.45468 14.9895 6.30532L14.9744 9.66858C14.9707 10.5068 14.9688 10.9259 14.8455 11.3008C14.7365 11.6326 14.5591 11.9378 14.3249 12.1968C14.0602 12.4895 13.697 12.6987 12.9706 13.117L12.9706 13.117L9.94992 14.8564C9.2262 15.2732 8.86434 15.4816 8.47962 15.5637C8.13921 15.6364 7.78737 15.6372 7.44663 15.566C7.06156 15.4856 6.69877 15.2789 5.97319 14.8653L3.02983 13.1879C2.29079 12.7667 1.92127 12.5561 1.65296 12.2596C1.41559 11.9973 1.23658 11.6877 1.12776 11.3511C1.00476 10.9706 1.00667 10.5453 1.01048 9.69468L1.02557 6.33142C1.02934 5.4932 1.03122 5.0741 1.15448 4.69918C1.26355 4.36743 1.4409 4.06222 1.67513 3.8032C1.93983 3.51047 2.30303 3.30132 3.02941 2.88303L3.02941 2.88302L6.05008 1.14355C6.7738 0.726789 7.13566 0.518408 7.52037 0.436276C7.86079 0.363601 8.21263 0.362814 8.55337 0.433967C8.93844 0.514379 9.30123 0.72114 10.0268 1.13466L12.9702 2.81214ZM9.53109 6.25C9.14585 5.58275 8.55121 5.06127 7.83939 4.76642C7.12757 4.47158 6.33835 4.41985 5.59413 4.61926C4.84992 4.81867 4.1923 5.25808 3.72326 5.86934C3.25423 6.48059 3 7.22953 3 8C3 8.77047 3.25423 9.51941 3.72326 10.1307C4.1923 10.7419 4.84992 11.1813 5.59413 11.3807C6.33835 11.5802 7.12757 11.5284 7.83939 11.2336C8.55121 10.9387 9.14585 10.4172 9.53109 9.75L8.56114 9.19C8.29918 9.64373 7.89483 9.99834 7.41079 10.1988C6.92675 10.3993 6.39008 10.4345 5.88401 10.2989C5.37794 10.1633 4.93076 9.86451 4.61182 9.44885C4.29288 9.0332 4.12 8.52392 4.12 8C4.12 7.47608 4.29288 6.9668 4.61182 6.55115C4.93076 6.13549 5.37794 5.8367 5.88401 5.7011C6.39008 5.5655 6.92675 5.60067 7.41079 5.80117C7.89482 6.00166 8.29918 6.35627 8.56114 6.81L9.53109 6.25ZM11.375 10.5V9.375H12.625V10.5H13.375V9.375H14V8.625H13.375V7.375H14V6.625H13.375V5.5H12.625V6.625H11.375V5.5H10.625V6.625H10V7.375H10.625V8.625H10V9.375H10.625V10.5H11.375ZM12.625 8.625H11.375V7.375H12.625V8.625Z" fill="#A67CF8"/>
</svg>
