<svg width="16" height="16" viewBox="0 0 16 16" fill="none" xmlns="http://www.w3.org/2000/svg">
<path fill-rule="evenodd" clip-rule="evenodd" d="M3 6.2C3 5.0799 3 4.51984 3.21799 4.09202C3.40973 3.71569 3.71569 3.40973 4.09202 3.21799C4.51984 3 5.0799 3 6.2 3H9.8C10.9201 3 11.4802 3 11.908 3.21799C12.2843 3.40973 12.5903 3.71569 12.782 4.09202C13 4.51984 13 5.0799 13 6.2V9.8C13 10.9201 13 11.4802 12.782 11.908C12.5903 12.2843 12.2843 12.5903 11.908 12.782C11.4802 13 10.9201 13 9.8 13H6.2C5.0799 13 4.51984 13 4.09202 12.782C3.71569 12.5903 3.40973 12.2843 3.21799 11.908C3 11.4802 3 10.9201 3 9.8V6.2ZM8 7.42972L6.18412 4.25193L5.31588 4.74807L7.17412 8L5.31588 11.2519L6.18412 11.7481L8 8.57028L9.81588 11.7481L10.6841 11.2519L8.82588 8L10.6841 4.74807L9.81588 4.25193L8 7.42972Z" fill="#56B292"/>
<rect x="5" y="4" width="6" height="1" fill="#56B292"/>
<rect x="5" y="11" width="6" height="1" fill="#56B292"/>
</svg>
