<svg width="16" height="16" viewBox="0 0 16 16" fill="none" xmlns="http://www.w3.org/2000/svg">
<path d="M10.7667 2.76669L13 5H4V4L6.85757 2.28546C7.6236 1.82584 8.00661 1.59603 8.40559 1.53872C8.75761 1.48815 9.11676 1.53236 9.446 1.6668C9.81917 1.81917 10.135 2.13501 10.7667 2.76669Z" fill="#5BAFD4"/>
<path d="M15 13H13H5L2.7667 10.7667C2.13501 10.135 1.81917 9.81917 1.6668 9.446C1.53236 9.11676 1.48815 8.75761 1.53872 8.40559C1.59603 8.00661 1.82584 7.6236 2.28546 6.85757L2.28546 6.85757L4 4H10.6745C11.1637 4 11.4083 4 11.6385 4.05526C11.8425 4.10425 12.0376 4.18506 12.2166 4.29472C12.4184 4.4184 12.5914 4.59136 12.9373 4.93726L15 7V13Z" fill="#5BAFD4"/>
<path d="M15 13H13H5L2.7667 10.7667C2.13501 10.135 1.81917 9.81917 1.6668 9.446C1.53236 9.11676 1.48815 8.75761 1.53872 8.40559C1.59603 8.00661 1.82584 7.6236 2.28546 6.85757L2.28546 6.85757L4 4H10.6745C11.1637 4 11.4083 4 11.6385 4.05526C11.8425 4.10425 12.0376 4.18506 12.2166 4.29472C12.4184 4.4184 12.5914 4.59136 12.9373 4.93726L15 7V13Z" fill="black" fill-opacity="0.25" style="mix-blend-mode:plus-darker"/>
<path d="M13 13L4 4V10.6745C4 11.1637 4 11.4083 4.05526 11.6385C4.10425 11.8425 4.18506 12.0376 4.29472 12.2166C4.4184 12.4184 4.59136 12.5914 4.93726 12.9373L7 15H13V13Z" fill="#5BAFD4"/>
</svg>
