<svg width="16" height="16" viewBox="0 0 16 16" fill="none" xmlns="http://www.w3.org/2000/svg">
<path fill-rule="evenodd" clip-rule="evenodd" d="M8 2C6.59772 2 5.25607 2.24962 4.20881 2.71507C3.68707 2.94695 3.17199 3.26191 2.76704 3.68743C2.35473 4.12068 2 4.73578 2 5.5V7V7C2 8.933 4.68629 10.5 8 10.5C11.3137 10.5 14 8.933 14 7V5.5C14 4.73578 13.6453 4.12068 13.233 3.68743C12.828 3.26191 12.3129 2.94695 11.7912 2.71507C10.7439 2.24962 9.40228 2 8 2ZM14 10.0513C13.6886 10.3263 13.3481 10.5666 12.9984 10.7705C11.6453 11.5599 9.87469 12 8 12C6.12531 12 4.35474 11.5599 3.00155 10.7705C2.65186 10.5666 2.31142 10.3263 2 10.0513V11.5C2 12.2642 2.35473 12.8793 2.76704 13.3126C3.17199 13.7381 3.68707 14.053 4.20881 14.2849C5.25607 14.7504 6.59772 15 8 15C9.40228 15 10.7439 14.7504 11.7912 14.2849C12.3129 14.053 12.828 13.7381 13.233 13.3126C13.6453 12.8793 14 12.2642 14 11.5V10.0513ZM12.5 5.5C12.5 6.60457 10.4853 7.5 8 7.5C5.51472 7.5 3.5 6.60457 3.5 5.5C3.5 4.39543 5.51472 3.5 8 3.5C10.4853 3.5 12.5 4.39543 12.5 5.5Z" fill="#F17F66"/>
</svg>
