<svg width="16" height="16" viewBox="0 0 16 16" fill="none" xmlns="http://www.w3.org/2000/svg">
<path fill-rule="evenodd" clip-rule="evenodd" d="M14.6401 7.58068C14.5731 7.26826 14.4019 6.97471 14.0594 6.38761L12.4261 3.58761L12.4261 3.5876C12.0886 3.00909 11.9199 2.71983 11.6849 2.50953C11.4769 2.32344 11.2323 2.18294 10.9667 2.09706C10.6667 2 10.3318 2 9.66201 2H6.33799C5.66823 2 5.33335 2 5.03326 2.09706C4.76773 2.18294 4.52312 2.32344 4.31514 2.50952C4.0801 2.71983 3.91137 3.00909 3.57389 3.58761L3.57389 3.58761L1.94056 6.38761C1.59809 6.97471 1.42685 7.26825 1.35986 7.58068C1.30059 7.85708 1.30059 8.14292 1.35986 8.41933C1.42685 8.73175 1.59809 9.02529 1.94056 9.61239L3.57389 12.4124C3.91136 12.9909 4.0801 13.2802 4.31514 13.4905C4.52312 13.6766 4.76773 13.8171 5.03326 13.9029C5.33335 14 5.66823 14 6.33799 14H9.66201C10.3318 14 10.6667 14 10.9667 13.9029C11.2323 13.8171 11.4769 13.6766 11.6849 13.4905C11.9199 13.2802 12.0886 12.9909 12.4261 12.4124L12.4261 12.4124L14.0594 9.61239C14.4019 9.02529 14.5731 8.73175 14.6401 8.41933C14.6994 8.14292 14.6994 7.85708 14.6401 7.58068ZM7.6855 3.26989C7.45118 3.32014 7.23102 3.44856 6.7907 3.70542L4.90499 4.80542C4.4711 5.05852 4.25415 5.18507 4.09642 5.36136C3.95686 5.51734 3.85148 5.7008 3.78707 5.89995C3.71428 6.12501 3.71428 6.37617 3.71428 6.87849L3.71428 9.12151C3.71428 9.62383 3.71428 9.87499 3.78707 10.1001C3.85148 10.2992 3.95686 10.4827 4.09642 10.6386C4.25415 10.8149 4.4711 10.9415 4.90499 11.1946L6.7907 12.2946C7.23102 12.5514 7.45118 12.6799 7.6855 12.7301C7.89281 12.7746 8.10718 12.7746 8.31449 12.7301C8.5488 12.6799 8.76896 12.5514 9.20928 12.2946L11.095 11.1946C11.5289 10.9415 11.7458 10.8149 11.9036 10.6386C12.0431 10.4827 12.1485 10.2992 12.2129 10.1001C12.2857 9.87499 12.2857 9.62383 12.2857 9.12151V6.87849C12.2857 6.37617 12.2857 6.12501 12.2129 5.89995C12.1485 5.7008 12.0431 5.51734 11.9036 5.36136C11.7458 5.18507 11.5289 5.05852 11.095 4.80542L9.20928 3.70542C8.76896 3.44857 8.5488 3.32014 8.31449 3.26989C8.10718 3.22544 7.89281 3.22544 7.6855 3.26989Z" fill="#7380F9"/>
<path d="M7.19381 5.47028C7.48736 5.29904 7.63413 5.21343 7.79034 5.17993C7.92854 5.15029 8.07146 5.15029 8.20966 5.17993C8.36588 5.21343 8.51265 5.29904 8.8062 5.47028L9.77762 6.03695C10.0669 6.20568 10.2115 6.29005 10.3167 6.40757C10.4097 6.51156 10.48 6.63387 10.5229 6.76663C10.5714 6.91667 10.5714 7.08411 10.5714 7.41899V8.58101C10.5714 8.91589 10.5714 9.08333 10.5229 9.23337C10.48 9.36613 10.4097 9.48844 10.3167 9.59243C10.2115 9.70995 10.0669 9.79432 9.77762 9.96305L8.8062 10.5297C8.51265 10.701 8.36588 10.7866 8.20966 10.8201C8.07146 10.8497 7.92854 10.8497 7.79034 10.8201C7.63413 10.7866 7.48736 10.701 7.19381 10.5297L6.22238 9.96305C5.93312 9.79432 5.78849 9.70995 5.68334 9.59243C5.59029 9.48844 5.52004 9.36613 5.4771 9.23337C5.42857 9.08333 5.42857 8.91589 5.42857 8.58101L5.42857 7.41899C5.42857 7.08411 5.42857 6.91667 5.4771 6.76663C5.52004 6.63387 5.59029 6.51156 5.68334 6.40757C5.78849 6.29005 5.93312 6.20568 6.22238 6.03695L7.19381 5.47028Z" fill="#7380F9"/>
<path d="M7.19381 5.47028C7.48736 5.29904 7.63413 5.21343 7.79034 5.17993C7.92854 5.15029 8.07146 5.15029 8.20966 5.17993C8.36588 5.21343 8.51265 5.29904 8.8062 5.47028L9.77762 6.03695C10.0669 6.20568 10.2115 6.29005 10.3167 6.40757C10.4097 6.51156 10.48 6.63387 10.5229 6.76663C10.5714 6.91667 10.5714 7.08411 10.5714 7.41899V8.58101C10.5714 8.91589 10.5714 9.08333 10.5229 9.23337C10.48 9.36613 10.4097 9.48844 10.3167 9.59243C10.2115 9.70995 10.0669 9.79432 9.77762 9.96305L8.8062 10.5297C8.51265 10.701 8.36588 10.7866 8.20966 10.8201C8.07146 10.8497 7.92854 10.8497 7.79034 10.8201C7.63413 10.7866 7.48736 10.701 7.19381 10.5297L6.22238 9.96305C5.93312 9.79432 5.78849 9.70995 5.68334 9.59243C5.59029 9.48844 5.52004 9.36613 5.4771 9.23337C5.42857 9.08333 5.42857 8.91589 5.42857 8.58101L5.42857 7.41899C5.42857 7.08411 5.42857 6.91667 5.4771 6.76663C5.52004 6.63387 5.59029 6.51156 5.68334 6.40757C5.78849 6.29005 5.93312 6.20568 6.22238 6.03695L7.19381 5.47028Z" fill="white" fill-opacity="0.25"/>
</svg>
