<svg width="16" height="16" viewBox="0 0 16 16" fill="none" xmlns="http://www.w3.org/2000/svg">
<path fill-rule="evenodd" clip-rule="evenodd" d="M1.5017 8.61803C1.65007 9.07469 2.04609 9.47071 2.83812 10.2627L5.73726 13.1619C6.52929 13.9539 6.92531 14.3499 7.38197 14.4983C7.78366 14.6288 8.21635 14.6288 8.61804 14.4983C9.07469 14.3499 9.47071 13.9539 10.2627 13.1619L13.1619 10.2627C13.9539 9.47071 14.3499 9.07469 14.4983 8.61803C14.6288 8.21635 14.6288 7.78365 14.4983 7.38196C14.3499 6.92531 13.9539 6.52929 13.1619 5.73726L10.2627 2.83812C9.47071 2.04609 9.07469 1.65007 8.61804 1.50169C8.21635 1.37118 7.78366 1.37118 7.38197 1.50169C7.05368 1.60836 6.75673 1.84301 6.32145 2.26078L11.5303 7.46967C11.8232 7.76256 11.8232 8.23744 11.5303 8.53033C11.2374 8.82322 10.7626 8.82322 10.4697 8.53033L8.5 6.56066V11C8.5 11.4142 8.16422 11.75 7.75 11.75C7.33579 11.75 7 11.4142 7 11V5.06066L5.25736 3.31802L2.83812 5.73726C2.04609 6.52929 1.65007 6.92531 1.5017 7.38196C1.37118 7.78365 1.37118 8.21635 1.5017 8.61803Z" fill="#F17F66"/>
</svg>
