<svg width="16" height="16" viewBox="0 0 16 16" fill="none" xmlns="http://www.w3.org/2000/svg">
<path d="M6.32397 1.88199C6.86351 0.815883 7.13328 0.282829 7.49822 0.111696C7.8158 -0.037232 8.1842 -0.037232 8.50178 0.111696C8.86672 0.282829 9.13649 0.815884 9.67603 1.88199L10.4569 3.42487C10.6176 3.74246 10.698 3.90126 10.8147 4.02438C10.9181 4.13339 11.0418 4.22159 11.1791 4.28412C11.3341 4.35474 11.5117 4.37992 11.8671 4.43028L13.5683 4.67134C14.7884 4.84423 15.3984 4.93067 15.679 5.22364C15.923 5.47848 16.0371 5.82902 15.9893 6.17687C15.9343 6.57674 15.4899 6.99915 14.6012 7.84397L13.4047 8.98128C13.1419 9.23118 13.0104 9.35613 12.9256 9.50535C12.8506 9.63746 12.8024 9.78285 12.7839 9.93329C12.763 10.1032 12.7943 10.2809 12.8568 10.6362L13.1439 12.2688C13.3523 13.4535 13.4565 14.0459 13.2642 14.399C13.0969 14.7063 12.7986 14.9226 12.4521 14.9879C12.0538 15.0629 11.5141 14.7863 10.4349 14.2329L8.86243 13.4268C8.54668 13.2649 8.3888 13.184 8.22268 13.1521C8.07559 13.124 7.92441 13.124 7.77732 13.1521C7.6112 13.184 7.45333 13.2649 7.13757 13.4268L5.56513 14.2329C4.48585 14.7863 3.94621 15.0629 3.54795 14.9879C3.20141 14.9226 2.90308 14.7063 2.73578 14.399C2.54352 14.0459 2.64771 13.4535 2.85608 12.2688L3.14321 10.6362C3.2057 10.2809 3.23695 10.1032 3.21606 9.93329C3.19757 9.78285 3.14943 9.63746 3.07437 9.50535C2.98959 9.35613 2.85814 9.23118 2.59525 8.98128L1.3988 7.84397C0.51005 6.99915 0.0656772 6.57674 0.0106981 6.17687C-0.0371276 5.82902 0.0769966 5.47848 0.321037 5.22364C0.60158 4.93067 1.21162 4.84423 2.4317 4.67134L4.13287 4.43028C4.48826 4.37992 4.66595 4.35474 4.82095 4.28412C4.95819 4.22159 5.08191 4.13339 5.18529 4.02438C5.30204 3.90126 5.38241 3.74246 5.54314 3.42487L6.32397 1.88199Z" fill="#DE92D7"/>
<path d="M10.75 8.5C10.3358 8.5 10 8.16421 10 7.75C10 7.33579 10.3358 7 10.75 7C11.1642 7 11.5 7.33579 11.5 7.75C11.5 8.16421 11.1642 8.5 10.75 8.5Z" fill="black"/>
<path d="M5.25 8.5C4.83579 8.5 4.5 8.16421 4.5 7.75C4.5 7.33579 4.83579 7 5.25 7C5.66421 7 6 7.33579 6 7.75C6 8.16421 5.66421 8.5 5.25 8.5Z" fill="black"/>
<path d="M6.5 9H9.5C9.5 9.82843 8.82843 10.5 8 10.5C7.17157 10.5 6.5 9.82843 6.5 9Z" fill="black"/>
</svg>
