<svg width="16" height="16" viewBox="0 0 16 16" fill="none" xmlns="http://www.w3.org/2000/svg">
<path fill-rule="evenodd" clip-rule="evenodd" d="M2.27248 3.36502C2 3.8998 2 4.59987 2 6V10C2 11.4001 2 12.1002 2.27248 12.635C2.51217 13.1054 2.89462 13.4878 3.36502 13.7275C3.8998 14 4.59987 14 6 14H10C11.4001 14 12.1002 14 12.635 13.7275C13.1054 13.4878 13.4878 13.1054 13.7275 12.635C14 12.1002 14 11.4001 14 10V6C14 4.59987 14 3.8998 13.7275 3.36502C13.4878 2.89462 13.1054 2.51217 12.635 2.27248C12.1002 2 11.4001 2 10 2H6C4.59987 2 3.8998 2 3.36502 2.27248C2.89462 2.51217 2.51217 2.89462 2.27248 3.36502ZM10.0686 6.51565C10.8168 6.58935 11.5164 6.92023 12.0481 7.4519L11.3127 8.18729C10.9512 7.82575 10.4755 7.60076 9.96662 7.55064C9.45778 7.50053 8.94732 7.62839 8.52219 7.91245C8.09706 8.19651 7.78358 8.61919 7.63516 9.10847C7.48674 9.59775 7.51256 10.1234 7.70823 10.5957C7.90389 11.0681 8.25729 11.458 8.70821 11.699C9.15914 11.9401 9.67968 12.0173 10.1811 11.9175C10.6826 11.8178 11.134 11.5472 11.4584 11.152C11.6193 10.9559 11.744 10.7351 11.8288 10.5H10.5C10.2239 10.5 10 10.2761 10 10C10 9.72386 10.2239 9.5 10.5 9.5H13V9.7C13 9.71719 13 9.73384 13 9.75H13C13 9.75432 13 9.75863 13 9.76295C12.9997 9.93894 12.9976 10.0541 12.9763 10.1419C12.9021 10.7524 12.6558 11.3323 12.2623 11.8118C11.7853 12.393 11.1215 12.7909 10.384 12.9376C9.64659 13.0842 8.88108 12.9707 8.21796 12.6162C7.55484 12.2618 7.03513 11.6884 6.74739 10.9937C6.45965 10.2991 6.42168 9.5261 6.63994 8.80658C6.85821 8.08705 7.31921 7.46546 7.9444 7.04772C8.56958 6.62999 9.32027 6.44195 10.0686 6.51565ZM3.5 8H5.5V9H3.5V8ZM3 9.5H5V10.5H3V9.5ZM4 11H5.5V12H4V11Z" fill="#5BAFD4"/>
</svg>
