<svg width="16" height="16" viewBox="0 0 16 16" fill="none" xmlns="http://www.w3.org/2000/svg">
<path fill-rule="evenodd" clip-rule="evenodd" d="M2 6C2 4.59987 2 3.8998 2.27248 3.36502C2.51217 2.89462 2.89462 2.51217 3.36502 2.27248C3.8998 2 4.59987 2 6 2H10C11.4001 2 12.1002 2 12.635 2.27248C13.1054 2.51217 13.4878 2.89462 13.7275 3.36502C14 3.8998 14 4.59987 14 6V10C14 11.4001 14 12.1002 13.7275 12.635C13.4878 13.1054 13.1054 13.4878 12.635 13.7275C12.1002 14 11.4001 14 10 14H6C4.59987 14 3.8998 14 3.36502 13.7275C2.89462 13.4878 2.51217 13.1054 2.27248 12.635C2 12.1002 2 11.4001 2 10V6ZM12.0481 7.4519C11.5228 6.92656 10.8333 6.59707 10.0945 6.51831C9.35575 6.43956 8.61231 6.61629 7.98802 7.01908C7.36374 7.42186 6.8963 8.02638 6.66357 8.73194C6.43084 9.4375 6.44688 10.2015 6.709 10.8967C6.97113 11.5918 7.46352 12.1762 8.10416 12.5524C8.74479 12.9287 9.495 13.0741 10.2298 12.9644C10.9646 12.8547 11.6397 12.4966 12.1425 11.9497C12.5998 11.4523 12.8895 10.8261 12.9742 10.1591C12.9909 10.1091 13 10.0556 13 10C13 9.72386 12.7761 9.5 12.5 9.5H10.5C10.2239 9.5 10 9.72386 10 10C10 10.2761 10.2239 10.5 10.5 10.5H11.8288C11.7299 10.7742 11.577 11.0281 11.3769 11.2458C11.035 11.6177 10.5759 11.8612 10.0763 11.9358C9.5766 12.0104 9.06646 11.9115 8.63083 11.6557C8.19519 11.3998 7.86037 11.0024 7.68212 10.5297C7.50388 10.057 7.49297 9.5375 7.65123 9.05772C7.80948 8.57794 8.12734 8.16687 8.55186 7.89297C8.97637 7.61908 9.48191 7.4989 9.98427 7.55245C10.4866 7.60601 10.9555 7.83006 11.3127 8.18729L12.0481 7.4519Z" fill="#5BAFD4"/>
</svg>
