<svg width="16" height="16" viewBox="0 0 16 16" fill="none" xmlns="http://www.w3.org/2000/svg">
<path d="M8.01381 1.44394C8.35682 1.37012 8.7115 1.3697 9.05483 1.44199C9.44283 1.52368 9.80796 1.7337 10.5382 2.1539L12.9845 3.56113C13.7184 3.98339 14.0853 4.19484 14.3517 4.49081C14.5874 4.75273 14.7652 5.06168 14.8732 5.39706C14.9952 5.77609 14.9932 6.19983 14.9894 7.04648L14.9767 9.93124C14.973 10.7654 14.971 11.1827 14.8488 11.5562C14.7406 11.8867 14.5646 12.1912 14.3322 12.4498C14.0694 12.7421 13.7088 12.9523 12.9874 13.3717L10.4669 14.8375C9.73849 15.261 9.37408 15.4728 8.98647 15.5562C8.64355 15.6301 8.28871 15.6304 7.94546 15.5582C7.5574 15.4765 7.19156 15.2666 6.46108 14.8463L4.01577 13.4391C3.28181 13.0167 2.91398 12.8054 2.6476 12.5094C2.412 12.2475 2.23506 11.9384 2.1271 11.6031C2.00505 11.224 2.00615 10.8005 2.00991 9.9537L2.02358 7.06894C2.02729 6.23451 2.02824 5.81654 2.15053 5.44296C2.25875 5.11247 2.43562 4.80803 2.66811 4.54941C2.93088 4.25727 3.29176 4.04774 4.01284 3.62851L6.53335 2.16269C7.26182 1.73916 7.62616 1.52738 8.01381 1.44394ZM8.50014 5.9996C7.11956 5.9996 6.00036 7.11907 6.00014 8.4996C6.00014 9.88031 7.11943 10.9996 8.50014 10.9996H8.79311C9.3784 10.9995 9.9398 10.767 10.3537 10.3531C10.5487 10.1578 10.5488 9.84126 10.3537 9.64609C10.1585 9.45105 9.84187 9.45114 9.64663 9.64609C9.4203 9.87241 9.11318 9.99955 8.79311 9.9996H8.50014C7.67172 9.9996 7.00014 9.32803 7.00014 8.4996C7.00036 7.67136 7.67185 6.9996 8.50014 6.9996H8.79311C9.07305 6.99965 9.34306 7.09722 9.55776 7.27304L9.64663 7.35312L9.72475 7.41757C9.91883 7.54573 10.1828 7.52398 10.3537 7.35312C10.5243 7.18225 10.5462 6.91819 10.4181 6.72421L10.3537 6.64609L10.1915 6.4996C9.79889 6.17794 9.30515 5.99965 8.79311 5.9996H8.50014Z" fill="#5BAFD4"/>
</svg>
