<svg width="16" height="16" viewBox="0 0 16 16" fill="none" xmlns="http://www.w3.org/2000/svg">
<path fill-rule="evenodd" clip-rule="evenodd" d="M14.347 3.74039C14.0787 3.44394 13.7092 3.23334 12.9702 2.81214L10.0268 1.13466C9.30124 0.72114 8.93845 0.514379 8.55337 0.433967C8.21264 0.362814 7.8608 0.363601 7.52038 0.436276C7.13567 0.518408 6.77381 0.726789 6.05009 1.14355L3.02942 2.88302L3.02942 2.88303C2.30303 3.30132 1.93984 3.51047 1.67513 3.8032C1.44091 4.06222 1.26355 4.36743 1.15449 4.69918C1.03122 5.0741 1.02934 5.4932 1.02558 6.33142L1.01049 9.69468C1.00667 10.5453 1.00476 10.9706 1.12776 11.3511C1.23658 11.6877 1.4156 11.9973 1.65297 12.2596C1.92127 12.5561 2.2908 12.7667 3.02984 13.1879L5.9732 14.8653C6.69877 15.2789 7.06156 15.4856 7.44664 15.566C7.78738 15.6372 8.13922 15.6364 8.47963 15.5637C8.86434 15.4816 9.2262 15.2732 9.94993 14.8564L12.9706 13.117L12.9706 13.117C13.697 12.6987 14.0602 12.4895 14.3249 12.1968C14.5591 11.9378 14.7365 11.6326 14.8455 11.3008C14.9688 10.9259 14.9707 10.5068 14.9744 9.66858L14.9895 6.30532C14.9933 5.45468 14.9952 5.02936 14.8722 4.64892C14.7634 4.31233 14.5844 4.00266 14.347 3.74039ZM9.3394 4.76642C10.0512 5.06127 10.6459 5.58275 11.0311 6.25L10.0611 6.81C9.79919 6.35627 9.39483 6.00166 8.91079 5.80117C8.42675 5.60067 7.89008 5.5655 7.38402 5.7011C6.87795 5.8367 6.43077 6.13549 6.11182 6.55115C5.79288 6.9668 5.62001 7.47608 5.62001 8C5.62001 8.52392 5.79288 9.0332 6.11182 9.44885C6.43077 9.8645 6.87795 10.1633 7.38402 10.2989C7.89008 10.4345 8.42675 10.3993 8.91079 10.1988C9.39483 9.99834 9.79919 9.64373 10.0611 9.19L11.0311 9.75C10.6459 10.4172 10.0512 10.9387 9.3394 11.2336C8.62758 11.5284 7.83836 11.5802 7.09414 11.3807C6.34992 11.1813 5.6923 10.7419 5.22327 10.1307C4.75424 9.51941 4.50001 8.77047 4.50001 8C4.50001 7.22953 4.75424 6.48059 5.22327 5.86934C5.6923 5.25808 6.34992 4.81867 7.09414 4.61926C7.83836 4.41985 8.62758 4.47158 9.3394 4.76642Z" fill="#5BAFD4"/>
</svg>
