<svg width="16" height="16" viewBox="0 0 16 16" fill="none" xmlns="http://www.w3.org/2000/svg">
<path fill-rule="evenodd" clip-rule="evenodd" d="M7.00001 0.62171C6.75267 0.73896 6.45919 0.90796 6.05009 1.14355L3.02942 2.88302L3.02942 2.88302C2.30303 3.30132 1.93984 3.51047 1.67513 3.8032C1.44091 4.06221 1.26355 4.36743 1.15449 4.69917C1.03122 5.0741 1.02934 5.4932 1.02558 6.33141L1.01049 9.69468C1.00667 10.5453 1.00476 10.9706 1.12776 11.3511C1.23658 11.6877 1.4156 11.9973 1.65297 12.2596C1.91764 12.552 2.2808 12.7609 3.00001 13.1708V5.5V4.88196L3.55279 4.60557L7.00001 2.88196V0.62171ZM5.00001 14.3107L5.9732 14.8653L5.97321 14.8653C6.42525 15.123 6.73647 15.3003 7.00001 15.4169V12.5V9H9.00001V10.882L11 9.88196V1.6893L10.0268 1.13466C9.57477 0.877029 9.26354 0.699652 9.00001 0.583084V3.5V7H7.00001V5.11803L5.00001 6.11803V14.3107ZM13 2.82914V10.5V11.118L12.4472 11.3944L9.00001 13.118V15.3783C9.24734 15.261 9.54082 15.092 9.94993 14.8564L12.9706 13.117C13.697 12.6987 14.0602 12.4895 14.3249 12.1968C14.5591 11.9378 14.7365 11.6326 14.8455 11.3008C14.9688 10.9259 14.9707 10.5068 14.9744 9.66858L14.9895 6.30532C14.9933 5.45468 14.9952 5.02936 14.8722 4.64891C14.7634 4.31233 14.5844 4.00266 14.347 3.74039C14.0824 3.44795 13.7192 3.23906 13 2.82914Z" fill="#7380F9"/>
</svg>
