<svg width="16" height="16" viewBox="0 0 16 16" fill="none" xmlns="http://www.w3.org/2000/svg">
<path d="M10.5 3H11.25C12.3546 3 13.25 3.89543 13.25 5V6C13.25 7.10457 14.1454 8 15.25 8H16" stroke="#F17F66" stroke-width="1.5"/>
<path d="M5.5 3H4.75C3.64543 3 2.75 3.89543 2.75 5V6C2.75 7.10457 1.85457 8 0.75 8H0" stroke="#F17F66" stroke-width="1.5"/>
<path d="M10.5 13H11.25C12.3546 13 13.25 12.1046 13.25 11V10C13.25 8.89543 14.1454 8 15.25 8H16" stroke="#F17F66" stroke-width="1.5"/>
<path d="M5.5 13H4.75C3.64543 13 2.75 12.1046 2.75 11V10C2.75 8.89543 1.85457 8 0.75 8H0" stroke="#F17F66" stroke-width="1.5"/>
<path d="M10.5 5H6.25V8H9.75V11L8 12L6.25 11V9.75" stroke="#F17F66" stroke-width="1.5"/>
</svg>
