<svg width="16" height="16" viewBox="0 0 16 16" fill="none" xmlns="http://www.w3.org/2000/svg">
<path d="M10.5 3H10.75C11.2147 3 11.447 3 11.6402 3.03843C12.4336 3.19624 13.0538 3.81644 13.2116 4.60982C13.25 4.80302 13.25 5.03534 13.25 5.5V5.5C13.25 5.96466 13.25 6.19698 13.2884 6.39018C13.4462 7.18356 14.0664 7.80376 14.8598 7.96157C15.053 8 15.2853 8 15.75 8H16" stroke="#F17F66" stroke-width="1.5"/>
<path d="M5.5 3H5.25C4.78534 3 4.55302 3 4.35982 3.03843C3.56644 3.19624 2.94624 3.81644 2.78843 4.60982C2.75 4.80302 2.75 5.03534 2.75 5.5V5.5C2.75 5.96466 2.75 6.19698 2.71157 6.39018C2.55376 7.18356 1.93356 7.80376 1.14018 7.96157C0.946983 8 0.714655 8 0.25 8H0" stroke="#F17F66" stroke-width="1.5"/>
<path d="M10.5 13H10.75C11.2147 13 11.447 13 11.6402 12.9616C12.4336 12.8038 13.0538 12.1836 13.2116 11.3902C13.25 11.197 13.25 10.9647 13.25 10.5V10.5C13.25 10.0353 13.25 9.80302 13.2884 9.60982C13.4462 8.81644 14.0664 8.19624 14.8598 8.03843C15.053 8 15.2853 8 15.75 8H16" stroke="#F17F66" stroke-width="1.5"/>
<path d="M5.5 13H5.25C4.78534 13 4.55302 13 4.35982 12.9616C3.56644 12.8038 2.94624 12.1836 2.78843 11.3902C2.75 11.197 2.75 10.9647 2.75 10.5V10.5C2.75 10.0353 2.75 9.80302 2.71157 9.60982C2.55376 8.81644 1.93356 8.19624 1.14018 8.03843C0.946983 8 0.714655 8 0.25 8H0" stroke="#F17F66" stroke-width="1.5"/>
<path d="M10.5 5H6.25V8H9.75V11L8 12L6.25 11V9.75" stroke="#F17F66" stroke-width="1.5"/>
</svg>
