<svg width="16" height="16" viewBox="0 0 16 16" fill="none" xmlns="http://www.w3.org/2000/svg">
<path d="M11 3C12.4 3 13.1 3.00007 13.6348 3.27246C14.1052 3.51214 14.4879 3.89483 14.7275 4.36523C14.9999 4.89999 15 5.60002 15 7V11C15 12.4 14.9999 13.1 14.7275 13.6348C14.4879 14.1052 14.1052 14.4879 13.6348 14.7275C13.1 14.9999 12.4 15 11 15H7C5.60002 15 4.89999 14.9999 4.36523 14.7275C3.89483 14.4879 3.51214 14.1052 3.27246 13.6348C3.00007 13.1 3 12.4 3 11V7.21582C3.07636 7.20915 3.15276 7.20047 3.22852 7.18652L3.54297 7.11914C3.89545 7.05395 4.2585 7.06436 4.60742 7.15137C5.04029 7.25934 5.50128 7.26447 5.90527 7.0752C6.14208 6.96423 6.36799 6.83346 6.58008 6.68457C6.94412 6.42892 7.16943 6.02822 7.29199 5.60059C7.40506 5.20622 7.61344 4.84491 7.89844 4.5498C8.20884 4.22833 8.44457 3.8309 8.4834 3.38574C8.49445 3.25874 8.5 3.12986 8.5 3H11ZM6.5 9H8V12C8 12.5523 7.55228 13 7 13C6.44772 13 6 12.5523 6 12V11.5H5V12C5 13.1046 5.89543 14 7 14C8.10457 14 9 13.1046 9 12V8H6.5V9ZM11.75 8C10.7835 8 10 8.7835 10 9.75C10 10.7165 10.7835 11.5 11.75 11.5H12.25C12.6642 11.5 13 11.8358 13 12.25C13 12.6642 12.6642 13 12.25 13H11.7861C11.3522 13 11 12.6478 11 12.2139V12H10V12.2139C10 13.2001 10.7999 14 11.7861 14H12.25C13.2165 14 14 13.2165 14 12.25C14 11.2835 13.2165 10.5 12.25 10.5H11.75C11.3358 10.5 11 10.1642 11 9.75C11 9.33579 11.3358 9 11.75 9H12.2139C12.6478 9 13 9.35219 13 9.78613V10H14V9.78613C14 8.79991 13.2001 8 12.2139 8H11.75Z" fill="#F5AA52"/>
<path d="M4.79102 0.108398C5.29528 0.246024 5.74623 0.510272 6.10742 0.867188C5.99273 1.14448 6.00341 1.47004 6.16504 1.75C6.32641 2.02949 6.60249 2.20053 6.89941 2.24023C6.96289 2.48315 7 2.73719 7 3C7 3.26248 6.96274 3.51615 6.89941 3.75879C6.60244 3.79846 6.32643 3.97047 6.16504 4.25C6.00357 4.52968 5.9931 4.85472 6.10742 5.13184C5.74621 5.48894 5.29541 5.75292 4.79102 5.89062C4.60815 5.65361 4.32251 5.5 4 5.5C3.67727 5.5 3.39085 5.65334 3.20801 5.89062C2.70375 5.75278 2.25268 5.48897 1.8916 5.13184C2.00607 4.85465 1.9965 4.52979 1.83496 4.25C1.6734 3.97016 1.39695 3.79821 1.09961 3.75879C1.03633 3.51622 1 3.26239 1 3C1 2.73728 1.03617 2.48307 1.09961 2.24023C1.3969 2.20078 1.67342 2.0298 1.83496 1.75C1.99666 1.46993 2.00644 1.14456 1.8916 0.867188C2.25266 0.510241 2.70388 0.246158 3.20801 0.108398C3.39083 0.346035 3.677 0.5 4 0.5C4.32279 0.5 4.60818 0.345765 4.79102 0.108398ZM4 2C3.44772 2 3 2.44772 3 3C3 3.55228 3.44772 4 4 4C4.55228 4 5 3.55228 5 3C5 2.44772 4.55228 2 4 2Z" fill="#8080A0"/>
</svg>
