<svg width="16" height="16" viewBox="0 0 16 16" fill="none" xmlns="http://www.w3.org/2000/svg">
<path fill-rule="evenodd" clip-rule="evenodd" d="M2 6C2 4.59987 2 3.8998 2.27248 3.36502C2.51217 2.89462 2.89462 2.51217 3.36502 2.27248C3.8998 2 4.59987 2 6 2H10C11.4001 2 12.1002 2 12.635 2.27248C13.1054 2.51217 13.4878 2.89462 13.7275 3.36502C14 3.8998 14 4.59987 14 6V10C14 11.4001 14 12.1002 13.7275 12.635C13.4878 13.1054 13.1054 13.4878 12.635 13.7275C12.1002 14 11.4001 14 10 14H6C4.59987 14 3.8998 14 3.36502 13.7275C2.89462 13.4878 2.51217 13.1054 2.27248 12.635C2 12.1002 2 11.4001 2 10V6ZM7 8H5.5V7H7.5H8V7.5V11C8 12.1046 7.10457 13 6 13C4.89543 13 4 12.1046 4 11V10.5H5V11C5 11.5523 5.44772 12 6 12C6.55228 12 7 11.5523 7 11V8ZM10.7361 7C9.77726 7 9 7.77726 9 8.73607V8.78921C9 9.41422 9.35312 9.98558 9.91214 10.2651C10.2211 10.4196 10.5618 10.5 10.9072 10.5H11.0928C11.2829 10.5 11.4705 10.5443 11.6406 10.6293C11.8609 10.7395 12 10.9646 12 11.2108V11.2639C12 11.6705 11.6705 12 11.2639 12H11C10.4477 12 10 11.5523 10 11H9C9 12.1046 9.89543 13 11 13H11.2639C12.2227 13 13 12.2227 13 11.2639V11.2108C13 10.5858 12.6469 10.0144 12.0879 9.73491C11.7789 9.58043 11.4382 9.5 11.0928 9.5H10.9072C10.7171 9.5 10.5295 9.45572 10.3594 9.37066C10.1391 9.26054 10 9.03544 10 8.78921V8.73607C10 8.32955 10.3295 8 10.7361 8H11C11.5523 8 12 8.44772 12 9H13C13 7.89543 12.1046 7 11 7H10.7361Z" fill="#F5AA52"/>
</svg>
