<svg width="16" height="16" viewBox="0 0 16 16" fill="none" xmlns="http://www.w3.org/2000/svg">
<path d="M11.5996 2.75H12.5996C12.7995 2.75 12.9281 2.75072 13.0166 2.75293L13.1953 2.76562C13.6969 2.84507 14.0971 3.21872 14.2148 3.70605L14.2344 3.80469C14.2474 3.88714 14.25 4.00043 14.25 4.40039C14.25 4.83941 14.2486 5.06491 14.2373 5.21777L14.2227 5.35156C14.0797 6.25403 13.4069 6.97429 12.5303 7.18652L12.3516 7.22266C12.1915 7.24796 11.9856 7.25 11.4004 7.25H11.25C11.1287 7.25 11.0563 7.24991 11.002 7.24805L10.9512 7.24512C10.8768 7.2303 10.815 7.18277 10.7803 7.11816L10.7549 7.04883C10.7565 7.05701 10.7537 7.04911 10.752 6.99805C10.7501 6.9437 10.75 6.87125 10.75 6.75V3.59961C10.75 3.30744 10.7502 3.13298 10.7607 3.00391C10.7656 2.94433 10.7725 2.91106 10.7764 2.89453L10.7773 2.88672C10.7893 2.8632 10.8048 2.84168 10.8232 2.82324L10.8867 2.77734C10.8703 2.78569 10.8838 2.77058 11.0039 2.76074C11.133 2.7502 11.3074 2.75 11.5996 2.75Z" stroke="#F17F66" stroke-width="1.5"/>
<path d="M1 6.5V4.85714C1 4.05917 1 3.66019 1.11223 3.33944C1.31326 2.76495 1.76495 2.31326 2.33944 2.11223C2.66019 2 3.05917 2 3.85714 2H10.4C10.9601 2 11.2401 2 11.454 2.10899C11.6422 2.20487 11.7951 2.35785 11.891 2.54601C12 2.75992 12 3.03995 12 3.6V6.5C12 6.9643 12 7.19645 11.9846 7.3923C11.7916 9.84418 9.84418 11.7916 7.3923 11.9846C7.19645 12 6.9643 12 6.5 12C6.0357 12 5.80355 12 5.6077 11.9846C3.15582 11.7916 1.20838 9.84418 1.01541 7.3923C1 7.19645 1 6.9643 1 6.5Z" fill="#F17F66"/>
<path d="M11.75 15H1.75C1.51703 15 1.40054 15 1.30866 14.9619C1.18614 14.9112 1.08881 14.8139 1.03806 14.6913C1 14.5995 1 14.483 1 14.25C1 14.017 1 13.9005 1.03806 13.8087C1.08881 13.6861 1.18614 13.5888 1.30866 13.5381C1.40054 13.5 1.51703 13.5 1.75 13.5H11.75C11.983 13.5 12.0995 13.5 12.1913 13.5381C12.3139 13.5888 12.4112 13.6861 12.4619 13.8087C12.5 13.9005 12.5 14.017 12.5 14.25C12.5 14.483 12.5 14.5995 12.4619 14.6913C12.4112 14.8139 12.3139 14.9112 12.1913 14.9619C12.0995 15 11.983 15 11.75 15Z" fill="#F17F66"/>
</svg>
