<svg width="16" height="16" viewBox="0 0 16 16" fill="none" xmlns="http://www.w3.org/2000/svg">
<path fill-rule="evenodd" clip-rule="evenodd" d="M2 6C2 4.59987 2 3.8998 2.27248 3.36502C2.51217 2.89462 2.89462 2.51217 3.36502 2.27248C3.8998 2 4.59987 2 6 2H10C11.4001 2 12.1002 2 12.635 2.27248C13.1054 2.51217 13.4878 2.89462 13.7275 3.36502C14 3.8998 14 4.59987 14 6V10C14 11.4001 14 12.1002 13.7275 12.635C13.4878 13.1054 13.1054 13.4878 12.635 13.7275C12.1002 14 11.4001 14 10 14H6C4.59987 14 3.8998 14 3.36502 13.7275C2.89462 13.4878 2.51217 13.1054 2.27248 12.635C2 12.1002 2 11.4001 2 10V6ZM9 8.75C9 7.7835 9.7835 7 10.75 7H11C12.1046 7 13 7.89543 13 9H12C12 8.44772 11.5523 8 11 8H10.75C10.3358 8 10 8.33579 10 8.75C10 9.16421 10.3358 9.5 10.75 9.5H11.25C12.2165 9.5 13 10.2835 13 11.25C13 12.2165 12.2165 13 11.25 13H11C9.89543 13 9 12.1046 9 11H10C10 11.5523 10.4477 12 11 12H11.25C11.6642 12 12 11.6642 12 11.25C12 10.8358 11.6642 10.5 11.25 10.5H10.75C9.7835 10.5 9 9.7165 9 8.75ZM5.5 8H7V11C7 11.5523 6.55228 12 6 12C5.44772 12 5 11.5523 5 11V10.5H4V11C4 12.1046 4.89543 13 6 13C7.10457 13 8 12.1046 8 11V7.5V7H7.5H5.5V8Z" fill="#F5AA52"/>
</svg>
