<svg width="16" height="16" viewBox="0 0 16 16" fill="none" xmlns="http://www.w3.org/2000/svg">
<g clip-path="url(#clip0_21_69)">
<path opacity="0.6" fill-rule="evenodd" clip-rule="evenodd" d="M4.87519 0.468108C4.95561 0.503615 5.06072 0.604295 5.27094 0.805653C5.71997 1.23575 6.32912 1.5 7 1.5C7.67088 1.5 8.28003 1.23575 8.72906 0.805653L8.72906 0.805646C8.93928 0.604292 9.04439 0.503615 9.12481 0.468108C9.20565 0.432415 9.26265 0.421823 9.35092 0.426091C9.43873 0.430338 9.52607 0.466899 9.70077 0.54002C10.2549 0.771978 10.7729 1.07317 11.2439 1.43277C11.3946 1.54775 11.4699 1.60525 11.5173 1.67908C11.5651 1.75338 11.5843 1.8078 11.5938 1.8956C11.6032 1.98286 11.5687 2.12415 11.4996 2.40673C11.3521 3.01029 11.4279 3.66943 11.7631 4.25C12.0984 4.83066 12.6314 5.22596 13.228 5.39993C13.5077 5.48151 13.6476 5.5223 13.7185 5.57426C13.7899 5.6265 13.8275 5.67057 13.8679 5.74924C13.9081 5.82747 13.92 5.92154 13.9439 6.10968C13.9628 6.25862 13.977 6.40902 13.9864 6.56073C13.912 6.55218 13.8379 6.54507 13.7641 6.53904C13.2856 6.49994 12.7081 6.49997 12.0556 6.5H12.0556L12 6.5H9L8.94445 6.5H8.94443C8.94195 6.5 8.93947 6.5 8.93699 6.5C8.71497 5.63739 7.93192 5 7 5C5.89543 5 5 5.89543 5 7C5 7.12042 5.01064 7.23835 5.03104 7.35291C4.57603 7.70988 4.20132 8.16327 3.93598 8.68404C3.67404 9.19813 3.58069 9.72621 3.53905 10.2359C3.49994 10.7144 3.49997 11.2919 3.5 11.9444L3.5 12L3.5 12.0556C3.49998 12.4172 3.49997 12.7558 3.50661 13.0673C3.24531 12.9166 2.99465 12.7494 2.75605 12.5672C2.60545 12.4523 2.53014 12.3948 2.48269 12.3209C2.43495 12.2466 2.41573 12.1922 2.40622 12.1044C2.39678 12.0171 2.43132 11.8759 2.50039 11.5933C2.64792 10.9897 2.57206 10.3306 2.23686 9.75C1.90162 9.16934 1.36861 8.77405 0.772044 8.60007C0.492307 8.51849 0.352438 8.4777 0.281477 8.42575C0.21012 8.3735 0.172498 8.32943 0.132091 8.25077C0.0919081 8.17253 0.0799672 8.07847 0.0560853 7.89033C0.0190753 7.59877 0 7.30161 0 7C0 6.69839 0.0190752 6.40124 0.0560849 6.10968C0.0799667 5.92154 0.0919076 5.82747 0.13209 5.74924C0.172497 5.67057 0.210119 5.6265 0.281476 5.57426C0.352438 5.5223 0.492307 5.48151 0.772044 5.39993C1.36861 5.22596 1.90162 4.83066 2.23686 4.25C2.57206 3.66943 2.64792 3.01029 2.50039 2.40673L2.50039 2.40673C2.43132 2.12415 2.39678 1.98286 2.40622 1.8956C2.41573 1.8078 2.43495 1.75337 2.48269 1.67908C2.53014 1.60525 2.60545 1.54775 2.75605 1.43277C3.22707 1.07317 3.74506 0.771978 4.29923 0.54002C4.47393 0.466899 4.56127 0.430338 4.64908 0.426091C4.73735 0.421823 4.79435 0.432415 4.87519 0.468108Z" fill="#8080A0"/>
<path fill-rule="evenodd" clip-rule="evenodd" d="M5 12C5 10.5999 5 9.8998 5.27248 9.36502C5.51217 8.89462 5.89462 8.51217 6.36502 8.27248C6.8998 8 7.59987 8 9 8H12C13.4001 8 14.1002 8 14.635 8.27248C15.1054 8.51217 15.4878 8.89462 15.7275 9.36502C16 9.8998 16 10.5999 16 12C16 13.4001 16 14.1002 15.7275 14.635C15.4878 15.1054 15.1054 15.4878 14.635 15.7275C14.1002 16 13.4001 16 12 16H9C7.59987 16 6.8998 16 6.36502 15.7275C5.89462 15.4878 5.51217 15.1054 5.27248 14.635C5 14.1002 5 13.4001 5 12ZM11 10.75C11 9.7835 11.7835 9 12.75 9H13C14.1046 9 15 9.89543 15 11H14C14 10.4477 13.5523 10 13 10H12.75C12.3358 10 12 10.3358 12 10.75C12 11.1642 12.3358 11.5 12.75 11.5H13.25C14.2165 11.5 15 12.2835 15 13.25C15 14.2165 14.2165 15 13.25 15H13C11.8954 15 11 14.1046 11 13H12C12 13.5523 12.4477 14 13 14H13.25C13.6642 14 14 13.6642 14 13.25C14 12.8358 13.6642 12.5 13.25 12.5H12.75C11.7835 12.5 11 11.7165 11 10.75ZM7.5 10H9V13C9 13.5523 8.55228 14 8 14C7.44772 14 7 13.5523 7 13V12.5H6V13C6 14.1046 6.89543 15 8 15C9.10457 15 10 14.1046 10 13V9.5V9H9.5H7.5V10Z" fill="#F5AA52"/>
</g>
<defs>
<clipPath id="clip0_21_69">
<rect width="16" height="16" fill="white"/>
</clipPath>
</defs>
</svg>
