<svg width="16" height="16" viewBox="0 0 16 16" fill="none" xmlns="http://www.w3.org/2000/svg">
<path d="M7 2.5V4H6.5C5.67157 4 5 4.67157 5 5.5V6C5 6.89734 4.6039 7.70023 3.97949 8.25C4.6039 8.79977 5 9.60266 5 10.5V11C5 11.8284 5.67157 12.5 6.5 12.5H7V14H6C4.34315 14 3 12.6569 3 11V10.5C3 9.67157 2.32843 9 1.5 9V7.5C2.32843 7.5 3 6.82843 3 6V5.5C3 3.84315 4.34315 2.5 6 2.5H7Z" fill="#A67CF8"/>
<path d="M10 2.5C11.6569 2.5 13 3.84315 13 5.5V6C13 6.82843 13.6716 7.5 14.5 7.5V9C13.6716 9 13 9.67157 13 10.5V11C13 12.6569 11.6569 14 10 14H9V12.5H9.5C10.3284 12.5 11 11.8284 11 11V10.5C11 9.60293 11.3954 8.79976 12.0195 8.25C11.3954 7.70024 11 6.89707 11 6V5.5C11 4.67157 10.3284 4 9.5 4H9V2.5H10Z" fill="#A67CF8"/>
</svg>
