<svg width="16" height="16" viewBox="0 0 16 16" fill="none" xmlns="http://www.w3.org/2000/svg">
<path d="M9.5 3H9.75C10.2147 3 10.447 3 10.6402 3.03843C11.4336 3.19624 12.0538 3.81644 12.2116 4.60982C12.25 4.80302 12.25 5.03534 12.25 5.5V5.5C12.25 5.96466 12.25 6.19698 12.2884 6.39018C12.4462 7.18356 13.0664 7.80376 13.8598 7.96157C14.053 8 14.2853 8 14.75 8H15" stroke="#A67CF8" stroke-width="1.5"/>
<path d="M6.5 3H6.25C5.78534 3 5.55302 3 5.35982 3.03843C4.56644 3.19624 3.94624 3.81644 3.78843 4.60982C3.75 4.80302 3.75 5.03534 3.75 5.5V5.5C3.75 5.96466 3.75 6.19698 3.71157 6.39018C3.55376 7.18356 2.93356 7.80376 2.14018 7.96157C1.94698 8 1.71466 8 1.25 8H1" stroke="#A67CF8" stroke-width="1.5"/>
<path d="M9.5 13H9.75C10.2147 13 10.447 13 10.6402 12.9616C11.4336 12.8038 12.0538 12.1836 12.2116 11.3902C12.25 11.197 12.25 10.9647 12.25 10.5V10.5C12.25 10.0353 12.25 9.80302 12.2884 9.60982C12.4462 8.81644 13.0664 8.19624 13.8598 8.03843C14.053 8 14.2853 8 14.75 8H15" stroke="#A67CF8" stroke-width="1.5"/>
<path d="M6.5 13H6.25C5.78534 13 5.55302 13 5.35982 12.9616C4.56644 12.8038 3.94624 12.1836 3.78843 11.3902C3.75 11.197 3.75 10.9647 3.75 10.5V10.5C3.75 10.0353 3.75 9.80302 3.71157 9.60982C3.55376 8.81644 2.93356 8.19624 2.14018 8.03843C1.94698 8 1.71466 8 1.25 8H1" stroke="#A67CF8" stroke-width="1.5"/>
</svg>
