<svg width="16" height="16" viewBox="0 0 16 16" fill="none" xmlns="http://www.w3.org/2000/svg">
<path d="M7 3.5H6.5C5.67157 3.5 5 4.17157 5 5V5.75C5 6.64734 4.6039 7.45023 3.97949 8C4.6039 8.54977 5 9.35266 5 10.25V11C5 11.8284 5.67157 12.5 6.5 12.5H7V14H6C4.34315 14 3 12.6569 3 11V10.25C3 9.42157 2.32843 8.75 1.5 8.75V7.25C2.32843 7.25 3 6.57843 3 5.75V5C3 3.34315 4.34315 2 6 2H7V3.5ZM10 2C11.6569 2 13 3.34315 13 5V5.75C13 6.57843 13.6716 7.25 14.5 7.25V8.75C13.6716 8.75 13 9.42157 13 10.25V11C13 12.6569 11.6569 14 10 14H9V12.5H9.5C10.3284 12.5 11 11.8284 11 11V10.25C11 9.35293 11.3954 8.54976 12.0195 8C11.3954 7.45024 11 6.64707 11 5.75V5C11 4.17157 10.3284 3.5 9.5 3.5H9V2H10Z" fill="#A67CF8"/>
</svg>
