<svg width="16" height="16" viewBox="0 0 16 16" fill="none" xmlns="http://www.w3.org/2000/svg">
<path fill-rule="evenodd" clip-rule="evenodd" d="M2.27248 3.36502C2 3.8998 2 4.59987 2 6V10C2 11.4001 2 12.1002 2.27248 12.635C2.51217 13.1054 2.89462 13.4878 3.36502 13.7275C3.8998 14 4.59987 14 6 14H10C11.4001 14 12.1002 14 12.635 13.7275C12.8702 13.6077 13.0834 13.4521 13.2678 13.2678L8 8L13.2678 2.73223C13.0834 2.54786 12.8702 2.39233 12.635 2.27248C12.1002 2 11.4001 2 10 2H6C4.59987 2 3.8998 2 3.36502 2.27248C2.89462 2.51217 2.51217 2.89462 2.27248 3.36502Z" fill="#7380F9"/>
<path fill-rule="evenodd" clip-rule="evenodd" d="M9 2L2 9V10C2 11.4001 2 12.1002 2.27248 12.635C2.39233 12.8702 2.54786 13.0834 2.73223 13.2678L8 8L13.2678 2.73223C13.0834 2.54786 12.8702 2.39233 12.635 2.27248C12.1002 2 11.4001 2 10 2H9Z" fill="#F17F66"/>
</svg>
