<svg width="16" height="16" viewBox="0 0 16 16" fill="none" xmlns="http://www.w3.org/2000/svg">
<path d="M8 15V13H10H12V15L10 14L8 15Z" fill="#F1667F"/>
<path fill-rule="evenodd" clip-rule="evenodd" d="M1.21799 4.09202C1 4.51984 1 5.0799 1 6.2V9.8C1 10.9201 1 11.4802 1.21799 11.908C1.40973 12.2843 1.71569 12.5903 2.09202 12.782C2.51984 13 3.07989 13 4.2 13H11.8C12.9201 13 13.4802 13 13.908 12.782C14.2843 12.5903 14.5903 12.2843 14.782 11.908C15 11.4802 15 10.9201 15 9.8V6.2C15 5.0799 15 4.51984 14.782 4.09202C14.5903 3.71569 14.2843 3.40973 13.908 3.21799C13.4802 3 12.9201 3 11.8 3H4.2C3.0799 3 2.51984 3 2.09202 3.21799C1.71569 3.40973 1.40973 3.71569 1.21799 4.09202ZM6 6.125H3V4.875H6V6.125ZM5 8.625H3V7.375H5V8.625ZM6 11.125H3V9.875H6V11.125ZM10 9.90909L12 11V8.81818L13.5 8L12 7.18182V5L10 6.09091L8 5V7.18182L6.5 8L8 8.81818V11L10 9.90909Z" fill="#F1667F"/>
</svg>
