<svg width="16" height="16" viewBox="0 0 16 16" fill="none" xmlns="http://www.w3.org/2000/svg">
<g clip-path="url(#clip0_4_64)">
<path fill-rule="evenodd" clip-rule="evenodd" d="M3.26395 7.22498L6.76372 6.28721L6.81387 6.27391C6.99354 6.22647 7.25425 6.15764 7.49505 6.0269L7.49505 6.02689C7.70254 5.91424 7.89101 5.76962 8.05353 5.59836C8.24214 5.3996 8.37611 5.16559 8.46843 5.00432L8.49426 4.95933L9.13066 3.85705L9.14895 3.82539C9.27301 3.61059 9.40068 3.38954 9.49456 3.19121C9.52935 3.1177 9.56487 3.03669 9.59746 2.94843L12.4848 3.72208C13.8372 4.08446 14.5134 4.26565 14.9594 4.66726C15.3518 5.02053 15.6222 5.48893 15.732 6.00534C15.8568 6.59242 15.6756 7.26864 15.3132 8.62106L14.2779 12.4848C13.9155 13.8372 13.7343 14.5134 13.3327 14.9594C12.9795 15.3518 12.5111 15.6222 11.9946 15.732C11.4076 15.8568 10.7314 15.6756 9.37893 15.3132L5.51523 14.2779C4.16281 13.9155 3.4866 13.7343 3.04056 13.3327C2.64822 12.9795 2.37779 12.5111 2.26802 11.9946C2.14323 11.4076 2.32442 10.7314 2.6868 9.37893L3.26395 7.22498ZM10.6174 5.86167C10.6898 5.59119 10.7261 5.45594 10.8064 5.36674C10.8771 5.28827 10.9707 5.23418 11.074 5.21223C11.1914 5.18727 11.3267 5.22351 11.5972 5.29599L13.4324 5.78774C13.7029 5.86022 13.8382 5.89646 13.9274 5.97678C14.0058 6.04743 14.0599 6.14111 14.0819 6.24439C14.1068 6.36181 14.0706 6.49705 13.9981 6.76754L13.5064 8.6028C13.4339 8.87328 13.3976 9.00852 13.3173 9.09773C13.2467 9.1762 13.153 9.23029 13.0497 9.25224C12.9323 9.2772 12.797 9.24096 12.5266 9.16848L10.6913 8.67673C10.4208 8.60425 10.2856 8.56801 10.1964 8.48769C10.1179 8.41704 10.0638 8.32336 10.0419 8.22007C10.0169 8.10266 10.0531 7.96741 10.1256 7.69693L10.6174 5.86167Z" fill="#5BAFD4"/>
<path fill-rule="evenodd" clip-rule="evenodd" d="M0.404822 3.17704L0.870696 4.91571C1.01565 5.45668 1.08812 5.72716 1.24877 5.90558C1.39007 6.06251 1.57744 6.17069 1.784 6.21459C2.01883 6.26451 2.28932 6.19203 2.83029 6.04708L6.4402 5.07981C6.67646 5.0165 6.79459 4.98485 6.8986 4.92837C6.99082 4.8783 7.07458 4.81403 7.14682 4.73791C7.22829 4.65206 7.28944 4.54615 7.41173 4.33432L8.04813 3.23205C8.32815 2.74703 8.46817 2.50452 8.48073 2.26478C8.49179 2.05389 8.43579 1.84491 8.32077 1.6678C8.19002 1.46645 7.94751 1.32644 7.46249 1.04641L6.36022 0.410017L6.36021 0.410015L6.36021 0.410013C6.14839 0.287721 6.04248 0.226574 5.929 0.192959C5.82839 0.163156 5.72371 0.149375 5.61881 0.152122C5.50049 0.15522 5.38236 0.186872 5.14611 0.250177L1.53619 1.21745C0.995223 1.3624 0.724739 1.43488 0.546325 1.59552C0.389389 1.73683 0.281215 1.92419 0.237308 2.13076C0.187393 2.36559 0.259869 2.63607 0.404822 3.17704ZM6.20917 3.5888C6.74264 3.44586 7.05922 2.89752 6.91628 2.36405C6.77333 1.83059 6.225 1.514 5.69153 1.65695C5.15807 1.79989 4.84148 2.34822 4.98442 2.88169C5.12737 3.41516 5.6757 3.73174 6.20917 3.5888Z" fill="#7380F9"/>
</g>
<defs>
<clipPath id="clip0_4_64">
<rect width="16" height="16" fill="white"/>
</clipPath>
</defs>
</svg>
