<svg width="16" height="16" viewBox="0 0 16 16" fill="none" xmlns="http://www.w3.org/2000/svg">
<g clip-path="url(#clip0_126_482)">
<path d="M12.4848 3.72208C13.837 4.08442 14.5132 4.26567 14.9592 4.66718C15.3516 5.02045 15.6222 5.48914 15.7319 6.00555C15.8566 6.59259 15.6755 7.26879 15.3132 8.62106L14.2779 12.4848C13.9156 13.837 13.7343 14.5132 13.3328 14.9592C12.9795 15.3516 12.5109 15.6222 11.9944 15.7319C11.4074 15.8566 10.7312 15.6755 9.37893 15.3132L5.51523 14.2779C4.16296 13.9156 3.48679 13.7343 3.04076 13.3328C2.64842 12.9795 2.37782 12.5109 2.26805 11.9944C2.14334 11.4074 2.32446 10.7312 2.6868 9.37893L3.27723 7.17542C3.31547 7.16762 3.35395 7.16095 3.39181 7.15152C3.79059 7.05214 4.20826 7.05221 4.60703 7.15159C5.03989 7.25956 5.50127 7.2651 5.90525 7.07584C6.1421 6.96487 6.36725 6.83314 6.57938 6.68424C6.94341 6.42868 7.16858 6.02864 7.2912 5.60109C7.40422 5.20675 7.61331 4.84565 7.89824 4.55053C8.20882 4.22894 8.44478 3.83036 8.48353 3.38496C8.49455 3.25812 8.49971 3.12974 8.49971 3.00006C8.49971 2.88227 8.49317 2.76566 8.48428 2.65015L12.4848 3.72208ZM11.597 5.29593C11.3268 5.22355 11.1917 5.18769 11.0744 5.21252C10.9711 5.23447 10.8771 5.28873 10.8065 5.3672C10.7263 5.45639 10.6898 5.59135 10.6174 5.86148L10.1256 7.69711C10.0532 7.96725 10.0173 8.10238 10.0421 8.2197C10.0641 8.32298 10.1184 8.41696 10.1968 8.48761C10.286 8.56778 10.421 8.60429 10.6911 8.67667L12.5267 9.16853C12.7969 9.24091 12.932 9.27677 13.0493 9.25194C13.1526 9.22998 13.2466 9.17573 13.3172 9.09726C13.3974 9.00807 13.4339 8.87312 13.5063 8.60298L13.9982 6.76734C14.0705 6.49721 14.1064 6.36208 14.0816 6.24476C14.0596 6.14148 14.0054 6.0475 13.9269 5.97685C13.8377 5.89669 13.7027 5.86017 13.4326 5.78779L11.597 5.29593Z" fill="#5BAFD4"/>
<path d="M4.79102 0.108398C5.29528 0.246024 5.74623 0.510272 6.10742 0.867188C5.99273 1.14448 6.00341 1.47004 6.16504 1.75C6.32641 2.02949 6.60249 2.20053 6.89941 2.24023C6.96289 2.48315 7 2.73719 7 3C7 3.26248 6.96274 3.51615 6.89941 3.75879C6.60244 3.79846 6.32643 3.97047 6.16504 4.25C6.00357 4.52968 5.9931 4.85472 6.10742 5.13184C5.74621 5.48894 5.29541 5.75292 4.79102 5.89062C4.60815 5.65361 4.32251 5.5 4 5.5C3.67727 5.5 3.39085 5.65334 3.20801 5.89062C2.70375 5.75278 2.25268 5.48897 1.8916 5.13184C2.00607 4.85465 1.9965 4.52979 1.83496 4.25C1.6734 3.97016 1.39695 3.79821 1.09961 3.75879C1.03633 3.51622 1 3.26239 1 3C1 2.73728 1.03617 2.48307 1.09961 2.24023C1.3969 2.20078 1.67342 2.0298 1.83496 1.75C1.99666 1.46993 2.00644 1.14456 1.8916 0.867188C2.25266 0.510241 2.70388 0.246158 3.20801 0.108398C3.39083 0.346035 3.677 0.5 4 0.5C4.32279 0.5 4.60818 0.345765 4.79102 0.108398ZM4 2C3.44772 2 3 2.44772 3 3C3 3.55228 3.44772 4 4 4C4.55228 4 5 3.55228 5 3C5 2.44772 4.55228 2 4 2Z" fill="#8080A0"/>
</g>
<defs>
<clipPath id="clip0_126_482">
<rect width="16" height="16" fill="white"/>
</clipPath>
</defs>
</svg>
