<svg width="16" height="16" viewBox="0 0 16 16" fill="none" xmlns="http://www.w3.org/2000/svg">
<g clip-path="url(#clip0_21_91)">
<path opacity="0.6" fill-rule="evenodd" clip-rule="evenodd" d="M5.27094 0.805653C5.06072 0.604295 4.95561 0.503615 4.87519 0.468108C4.79435 0.432415 4.73735 0.421823 4.64908 0.426091C4.56127 0.430338 4.47393 0.466899 4.29923 0.54002C3.74506 0.771978 3.22707 1.07317 2.75605 1.43277C2.60545 1.54775 2.53014 1.60525 2.48269 1.67908C2.43495 1.75337 2.41573 1.8078 2.40622 1.8956C2.39678 1.98286 2.43132 2.12415 2.50038 2.40672L2.50039 2.40673L2.50039 2.40673C2.64792 3.01029 2.57206 3.66943 2.23686 4.25C1.90162 4.83066 1.36861 5.22596 0.772044 5.39993C0.492307 5.48151 0.352438 5.5223 0.281476 5.57426C0.210119 5.6265 0.172497 5.67057 0.13209 5.74924C0.0919076 5.82747 0.0799667 5.92154 0.0560849 6.10968C0.0190752 6.40124 0 6.69839 0 7C0 7.30161 0.0190753 7.59877 0.0560853 7.89033C0.0799672 8.07847 0.0919081 8.17253 0.132091 8.25077C0.172498 8.32943 0.21012 8.3735 0.281477 8.42575C0.352438 8.4777 0.492307 8.51849 0.772044 8.60007C1.36861 8.77405 1.90162 9.16934 2.23686 9.75C2.57206 10.3306 2.64792 10.9897 2.50039 11.5933C2.43132 11.8759 2.39678 12.0171 2.40622 12.1044C2.41573 12.1922 2.43495 12.2466 2.48269 12.3209C2.53014 12.3948 2.60545 12.4523 2.75605 12.5672C3.22707 12.9268 3.74506 13.228 4.29924 13.46L4.29925 13.46C4.47393 13.5331 4.56128 13.5697 4.64908 13.5739C4.73735 13.5782 4.79435 13.5676 4.87519 13.5319C4.94059 13.503 5.02232 13.431 5.16363 13.2969C5.15027 13.2456 5.13805 13.1939 5.12699 13.1419C5.01951 12.6362 5.0632 12.1652 5.13988 11.7444C5.21101 11.3541 5.33345 10.8973 5.46677 10.3999L5.46678 10.3999L5.48035 10.3492L5.89446 8.80375L5.90803 8.75311C5.91393 8.73107 5.91981 8.70912 5.92567 8.68726C5.3691 8.33213 5 7.70917 5 7C5 5.89543 5.89543 5 7 5C7.42618 5 7.82123 5.13331 8.14572 5.36049C8.37288 5.25794 8.61158 5.17939 8.85809 5.12699C9.36375 5.01951 9.83484 5.0632 10.2556 5.13989C10.6459 5.21101 11.1027 5.33346 11.6001 5.46678L11.6508 5.48035L13.1962 5.89446L13.2469 5.90803L13.2469 5.90804C13.4901 5.97319 13.7236 6.03574 13.9425 6.09827C13.9195 5.91771 13.9073 5.82588 13.8679 5.74924C13.8275 5.67057 13.7899 5.6265 13.7185 5.57426C13.6476 5.5223 13.5077 5.48151 13.228 5.39993C12.6314 5.22596 12.0984 4.83066 11.7631 4.25C11.4279 3.66943 11.3521 3.01029 11.4996 2.40673C11.5687 2.12415 11.6032 1.98286 11.5938 1.8956C11.5843 1.8078 11.5651 1.75338 11.5173 1.67908C11.4699 1.60525 11.3946 1.54775 11.2439 1.43277C10.7729 1.07317 10.2549 0.771978 9.70077 0.54002C9.52607 0.466899 9.43873 0.430338 9.35092 0.426091C9.26265 0.421823 9.20565 0.432415 9.12481 0.468108C9.04439 0.503615 8.93928 0.604292 8.72906 0.805646L8.72906 0.805653C8.28003 1.23575 7.67088 1.5 7 1.5C6.32912 1.5 5.71997 1.23575 5.27094 0.805653Z" fill="#8080A0"/>
<path fill-rule="evenodd" clip-rule="evenodd" d="M8.0995 7.21225C7.77821 7.56908 7.63326 8.11005 7.34335 9.19198L6.92924 10.7375C6.63934 11.8194 6.49439 12.3604 6.59422 12.83C6.68203 13.2432 6.89838 13.6179 7.21225 13.9005C7.56908 14.2218 8.11005 14.3667 9.19198 14.6566L10.7375 15.0708C11.8194 15.3607 12.3604 15.5056 12.83 15.4058C13.2432 15.318 13.6179 15.1016 13.9005 14.7878C14.2218 14.4309 14.3667 13.89 14.6566 12.808L15.0708 11.2625C15.3607 10.1806 15.5056 9.63963 15.4058 9.16996C15.318 8.75683 15.1016 8.38211 14.7878 8.0995C14.4309 7.77821 13.89 7.63326 12.808 7.34335L11.2625 6.92924C10.1806 6.63934 9.63963 6.49438 9.16996 6.59422C8.75683 6.68203 8.38211 6.89838 8.0995 7.21225ZM11.7584 8.38003C11.6781 8.46924 11.6419 8.60448 11.5694 8.87496L11.2071 10.2273C11.1346 10.4977 11.0983 10.633 11.1233 10.7504C11.1453 10.8537 11.1993 10.9474 11.2778 11.018C11.367 11.0983 11.5023 11.1346 11.7727 11.2071L13.125 11.5694C13.3955 11.6419 13.5308 11.6781 13.6482 11.6532C13.7515 11.6312 13.8451 11.5771 13.9158 11.4987C13.9961 11.4094 14.0324 11.2742 14.1048 11.0037L14.4672 9.65142C14.5397 9.38094 14.5759 9.24569 14.5509 9.12828C14.529 9.025 14.4749 8.93131 14.3964 8.86066C14.3072 8.78034 14.172 8.7441 13.9015 8.67162L12.5492 8.30928C12.2787 8.2368 12.1435 8.20056 12.0261 8.22552C11.9228 8.24747 11.8291 8.30156 11.7584 8.38003Z" fill="#5BAFD4"/>
</g>
<defs>
<clipPath id="clip0_21_91">
<rect width="16" height="16" fill="white"/>
</clipPath>
</defs>
</svg>
