<svg width="16" height="16" viewBox="0 0 16 16" fill="none" xmlns="http://www.w3.org/2000/svg">
<path fill-rule="evenodd" clip-rule="evenodd" d="M3.66726 2.04056C3.26565 2.4866 3.08446 3.16281 2.72208 4.51523L1.6868 8.37893C1.32442 9.73136 1.14323 10.4076 1.26802 10.9946C1.37779 11.5111 1.64822 11.9795 2.04056 12.3327C2.4866 12.7343 3.16281 12.9155 4.51523 13.2779L8.37893 14.3132C9.73136 14.6756 10.4076 14.8568 10.9946 14.732C11.5111 14.6222 11.9795 14.3518 12.3327 13.9594C12.7343 13.5134 12.9155 12.8372 13.2779 11.4848L14.3132 7.62106C14.6756 6.26864 14.8568 5.59242 14.732 5.00534C14.6222 4.48893 14.3518 4.02053 13.9594 3.66726C13.5134 3.26565 12.8372 3.08446 11.4848 2.72208L7.62106 1.6868C6.26864 1.32442 5.59242 1.14323 5.00534 1.26802C4.48893 1.37779 4.02053 1.64822 3.66726 2.04056ZM9.80641 4.36674C9.72609 4.45594 9.68985 4.59119 9.61737 4.86167L9.12562 6.69693C9.05314 6.96741 9.0169 7.10266 9.04186 7.22007C9.06381 7.32336 9.1179 7.41704 9.19637 7.48769C9.28557 7.56801 9.42082 7.60425 9.6913 7.67673L11.5266 8.16848C11.797 8.24096 11.9323 8.2772 12.0497 8.25224C12.153 8.23029 12.2467 8.1762 12.3173 8.09773C12.3976 8.00852 12.4339 7.87328 12.5064 7.6028L12.9981 5.76754C13.0706 5.49705 13.1068 5.36181 13.0819 5.24439C13.0599 5.14111 13.0058 5.04743 12.9274 4.97678C12.8382 4.89646 12.7029 4.86022 12.4324 4.78774L10.5972 4.29599C10.3267 4.22351 10.1914 4.18727 10.074 4.21223C9.97074 4.23418 9.87706 4.28827 9.80641 4.36674Z" fill="#5BAFD4"/>
</svg>
