<svg width="16" height="16" viewBox="0 0 16 16" fill="none" xmlns="http://www.w3.org/2000/svg">
<g clip-path="url(#clip0_151_80)">
<path d="M11.2599 4.42954C12.6123 4.79191 13.2884 4.97305 13.7344 5.37464C14.1267 5.72783 14.3975 6.19579 14.5074 6.71207C14.6321 7.29915 14.4507 7.97609 14.0884 9.32851L13.5707 11.2604C13.2084 12.6126 13.0272 13.2888 12.6256 13.7348C12.2724 14.1271 11.8036 14.3978 11.2872 14.5075C10.7002 14.6322 10.0239 14.4511 8.67174 14.0888L6.73989 13.5712C5.38774 13.2088 4.71145 13.0275 4.26542 12.6261C3.8731 12.2728 3.60249 11.804 3.49271 11.2877C3.36793 10.7007 3.54914 10.0244 3.91146 8.67218L4.16548 7.72417L6.69876 7.04619C6.88898 6.99521 7.14336 6.93296 7.37553 6.80695L7.51119 6.72703C7.64269 6.6416 7.7636 6.54032 7.87181 6.42633L7.99774 6.27708C8.11435 6.12361 8.20418 5.96256 8.27808 5.83456L8.91512 4.73239C9.04684 4.50425 9.17572 4.28072 9.2688 4.08406C9.29386 4.03111 9.3187 3.97496 9.34223 3.91569L11.2599 4.42954ZM10.5489 6.30957C10.279 6.23725 10.1438 6.20051 10.0266 6.22522C9.92339 6.24715 9.8293 6.30154 9.75867 6.3799C9.67835 6.46911 9.64184 6.60464 9.56936 6.87512L9.20717 8.22685C9.13469 8.49733 9.09855 8.63296 9.1235 8.75038C9.14546 8.85366 9.19971 8.94764 9.27818 9.01829C9.36737 9.09838 9.50244 9.135 9.77246 9.20735L11.1251 9.5698C11.3952 9.64215 11.5304 9.67798 11.6477 9.65321C11.751 9.63125 11.845 9.577 11.9156 9.49853C11.996 9.40932 12.0325 9.27379 12.1049 9.00331L12.4671 7.65158C12.5396 7.38109 12.5758 7.24546 12.5508 7.12805C12.5288 7.02487 12.4745 6.93073 12.3961 6.86014C12.3069 6.78011 12.1715 6.74434 11.9016 6.67202L10.5489 6.30957Z" fill="#5BAFD4"/>
<path d="M5.14577 1.25027C5.38203 1.18696 5.50052 1.15492 5.61884 1.15182C5.72372 1.14908 5.82853 1.16323 5.92914 1.19303C6.04257 1.22665 6.14864 1.28786 6.36037 1.4101L7.46192 2.04609C7.94694 2.32611 8.19038 2.46679 8.32114 2.66814C8.43589 2.84503 8.49181 3.05373 8.48088 3.2643C8.46832 3.50405 8.32783 3.74761 8.0478 4.23262L7.41182 5.33418C7.28957 5.54591 7.22832 5.65195 7.1469 5.73778C7.07468 5.81389 6.99098 5.87855 6.89878 5.92862C6.79476 5.9851 6.67613 6.01659 6.43987 6.0799L2.82991 7.04718C2.28919 7.19207 2.01857 7.26416 1.7838 7.21425C1.57743 7.17033 1.39039 7.06235 1.24917 6.90558C1.08856 6.72721 1.01568 6.4568 0.870797 5.91609L0.404721 4.17667C0.259836 3.63595 0.187745 3.36533 0.237648 3.13055C0.281572 2.92418 0.389557 2.73715 0.546317 2.59592C0.724689 2.43531 0.995098 2.36244 1.53582 2.21755L5.14577 1.25027ZM5.69153 2.65695C5.15807 2.79989 4.84148 3.34822 4.98442 3.88169C5.12737 4.41516 5.6757 4.73174 6.20917 4.5888C6.74264 4.44586 7.05922 3.89752 6.91628 3.36405C6.77333 2.83059 6.225 2.514 5.69153 2.65695Z" fill="#7380F9"/>
</g>
<defs>
<clipPath id="clip0_151_80">
<rect width="16" height="16" fill="white"/>
</clipPath>
</defs>
</svg>
