<svg width="16" height="16" viewBox="0 0 16 16" fill="none" xmlns="http://www.w3.org/2000/svg">
<path fill-rule="evenodd" clip-rule="evenodd" d="M1 6.2C1 5.0799 1 4.51984 1.21799 4.09202C1.40973 3.71569 1.71569 3.40973 2.09202 3.21799C2.51984 3 3.0799 3 4.2 3H11.8C12.9201 3 13.4802 3 13.908 3.21799C14.2843 3.40973 14.5903 3.71569 14.782 4.09202C15 4.51984 15 5.0799 15 6.2V9.8C15 10.9201 15 11.4802 14.782 11.908C14.5903 12.2843 14.2843 12.5903 13.908 12.782C13.4802 13 12.9201 13 11.8 13H4.2C3.07989 13 2.51984 13 2.09202 12.782C1.71569 12.5903 1.40973 12.2843 1.21799 11.908C1 11.4802 1 10.9201 1 9.8V6.2ZM3 5.5C3 5.22386 3.22386 5 3.5 5H4C4.17563 5 4.33838 5.09215 4.42875 5.24275L5.5 7.02817L6.57125 5.24275C6.66162 5.09215 6.82437 5 7 5H7.5C7.77614 5 8 5.22386 8 5.5V11H7V6.47183L5.92875 8.25725C5.83838 8.40785 5.67563 8.5 5.5 8.5C5.32437 8.5 5.16162 8.40785 5.07125 8.25725L4 6.47183V11H3V5.5ZM11 5V9.29289L9.85355 8.14645L9.14645 8.85355L11.1464 10.8536C11.3417 11.0488 11.6583 11.0488 11.8536 10.8536L13.8536 8.85355L13.1464 8.14645L12 9.29289V5H11Z" fill="#5BAFD4"/>
</svg>
