<svg width="844" height="844" viewBox="0 0 844 844" fill="none" xmlns="http://www.w3.org/2000/svg">
<path d="M119.008 625.813C129.899 644.264 156.632 644.145 167.358 625.598L344.375 319.502L346.979 315H247.769L246.902 316.499L200.869 396.186C196.926 403.011 189.633 407.205 181.751 407.181L58.749 406.795C48.707 406.763 39.4171 412.112 34.4023 420.812L25.6016 436.081C20.6104 444.74 20.6132 455.404 25.6094 464.061L33.9609 478.53C38.9491 487.173 48.16 492.507 58.1387 492.533L107.195 492.662C124.136 492.706 134.672 511.076 126.156 525.721L101.534 568.062C96.4411 576.82 96.4767 587.646 101.627 596.371L119.008 625.813Z" fill="#5BAFD4" stroke="#5BAFD4" stroke-width="6"/>
<path d="M621.805 774.572C631.793 774.56 641.02 769.228 646.017 760.579L654.391 746.084L654.621 745.677C659.382 737.111 659.321 726.662 654.432 718.141L630.012 675.585C621.583 660.895 632.218 642.589 649.154 642.635L698.207 642.771C708.333 642.799 717.685 637.358 722.665 628.542L739.48 598.77C750.023 580.105 736.538 557 715.101 557H356.789L359.405 561.507L405.602 641.054L406.467 642.545L408.19 642.548L499.625 642.719C507.496 642.734 514.759 646.952 518.672 653.781L579.831 760.513L580.068 760.92C585.117 769.398 594.267 774.604 604.158 774.593L621.805 774.572Z" fill="#5BAFD4" stroke="#5BAFD4" stroke-width="6"/>
<path d="M563.596 423.504L608.833 345.391L609.684 343.923L608.863 342.438L565.054 263.094C561.31 256.313 561.408 248.061 565.312 241.371L627.456 134.88C632.534 126.178 632.545 115.418 627.485 106.705L618.622 91.4434C613.613 82.8181 604.393 77.5084 594.419 77.5049L577.503 77.499C567.537 77.4955 558.32 82.7898 553.302 91.4004L528.483 133.985C519.97 148.594 498.844 148.537 490.409 133.883L465.821 91.167C460.856 82.5418 451.694 77.211 441.766 77.1367H441.292L406.812 77.46C385.373 77.6608 372.105 100.895 382.826 119.461L558.402 423.5L560.996 427.992L563.596 423.504Z" fill="#5BAFD4" stroke="#5BAFD4" stroke-width="6"/>
<path d="M404.294 790.617L438.254 790.298C459.732 790.096 472.995 766.783 462.192 748.218L284.765 443.284L282.162 438.81L279.574 443.292L233.579 522.957L232.7 524.479L233.598 525.99L280.268 604.529C284.345 611.391 284.386 619.924 280.374 626.824L218.695 732.913C213.647 741.596 213.636 752.319 218.667 761.012L227.496 776.267C232.5 784.913 241.73 790.239 251.72 790.242L268.419 790.248L268.887 790.244C278.688 790.085 287.708 784.807 292.643 776.31L317.251 733.934C325.758 719.286 346.933 719.344 355.36 734.037L379.742 776.549L379.981 776.958C385.074 785.5 394.326 790.711 404.294 790.617Z" fill="#7380F9" stroke="#7380F9" stroke-width="6"/>
<path d="M483.31 305.448L437.2 225.5L436.346 224.018L434.635 224L344.188 223.017C336.388 222.932 329.217 218.724 325.339 211.957L264.097 105.092C259.102 96.3765 249.82 91.004 239.774 91.0142L222.14 91.0327C212.149 91.0428 202.921 96.3751 197.923 105.026L189.549 119.521C184.557 128.161 184.541 138.805 189.507 147.46L213.93 190.029L214.311 190.72C222.024 205.287 211.456 223.024 194.784 222.977L145.732 222.837C135.765 222.809 126.547 228.081 121.511 236.655L121.273 237.066L104.373 266.986C93.8507 285.615 107.263 308.684 128.658 308.756L480.701 309.947L485.915 309.964L483.31 305.448Z" fill="#7380F9" stroke="#7380F9" stroke-width="6"/>
<path d="M599.285 550.014L600.446 548.044L645.673 471.292L646.038 470.698C649.893 464.623 656.607 460.931 663.833 460.954L786.978 461.347C797.38 461.38 807.003 455.84 812.197 446.828L820.997 431.559C826.165 422.591 826.161 411.547 820.987 402.582L812.635 388.111C807.469 379.16 797.929 373.635 787.594 373.608L738.533 373.479C722.363 373.436 712.306 355.903 720.433 341.924L745.057 299.57C750.33 290.499 750.293 279.288 744.96 270.253L727.551 240.76C716.279 221.665 688.617 221.77 677.492 240.951L501.714 544.007L498.23 550.014H599.285Z" fill="#7380F9" stroke="#7380F9" stroke-width="8"/>
</svg>
