<svg width="16" height="16" viewBox="0 0 16 16" fill="none" xmlns="http://www.w3.org/2000/svg">
<path fill-rule="evenodd" clip-rule="evenodd" d="M6.38761 1.94056C6.97471 1.59809 7.26825 1.42685 7.58068 1.35986C7.85708 1.30059 8.14292 1.30059 8.41933 1.35986C8.73175 1.42685 9.02529 1.59809 9.61239 1.94056L12.4124 3.57389C12.9909 3.91136 13.2802 4.0801 13.4905 4.31514C13.6766 4.52312 13.8171 4.76773 13.9029 5.03326C14 5.33335 14 5.66823 14 6.33799V9.66201C14 10.3318 14 10.6667 13.9029 10.9667C13.8171 11.2323 13.6766 11.4769 13.4905 11.6849C13.2802 11.9199 12.9909 12.0886 12.4124 12.4261L9.61239 14.0594L9.61238 14.0594C9.02529 14.4019 8.73174 14.5731 8.41932 14.6401C8.14292 14.6994 7.85708 14.6994 7.58068 14.6401C7.26825 14.5731 6.97471 14.4019 6.38761 14.0594L4.85429 13.165C4.86332 13.1638 4.87216 13.1625 4.88086 13.1611C6.05045 12.9809 6.93303 12.0049 6.99609 10.8232C6.99981 10.7535 7 10.6752 7 10.5586V5H4.5V6H6V10.5586C6 10.6873 5.99998 10.733 5.99805 10.7695C5.96027 11.4786 5.43033 12.0647 4.72852 12.1729C4.69907 12.1774 4.66354 12.1809 4.58217 12.189C4.56353 12.1908 4.54248 12.1929 4.51855 12.1953C4.49868 12.1973 4.48 12.1992 4.4624 12.2009C4.30342 12.2169 4.23287 12.2239 4.17383 12.2266C3.55638 12.2539 2.9751 12.0535 2.51832 11.6946C2.51538 11.6914 2.51244 11.6881 2.50952 11.6849C2.32344 11.4769 2.18294 11.2323 2.09706 10.9667C2 10.6667 2 10.3318 2 9.66201V6.33798C2 5.66823 2 5.33335 2.09706 5.03326C2.18294 4.76773 2.32344 4.52312 2.50953 4.31514C2.71983 4.0801 3.00909 3.91136 3.58761 3.57389L3.58761 3.57389L3.58761 3.57389L6.38761 1.94056ZM8 9.21387V9H9V9.21387C9 9.64781 9.35219 10 9.78613 10H10.25C10.6642 10 11 9.66421 11 9.25C11 8.83579 10.6642 8.5 10.25 8.5H9.75C8.7835 8.5 8 7.7165 8 6.75C8 5.7835 8.7835 5 9.75 5H10.2139C11.2001 5 12 5.79991 12 6.78613V7H11V6.78613C11 6.35219 10.6478 6 10.2139 6H9.75C9.33579 6 9 6.33579 9 6.75C9 7.16421 9.33579 7.5 9.75 7.5H10.25C11.2165 7.5 12 8.2835 12 9.25C12 10.2165 11.2165 11 10.25 11H9.78613C8.79991 11 8 10.2001 8 9.21387Z" fill="#8CC162"/>
</svg>
