<svg width="16" height="16" viewBox="0 0 16 16" fill="none" xmlns="http://www.w3.org/2000/svg">
<path fill-rule="evenodd" clip-rule="evenodd" d="M6.38761 1.94056C6.97471 1.59809 7.26825 1.42685 7.58068 1.35986C7.85708 1.30059 8.14292 1.30059 8.41933 1.35986C8.73175 1.42685 9.02529 1.59809 9.61239 1.94056L12.4124 3.57389C12.9909 3.91136 13.2802 4.0801 13.4905 4.31514C13.6766 4.52312 13.8171 4.76773 13.9029 5.03326C14 5.33335 14 5.66823 14 6.33798V9.66201C14 10.3318 14 10.6667 13.9029 10.9667C13.8171 11.2323 13.6766 11.4769 13.4905 11.6849C13.2802 11.9199 12.9909 12.0886 12.4124 12.4261L9.61239 14.0594L9.61238 14.0594C9.02529 14.4019 8.73174 14.5731 8.41932 14.6401C8.14292 14.6994 7.85708 14.6994 7.58068 14.6401C7.26825 14.5731 6.97471 14.4019 6.38761 14.0594L4.85392 13.1648C4.86304 13.1635 4.87195 13.1622 4.88074 13.1609C6.05045 12.9806 6.9335 12.0049 6.99646 10.823C7.00001 10.7563 7.00001 10.6825 7 10.5742V10.5742L7 10.5591V5.5V5H6.5H4.5V6H6V10.5591C6 10.6881 5.99982 10.7333 5.99788 10.7698C5.9601 11.4789 5.43027 12.0644 4.72844 12.1725C4.69225 12.1781 4.64733 12.1828 4.51895 12.1956C4.31931 12.2156 4.23963 12.2234 4.17402 12.2263C3.55602 12.2537 2.97432 12.053 2.51742 11.6936C2.51477 11.6907 2.51214 11.6878 2.50952 11.6849C2.32344 11.4769 2.18294 11.2323 2.09706 10.9667C2 10.6667 2 10.3318 2 9.66201V6.33798C2 5.66823 2 5.33335 2.09706 5.03326C2.18294 4.76773 2.32344 4.52312 2.50953 4.31514C2.71983 4.0801 3.00909 3.91136 3.58761 3.57389L6.38761 1.94056ZM8 6.73607C8 5.77726 8.77726 5 9.73607 5H10C11.1046 5 12 5.89543 12 7H11C11 6.44772 10.5523 6 10 6H9.73607C9.32955 6 9 6.32955 9 6.73607V6.78921C9 7.03544 9.13912 7.26054 9.35936 7.37066C9.52947 7.45572 9.71705 7.5 9.90725 7.5H10.0928C10.4382 7.5 10.7789 7.58043 11.0879 7.73491C11.6469 8.01442 12 8.58578 12 9.21079V9.26393C12 10.2227 11.2227 11 10.2639 11H10C8.89543 11 8 10.1046 8 9H9C9 9.55228 9.44772 10 10 10H10.2639C10.6705 10 11 9.67045 11 9.26393V9.21079C11 8.96456 10.8609 8.73946 10.6406 8.62934C10.4705 8.54428 10.2829 8.5 10.0928 8.5H9.90725C9.56181 8.5 9.22111 8.41957 8.91214 8.26509C8.35312 7.98558 8 7.41422 8 6.78921V6.73607Z" fill="#8CC162"/>
</svg>
