<svg width="16" height="16" viewBox="0 0 16 16" fill="none" xmlns="http://www.w3.org/2000/svg">
<path fill-rule="evenodd" clip-rule="evenodd" d="M12.5 4.7C12.5 4.54888 12.4929 4.39942 12.4789 4.25195C12.7679 4.32584 13.0274 4.42139 13.27 4.54496C14.2108 5.02433 14.9757 5.78923 15.455 6.73004C16 7.7996 16 9.19973 16 12V12.4C16 12.96 16 13.2401 15.891 13.454C15.7951 13.6421 15.6422 13.7951 15.454 13.891C15.2401 14 14.9601 14 14.4 14H12V10.75C12 10.3358 11.6642 10 11.25 10C10.8358 10 10.5 10.3358 10.5 10.75V14H8.6C8.03995 14 7.75992 14 7.54601 13.891C7.35785 13.7951 7.20487 13.6421 7.10899 13.454C7 13.2401 7 12.96 7 12.4V10.9497C10.1017 10.5566 12.5 7.90839 12.5 4.7Z" fill="#5BAFD4"/>
<path d="M3 11.75V9H4.5V11.75C4.5 12.9926 3.49264 14 2.25 14C1.00736 14 0 12.9926 0 11.75V11H1.5V11.75C1.5 12.1642 1.83579 12.5 2.25 12.5C2.66421 12.5 3 12.1642 3 11.75Z" fill="#5BAFD4"/>
<path fill-rule="evenodd" clip-rule="evenodd" d="M6.2 9.5H3V5.5C3 3.29086 4.79086 1.5 7 1.5H7.8C9.56731 1.5 11 2.93269 11 4.7C11 7.35097 8.85097 9.5 6.2 9.5ZM6 7C6.55228 7 7 6.55228 7 6C7 5.44772 6.55228 5 6 5C5.44772 5 5 5.44772 5 6C5 6.55228 5.44772 7 6 7Z" fill="#5BAFD4"/>
</svg>
