<svg width="16" height="16" viewBox="0 0 16 16" fill="none" xmlns="http://www.w3.org/2000/svg">
<path fill-rule="evenodd" clip-rule="evenodd" d="M2 6C2 4.59987 2 3.8998 2.27248 3.36502C2.51217 2.89462 2.89462 2.51217 3.36502 2.27248C3.8998 2 4.59987 2 6 2H10C11.4001 2 12.1002 2 12.635 2.27248C13.1054 2.51217 13.4878 2.89462 13.7275 3.36502C14 3.8998 14 4.59987 14 6V10C14 11.4001 14 12.1002 13.7275 12.635C13.4878 13.1054 13.1054 13.4878 12.635 13.7275C12.1002 14 11.4001 14 10 14H6C4.59987 14 3.8998 14 3.36502 13.7275C2.89462 13.4878 2.51217 13.1054 2.27248 12.635C2 12.1002 2 11.4001 2 10V6ZM8.5 12V11H11.5V12H8.5ZM5.35355 6.14645C5.15829 5.95118 4.84171 5.95118 4.64645 6.14645C4.45118 6.34171 4.45118 6.65829 4.64645 6.85355L6.79289 9L4.64645 11.1464C4.45118 11.3417 4.45118 11.6583 4.64645 11.8536C4.84171 12.0488 5.15829 12.0488 5.35355 11.8536L7.85355 9.35355C8.04882 9.15829 8.04882 8.84171 7.85355 8.64645L5.35355 6.14645Z" fill="#5BAFD4"/>
</svg>
