<svg width="16" height="16" viewBox="0 0 16 16" fill="none" xmlns="http://www.w3.org/2000/svg">
<path fill-rule="evenodd" clip-rule="evenodd" d="M3.5 11V9.5C3.5 8.11929 4.61929 7 6 7H10C10.5523 7 11 6.55228 11 6V3.5C11 1.84315 9.65685 0.5 8 0.5H6C4.89543 0.5 4 1.39543 4 2.5V3.5H7.5V4.5H4.71429C2.66294 4.5 1 6.16294 1 8.21429V8.5C1 9.88071 2.11929 11 3.5 11ZM5 2.88743V3H5.5C6.05228 3 6.5 2.55228 6.5 2L6.31623 1.93874C5.6687 1.7229 5 2.20487 5 2.88743Z" fill="#7380F9"/>
<path fill-rule="evenodd" clip-rule="evenodd" d="M12.5 4.5V6C12.5 7.38071 11.3807 8.5 10 8.5H6C5.44771 8.5 5 8.94772 5 9.5V12C5 13.6569 6.34315 15 8 15H10C11.1046 15 12 14.1046 12 13V12H8.5V11H11.2857C13.3371 11 15 9.33706 15 7.28571V7C15 5.61929 13.8807 4.5 12.5 4.5ZM11 12.6126V12.5H10.5C9.94772 12.5 9.5 12.9477 9.5 13.5L9.68377 13.5613C10.3313 13.7771 11 13.2951 11 12.6126Z" fill="#F5AA52"/>
</svg>
