<svg width="16" height="16" viewBox="0 0 16 16" fill="none" xmlns="http://www.w3.org/2000/svg">
<path d="M8.2998 1C9.41991 1 9.98038 0.999786 10.4082 1.21777C10.7845 1.40951 11.0905 1.71554 11.2822 2.0918C11.5002 2.51962 11.5 3.08009 11.5 4.2002V5.90039C11.5 6.46018 11.4996 6.74024 11.3906 6.9541C11.2948 7.14207 11.1421 7.29479 10.9541 7.39062C10.7402 7.49959 10.4602 7.5 9.90039 7.5H7.2002C6.08009 7.5 5.51962 7.49979 5.0918 7.71777C4.71554 7.90951 4.40951 8.21554 4.21777 8.5918C3.99979 9.01962 4 9.58009 4 10.7002V12H3.83301C3.05604 12 2.66754 11.9999 2.36621 11.8594C2.0466 11.7103 1.78966 11.4534 1.64062 11.1338C1.50014 10.8325 1.5 10.444 1.5 9.66699C1.5 8.11263 1.50025 7.33517 1.78125 6.73242C2.07933 6.0932 2.5932 5.57933 3.23242 5.28125C3.83517 5.00025 4.61263 5 6.16699 5H8V4H4.5C4.5 3.06812 4.5001 2.60192 4.65234 2.23438C4.85533 1.74453 5.24453 1.35533 5.73438 1.15234C6.10192 1.0001 6.56812 1 7.5 1H8.2998ZM6.25 2C5.83579 2 5.5 2.33579 5.5 2.75C5.5 3.16421 5.83579 3.5 6.25 3.5C6.66421 3.5 7 3.16421 7 2.75C7 2.33579 6.66421 2 6.25 2Z" fill="#7380F9"/>
<path d="M12.667 4C13.444 4 13.8325 4.00014 14.1338 4.14062C14.4534 4.28966 14.7103 4.5466 14.8594 4.86621C14.9999 5.16754 15 5.55604 15 6.33301C15 7.88737 14.9998 8.66483 14.7188 9.26758C14.4207 9.9068 13.9068 10.4207 13.2676 10.7188C12.6648 10.9998 11.8874 11 10.333 11H8.5V12H12C12 12.9319 11.9999 13.3981 11.8477 13.7656C11.6447 14.2555 11.2555 14.6447 10.7656 14.8477C10.3981 14.9999 9.93188 15 9 15H8.2002C7.08009 15 6.51962 15.0002 6.0918 14.7822C5.71554 14.5905 5.40951 14.2845 5.21777 13.9082C4.99979 13.4804 5 12.9199 5 11.7998V10.0996C5 9.53982 5.00041 9.25976 5.10938 9.0459C5.20521 8.85793 5.35793 8.70521 5.5459 8.60938C5.75976 8.50041 6.03982 8.5 6.59961 8.5H9.2998C10.4199 8.5 10.9804 8.50021 11.4082 8.28223C11.7845 8.09049 12.0905 7.78446 12.2822 7.4082C12.5002 6.98038 12.5 6.41991 12.5 5.2998V4H12.667ZM10.25 12.5C9.83579 12.5 9.5 12.8358 9.5 13.25C9.5 13.6642 9.83579 14 10.25 14C10.6642 14 11 13.6642 11 13.25C11 12.8358 10.6642 12.5 10.25 12.5Z" fill="#F5AA52"/>
</svg>
