<svg width="16" height="16" viewBox="0 0 16 16" fill="none" xmlns="http://www.w3.org/2000/svg">
<path fill-rule="evenodd" clip-rule="evenodd" d="M3.66727 2.04056C3.26566 2.4866 3.08447 3.16281 2.72209 4.51523L1.68681 8.37893C1.32443 9.73136 1.14324 10.4076 1.26803 10.9946C1.37779 11.5111 1.64823 11.9795 2.04057 12.3327C2.4866 12.7343 3.16281 12.9155 4.51524 13.2779L8.37894 14.3132C9.73136 14.6756 10.4076 14.8568 10.9947 14.732C11.5111 14.6222 11.9795 14.3518 12.3327 13.9594C12.7343 13.5134 12.9155 12.8372 13.2779 11.4848L14.3132 7.62106C14.6756 6.26864 14.8568 5.59242 14.732 5.00534C14.6222 4.48893 14.3518 4.02053 13.9594 3.66726C13.5134 3.26565 12.8372 3.08446 11.4848 2.72208L7.62107 1.6868C6.26864 1.32442 5.59243 1.14323 5.00535 1.26802C4.48894 1.37779 4.02053 1.64822 3.66727 2.04056ZM6.75356 5.9956C6.7134 6.0402 6.69528 6.10782 6.65904 6.24307L5.96023 8.85106C5.92399 8.98631 5.90587 9.05393 5.91835 9.11264C5.92932 9.16428 5.95637 9.21112 5.9956 9.24644C6.04021 9.28661 6.10783 9.30472 6.24307 9.34096L8.85107 10.0398C8.98631 10.076 9.05393 10.0941 9.11264 10.0817C9.16428 10.0707 9.21112 10.0436 9.24645 10.0044C9.28661 9.95979 9.30473 9.89217 9.34097 9.75693L10.0398 7.14893C10.076 7.01369 10.0941 6.94607 10.0817 6.88736C10.0707 6.83572 10.0436 6.78888 10.0044 6.75355C9.9598 6.71339 9.89218 6.69527 9.75694 6.65903L7.14894 5.96022C7.01369 5.92398 6.94607 5.90587 6.88736 5.91834C6.83572 5.92932 6.78888 5.95636 6.75356 5.9956Z" fill="#808090"/>
</svg>
