<svg width="16" height="16" viewBox="0 0 16 16" fill="none" xmlns="http://www.w3.org/2000/svg">
<path fill-rule="evenodd" clip-rule="evenodd" d="M7.73948 15H11.8C12.9201 15 13.4802 15 13.908 14.782C14.2843 14.5903 14.5903 14.2843 14.782 13.908C15 13.4802 15 12.9201 15 11.8V7.73948C14.5532 8.62922 13.9638 9.45042 13.2466 10.1677L10.1677 13.2466C9.45042 13.9638 8.62922 14.5532 7.73948 15ZM14.9912 3.90468C14.9821 4.10419 14.9659 4.30275 14.9427 4.5H11.3203C11.4389 3.94077 11.5 3.36665 11.5 2.78622C11.5 2.08824 11.2232 1.46034 10.7775 1H11.2098C11.9442 1 12.3114 1 12.6162 1.06396C13.7813 1.30848 14.6915 2.21874 14.936 3.38382C14.967 3.5313 14.983 3.69341 14.9912 3.90468ZM1 10.7775V11.2098C1 11.9442 1 12.3114 1.06396 12.6162C1.30848 13.7813 2.21874 14.6915 3.38382 14.936C3.5313 14.967 3.69341 14.983 3.90468 14.9912C4.10419 14.9821 4.30275 14.9659 4.5 14.9427V11.3203C3.94077 11.4389 3.36665 11.5 2.78622 11.5C2.08824 11.5 1.46034 11.2232 1 10.7775ZM5.5 14.7634C6.98714 14.4028 8.36064 13.6394 9.46055 12.5394L10.5 11.5H5.5V14.7634ZM11.5 10.5L12.5395 9.46055C13.6394 8.36064 14.4028 6.98714 14.7634 5.5H11.5V10.5ZM3.97291 3.52892C5.07132 2.46719 6.41228 1.71131 7.86334 1.31616L8.77488 1.22501C9.69853 1.13264 10.5 1.85796 10.5 2.78622C10.5 4.71136 9.73524 6.55765 8.37396 7.91893L7.91893 8.37396C6.55765 9.73524 4.71136 10.5 2.78622 10.5C1.85796 10.5 1.13264 9.69853 1.22501 8.77488L1.31616 7.86334C1.71131 6.41228 2.46719 5.07132 3.52892 3.97291C3.58202 3.91798 3.63801 3.86199 3.75 3.75C3.86199 3.63801 3.91798 3.58202 3.97291 3.52892ZM9.08107 8.62604C9.64817 8.05894 10.1243 7.41786 10.5 6.72548V10.5H6.72548C7.41786 10.1243 8.05894 9.64817 8.62604 9.08107L9.08107 8.62604Z" fill="#F1667F"/>
</svg>
