<svg width="16" height="16" viewBox="0 0 16 16" fill="none" xmlns="http://www.w3.org/2000/svg">
<path fill-rule="evenodd" clip-rule="evenodd" d="M7.73948 15H13C14.1046 15 15 14.1046 15 13V7.73948C14.5532 8.62922 13.9638 9.45042 13.2466 10.1677L10.1677 13.2466C9.45042 13.9638 8.62922 14.5532 7.73948 15ZM14.9947 3.81966C14.9865 4.0478 14.9691 4.27475 14.9427 4.5H11.3203C11.4389 3.94077 11.5 3.36665 11.5 2.78622C11.5 2.08824 11.2232 1.46034 10.7775 1H12C13.5963 1 14.9014 2.24677 14.9947 3.81966ZM1 10.7775V12C1 13.5963 2.24677 14.9014 3.81966 14.9947C4.0478 14.9865 4.27475 14.9691 4.5 14.9427V11.3203C3.94077 11.4389 3.36665 11.5 2.78622 11.5C2.08824 11.5 1.46034 11.2232 1 10.7775ZM5.5 14.7634C6.98714 14.4028 8.36064 13.6394 9.46055 12.5394L10.5 11.5H5.5V14.7634ZM11.5 10.5L12.5395 9.46055C13.6394 8.36064 14.4028 6.98714 14.7634 5.5H11.5V10.5ZM3.75 3.75C4.94572 2.55428 6.43076 1.71437 8.04057 1.29844L8.77488 1.22501C9.69853 1.13264 10.5 1.85796 10.5 2.78622C10.5 4.71136 9.73524 6.55765 8.37396 7.91893L7.91893 8.37396C6.55765 9.73524 4.71136 10.5 2.78622 10.5C1.85796 10.5 1.13264 9.69853 1.22501 8.77488L1.29844 8.04057C1.71437 6.43076 2.55428 4.94572 3.75 3.75ZM9.08107 8.62604C9.64817 8.05894 10.1243 7.41786 10.5 6.72548V10.5H6.72548C7.41786 10.1243 8.05894 9.64817 8.62604 9.08107L9.08107 8.62604Z" fill="#F1667F"/>
</svg>
