<svg width="16" height="16" viewBox="0 0 16 16" fill="none" xmlns="http://www.w3.org/2000/svg">
<path fill-rule="evenodd" clip-rule="evenodd" d="M8 11V9.5H6.5V8.5H8.16667C8.6269 8.5 9 8.8731 9 9.33333C9 10.2538 9.74619 11 10.6667 11H13.5V9.5H12C11.7239 9.5 11.5 9.27614 11.5 9C11.5 8.44772 11.0523 8 10.5 8C11.1129 7.69357 11.5 7.05669 11.5 6.37148C11.5 5.34749 10.6699 4.5 9.6459 4.5H2.5V6H4.5V9.5H2.5V11H8ZM6.5 6V7H8.5C8.77614 7 9 6.77614 9 6.5C9 6.22386 8.77614 6 8.5 6H6.5Z" fill="#F17F66"/>
<circle cx="8" cy="8" r="6.25" stroke="#F17F66" stroke-width="1.5"/>
</svg>
