<svg width="16" height="16" viewBox="0 0 16 16" fill="none" xmlns="http://www.w3.org/2000/svg">
<path fill-rule="evenodd" clip-rule="evenodd" d="M8 11V9.5H6.5V8.5H8.16667C8.6269 8.5 9 8.8731 9 9.33333C9 10.2538 9.74619 11 10.6667 11H13.5V8.5H13V8.88563C13 9.22494 12.7249 9.5 12.3856 9.5H12.2906C11.8184 9.5 11.3993 9.19789 11.25 8.75L11.1581 8.47434C11.0637 8.19107 10.7986 8 10.5 8C11.1129 7.69357 11.5 7.05669 11.5 6.37148C11.5 5.34749 10.6699 4.5 9.6459 4.5H2V6H4V9.5H2V11H8ZM6.5 6V7H8.5C8.77614 7 9 6.77614 9 6.5C9 6.22386 8.77614 6 8.5 6H6.5Z" fill="#F17F66"/>
<circle cx="8" cy="8" r="6.25" stroke="#F17F66" stroke-width="1.5"/>
</svg>
