<svg width="16" height="16" viewBox="0 0 16 16" fill="none" xmlns="http://www.w3.org/2000/svg">
<path d="M13 4.5L2 5.5V4.92229C2 3.89073 2 3.37495 2.19395 2.96725C2.36476 2.60819 2.63872 2.3082 2.98083 2.10559C3.3693 1.87552 3.88296 1.82882 4.91029 1.73543L13 1V4.5Z" fill="#F1667F"/>
<path d="M13 9.5L2 10.5V7L13 6V9.5Z" fill="#F1667F"/>
<path d="M10.0897 14.7646L2 15.5V12L13 11V11.5777C13 12.6093 13 13.1251 12.806 13.5328C12.6352 13.8918 12.3613 14.1918 12.0192 14.3944C11.6307 14.6245 11.117 14.6712 10.0897 14.7646Z" fill="#F1667F"/>
</svg>
