<svg width="16" height="16" viewBox="0 0 16 16" fill="none" xmlns="http://www.w3.org/2000/svg">
<path fill-rule="evenodd" clip-rule="evenodd" d="M2.27248 3.36502C2 3.8998 2 4.59987 2 6V10C2 11.4001 2 12.1002 2.27248 12.635C2.51217 13.1054 2.89462 13.4878 3.36502 13.7275C3.8998 14 4.59987 14 6 14H10C11.4001 14 12.1002 14 12.635 13.7275C13.1054 13.4878 13.4878 13.1054 13.7275 12.635C14 12.1002 14 11.4001 14 10V6C14 4.59987 14 3.8998 13.7275 3.36502C13.4878 2.89462 13.1054 2.51217 12.635 2.27248C12.1002 2 11.4001 2 10 2H6C4.59987 2 3.8998 2 3.36502 2.27248C2.89462 2.51217 2.51217 2.89462 2.27248 3.36502ZM12 12V11H9V12H12ZM4 9.21387V9H5V9.21387C5 9.64781 5.35219 10 5.78613 10H6.26367C6.67019 10 7 9.67019 7 9.26367V9.21094C7 8.9647 6.86086 8.73902 6.64062 8.62891C6.47057 8.54391 6.28289 8.5 6.09277 8.5H5.90723C5.64818 8.5 5.39174 8.45496 5.14941 8.36719L4.91211 8.26465C4.35321 7.9851 4 7.41399 4 6.78906V6.73633C4 5.85768 4.65295 5.13127 5.5 5.01596V4H6.5V5.02281C7.35027 5.1598 8 5.8973 8 6.78613V7H7V6.78613C7 6.35219 6.64781 6 6.21387 6H5.73633C5.32981 6 5 6.32981 5 6.73633V6.78906C5 7.0353 5.13914 7.26098 5.35938 7.37109L5.49023 7.42676C5.6236 7.47504 5.76467 7.5 5.90723 7.5H6.09277C6.43821 7.5 6.77893 7.58087 7.08789 7.73535C7.64679 8.0149 8 8.58601 8 9.21094V9.26367C8 10.1423 7.34705 10.8687 6.5 10.984V12H5.5V10.9772C4.64973 10.8402 4 10.1027 4 9.21387Z" fill="#8CC162"/>
</svg>
