<svg width="16" height="16" viewBox="0 0 16 16" fill="none" xmlns="http://www.w3.org/2000/svg">
<path fill-rule="evenodd" clip-rule="evenodd" d="M2.27248 3.36502C2 3.8998 2 4.59987 2 6V10C2 11.4001 2 12.1002 2.27248 12.635C2.51217 13.1054 2.89462 13.4878 3.36502 13.7275C3.8998 14 4.59987 14 6 14H10C11.4001 14 12.1002 14 12.635 13.7275C13.1054 13.4878 13.4878 13.1054 13.7275 12.635C14 12.1002 14 11.4001 14 10V6C14 4.59987 14 3.8998 13.7275 3.36502C13.4878 2.89462 13.1054 2.51217 12.635 2.27248C12.1002 2 11.4001 2 10 2H6C4.59987 2 3.8998 2 3.36502 2.27248C2.89462 2.51217 2.51217 2.89462 2.27248 3.36502ZM9 12H12V11H9V12ZM6.5 5.06301V4H5.5V5.01592C4.65286 5.13109 4 5.85734 4 6.73607V6.78921C4 7.41422 4.35312 7.98558 4.91214 8.26509C5.22111 8.41957 5.56181 8.5 5.90725 8.5H6.09275C6.28295 8.5 6.47053 8.54428 6.64065 8.62934C6.86088 8.73946 7 8.96456 7 9.21079V9.26393C7 9.67045 6.67045 10 6.26393 10H6C5.44772 10 5 9.55228 5 9H4C4 9.93192 4.63739 10.715 5.5 10.937V12H6.5V10.9841C7.34714 10.8689 8 10.1427 8 9.26393V9.21079C8 8.58578 7.64688 8.01442 7.08786 7.73491C6.77889 7.58043 6.43819 7.5 6.09275 7.5H5.90725C5.71705 7.5 5.52947 7.45572 5.35936 7.37066C5.13912 7.26054 5 7.03544 5 6.78921V6.73607C5 6.32955 5.32955 6 5.73607 6H6C6.55228 6 7 6.44772 7 7H8C8 6.06808 7.36261 5.28503 6.5 5.06301Z" fill="#8CC162"/>
</svg>
