<svg width="16" height="16" viewBox="0 0 16 16" fill="none" xmlns="http://www.w3.org/2000/svg">
<path fill-rule="evenodd" clip-rule="evenodd" d="M6 14C4.59987 14 3.8998 14 3.36502 13.7275C2.89462 13.4878 2.51217 13.1054 2.27248 12.635C2 12.1002 2 11.4001 2 10V5.60706C2 5.04472 2 4.76355 2.05849 4.49792C2.12172 4.21077 2.23511 3.93703 2.39344 3.68927C2.53991 3.46009 2.73873 3.26127 3.13636 2.86364C3.61353 2.38647 3.85211 2.14789 4.12713 1.97213C4.42443 1.78213 4.75293 1.64606 5.09751 1.57019C5.41626 1.5 5.75366 1.5 6.42847 1.5H9.7C11.3802 1.5 12.2202 1.5 12.862 1.82698C13.4265 2.1146 13.8854 2.57354 14.173 3.13803C14.5 3.77976 14.5 4.61984 14.5 6.3V9.52049C14.5 10.1477 14.2509 10.7491 13.8074 11.1926C13.5094 11.4906 13 11.2795 13 10.8582V6.2C13 5.0799 13 4.51984 12.782 4.09202C12.5903 3.71569 12.2843 3.40973 11.908 3.21799C11.4802 3 10.9201 3 9.8 3H6.32548C5.8363 3 5.59171 3 5.36154 3.05526C5.15746 3.10425 4.96237 3.18506 4.78343 3.29472C4.5816 3.4184 4.40865 3.59135 4.06274 3.93726L4 4H9V6L10.5 7V4.01439C10.7942 4.03235 11.0029 4.07273 11.181 4.16349C11.4632 4.3073 11.6927 4.53677 11.8365 4.81901C12 5.13988 12 5.55992 12 6.4V10C12 11.4001 12 12.1002 11.7275 12.635C11.4878 13.1054 11.1054 13.4878 10.635 13.7275C10.1002 14 9.40013 14 8 14H6ZM5 7.73607C5 6.77726 5.77726 6 6.73607 6H7C8.10457 6 9 6.89543 9 8H8C8 7.44772 7.55228 7 7 7H6.73607C6.32955 7 6 7.32955 6 7.73607V7.78921C6 8.03544 6.13912 8.26054 6.35936 8.37066C6.52947 8.45572 6.71705 8.5 6.90725 8.5H7.09275C7.43819 8.5 7.77889 8.58043 8.08786 8.73491C8.64688 9.01442 9 9.58578 9 10.2108V10.2639C9 11.2227 8.22274 12 7.26393 12H7C5.89543 12 5 11.1046 5 10H6C6 10.5523 6.44772 11 7 11H7.26393C7.67045 11 8 10.6705 8 10.2639V10.2108C8 9.96456 7.86088 9.73946 7.64065 9.62934C7.47053 9.54428 7.28295 9.5 7.09275 9.5H6.90725C6.56181 9.5 6.22111 9.41957 5.91214 9.26509C5.35312 8.98558 5 8.41422 5 7.78921V7.73607Z" fill="#F165A0"/>
</svg>
