<svg height="16" viewBox="0 0 16 16" width="16" xmlns="http://www.w3.org/2000/svg">
<clipPath id="a">
<path clip-rule="evenodd" d="m16 0v16h-16v-16z" />
</clipPath>
<path d="m16 0v16h-16v-16z" fill="none" />
<path clip-path="url(#a)" d="m13.7985 2.10302c-1.4776-2.1283223-4.4193-2.751907-6.53407-1.409844l-3.72796 2.385894c-1.01671.63714-1.72163 1.68097-1.92498 2.86036-.17623.9896-.02711 2.00631.44736 2.88747-.32535.48802-.54225 1.03027-.63714 1.5996-.2169 1.2065.06778 2.4537.7727 3.4433 1.49118 2.1283 4.41932 2.7519 6.53409 1.4098l3.728-2.3723c1.0167-.6371 1.7216-1.681 1.9249-2.8603.1763-.98965.0271-2.00636-.4473-2.88752.3253-.48802.5422-1.03027.6371-1.59963.2305-1.22006-.0542-2.46723-.7727-3.45683zm-6.90009 11.97008c-1.2065.3118-2.46723-.1626-3.17215-1.1793-.4338-.5965-.59647-1.3421-.47447-2.0741.02712-.122.05423-.2305.08134-.3525l.06778-.2169.18979.1356c.44735.3253.93538.5693 1.46407.732l.13556.0407-.01355.1355c-.01356.1898.04066.3932.14911.5558.2169.3118.59648.4609.96249.366.08134-.0271.16268-.0542.23046-.0948l3.71436-2.37238c.1898-.12201.3118-.29824.3525-.51514s-.0136-.44735-.1356-.62358c-.2169-.3118-.59644-.44736-.96245-.35247-.08134.02712-.16268.05423-.23046.0949l-1.4234.90826c-.23046.14912-.48802.25757-.75915.32535-1.2065.3118-2.46723-.16267-3.17215-1.17939-.42024-.59647-.59647-1.34206-.46091-2.07409.12201-.70493.55581-1.34207 1.16583-1.72164l3.72796-2.37234c.23046-.14912.48802-.25756.75915-.3389 1.20648-.31179 2.46718.16267 3.17218 1.17939.4338.59647.5964 1.34206.4744 2.0741-.0271.122-.0542.23045-.0949.35246l-.0677.2169-.1898-.13557c-.4474-.32535-.9354-.56936-1.4641-.73203l-.1356-.04067.0136-.13556c.0136-.18979-.0407-.39313-.1491-.55581-.2169-.31179-.5965-.44735-.96251-.35246-.08134.02712-.16267.05423-.23045.0949l-3.7144 2.37233c-.18979.12201-.3118.29824-.35247.51514-.04066.2169.01356.44735.13557.62358.2169.31179.59647.44736.96249.35246.08133-.02711.16267-.05422.23045-.09489l1.4234-.90827c.23046-.14911.48803-.25756.75915-.3389 1.20647-.31179 2.46727.16267 3.17217 1.17939.4338.59647.5965 1.34206.4744 2.0741-.122.70493-.5558 1.34203-1.1658 1.72163l-3.72794 2.3723c-.23046.1492-.48802.2576-.75915.3389z" fill="#F18865" fill-rule="evenodd" />
</svg>
