<svg width="16" height="16" viewBox="0 0 16 16" fill="none" xmlns="http://www.w3.org/2000/svg">
<mask id="path-1-outside-1_113_119" maskUnits="userSpaceOnUse" x="-2.18084" y="-1.62846" width="20.3564" height="19.2583" fill="black">
<rect fill="white" x="-2.18084" y="-1.62846" width="20.3564" height="19.2583"/>
<path fill-rule="evenodd" clip-rule="evenodd" d="M6.61339 3.60359L5.09784 4.47859C3.78254 5.23798 3.33188 6.91986 4.09127 8.23516C4.85066 9.55047 6.53254 10.0011 7.84784 9.24173L8.49736 8.86673L9.14688 8.49173C9.5056 8.28462 9.96429 8.40753 10.1714 8.76625C10.3785 9.12497 10.2556 9.58366 9.89688 9.79077L8.38134 10.6658L8.38661 10.6749L6.43806 11.7999C6.07934 12.007 5.62065 11.8841 5.41354 11.5254C5.31127 11.3483 5.28947 11.1467 5.3368 10.9632C4.68773 10.7823 4.08113 10.4479 3.57621 9.9759C3.20506 10.7636 3.21314 11.7142 3.68149 12.5254C4.44088 13.8407 6.12275 14.2914 7.43806 13.532L9.38661 12.407L9.38134 12.3978L10.8969 11.5228C12.2122 10.7634 12.6628 9.08156 11.9034 7.76625C11.1441 6.45095 9.46218 6.00029 8.14688 6.75968L7.49736 7.13468L6.84784 7.50968C6.48912 7.71679 6.03043 7.59388 5.82332 7.23516C5.61622 6.87644 5.73912 6.41775 6.09784 6.21064L7.61339 5.33564L9.56194 4.21064C9.92066 4.00354 10.3794 4.12644 10.5865 4.48516C10.6887 4.6623 10.7105 4.86381 10.6632 5.04737C11.3123 5.22827 11.9189 5.56266 12.4238 6.03465C12.7949 5.24699 12.7869 4.29636 12.3185 3.48516C11.5591 2.16986 9.87725 1.7192 8.56194 2.47859L6.61339 3.60359Z"/>
</mask>
<path d="M8.38134 10.6658L7.63134 9.36673L6.3323 10.1167L7.0823 11.4158L8.38134 10.6658ZM8.38661 10.6749L9.13661 11.974L10.4357 11.224L9.68565 9.92491L8.38661 10.6749ZM5.3368 10.9632L6.7893 11.3377L7.15656 9.91322L5.73953 9.51827L5.3368 10.9632ZM3.57621 9.9759L4.60053 8.88011L3.09674 7.4744L2.2193 9.33653L3.57621 9.9759ZM7.43806 13.532L8.18806 14.831L7.43806 13.532ZM9.38661 12.407L10.1366 13.706L11.4357 12.956L10.6857 11.657L9.38661 12.407ZM9.38134 12.3978L8.63134 11.0988L7.3323 11.8488L8.0823 13.1478L9.38134 12.3978ZM10.6632 5.04737L9.2107 4.67287L8.84344 6.09734L10.2605 6.49229L10.6632 5.04737ZM12.4238 6.03465L11.3995 7.13045L12.9033 8.53616L13.7807 6.67403L12.4238 6.03465ZM5.84784 5.77763L7.36339 4.90263L5.86339 2.30455L4.34784 3.17955L5.84784 5.77763ZM5.39031 7.48516C5.04513 6.8873 5.24998 6.12281 5.84784 5.77763L4.34784 3.17955C2.3151 4.35316 1.61863 6.95242 2.79223 8.98516L5.39031 7.48516ZM7.09784 7.94269C6.49998 8.28787 5.73549 8.08303 5.39031 7.48516L2.79223 8.98516C3.96584 11.0179 6.5651 11.7144 8.59784 10.5408L7.09784 7.94269ZM7.74736 7.56769L7.09784 7.94269L8.59784 10.5408L9.24736 10.1658L7.74736 7.56769ZM8.39688 7.19269L7.74736 7.56769L9.24736 10.1658L9.89688 9.79077L8.39688 7.19269ZM11.4704 8.01625C10.8491 6.94009 9.47304 6.57137 8.39688 7.19269L9.89688 9.79077C9.53816 9.99788 9.07947 9.87497 8.87236 9.51625L11.4704 8.01625ZM10.6469 11.0898C11.723 10.4685 12.0918 9.09241 11.4704 8.01625L8.87236 9.51625C8.66525 9.15753 8.78816 8.69884 9.14688 8.49173L10.6469 11.0898ZM9.13134 11.9648L10.6469 11.0898L9.14688 8.49173L7.63134 9.36673L9.13134 11.9648ZM9.68565 9.92491L9.68037 9.91577L7.0823 11.4158L7.08758 11.4249L9.68565 9.92491ZM7.18806 13.099L9.13661 11.974L7.63661 9.37588L5.68806 10.5009L7.18806 13.099ZM4.1145 12.2754C4.73582 13.3516 6.1119 13.7203 7.18806 13.099L5.68806 10.5009C6.04678 10.2938 6.50547 10.4167 6.71258 10.7754L4.1145 12.2754ZM3.8843 10.5887C3.74286 11.1373 3.80795 11.7444 4.1145 12.2754L6.71258 10.7754C6.81459 10.9521 6.83608 11.1562 6.7893 11.3377L3.8843 10.5887ZM2.55188 11.0717C3.23675 11.7119 4.05783 12.1639 4.93407 12.4081L5.73953 9.51827C5.31763 9.40067 4.92552 9.1839 4.60053 8.88011L2.55188 11.0717ZM4.98053 11.7754C4.76829 11.4078 4.7625 10.9774 4.93311 10.6153L2.2193 9.33653C1.64762 10.5498 1.658 12.0206 2.38245 13.2754L4.98053 11.7754ZM6.68806 12.2329C6.09019 12.5781 5.3257 12.3733 4.98053 11.7754L2.38245 13.2754C3.55605 15.3081 6.15531 16.0046 8.18806 14.831L6.68806 12.2329ZM8.63661 11.1079L6.68806 12.2329L8.18806 14.831L10.1366 13.706L8.63661 11.1079ZM8.0823 13.1478L8.08758 13.157L10.6857 11.657L10.6804 11.6478L8.0823 13.1478ZM10.1469 10.2238L8.63134 11.0988L10.1313 13.6969L11.6469 12.8219L10.1469 10.2238ZM10.6044 8.51625C10.9496 9.11412 10.7447 9.8786 10.1469 10.2238L11.6469 12.8219C13.6796 11.6483 14.3761 9.04899 13.2025 7.01625L10.6044 8.51625ZM8.89688 8.05872C9.49475 7.71354 10.2592 7.91838 10.6044 8.51625L13.2025 7.01625C12.0289 4.98351 9.42962 4.28704 7.39688 5.46064L8.89688 8.05872ZM8.24736 8.43372L8.89688 8.05872L7.39688 5.46064L6.74736 5.83564L8.24736 8.43372ZM7.59784 8.80872L8.24736 8.43372L6.74736 5.83564L6.09784 6.21064L7.59784 8.80872ZM4.52428 7.98516C5.1456 9.06132 6.52168 9.43004 7.59784 8.80872L6.09784 6.21064C6.45656 6.00354 6.91525 6.12644 7.12236 6.48516L4.52428 7.98516ZM5.34784 4.9116C4.27168 5.53293 3.90296 6.909 4.52428 7.98516L7.12236 6.48516C7.32947 6.84388 7.20656 7.30257 6.84784 7.50968L5.34784 4.9116ZM6.86339 4.0366L5.34784 4.9116L6.84784 7.50968L8.36339 6.63468L6.86339 4.0366ZM8.81194 2.9116L6.86339 4.0366L8.36339 6.63468L10.3119 5.50968L8.81194 2.9116ZM11.8855 3.73516C11.2642 2.659 9.8881 2.29028 8.81194 2.9116L10.3119 5.50968C9.95322 5.71679 9.49453 5.59388 9.28742 5.23516L11.8855 3.73516ZM12.1157 5.42186C12.2571 4.87327 12.1921 4.26612 11.8855 3.73516L9.28742 5.23516C9.18541 5.05847 9.16392 4.85434 9.2107 4.67287L12.1157 5.42186ZM13.4481 4.93886C12.7633 4.29866 11.9422 3.84667 11.0659 3.60244L10.2605 6.49229C10.6824 6.60988 11.0745 6.82665 11.3995 7.13045L13.4481 4.93886ZM11.0195 4.23516C11.2317 4.60277 11.2375 5.03319 11.0669 5.39528L13.7807 6.67403C14.3524 5.46078 14.342 3.98995 13.6176 2.73516L11.0195 4.23516ZM9.31194 3.77763C9.90981 3.43245 10.6743 3.6373 11.0195 4.23516L13.6176 2.73516C12.4439 0.702418 9.84469 0.00594887 7.81194 1.17955L9.31194 3.77763ZM7.36339 4.90263L9.31194 3.77763L7.81194 1.17955L5.86339 2.30455L7.36339 4.90263Z" fill="#F17F66" mask="url(#path-1-outside-1_113_119)"/>
</svg>
