<svg width="16" height="16" viewBox="0 0 16 16" fill="none" xmlns="http://www.w3.org/2000/svg">
<path d="M15 13.0437V13.6294C15 13.9722 14.7222 14.25 14.3794 14.25H14.125L14.1025 14.1826C13.8547 13.4391 13.1588 12.9375 12.375 12.9375L10.6813 13.5303C6.75924 14.903 2.45904 12.8908 1 9H1.875C3.60127 9.86314 5.5048 10.3125 7.43484 10.3125H8L2.63422 5.35947C2.42914 5.17017 2.3125 4.90377 2.3125 4.62467V4.1875H2.86703C3.07546 4.1875 3.27867 4.25262 3.44827 4.37377L6.25 6.375L4.29428 4.02813C4.14452 3.84842 4.0625 3.62189 4.0625 3.38795V2.875H4.54852C4.79871 2.875 5.03981 2.96879 5.22424 3.13785L10.1875 7.6875V7.61354C10.1875 5.94427 9.73383 4.30639 8.875 2.875V2L10.026 2.49328C12.8926 3.72185 14.4439 6.84928 13.6875 9.875C14.5279 10.7154 15 11.8552 15 13.0437Z" fill="#F17F66"/>
</svg>
