<svg width="16" height="16" viewBox="0 0 16 16" fill="none" xmlns="http://www.w3.org/2000/svg">
<path d="M1 4.51115V2.94164C1 2.29873 1 1.97727 1.13541 1.78367C1.25365 1.61462 1.4363 1.50173 1.64038 1.47158C1.8741 1.43705 2.16162 1.58081 2.73666 1.86833L5 3V7.5L1.88446 5.94223L1.88445 5.94222C1.56339 5.7817 1.40287 5.70143 1.28558 5.58169C1.18187 5.47579 1.10299 5.34816 1.05465 5.20804C1 5.04958 1 4.8701 1 4.51115Z" fill="#A67CF8"/>
<path d="M6 8V3.5L10 5.5V10L6 8Z" fill="#A67CF8"/>
<path d="M6 12.5111V9L10 11V13.5584C10 14.2013 10 14.5227 9.86459 14.7163C9.74635 14.8854 9.5637 14.9983 9.35962 15.0284C9.1259 15.063 8.83838 14.9192 8.26335 14.6317L8.26334 14.6317L6.88446 13.9422L6.88445 13.9422C6.56339 13.7817 6.40287 13.7014 6.28558 13.5817C6.18187 13.4758 6.10299 13.3482 6.05465 13.208C6 13.0496 6 12.8701 6 12.5111Z" fill="#A67CF8"/>
<path d="M15 7.01115V5.44164C15 4.79873 15 4.47727 14.8646 4.28367C14.7464 4.11462 14.5637 4.00173 14.3596 3.97158C14.1259 3.93705 13.8384 4.08081 13.2633 4.36833L11 5.5V10L14.1155 8.44223L14.1155 8.44222C14.4366 8.2817 14.5971 8.20143 14.7144 8.08169C14.8181 7.97579 14.897 7.84816 14.9453 7.70804C15 7.54958 15 7.3701 15 7.01115Z" fill="#A67CF8"/>
</svg>
