<svg width="16" height="16" viewBox="0 0 16 16" fill="none" xmlns="http://www.w3.org/2000/svg">
<path fill-rule="evenodd" clip-rule="evenodd" d="M3.27248 3.36502C3 3.8998 3 4.59987 3 6V11C3 12.4001 3 13.1002 3.27248 13.635C3.51217 14.1054 3.89462 14.4878 4.36502 14.7275C4.8998 15 5.59987 15 7 15H10C11.4001 15 12.1002 15 12.635 14.7275C13.1054 14.4878 13.4878 14.1054 13.7275 13.635C14 13.1002 14 12.4001 14 11V7.32548C14 6.8363 14 6.59171 13.9447 6.36154C13.8957 6.15746 13.8149 5.96237 13.7053 5.78343C13.5816 5.5816 13.4086 5.40865 13.0627 5.06274L10.9373 2.93726C10.5914 2.59135 10.4184 2.4184 10.2166 2.29472C10.0376 2.18506 9.84254 2.10425 9.63846 2.05526C9.40829 2 9.1637 2 8.67452 2H7C5.59987 2 4.8998 2 4.36502 2.27248C3.89462 2.51217 3.51217 2.89462 3.27248 3.36502ZM5 8.125H12V6.875H5V8.125ZM5 10.625H12V9.375H5V10.625ZM5 11.875V13.125H9V11.875H5Z" fill="#A67CF8"/>
</svg>
