<svg width="16" height="16" viewBox="0 0 16 16" fill="none" xmlns="http://www.w3.org/2000/svg">
<path d="M9.6748 2C10.1638 2 10.4085 2.00041 10.6387 2.05566C10.8426 2.10466 11.0379 2.18532 11.2168 2.29492C11.4185 2.41859 11.5917 2.59174 11.9375 2.9375L13.0625 4.0625C13.4083 4.40826 13.5814 4.58148 13.7051 4.7832C13.8147 4.96206 13.8953 5.15736 13.9443 5.36133C13.9996 5.59146 14 5.83621 14 6.3252V11C14 12.4 13.9999 13.1 13.7275 13.6348C13.4879 14.1052 13.1052 14.4879 12.6348 14.7275C12.1 14.9999 11.4 15 10 15H7C5.60002 15 4.89999 14.9999 4.36523 14.7275C3.89483 14.4879 3.51214 14.1052 3.27246 13.6348C3.00007 13.1 3 12.4 3 11V6C3 4.60002 3.00007 3.89999 3.27246 3.36523C3.51214 2.89483 3.89483 2.51214 4.36523 2.27246C4.89999 2.00007 5.60002 2 7 2H9.6748ZM6 11C5.72386 11 5.5 11.2239 5.5 11.5V12C5.5 12.2761 5.72386 12.5 6 12.5H8.5C8.77614 12.5 9 12.2761 9 12V11.5C9 11.2239 8.77614 11 8.5 11H6ZM6 8.5C5.72386 8.5 5.5 8.72386 5.5 9V9.5C5.5 9.77614 5.72386 10 6 10H11C11.2761 10 11.5 9.77614 11.5 9.5V9C11.5 8.72386 11.2761 8.5 11 8.5H6ZM6 6C5.72386 6 5.5 6.22386 5.5 6.5V7C5.5 7.27614 5.72386 7.5 6 7.5H11C11.2761 7.5 11.5 7.27614 11.5 7V6.5C11.5 6.22386 11.2761 6 11 6H6Z" fill="#A67CF8"/>
</svg>
