<svg width="16" height="16" viewBox="0 0 16 16" fill="none" xmlns="http://www.w3.org/2000/svg">
<g clip-path="url(#clip0_4_27)">
<path fill-rule="evenodd" clip-rule="evenodd" d="M3 7.29565C3.03957 7.28512 3.07912 7.27451 3.11848 7.26396L3.15381 7.25449L6.76373 6.28722L6.81387 6.27391C6.99354 6.22648 7.25425 6.15764 7.49505 6.0269L7.49505 6.0269C7.70254 5.91424 7.89101 5.76962 8.05354 5.59836C8.24215 5.3996 8.37611 5.16559 8.46844 5.00432L8.49426 4.95933L9.13066 3.85706L9.14895 3.82539C9.27301 3.61059 9.40069 3.38954 9.49456 3.19121C9.52246 3.13226 9.55084 3.06848 9.57779 3L11 3C12.4001 3 13.1002 3 13.635 3.27248C14.1054 3.51217 14.4878 3.89462 14.7275 4.36502C15 4.8998 15 5.59987 15 7V11C15 12.4001 15 13.1002 14.7275 13.635C14.4878 14.1054 14.1054 14.4878 13.635 14.7275C13.1002 15 12.4001 15 11 15H7C5.59987 15 4.8998 15 4.36502 14.7275C3.89462 14.4878 3.51217 14.1054 3.27248 13.635C3 13.1002 3 12.4001 3 11V7.29565ZM11.75 8C10.7835 8 10 8.7835 10 9.75C10 10.7165 10.7835 11.5 11.75 11.5H12.25C12.6642 11.5 13 11.8358 13 12.25C13 12.6642 12.6642 13 12.25 13H12C11.4477 13 11 12.5523 11 12H10C10 13.1046 10.8954 14 12 14H12.25C13.2165 14 14 13.2165 14 12.25C14 11.2835 13.2165 10.5 12.25 10.5H11.75C11.3358 10.5 11 10.1642 11 9.75C11 9.33579 11.3358 9 11.75 9H12C12.5523 9 13 9.44772 13 10H14C14 8.89543 13.1046 8 12 8H11.75ZM7 9H5.5V8H7.5H9.5V9H8V14H7V9Z" fill="#7380F9"/>
<path fill-rule="evenodd" clip-rule="evenodd" d="M0.404822 3.17704L0.870696 4.91571C1.01565 5.45668 1.08812 5.72716 1.24877 5.90558C1.39007 6.06251 1.57744 6.17069 1.784 6.21459C2.01883 6.26451 2.28932 6.19203 2.83029 6.04708L6.4402 5.07981C6.67646 5.0165 6.79459 4.98485 6.8986 4.92838C6.99082 4.8783 7.07458 4.81403 7.14682 4.73791C7.22829 4.65206 7.28944 4.54615 7.41173 4.33433L8.04813 3.23205C8.32815 2.74704 8.46817 2.50453 8.48073 2.26478C8.49179 2.05389 8.43579 1.84491 8.32077 1.6678C8.19002 1.46646 7.94751 1.32644 7.46249 1.04642L6.36022 0.410019L6.36021 0.410017L6.36021 0.410015C6.14839 0.287723 6.04248 0.226576 5.929 0.192961C5.82839 0.163158 5.72371 0.149377 5.61881 0.152124C5.50049 0.155222 5.38236 0.186874 5.14611 0.250179L1.53619 1.21745C0.995223 1.3624 0.724739 1.43488 0.546325 1.59553C0.389389 1.73683 0.281215 1.92419 0.237308 2.13076C0.187393 2.36559 0.259869 2.63608 0.404822 3.17704ZM6.20917 3.5888C6.74264 3.44586 7.05922 2.89752 6.91628 2.36405C6.77333 1.83059 6.225 1.51401 5.69153 1.65695C5.15807 1.79989 4.84148 2.34823 4.98442 2.88169C5.12737 3.41516 5.6757 3.73174 6.20917 3.5888Z" fill="#5BAFD4"/>
</g>
<defs>
<clipPath id="clip0_4_27">
<rect width="16" height="16" fill="white"/>
</clipPath>
</defs>
</svg>
