<svg width="16" height="16" viewBox="0 0 16 16" fill="none" xmlns="http://www.w3.org/2000/svg">
<g clip-path="url(#clip0_21_33)">
<path fill-rule="evenodd" clip-rule="evenodd" d="M5 12C5 10.5999 5 9.8998 5.27248 9.36502C5.51217 8.89462 5.89462 8.51217 6.36502 8.27248C6.8998 8 7.59987 8 9 8H12C13.4001 8 14.1002 8 14.635 8.27248C15.1054 8.51217 15.4878 8.89462 15.7275 9.36502C16 9.8998 16 10.5999 16 12C16 13.4001 16 14.1002 15.7275 14.635C15.4878 15.1054 15.1054 15.4878 14.635 15.7275C14.1002 16 13.4001 16 12 16H9C7.59987 16 6.8998 16 6.36502 15.7275C5.89462 15.4878 5.51217 15.1054 5.27248 14.635C5 14.1002 5 13.4001 5 12ZM8 10H6.5V9H8.5H10.5V10H9V15H8V10ZM12.7361 9C11.7773 9 11 9.77726 11 10.7361V10.7892C11 11.4142 11.3531 11.9856 11.9121 12.2651C12.2211 12.4196 12.5618 12.5 12.9072 12.5H13.0928C13.2829 12.5 13.4705 12.5443 13.6406 12.6293C13.8609 12.7395 14 12.9646 14 13.2108V13.2639C14 13.6705 13.6705 14 13.2639 14H13C12.4477 14 12 13.5523 12 13H11C11 14.1046 11.8954 15 13 15H13.2639C14.2227 15 15 14.2227 15 13.2639V13.2108C15 12.5858 14.6469 12.0144 14.0879 11.7349C13.7789 11.5804 13.4382 11.5 13.0928 11.5H12.9072C12.7171 11.5 12.5295 11.4557 12.3594 11.3707C12.1391 11.2605 12 11.0354 12 10.7892V10.7361C12 10.3295 12.3295 10 12.7361 10H13C13.5523 10 14 10.4477 14 11H15C15 9.89543 14.1046 9 13 9H12.7361Z" fill="#7380F9"/>
<path opacity="0.6" fill-rule="evenodd" clip-rule="evenodd" d="M4.87519 0.468109C4.95561 0.503617 5.06072 0.604296 5.27094 0.805655C5.71997 1.23575 6.32912 1.5 7 1.5C7.67088 1.5 8.28003 1.23575 8.72906 0.805654L8.72906 0.805648C8.93928 0.604294 9.04439 0.503616 9.12481 0.468109C9.20565 0.432417 9.26265 0.421824 9.35092 0.426093C9.43873 0.43034 9.52607 0.4669 9.70077 0.540021C10.2549 0.77198 10.7729 1.07317 11.2439 1.43277C11.3946 1.54776 11.4699 1.60525 11.5173 1.67909C11.5651 1.75338 11.5843 1.80781 11.5938 1.8956C11.6032 1.98286 11.5687 2.12415 11.4996 2.40673C11.3521 3.01029 11.4279 3.66943 11.7631 4.25001C12.0984 4.83066 12.6314 5.22596 13.228 5.39994C13.5077 5.48151 13.6476 5.5223 13.7185 5.57426C13.7899 5.62651 13.8275 5.67057 13.8679 5.74924C13.9081 5.82747 13.92 5.92154 13.9439 6.10968C13.9628 6.25862 13.977 6.40902 13.9864 6.56073C13.912 6.55218 13.8379 6.54507 13.7641 6.53904C13.2856 6.49994 12.7081 6.49997 12.0556 6.5H12.0556L12 6.5H9L8.94445 6.5H8.94443C8.94195 6.5 8.93947 6.5 8.93699 6.5C8.71497 5.63739 7.93192 5.00001 7 5.00001C5.89543 5.00001 5 5.89544 5 7.00001C5 7.12042 5.01064 7.23835 5.03104 7.35291C4.57603 7.70988 4.20132 8.16327 3.93598 8.68404C3.67404 9.19813 3.58069 9.72621 3.53905 10.2359C3.49994 10.7144 3.49997 11.2919 3.5 11.9444L3.5 12L3.5 12.0556C3.49998 12.4172 3.49997 12.7558 3.50661 13.0673C3.24531 12.9166 2.99465 12.7494 2.75605 12.5672C2.60545 12.4523 2.53014 12.3948 2.48269 12.3209C2.43495 12.2466 2.41573 12.1922 2.40622 12.1044C2.39678 12.0171 2.43132 11.8759 2.50039 11.5933C2.64792 10.9897 2.57206 10.3306 2.23686 9.75C1.90162 9.16935 1.36861 8.77405 0.772044 8.60007C0.492307 8.5185 0.352438 8.47771 0.281477 8.42575C0.21012 8.3735 0.172498 8.32944 0.132091 8.25077C0.0919081 8.17254 0.0799672 8.07847 0.0560853 7.89033C0.0190753 7.59877 0 7.30161 0 7C0 6.69839 0.0190752 6.40124 0.0560849 6.10968C0.0799667 5.92154 0.0919076 5.82747 0.13209 5.74924C0.172497 5.67057 0.210119 5.62651 0.281476 5.57426C0.352438 5.5223 0.492307 5.48151 0.772044 5.39994C1.36861 5.22596 1.90162 4.83066 2.23686 4.25001C2.57206 3.66943 2.64792 3.01029 2.50039 2.40673L2.50039 2.40673C2.43132 2.12415 2.39678 1.98286 2.40622 1.8956C2.41573 1.8078 2.43495 1.75338 2.48269 1.67908C2.53014 1.60525 2.60545 1.54775 2.75605 1.43277C3.22707 1.07317 3.74506 0.771979 4.29923 0.540021C4.47393 0.4669 4.56127 0.43034 4.64908 0.426093C4.73735 0.421824 4.79435 0.432417 4.87519 0.468109Z" fill="#808090"/>
</g>
<defs>
<clipPath id="clip0_21_33">
<rect width="16" height="16" fill="white"/>
</clipPath>
</defs>
</svg>
