<svg width="16" height="16" viewBox="0 0 16 16" fill="none" xmlns="http://www.w3.org/2000/svg">
<g clip-path="url(#clip0_4_27)">
<path fill-rule="evenodd" clip-rule="evenodd" d="M3 7.2957L7.00379 6.22289C7.58019 6.06845 8.07163 5.69135 8.37 5.17456L9.43066 3.33744C9.49402 3.22771 9.54708 3.11485 9.59015 3H11C12.4001 3 13.1002 3 13.635 3.27248C14.1054 3.51217 14.4878 3.89462 14.7275 4.36502C15 4.8998 15 5.59987 15 7V11C15 12.4001 15 13.1002 14.7275 13.635C14.4878 14.1054 14.1054 14.4878 13.635 14.7275C13.1002 15 12.4001 15 11 15H7C5.59987 15 4.8998 15 4.36502 14.7275C3.89462 14.4878 3.51217 14.1054 3.27248 13.635C3 13.1002 3 12.4001 3 11V7.2957ZM5.5 9H7V14H8V9H9.5V8H7.5H5.5V9ZM10 9.73607C10 8.77726 10.7773 8 11.7361 8H12C13.1046 8 14 8.89543 14 10H13C13 9.44772 12.5523 9 12 9H11.7361C11.3295 9 11 9.32955 11 9.73607V9.78921C11 10.0354 11.1391 10.2605 11.3594 10.3707C11.5295 10.4557 11.7171 10.5 11.9072 10.5H12.0928C12.4382 10.5 12.7789 10.5804 13.0879 10.7349C13.6469 11.0144 14 11.5858 14 12.2108V12.2639C14 13.2227 13.2227 14 12.2639 14H12C10.8954 14 10 13.1046 10 12H11C11 12.5523 11.4477 13 12 13H12.2639C12.6705 13 13 12.6705 13 12.2639V12.2108C13 11.9646 12.8609 11.7395 12.6406 11.6293C12.4705 11.5443 12.2829 11.5 12.0928 11.5H11.9072C11.5618 11.5 11.2211 11.4196 10.9121 11.2651C10.3531 10.9856 10 10.4142 10 9.78921V9.73607Z" fill="#7380F9"/>
<path fill-rule="evenodd" clip-rule="evenodd" d="M0.24953 2.59749L1.02599 5.49527C1.16893 6.02873 1.71727 6.34532 2.25073 6.20237L6.68026 5.01548C6.93644 4.94684 7.15486 4.77924 7.28747 4.54956L8.34813 2.71244C8.62427 2.23415 8.4604 1.62256 7.9821 1.34642L6.14499 0.285755C5.9153 0.153147 5.64235 0.117212 5.38617 0.185855L0.956637 1.37274C0.423171 1.51569 0.106588 2.06402 0.24953 2.59749ZM6.20917 3.5888C6.74264 3.44586 7.05922 2.89752 6.91628 2.36405C6.77333 1.83059 6.225 1.51401 5.69153 1.65695C5.15807 1.79989 4.84148 2.34823 4.98442 2.88169C5.12737 3.41516 5.6757 3.73174 6.20917 3.5888Z" fill="#5BAFD4"/>
</g>
<defs>
<clipPath id="clip0_4_27">
<rect width="16" height="16" fill="white"/>
</clipPath>
</defs>
</svg>
