<svg width="16" height="16" viewBox="0 0 16 16" fill="none" xmlns="http://www.w3.org/2000/svg">
<path fill-rule="evenodd" clip-rule="evenodd" d="M9.16912 4.56928L8.67857 4.75H9.14652L9.16912 4.56928ZM7.32143 4.75L6.25 4.35527V4.75H7.32143ZM12.7943 3.23369C13.3604 3.77967 13.5422 4.69033 13.0562 5.44633L9.51177 10.9599C8.70222 12.2192 6.75 11.6459 6.75 10.1488V7.25H6C4.75736 7.25 3.75 6.24264 3.75 5V3.43421L2.76299 3.07058C1.40629 2.57074 0.197377 4.09073 0.989742 5.30013L6.74531 14.0849C7.33755 14.9889 8.66245 14.9889 9.25469 14.0849L15.0103 5.30013C15.8026 4.09073 14.5937 2.57074 13.237 3.07058L12.7943 3.23369ZM9.25 6V5.25H10.2104L9.25 6.74399V6Z" fill="#7380F9"/>
<path d="M9.67696 0.220507L5.8356 0.860733C5.35341 0.941098 5 1.35829 5 1.84713V5C5 5.55228 5.44772 6 6 6H8V10.1488C8 10.3983 8.32537 10.4939 8.46029 10.284L12.0048 4.77038C12.2187 4.43762 11.9798 4 11.5842 4H10.5L10.8336 1.33094C10.9166 0.667055 10.3369 0.110517 9.67696 0.220507Z" fill="#F5AA52"/>
</svg>
