<svg width="16" height="16" viewBox="0 0 16 16" fill="none" xmlns="http://www.w3.org/2000/svg">
<path fill-rule="evenodd" clip-rule="evenodd" d="M6.64286 4.5L6.5 4.44737V4.5H6.64286ZM13.0513 3.13899C13.6312 3.76954 13.7971 4.75617 13.2665 5.58152L9.72206 11.0951C8.77759 12.5643 6.5 11.8954 6.5 10.1488V7.5H6C4.61929 7.5 3.5 6.38071 3.5 5V3.34211L2.76299 3.07058C1.40628 2.57074 0.197373 4.09073 0.989738 5.30013L6.74531 14.0849C7.33755 14.9889 8.66245 14.9889 9.25469 14.0849L15.0103 5.30013C15.8026 4.09073 14.5937 2.57074 13.237 3.07058L13.0513 3.13899ZM9.5 5.89278V5.5H9.7525L9.5 5.89278Z" fill="#7380F9"/>
<path d="M9.67696 0.220507L5.8356 0.860733C5.35341 0.941098 5 1.35829 5 1.84713V5C5 5.55228 5.44772 6 6 6H8V10.1488C8 10.3983 8.32537 10.4939 8.46029 10.284L12.0048 4.77038C12.2187 4.43762 11.9798 4 11.5842 4H10.5L10.8336 1.33094C10.9166 0.667055 10.3369 0.110517 9.67696 0.220507Z" fill="#F5AA52"/>
</svg>
