<svg width="16" height="16" viewBox="0 0 16 16" fill="none" xmlns="http://www.w3.org/2000/svg">
<path d="M6.63735 12.7857C7.08829 13.5185 7.31377 13.8849 7.60354 14.01C7.85655 14.1193 8.14345 14.1193 8.39646 14.01C8.68623 13.8849 8.91171 13.5185 9.36265 12.7857L14.4994 4.43856C14.9897 3.64179 15.2348 3.24341 15.2068 2.91502C15.1824 2.62874 15.036 2.36679 14.805 2.19596C14.54 2 14.0722 2 13.1367 2H10.9285C10.5903 2 10.4213 2 10.27 2.04936C10.1362 2.09303 10.0132 2.16445 9.90888 2.25894C9.791 2.36575 9.70711 2.51256 9.53933 2.80618L8 5.5L6.46067 2.80618C6.29289 2.51256 6.209 2.36575 6.09112 2.25894C5.98683 2.16445 5.86376 2.09303 5.72996 2.04936C5.57875 2 5.40966 2 5.07148 2H2.8633C1.92776 2 1.45999 2 1.19499 2.19596C0.963973 2.36679 0.817598 2.62874 0.793182 2.91502C0.765175 3.24341 1.01033 3.64179 1.50065 4.43856L6.63735 12.7857Z" fill="#56B292"/>
<path d="M8 10L13 2H10.9285C10.5903 2 10.4213 2 10.27 2.04936C10.1362 2.09303 10.0132 2.16445 9.90888 2.25894C9.791 2.36575 9.70711 2.51256 9.53933 2.80618L8 5.5L6.46067 2.80618C6.29289 2.51256 6.209 2.36575 6.09112 2.25894C5.98683 2.16445 5.86376 2.09303 5.72996 2.04936C5.57875 2 5.40966 2 5.07148 2H3L8 10Z" fill="#35445A"/>
</svg>
