<svg width="16" height="16" viewBox="0 0 16 16" fill="none" xmlns="http://www.w3.org/2000/svg">
<path fill-rule="evenodd" clip-rule="evenodd" d="M8 4C9.10457 4 10 3.10457 10 2C11.4001 2 12.1002 2 12.635 2.27248C13.1054 2.51217 13.4878 2.89462 13.7275 3.36502C14 3.8998 14 4.59987 14 6V10C14 11.4001 14 12.1002 13.7275 12.635C13.4878 13.1054 13.1054 13.4878 12.635 13.7275C12.1002 14 11.4001 14 10 14H6C4.59987 14 3.8998 14 3.36502 13.7275C2.89462 13.4878 2.51217 13.1054 2.27248 12.635C2 12.1002 2 11.4001 2 10V6C2 4.59987 2 3.8998 2.27248 3.36502C2.51217 2.89462 2.89462 2.51217 3.36502 2.27248C3.8998 2 4.59987 2 6 2C6 3.10457 6.89543 4 8 4ZM10.9777 7.99997L11 8L11.0223 7.99997C11.1021 7.9998 11.2007 7.99958 11.2947 8.01727C11.6131 8.07723 11.8827 8.28775 12.0181 8.58212C12.0581 8.66896 12.0818 8.76472 12.1009 8.8421L12.101 8.84212L12.1063 8.8638L12.6101 10.8787L12.9851 12.3787C13.052 12.6466 12.8892 12.9181 12.6213 12.9851C12.3534 13.052 12.0819 12.8892 12.0149 12.6213L11.7346 11.5H10.2654L9.98507 12.6213C9.9181 12.8892 9.64663 13.052 9.37873 12.9851C9.11083 12.9181 8.94795 12.6466 9.01493 12.3787L9.38993 10.8787L9.89366 8.8638L9.89905 8.84212C9.91822 8.76473 9.94194 8.66897 9.98188 8.58212C10.1173 8.28775 10.3869 8.07723 10.7053 8.01727C10.7993 7.99958 10.8979 7.9998 10.9777 7.99997ZM11.4846 10.5L11.1362 9.10634C11.1228 9.05259 11.1156 9.02425 11.1097 9.00373L11.1089 9.0009L11.106 9.00079C11.0846 9.00007 11.0554 9 11 9C10.9446 9 10.9154 9.00007 10.894 9.00079L10.8911 9.0009L10.8903 9.00373C10.8844 9.02425 10.8772 9.05259 10.8638 9.10634L10.5154 10.5H11.4846ZM3.93798 8.00386C4.21199 7.96961 4.46189 8.16397 4.49614 8.43798L4.87475 11.4668L5.53576 9.8143C5.61169 9.62448 5.79555 9.5 6 9.5C6.20445 9.5 6.38831 9.62448 6.46424 9.8143L7.12525 11.4668L7.50386 8.43798C7.53811 8.16397 7.78801 7.96961 8.06202 8.00386C8.33603 8.03811 8.53039 8.28801 8.49614 8.56202L7.99614 12.562C7.96486 12.8122 7.75216 13 7.5 13H7C6.79555 13 6.61169 12.8755 6.53576 12.6857L6 11.3463L5.46424 12.6857C5.38831 12.8755 5.20445 13 5 13H4.5C4.24784 13 4.03514 12.8122 4.00386 12.562L3.50386 8.56202C3.46961 8.28801 3.66397 8.03811 3.93798 8.00386Z" fill="#A67CF8"/>
</svg>
