<svg width="16" height="16" viewBox="0 0 16 16" fill="none" xmlns="http://www.w3.org/2000/svg">
<path fill-rule="evenodd" clip-rule="evenodd" d="M8 4C9.10457 4 10 3.10457 10 2C11.4001 2 12.1002 2 12.635 2.27248C13.1054 2.51217 13.4878 2.89462 13.7275 3.36502C14 3.8998 14 4.59987 14 6V10C14 11.4001 14 12.1002 13.7275 12.635C13.4878 13.1054 13.1054 13.4878 12.635 13.7275C12.1002 14 11.4001 14 10 14H6C4.59987 14 3.8998 14 3.36502 13.7275C2.89462 13.4878 2.51217 13.1054 2.27248 12.635C2 12.1002 2 11.4001 2 10V6C2 4.59987 2 3.8998 2.27248 3.36502C2.51217 2.89462 2.89462 2.51217 3.36502 2.27248C3.8998 2 4.59987 2 6 2C6 3.10457 6.89543 4 8 4ZM3.93798 8.00386C4.21199 7.96961 4.46189 8.16397 4.49614 8.43798L4.87475 11.4668L5.53576 9.8143C5.61169 9.62448 5.79555 9.5 6 9.5C6.20445 9.5 6.38831 9.62448 6.46424 9.8143L7.12525 11.4668L7.50386 8.43798C7.53811 8.16397 7.78801 7.96961 8.06202 8.00386C8.33603 8.03811 8.53039 8.28801 8.49614 8.56202L7.99614 12.562C7.96486 12.8122 7.75216 13 7.5 13H7C6.79555 13 6.61169 12.8755 6.53576 12.6857L6 11.3463L5.46424 12.6857C5.38831 12.8755 5.20445 13 5 13H4.5C4.24784 13 4.03514 12.8122 4.00386 12.562L3.50386 8.56202C3.46961 8.28801 3.66397 8.03811 3.93798 8.00386ZM9.92025 8.75746C10.0315 8.3123 10.4315 8 10.8904 8H11.1096C11.5685 8 11.9685 8.3123 12.0798 8.75746L12.6101 10.8787L12.9851 12.3787C13.052 12.6466 12.8892 12.9181 12.6213 12.9851C12.3534 13.052 12.0819 12.8892 12.0149 12.6213L11.7346 11.5H10.2654L9.98507 12.6213C9.9181 12.8892 9.64663 13.052 9.37873 12.9851C9.11083 12.9181 8.94795 12.6466 9.01493 12.3787L9.38993 10.8787L9.92025 8.75746ZM10.5154 10.5H11.4846L11.1096 9H10.8904L10.5154 10.5Z" fill="#A67CF8"/>
</svg>
