<svg width="16" height="16" viewBox="0 0 16 16" fill="none" xmlns="http://www.w3.org/2000/svg">
<path fill-rule="evenodd" clip-rule="evenodd" d="M8 4C9.10457 4 10 3.10457 10 2C11.4001 2 12.1002 2 12.635 2.27248C13.1054 2.51217 13.4878 2.89462 13.7275 3.36502C14 3.8998 14 4.59987 14 6V10C14 11.4001 14 12.1002 13.7275 12.635C13.4878 13.1054 13.1054 13.4878 12.635 13.7275C12.1002 14 11.4001 14 10 14H6C4.59987 14 3.8998 14 3.36502 13.7275C2.89462 13.4878 2.51217 13.1054 2.27248 12.635C2 12.1002 2 11.4001 2 10V6C2 4.59987 2 3.8998 2.27248 3.36502C2.51217 2.89462 2.89462 2.51217 3.36502 2.27248C3.8998 2 4.59987 2 6 2C6 3.10457 6.89543 4 8 4ZM11.25 7.5C10.5694 7.5 9.99526 8.00682 9.91083 8.68219L9.69136 10.438L9.50386 11.938C9.50129 11.9586 9.5 11.9793 9.5 12V12.5H10.5V12.0311L10.6289 11H11.8711L12 12.0311V12.5H13V12C13 11.9793 12.9987 11.9586 12.9961 11.938L12.8086 10.438L12.5892 8.68219C12.5047 8.00682 11.9306 7.5 11.25 7.5ZM11.5969 8.80623L11.7461 10H10.7539L10.9031 8.80623C10.925 8.63128 11.0737 8.5 11.25 8.5C11.4263 8.5 11.575 8.63128 11.5969 8.80623ZM4 7.51099V7.5H5C5 8.01737 5.00007 8.26464 5.00848 8.51054C5.02981 9.13385 5.09133 9.75513 5.19265 10.3705C5.22771 10.5834 5.26926 10.7961 5.34737 11.1872L6.05279 9.77639C6.13748 9.607 6.31061 9.5 6.5 9.5C6.68939 9.5 6.86252 9.607 6.94721 9.77639L7.65263 11.1872C7.73074 10.7961 7.77229 10.5834 7.80735 10.3705C7.90867 9.75513 7.97019 9.13385 7.99152 8.51054C7.99993 8.26464 8 8.01737 8 7.5H9V7.51097V7.511V7.51104C9 8.01482 9 8.27979 8.99093 8.54474C8.96814 9.21103 8.90238 9.87516 8.79406 10.533C8.75099 10.7946 8.69902 11.0544 8.60022 11.5484L8.59806 11.5592L8.49029 12.0981C8.44355 12.3318 8.23834 12.5 8 12.5H7.5C7.31061 12.5 7.13748 12.393 7.05279 12.2236L6.5 11.118L5.94721 12.2236C5.86252 12.393 5.68939 12.5 5.5 12.5H5C4.76166 12.5 4.55645 12.3318 4.50971 12.0981L4.40194 11.5592L4.39979 11.5484L4.39978 11.5484L4.39977 11.5484C4.30098 11.0544 4.24901 10.7946 4.20594 10.533C4.09762 9.87516 4.03186 9.21103 4.00907 8.54474C4 8.27978 4 8.0148 4 7.51099Z" fill="#A67CF8"/>
</svg>
