<svg width="16" height="16" viewBox="0 0 16 16" fill="none" xmlns="http://www.w3.org/2000/svg">
<path fill-rule="evenodd" clip-rule="evenodd" d="M1.21799 4.09202C1 4.51984 1 5.0799 1 6.2V9.8C1 10.9201 1 11.4802 1.21799 11.908C1.40973 12.2843 1.71569 12.5903 2.09202 12.782C2.51984 13 3.0799 13 4.2 13H11.8C12.9201 13 13.4802 13 13.908 12.782C14.2843 12.5903 14.5903 12.2843 14.782 11.908C15 11.4802 15 10.9201 15 9.8V6.2C15 5.0799 15 4.51984 14.782 4.09202C14.5903 3.71569 14.2843 3.40973 13.908 3.21799C13.4802 3 12.9201 3 11.8 3H4.2C3.0799 3 2.51984 3 2.09202 3.21799C1.71569 3.40973 1.40973 3.71569 1.21799 4.09202ZM5.14648 5.64648C5.34175 5.45122 5.65825 5.45122 5.85352 5.64648C6.04878 5.84175 6.04878 6.15825 5.85352 6.35352L4.20703 8L5.85352 9.64648C6.04878 9.84175 6.04878 10.1583 5.85352 10.3535C5.65825 10.5488 5.34175 10.5488 5.14648 10.3535L3.14648 8.35352C2.95122 8.15825 2.95122 7.84175 3.14648 7.64648L5.14648 5.64648ZM8.53613 5.31445C8.63869 5.05806 8.92915 4.93358 9.18555 5.03613C9.44194 5.13869 9.56642 5.42916 9.46387 5.68555L7.46387 10.6855C7.36131 10.9419 7.07084 11.0664 6.81445 10.9639C6.55806 10.8613 6.43358 10.5708 6.53613 10.3145L8.53613 5.31445ZM10.8535 5.64648C10.6583 5.45122 10.3417 5.45122 10.1465 5.64648C9.95122 5.84175 9.95122 6.15825 10.1465 6.35352L11.793 8L10.1465 9.64648C9.95122 9.84175 9.95122 10.1583 10.1465 10.3535C10.3417 10.5488 10.6583 10.5488 10.8535 10.3535L12.8535 8.35352C13.0488 8.15825 13.0488 7.84175 12.8535 7.64648L10.8535 5.64648Z" fill="#F17F66"/>
</svg>
