<svg width="16" height="16" viewBox="0 0 16 16" fill="none" xmlns="http://www.w3.org/2000/svg">
<path fill-rule="evenodd" clip-rule="evenodd" d="M3.21799 4.09202C3 4.51984 3 5.0799 3 6.2V9.8C3 10.9201 3 11.4802 3.21799 11.908C3.40973 12.2843 3.71569 12.5903 4.09202 12.782C4.51984 13 5.0799 13 6.2 13H9.8C10.9201 13 11.4802 13 11.908 12.782C12.2843 12.5903 12.5903 12.2843 12.782 11.908C13 11.4802 13 10.9201 13 9.8V6.2C13 5.0799 13 4.51984 12.782 4.09202C12.5903 3.71569 12.2843 3.40973 11.908 3.21799C11.4802 3 10.9201 3 9.8 3H6.2C5.0799 3 4.51984 3 4.09202 3.21799C3.71569 3.40973 3.40973 3.71569 3.21799 4.09202ZM6 5C6 5.7573 6.24562 6.49416 6.7 7.1L7.5 8.16667V11H8.5V8.16667L9.3 7.1C9.75438 6.49416 10 5.7573 10 5H9C9 5.54093 8.82456 6.06726 8.5 6.5L8 7.16667L7.5 6.5C7.17544 6.06726 7 5.54093 7 5H6Z" fill="#F1667F"/>
</svg>
