<svg width="16" height="16" viewBox="0 0 16 16" fill="none" xmlns="http://www.w3.org/2000/svg">
<path d="M6 13L2 15L10 4L14 2L6 13Z" fill="#F5AA52"/>
<path fill-rule="evenodd" clip-rule="evenodd" d="M4.46154 4H3C1.89543 4 1 4.89543 1 6V11C1 11.786 1.45336 12.466 2.11284 12.793L3.42308 11H3L3 6L4.46154 4ZM4.5 6H11.0769L12.5385 4H5.96154L4.5 6ZM11.5 11L10.0385 13H3.46154L4.92308 11H11.5ZM13 13H11.5385L13 11V6H12.5769L13.8872 4.20704C14.5466 4.53397 15 5.21404 15 6V11C15 12.1046 14.1046 13 13 13Z" fill="#F5AA52"/>
</svg>
