<svg width="16" height="16" viewBox="0 0 16 16" fill="none" xmlns="http://www.w3.org/2000/svg">
<path opacity="0.9" d="M4.34277 1C4.95414 1 5.26018 1.0003 5.54785 1.06934C5.80285 1.13055 6.0469 1.23117 6.27051 1.36816C6.5228 1.52277 6.7395 1.7395 7.17188 2.17188L7.76563 2.76563L7.86914 2.86719C7.89702 2.89262 7.92109 2.91132 7.94629 2.92676C7.99089 2.95401 8.04 2.97413 8.09082 2.98633C8.14819 3.00002 8.20928 3 8.33105 3H10C11.4 3 12.1 3.00007 12.6348 3.27246C13.1052 3.51214 13.4879 3.89483 13.7275 4.36523C13.9999 4.89999 14 5.60002 14 7V9C14 10.2712 13.9969 10.9642 13.793 11.4814C13.7452 11.4083 13.6965 11.3356 13.6445 11.2656C13.1745 10.6321 12.9394 10.3152 12.8936 10.21C12.8032 10.002 12.8402 10.1419 12.8164 9.91699C12.8043 9.80294 12.8607 9.34533 12.9736 8.43164C12.9911 8.29022 13 8.14617 13 8C13 6.067 11.433 4.5 9.5 4.5C7.567 4.5 6 6.067 6 8C6 8.14636 6.0089 8.291 6.02637 8.43262C6.13891 9.34501 6.19555 9.80159 6.18359 9.91602C6.15971 10.1414 6.19657 10.0017 6.10645 10.209C6.06076 10.3141 5.82564 10.6317 5.35547 11.2656C4.98115 11.7703 4.71588 12.3592 4.58789 12.998C3.45713 12.9954 2.84474 12.9718 2.36523 12.7275C1.89483 12.4879 1.51214 12.1052 1.27246 11.6348C1.00007 11.1 1 10.4 1 9V4.2002C1 3.08009 0.999786 2.51962 1.21777 2.0918C1.40951 1.71554 1.71554 1.40951 2.0918 1.21777C2.51962 0.999786 3.08009 1 4.2002 1H4.34277Z" fill="#F15F79"/>
<path d="M10.1426 11C11.7205 11 13 12.2795 13 13.8574C12.9998 14.4884 12.4884 14.9998 11.8574 15H7.14258C6.51162 14.9998 6.00015 14.4884 6 13.8574C6 12.2795 7.27947 11 8.85742 11H10.1426ZM9.5 6C10.6046 6 11.5 6.89543 11.5 8C11.5 9.10457 10.6046 10 9.5 10C8.39543 10 7.5 9.10457 7.5 8C7.5 6.89543 8.39543 6 9.5 6Z" fill="#F15F79"/>
<path d="M10.1426 11C11.7205 11 13 12.2795 13 13.8574C12.9998 14.4884 12.4884 14.9998 11.8574 15H7.14258C6.51162 14.9998 6.00015 14.4884 6 13.8574C6 12.2795 7.27947 11 8.85742 11H10.1426ZM9.5 6C10.6046 6 11.5 6.89543 11.5 8C11.5 9.10457 10.6046 10 9.5 10C8.39543 10 7.5 9.10457 7.5 8C7.5 6.89543 8.39543 6 9.5 6Z" fill="black" fill-opacity="0.15" style="mix-blend-mode:plus-darker"/>
</svg>
