<svg width="16" height="16" viewBox="0 0 16 16" fill="none" xmlns="http://www.w3.org/2000/svg">
<path opacity="0.8" fill-rule="evenodd" clip-rule="evenodd" d="M1 4.2V9C1 10.4001 1 11.1002 1.27248 11.635C1.51217 12.1054 1.89462 12.4878 2.36502 12.7275C2.8998 13 3.59987 13 5 13H5.5V10.1C5.5 8.13982 5.5 7.15972 5.88148 6.41103C6.21703 5.75247 6.75247 5.21703 7.41103 4.88148C8.15972 4.5 9.13982 4.5 11.1 4.5H13.7891C13.7703 4.4537 13.7498 4.40881 13.7275 4.36502C13.4878 3.89462 13.1054 3.51217 12.635 3.27248C12.1002 3 11.4001 3 10 3H8.33137C8.20908 3 8.14793 3 8.09038 2.98618C8.03937 2.97394 7.99059 2.95373 7.94586 2.92632C7.8954 2.8954 7.85216 2.85216 7.76569 2.76569L7.76569 2.76569L7.76569 2.76569L7.17157 2.17157C6.73919 1.73919 6.523 1.523 6.27071 1.3684C6.04703 1.23133 5.80317 1.13032 5.54808 1.06908C5.26036 1 4.95462 1 4.34315 1H4.2C3.0799 1 2.51984 1 2.09202 1.21799C1.71569 1.40973 1.40973 1.71569 1.21799 2.09202C1 2.51984 1 3.0799 1 4.2Z" fill="#FF60A3"/>
<rect x="7.75" y="6.75" width="5.5" height="4.5" rx="1.25" stroke="#FF60A3" stroke-width="1.5"/>
<rect x="7.75" y="6.75" width="5.5" height="4.5" rx="1.25" stroke="black" stroke-opacity="0.1" stroke-width="1.5" style="mix-blend-mode:plus-darker"/>
<rect x="7" y="13" width="7" height="1.5" rx="0.75" fill="#FF60A3"/>
<rect x="7" y="13" width="7" height="1.5" rx="0.75" fill="black" fill-opacity="0.1" style="mix-blend-mode:plus-darker"/>
</svg>
