<svg width="16" height="16" viewBox="0 0 16 16" fill="none" xmlns="http://www.w3.org/2000/svg">
<path opacity="0.9" d="M4.34277 1C4.95414 1 5.26018 1.0003 5.54785 1.06934C5.80285 1.13055 6.0469 1.23117 6.27051 1.36816C6.5228 1.52277 6.7395 1.7395 7.17188 2.17188L7.76563 2.76563L7.86914 2.86719C7.89702 2.89262 7.92109 2.91132 7.94629 2.92676C7.99089 2.95401 8.04 2.97413 8.09082 2.98633C8.14819 3.00002 8.20928 3 8.33105 3H10C11.4 3 12.1 3.00007 12.6348 3.27246C13.1052 3.51214 13.4879 3.89483 13.7275 4.36523C13.7496 4.40853 13.7665 4.45426 13.7852 4.5H11.0996C9.13969 4.5 8.15977 4.50038 7.41113 4.88184C6.75262 5.21738 6.21738 5.75262 5.88184 6.41113C5.50038 7.15977 5.5 8.13969 5.5 10.0996V13H5C3.60002 13 2.89999 12.9999 2.36523 12.7275C1.89483 12.4879 1.51214 12.1052 1.27246 11.6348C1.00007 11.1 1 10.4 1 9V4.2002C1 3.08009 0.999786 2.51962 1.21777 2.0918C1.40951 1.71554 1.71554 1.40951 2.0918 1.21777C2.51962 0.999786 3.08009 1 4.2002 1H4.34277Z" fill="#FF60A3"/>
<rect x="7.75" y="6.75" width="5.5" height="4.5" rx="1.25" stroke="#FF60A3" stroke-width="1.5"/>
<rect x="7.75" y="6.75" width="5.5" height="4.5" rx="1.25" stroke="black" stroke-opacity="0.15" stroke-width="1.5" style="mix-blend-mode:plus-darker"/>
<rect x="7" y="13" width="7" height="1.5" rx="0.75" fill="#FF60A3"/>
<rect x="7" y="13" width="7" height="1.5" rx="0.75" fill="black" fill-opacity="0.15" style="mix-blend-mode:plus-darker"/>
</svg>
