<svg width="16" height="16" viewBox="0 0 16 16" fill="none" xmlns="http://www.w3.org/2000/svg">
<path opacity="0.9" d="M4.34277 1C4.95414 1 5.26018 1.0003 5.54785 1.06934C5.80285 1.13055 6.0469 1.23117 6.27051 1.36816C6.5228 1.52277 6.7395 1.7395 7.17188 2.17188L7.76563 2.76563L7.86914 2.86719C7.89702 2.89262 7.92109 2.91132 7.94629 2.92676C7.99089 2.95401 8.04 2.97413 8.09082 2.98633C8.14819 3.00002 8.20928 3 8.33105 3H10C11.4 3 12.1 3.00007 12.6348 3.27246C13.1052 3.51214 13.4879 3.89483 13.7275 4.36523C13.83 4.5664 13.8937 4.79097 13.9336 5.06738C13.4537 4.87275 12.9077 4.82421 12.3613 4.96973L12.209 5.01563L8.20898 6.34961C7.25308 6.66859 6.58733 7.52744 6.50781 8.52051L6.5 8.7207V10C6.49986 10.053 6.46191 10.2225 6.10742 10.7715C5.85546 11.1617 5.28945 11.944 5.08398 12.7949C5.06772 12.8623 5.05571 12.931 5.04395 13H5C3.60002 13 2.89999 12.9999 2.36523 12.7275C1.89483 12.4879 1.51214 12.1052 1.27246 11.6348C1.00007 11.1 1 10.4 1 9V4.2002C1 3.08009 0.999786 2.51962 1.21777 2.0918C1.40951 1.71554 1.71554 1.40951 2.0918 1.21777C2.51962 0.999786 3.08009 1 4.2002 1H4.34277Z" fill="#F15F79"/>
<path d="M12.6836 6.43847C13.3311 6.22263 14 6.70513 14 7.38769V12.5L13.9922 12.6533C13.9154 13.4097 13.2767 14 12.5 14C11.6716 14 11 13.3284 11 12.5C11 11.6716 11.6716 11 12.5 11V9L9.5 10V13.5L9.49219 13.6533C9.41539 14.4097 8.77666 15 8 15C7.17158 15 6.5 14.3284 6.5 13.5C6.5 12.6716 7.17157 12 8 12V8.7207C8.00002 8.29039 8.27542 7.90865 8.68359 7.77246L12.6836 6.43847Z" fill="#F15F79"/>
<path d="M12.6836 6.43847C13.3311 6.22263 14 6.70513 14 7.38769V12.5L13.9922 12.6533C13.9154 13.4097 13.2767 14 12.5 14C11.6716 14 11 13.3284 11 12.5C11 11.6716 11.6716 11 12.5 11V9L9.5 10V13.5L9.49219 13.6533C9.41539 14.4097 8.77666 15 8 15C7.17158 15 6.5 14.3284 6.5 13.5C6.5 12.6716 7.17157 12 8 12V8.7207C8.00002 8.29039 8.27542 7.90865 8.68359 7.77246L12.6836 6.43847Z" fill="black" fill-opacity="0.15" style="mix-blend-mode:plus-darker"/>
</svg>
