<svg width="16" height="16" viewBox="0 0 16 16" fill="none" xmlns="http://www.w3.org/2000/svg">
<path opacity="0.8" fill-rule="evenodd" clip-rule="evenodd" d="M1 4.2V9C1 10.4001 1 11.1002 1.27248 11.635C1.51217 12.1054 1.89462 12.4878 2.36502 12.7275C2.83198 12.9654 3.42496 12.9956 4.5 12.9994V9.3C4.5 7.61984 4.5 6.77976 4.82698 6.13803C5.1146 5.57354 5.57354 5.1146 6.13803 4.82698C6.77976 4.5 7.61984 4.5 9.3 4.5H10.2322C10.7486 4.5 11.0069 4.5 11.2529 4.54121C11.7021 4.61645 12.1283 4.79297 12.4991 5.0574C12.7023 5.20226 12.8848 5.38484 13.25 5.75C13.6152 6.11516 13.7977 6.29774 13.9426 6.50088C13.9621 6.52825 13.9811 6.55591 13.9997 6.58386C13.997 5.45553 13.9716 4.84399 13.7275 4.36502C13.4878 3.89462 13.1054 3.51217 12.635 3.27248C12.1002 3 11.4001 3 10 3H8.33137C8.20908 3 8.14793 3 8.09038 2.98618C8.03937 2.97394 7.99059 2.95373 7.94586 2.92632C7.8954 2.8954 7.85216 2.85216 7.76569 2.76569L7.76569 2.76569L7.76569 2.76569L7.17157 2.17157C6.73919 1.73919 6.523 1.523 6.27071 1.3684C6.04703 1.23133 5.80317 1.13032 5.54808 1.06908C5.26036 1 4.95462 1 4.34315 1H4.2C3.0799 1 2.51984 1 2.09202 1.21799C1.71569 1.40973 1.40973 1.71569 1.21799 2.09202C1 2.51984 1 3.0799 1 4.2Z" fill="#F15F79"/>
<path fill-rule="evenodd" clip-rule="evenodd" d="M6 8.4C6 7.55992 6 7.13988 6.16349 6.81901C6.3073 6.53677 6.53677 6.3073 6.81901 6.16349C7.13988 6 7.55992 6 8.4 6H10.1745C10.6637 6 10.9083 6 11.1385 6.05526C11.3425 6.10425 11.5376 6.18506 11.7166 6.29472C11.9184 6.4184 12.0914 6.59135 12.4373 6.93726L13.0627 7.56274L13.0627 7.56275C13.4086 7.90865 13.5816 8.0816 13.7053 8.28343C13.8149 8.46237 13.8957 8.65746 13.9447 8.86154C14 9.09171 14 9.3363 14 9.82548V12.6C14 13.4401 14 13.8601 13.8365 14.181C13.6927 14.4632 13.4632 14.6927 13.181 14.8365C12.8601 15 12.4401 15 11.6 15H8.4C7.55992 15 7.13988 15 6.81901 14.8365C6.53677 14.6927 6.3073 14.4632 6.16349 14.181C6 13.8601 6 13.4401 6 12.6V8.4ZM8.5 10L9.70024 9.0398L9.70025 9.0398L9.70025 9.0398C10.1163 8.70693 10.3244 8.5405 10.4995 8.54031C10.6517 8.54015 10.7958 8.60938 10.8908 8.72839C11 8.86522 11 9.13165 11 9.6645V12.3355C11 12.8684 11 13.1348 10.8908 13.2716C10.7958 13.3906 10.6517 13.4599 10.4995 13.4597C10.3244 13.4595 10.1163 13.2931 9.70024 12.9602L8.5 12H8.3C8.01997 12 7.87996 12 7.773 11.9455C7.67892 11.8976 7.60243 11.8211 7.5545 11.727C7.5 11.62 7.5 11.48 7.5 11.2V10.8C7.5 10.52 7.5 10.38 7.5545 10.273C7.60243 10.1789 7.67892 10.1024 7.773 10.0545C7.87996 10 8.01997 10 8.3 10H8.5ZM13 11C13 10.4477 12.5523 10 12 10V11V12C12.5523 12 13 11.5523 13 11Z" fill="#F15F79"/>
<path fill-rule="evenodd" clip-rule="evenodd" d="M6 8.4C6 7.55992 6 7.13988 6.16349 6.81901C6.3073 6.53677 6.53677 6.3073 6.81901 6.16349C7.13988 6 7.55992 6 8.4 6H10.1745C10.6637 6 10.9083 6 11.1385 6.05526C11.3425 6.10425 11.5376 6.18506 11.7166 6.29472C11.9184 6.4184 12.0914 6.59135 12.4373 6.93726L13.0627 7.56274L13.0627 7.56275C13.4086 7.90865 13.5816 8.0816 13.7053 8.28343C13.8149 8.46237 13.8957 8.65746 13.9447 8.86154C14 9.09171 14 9.3363 14 9.82548V12.6C14 13.4401 14 13.8601 13.8365 14.181C13.6927 14.4632 13.4632 14.6927 13.181 14.8365C12.8601 15 12.4401 15 11.6 15H8.4C7.55992 15 7.13988 15 6.81901 14.8365C6.53677 14.6927 6.3073 14.4632 6.16349 14.181C6 13.8601 6 13.4401 6 12.6V8.4ZM8.5 10L9.70024 9.0398L9.70025 9.0398L9.70025 9.0398C10.1163 8.70693 10.3244 8.5405 10.4995 8.54031C10.6517 8.54015 10.7958 8.60938 10.8908 8.72839C11 8.86522 11 9.13165 11 9.6645V12.3355C11 12.8684 11 13.1348 10.8908 13.2716C10.7958 13.3906 10.6517 13.4599 10.4995 13.4597C10.3244 13.4595 10.1163 13.2931 9.70024 12.9602L8.5 12H8.3C8.01997 12 7.87996 12 7.773 11.9455C7.67892 11.8976 7.60243 11.8211 7.5545 11.727C7.5 11.62 7.5 11.48 7.5 11.2V10.8C7.5 10.52 7.5 10.38 7.5545 10.273C7.60243 10.1789 7.67892 10.1024 7.773 10.0545C7.87996 10 8.01997 10 8.3 10H8.5ZM13 11C13 10.4477 12.5523 10 12 10V11V12C12.5523 12 13 11.5523 13 11Z" fill="black" fill-opacity="0.1" style="mix-blend-mode:plus-darker"/>
</svg>
