<svg width="16" height="16" viewBox="0 0 16 16" fill="none" xmlns="http://www.w3.org/2000/svg">
<path opacity="0.9" d="M4.34277 1C4.95414 1 5.26018 1.0003 5.54785 1.06934C5.80285 1.13055 6.0469 1.23117 6.27051 1.36816C6.5228 1.52277 6.7395 1.7395 7.17188 2.17188L7.76563 2.76563L7.86914 2.86719C7.89702 2.89262 7.92109 2.91132 7.94629 2.92676C7.99089 2.95401 8.04 2.97413 8.09082 2.98633C8.14819 3.00002 8.20928 3 8.33105 3H10C11.4 3 12.1 3.00007 12.6348 3.27246C13.1052 3.51214 13.4879 3.89483 13.7275 4.36523C13.7652 4.43923 13.7962 4.51689 13.8242 4.59863C13.5598 4.5348 13.284 4.5 13 4.5C12.1123 4.5 11.3024 4.83124 10.6855 5.37598C10.4431 5.58993 10.0569 5.58993 9.81445 5.37598C9.19761 4.83124 8.38768 4.5 7.5 4.5C5.567 4.5 4 6.067 4 8C4 8.88768 4.33124 9.69761 4.87598 10.3145C5.08993 10.5569 5.08993 10.9431 4.87598 11.1855C4.43658 11.6831 4.1397 12.3068 4.04004 12.9951C3.24695 12.9815 2.76087 12.9291 2.36523 12.7275C1.89483 12.4879 1.51214 12.1052 1.27246 11.6348C1.00007 11.1 1 10.4 1 9V4.2002C1 3.08009 0.999786 2.51962 1.21777 2.0918C1.40951 1.71554 1.71554 1.40951 2.0918 1.21777C2.51962 0.999786 3.08009 1 4.2002 1H4.34277Z" fill="#7380F9"/>
<path d="M13 6C14.1046 6 15 6.89543 15 8C15 9.10457 14.1046 10 13 10H12.5V11.5H13C14.1046 11.5 15 12.3954 15 13.5C15 14.6046 14.1046 15.5 13 15.5C11.8954 15.5 11 14.6046 11 13.5V13H9.5V13.5C9.5 14.6046 8.60457 15.5 7.5 15.5C6.39543 15.5 5.5 14.6046 5.5 13.5C5.5 12.3954 6.39543 11.5 7.5 11.5H8V10H7.5C6.39543 10 5.5 9.10457 5.5 8C5.5 6.89543 6.39543 6 7.5 6C8.60457 6 9.5 6.89543 9.5 8V8.5H11V8C11 6.89543 11.8954 6 13 6ZM7.5 13C7.22386 13 7 13.2239 7 13.5C7 13.7761 7.22386 14 7.5 14C7.77614 14 8 13.7761 8 13.5V13H7.5ZM12.5 13.5C12.5 13.7761 12.7239 14 13 14C13.2761 14 13.5 13.7761 13.5 13.5C13.5 13.2239 13.2761 13 13 13H12.5V13.5ZM9.5 10V11.5H11V10H9.5ZM7.5 7.5C7.22386 7.5 7 7.72386 7 8C7 8.27614 7.22386 8.5 7.5 8.5H8V8C8 7.72386 7.77614 7.5 7.5 7.5ZM13 7.5C12.7239 7.5 12.5 7.72386 12.5 8V8.5H13C13.2761 8.5 13.5 8.27614 13.5 8C13.5 7.72386 13.2761 7.5 13 7.5Z" fill="#7380F9"/>
<path d="M13 6C14.1046 6 15 6.89543 15 8C15 9.10457 14.1046 10 13 10H12.5V11.5H13C14.1046 11.5 15 12.3954 15 13.5C15 14.6046 14.1046 15.5 13 15.5C11.8954 15.5 11 14.6046 11 13.5V13H9.5V13.5C9.5 14.6046 8.60457 15.5 7.5 15.5C6.39543 15.5 5.5 14.6046 5.5 13.5C5.5 12.3954 6.39543 11.5 7.5 11.5H8V10H7.5C6.39543 10 5.5 9.10457 5.5 8C5.5 6.89543 6.39543 6 7.5 6C8.60457 6 9.5 6.89543 9.5 8V8.5H11V8C11 6.89543 11.8954 6 13 6ZM7.5 13C7.22386 13 7 13.2239 7 13.5C7 13.7761 7.22386 14 7.5 14C7.77614 14 8 13.7761 8 13.5V13H7.5ZM12.5 13.5C12.5 13.7761 12.7239 14 13 14C13.2761 14 13.5 13.7761 13.5 13.5C13.5 13.2239 13.2761 13 13 13H12.5V13.5ZM9.5 10V11.5H11V10H9.5ZM7.5 7.5C7.22386 7.5 7 7.72386 7 8C7 8.27614 7.22386 8.5 7.5 8.5H8V8C8 7.72386 7.77614 7.5 7.5 7.5ZM13 7.5C12.7239 7.5 12.5 7.72386 12.5 8V8.5H13C13.2761 8.5 13.5 8.27614 13.5 8C13.5 7.72386 13.2761 7.5 13 7.5Z" fill="black" fill-opacity="0.15" style="mix-blend-mode:plus-darker"/>
</svg>
