<svg width="16" height="16" viewBox="0 0 16 16" fill="none" xmlns="http://www.w3.org/2000/svg">
<path opacity="0.8" fill-rule="evenodd" clip-rule="evenodd" d="M1 4.2V9C1 10.4001 1 11.1002 1.27248 11.635C1.51217 12.1054 1.89462 12.4878 2.36502 12.7275C2.76004 12.9288 3.24524 12.9814 4.03615 12.9951C4.13561 12.3067 4.43547 11.683 4.87468 11.1853C5.0886 10.9428 5.0886 10.5572 4.87468 10.3147C4.3303 9.69779 4 8.88747 4 8C4 6.067 5.567 4.5 7.5 4.5C8.38747 4.5 9.19779 4.8303 9.81474 5.37468C10.0572 5.5886 10.4428 5.5886 10.6853 5.37468C11.3022 4.8303 12.1125 4.5 13 4.5C13.2844 4.5 13.5609 4.53393 13.8257 4.59796C13.7977 4.51621 13.7652 4.43903 13.7275 4.36502C13.4878 3.89462 13.1054 3.51217 12.635 3.27248C12.1002 3 11.4001 3 10 3H8.33137C8.20908 3 8.14793 3 8.09038 2.98618C8.03937 2.97394 7.99059 2.95373 7.94586 2.92632C7.8954 2.8954 7.85216 2.85216 7.76569 2.76569L7.76569 2.76569L7.76569 2.76569L7.17157 2.17157C6.73919 1.73919 6.523 1.523 6.27071 1.3684C6.04703 1.23133 5.80317 1.13032 5.54808 1.06908C5.26036 1 4.95462 1 4.34315 1H4.2C3.0799 1 2.51984 1 2.09202 1.21799C1.71569 1.40973 1.40973 1.71569 1.21799 2.09202C1 2.51984 1 3.0799 1 4.2Z" fill="#7380F9"/>
<path fill-rule="evenodd" clip-rule="evenodd" d="M9.5 8C9.5 6.89543 8.60457 6 7.5 6C6.39543 6 5.5 6.89543 5.5 8C5.5 9.10457 6.39543 10 7.5 10H8V11.5H7.5C6.39543 11.5 5.5 12.3954 5.5 13.5C5.5 14.6046 6.39543 15.5 7.5 15.5C8.60457 15.5 9.5 14.6046 9.5 13.5V13H11V13.5C11 14.6046 11.8954 15.5 13 15.5C14.1046 15.5 15 14.6046 15 13.5C15 12.3954 14.1046 11.5 13 11.5H12.5V10H13C14.1046 10 15 9.10457 15 8C15 6.89543 14.1046 6 13 6C11.8954 6 11 6.89543 11 8V8.5H9.5V8ZM11 10H9.5V11.5H11V10ZM8 8C8 7.72386 7.77614 7.5 7.5 7.5C7.22386 7.5 7 7.72386 7 8C7 8.27614 7.22386 8.5 7.5 8.5H8V8ZM8 13.5C8 13.7761 7.77614 14 7.5 14C7.22386 14 7 13.7761 7 13.5C7 13.2239 7.22386 13 7.5 13H8V13.5ZM13 7.5C12.7239 7.5 12.5 7.72386 12.5 8V8.5H13C13.2761 8.5 13.5 8.27614 13.5 8C13.5 7.72386 13.2761 7.5 13 7.5ZM12.5 13.5C12.5 13.7761 12.7239 14 13 14C13.2761 14 13.5 13.7761 13.5 13.5C13.5 13.2239 13.2761 13 13 13H12.5V13.5Z" fill="#7380F9"/>
<path fill-rule="evenodd" clip-rule="evenodd" d="M9.5 8C9.5 6.89543 8.60457 6 7.5 6C6.39543 6 5.5 6.89543 5.5 8C5.5 9.10457 6.39543 10 7.5 10H8V11.5H7.5C6.39543 11.5 5.5 12.3954 5.5 13.5C5.5 14.6046 6.39543 15.5 7.5 15.5C8.60457 15.5 9.5 14.6046 9.5 13.5V13H11V13.5C11 14.6046 11.8954 15.5 13 15.5C14.1046 15.5 15 14.6046 15 13.5C15 12.3954 14.1046 11.5 13 11.5H12.5V10H13C14.1046 10 15 9.10457 15 8C15 6.89543 14.1046 6 13 6C11.8954 6 11 6.89543 11 8V8.5H9.5V8ZM11 10H9.5V11.5H11V10ZM8 8C8 7.72386 7.77614 7.5 7.5 7.5C7.22386 7.5 7 7.72386 7 8C7 8.27614 7.22386 8.5 7.5 8.5H8V8ZM8 13.5C8 13.7761 7.77614 14 7.5 14C7.22386 14 7 13.7761 7 13.5C7 13.2239 7.22386 13 7.5 13H8V13.5ZM13 7.5C12.7239 7.5 12.5 7.72386 12.5 8V8.5H13C13.2761 8.5 13.5 8.27614 13.5 8C13.5 7.72386 13.2761 7.5 13 7.5ZM12.5 13.5C12.5 13.7761 12.7239 14 13 14C13.2761 14 13.5 13.7761 13.5 13.5C13.5 13.2239 13.2761 13 13 13H12.5V13.5Z" fill="black" fill-opacity="0.1" style="mix-blend-mode:plus-darker"/>
</svg>
