<svg width="16" height="16" viewBox="0 0 16 16" fill="none" xmlns="http://www.w3.org/2000/svg">
<path opacity="0.9" d="M4.34277 1C4.95414 1 5.26018 1.0003 5.54785 1.06934C5.80285 1.13055 6.0469 1.23117 6.27051 1.36816C6.5228 1.52277 6.7395 1.7395 7.17188 2.17188L7.76563 2.76563L7.86914 2.86719C7.89702 2.89262 7.92109 2.91132 7.94629 2.92676C7.99089 2.95401 8.04 2.97413 8.09082 2.98633C8.14819 3.00002 8.20928 3 8.33105 3H10C11.4 3 12.1 3.00007 12.6348 3.27246C13.1052 3.51214 13.4879 3.89483 13.7275 4.36523C13.9999 4.89999 14 5.60002 14 7V7.5C13.4338 7.18182 12.7807 7 12.085 7C11.41 7 10.7825 6.65242 10.4248 6.08008L10.3623 5.97949C10.2335 5.77335 10.1687 5.67027 10.1162 5.60059C9.31112 4.53228 7.70466 4.54012 6.91016 5.61621C6.85835 5.68642 6.79474 5.79061 6.66797 5.99805L4.52832 9.5C4.46715 9.6001 4.43658 9.65039 4.41504 9.68945C3.78861 10.8257 4.39269 12.2483 5.64551 12.5859C5.68858 12.5975 5.74586 12.6103 5.86035 12.6357L6.84863 12.8555C6.96448 12.8813 7.06823 12.933 7.15918 13H5C3.60002 13 2.89999 12.9999 2.36523 12.7275C1.89483 12.4879 1.51214 12.1052 1.27246 11.6348C1.00007 11.1 1 10.4 1 9V4.2002C1 3.08009 0.999786 2.51962 1.21777 2.0918C1.40951 1.71554 1.71554 1.40951 2.0918 1.21777C2.51962 0.999786 3.08009 1 4.2002 1H4.34277Z" fill="#5BAFD4"/>
<path d="M7.11795 7.86922L6.40361 9.09381C5.94332 9.88289 5.71317 10.2774 5.74619 10.6014C5.775 10.884 5.9226 11.141 6.15217 11.3082C6.41537 11.5 6.87214 11.5 7.78566 11.5H9.21434C10.1279 11.5 10.5846 11.5 10.8478 11.3082C11.0774 11.141 11.225 10.884 11.2538 10.6014C11.2868 10.2774 11.0567 9.88289 10.5964 9.09381L9.88205 7.86922C9.42789 7.09067 9.20081 6.70139 8.9051 6.57036C8.64713 6.45606 8.35287 6.45606 8.0949 6.57036C7.79919 6.70139 7.57211 7.09066 7.11795 7.86922Z" fill="#5BAFD4"/>
<path d="M7.11795 7.86922L6.40361 9.09381C5.94332 9.88289 5.71317 10.2774 5.74619 10.6014C5.775 10.884 5.9226 11.141 6.15217 11.3082C6.41537 11.5 6.87214 11.5 7.78566 11.5H9.21434C10.1279 11.5 10.5846 11.5 10.8478 11.3082C11.0774 11.141 11.225 10.884 11.2538 10.6014C11.2868 10.2774 11.0567 9.88289 10.5964 9.09381L9.88205 7.86922C9.42789 7.09067 9.20081 6.70139 8.9051 6.57036C8.64713 6.45606 8.35287 6.45606 8.0949 6.57036C7.79919 6.70139 7.57211 7.09066 7.11795 7.86922Z" fill="black" fill-opacity="0.15" style="mix-blend-mode:plus-darker"/>
<path d="M12 8.50001C13.6569 8.50001 15 9.84316 15 11.5C15 13.1569 13.6569 14.5 12 14.5C10.8898 14.5 9.92309 13.8954 9.4043 12.999C9.76585 12.9988 10.1176 12.9968 10.4121 12.9697C10.7499 12.9387 11.2648 12.8605 11.7314 12.5205L11.9365 12.3535C12.3925 11.9409 12.683 11.3719 12.7461 10.7539L12.7568 10.543C12.7575 10.0611 12.5953 9.65679 12.4697 9.38771C12.3962 9.23013 12.3052 9.0599 12.2061 8.88282L11.9854 8.50001C11.9902 8.49999 11.9951 8.50001 12 8.50001ZM10.5967 9.09376L10.8975 9.6172C11.1548 10.0761 11.2787 10.3586 11.2539 10.6016L11.2373 10.7061C11.1866 10.9468 11.0485 11.1623 10.8477 11.3086L10.7393 11.3711C10.463 11.4995 10.0131 11.5 9.21387 11.5H9C9 10.3945 9.5991 9.43055 10.4893 8.91017L10.5967 9.09376Z" fill="#5BAFD4"/>
<path d="M12 8.50001C13.6569 8.50001 15 9.84316 15 11.5C15 13.1569 13.6569 14.5 12 14.5C10.8898 14.5 9.92309 13.8954 9.4043 12.999C9.76585 12.9988 10.1176 12.9968 10.4121 12.9697C10.7499 12.9387 11.2648 12.8605 11.7314 12.5205L11.9365 12.3535C12.3925 11.9409 12.683 11.3719 12.7461 10.7539L12.7568 10.543C12.7575 10.0611 12.5953 9.65679 12.4697 9.38771C12.3962 9.23013 12.3052 9.0599 12.2061 8.88282L11.9854 8.50001C11.9902 8.49999 11.9951 8.50001 12 8.50001ZM10.5967 9.09376L10.8975 9.6172C11.1548 10.0761 11.2787 10.3586 11.2539 10.6016L11.2373 10.7061C11.1866 10.9468 11.0485 11.1623 10.8477 11.3086L10.7393 11.3711C10.463 11.4995 10.0131 11.5 9.21387 11.5H9C9 10.3945 9.5991 9.43055 10.4893 8.91017L10.5967 9.09376Z" fill="black" fill-opacity="0.15" style="mix-blend-mode:plus-darker"/>
</svg>
