<svg width="16" height="16" viewBox="0 0 16 16" fill="none" xmlns="http://www.w3.org/2000/svg">
<path opacity="0.8" fill-rule="evenodd" clip-rule="evenodd" d="M1 9V4.2C1 3.0799 1 2.51984 1.21799 2.09202C1.40973 1.71569 1.71569 1.40973 2.09202 1.21799C2.51984 1 3.0799 1 4.2 1H4.34315C4.95462 1 5.26036 1 5.54808 1.06908C5.80317 1.13032 6.04703 1.23133 6.27071 1.3684C6.523 1.523 6.73919 1.73919 7.17157 2.17157L7.76569 2.76569L7.76569 2.76569L7.76569 2.76569C7.85216 2.85216 7.8954 2.8954 7.94586 2.92632C7.99059 2.95373 8.03937 2.97394 8.09038 2.98618C8.14793 3 8.20908 3 8.33137 3H10C11.4001 3 12.1002 3 12.635 3.27248C13.1054 3.51217 13.4878 3.89462 13.7275 4.36502C13.9675 4.83605 13.9961 5.43531 13.9995 6.52822L13.9825 6.51878L13.9198 6.48387L11.5198 5.13387L11.4597 5.09972C11.2491 4.97953 10.9019 4.78138 10.5088 4.69967C10.1732 4.62991 9.82681 4.62991 9.49119 4.69967C9.09814 4.78138 8.75091 4.97953 8.5403 5.09972L8.48019 5.13387L6.08019 6.48387L6.01748 6.51878C5.7977 6.64057 5.43536 6.84134 5.15532 7.14749C4.91631 7.40879 4.73553 7.71789 4.62497 8.05431C4.49543 8.44849 4.49808 8.86272 4.49968 9.11398L4.5 9.18576V11.8142L4.49968 11.886C4.49808 12.1373 4.49543 12.5515 4.62497 12.9457C4.63093 12.9638 4.63709 12.9818 4.64345 12.9998C3.47693 12.9979 2.85235 12.9758 2.36502 12.7275C1.89462 12.4878 1.51217 12.1054 1.27248 11.635C1 11.1002 1 10.4001 1 9Z" fill="#8080A0"/>
<path fill-rule="evenodd" clip-rule="evenodd" d="M9.79648 6.16828C9.64478 6.19981 9.50171 6.28029 9.21558 6.44123L6.81558 7.79123L6.81558 7.79124C6.51865 7.95826 6.37019 8.04177 6.26213 8.15991C6.16652 8.26443 6.09421 8.38806 6.04999 8.52263C6 8.67474 6 8.84508 6 9.18576V11.8142C6 12.1549 6 12.3253 6.04999 12.4774C6.09421 12.6119 6.16652 12.7356 6.26213 12.8401C6.37019 12.9582 6.51866 13.0417 6.81558 13.2088L9.21558 14.5588C9.50171 14.7197 9.64478 14.8002 9.79648 14.8317C9.93072 14.8596 10.0693 14.8596 10.2035 14.8317C10.3552 14.8002 10.4983 14.7197 10.7844 14.5588L13.1844 13.2088C13.4813 13.0417 13.6298 12.9582 13.7379 12.8401C13.8335 12.7356 13.9058 12.6119 13.95 12.4774C14 12.3253 14 12.1549 14 11.8142V9.18576C14 8.84508 14 8.67474 13.95 8.52263C13.9058 8.38806 13.8335 8.26443 13.7379 8.15991C13.6298 8.04177 13.4813 7.95826 13.1844 7.79123L10.7844 6.44123C10.4983 6.28028 10.3552 6.19981 10.2035 6.16828C10.0693 6.14037 9.93072 6.14037 9.79648 6.16828ZM10 12C10.8284 12 11.5 11.3284 11.5 10.5C11.5 9.67157 10.8284 9 10 9C9.17157 9 8.5 9.67157 8.5 10.5C8.5 11.3284 9.17157 12 10 12Z" fill="#8080A0"/>
<path fill-rule="evenodd" clip-rule="evenodd" d="M9.79648 6.16828C9.64478 6.19981 9.50171 6.28029 9.21558 6.44123L6.81558 7.79123L6.81558 7.79124C6.51865 7.95826 6.37019 8.04177 6.26213 8.15991C6.16652 8.26443 6.09421 8.38806 6.04999 8.52263C6 8.67474 6 8.84508 6 9.18576V11.8142C6 12.1549 6 12.3253 6.04999 12.4774C6.09421 12.6119 6.16652 12.7356 6.26213 12.8401C6.37019 12.9582 6.51866 13.0417 6.81558 13.2088L9.21558 14.5588C9.50171 14.7197 9.64478 14.8002 9.79648 14.8317C9.93072 14.8596 10.0693 14.8596 10.2035 14.8317C10.3552 14.8002 10.4983 14.7197 10.7844 14.5588L13.1844 13.2088C13.4813 13.0417 13.6298 12.9582 13.7379 12.8401C13.8335 12.7356 13.9058 12.6119 13.95 12.4774C14 12.3253 14 12.1549 14 11.8142V9.18576C14 8.84508 14 8.67474 13.95 8.52263C13.9058 8.38806 13.8335 8.26443 13.7379 8.15991C13.6298 8.04177 13.4813 7.95826 13.1844 7.79123L10.7844 6.44123C10.4983 6.28028 10.3552 6.19981 10.2035 6.16828C10.0693 6.14037 9.93072 6.14037 9.79648 6.16828ZM10 12C10.8284 12 11.5 11.3284 11.5 10.5C11.5 9.67157 10.8284 9 10 9C9.17157 9 8.5 9.67157 8.5 10.5C8.5 11.3284 9.17157 12 10 12Z" fill="black" fill-opacity="0.1" style="mix-blend-mode:plus-darker"/>
</svg>
