<svg width="16" height="16" viewBox="0 0 16 16" fill="none" xmlns="http://www.w3.org/2000/svg">
<path opacity="0.9" d="M4.34277 1C4.95414 1 5.26018 1.0003 5.54785 1.06934C5.80285 1.13055 6.0469 1.23117 6.27051 1.36816C6.5228 1.52277 6.7395 1.7395 7.17188 2.17188L7.76563 2.76563L7.86914 2.86719C7.89702 2.89262 7.92109 2.91132 7.94629 2.92676C7.99089 2.95401 8.04 2.97413 8.09082 2.98633C8.14819 3.00002 8.20928 3 8.33105 3H10C11.4 3 12.1 3.00007 12.6348 3.27246C13.1052 3.51214 13.4879 3.89483 13.7275 4.36523C13.9999 4.89999 14 5.60002 14 7V9C14 9.13027 13.9983 9.25447 13.998 9.37305C13.9233 9.31695 13.8833 9.28728 13.8457 9.25586C13.6312 9.07669 13.4564 8.8543 13.333 8.60352C13.3099 8.5566 13.2889 8.50774 13.2471 8.41016L12.7881 7.33789C12.3101 6.22282 11.2132 5.5 10 5.5C8.78677 5.5 7.68992 6.22282 7.21191 7.33789L6.70801 8.51563C6.57191 8.83311 6.35446 9.10915 6.07813 9.31641C5.08468 10.0615 4.50001 11.2308 4.5 12.4727V12.9971C3.42511 12.9932 2.83217 12.9654 2.36523 12.7275C1.89483 12.4879 1.51214 12.1052 1.27246 11.6348C1.00007 11.1 1 10.4 1 9V4.2002C1 3.08009 0.999786 2.51962 1.21777 2.0918C1.40951 1.71554 1.71554 1.40951 2.0918 1.21777C2.51962 0.999786 3.08009 1 4.2002 1H4.34277Z" fill="#5BAFD4"/>
<circle cx="7.5" cy="12.5" r="1.5" fill="#5BAFD4"/>
<circle cx="7.5" cy="12.5" r="1.5" fill="black" fill-opacity="0.15" style="mix-blend-mode:plus-darker"/>
<circle cx="12.5" cy="12.5" r="1.5" fill="#5BAFD4"/>
<circle cx="12.5" cy="12.5" r="1.5" fill="black" fill-opacity="0.15" style="mix-blend-mode:plus-darker"/>
<circle cx="10" cy="8.5" r="1.5" fill="#5BAFD4"/>
<circle cx="10" cy="8.5" r="1.5" fill="black" fill-opacity="0.15" style="mix-blend-mode:plus-darker"/>
</svg>
