<svg width="16" height="16" viewBox="0 0 16 16" fill="none" xmlns="http://www.w3.org/2000/svg">
<path opacity="0.9" d="M4.34277 1C4.95414 1 5.26018 1.0003 5.54785 1.06934C5.80285 1.13055 6.0469 1.23117 6.27051 1.36816C6.5228 1.52277 6.7395 1.7395 7.17188 2.17188L7.76563 2.76563L7.86914 2.86719C7.89702 2.89262 7.92109 2.91132 7.94629 2.92676C7.99089 2.95401 8.04 2.97413 8.09082 2.98633C8.14819 3.00002 8.20928 3 8.33105 3H10C11.4 3 12.1 3.00007 12.6348 3.27246C13.1052 3.51214 13.4879 3.89483 13.7275 4.36523C13.9897 4.87997 13.9987 5.54785 13.999 6.8457C13.7144 6.41575 13.3251 6.06303 12.8623 5.82715C12.824 5.80765 12.7849 5.78963 12.7451 5.77246C12.293 5.57752 12.0668 5.47982 12.0156 5.4502C11.8909 5.37794 11.9982 5.45194 11.8867 5.36133C11.8409 5.32406 11.6581 5.1352 11.293 4.75879C10.839 4.29086 10.2036 4 9.5 4C8.79625 4 8.16026 4.29077 7.70605 4.75879C7.34066 5.1353 7.15807 5.32412 7.1123 5.36133C7.00054 5.45219 7.10821 5.37784 6.9834 5.4502C6.93237 5.47978 6.70607 5.57724 6.25391 5.77246C6.21437 5.78953 6.17569 5.80779 6.1377 5.82715C5.57347 6.11472 5.11472 6.57347 4.82715 7.1377C4.50018 7.77941 4.5 8.61978 4.5 10.2998V12.4004C4.5 12.6478 4.50133 12.8405 4.51074 12.9971C3.42905 12.9934 2.83372 12.9662 2.36523 12.7275C1.89483 12.4879 1.51214 12.1052 1.27246 11.6348C1.00007 11.1 1 10.4 1 9V4.2002C1 3.08009 0.999786 2.51962 1.21777 2.0918C1.40951 1.71554 1.71554 1.40951 2.0918 1.21777C2.51962 0.999786 3.08009 1 4.2002 1H4.34277Z" fill="#A67CF8"/>
<path d="M9.5 5.5C10.0523 5.5 10.5 5.94772 10.5 6.5V7H10.5996C11.4393 7 11.8598 6.99981 12.1807 7.16309C12.4629 7.3069 12.6931 7.53709 12.8369 7.81934C13.0002 8.14015 13 8.56068 13 9.40039V9.5H13.5C14.0523 9.5 14.5 9.94772 14.5 10.5C14.5 11.0523 14.0523 11.5 13.5 11.5H13V11.5996C13 12.4393 13.0002 12.8598 12.8369 13.1807C12.6931 13.4629 12.4629 13.6931 12.1807 13.8369C11.8598 14.0002 11.4393 14 10.5996 14H10.5V13.5C10.5 12.9477 10.0523 12.5 9.5 12.5C8.94772 12.5 8.5 12.9477 8.5 13.5V14H8.40039C7.56068 14 7.14015 14.0002 6.81934 13.8369C6.53709 13.6931 6.3069 13.4629 6.16309 13.1807C5.99981 12.8598 6 12.4393 6 11.5996V11.5H6.5C7.05228 11.5 7.5 11.0523 7.5 10.5C7.5 9.94772 7.05228 9.5 6.5 9.5H6V9.40039C6 8.56068 5.99981 8.14015 6.16309 7.81934C6.3069 7.53709 6.53709 7.3069 6.81934 7.16309C7.14015 6.99981 7.56068 7 8.40039 7H8.5V6.5C8.5 5.94772 8.94772 5.5 9.5 5.5Z" fill="#A67CF8"/>
<path d="M9.5 5.5C10.0523 5.5 10.5 5.94772 10.5 6.5V7H10.5996C11.4393 7 11.8598 6.99981 12.1807 7.16309C12.4629 7.3069 12.6931 7.53709 12.8369 7.81934C13.0002 8.14015 13 8.56068 13 9.40039V9.5H13.5C14.0523 9.5 14.5 9.94772 14.5 10.5C14.5 11.0523 14.0523 11.5 13.5 11.5H13V11.5996C13 12.4393 13.0002 12.8598 12.8369 13.1807C12.6931 13.4629 12.4629 13.6931 12.1807 13.8369C11.8598 14.0002 11.4393 14 10.5996 14H10.5V13.5C10.5 12.9477 10.0523 12.5 9.5 12.5C8.94772 12.5 8.5 12.9477 8.5 13.5V14H8.40039C7.56068 14 7.14015 14.0002 6.81934 13.8369C6.53709 13.6931 6.3069 13.4629 6.16309 13.1807C5.99981 12.8598 6 12.4393 6 11.5996V11.5H6.5C7.05228 11.5 7.5 11.0523 7.5 10.5C7.5 9.94772 7.05228 9.5 6.5 9.5H6V9.40039C6 8.56068 5.99981 8.14015 6.16309 7.81934C6.3069 7.53709 6.53709 7.3069 6.81934 7.16309C7.14015 6.99981 7.56068 7 8.40039 7H8.5V6.5C8.5 5.94772 8.94772 5.5 9.5 5.5Z" fill="black" fill-opacity="0.15" style="mix-blend-mode:plus-darker"/>
</svg>
