<svg width="16" height="16" viewBox="0 0 16 16" fill="none" xmlns="http://www.w3.org/2000/svg">
<path opacity="0.9" d="M4.34277 1C4.95414 1 5.26018 1.0003 5.54785 1.06934C5.80285 1.13055 6.0469 1.23117 6.27051 1.36816C6.5228 1.52277 6.7395 1.7395 7.17188 2.17188L7.76563 2.76563L7.86914 2.86719C7.89702 2.89262 7.92109 2.91132 7.94629 2.92676C7.99089 2.95401 8.04 2.97413 8.09082 2.98633C8.14819 3.00002 8.20928 3 8.33105 3H10C11.4 3 12.1 3.00007 12.6348 3.27246C13.1052 3.51214 13.4879 3.89483 13.7275 4.36523C13.8214 4.54947 13.8806 4.75368 13.9209 4.99902C13.5047 4.68746 12.9889 4.5 12.4258 4.5H7.57422C6.1235 4.5 4.97695 5.73074 5.08008 7.17773L5.45605 12.4404C5.46982 12.6332 5.50607 12.8205 5.56152 13H5C3.60002 13 2.89999 12.9999 2.36523 12.7275C1.89483 12.4879 1.51214 12.1052 1.27246 11.6348C1.00007 11.1 1 10.4 1 9V4.2002C1 3.08009 0.999786 2.51962 1.21777 2.0918C1.40951 1.71554 1.71554 1.40951 2.0918 1.21777C2.51962 0.999786 3.08009 1 4.2002 1H4.34277Z" fill="#5BAFD4"/>
<path d="M11.7816 6C12.3787 6 12.6773 6.00028 12.8988 6.11914C13.0933 6.22358 13.2478 6.38935 13.3382 6.59082C13.441 6.82024 13.4198 7.11825 13.3773 7.71387L13.0765 11.9336C13.049 12.3188 13.0348 12.5121 12.9613 12.6748C12.8963 12.8184 12.7982 12.9445 12.6751 13.043C12.5358 13.1545 12.3527 13.2159 11.9867 13.3379L10.5062 13.8311C10.3185 13.8936 10.2243 13.9251 10.1283 13.9375C10.0431 13.9485 9.9566 13.9485 9.87143 13.9375C9.77555 13.9251 9.68184 13.8935 9.49448 13.8311L8.01401 13.3379C7.64764 13.2158 7.46392 13.1545 7.32455 13.043C7.2016 12.9444 7.10335 12.8184 7.03842 12.6748C6.96487 12.5121 6.95168 12.3188 6.92416 11.9336L6.62241 7.71387C6.57986 7.11827 6.55865 6.82024 6.66147 6.59082C6.7518 6.38936 6.90641 6.22361 7.10092 6.11914C7.32241 6.00025 7.6211 6 8.21811 6H11.7816ZM10.0003 7V13L11.6556 12.5859C11.8618 12.5343 12.0133 12.3582 12.0326 12.1465L12.4505 7.54492C12.4769 7.25226 12.2464 7 11.9525 7H10.0003Z" fill="#5BAFD4"/>
<path d="M11.7816 6C12.3787 6 12.6773 6.00028 12.8988 6.11914C13.0933 6.22358 13.2478 6.38935 13.3382 6.59082C13.441 6.82024 13.4198 7.11825 13.3773 7.71387L13.0765 11.9336C13.049 12.3188 13.0348 12.5121 12.9613 12.6748C12.8963 12.8184 12.7982 12.9445 12.6751 13.043C12.5358 13.1545 12.3527 13.2159 11.9867 13.3379L10.5062 13.8311C10.3185 13.8936 10.2243 13.9251 10.1283 13.9375C10.0431 13.9485 9.9566 13.9485 9.87143 13.9375C9.77555 13.9251 9.68184 13.8935 9.49448 13.8311L8.01401 13.3379C7.64764 13.2158 7.46392 13.1545 7.32455 13.043C7.2016 12.9444 7.10335 12.8184 7.03842 12.6748C6.96487 12.5121 6.95168 12.3188 6.92416 11.9336L6.62241 7.71387C6.57986 7.11827 6.55865 6.82024 6.66147 6.59082C6.7518 6.38936 6.90641 6.22361 7.10092 6.11914C7.32241 6.00025 7.6211 6 8.21811 6H11.7816ZM10.0003 7V13L11.6556 12.5859C11.8618 12.5343 12.0133 12.3582 12.0326 12.1465L12.4505 7.54492C12.4769 7.25226 12.2464 7 11.9525 7H10.0003Z" fill="black" fill-opacity="0.15" style="mix-blend-mode:plus-darker"/>
</svg>
