<svg width="16" height="16" viewBox="0 0 16 16" fill="none" xmlns="http://www.w3.org/2000/svg">
<path opacity="0.8" fill-rule="evenodd" clip-rule="evenodd" d="M1 9V4.2C1 3.0799 1 2.51984 1.21799 2.09202C1.40973 1.71569 1.71569 1.40973 2.09202 1.21799C2.51984 1 3.0799 1 4.2 1H4.34315C4.95462 1 5.26036 1 5.54808 1.06908C5.80317 1.13032 6.04703 1.23133 6.27071 1.3684C6.523 1.523 6.73919 1.73919 7.17157 2.17157L7.76569 2.76569L7.76569 2.76569L7.76569 2.76569C7.85216 2.85216 7.8954 2.8954 7.94586 2.92632C7.99059 2.95373 8.03937 2.97394 8.09038 2.98618C8.14793 3 8.20908 3 8.33137 3H10C11.4001 3 12.1002 3 12.635 3.27248C13.1054 3.51217 13.4878 3.89462 13.7275 4.36502C13.8213 4.54901 13.8828 4.75257 13.9231 4.99747C13.5069 4.68563 12.9894 4.5 12.426 4.5H7.57398C6.12312 4.5 4.97696 5.73095 5.08033 7.17812L5.45622 12.4406C5.46998 12.6332 5.50563 12.8206 5.56099 13H5C3.59987 13 2.8998 13 2.36502 12.7275C1.89462 12.4878 1.51217 12.1054 1.27248 11.635C1 11.1002 1 10.4001 1 9Z" fill="#5BAFD4"/>
<path fill-rule="evenodd" clip-rule="evenodd" d="M13.3776 7.714L13.0762 11.934C13.0486 12.3192 13.0349 12.5118 12.9613 12.6745C12.8963 12.8183 12.7983 12.9446 12.6751 13.0432C12.5357 13.1548 12.3525 13.2158 11.9862 13.3379L10.506 13.8313C10.3182 13.8939 10.2244 13.9252 10.1284 13.9376C10.0431 13.9487 9.95687 13.9487 9.87167 13.9376C9.77564 13.9252 9.68178 13.8939 9.49405 13.8313L8.01384 13.3379C7.64748 13.2158 7.46429 13.1548 7.32493 13.0432C7.20177 12.9446 7.10369 12.8183 7.03869 12.6745C6.96514 12.5118 6.95139 12.3192 6.92387 11.934L6.62244 7.71399C6.57989 7.11831 6.55862 6.82047 6.66144 6.59103C6.7518 6.38942 6.90638 6.2234 7.10104 6.11891C7.32257 6 7.62117 6 8.21837 6H11.7816C12.3789 6 12.6775 6 12.899 6.11891C13.0936 6.2234 13.2482 6.38942 13.3386 6.59103C13.4414 6.82047 13.4201 7.11831 13.3776 7.714ZM10 13L11.6555 12.5861C11.8618 12.5346 12.0129 12.3581 12.0322 12.1463L12.4504 7.54527C12.4771 7.25246 12.2465 7 11.9525 7H10V13Z" fill="#5BAFD4"/>
<path fill-rule="evenodd" clip-rule="evenodd" d="M13.3776 7.714L13.0762 11.934C13.0486 12.3192 13.0349 12.5118 12.9613 12.6745C12.8963 12.8183 12.7983 12.9446 12.6751 13.0432C12.5357 13.1548 12.3525 13.2158 11.9862 13.3379L10.506 13.8313C10.3182 13.8939 10.2244 13.9252 10.1284 13.9376C10.0431 13.9487 9.95687 13.9487 9.87167 13.9376C9.77564 13.9252 9.68178 13.8939 9.49405 13.8313L8.01384 13.3379C7.64748 13.2158 7.46429 13.1548 7.32493 13.0432C7.20177 12.9446 7.10369 12.8183 7.03869 12.6745C6.96514 12.5118 6.95139 12.3192 6.92387 11.934L6.62244 7.71399C6.57989 7.11831 6.55862 6.82047 6.66144 6.59103C6.7518 6.38942 6.90638 6.2234 7.10104 6.11891C7.32257 6 7.62117 6 8.21837 6H11.7816C12.3789 6 12.6775 6 12.899 6.11891C13.0936 6.2234 13.2482 6.38942 13.3386 6.59103C13.4414 6.82047 13.4201 7.11831 13.3776 7.714ZM10 13L11.6555 12.5861C11.8618 12.5346 12.0129 12.3581 12.0322 12.1463L12.4504 7.54527C12.4771 7.25246 12.2465 7 11.9525 7H10V13Z" fill="black" fill-opacity="0.1" style="mix-blend-mode:plus-darker"/>
</svg>
