<svg width="16" height="16" viewBox="0 0 16 16" fill="none" xmlns="http://www.w3.org/2000/svg">
<path opacity="0.9" d="M4.34277 1C4.95414 1 5.26018 1.0003 5.54785 1.06934C5.80285 1.13055 6.0469 1.23117 6.27051 1.36816C6.5228 1.52277 6.7395 1.7395 7.17188 2.17188L7.76563 2.76563L7.86914 2.86719C7.89702 2.89262 7.92109 2.91132 7.94629 2.92676C7.99089 2.95401 8.04 2.97413 8.09082 2.98633C8.14819 3.00002 8.20928 3 8.33105 3H10C11.4 3 12.1 3.00007 12.6348 3.27246C13.1052 3.51214 13.4879 3.89483 13.7275 4.36523C13.8951 4.69416 13.9586 5.08564 13.9834 5.66406C13.7158 5.4639 13.455 5.31101 13.2393 5.20313C12.2811 4.72408 11.1323 4.5 10 4.5C8.86767 4.5 7.7189 4.72408 6.76074 5.20313C5.95209 5.60745 4.5 6.62872 4.5 8.5V12.5C4.5 12.6729 4.51203 12.8385 4.53516 12.9971C3.43799 12.9938 2.83723 12.968 2.36523 12.7275C1.89483 12.4879 1.51214 12.1052 1.27246 11.6348C1.00007 11.1 1 10.4 1 9V4.2002C1 3.08009 0.999786 2.51962 1.21777 2.0918C1.40951 1.71554 1.71554 1.40951 2.0918 1.21777C2.51962 0.999786 3.08009 1 4.2002 1H4.34277Z" fill="#FF845D"/>
<path d="M14 12.5C14 13.497 13.2176 14.1305 12.5684 14.4551C11.8594 14.8095 10.9499 15 10 15C9.05005 15 8.14063 14.8095 7.43164 14.4551C6.78244 14.1305 6 13.497 6 12.5V11.626C6.19822 11.8103 6.415 11.9746 6.6416 12.1162C7.548 12.6826 8.7381 13 10 13C11.2619 13 12.452 12.6826 13.3584 12.1162C13.585 11.9746 13.8018 11.8103 14 11.626V12.5ZM10 6C10.9499 6 11.8594 6.19046 12.5684 6.54492C13.2176 6.86952 14 7.50296 14 8.5V9.5C14 10.8807 12.2091 12 10 12C7.79086 12 6 10.8807 6 9.5V8.5C6 7.50296 6.78244 6.86952 7.43164 6.54492C8.14063 6.19046 9.05005 6 10 6ZM10 7C8.34315 7 7 7.67157 7 8.5C7 9.32843 8.34315 10 10 10C11.6569 10 13 9.32843 13 8.5C13 7.67157 11.6569 7 10 7Z" fill="#FF845D"/>
<path d="M14 12.5C14 13.497 13.2176 14.1305 12.5684 14.4551C11.8594 14.8095 10.9499 15 10 15C9.05005 15 8.14063 14.8095 7.43164 14.4551C6.78244 14.1305 6 13.497 6 12.5V11.626C6.19822 11.8103 6.415 11.9746 6.6416 12.1162C7.548 12.6826 8.7381 13 10 13C11.2619 13 12.452 12.6826 13.3584 12.1162C13.585 11.9746 13.8018 11.8103 14 11.626V12.5ZM10 6C10.9499 6 11.8594 6.19046 12.5684 6.54492C13.2176 6.86952 14 7.50296 14 8.5V9.5C14 10.8807 12.2091 12 10 12C7.79086 12 6 10.8807 6 9.5V8.5C6 7.50296 6.78244 6.86952 7.43164 6.54492C8.14063 6.19046 9.05005 6 10 6ZM10 7C8.34315 7 7 7.67157 7 8.5C7 9.32843 8.34315 10 10 10C11.6569 10 13 9.32843 13 8.5C13 7.67157 11.6569 7 10 7Z" fill="black" fill-opacity="0.15" style="mix-blend-mode:plus-darker"/>
</svg>
