<svg width="16" height="16" viewBox="0 0 16 16" fill="none" xmlns="http://www.w3.org/2000/svg">
<path opacity="0.9" d="M4.34277 1C4.95414 1 5.26018 1.0003 5.54785 1.06934C5.80285 1.13055 6.0469 1.23117 6.27051 1.36816C6.5228 1.52277 6.7395 1.7395 7.17188 2.17188L7.76563 2.76563L7.86914 2.86719C7.89702 2.89262 7.92109 2.91132 7.94629 2.92676C7.99089 2.95401 8.04 2.97413 8.09082 2.98633C8.14819 3.00002 8.20928 3 8.33105 3H10C11.4 3 12.1 3.00007 12.6348 3.27246C13.1052 3.51214 13.4879 3.89483 13.7275 4.36523C13.7724 4.45335 13.8066 4.547 13.8379 4.64648C13.5757 4.55314 13.2942 4.5 13 4.5H8C6.067 4.5 4.5 6.067 4.5 8V12.9971C3.42511 12.9932 2.83217 12.9654 2.36523 12.7275C1.89483 12.4879 1.51214 12.1052 1.27246 11.6348C1.00007 11.1 1 10.4 1 9V4.2002C1 3.08009 0.999786 2.51962 1.21777 2.0918C1.40951 1.71554 1.71554 1.40951 2.0918 1.21777C2.51962 0.999786 3.08009 1 4.2002 1H4.34277Z" fill="#7380F9"/>
<path d="M10.7998 6C11.9199 6 12.4804 5.99979 12.9082 6.21777C13.2845 6.40951 13.5905 6.71554 13.7822 7.0918C14.0002 7.51962 14 8.08009 14 9.2002V10.4004C14 10.9602 13.9996 11.2402 13.8906 11.4541C13.7948 11.6421 13.6421 11.7948 13.4541 11.8906C13.2402 11.9996 12.9602 12 12.4004 12H8.25C7.83579 12 7.5 12.3358 7.5 12.75C7.5 13.1642 7.83579 13.5 8.25 13.5H13.5C13.7761 13.5 14.0082 13.73 13.9178 13.9909C13.7145 14.5783 13.1565 15 12.5 15H9.2002C8.08009 15 7.51962 15.0002 7.0918 14.7822C6.71554 14.5905 6.40951 14.2845 6.21777 13.9082C5.99979 13.4804 6 12.9199 6 11.7998V9.2002C6 8.08009 5.99979 7.51962 6.21777 7.0918C6.40951 6.71554 6.71554 6.40951 7.0918 6.21777C7.51962 5.99979 8.08009 6 9.2002 6H10.7998Z" fill="#7380F9"/>
<path d="M10.7998 6C11.9199 6 12.4804 5.99979 12.9082 6.21777C13.2845 6.40951 13.5905 6.71554 13.7822 7.0918C14.0002 7.51962 14 8.08009 14 9.2002V10.4004C14 10.9602 13.9996 11.2402 13.8906 11.4541C13.7948 11.6421 13.6421 11.7948 13.4541 11.8906C13.2402 11.9996 12.9602 12 12.4004 12H8.25C7.83579 12 7.5 12.3358 7.5 12.75C7.5 13.1642 7.83579 13.5 8.25 13.5H13.5C13.7761 13.5 14.0082 13.73 13.9178 13.9909C13.7145 14.5783 13.1565 15 12.5 15H9.2002C8.08009 15 7.51962 15.0002 7.0918 14.7822C6.71554 14.5905 6.40951 14.2845 6.21777 13.9082C5.99979 13.4804 6 12.9199 6 11.7998V9.2002C6 8.08009 5.99979 7.51962 6.21777 7.0918C6.40951 6.71554 6.71554 6.40951 7.0918 6.21777C7.51962 5.99979 8.08009 6 9.2002 6H10.7998Z" fill="black" fill-opacity="0.15" style="mix-blend-mode:plus-darker"/>
</svg>
