<svg width="16" height="16" viewBox="0 0 16 16" fill="none" xmlns="http://www.w3.org/2000/svg">
<path opacity="0.9" d="M4.34277 1C4.95414 1 5.26018 1.0003 5.54785 1.06934C5.80285 1.13055 6.0469 1.23117 6.27051 1.36816C6.5228 1.52277 6.7395 1.7395 7.17188 2.17188L7.76563 2.76563L7.86914 2.86719C7.89702 2.89262 7.92109 2.91132 7.94629 2.92676C7.99089 2.95401 8.04 2.97413 8.09082 2.98633C8.14819 3.00002 8.20928 3 8.33105 3H10C11.4 3 12.1 3.00007 12.6348 3.27246C13.1052 3.51214 13.4879 3.89483 13.7275 4.36523C13.9442 4.79052 13.987 5.32034 13.9961 6.22363C12.9935 5.16304 11.5747 4.5 10 4.5C6.96243 4.5 4.5 6.96243 4.5 10C4.5 11.1072 4.82867 12.137 5.3916 13H5C3.60002 13 2.89999 12.9999 2.36523 12.7275C1.89483 12.4879 1.51214 12.1052 1.27246 11.6348C1.00007 11.1 1 10.4 1 9V4.2002C1 3.08009 0.999786 2.51962 1.21777 2.0918C1.40951 1.71554 1.71554 1.40951 2.0918 1.21777C2.51962 0.999786 3.08009 1 4.2002 1H4.34277Z" fill="#F15F79"/>
<path d="M10 6C12.2091 6 14 7.79086 14 10C14 12.2091 12.2091 14 10 14C7.79086 14 6 12.2091 6 10C6 7.79086 7.79086 6 10 6ZM11.9424 8.05762C11.6983 7.81354 11.3017 7.81354 11.0576 8.05762L10 9.11523L8.94238 8.05762L8.84375 7.97754C8.60118 7.81758 8.2711 7.84414 8.05762 8.05762C7.84414 8.2711 7.81758 8.60118 7.97754 8.84375L8.05762 8.94238L9.11523 10L8.05762 11.0576C7.81354 11.3017 7.81354 11.6983 8.05762 11.9424C8.30169 12.1865 8.69831 12.1865 8.94238 11.9424L10 10.8848L11.0576 11.9424L11.1562 12.0225C11.3988 12.1824 11.7289 12.1559 11.9424 11.9424C12.1559 11.7289 12.1824 11.3988 12.0225 11.1562L11.9424 11.0576L10.8848 10L11.9424 8.94238C12.1865 8.69831 12.1865 8.30169 11.9424 8.05762Z" fill="#F15F79"/>
<path d="M10 6C12.2091 6 14 7.79086 14 10C14 12.2091 12.2091 14 10 14C7.79086 14 6 12.2091 6 10C6 7.79086 7.79086 6 10 6ZM11.9424 8.05762C11.6983 7.81354 11.3017 7.81354 11.0576 8.05762L10 9.11523L8.94238 8.05762L8.84375 7.97754C8.60118 7.81758 8.2711 7.84414 8.05762 8.05762C7.84414 8.2711 7.81758 8.60118 7.97754 8.84375L8.05762 8.94238L9.11523 10L8.05762 11.0576C7.81354 11.3017 7.81354 11.6983 8.05762 11.9424C8.30169 12.1865 8.69831 12.1865 8.94238 11.9424L10 10.8848L11.0576 11.9424L11.1562 12.0225C11.3988 12.1824 11.7289 12.1559 11.9424 11.9424C12.1559 11.7289 12.1824 11.3988 12.0225 11.1562L11.9424 11.0576L10.8848 10L11.9424 8.94238C12.1865 8.69831 12.1865 8.30169 11.9424 8.05762Z" fill="black" fill-opacity="0.15" style="mix-blend-mode:plus-darker"/>
</svg>
