<svg width="16" height="16" viewBox="0 0 16 16" fill="none" xmlns="http://www.w3.org/2000/svg">
<path opacity="0.9" d="M4.34277 1C4.95414 1 5.26018 1.0003 5.54785 1.06934C5.80285 1.13055 6.0469 1.23117 6.27051 1.36816C6.5228 1.52277 6.7395 1.7395 7.17188 2.17188L7.76563 2.76563L7.86914 2.86719C7.89702 2.89262 7.92109 2.91132 7.94629 2.92676C7.99089 2.95401 8.04 2.97413 8.09082 2.98633C8.14819 3.00002 8.20928 3 8.33105 3H10C11.4 3 12.1 3.00007 12.6348 3.27246C13.1052 3.51214 13.4879 3.89483 13.7275 4.36523C13.8357 4.57761 13.8992 4.81626 13.9385 5.11426C13.5038 4.7348 12.9343 4.5 12.2979 4.5H9C7.61929 4.5 6.5 5.61929 6.5 7V10C6.5 10.7911 6.86773 11.4955 7.44141 11.9531C7.75203 12.2009 8 12.547 8 12.9443V13H5C3.60002 13 2.89999 12.9999 2.36523 12.7275C1.89483 12.4879 1.51214 12.1052 1.27246 11.6348C1.00007 11.1 1 10.4 1 9V4.2002C1 3.08009 0.999786 2.51962 1.21777 2.0918C1.40951 1.71554 1.71554 1.40951 2.0918 1.21777C2.51962 0.999786 3.08009 1 4.2002 1H4.34277Z" fill="#FFAB5D"/>
<path d="M8 10V7C8 6.44772 8.44772 6 9 6H11.7192C12.3698 6 12.8472 6.61139 12.6894 7.24254L12 10H13.4325C13.8564 10 14.088 10.4944 13.8166 10.8201L10.3841 14.9391C10.0847 15.2983 9.5 15.0866 9.5 14.619V11H9C8.44772 11 8 10.5523 8 10Z" fill="#FFAB5D"/>
<path d="M8 10V7C8 6.44772 8.44772 6 9 6H11.7192C12.3698 6 12.8472 6.61139 12.6894 7.24254L12 10H13.4325C13.8564 10 14.088 10.4944 13.8166 10.8201L10.3841 14.9391C10.0847 15.2983 9.5 15.0866 9.5 14.619V11H9C8.44772 11 8 10.5523 8 10Z" fill="black" fill-opacity="0.15" style="mix-blend-mode:plus-darker"/>
</svg>
