<svg width="16" height="16" viewBox="0 0 16 16" fill="none" xmlns="http://www.w3.org/2000/svg">
<path opacity="0.9" d="M4.34277 1C4.95414 1 5.26018 1.0003 5.54785 1.06934C5.80285 1.13055 6.0469 1.23117 6.27051 1.36816C6.5228 1.52277 6.7395 1.7395 7.17188 2.17188L7.76563 2.76563L7.86914 2.86719C7.89702 2.89262 7.92109 2.91132 7.94629 2.92676C7.99089 2.95401 8.04 2.97413 8.09082 2.98633C8.14819 3.00002 8.20928 3 8.33105 3H10C11.4 3 12.1 3.00007 12.6348 3.27246C13.1052 3.51214 13.4879 3.89483 13.7275 4.36523C13.9714 4.84405 13.9954 5.45537 13.998 6.58301C13.9798 6.55552 13.9616 6.5279 13.9424 6.50098C13.7975 6.29785 13.6151 6.11514 13.25 5.75C12.8849 5.38486 12.7021 5.20247 12.499 5.05762C12.1282 4.79319 11.7021 4.61625 11.2529 4.54102C11.0069 4.49981 10.7487 4.5 10.2324 4.5H9.2998C7.61978 4.5 6.77941 4.50018 6.1377 4.82715C5.57347 5.11472 5.11472 5.57347 4.82715 6.1377C4.50018 6.77941 4.5 7.61978 4.5 9.2998V12.9971C3.42511 12.9932 2.83217 12.9654 2.36523 12.7275C1.89483 12.4879 1.51214 12.1052 1.27246 11.6348C1.00007 11.1 1 10.4 1 9V4.2002C1 3.08009 0.999786 2.51962 1.21777 2.0918C1.40951 1.71554 1.71554 1.40951 2.0918 1.21777C2.51962 0.999786 3.08009 1 4.2002 1H4.34277Z" fill="#8080A0"/>
<path d="M10.1748 6C10.6638 6 10.9085 6.00041 11.1387 6.05566C11.3426 6.10466 11.5379 6.18532 11.7168 6.29492C11.9185 6.41859 12.0917 6.59174 12.4375 6.9375L13.0625 7.5625C13.4083 7.90826 13.5814 8.08148 13.7051 8.2832C13.8147 8.46206 13.8953 8.65736 13.9443 8.86133C13.9996 9.09146 14 9.33621 14 9.8252V12.5996C14 13.4393 14.0002 13.8598 13.8369 14.1807C13.6931 14.4629 13.4629 14.6931 13.1807 14.8369C12.8598 15.0002 12.4393 15 11.5996 15H8.40039C7.56068 15 7.14015 15.0002 6.81934 14.8369C6.53709 14.6931 6.3069 14.4629 6.16309 14.1807C5.99981 13.8598 6 13.4393 6 12.5996V8.40039C6 7.56068 5.99981 7.14015 6.16309 6.81934C6.3069 6.53709 6.53709 6.3069 6.81934 6.16309C7.14015 5.99981 7.56068 6 8.40039 6H10.1748ZM8 12C7.72386 12 7.5 12.2239 7.5 12.5V13C7.5 13.2761 7.72386 13.5 8 13.5H10C10.2761 13.5 10.5 13.2761 10.5 13V12.5C10.5 12.2239 10.2761 12 10 12H8ZM8 9.5C7.72386 9.5 7.5 9.72386 7.5 10V10.5C7.5 10.7761 7.72386 11 8 11H12C12.2761 11 12.5 10.7761 12.5 10.5V10C12.5 9.72386 12.2761 9.5 12 9.5H8Z" fill="#8080A0"/>
<path d="M10.1748 6C10.6638 6 10.9085 6.00041 11.1387 6.05566C11.3426 6.10466 11.5379 6.18532 11.7168 6.29492C11.9185 6.41859 12.0917 6.59174 12.4375 6.9375L13.0625 7.5625C13.4083 7.90826 13.5814 8.08148 13.7051 8.2832C13.8147 8.46206 13.8953 8.65736 13.9443 8.86133C13.9996 9.09146 14 9.33621 14 9.8252V12.5996C14 13.4393 14.0002 13.8598 13.8369 14.1807C13.6931 14.4629 13.4629 14.6931 13.1807 14.8369C12.8598 15.0002 12.4393 15 11.5996 15H8.40039C7.56068 15 7.14015 15.0002 6.81934 14.8369C6.53709 14.6931 6.3069 14.4629 6.16309 14.1807C5.99981 13.8598 6 13.4393 6 12.5996V8.40039C6 7.56068 5.99981 7.14015 6.16309 6.81934C6.3069 6.53709 6.53709 6.3069 6.81934 6.16309C7.14015 5.99981 7.56068 6 8.40039 6H10.1748ZM8 12C7.72386 12 7.5 12.2239 7.5 12.5V13C7.5 13.2761 7.72386 13.5 8 13.5H10C10.2761 13.5 10.5 13.2761 10.5 13V12.5C10.5 12.2239 10.2761 12 10 12H8ZM8 9.5C7.72386 9.5 7.5 9.72386 7.5 10V10.5C7.5 10.7761 7.72386 11 8 11H12C12.2761 11 12.5 10.7761 12.5 10.5V10C12.5 9.72386 12.2761 9.5 12 9.5H8Z" fill="black" fill-opacity="0.15" style="mix-blend-mode:plus-darker"/>
</svg>
