<svg width="16" height="16" viewBox="0 0 16 16" fill="none" xmlns="http://www.w3.org/2000/svg">
<path opacity="0.9" d="M4.34277 1C4.95414 1 5.26018 1.0003 5.54785 1.06934C5.80285 1.13055 6.0469 1.23117 6.27051 1.36816C6.5228 1.52277 6.7395 1.7395 7.17188 2.17188L7.76563 2.76563L7.86914 2.86719C7.89702 2.89262 7.92109 2.91132 7.94629 2.92676C7.99089 2.95401 8.04 2.97413 8.09082 2.98633C8.14819 3.00002 8.20928 3 8.33105 3H10C11.4 3 12.1 3.00007 12.6348 3.27246C13.1052 3.51214 13.4879 3.89483 13.7275 4.36523C13.9654 4.83217 13.9942 5.4251 13.998 6.5H13C12.7555 6.50002 12.5165 6.52546 12.2861 6.57324C11.6859 6.6976 10.9995 6.47076 10.6152 5.99316C9.88256 5.08274 8.75978 4.5 7.5 4.5C5.29086 4.5 3.5 6.29086 3.5 8.5V12.9736C3.00991 12.9437 2.66205 12.8787 2.36523 12.7275C1.89483 12.4879 1.51214 12.1052 1.27246 11.6348C1.00007 11.1 1 10.4 1 9V4.2002C1 3.08009 0.999786 2.51962 1.21777 2.0918C1.40951 1.71554 1.71554 1.40951 2.0918 1.21777C2.51962 0.999786 3.08009 1 4.2002 1H4.34277Z" fill="#FF845D"/>
<path d="M7.5 6C8.88071 6 10 7.11929 10 8.5V13.5C10 13.7761 9.77614 14 9.5 14H9C8.72386 14 8.5 13.7761 8.5 13.5V11H6.5V13.5C6.5 13.7761 6.27614 14 6 14H5.5C5.22386 14 5 13.7761 5 13.5V8.5C5 7.11929 6.11929 6 7.5 6ZM14 8C15.1045 8.00008 16 8.89548 16 10V13.5C16 13.7761 15.7761 13.9999 15.5 14H15C14.7239 13.9999 14.5 13.7761 14.5 13.5C14.1799 13.8201 13.7456 14 13.293 14H12.5176C11.4529 13.9998 10.6349 13.0569 10.7852 12.0029C10.9083 11.1409 11.6468 10.5002 12.5176 10.5H14.5V10C14.5 9.44777 14.0522 9.00008 13.5 9C12.9478 9.00008 12.5 9.44776 12.5 10H11C11 8.89548 11.8955 8.00008 13 8H14ZM13.041 11.5C12.7182 11.5 12.4312 11.7065 12.3291 12.0127C12.1672 12.4983 12.5291 13 13.041 13H13.4531C14.0312 12.9998 14.4998 12.5312 14.5 11.9531V11.5H13.041ZM7.5 7.5C6.94772 7.5 6.5 7.94772 6.5 8.5V9.5H8.5V8.5C8.5 7.94772 8.05228 7.5 7.5 7.5Z" fill="#FF845D"/>
<path d="M7.5 6C8.88071 6 10 7.11929 10 8.5V13.5C10 13.7761 9.77614 14 9.5 14H9C8.72386 14 8.5 13.7761 8.5 13.5V11H6.5V13.5C6.5 13.7761 6.27614 14 6 14H5.5C5.22386 14 5 13.7761 5 13.5V8.5C5 7.11929 6.11929 6 7.5 6ZM14 8C15.1045 8.00008 16 8.89548 16 10V13.5C16 13.7761 15.7761 13.9999 15.5 14H15C14.7239 13.9999 14.5 13.7761 14.5 13.5C14.1799 13.8201 13.7456 14 13.293 14H12.5176C11.4529 13.9998 10.6349 13.0569 10.7852 12.0029C10.9083 11.1409 11.6468 10.5002 12.5176 10.5H14.5V10C14.5 9.44777 14.0522 9.00008 13.5 9C12.9478 9.00008 12.5 9.44776 12.5 10H11C11 8.89548 11.8955 8.00008 13 8H14ZM13.041 11.5C12.7182 11.5 12.4312 11.7065 12.3291 12.0127C12.1672 12.4983 12.5291 13 13.041 13H13.4531C14.0312 12.9998 14.4998 12.5312 14.5 11.9531V11.5H13.041ZM7.5 7.5C6.94772 7.5 6.5 7.94772 6.5 8.5V9.5H8.5V8.5C8.5 7.94772 8.05228 7.5 7.5 7.5Z" fill="black" fill-opacity="0.15" style="mix-blend-mode:plus-darker"/>
</svg>
