<svg width="16" height="16" viewBox="0 0 16 16" fill="none" xmlns="http://www.w3.org/2000/svg">
<path opacity="0.8" fill-rule="evenodd" clip-rule="evenodd" d="M1 4.2V9C1 10.4001 1 11.1002 1.27248 11.635C1.51217 12.1054 1.89462 12.4878 2.36502 12.7275C2.66191 12.8788 3.00973 12.9461 3.5 12.976V8.5C3.5 6.29086 5.29086 4.5 7.5 4.5C8.76002 4.5 9.88397 5.0826 10.6172 5.99312C11.0015 6.47043 11.6874 6.69668 12.2875 6.57257C12.5175 6.525 12.7558 6.5 13 6.5H13.9994C13.9956 5.42496 13.9654 4.83198 13.7275 4.36502C13.4878 3.89462 13.1054 3.51217 12.635 3.27248C12.1002 3 11.4001 3 10 3H8.33137C8.20908 3 8.14793 3 8.09038 2.98618C8.03937 2.97394 7.99059 2.95373 7.94586 2.92632C7.8954 2.8954 7.85216 2.85216 7.76569 2.76569L7.76569 2.76569L7.76569 2.76569L7.17157 2.17157C6.73919 1.73919 6.523 1.523 6.27071 1.3684C6.04703 1.23133 5.80317 1.13032 5.54808 1.06908C5.26036 1 4.95462 1 4.34315 1H4.2C3.0799 1 2.51984 1 2.09202 1.21799C1.71569 1.40973 1.40973 1.71569 1.21799 2.09202C1 2.51984 1 3.0799 1 4.2Z" fill="#FF845D"/>
<path fill-rule="evenodd" clip-rule="evenodd" d="M5 8.5V13.5C5 13.7761 5.22386 14 5.5 14H6C6.27614 14 6.5 13.7761 6.5 13.5V11H8.5V13.5C8.5 13.7761 8.72386 14 9 14H9.5C9.77614 14 10 13.7761 10 13.5V8.5C10 7.11929 8.88071 6 7.5 6C6.11929 6 5 7.11929 5 8.5ZM6.5 9.5V8.5C6.5 7.94772 6.94772 7.5 7.5 7.5C8.05228 7.5 8.5 7.94772 8.5 8.5V9.5H6.5ZM14 8H13C11.8954 8 11 8.89543 11 10H12.5C12.5 9.44772 12.9477 9 13.5 9C14.0523 9 14.5 9.44772 14.5 10V10.5H12.5178C11.6469 10.5 10.9085 11.1404 10.7853 12.0025C10.6347 13.0568 11.4528 14 12.5178 14H13.2929C13.7456 14 14.1798 13.8201 14.5 13.5C14.5 13.7761 14.7238 14 15 14H15.5C15.7761 14 16 13.7761 16 13.5V10C16 8.89543 15.1046 8 14 8ZM13.0406 11.5H14.5V11.9528C14.5 12.5312 14.0312 13 13.4528 13H13.0406C12.5286 13 12.1672 12.4985 12.329 12.0128C12.4311 11.7066 12.7177 11.5 13.0406 11.5Z" fill="#FF845D"/>
<path fill-rule="evenodd" clip-rule="evenodd" d="M5 8.5V13.5C5 13.7761 5.22386 14 5.5 14H6C6.27614 14 6.5 13.7761 6.5 13.5V11H8.5V13.5C8.5 13.7761 8.72386 14 9 14H9.5C9.77614 14 10 13.7761 10 13.5V8.5C10 7.11929 8.88071 6 7.5 6C6.11929 6 5 7.11929 5 8.5ZM6.5 9.5V8.5C6.5 7.94772 6.94772 7.5 7.5 7.5C8.05228 7.5 8.5 7.94772 8.5 8.5V9.5H6.5ZM14 8H13C11.8954 8 11 8.89543 11 10H12.5C12.5 9.44772 12.9477 9 13.5 9C14.0523 9 14.5 9.44772 14.5 10V10.5H12.5178C11.6469 10.5 10.9085 11.1404 10.7853 12.0025C10.6347 13.0568 11.4528 14 12.5178 14H13.2929C13.7456 14 14.1798 13.8201 14.5 13.5C14.5 13.7761 14.7238 14 15 14H15.5C15.7761 14 16 13.7761 16 13.5V10C16 8.89543 15.1046 8 14 8ZM13.0406 11.5H14.5V11.9528C14.5 12.5312 14.0312 13 13.4528 13H13.0406C12.5286 13 12.1672 12.4985 12.329 12.0128C12.4311 11.7066 12.7177 11.5 13.0406 11.5Z" fill="black" fill-opacity="0.1" style="mix-blend-mode:plus-darker"/>
</svg>
