<svg width="16" height="16" viewBox="0 0 16 16" fill="none" xmlns="http://www.w3.org/2000/svg">
<path opacity="0.8" fill-rule="evenodd" clip-rule="evenodd" d="M1 4.2V9C1 10.4001 1 11.1002 1.27248 11.635C1.51217 12.1054 1.89462 12.4878 2.36502 12.7275C2.76893 12.9333 3.26711 12.9837 4.08999 12.996C4.60011 12.9505 5 12.522 5 12C4.44772 12 4 11.5523 4 11V9.5C4 8.67157 4.67157 8 5.5 8C5.5 5.79086 7.29086 4 9.5 4H9.78571C10.7325 4 11.5 4.76751 11.5 5.71429V6.38197C11.5 7.06717 11.1129 7.69357 10.5 8H14V7C14 5.59987 14 4.8998 13.7275 4.36502C13.4878 3.89462 13.1054 3.51217 12.635 3.27248C12.1002 3 11.4001 3 10 3H8.33137C8.20908 3 8.14793 3 8.09038 2.98618C8.03937 2.97394 7.99059 2.95373 7.94586 2.92632C7.8954 2.8954 7.85216 2.85216 7.76569 2.76569L7.76569 2.76569L7.76569 2.76569L7.17157 2.17157C6.73919 1.73919 6.523 1.523 6.27071 1.3684C6.04703 1.23133 5.80317 1.13032 5.54808 1.06908C5.26036 1 4.95462 1 4.34315 1H4.2C3.0799 1 2.51984 1 2.09202 1.21799C1.71569 1.40973 1.40973 1.71569 1.21799 2.09202C1 2.51984 1 3.0799 1 4.2Z" fill="#A67CF8"/>
<path d="M5.5 14.5V14.5C6.35536 14.5 7.07532 13.8598 7.17526 13.0103L7.76632 7.9863C7.79063 7.77967 7.80278 7.67635 7.82146 7.58771C8.0025 6.72831 8.72303 6.08758 9.5977 6.00819C9.68791 6 9.79194 6 10 6V6M5.5 10H9.5V10C10.6046 10 11.5 10.8954 11.5 12V12.25C11.5 12.4822 11.5 12.5983 11.4904 12.696C11.3968 13.6456 10.6456 14.3968 9.69603 14.4904C9.59825 14.5 9.48217 14.5 9.25 14.5H9" stroke="#A67CF8" stroke-width="1.5"/>
<path d="M5.5 14.5V14.5C6.35536 14.5 7.07532 13.8598 7.17526 13.0103L7.76632 7.9863C7.79063 7.77967 7.80278 7.67635 7.82146 7.58771C8.0025 6.72831 8.72303 6.08758 9.5977 6.00819C9.68791 6 9.79194 6 10 6V6M5.5 10H9.5V10C10.6046 10 11.5 10.8954 11.5 12V12.25C11.5 12.4822 11.5 12.5983 11.4904 12.696C11.3968 13.6456 10.6456 14.3968 9.69603 14.4904C9.59825 14.5 9.48217 14.5 9.25 14.5H9" stroke="black" stroke-opacity="0.1" stroke-width="1.5" style="mix-blend-mode:plus-darker"/>
<path d="M14 10H13.75C13.5178 10 13.4017 10 13.304 10.0096C12.3544 10.1032 11.6032 10.8544 11.5096 11.804C11.5 11.9017 11.5 12.0178 11.5 12.25V12.25C11.5 12.4822 11.5 12.5983 11.5096 12.696C11.6032 13.6456 12.3544 14.3968 13.304 14.4904C13.4017 14.5 13.5178 14.5 13.75 14.5H14" stroke="#A67CF8" stroke-width="1.5"/>
<path d="M14 10H13.75C13.5178 10 13.4017 10 13.304 10.0096C12.3544 10.1032 11.6032 10.8544 11.5096 11.804C11.5 11.9017 11.5 12.0178 11.5 12.25V12.25C11.5 12.4822 11.5 12.5983 11.5096 12.696C11.6032 13.6456 12.3544 14.3968 13.304 14.4904C13.4017 14.5 13.5178 14.5 13.75 14.5H14" stroke="black" stroke-opacity="0.1" stroke-width="1.5" style="mix-blend-mode:plus-darker"/>
</svg>
