<svg width="16" height="16" viewBox="0 0 16 16" fill="none" xmlns="http://www.w3.org/2000/svg">
<path opacity="0.9" d="M4.34277 1C4.95414 1 5.26018 1.0003 5.54785 1.06934C5.80285 1.13055 6.0469 1.23117 6.27051 1.36816C6.5228 1.52277 6.7395 1.7395 7.17188 2.17188L7.76563 2.76563L7.86914 2.86719C7.89702 2.89262 7.92109 2.91132 7.94629 2.92676C7.99089 2.95401 8.04 2.97413 8.09082 2.98633C8.14819 3.00002 8.20928 3 8.33105 3H10C11.4 3 12.1 3.00007 12.6348 3.27246C13.1052 3.51214 13.4879 3.89483 13.7275 4.36523C13.9676 4.83653 13.9937 5.4362 13.9971 6.53027C12.8977 5.28581 11.2911 4.5 9.5 4.5C6.18629 4.5 3.5 7.18629 3.5 10.5C3.5 11.3905 3.69495 12.2352 4.04297 12.9951C3.24815 12.9816 2.76135 12.9293 2.36523 12.7275C1.89483 12.4879 1.51214 12.1052 1.27246 11.6348C1.00007 11.1 1 10.4 1 9V4.2002C1 3.08009 0.999786 2.51962 1.21777 2.0918C1.40951 1.71554 1.71554 1.40951 2.0918 1.21777C2.51962 0.999786 3.08009 1 4.2002 1H4.34277Z" fill="#5BAFD4"/>
<path d="M9.5 6C11.9853 6 14 8.01472 14 10.5C14 12.9853 11.9853 15 9.5 15C7.01472 15 5 12.9853 5 10.5C5 8.01472 7.01472 6 9.5 6ZM8.76172 11C8.82123 12.4188 9.12838 13.5 9.5 13.5C9.87162 13.5 10.1788 12.4188 10.2383 11H8.76172ZM6.28809 11C6.44069 11.9883 7.03932 12.8286 7.87109 13.3115C7.82715 13.1814 7.78848 13.0514 7.75684 12.9248C7.6211 12.3819 7.53773 11.7141 7.51074 11H6.28809ZM11.4893 11C11.4623 11.7141 11.3789 12.3819 11.2432 12.9248C11.2115 13.0515 11.1719 13.1813 11.1279 13.3115C11.9601 12.8286 12.5593 11.9886 12.7119 11H11.4893ZM7.87109 7.6875C7.0391 8.1704 6.44072 9.0115 6.28809 10H7.50977C7.53675 9.28587 7.6211 8.61813 7.75684 8.0752C7.78855 7.94836 7.82702 7.81788 7.87109 7.6875ZM9.5 7.5C9.12838 7.5 8.82123 8.58117 8.76172 10H10.2383C10.1788 8.58117 9.87162 7.5 9.5 7.5ZM11.1279 7.6875C11.172 7.81798 11.2114 7.94827 11.2432 8.0752C11.3789 8.61813 11.4633 9.28587 11.4902 10H12.7119C12.5592 9.01121 11.9603 8.17033 11.1279 7.6875Z" fill="#5BAFD4"/>
<path d="M9.5 6C11.9853 6 14 8.01472 14 10.5C14 12.9853 11.9853 15 9.5 15C7.01472 15 5 12.9853 5 10.5C5 8.01472 7.01472 6 9.5 6ZM8.76172 11C8.82123 12.4188 9.12838 13.5 9.5 13.5C9.87162 13.5 10.1788 12.4188 10.2383 11H8.76172ZM6.28809 11C6.44069 11.9883 7.03932 12.8286 7.87109 13.3115C7.82715 13.1814 7.78848 13.0514 7.75684 12.9248C7.6211 12.3819 7.53773 11.7141 7.51074 11H6.28809ZM11.4893 11C11.4623 11.7141 11.3789 12.3819 11.2432 12.9248C11.2115 13.0515 11.1719 13.1813 11.1279 13.3115C11.9601 12.8286 12.5593 11.9886 12.7119 11H11.4893ZM7.87109 7.6875C7.0391 8.1704 6.44072 9.0115 6.28809 10H7.50977C7.53675 9.28587 7.6211 8.61813 7.75684 8.0752C7.78855 7.94836 7.82702 7.81788 7.87109 7.6875ZM9.5 7.5C9.12838 7.5 8.82123 8.58117 8.76172 10H10.2383C10.1788 8.58117 9.87162 7.5 9.5 7.5ZM11.1279 7.6875C11.172 7.81798 11.2114 7.94827 11.2432 8.0752C11.3789 8.61813 11.4633 9.28587 11.4902 10H12.7119C12.5592 9.01121 11.9603 8.17033 11.1279 7.6875Z" fill="black" fill-opacity="0.15" style="mix-blend-mode:plus-darker"/>
</svg>
