<svg width="16" height="16" viewBox="0 0 16 16" fill="none" xmlns="http://www.w3.org/2000/svg">
<path opacity="0.9" d="M4.34277 1C4.95414 1 5.26018 1.0003 5.54785 1.06934C5.80285 1.13055 6.0469 1.23117 6.27051 1.36816C6.5228 1.52277 6.7395 1.7395 7.17188 2.17188L7.76563 2.76563L7.86914 2.86719C7.89702 2.89262 7.92109 2.91132 7.94629 2.92676C7.99089 2.95401 8.04 2.97413 8.09082 2.98633C8.14819 3.00002 8.20928 3 8.33105 3H10C11.4 3 12.1 3.00007 12.6348 3.27246C13.1052 3.51214 13.4879 3.89483 13.7275 4.36523C13.9999 4.89999 14 5.60002 14 7V7.93066C13.8811 7.81405 13.7569 7.70288 13.627 7.59863L13.3936 7.42285C13.2245 7.30272 13.1103 7.18337 13.0479 7.09082C12.9903 7.00541 13 6.9795 13 7C13 5.61929 11.8807 4.5 10.5 4.5C9.11929 4.5 8 5.61929 8 7C8 6.9795 8.00967 7.00541 7.95215 7.09082C7.90532 7.16023 7.82896 7.24458 7.72266 7.33301L7.60645 7.42285C6.33494 8.32616 5.5 9.81526 5.5 11.5C5.5 12.0226 5.57981 12.5265 5.72852 13H5C3.60002 13 2.89999 12.9999 2.36523 12.7275C1.89483 12.4879 1.51214 12.1052 1.27246 11.6348C1.00007 11.1 1 10.4 1 9V4.2002C1 3.08009 0.999786 2.51962 1.21777 2.0918C1.40951 1.71554 1.71554 1.40951 2.0918 1.21777C2.51962 0.999786 3.08009 1 4.2002 1H4.34277Z" fill="#A67CF8"/>
<path d="M11.5 7C11.5 6.44772 11.0523 6 10.5 6C9.94772 6 9.5 6.44772 9.5 7H11.5ZM7.64645 10.6464L6.93934 11.3536L7.64645 10.6464ZM10.5003 7.07487L11.5002 7.05681L10.5003 7.07487ZM11.2809 8.62469L11.9056 7.84383L11.2809 8.62469ZM11.2226 8.57767L11.8613 7.80821L11.2226 8.57767ZM11.2809 8.62469L10.6562 9.40556L11.3614 9.96974L11.9861 9.18887L12.6108 8.408L11.9056 7.84383L11.2809 8.62469ZM13 11.2984H12V11.5H13H14V11.2984H13ZM7.64645 10.6464L8.35355 9.93934L8.20711 9.79289L7.5 10.5L6.79289 11.2071L6.93934 11.3536L7.64645 10.6464ZM10.5 14V13C9.67157 13 9 12.3284 9 11.5H8H7C7 13.433 8.567 15 10.5 15V14ZM13 11.5H12C12 12.3284 11.3284 13 10.5 13V14V15C12.433 15 14 13.433 14 11.5H13ZM11.9861 9.18887L11.3614 9.96974C11.765 10.2927 12 10.7815 12 11.2984H13H14C14 10.174 13.4889 9.11046 12.6108 8.408L11.9861 9.18887ZM8 11.5H9C9 10.9146 8.76747 10.3533 8.35355 9.93934L7.64645 10.6464L6.93934 11.3536C6.97818 11.3924 7 11.4451 7 11.5H8ZM10.5 7H9.5C9.5 7.03421 9.49996 7.06373 9.50049 7.09293L10.5003 7.07487L11.5002 7.05681C11.5 7.0499 11.5 7.04154 11.5 7H10.5ZM11.2809 8.62469L11.9056 7.84383C11.8731 7.81788 11.8666 7.81263 11.8613 7.80821L11.2226 8.57767L10.5839 9.34713C10.6064 9.36578 10.6295 9.38419 10.6562 9.40556L11.2809 8.62469ZM10.5003 7.07487L9.50049 7.09293C9.51626 7.96622 9.91184 8.78927 10.5839 9.34713L11.2226 8.57767L11.8613 7.80821C11.6373 7.62226 11.5054 7.34791 11.5002 7.05681L10.5003 7.07487Z" fill="#A67CF8"/>
<path d="M11.5 7C11.5 6.44772 11.0523 6 10.5 6C9.94772 6 9.5 6.44772 9.5 7H11.5ZM7.64645 10.6464L6.93934 11.3536L7.64645 10.6464ZM10.5003 7.07487L11.5002 7.05681L10.5003 7.07487ZM11.2809 8.62469L11.9056 7.84383L11.2809 8.62469ZM11.2226 8.57767L11.8613 7.80821L11.2226 8.57767ZM11.2809 8.62469L10.6562 9.40556L11.3614 9.96974L11.9861 9.18887L12.6108 8.408L11.9056 7.84383L11.2809 8.62469ZM13 11.2984H12V11.5H13H14V11.2984H13ZM7.64645 10.6464L8.35355 9.93934L8.20711 9.79289L7.5 10.5L6.79289 11.2071L6.93934 11.3536L7.64645 10.6464ZM10.5 14V13C9.67157 13 9 12.3284 9 11.5H8H7C7 13.433 8.567 15 10.5 15V14ZM13 11.5H12C12 12.3284 11.3284 13 10.5 13V14V15C12.433 15 14 13.433 14 11.5H13ZM11.9861 9.18887L11.3614 9.96974C11.765 10.2927 12 10.7815 12 11.2984H13H14C14 10.174 13.4889 9.11046 12.6108 8.408L11.9861 9.18887ZM8 11.5H9C9 10.9146 8.76747 10.3533 8.35355 9.93934L7.64645 10.6464L6.93934 11.3536C6.97818 11.3924 7 11.4451 7 11.5H8ZM10.5 7H9.5C9.5 7.03421 9.49996 7.06373 9.50049 7.09293L10.5003 7.07487L11.5002 7.05681C11.5 7.0499 11.5 7.04154 11.5 7H10.5ZM11.2809 8.62469L11.9056 7.84383C11.8731 7.81788 11.8666 7.81263 11.8613 7.80821L11.2226 8.57767L10.5839 9.34713C10.6064 9.36578 10.6295 9.38419 10.6562 9.40556L11.2809 8.62469ZM10.5003 7.07487L9.50049 7.09293C9.51626 7.96622 9.91184 8.78927 10.5839 9.34713L11.2226 8.57767L11.8613 7.80821C11.6373 7.62226 11.5054 7.34791 11.5002 7.05681L10.5003 7.07487Z" fill="black" fill-opacity="0.15" style="mix-blend-mode:plus-darker"/>
</svg>
