<svg width="16" height="16" viewBox="0 0 16 16" fill="none" xmlns="http://www.w3.org/2000/svg">
<path opacity="0.8" fill-rule="evenodd" clip-rule="evenodd" d="M1 9V4.2C1 3.0799 1 2.51984 1.21799 2.09202C1.40973 1.71569 1.71569 1.40973 2.09202 1.21799C2.51984 1 3.0799 1 4.2 1H4.34315C4.95462 1 5.26036 1 5.54808 1.06908C5.80317 1.13032 6.04703 1.23133 6.27071 1.3684C6.523 1.523 6.73919 1.73919 7.17157 2.17157L7.76569 2.76569L7.76569 2.76569L7.76569 2.76569C7.85216 2.85216 7.8954 2.8954 7.94586 2.92632C7.99059 2.95373 8.03937 2.97394 8.09038 2.98618C8.14793 3 8.20908 3 8.33137 3H10C11.4001 3 12.1002 3 12.635 3.27248C13.1054 3.51217 13.4878 3.89462 13.7275 4.36502C14 4.8998 14 5.59987 14 7V7.92943C13.8116 7.74464 13.6086 7.57476 13.3932 7.42172C13.2242 7.30171 13.1104 7.18306 13.0481 7.09067C13.012 7.03716 13.0023 7.00703 13 6.99701C12.9984 5.61767 11.8797 4.5 10.5 4.5C9.12028 4.5 8.00161 5.61767 8 6.99701C7.99775 7.00703 7.98798 7.03717 7.95188 7.09067C7.88955 7.18306 7.77578 7.30171 7.60683 7.42172C6.33487 8.3252 5.5 9.81507 5.5 11.5C5.5 12.0226 5.58018 12.5265 5.7289 13H5C3.59987 13 2.8998 13 2.36502 12.7275C1.89462 12.4878 1.51217 12.1054 1.27248 11.635C1 11.1002 1 10.4001 1 9ZM8.0006 6.99347C8.0006 6.99356 8.00059 6.99367 8.00058 6.9938L8.0001 6.99657C8.00024 6.99437 8.00048 6.99323 8.00057 6.99322C8.00059 6.99322 8.00061 6.9933 8.0006 6.99347ZM12.9994 6.99322C12.9995 6.99323 12.9998 6.99436 12.9999 6.99656C12.9994 6.99431 12.9993 6.99321 12.9994 6.99322Z" fill="#A67CF8"/>
<path d="M11.5 7C11.5 6.44772 11.0523 6 10.5 6C9.94772 6 9.5 6.44772 9.5 7H11.5ZM7.64645 10.6464L6.93934 11.3536L7.64645 10.6464ZM10.5003 7.07487L11.5002 7.05681L10.5003 7.07487ZM11.2809 8.62469L11.9056 7.84383L11.2809 8.62469ZM11.2226 8.57767L11.8613 7.80821L11.2226 8.57767ZM10.6562 9.40556L11.3614 9.96974L12.6108 8.408L11.9056 7.84383L10.6562 9.40556ZM12 11.2984V11.5H14V11.2984H12ZM8.35355 9.93934L8.20711 9.79289L6.79289 11.2071L6.93934 11.3536L8.35355 9.93934ZM10.5 13C9.67157 13 9 12.3284 9 11.5H7C7 13.433 8.567 15 10.5 15V13ZM12 11.5C12 12.3284 11.3284 13 10.5 13V15C12.433 15 14 13.433 14 11.5H12ZM11.3614 9.96974C11.765 10.2926 12 10.7815 12 11.2984H14C14 10.174 13.4889 9.11046 12.6108 8.408L11.3614 9.96974ZM9 11.5C9 10.9146 8.76747 10.3533 8.35355 9.93934L6.93934 11.3536C6.97818 11.3924 7 11.4451 7 11.5H9ZM9.5 7C9.5 7.03421 9.49996 7.06373 9.50049 7.09293L11.5002 7.05681C11.5 7.0499 11.5 7.04154 11.5 7H9.5ZM11.9056 7.84383C11.8731 7.81788 11.8666 7.81263 11.8613 7.80821L10.5839 9.34713C10.6064 9.36578 10.6295 9.38419 10.6562 9.40556L11.9056 7.84383ZM9.50049 7.09293C9.51626 7.96622 9.91184 8.78927 10.5839 9.34713L11.8613 7.80821C11.6373 7.62226 11.5054 7.34791 11.5002 7.05681L9.50049 7.09293Z" fill="#A67CF8"/>
<path d="M11.5 7C11.5 6.44772 11.0523 6 10.5 6C9.94772 6 9.5 6.44772 9.5 7H11.5ZM7.64645 10.6464L6.93934 11.3536L7.64645 10.6464ZM10.5003 7.07487L11.5002 7.05681L10.5003 7.07487ZM11.2809 8.62469L11.9056 7.84383L11.2809 8.62469ZM11.2226 8.57767L11.8613 7.80821L11.2226 8.57767ZM10.6562 9.40556L11.3614 9.96974L12.6108 8.408L11.9056 7.84383L10.6562 9.40556ZM12 11.2984V11.5H14V11.2984H12ZM8.35355 9.93934L8.20711 9.79289L6.79289 11.2071L6.93934 11.3536L8.35355 9.93934ZM10.5 13C9.67157 13 9 12.3284 9 11.5H7C7 13.433 8.567 15 10.5 15V13ZM12 11.5C12 12.3284 11.3284 13 10.5 13V15C12.433 15 14 13.433 14 11.5H12ZM11.3614 9.96974C11.765 10.2926 12 10.7815 12 11.2984H14C14 10.174 13.4889 9.11046 12.6108 8.408L11.3614 9.96974ZM9 11.5C9 10.9146 8.76747 10.3533 8.35355 9.93934L6.93934 11.3536C6.97818 11.3924 7 11.4451 7 11.5H9ZM9.5 7C9.5 7.03421 9.49996 7.06373 9.50049 7.09293L11.5002 7.05681C11.5 7.0499 11.5 7.04154 11.5 7H9.5ZM11.9056 7.84383C11.8731 7.81788 11.8666 7.81263 11.8613 7.80821L10.5839 9.34713C10.6064 9.36578 10.6295 9.38419 10.6562 9.40556L11.9056 7.84383ZM9.50049 7.09293C9.51626 7.96622 9.91184 8.78927 10.5839 9.34713L11.8613 7.80821C11.6373 7.62226 11.5054 7.34791 11.5002 7.05681L9.50049 7.09293Z" fill="black" fill-opacity="0.1" style="mix-blend-mode:plus-darker"/>
</svg>
