<svg width="16" height="16" viewBox="0 0 16 16" fill="none" xmlns="http://www.w3.org/2000/svg">
<path opacity="0.9" d="M4.34277 1C4.95414 1 5.26018 1.0003 5.54785 1.06934C5.80285 1.13055 6.0469 1.23117 6.27051 1.36816C6.5228 1.52277 6.7395 1.7395 7.17188 2.17188L7.76563 2.76563L7.86914 2.86719C7.89702 2.89262 7.92109 2.91132 7.94629 2.92676C7.99089 2.95401 8.04 2.97413 8.09082 2.98633C8.14819 3.00002 8.20928 3 8.33105 3H10C11.4 3 12.1 3.00007 12.6348 3.27246C13.1052 3.51214 13.4879 3.89483 13.7275 4.36523C13.9168 4.73675 13.9726 5.18807 13.9902 5.89844L13.8623 5.82715C13.4552 5.6197 13.0499 5.55341 12.707 5.52539C12.3817 5.49883 11.9948 5.5 11.5996 5.5H8.40039C8.00523 5.5 7.61828 5.49883 7.29297 5.52539C6.95008 5.55341 6.54483 5.6197 6.1377 5.82715C5.57347 6.11472 5.11472 6.57347 4.82715 7.1377C4.6197 7.54483 4.55341 7.95008 4.52539 8.29297C4.49883 8.61828 4.5 9.00523 4.5 9.40039V12.5996C4.5 12.7337 4.50109 12.8669 4.50195 12.9971C3.42582 12.9933 2.83245 12.9655 2.36523 12.7275C1.89483 12.4879 1.51214 12.1052 1.27246 11.6348C1.00007 11.1 1 10.4 1 9V4.2002C1 3.08009 0.999786 2.51962 1.21777 2.0918C1.40951 1.71554 1.71554 1.40951 2.0918 1.21777C2.51962 0.999786 3.08009 1 4.2002 1H4.34277ZM13.96 8.23926L13.9795 8.41504C13.9729 8.33477 13.963 8.26146 13.9512 8.19336C13.9538 8.20846 13.9577 8.22359 13.96 8.23926ZM13.9023 7.98535C13.9206 8.04299 13.9349 8.10442 13.9473 8.1709C13.9349 8.10444 13.9206 8.04296 13.9023 7.98535Z" fill="#5BAFD4"/>
<path d="M11.5996 7C12.4393 7 12.8598 6.99981 13.1807 7.16309C13.4629 7.3069 13.6931 7.53709 13.8369 7.81934C14.0002 8.14015 14 8.56068 14 9.40039V12.5996C14 13.4393 14.0002 13.8598 13.8369 14.1807C13.6931 14.4629 13.4629 14.6931 13.1807 14.8369C12.8598 15.0002 12.4393 15 11.5996 15H8.40039C7.56068 15 7.14015 15.0002 6.81934 14.8369C6.53709 14.6931 6.3069 14.4629 6.16309 14.1807C5.99981 13.8598 6 13.4393 6 12.5996V9.40039C6 8.56068 5.99981 8.14015 6.16309 7.81934C6.3069 7.53709 6.53709 7.3069 6.81934 7.16309C7.14015 6.99981 7.56068 7 8.40039 7H11.5996ZM7.5 11.5V12.7002C7.5 12.9799 7.50034 13.1197 7.55469 13.2266C7.60262 13.3206 7.67936 13.3974 7.77344 13.4453C7.88033 13.4997 8.02014 13.5 8.2998 13.5H11.7002C11.9799 13.5 12.1197 13.4997 12.2266 13.4453C12.3206 13.3974 12.3974 13.3206 12.4453 13.2266C12.4997 13.1197 12.5 12.9799 12.5 12.7002V12.5L11.5 11.5L10.5 12.5L8.5 10.5L7.5 11.5ZM11.5 8.5C10.9477 8.5 10.5 8.94772 10.5 9.5C10.5 10.0523 10.9477 10.5 11.5 10.5C12.0523 10.5 12.5 10.0523 12.5 9.5C12.5 8.94772 12.0523 8.5 11.5 8.5Z" fill="#5BAFD4"/>
<path d="M11.5996 7C12.4393 7 12.8598 6.99981 13.1807 7.16309C13.4629 7.3069 13.6931 7.53709 13.8369 7.81934C14.0002 8.14015 14 8.56068 14 9.40039V12.5996C14 13.4393 14.0002 13.8598 13.8369 14.1807C13.6931 14.4629 13.4629 14.6931 13.1807 14.8369C12.8598 15.0002 12.4393 15 11.5996 15H8.40039C7.56068 15 7.14015 15.0002 6.81934 14.8369C6.53709 14.6931 6.3069 14.4629 6.16309 14.1807C5.99981 13.8598 6 13.4393 6 12.5996V9.40039C6 8.56068 5.99981 8.14015 6.16309 7.81934C6.3069 7.53709 6.53709 7.3069 6.81934 7.16309C7.14015 6.99981 7.56068 7 8.40039 7H11.5996ZM7.5 11.5V12.7002C7.5 12.9799 7.50034 13.1197 7.55469 13.2266C7.60262 13.3206 7.67936 13.3974 7.77344 13.4453C7.88033 13.4997 8.02014 13.5 8.2998 13.5H11.7002C11.9799 13.5 12.1197 13.4997 12.2266 13.4453C12.3206 13.3974 12.3974 13.3206 12.4453 13.2266C12.4997 13.1197 12.5 12.9799 12.5 12.7002V12.5L11.5 11.5L10.5 12.5L8.5 10.5L7.5 11.5ZM11.5 8.5C10.9477 8.5 10.5 8.94772 10.5 9.5C10.5 10.0523 10.9477 10.5 11.5 10.5C12.0523 10.5 12.5 10.0523 12.5 9.5C12.5 8.94772 12.0523 8.5 11.5 8.5Z" fill="black" fill-opacity="0.15" style="mix-blend-mode:plus-darker"/>
</svg>
