<svg width="16" height="16" viewBox="0 0 16 16" fill="none" xmlns="http://www.w3.org/2000/svg">
<path opacity="0.9" d="M4.34277 1C4.95414 1 5.26018 1.0003 5.54785 1.06934C5.80285 1.13055 6.0469 1.23117 6.27051 1.36816C6.5228 1.52277 6.7395 1.7395 7.17188 2.17188L7.76563 2.76563L7.86914 2.86719C7.89702 2.89262 7.92109 2.91132 7.94629 2.92676C7.99089 2.95401 8.04 2.97413 8.09082 2.98633C8.14819 3.00002 8.20928 3 8.33105 3H10C11.4 3 12.1 3.00007 12.6348 3.27246C13.1052 3.51214 13.4879 3.89483 13.7275 4.36523C13.9441 4.79036 13.987 5.31996 13.9961 6.22266C13.2633 5.44812 12.3081 4.88626 11.2324 4.63965C10.7291 4.52433 10.202 4.67591 9.83691 5.04102C9.47177 5.40632 9.31994 5.9341 9.43555 6.4375L9.46289 6.5752C9.47897 6.66817 9.49058 6.7624 9.49609 6.85742L9.5 7C9.49989 8.38055 8.38055 9.49988 7 9.5C6.80867 9.49998 6.62065 9.47758 6.4375 9.43555C5.9341 9.31994 5.40632 9.47177 5.04102 9.83691C4.6759 10.202 4.52433 10.7291 4.63965 11.2324L4.69629 11.46C4.84832 12.0131 5.08492 12.5312 5.39063 13H5C3.60002 13 2.89999 12.9999 2.36523 12.7275C1.89483 12.4879 1.51214 12.1052 1.27246 11.6348C1.00007 11.1 1 10.4 1 9V4.2002C1 3.08009 0.999786 2.51962 1.21777 2.0918C1.40951 1.71554 1.71554 1.40951 2.0918 1.21777C2.51962 0.999786 3.08009 1 4.2002 1H4.34277Z" fill="#A67CF8"/>
<path d="M10.8972 6.10136C12.6742 6.50865 13.9997 8.09926 13.9998 9.99979C13.9998 12.2089 12.2089 13.9998 9.99976 13.9998C8.09922 13.9997 6.50861 12.6743 6.10132 10.8973C6.39021 10.9636 6.69074 10.9998 6.99976 10.9998C9.20889 10.9998 10.9998 9.20893 10.9998 6.99979C10.9997 6.69077 10.9636 6.39025 10.8972 6.10136Z" fill="#A67CF8"/>
<path d="M10.8972 6.10136C12.6742 6.50865 13.9997 8.09926 13.9998 9.99979C13.9998 12.2089 12.2089 13.9998 9.99976 13.9998C8.09922 13.9997 6.50861 12.6743 6.10132 10.8973C6.39021 10.9636 6.69074 10.9998 6.99976 10.9998C9.20889 10.9998 10.9998 9.20893 10.9998 6.99979C10.9997 6.69077 10.9636 6.39025 10.8972 6.10136Z" fill="black" fill-opacity="0.15" style="mix-blend-mode:plus-darker"/>
</svg>
