<svg width="16" height="16" viewBox="0 0 16 16" fill="none" xmlns="http://www.w3.org/2000/svg">
<path opacity="0.9" d="M4.34277 1C4.95414 1 5.26018 1.0003 5.54785 1.06934C5.80285 1.13055 6.0469 1.23117 6.27051 1.36816C6.5228 1.52277 6.7395 1.7395 7.17188 2.17188L7.76563 2.76563L7.86914 2.86719C7.89702 2.89262 7.92109 2.91132 7.94629 2.92676C7.99089 2.95401 8.04 2.97413 8.09082 2.98633C8.14819 3.00002 8.20928 3 8.33105 3H10C11.4 3 12.1 3.00007 12.6348 3.27246C13.1052 3.51214 13.4879 3.89483 13.7275 4.36523C13.9673 4.83597 13.9936 5.43478 13.9971 6.52637L13.9199 6.4834L11.5195 5.13379C11.3441 5.0351 11.0332 4.84535 10.668 4.73926L10.5088 4.69922L10.2559 4.66016C10.0858 4.64266 9.91424 4.64266 9.74414 4.66016L9.49121 4.69922C9.16646 4.76673 8.87309 4.91441 8.66211 5.03125L8.48047 5.13379L6.08008 6.4834C5.89847 6.58555 5.56327 6.75953 5.27539 7.02734L5.15527 7.14746C4.97596 7.34349 4.8294 7.56643 4.7207 7.80762L4.625 8.05469C4.51799 8.3805 4.5007 8.71993 4.49902 8.96973L4.5 9.18555V11.8145C4.49999 12.0526 4.48237 12.5111 4.625 12.9453C4.63089 12.9632 4.63922 12.9803 4.64551 12.998C3.47781 12.9961 2.85282 12.9759 2.36523 12.7275C1.89483 12.4879 1.51214 12.1052 1.27246 11.6348C1.00007 11.1 1 10.4 1 9V4.2002C1 3.08009 0.999786 2.51962 1.21777 2.0918C1.40951 1.71554 1.71554 1.40951 2.0918 1.21777C2.51962 0.999786 3.08009 1 4.2002 1H4.34277Z" fill="#FF845D"/>
<path d="M9.79688 6.16786C9.93082 6.14008 10.0692 6.14008 10.2031 6.16786C10.3548 6.19938 10.4982 6.2804 10.7842 6.44129L13.1846 7.7909C13.4815 7.95792 13.6302 8.0419 13.7383 8.16004C13.8337 8.26445 13.906 8.38798 13.9502 8.52235C14.0002 8.6744 14 8.84497 14 9.18543V11.8143C14 12.155 14.0002 12.3253 13.9502 12.4774C13.906 12.6118 13.8337 12.7353 13.7383 12.8397C13.6302 12.9579 13.4815 13.0419 13.1846 13.2089L10.7842 14.5585C10.4981 14.7194 10.3548 14.8004 10.2031 14.8319C10.0691 14.8597 9.93085 14.8597 9.79688 14.8319C9.64519 14.8004 9.50191 14.7194 9.21582 14.5585L6.81543 13.2089C6.51855 13.0419 6.36977 12.9579 6.26172 12.8397C6.1663 12.7353 6.09397 12.6118 6.0498 12.4774C5.99982 12.3253 6 12.155 6 11.8143V9.18543C6 8.84497 5.99983 8.6744 6.0498 8.52235C6.094 8.38798 6.16629 8.26445 6.26172 8.16004C6.36978 8.0419 6.5185 7.95792 6.81543 7.7909L9.21582 6.44129C9.50185 6.2804 9.64521 6.19938 9.79688 6.16786ZM8.16113 8.89637C7.88035 8.82111 7.57651 8.95049 7.44141 9.22059C7.30638 9.49063 7.38481 9.81157 7.61328 9.9911L7.7207 10.0585L9.375 10.8856V12.9999C9.375 13.3451 9.65482 13.6249 10 13.6249C10.3452 13.6249 10.625 13.3451 10.625 12.9999V10.8856L12.2793 10.0585L12.3867 9.9911C12.6152 9.81157 12.6936 9.49063 12.5586 9.22059C12.4235 8.95049 12.1196 8.82111 11.8389 8.89637L11.7207 8.94129L10 9.80164L8.2793 8.94129L8.16113 8.89637Z" fill="#FF845D"/>
<path d="M9.79688 6.16786C9.93082 6.14008 10.0692 6.14008 10.2031 6.16786C10.3548 6.19938 10.4982 6.2804 10.7842 6.44129L13.1846 7.7909C13.4815 7.95792 13.6302 8.0419 13.7383 8.16004C13.8337 8.26445 13.906 8.38798 13.9502 8.52235C14.0002 8.6744 14 8.84497 14 9.18543V11.8143C14 12.155 14.0002 12.3253 13.9502 12.4774C13.906 12.6118 13.8337 12.7353 13.7383 12.8397C13.6302 12.9579 13.4815 13.0419 13.1846 13.2089L10.7842 14.5585C10.4981 14.7194 10.3548 14.8004 10.2031 14.8319C10.0691 14.8597 9.93085 14.8597 9.79688 14.8319C9.64519 14.8004 9.50191 14.7194 9.21582 14.5585L6.81543 13.2089C6.51855 13.0419 6.36977 12.9579 6.26172 12.8397C6.1663 12.7353 6.09397 12.6118 6.0498 12.4774C5.99982 12.3253 6 12.155 6 11.8143V9.18543C6 8.84497 5.99983 8.6744 6.0498 8.52235C6.094 8.38798 6.16629 8.26445 6.26172 8.16004C6.36978 8.0419 6.5185 7.95792 6.81543 7.7909L9.21582 6.44129C9.50185 6.2804 9.64521 6.19938 9.79688 6.16786ZM8.16113 8.89637C7.88035 8.82111 7.57651 8.95049 7.44141 9.22059C7.30638 9.49063 7.38481 9.81157 7.61328 9.9911L7.7207 10.0585L9.375 10.8856V12.9999C9.375 13.3451 9.65482 13.6249 10 13.6249C10.3452 13.6249 10.625 13.3451 10.625 12.9999V10.8856L12.2793 10.0585L12.3867 9.9911C12.6152 9.81157 12.6936 9.49063 12.5586 9.22059C12.4235 8.95049 12.1196 8.82111 11.8389 8.89637L11.7207 8.94129L10 9.80164L8.2793 8.94129L8.16113 8.89637Z" fill="black" fill-opacity="0.15" style="mix-blend-mode:plus-darker"/>
</svg>
