<svg width="16" height="16" viewBox="0 0 16 16" fill="none" xmlns="http://www.w3.org/2000/svg">
<path opacity="0.9" d="M4.34277 1C4.95414 1 5.26018 1.0003 5.54785 1.06934C5.80285 1.13055 6.0469 1.23117 6.27051 1.36816C6.5228 1.52277 6.7395 1.7395 7.17188 2.17188L7.76563 2.76563L7.86914 2.86719C7.89702 2.89262 7.92109 2.91132 7.94629 2.92676C7.99089 2.95401 8.04 2.97413 8.09082 2.98633C8.14819 3.00002 8.20928 3 8.33105 3H10C11.4 3 12.1 3.00007 12.6348 3.27246C13.1052 3.51214 13.4879 3.89483 13.7275 4.36523C13.8902 4.68462 13.9541 5.06303 13.9805 5.61426C12.9987 4.91364 11.798 4.5 10.5 4.5C7.18629 4.5 4.5 7.18629 4.5 10.5C4.5 11.3925 4.6964 12.2388 5.0459 13H5C3.60002 13 2.89999 12.9999 2.36523 12.7275C1.89483 12.4879 1.51214 12.1052 1.27246 11.6348C1.00007 11.1 1 10.4 1 9V4.2002C1 3.08009 0.999786 2.51962 1.21777 2.0918C1.40951 1.71554 1.71554 1.40951 2.0918 1.21777C2.51962 0.999786 3.08009 1 4.2002 1H4.34277Z" fill="#FFAB5D"/>
<circle cx="10.5" cy="10.5" r="1.5" fill="#FFAB5D"/>
<circle cx="10.5" cy="10.5" r="1.5" fill="black" fill-opacity="0.15" style="mix-blend-mode:plus-darker"/>
<path d="M12.4125 7.18745C12.5989 6.86461 12.4894 6.44646 12.1423 6.31041C11.6209 6.106 11.064 6 10.5 6C9.93599 6 9.37908 6.106 8.85765 6.31041C8.51057 6.44646 8.4011 6.86461 8.5875 7.18745V7.18745C8.7739 7.5103 9.18603 7.61296 9.54113 7.49949C9.84984 7.40084 10.1732 7.35 10.5 7.35C10.8268 7.35 11.1502 7.40084 11.4589 7.49949C11.814 7.61296 12.2261 7.5103 12.4125 7.18745V7.18745Z" fill="#FFAB5D"/>
<path d="M12.4125 7.18745C12.5989 6.86461 12.4894 6.44646 12.1423 6.31041C11.6209 6.106 11.064 6 10.5 6C9.93599 6 9.37908 6.106 8.85765 6.31041C8.51057 6.44646 8.4011 6.86461 8.5875 7.18745V7.18745C8.7739 7.5103 9.18603 7.61296 9.54113 7.49949C9.84984 7.40084 10.1732 7.35 10.5 7.35C10.8268 7.35 11.1502 7.40084 11.4589 7.49949C11.814 7.61296 12.2261 7.5103 12.4125 7.18745V7.18745Z" fill="black" fill-opacity="0.15" style="mix-blend-mode:plus-darker"/>
<path d="M7.18745 8.5875C6.86461 8.4011 6.44646 8.51057 6.31041 8.85765C6.106 9.37908 6 9.93599 6 10.5C6 11.064 6.106 11.6209 6.31041 12.1423C6.44646 12.4894 6.86461 12.5989 7.18745 12.4125V12.4125C7.5103 12.2261 7.61296 11.814 7.49949 11.4589C7.40084 11.1502 7.35 10.8268 7.35 10.5C7.35 10.1732 7.40084 9.84984 7.49949 9.54113C7.61297 9.18603 7.5103 8.7739 7.18745 8.5875V8.5875Z" fill="#FFAB5D"/>
<path d="M7.18745 8.5875C6.86461 8.4011 6.44646 8.51057 6.31041 8.85765C6.106 9.37908 6 9.93599 6 10.5C6 11.064 6.106 11.6209 6.31041 12.1423C6.44646 12.4894 6.86461 12.5989 7.18745 12.4125V12.4125C7.5103 12.2261 7.61296 11.814 7.49949 11.4589C7.40084 11.1502 7.35 10.8268 7.35 10.5C7.35 10.1732 7.40084 9.84984 7.49949 9.54113C7.61297 9.18603 7.5103 8.7739 7.18745 8.5875V8.5875Z" fill="black" fill-opacity="0.15" style="mix-blend-mode:plus-darker"/>
<path d="M8.5875 13.8125C8.4011 14.1354 8.51057 14.5535 8.85765 14.6896C9.37908 14.894 9.93599 15 10.5 15C11.064 15 11.6209 14.894 12.1423 14.6896C12.4894 14.5535 12.5989 14.1354 12.4125 13.8125V13.8125C12.2261 13.4897 11.814 13.387 11.4589 13.5005C11.1502 13.5992 10.8268 13.65 10.5 13.65C10.1732 13.65 9.84984 13.5992 9.54113 13.5005C9.18603 13.387 8.7739 13.4897 8.5875 13.8125V13.8125Z" fill="#FFAB5D"/>
<path d="M8.5875 13.8125C8.4011 14.1354 8.51057 14.5535 8.85765 14.6896C9.37908 14.894 9.93599 15 10.5 15C11.064 15 11.6209 14.894 12.1423 14.6896C12.4894 14.5535 12.5989 14.1354 12.4125 13.8125V13.8125C12.2261 13.4897 11.814 13.387 11.4589 13.5005C11.1502 13.5992 10.8268 13.65 10.5 13.65C10.1732 13.65 9.84984 13.5992 9.54113 13.5005C9.18603 13.387 8.7739 13.4897 8.5875 13.8125V13.8125Z" fill="black" fill-opacity="0.15" style="mix-blend-mode:plus-darker"/>
<path d="M13.8125 12.4125C14.1354 12.5989 14.5535 12.4894 14.6896 12.1423C14.894 11.6209 15 11.064 15 10.5C15 9.93599 14.894 9.37908 14.6896 8.85765C14.5535 8.51057 14.1354 8.4011 13.8125 8.5875V8.5875C13.4897 8.7739 13.387 9.18603 13.5005 9.54113C13.5992 9.84984 13.65 10.1732 13.65 10.5C13.65 10.8268 13.5992 11.1502 13.5005 11.4589C13.387 11.814 13.4897 12.2261 13.8125 12.4125V12.4125Z" fill="#FFAB5D"/>
<path d="M13.8125 12.4125C14.1354 12.5989 14.5535 12.4894 14.6896 12.1423C14.894 11.6209 15 11.064 15 10.5C15 9.93599 14.894 9.37908 14.6896 8.85765C14.5535 8.51057 14.1354 8.4011 13.8125 8.5875V8.5875C13.4897 8.7739 13.387 9.18603 13.5005 9.54113C13.5992 9.84984 13.65 10.1732 13.65 10.5C13.65 10.8268 13.5992 11.1502 13.5005 11.4589C13.387 11.814 13.4897 12.2261 13.8125 12.4125V12.4125Z" fill="black" fill-opacity="0.15" style="mix-blend-mode:plus-darker"/>
</svg>
