<svg width="16" height="16" viewBox="0 0 16 16" fill="none" xmlns="http://www.w3.org/2000/svg">
<path opacity="0.9" d="M4.34277 1C4.95414 1 5.26018 1.0003 5.54785 1.06934C5.80285 1.13055 6.0469 1.23117 6.27051 1.36816C6.5228 1.52277 6.7395 1.7395 7.17188 2.17188L7.76563 2.76563L7.86914 2.86719C7.89702 2.89262 7.92109 2.91132 7.94629 2.92676C7.99089 2.95401 8.04 2.97413 8.09082 2.98633C8.14819 3.00002 8.20928 3 8.33105 3H10C11.4 3 12.1 3.00007 12.6348 3.27246C13.1052 3.51214 13.4879 3.89483 13.7275 4.36523C13.8787 4.66205 13.9437 5.00991 13.9736 5.5H7.5C6.10002 5.5 5.39999 5.50007 4.86523 5.77246C4.39483 6.01214 4.01214 6.39483 3.77246 6.86523C3.50007 7.39999 3.5 8.10002 3.5 9.5V12.9736C3.00991 12.9437 2.66205 12.8787 2.36523 12.7275C1.89483 12.4879 1.51214 12.1052 1.27246 11.6348C1.00007 11.1 1 10.4 1 9V4.2002C1 3.08009 0.999786 2.51962 1.21777 2.0918C1.40951 1.71554 1.71554 1.40951 2.0918 1.21777C2.51962 0.999786 3.08009 1 4.2002 1H4.34277Z" fill="#45B38C"/>
<path d="M12.5 11C12.9659 11 13.199 11.0001 13.3828 11.0762C13.6277 11.1777 13.8223 11.3723 13.9238 11.6172C13.9999 11.801 14 12.0341 14 12.5C14 12.9659 13.9999 13.199 13.9238 13.3828C13.8223 13.6277 13.6277 13.8223 13.3828 13.9238C13.199 13.9999 12.9659 14 12.5 14H6.5C6.03406 14 5.80096 13.9999 5.61719 13.9238C5.37226 13.8223 5.17766 13.6277 5.07617 13.3828C5.00005 13.199 5 12.9659 5 12.5C5 12.0341 5.00005 11.801 5.07617 11.6172C5.17766 11.3723 5.37226 11.1777 5.61719 11.0762C5.80096 11.0001 6.03406 11 6.5 11H12.5ZM6.5 11.75C6.08579 11.75 5.75 12.0858 5.75 12.5C5.75 12.9142 6.08579 13.25 6.5 13.25C6.91421 13.25 7.25 12.9142 7.25 12.5C7.25 12.0858 6.91421 11.75 6.5 11.75ZM12.5 7C12.9659 7 13.199 7.00005 13.3828 7.07617C13.6277 7.17766 13.8223 7.37226 13.9238 7.61719C13.9999 7.80096 14 8.03406 14 8.5C14 8.96594 13.9999 9.19904 13.9238 9.38281C13.8223 9.62774 13.6277 9.82234 13.3828 9.92383C13.199 9.99995 12.9659 10 12.5 10H6.5C6.03406 10 5.80096 9.99995 5.61719 9.92383C5.37226 9.82234 5.17766 9.62774 5.07617 9.38281C5.00005 9.19904 5 8.96594 5 8.5C5 8.03406 5.00005 7.80096 5.07617 7.61719C5.17766 7.37226 5.37226 7.17766 5.61719 7.07617C5.80096 7.00005 6.03406 7 6.5 7H12.5ZM6.5 7.75C6.08579 7.75 5.75 8.08579 5.75 8.5C5.75 8.91421 6.08579 9.25 6.5 9.25C6.91421 9.25 7.25 8.91421 7.25 8.5C7.25 8.08579 6.91421 7.75 6.5 7.75Z" fill="#45B38C"/>
<path d="M12.5 11C12.9659 11 13.199 11.0001 13.3828 11.0762C13.6277 11.1777 13.8223 11.3723 13.9238 11.6172C13.9999 11.801 14 12.0341 14 12.5C14 12.9659 13.9999 13.199 13.9238 13.3828C13.8223 13.6277 13.6277 13.8223 13.3828 13.9238C13.199 13.9999 12.9659 14 12.5 14H6.5C6.03406 14 5.80096 13.9999 5.61719 13.9238C5.37226 13.8223 5.17766 13.6277 5.07617 13.3828C5.00005 13.199 5 12.9659 5 12.5C5 12.0341 5.00005 11.801 5.07617 11.6172C5.17766 11.3723 5.37226 11.1777 5.61719 11.0762C5.80096 11.0001 6.03406 11 6.5 11H12.5ZM6.5 11.75C6.08579 11.75 5.75 12.0858 5.75 12.5C5.75 12.9142 6.08579 13.25 6.5 13.25C6.91421 13.25 7.25 12.9142 7.25 12.5C7.25 12.0858 6.91421 11.75 6.5 11.75ZM12.5 7C12.9659 7 13.199 7.00005 13.3828 7.07617C13.6277 7.17766 13.8223 7.37226 13.9238 7.61719C13.9999 7.80096 14 8.03406 14 8.5C14 8.96594 13.9999 9.19904 13.9238 9.38281C13.8223 9.62774 13.6277 9.82234 13.3828 9.92383C13.199 9.99995 12.9659 10 12.5 10H6.5C6.03406 10 5.80096 9.99995 5.61719 9.92383C5.37226 9.82234 5.17766 9.62774 5.07617 9.38281C5.00005 9.19904 5 8.96594 5 8.5C5 8.03406 5.00005 7.80096 5.07617 7.61719C5.17766 7.37226 5.37226 7.17766 5.61719 7.07617C5.80096 7.00005 6.03406 7 6.5 7H12.5ZM6.5 7.75C6.08579 7.75 5.75 8.08579 5.75 8.5C5.75 8.91421 6.08579 9.25 6.5 9.25C6.91421 9.25 7.25 8.91421 7.25 8.5C7.25 8.08579 6.91421 7.75 6.5 7.75Z" fill="black" fill-opacity="0.15" style="mix-blend-mode:plus-darker"/>
</svg>
