<svg width="16" height="16" viewBox="0 0 16 16" fill="none" xmlns="http://www.w3.org/2000/svg">
<path opacity="0.8" fill-rule="evenodd" clip-rule="evenodd" d="M1 4.2V9C1 10.4001 1 11.1002 1.27248 11.635C1.51217 12.1054 1.89462 12.4878 2.36502 12.7275C2.66191 12.8788 3.00973 12.9461 3.5 12.976V9.5C3.5 8.09987 3.5 7.3998 3.77248 6.86502C4.01217 6.39462 4.39462 6.01217 4.86502 5.77248C5.3998 5.5 6.09987 5.5 7.5 5.5H13.976C13.9461 5.00973 13.8788 4.66191 13.7275 4.36502C13.4878 3.89462 13.1054 3.51217 12.635 3.27248C12.1002 3 11.4001 3 10 3H8.33137C8.20908 3 8.14793 3 8.09038 2.98618C8.03937 2.97394 7.99059 2.95373 7.94586 2.92632C7.8954 2.8954 7.85216 2.85216 7.76569 2.76569L7.76569 2.76569L7.76569 2.76569L7.17157 2.17157C6.73919 1.73919 6.523 1.523 6.27071 1.3684C6.04703 1.23133 5.80317 1.13032 5.54808 1.06908C5.26036 1 4.95462 1 4.34315 1H4.2C3.0799 1 2.51984 1 2.09202 1.21799C1.71569 1.40973 1.40973 1.71569 1.21799 2.09202C1 2.51984 1 3.0799 1 4.2Z" fill="#45B38C"/>
<path fill-rule="evenodd" clip-rule="evenodd" d="M5.07612 7.61732C5 7.80109 5 8.03406 5 8.5C5 8.96594 5 9.19891 5.07612 9.38268C5.17761 9.62771 5.37229 9.82239 5.61732 9.92388C5.80109 10 6.03406 10 6.5 10H12.5C12.9659 10 13.1989 10 13.3827 9.92388C13.6277 9.82239 13.8224 9.62771 13.9239 9.38268C14 9.19891 14 8.96594 14 8.5C14 8.03406 14 7.80109 13.9239 7.61732C13.8224 7.37229 13.6277 7.17761 13.3827 7.07612C13.1989 7 12.9659 7 12.5 7H6.5C6.03406 7 5.80109 7 5.61732 7.07612C5.37229 7.17761 5.17761 7.37229 5.07612 7.61732ZM5.07612 11.6173C5 11.8011 5 12.0341 5 12.5C5 12.9659 5 13.1989 5.07612 13.3827C5.17761 13.6277 5.37229 13.8224 5.61732 13.9239C5.80109 14 6.03406 14 6.5 14H12.5C12.9659 14 13.1989 14 13.3827 13.9239C13.6277 13.8224 13.8224 13.6277 13.9239 13.3827C14 13.1989 14 12.9659 14 12.5C14 12.0341 14 11.8011 13.9239 11.6173C13.8224 11.3723 13.6277 11.1776 13.3827 11.0761C13.1989 11 12.9659 11 12.5 11H6.5C6.03406 11 5.80109 11 5.61732 11.0761C5.37229 11.1776 5.17761 11.3723 5.07612 11.6173ZM5.75 8.5C5.75 8.08579 6.08579 7.75 6.5 7.75C6.91421 7.75 7.25 8.08579 7.25 8.5C7.25 8.91421 6.91421 9.25 6.5 9.25C6.08579 9.25 5.75 8.91421 5.75 8.5ZM5.75 12.5C5.75 12.0858 6.08579 11.75 6.5 11.75C6.91421 11.75 7.25 12.0858 7.25 12.5C7.25 12.9142 6.91421 13.25 6.5 13.25C6.08579 13.25 5.75 12.9142 5.75 12.5Z" fill="#45B38C"/>
<path fill-rule="evenodd" clip-rule="evenodd" d="M5.07612 7.61732C5 7.80109 5 8.03406 5 8.5C5 8.96594 5 9.19891 5.07612 9.38268C5.17761 9.62771 5.37229 9.82239 5.61732 9.92388C5.80109 10 6.03406 10 6.5 10H12.5C12.9659 10 13.1989 10 13.3827 9.92388C13.6277 9.82239 13.8224 9.62771 13.9239 9.38268C14 9.19891 14 8.96594 14 8.5C14 8.03406 14 7.80109 13.9239 7.61732C13.8224 7.37229 13.6277 7.17761 13.3827 7.07612C13.1989 7 12.9659 7 12.5 7H6.5C6.03406 7 5.80109 7 5.61732 7.07612C5.37229 7.17761 5.17761 7.37229 5.07612 7.61732ZM5.07612 11.6173C5 11.8011 5 12.0341 5 12.5C5 12.9659 5 13.1989 5.07612 13.3827C5.17761 13.6277 5.37229 13.8224 5.61732 13.9239C5.80109 14 6.03406 14 6.5 14H12.5C12.9659 14 13.1989 14 13.3827 13.9239C13.6277 13.8224 13.8224 13.6277 13.9239 13.3827C14 13.1989 14 12.9659 14 12.5C14 12.0341 14 11.8011 13.9239 11.6173C13.8224 11.3723 13.6277 11.1776 13.3827 11.0761C13.1989 11 12.9659 11 12.5 11H6.5C6.03406 11 5.80109 11 5.61732 11.0761C5.37229 11.1776 5.17761 11.3723 5.07612 11.6173ZM5.75 8.5C5.75 8.08579 6.08579 7.75 6.5 7.75C6.91421 7.75 7.25 8.08579 7.25 8.5C7.25 8.91421 6.91421 9.25 6.5 9.25C6.08579 9.25 5.75 8.91421 5.75 8.5ZM5.75 12.5C5.75 12.0858 6.08579 11.75 6.5 11.75C6.91421 11.75 7.25 12.0858 7.25 12.5C7.25 12.9142 6.91421 13.25 6.5 13.25C6.08579 13.25 5.75 12.9142 5.75 12.5Z" fill="black" fill-opacity="0.1" style="mix-blend-mode:plus-darker"/>
</svg>
