<svg width="16" height="16" viewBox="0 0 16 16" fill="none" xmlns="http://www.w3.org/2000/svg">
<path opacity="0.8" fill-rule="evenodd" clip-rule="evenodd" d="M1 4.2V9C1 10.4001 1 11.1002 1.27248 11.635C1.51217 12.1054 1.89462 12.4878 2.36502 12.7275C2.8998 13 3.59987 13 5 13H5.5V12.4014C5.5 11.8136 5.67397 11.239 6 10.75C6.32603 10.261 6.5 9.68636 6.5 9.09861V8.72176C6.5 7.58464 6.5 7.01609 6.65216 6.55671C6.95032 5.65653 7.65653 4.95032 8.55671 4.65216C9.01608 4.5 9.58464 4.5 10.7218 4.5H13.7891C13.7703 4.4537 13.7498 4.40881 13.7275 4.36502C13.4878 3.89462 13.1054 3.51217 12.635 3.27248C12.1002 3 11.4001 3 10 3H8.33137C8.20908 3 8.14793 3 8.09038 2.98618C8.03937 2.97394 7.99059 2.95373 7.94586 2.92632C7.8954 2.8954 7.85216 2.85216 7.76569 2.76569L7.76569 2.76569L7.76569 2.76569L7.17157 2.17157C6.73919 1.73919 6.523 1.523 6.27071 1.3684C6.04703 1.23133 5.80317 1.13032 5.54808 1.06908C5.26036 1 4.95462 1 4.34315 1H4.2C3.0799 1 2.51984 1 2.09202 1.21799C1.71569 1.40973 1.40973 1.71569 1.21799 2.09202C1 2.51984 1 3.0799 1 4.2Z" fill="#F15F79"/>
<path d="M7 12.5V12H13V11H8V7.5C8 6.67157 8.67157 6 9.5 6H13.5C14.3284 6 15 6.67157 15 7.5V8H14V12.5C14 13.3284 13.3284 14 12.5 14H8.5C7.67157 14 7 13.3284 7 12.5Z" fill="#F15F79"/>
<path d="M7 12.5V12H13V11H8V7.5C8 6.67157 8.67157 6 9.5 6H13.5C14.3284 6 15 6.67157 15 7.5V8H14V12.5C14 13.3284 13.3284 14 12.5 14H8.5C7.67157 14 7 13.3284 7 12.5Z" fill="black" fill-opacity="0.15"/>
</svg>
