<svg width="16" height="16" viewBox="0 0 16 16" fill="none" xmlns="http://www.w3.org/2000/svg">
<path opacity="0.8" fill-rule="evenodd" clip-rule="evenodd" d="M1 4.2V9C1 10.4001 1 11.1002 1.27248 11.635C1.51217 12.1054 1.89462 12.4878 2.36502 12.7275C2.8998 13 3.59987 13 5 13H5.5V12.4014C5.5 11.8136 5.67397 11.239 6 10.75C6.32603 10.261 6.5 9.68636 6.5 9.09861V8.72176C6.5 7.58464 6.5 7.01609 6.65216 6.55671C6.95032 5.65653 7.65653 4.95032 8.55671 4.65216C9.01608 4.5 9.58464 4.5 10.7218 4.5H13.7891C13.7703 4.4537 13.7498 4.40881 13.7275 4.36502C13.4878 3.89462 13.1054 3.51217 12.635 3.27248C12.1002 3 11.4001 3 10 3H8.33137C8.20908 3 8.14793 3 8.09038 2.98618C8.03937 2.97394 7.99059 2.95373 7.94586 2.92632C7.8954 2.8954 7.85216 2.85216 7.76569 2.76569L7.76569 2.76569L7.76569 2.76569L7.17157 2.17157C6.73919 1.73919 6.523 1.523 6.27071 1.3684C6.04703 1.23133 5.80317 1.13032 5.54808 1.06908C5.26036 1 4.95462 1 4.34315 1H4.2C3.0799 1 2.51984 1 2.09202 1.21799C1.71569 1.40973 1.40973 1.71569 1.21799 2.09202C1 2.51984 1 3.0799 1 4.2Z" fill="#A67CF8"/>
<path d="M11.6 14H9C8.53501 14 8.30252 14 8.11177 13.9489C7.59413 13.8102 7.18981 13.4059 7.05111 12.8882C7 12.6975 7 12.465 7 12H13V11H8V8.4C8 7.55992 8 7.13988 8.16349 6.81901C8.3073 6.53677 8.53677 6.3073 8.81901 6.16349C9.13988 6 9.55992 6 10.4 6H13C13.465 6 13.6975 6 13.8882 6.05111C14.4059 6.18981 14.8102 6.59413 14.9489 7.11177C15 7.30252 15 7.53501 15 8H14V11.6C14 12.4401 14 12.8601 13.8365 13.181C13.6927 13.4632 13.4632 13.6927 13.181 13.8365C12.8601 14 12.4401 14 11.6 14Z" fill="#A67CF8"/>
<path d="M11.6 14H9C8.53501 14 8.30252 14 8.11177 13.9489C7.59413 13.8102 7.18981 13.4059 7.05111 12.8882C7 12.6975 7 12.465 7 12H13V11H8V8.4C8 7.55992 8 7.13988 8.16349 6.81901C8.3073 6.53677 8.53677 6.3073 8.81901 6.16349C9.13988 6 9.55992 6 10.4 6H13C13.465 6 13.6975 6 13.8882 6.05111C14.4059 6.18981 14.8102 6.59413 14.9489 7.11177C15 7.30252 15 7.53501 15 8H14V11.6C14 12.4401 14 12.8601 13.8365 13.181C13.6927 13.4632 13.4632 13.6927 13.181 13.8365C12.8601 14 12.4401 14 11.6 14Z" fill="black" fill-opacity="0.1" style="mix-blend-mode:plus-darker"/>
</svg>
