<svg width="16" height="16" viewBox="0 0 16 16" fill="none" xmlns="http://www.w3.org/2000/svg">
<path opacity="0.8" fill-rule="evenodd" clip-rule="evenodd" d="M1 9V4.2C1 3.0799 1 2.51984 1.21799 2.09202C1.40973 1.71569 1.71569 1.40973 2.09202 1.21799C2.51984 1 3.0799 1 4.2 1H4.34315C4.95462 1 5.26036 1 5.54808 1.06908C5.80317 1.13032 6.04703 1.23133 6.27071 1.3684C6.523 1.523 6.73919 1.73919 7.17157 2.17157L7.76569 2.76569L7.76569 2.76569L7.76569 2.76569C7.85216 2.85216 7.8954 2.8954 7.94586 2.92632C7.99059 2.95373 8.03937 2.97394 8.09038 2.98618C8.14793 3 8.20908 3 8.33137 3H10C11.4001 3 12.1002 3 12.635 3.27248C13.1054 3.51217 13.4878 3.89462 13.7275 4.36502C13.8148 4.53637 13.8742 4.72469 13.9145 4.94757C13.7033 4.79469 13.4743 4.6649 13.2311 4.56155C12.6893 4.33133 12.1465 4.30209 11.6629 4.32024C11.2072 4.33734 10.6601 4.40577 10.0545 4.48151L10.0545 4.48151L9.99665 4.48874L8.82511 4.63519L8.77482 4.64147L8.77482 4.64147C8.2884 4.70224 7.83974 4.75829 7.46702 4.83542C7.06368 4.91888 6.62872 5.04883 6.2129 5.32107C5.61573 5.71205 5.15237 6.27625 4.88496 6.93804C4.69875 7.39886 4.65585 7.85078 4.65239 8.26265C4.6492 8.64326 4.68144 9.09425 4.7164 9.5832L4.72002 9.63375L4.80622 10.8406L4.80962 10.8882C4.84169 11.3377 4.87148 11.7552 4.92362 12.1057C4.96617 12.3917 5.03121 12.6946 5.15487 13H5C3.59987 13 2.8998 13 2.36502 12.7275C1.89462 12.4878 1.51217 12.1054 1.27248 11.635C1 11.1002 1 10.4001 1 9Z" fill="#FF60A3"/>
<path fill-rule="evenodd" clip-rule="evenodd" d="M11.5 5.83137V7L12.5 7.5L12.8623 6.05076C13.1979 6.2445 13.4716 6.53259 13.6477 6.88162C13.8904 7.3625 13.8517 8.02179 13.7741 9.34036L13.6903 10.7652V10.7652C13.6238 11.8961 13.5905 12.4615 13.3442 12.8783C13.1275 13.2449 12.7996 13.5328 12.408 13.7C11.9628 13.8902 11.3978 13.8498 10.2678 13.7691L9.26628 13.6976C8.28536 13.6275 7.7949 13.5925 7.41299 13.384C7.07643 13.2002 6.79979 12.9236 6.61603 12.587C6.4075 12.2051 6.37247 11.7146 6.30241 10.7337L6.2162 9.52688C6.14014 8.46204 6.10211 7.92962 6.27571 7.50001C6.42852 7.12185 6.69329 6.79945 7.03453 6.57603C7.42219 6.32223 7.95185 6.25602 9.01116 6.12361L10.1827 5.97716C10.7208 5.9099 11.1485 5.85644 11.5 5.83137ZM8 8.75C8 7.7835 8.7835 7 9.75 7H10C11.1046 7 12 7.89543 12 9H11C11 8.44772 10.5523 8 10 8H9.75C9.33579 8 9 8.33579 9 8.75C9 9.16421 9.33579 9.5 9.75 9.5H10.25C11.2165 9.5 12 10.2835 12 11.25C12 12.2165 11.2165 13 10.25 13H10C8.89543 13 8 12.1046 8 11H9C9 11.5523 9.44772 12 10 12H10.25C10.6642 12 11 11.6642 11 11.25C11 10.8358 10.6642 10.5 10.25 10.5H9.75C8.7835 10.5 8 9.7165 8 8.75Z" fill="#FF60A3"/>
<path fill-rule="evenodd" clip-rule="evenodd" d="M11.5 5.83137V7L12.5 7.5L12.8623 6.05076C13.1979 6.2445 13.4716 6.53259 13.6477 6.88162C13.8904 7.3625 13.8517 8.02179 13.7741 9.34036L13.6903 10.7652V10.7652C13.6238 11.8961 13.5905 12.4615 13.3442 12.8783C13.1275 13.2449 12.7996 13.5328 12.408 13.7C11.9628 13.8902 11.3978 13.8498 10.2678 13.7691L9.26628 13.6976C8.28536 13.6275 7.7949 13.5925 7.41299 13.384C7.07643 13.2002 6.79979 12.9236 6.61603 12.587C6.4075 12.2051 6.37247 11.7146 6.30241 10.7337L6.2162 9.52688C6.14014 8.46204 6.10211 7.92962 6.27571 7.50001C6.42852 7.12185 6.69329 6.79945 7.03453 6.57603C7.42219 6.32223 7.95185 6.25602 9.01116 6.12361L10.1827 5.97716C10.7208 5.9099 11.1485 5.85644 11.5 5.83137ZM8 8.75C8 7.7835 8.7835 7 9.75 7H10C11.1046 7 12 7.89543 12 9H11C11 8.44772 10.5523 8 10 8H9.75C9.33579 8 9 8.33579 9 8.75C9 9.16421 9.33579 9.5 9.75 9.5H10.25C11.2165 9.5 12 10.2835 12 11.25C12 12.2165 11.2165 13 10.25 13H10C8.89543 13 8 12.1046 8 11H9C9 11.5523 9.44772 12 10 12H10.25C10.6642 12 11 11.6642 11 11.25C11 10.8358 10.6642 10.5 10.25 10.5H9.75C8.7835 10.5 8 9.7165 8 8.75Z" fill="black" fill-opacity="0.1" style="mix-blend-mode:plus-darker"/>
</svg>
