<svg width="16" height="16" viewBox="0 0 16 16" fill="none" xmlns="http://www.w3.org/2000/svg">
<path opacity="0.9" d="M4.34277 1C4.95414 1 5.26018 1.0003 5.54785 1.06934C5.80285 1.13055 6.0469 1.23117 6.27051 1.36816C6.5228 1.52277 6.7395 1.7395 7.17188 2.17188L7.76563 2.76563L7.86914 2.86719C7.89702 2.89262 7.92109 2.91132 7.94629 2.92676C7.99089 2.95401 8.04 2.97413 8.09082 2.98633C8.14819 3.00002 8.20928 3 8.33105 3H10C11.4 3 12.1 3.00007 12.6348 3.27246C13.1052 3.51214 13.4879 3.89483 13.7275 4.36523C13.862 4.6293 13.9294 4.93371 13.9639 5.34277L13.7676 5.14648L13.5752 4.97168C12.6529 4.21644 11.4126 4.27523 10.5352 4.80664L10.3525 4.92773C9.94754 5.22188 9.46628 5.50609 9.00293 5.71094C8.51228 5.92784 8.16769 6 8 6H7.83496C6.70221 6 5.72101 6.75949 5.4248 7.83398L5.375 8.05273L4.66699 11.9443C4.5958 12.336 4.65182 12.6945 4.79492 12.999C3.53034 12.9984 2.87322 12.9863 2.36523 12.7275C1.89483 12.4879 1.51214 12.1052 1.27246 11.6348C1.00007 11.1 1 10.4 1 9V4.2002C1 3.08009 0.999786 2.51962 1.21777 2.0918C1.40951 1.71554 1.71554 1.40951 2.0918 1.21777C2.51962 0.999786 3.08009 1 4.2002 1H4.34277Z" fill="#5BAFD4"/>
<path d="M11.2345 6.14144C11.6814 5.81688 12.3166 5.81658 12.7071 6.20711L13.7929 7.29289C14.1834 7.68342 14.1831 8.31861 13.8586 8.76546C13.1588 9.7289 12.5 11.0578 12.5 12V12.1654C12.5 12.6487 12.1544 13.0628 11.6789 13.1493L7.78741 13.8568C7.54627 13.9007 7.3926 13.6074 7.56591 13.4341L9.5 11.5C10.064 11.5 10.5 11.064 10.5 10.5C10.5 9.93596 10.064 9.5 9.5 9.5C8.93596 9.5 8.5 9.93596 8.5 10.5L6.56591 12.4341C6.3926 12.6074 6.09932 12.4537 6.14317 12.2126L6.85071 8.32111C6.93716 7.84562 7.35129 7.5 7.83458 7.5H8C8.94224 7.5 10.2711 6.84123 11.2345 6.14144Z" fill="#5BAFD4"/>
<path d="M11.2345 6.14144C11.6814 5.81688 12.3166 5.81658 12.7071 6.20711L13.7929 7.29289C14.1834 7.68342 14.1831 8.31861 13.8586 8.76546C13.1588 9.7289 12.5 11.0578 12.5 12V12.1654C12.5 12.6487 12.1544 13.0628 11.6789 13.1493L7.78741 13.8568C7.54627 13.9007 7.3926 13.6074 7.56591 13.4341L9.5 11.5C10.064 11.5 10.5 11.064 10.5 10.5C10.5 9.93596 10.064 9.5 9.5 9.5C8.93596 9.5 8.5 9.93596 8.5 10.5L6.56591 12.4341C6.3926 12.6074 6.09932 12.4537 6.14317 12.2126L6.85071 8.32111C6.93716 7.84562 7.35129 7.5 7.83458 7.5H8C8.94224 7.5 10.2711 6.84123 11.2345 6.14144Z" fill="black" fill-opacity="0.15" style="mix-blend-mode:plus-darker"/>
</svg>
