<svg width="16" height="16" viewBox="0 0 16 16" fill="none" xmlns="http://www.w3.org/2000/svg">
<path opacity="0.8" fill-rule="evenodd" clip-rule="evenodd" d="M1 4.2V9C1 10.4001 1 11.1002 1.27248 11.635C1.51217 12.1054 1.89462 12.4878 2.36502 12.7275C2.8998 13 3.59987 13 5 13V12.1569C5 11.5454 5 11.2396 5.06908 10.9519C5.13032 10.6968 5.23133 10.453 5.3684 10.2293C5.523 9.977 5.73919 9.76081 6.17157 9.32843L8.82843 6.67157L8.82843 6.67157C9.26081 6.23919 9.477 6.023 9.72929 5.8684C9.95297 5.73133 10.1968 5.63032 10.4519 5.56908C10.7396 5.5 11.0454 5.5 11.6569 5.5H13.976C13.9461 5.00973 13.8788 4.66191 13.7275 4.36502C13.4878 3.89462 13.1054 3.51217 12.635 3.27248C12.1002 3 11.4001 3 10 3H8.33137C8.20908 3 8.14793 3 8.09038 2.98618C8.03937 2.97394 7.99059 2.95373 7.94586 2.92632C7.8954 2.8954 7.85216 2.85216 7.76569 2.76569L7.76569 2.76569L7.76569 2.76569L7.17157 2.17157C6.73919 1.73919 6.523 1.523 6.27071 1.3684C6.04703 1.23133 5.80317 1.13032 5.54808 1.06908C5.26036 1 4.95462 1 4.34315 1H4.2C3.0799 1 2.51984 1 2.09202 1.21799C1.71569 1.40973 1.40973 1.71569 1.21799 2.09202C1 2.51984 1 3.0799 1 4.2Z" fill="#7380F9"/>
<path fill-rule="evenodd" clip-rule="evenodd" d="M7.13134 12.6314L8.3686 13.8686C8.76462 14.2646 8.96263 14.4627 9.19095 14.5368C9.3918 14.6021 9.60814 14.6021 9.80899 14.5368C10.0373 14.4627 10.2353 14.2646 10.6313 13.8686L13.5313 10.9686C13.7043 10.7957 13.7908 10.7092 13.8526 10.6083C13.9074 10.5188 13.9478 10.4213 13.9723 10.3192C14 10.2041 14 10.0818 14 9.83726V8.6C14 8.03995 14 7.75992 13.891 7.54601C13.7951 7.35785 13.6421 7.20487 13.454 7.10899C13.24 7 12.96 7 12.4 7H11.1627C10.9181 7 10.7958 7 10.6807 7.02763C10.5787 7.05213 10.4812 7.09253 10.3917 7.14736C10.2908 7.2092 10.2043 7.29568 10.0313 7.46863L7.13134 10.3686C6.73532 10.7646 6.53732 10.9627 6.46313 11.191C6.39787 11.3918 6.39787 11.6082 6.46313 11.809C6.53732 12.0373 6.73532 12.2354 7.13134 12.6314ZM11.5 8.5C10.9477 8.5 10.5 8.94772 10.5 9.5C10.5 10.0523 10.9477 10.5 11.5 10.5C12.0523 10.5 12.5 10.0523 12.5 9.5C12.5 8.94772 12.0523 8.5 11.5 8.5Z" fill="#7380F9"/>
<path fill-rule="evenodd" clip-rule="evenodd" d="M7.13134 12.6314L8.3686 13.8686C8.76462 14.2646 8.96263 14.4627 9.19095 14.5368C9.3918 14.6021 9.60814 14.6021 9.80899 14.5368C10.0373 14.4627 10.2353 14.2646 10.6313 13.8686L13.5313 10.9686C13.7043 10.7957 13.7908 10.7092 13.8526 10.6083C13.9074 10.5188 13.9478 10.4213 13.9723 10.3192C14 10.2041 14 10.0818 14 9.83726V8.6C14 8.03995 14 7.75992 13.891 7.54601C13.7951 7.35785 13.6421 7.20487 13.454 7.10899C13.24 7 12.96 7 12.4 7H11.1627C10.9181 7 10.7958 7 10.6807 7.02763C10.5787 7.05213 10.4812 7.09253 10.3917 7.14736C10.2908 7.2092 10.2043 7.29568 10.0313 7.46863L7.13134 10.3686C6.73532 10.7646 6.53732 10.9627 6.46313 11.191C6.39787 11.3918 6.39787 11.6082 6.46313 11.809C6.53732 12.0373 6.73532 12.2354 7.13134 12.6314ZM11.5 8.5C10.9477 8.5 10.5 8.94772 10.5 9.5C10.5 10.0523 10.9477 10.5 11.5 10.5C12.0523 10.5 12.5 10.0523 12.5 9.5C12.5 8.94772 12.0523 8.5 11.5 8.5Z" fill="black" fill-opacity="0.1" style="mix-blend-mode:plus-darker"/>
</svg>
