<svg width="16" height="16" viewBox="0 0 16 16" fill="none" xmlns="http://www.w3.org/2000/svg">
<path opacity="0.9" d="M4.34277 1C4.95414 1 5.26018 1.0003 5.54785 1.06934C5.80285 1.13055 6.0469 1.23117 6.27051 1.36816C6.5228 1.52277 6.7395 1.7395 7.17188 2.17188L7.76563 2.76563L7.86914 2.86719C7.89702 2.89262 7.92109 2.91132 7.94629 2.92676C7.99089 2.95401 8.04 2.97413 8.09082 2.98633C8.14819 3.00002 8.20928 3 8.33105 3H10C11.4 3 12.1 3.00007 12.6348 3.27246C13.1052 3.51214 13.4879 3.89483 13.7275 4.36523C13.8787 4.66205 13.9437 5.00991 13.9736 5.5H11.6572C11.0459 5.5 10.7398 5.5003 10.4521 5.56934C10.1972 5.63055 9.9531 5.73117 9.72949 5.86816C9.4772 6.02277 9.2605 6.2395 8.82813 6.67188L6.17188 9.32813L5.88574 9.61621C5.63521 9.87132 5.48414 10.0402 5.36816 10.2295C5.23117 10.4531 5.13055 10.6972 5.06934 10.9521C5.0003 11.2398 5 11.5459 5 12.1572V13C3.60002 13 2.89999 12.9999 2.36523 12.7275C1.89483 12.4879 1.51214 12.1052 1.27246 11.6348C1.00007 11.1 1 10.4 1 9V4.2002C1 3.08009 0.999786 2.51962 1.21777 2.0918C1.40951 1.71554 1.71554 1.40951 2.0918 1.21777C2.51962 0.999786 3.08009 1 4.2002 1H4.34277Z" fill="#7380F9"/>
<path d="M12.3995 7C12.9596 7 13.2403 7.00038 13.4542 7.10938C13.6421 7.20523 13.7949 7.35794 13.8907 7.5459C13.9997 7.75976 14.0001 8.03982 14.0001 8.59961V9.83691C14.0001 10.0815 14.0004 10.2042 13.9728 10.3193C13.9483 10.4214 13.9075 10.5189 13.8526 10.6084C13.7908 10.7093 13.7043 10.7958 13.5314 10.9688L10.631 13.8682C10.2349 14.2642 10.037 14.4629 9.8087 14.5371C9.60794 14.6023 9.39127 14.6023 9.19053 14.5371C8.96232 14.4628 8.76412 14.264 8.36827 13.8682L7.13096 12.6318C6.73494 12.2358 6.53718 12.0369 6.46299 11.8086C6.39792 11.608 6.39792 11.392 6.46299 11.1914C6.53718 10.9631 6.73495 10.7642 7.13096 10.3682L10.0314 7.46875C10.2043 7.29581 10.2908 7.2093 10.3917 7.14746C10.4812 7.09263 10.5787 7.05184 10.6808 7.02734C10.7957 6.99976 10.918 7 11.1622 7H12.3995ZM11.5001 8.5C10.9478 8.5 10.5001 8.94772 10.5001 9.5C10.5001 10.0523 10.9478 10.5 11.5001 10.5C12.0523 10.4999 12.5001 10.0522 12.5001 9.5C12.5001 8.94777 12.0523 8.50008 11.5001 8.5Z" fill="#7380F9"/>
<path d="M12.3995 7C12.9596 7 13.2403 7.00038 13.4542 7.10938C13.6421 7.20523 13.7949 7.35794 13.8907 7.5459C13.9997 7.75976 14.0001 8.03982 14.0001 8.59961V9.83691C14.0001 10.0815 14.0004 10.2042 13.9728 10.3193C13.9483 10.4214 13.9075 10.5189 13.8526 10.6084C13.7908 10.7093 13.7043 10.7958 13.5314 10.9688L10.631 13.8682C10.2349 14.2642 10.037 14.4629 9.8087 14.5371C9.60794 14.6023 9.39127 14.6023 9.19053 14.5371C8.96232 14.4628 8.76412 14.264 8.36827 13.8682L7.13096 12.6318C6.73494 12.2358 6.53718 12.0369 6.46299 11.8086C6.39792 11.608 6.39792 11.392 6.46299 11.1914C6.53718 10.9631 6.73495 10.7642 7.13096 10.3682L10.0314 7.46875C10.2043 7.29581 10.2908 7.2093 10.3917 7.14746C10.4812 7.09263 10.5787 7.05184 10.6808 7.02734C10.7957 6.99976 10.918 7 11.1622 7H12.3995ZM11.5001 8.5C10.9478 8.5 10.5001 8.94772 10.5001 9.5C10.5001 10.0523 10.9478 10.5 11.5001 10.5C12.0523 10.4999 12.5001 10.0522 12.5001 9.5C12.5001 8.94777 12.0523 8.50008 11.5001 8.5Z" fill="black" fill-opacity="0.15" style="mix-blend-mode:plus-darker"/>
</svg>
