<svg width="16" height="16" viewBox="0 0 16 16" fill="none" xmlns="http://www.w3.org/2000/svg">
<path opacity="0.9" d="M4.34277 1C4.95414 1 5.26018 1.0003 5.54785 1.06934C5.80285 1.13055 6.0469 1.23117 6.27051 1.36816C6.5228 1.52277 6.7395 1.7395 7.17188 2.17188L7.76563 2.76563L7.86914 2.86719C7.89702 2.89262 7.92109 2.91132 7.94629 2.92676C7.99089 2.95401 8.04 2.97413 8.09082 2.98633C8.14819 3.00002 8.20928 3 8.33105 3H10C11.4 3 12.1 3.00007 12.6348 3.27246C13.1052 3.51214 13.4879 3.89483 13.7275 4.36523C13.9442 4.79052 13.987 5.32034 13.9961 6.22363C12.9935 5.16304 11.5747 4.5 10 4.5C6.96243 4.5 4.5 6.96243 4.5 10C4.5 11.1072 4.82867 12.137 5.3916 13H5C3.60002 13 2.89999 12.9999 2.36523 12.7275C1.89483 12.4879 1.51214 12.1052 1.27246 11.6348C1.00007 11.1 1 10.4 1 9V4.2002C1 3.08009 0.999786 2.51962 1.21777 2.0918C1.40951 1.71554 1.71554 1.40951 2.0918 1.21777C2.51962 0.999786 3.08009 1 4.2002 1H4.34277Z" fill="#8080A0"/>
<path d="M6.1161 9.03938C6.1356 8.96026 6.08684 9.15805 6.08719 9.15669C6.17221 8.81992 6.67657 8.67933 6.92354 8.92355C6.92454 8.92454 6.82937 8.82937 6.86744 8.86744L8 10C8.55228 10.5523 9.44772 10.5523 10 10V10C10.5523 9.44772 10.5523 8.55228 10 8L8.86744 6.86744C8.82937 6.82937 8.92454 6.92454 8.92355 6.92354C8.67933 6.67657 8.81992 6.17221 9.15669 6.08719C9.15805 6.08684 8.96026 6.1356 9.03938 6.1161C9.3471 6.04024 9.66885 6 10 6C12.2091 6 14 7.79086 14 10C14 10.0588 13.9987 10.1172 13.9962 10.1754C13.9701 10.7809 13.957 11.0837 13.957 11.1251C13.9557 11.8697 13.9811 11.9352 14.4854 12.483C14.5135 12.5135 14.5831 12.5831 14.7223 12.7223V12.7223C14.7878 12.7878 14.8206 12.8206 14.8461 12.8505C15.1657 13.2246 15.1657 13.7754 14.8461 14.1495C14.8206 14.1794 14.7878 14.2122 14.7223 14.2777L14.2777 14.7223C14.2122 14.7878 14.1794 14.8206 14.1495 14.8461C13.7754 15.1657 13.2246 15.1657 12.8505 14.8461C12.8206 14.8206 12.7878 14.7878 12.7223 14.7223V14.7223C12.5831 14.5831 12.5135 14.5135 12.483 14.4854C11.9352 13.9811 11.8697 13.9557 11.1251 13.957C11.0837 13.957 10.7809 13.9701 10.1754 13.9962C10.1172 13.9987 10.0588 14 10 14C7.79086 14 6 12.2091 6 10C6 9.66885 6.04024 9.3471 6.1161 9.03938Z" fill="#8080A0"/>
<path d="M6.1161 9.03938C6.1356 8.96026 6.08684 9.15805 6.08719 9.15669C6.17221 8.81992 6.67657 8.67933 6.92354 8.92355C6.92454 8.92454 6.82937 8.82937 6.86744 8.86744L8 10C8.55228 10.5523 9.44772 10.5523 10 10V10C10.5523 9.44772 10.5523 8.55228 10 8L8.86744 6.86744C8.82937 6.82937 8.92454 6.92454 8.92355 6.92354C8.67933 6.67657 8.81992 6.17221 9.15669 6.08719C9.15805 6.08684 8.96026 6.1356 9.03938 6.1161C9.3471 6.04024 9.66885 6 10 6C12.2091 6 14 7.79086 14 10C14 10.0588 13.9987 10.1172 13.9962 10.1754C13.9701 10.7809 13.957 11.0837 13.957 11.1251C13.9557 11.8697 13.9811 11.9352 14.4854 12.483C14.5135 12.5135 14.5831 12.5831 14.7223 12.7223V12.7223C14.7878 12.7878 14.8206 12.8206 14.8461 12.8505C15.1657 13.2246 15.1657 13.7754 14.8461 14.1495C14.8206 14.1794 14.7878 14.2122 14.7223 14.2777L14.2777 14.7223C14.2122 14.7878 14.1794 14.8206 14.1495 14.8461C13.7754 15.1657 13.2246 15.1657 12.8505 14.8461C12.8206 14.8206 12.7878 14.7878 12.7223 14.7223V14.7223C12.5831 14.5831 12.5135 14.5135 12.483 14.4854C11.9352 13.9811 11.8697 13.9557 11.1251 13.957C11.0837 13.957 10.7809 13.9701 10.1754 13.9962C10.1172 13.9987 10.0588 14 10 14C7.79086 14 6 12.2091 6 10C6 9.66885 6.04024 9.3471 6.1161 9.03938Z" fill="black" fill-opacity="0.15" style="mix-blend-mode:plus-darker"/>
</svg>
