<svg width="16" height="16" viewBox="0 0 16 16" fill="none" xmlns="http://www.w3.org/2000/svg">
<path opacity="0.8" fill-rule="evenodd" clip-rule="evenodd" d="M1 4.2V9C1 10.4001 1 11.1002 1.27248 11.635C1.51217 12.1054 1.89462 12.4878 2.36502 12.7275C2.83198 12.9654 3.42496 12.9956 4.5 12.9994V9.3C4.5 7.61984 4.5 6.77976 4.82698 6.13803C5.1146 5.57354 5.57354 5.1146 6.13803 4.82698C6.77976 4.5 7.61984 4.5 9.3 4.5H10.2322C10.7486 4.5 11.0069 4.5 11.2529 4.54121C11.7021 4.61645 12.1283 4.79297 12.4991 5.0574C12.7023 5.20226 12.8848 5.38484 13.25 5.75C13.6152 6.11516 13.7977 6.29774 13.9426 6.50088C13.9621 6.52825 13.9811 6.55591 13.9997 6.58386C13.997 5.45553 13.9716 4.84399 13.7275 4.36502C13.4878 3.89462 13.1054 3.51217 12.635 3.27248C12.1002 3 11.4001 3 10 3H8.33137C8.20908 3 8.14793 3 8.09038 2.98618C8.03937 2.97394 7.99059 2.95373 7.94586 2.92632C7.8954 2.8954 7.85216 2.85216 7.76569 2.76569L7.76569 2.76569L7.76569 2.76569L7.17157 2.17157C6.73919 1.73919 6.523 1.523 6.27071 1.3684C6.04703 1.23133 5.80317 1.13032 5.54808 1.06908C5.26036 1 4.95462 1 4.34315 1H4.2C3.0799 1 2.51984 1 2.09202 1.21799C1.71569 1.40973 1.40973 1.71569 1.21799 2.09202C1 2.51984 1 3.0799 1 4.2Z" fill="#A67CF8"/>
<path fill-rule="evenodd" clip-rule="evenodd" d="M6.16349 6.81901C6 7.13988 6 7.55992 6 8.4V12.6C6 13.4401 6 13.8601 6.16349 14.181C6.3073 14.4632 6.53677 14.6927 6.81901 14.8365C7.13988 15 7.55992 15 8.4 15H11.6C12.4401 15 12.8601 15 13.181 14.8365C13.4632 14.6927 13.6927 14.4632 13.8365 14.181C14 13.8601 14 13.4401 14 12.6V9.82548C14 9.3363 14 9.09171 13.9447 8.86154C13.8957 8.65746 13.8149 8.46237 13.7053 8.28343C13.5816 8.0816 13.4086 7.90865 13.0627 7.56275L13.0627 7.56274L12.4373 6.93726C12.0914 6.59135 11.9184 6.4184 11.7166 6.29472C11.5376 6.18506 11.3425 6.10425 11.1385 6.05526C10.9083 6 10.6637 6 10.1745 6H8.4C7.55992 6 7.13988 6 6.81901 6.16349C6.53677 6.3073 6.3073 6.53677 6.16349 6.81901ZM8 12.1404V9.85961C8 9.41231 8 9.18866 8.09404 9.05787C8.17609 8.94375 8.30239 8.86944 8.442 8.85313C8.602 8.83444 8.79751 8.94306 9.18851 9.16029L11.2412 10.3007C11.6522 10.529 11.8577 10.6432 11.9259 10.7936C11.9853 10.9248 11.9853 11.0752 11.9259 11.2064C11.8577 11.3569 11.6522 11.471 11.2412 11.6993L9.18851 12.8397C8.79751 13.0569 8.602 13.1656 8.442 13.1469C8.30239 13.1306 8.17609 13.0562 8.09404 12.9421C8 12.8113 8 12.5877 8 12.1404Z" fill="#A67CF8"/>
<path fill-rule="evenodd" clip-rule="evenodd" d="M6.16349 6.81901C6 7.13988 6 7.55992 6 8.4V12.6C6 13.4401 6 13.8601 6.16349 14.181C6.3073 14.4632 6.53677 14.6927 6.81901 14.8365C7.13988 15 7.55992 15 8.4 15H11.6C12.4401 15 12.8601 15 13.181 14.8365C13.4632 14.6927 13.6927 14.4632 13.8365 14.181C14 13.8601 14 13.4401 14 12.6V9.82548C14 9.3363 14 9.09171 13.9447 8.86154C13.8957 8.65746 13.8149 8.46237 13.7053 8.28343C13.5816 8.0816 13.4086 7.90865 13.0627 7.56275L13.0627 7.56274L12.4373 6.93726C12.0914 6.59135 11.9184 6.4184 11.7166 6.29472C11.5376 6.18506 11.3425 6.10425 11.1385 6.05526C10.9083 6 10.6637 6 10.1745 6H8.4C7.55992 6 7.13988 6 6.81901 6.16349C6.53677 6.3073 6.3073 6.53677 6.16349 6.81901ZM8 12.1404V9.85961C8 9.41231 8 9.18866 8.09404 9.05787C8.17609 8.94375 8.30239 8.86944 8.442 8.85313C8.602 8.83444 8.79751 8.94306 9.18851 9.16029L11.2412 10.3007C11.6522 10.529 11.8577 10.6432 11.9259 10.7936C11.9853 10.9248 11.9853 11.0752 11.9259 11.2064C11.8577 11.3569 11.6522 11.471 11.2412 11.6993L9.18851 12.8397C8.79751 13.0569 8.602 13.1656 8.442 13.1469C8.30239 13.1306 8.17609 13.0562 8.09404 12.9421C8 12.8113 8 12.5877 8 12.1404Z" fill="black" fill-opacity="0.1" style="mix-blend-mode:plus-darker"/>
</svg>
